<svg xmlns="http://www.w3.org/2000/svg" xmlns:xlink="http://www.w3.org/1999/xlink" width="420" height="306" viewBox="0 0 420 306">
  <defs>
    <clipPath id="clip-path">
      <rect id="Rectángulo_410029" data-name="Rectángulo 410029" width="420" height="306" transform="translate(265 1362)" fill="#fff" stroke="#707070" stroke-width="1"/>
    </clipPath>
  </defs>
  <g id="Enmascarar_grupo_1098796" data-name="Enmascarar grupo 1098796" transform="translate(-265 -1362)" clip-path="url(#clip-path)">
    <g id="Grupo_1162644" data-name="Grupo 1162644">
      <path id="Trazado_1015880" data-name="Trazado 1015880" d="M1941.1,529.6c46.259-51.015,17.655-196.158-130.823-256.384S1543.054,398.691,1568.7,512.252s245.5,157.286,372.4,17.349" transform="translate(-1292.136 1113.721)" fill="#f9e6c3"/>
      <g id="Grupo_1162606" data-name="Grupo 1162606" transform="translate(285 1375.209)">
        <path id="Trazado_1014690" data-name="Trazado 1014690" d="M1429.685,513.833h92.258v79.212h-92.258Z" transform="translate(-1425.656 -503.874)" fill="#fff"/>
        <path id="Trazado_1014691" data-name="Trazado 1014691" d="M1426.119,590.923h93.7V510.267h-93.7Zm92.257-1.445h-90.813V511.712h90.813Z" transform="translate(-1422.811 -501.029)" fill="#7d86ba"/>
        <rect id="Rectángulo_409989" data-name="Rectángulo 409989" width="93.596" height="7.757" transform="translate(3.442 3.907)" fill="#7d86ba"/>
        <path id="Trazado_1014692" data-name="Trazado 1014692" d="M1446.936,469.846a5.186,5.186,0,1,1,5.186,5.186,5.186,5.186,0,0,1-5.186-5.186" transform="translate(-1364.515 -464.66)" fill="#f15a28"/>
        <path id="Trazado_1014693" data-name="Trazado 1014693" d="M1525.381,469.846a5.186,5.186,0,1,1,5.186,5.186,5.186,5.186,0,0,1-5.186-5.186" transform="translate(-1458.849 -464.66)" fill="#fcb033"/>
        <path id="Trazado_1014694" data-name="Trazado 1014694" d="M1600.558,469.846a5.186,5.186,0,1,1,5.186,5.186,5.186,5.186,0,0,1-5.186-5.186" transform="translate(-1549.253 -464.66)" fill="#34b7bf"/>
        <rect id="Rectángulo_409990" data-name="Rectángulo 409990" width="13.217" height="37.826" transform="translate(26.647 18.356)" fill="#34b7bf"/>
        <rect id="Rectángulo_409991" data-name="Rectángulo 409991" width="13.217" height="28.604" transform="translate(43.218 27.579)" fill="#34b7bf"/>
        <rect id="Rectángulo_409992" data-name="Rectángulo 409992" width="13.217" height="19.727" transform="translate(60.577 36.456)" fill="#34b7bf"/>
        <rect id="Rectángulo_409993" data-name="Rectángulo 409993" width="68.797" height="2.709" transform="translate(15.76 63.953)" fill="#e2e2ec"/>
        <rect id="Rectángulo_409994" data-name="Rectángulo 409994" width="68.797" height="2.709" transform="translate(15.76 70.725)" fill="#e2e2ec"/>
        <rect id="Rectángulo_409995" data-name="Rectángulo 409995" width="68.797" height="2.709" transform="translate(15.76 78.218)" fill="#e2e2ec"/>
        <path id="Trazado_1014695" data-name="Trazado 1014695" d="M591.115,1365.9a2.805,2.805,0,0,0,2.805-2.805V1231.628a2.805,2.805,0,0,0-5.611,0v131.464a2.805,2.805,0,0,0,2.805,2.805" transform="translate(-327.217 -1074.046)" fill="#313440"/>
        <path id="Trazado_1014696" data-name="Trazado 1014696" d="M471.422,1562.279a2.806,2.806,0,0,0,2.477-4.119l-44.617-84.212L382.4,1557.487a2.805,2.805,0,1,0,4.893,2.746l41.845-74.568,39.8,75.121a2.805,2.805,0,0,0,2.481,1.493" transform="translate(-165.744 -1269.521)" fill="#313440"/>
        <path id="Trazado_1014697" data-name="Trazado 1014697" d="M186.58,660.368a84.61,84.61,0,1,1,84.61,84.61,84.61,84.61,0,0,1-84.61-84.61" transform="translate(-7.728 -553.256)" fill="#f15a28"/>
        <path id="Trazado_1014698" data-name="Trazado 1014698" d="M295.483,747.213a62.552,62.552,0,1,1,62.552,62.552,62.552,62.552,0,0,1-62.552-62.552" transform="translate(-94.573 -640.101)" fill="#fff"/>
        <path id="Trazado_1014699" data-name="Trazado 1014699" d="M383.255,817.207a44.774,44.774,0,1,1,44.774,44.774,44.774,44.774,0,0,1-44.774-44.774" transform="translate(-164.567 -710.096)" fill="#f15a28"/>
        <path id="Trazado_1014700" data-name="Trazado 1014700" d="M466.558,883.637a27.9,27.9,0,1,1,27.9,27.9,27.9,27.9,0,0,1-27.9-27.9" transform="translate(-230.998 -776.525)" fill="#fff"/>
        <path id="Trazado_1014701" data-name="Trazado 1014701" d="M535.638,938.726a13.91,13.91,0,1,1,13.91,13.91,13.91,13.91,0,0,1-13.91-13.91" transform="translate(-286.085 -831.613)" fill="#f15a28"/>
        <path id="Trazado_1014702" data-name="Trazado 1014702" d="M986.707,567.372l-13.556.342L954.908,549.9l19.622,1.654Z" transform="translate(-794.256 -532.636)" fill="#7d86ba"/>
        <path id="Trazado_1014703" data-name="Trazado 1014703" d="M952.421,499.495l3.279-13.158L942.276,464.66l-2.649,19.512Z" transform="translate(-760.154 -464.66)" fill="#7d86ba"/>
        <path id="Trazado_1014704" data-name="Trazado 1014704" d="M739.77,627.1a1.77,1.77,0,0,0-.473-1.2L670.82,552.223a1.771,1.771,0,1,0-2.6,2.411L736.7,628.311a1.771,1.771,0,0,0,3.069-1.212" transform="translate(-489.158 -534.036)" fill="#313440"/>
        <path id="Trazado_1014705" data-name="Trazado 1014705" d="M634.531,897.553,609.6,883.592l10.213-2.084,4.344-9.362Z" transform="translate(-372.141 -789.612)" fill="#fcb033"/>
        <path id="Trazado_1014706" data-name="Trazado 1014706" d="M404.243,540.64a34.212,34.212,0,1,0,34.212-34.212,34.212,34.212,0,0,0-34.212,34.212" transform="translate(-168.682 -497.969)" fill="#34b7bf"/>
        <path id="Trazado_1014707" data-name="Trazado 1014707" d="M472.832,695.8h40.64s-6.2-20.815-20.568-20.815S472.832,695.8,472.832,695.8" transform="translate(-223.379 -632.389)" fill="#fff"/>
        <path id="Trazado_1014708" data-name="Trazado 1014708" d="M520.139,562.04a11.027,11.027,0,1,1,11.027,11.027,11.027,11.027,0,0,1-11.027-11.027" transform="translate(-261.682 -533.522)" fill="#fff"/>
        <path id="Trazado_1014709" data-name="Trazado 1014709" d="M1156.816,955.877l4.015-.04,0-.538-4.015.04Z" transform="translate(-1009.275 -855.923)" fill="#313440"/>
        <path id="Trazado_1014710" data-name="Trazado 1014710" d="M1134.982,972.186s6.914-6.31,12.3-4.028,5.456,14.172-.581,16.144-12.865-3.052-12.865-3.052Z" transform="translate(-995.063 -865.779)" fill="#dda583"/>
        <path id="Trazado_1014711" data-name="Trazado 1014711" d="M1152.952,996.171a.242.242,0,0,1-.059-.467,4.611,4.611,0,0,0,2.782-5.419,4.684,4.684,0,0,0-1.822-3.313c-1.148-.719-2.906-.693-5.874.085a.242.242,0,0,1-.123-.468c3.152-.826,4.963-.833,6.253-.027a5.775,5.775,0,0,1-1.05,9.6.247.247,0,0,1-.108.014" transform="translate(-1002.871 -880.375)" fill="#313440"/>
        <path id="Trazado_1014712" data-name="Trazado 1014712" d="M1163.265,825.166c2.553,4.584.837,13.913-1.944,22.053s-1.023-16.309-1.023-16.309l-5.057-7.542Z" transform="translate(-1012.641 -750.713)" fill="#313440"/>
        <path id="Trazado_1014713" data-name="Trazado 1014713" d="M1227.792,1117.643c-.161-2.418,6.447,1.934,19.02,1.612s21.438-1.128,21.76-.323-.967,6.609-.967,6.609l-33.2,2.74Z" transform="translate(-1131.442 -984.799)" fill="#313440"/>
        <path id="Trazado_1014714" data-name="Trazado 1014714" d="M1277.37,1026.147l-.492,15.289s-13.361,5.971-35.466-3.864l2.29-30.659,17.833,15.661Z" transform="translate(-1142.949 -897.081)" fill="#f0b48f"/>
        <path id="Trazado_1014715" data-name="Trazado 1014715" d="M1267.064,1070.481l.175-5.432-15.836-3.573-5.957-5.231-4.035-.55c6.4,12.691,21.771,14.524,25.653,14.787" transform="translate(-1132.818 -935.982)" fill="#313440"/>
        <path id="Trazado_1014716" data-name="Trazado 1014716" d="M1216.209,779.943c1.142,4.654-1.475,11.191-1.149,20.622s2.162,29.388-16.192,31.389-32.2-14.654-32.2-14.654l-4.319-30.108c-2.006-13.986,7.823-24.006,21.87-25.528q.486-.052.984-.09c27.432-2.039,31,18.368,31,18.368" transform="translate(-1066.014 -701.322)" fill="#f0b48f"/>
        <path id="Trazado_1014717" data-name="Trazado 1014717" d="M855.663,1154.281c-20.309,4.621-51.041,16.656-62.647,25.9,0,0,16.86,110.687,16.86,125.516l148.246,1.442,29.018-.57c2.7-4.356-6.078-99.827-26.019-126.28l-.03-.2s-28.676-23.645-62.554-25l-6.447,2.1-6.125-3.224-7.415,2.794Z" transform="translate(-762.376 -1014.344)" fill="#fcb033"/>
        <path id="Trazado_1014718" data-name="Trazado 1014718" d="M1377.346,848.066l-2.534-22.621,15.528-2.885s-1.444,7.737-2.411,17.143.24,13.42.24,13.42Z" transform="translate(-1282.939 -750.068)" fill="#313440"/>
        <path id="Trazado_1014719" data-name="Trazado 1014719" d="M1241.462,948.273a.322.322,0,0,1-.118-.606,6.775,6.775,0,0,0,3.133-5.079c.137-1.329-.426-2.2-1.277-3.529a24.188,24.188,0,0,1-2-3.615.323.323,0,1,1,.591-.258,23.651,23.651,0,0,0,1.948,3.525c.891,1.388,1.536,2.391,1.376,3.944a7.351,7.351,0,0,1-3.473,5.584.321.321,0,0,1-.183.035" transform="translate(-1110.674 -839.728)" fill="#313440"/>
        <path id="Trazado_1014720" data-name="Trazado 1014720" d="M1307.191,938.309c.157-1.528-.218-2.818-.838-2.881s-1.25,1.123-1.407,2.65.218,2.818.838,2.881,1.25-1.123,1.407-2.65" transform="translate(-1185.667 -840.074)" fill="#313440"/>
        <path id="Trazado_1014721" data-name="Trazado 1014721" d="M1202.686,945.059c.157-1.528-.218-2.818-.838-2.881s-1.25,1.123-1.407,2.65.218,2.818.838,2.881,1.25-1.123,1.407-2.65" transform="translate(-1059.997 -845.456)" fill="#313440"/>
        <path id="Trazado_1014722" data-name="Trazado 1014722" d="M1301.679,912.639c-.116.533-.7.8-1.22.973a21.635,21.635,0,0,1-8.248,1.021,3.427,3.427,0,0,1-1.432-.331,1.91,1.91,0,0,1-.864-2.189,2.492,2.492,0,0,1,1.432-1.432,7.143,7.143,0,0,1,2.033-.443c2.576-.3,5.411-.461,7.525,1.04.452.32.892.819.774,1.36" transform="translate(-1177.084 -819.832)" fill="#313440"/>
        <path id="Trazado_1014723" data-name="Trazado 1014723" d="M1182.517,923.446c-1.616.026-3.68-.841-4.855-.877-1.037-.032-3.162.379-3.252-1.167a2.729,2.729,0,0,1,2-2.008,7.986,7.986,0,0,1,2.312-.221c1.758.008,4.547-.048,5.68,1.6a1.522,1.522,0,0,1,.212,1.387,2.053,2.053,0,0,1-2.1,1.283" transform="translate(-1036.712 -827.113)" fill="#313440"/>
        <path id="Trazado_1014724" data-name="Trazado 1014724" d="M1302.809,967.6c-.151-.016-.306-.037-.467-.064a.242.242,0,0,1-.2-.279.233.233,0,0,1,.279-.2,4.405,4.405,0,0,0,3.354-.558.242.242,0,0,1,.3.376,4.6,4.6,0,0,1-3.273.722" transform="translate(-1184.051 -864.815)" fill="#313440"/>
        <path id="Trazado_1014725" data-name="Trazado 1014725" d="M1204.584,969.69a4.852,4.852,0,0,1-2.878-1.08.242.242,0,0,1,.342-.341,4.517,4.517,0,0,0,2.586.941.242.242,0,0,1-.049.481" transform="translate(-1062.373 -866.208)" fill="#313440"/>
        <path id="Trazado_1014726" data-name="Trazado 1014726" d="M1249.6,1132.972c-9.454,1.039-23.855-2.686-26.918-6.071l-2.794,5.856s11.5,23.157,13.916,22.834,11.283-21.276,15.635-22.243,14.506,16.924,15.635,17.247-.645-21.921-1.612-22.4.806,3.17-13.862,4.782" transform="translate(-1126.651 -992.768)" fill="#313440"/>
        <path id="Trazado_1014727" data-name="Trazado 1014727" d="M1248.6,1127.3c-9.454,1.039-24.178-3.385-27.24-6.77l-3.062,7.092s11.767,21.921,14.184,21.6,11.605-19.987,15.957-20.954,14.184,15.635,15.312,15.957-.645-21.921-1.612-22.4,1.128,3.868-13.539,5.48" transform="translate(-1125.007 -987.69)" fill="#fcb033"/>
        <path id="Trazado_1014728" data-name="Trazado 1014728" d="M1119.46,730.63c-3.469-4.083-9.5-10.051-1.385-14.888s9.443,1.133,15.078-6.388,17.3-13.776,24.559-7.2,23.5-.014,27.342,6.7.329,14.131-4.186,17.069-16.705,3.3-29.08.735-23.68,8.1-23.68,8.1Z" transform="translate(-1026.48 -651.845)" fill="#313440"/>
        <path id="Trazado_1014729" data-name="Trazado 1014729" d="M1138.9,803.345a66.652,66.652,0,0,1-10.911-2.365c-4.143-1.144-8.057-2.226-11.75-2.172l-.01-.644c3.787-.056,7.743,1.038,11.931,2.2,5.053,1.4,10.278,2.84,15.768,2.438,9.958-.729,15.983-8.376,16.34-13.383l.643.046c-.374,5.235-6.62,13.225-16.937,13.98a28.825,28.825,0,0,1-5.074-.1" transform="translate(-1001.133 -723.637)" fill="#313440"/>
        <path id="Trazado_1014730" data-name="Trazado 1014730" d="M1368.292,1049.08a.24.24,0,0,1-.12-.047c-.214-.159-5.269-3.939-7.354-6.743a.242.242,0,0,1,.388-.288c2.043,2.747,7.2,6.6,7.256,6.643a.242.242,0,0,1-.169.434" transform="translate(-1258.314 -924.986)" fill="#313440"/>
        <path id="Trazado_1014731" data-name="Trazado 1014731" d="M1238.926,1319.641a5.326,5.326,0,0,1-1.773,0c-.131-.03-.465-50.492-.451-50.625,1.2-10.956-4-63.925-6.224-86.544-.579-5.894-1-10.153-1.084-11.413a.241.241,0,0,1,.225-.257.237.237,0,0,1,.258.224c.086,1.253.5,5.509,1.083,11.4,2.411,24.551,7.427,75.637,6.224,86.644-.014.124.324,49.863,1.742,50.573" transform="translate(-1102.071 -1027.775)" fill="#313440"/>
        <path id="Trazado_1014732" data-name="Trazado 1014732" d="M1224.176,1203.373c-.159-1-.859-1.713-1.562-1.6s-1.144,1.011-.985,2.007.859,1.713,1.562,1.6,1.144-1.011.985-2.007" transform="translate(-1085.774 -1052.465)" fill="#313440"/>
        <path id="Trazado_1014733" data-name="Trazado 1014733" d="M1370.7,1224.223a1.827,1.827,0,1,0-1.827,1.827,1.827,1.827,0,0,0,1.827-1.827" transform="translate(-1261.721 -1068.921)" fill="#313440"/>
        <path id="Trazado_1014734" data-name="Trazado 1014734" d="M1372.044,1229.42a.161.161,0,0,1-.114-.275l1.33-1.33a.161.161,0,0,1,.228.228l-1.33,1.33a.16.16,0,0,1-.114.047" transform="translate(-1265.541 -1073.204)" fill="#313440"/>
        <path id="Trazado_1014735" data-name="Trazado 1014735" d="M1373.374,1229.42a.161.161,0,0,0,.114-.275l-1.33-1.33a.161.161,0,0,0-.228.228l1.33,1.33a.161.161,0,0,0,.114.047" transform="translate(-1265.541 -1073.204)" fill="#313440"/>
        <path id="Trazado_1014736" data-name="Trazado 1014736" d="M1289.957,1183.075a1.827,1.827,0,1,0-1.827,1.827,1.827,1.827,0,0,0,1.827-1.827" transform="translate(-1164.628 -1036.107)" fill="#313440"/>
        <path id="Trazado_1014737" data-name="Trazado 1014737" d="M1291.306,1188.272a.161.161,0,0,1-.114-.275l1.33-1.33a.161.161,0,0,1,.228.228l-1.33,1.33a.161.161,0,0,1-.114.047" transform="translate(-1168.45 -1040.391)" fill="#313440"/>
        <path id="Trazado_1014738" data-name="Trazado 1014738" d="M1292.635,1188.272a.161.161,0,0,0,.114-.275l-1.33-1.33a.161.161,0,0,0-.228.228l1.33,1.33a.161.161,0,0,0,.114.047" transform="translate(-1168.449 -1040.391)" fill="#313440"/>
        <path id="Trazado_1014739" data-name="Trazado 1014739" d="M1280.408,1250.717a1.827,1.827,0,1,0-1.827,1.827,1.827,1.827,0,0,0,1.827-1.827" transform="translate(-1153.145 -1090.048)" fill="#313440"/>
        <path id="Trazado_1014740" data-name="Trazado 1014740" d="M1281.756,1255.914a.161.161,0,0,1-.114-.275l1.33-1.33a.161.161,0,0,1,.228.228l-1.33,1.33a.161.161,0,0,1-.114.047" transform="translate(-1156.966 -1094.332)" fill="#313440"/>
        <path id="Trazado_1014741" data-name="Trazado 1014741" d="M1283.086,1255.914a.161.161,0,0,0,.114-.275l-1.33-1.33a.161.161,0,1,0-.228.228l1.33,1.33a.161.161,0,0,0,.114.047" transform="translate(-1156.966 -1094.332)" fill="#313440"/>
        <path id="Trazado_1014742" data-name="Trazado 1014742" d="M1275.1,1336.663a1.827,1.827,0,1,0-1.827,1.827,1.827,1.827,0,0,0,1.827-1.827" transform="translate(-1146.765 -1158.586)" fill="#313440"/>
        <path id="Trazado_1014743" data-name="Trazado 1014743" d="M1276.451,1341.859a.161.161,0,0,1-.114-.275l1.33-1.33a.161.161,0,0,1,.228.228l-1.33,1.33a.161.161,0,0,1-.114.047" transform="translate(-1150.586 -1162.869)" fill="#313440"/>
        <path id="Trazado_1014744" data-name="Trazado 1014744" d="M1277.781,1341.859a.161.161,0,0,0,.114-.275l-1.33-1.33a.161.161,0,0,0-.228.228l1.33,1.33a.161.161,0,0,0,.114.047" transform="translate(-1150.586 -1162.869)" fill="#313440"/>
        <path id="Trazado_1014745" data-name="Trazado 1014745" d="M1264.492,1436.4a1.827,1.827,0,1,0-1.827,1.827,1.827,1.827,0,0,0,1.827-1.827" transform="translate(-1134.005 -1238.123)" fill="#fff"/>
        <path id="Trazado_1014746" data-name="Trazado 1014746" d="M1265.84,1441.6a.161.161,0,0,1-.114-.275l1.33-1.33a.161.161,0,0,1,.228.228l-1.33,1.33a.161.161,0,0,1-.114.047" transform="translate(-1137.826 -1242.406)" fill="#313440"/>
        <path id="Trazado_1014747" data-name="Trazado 1014747" d="M1267.17,1441.6a.161.161,0,0,0,.114-.275l-1.33-1.33a.161.161,0,0,0-.228.228l1.33,1.33a.161.161,0,0,0,.114.047" transform="translate(-1137.826 -1242.406)" fill="#313440"/>
        <path id="Trazado_1014748" data-name="Trazado 1014748" d="M1258.8,1771.963a1.827,1.827,0,1,0-1.827,1.827,1.827,1.827,0,0,0,1.827-1.827" transform="translate(-1127.157 -1505.719)" fill="#313440"/>
        <path id="Trazado_1014749" data-name="Trazado 1014749" d="M1260.145,1777.16a.161.161,0,0,1-.114-.275l1.33-1.33a.161.161,0,1,1,.228.228l-1.33,1.33a.161.161,0,0,1-.114.047" transform="translate(-1130.977 -1510.002)" fill="#313440"/>
        <path id="Trazado_1014750" data-name="Trazado 1014750" d="M1261.475,1777.16a.161.161,0,0,0,.114-.275l-1.33-1.33a.161.161,0,0,0-.228.228l1.33,1.33a.16.16,0,0,0,.114.047" transform="translate(-1130.977 -1510.002)" fill="#313440"/>
        <path id="Trazado_1014751" data-name="Trazado 1014751" d="M1255.295,1839.654a1.827,1.827,0,1,0-1.827,1.827,1.827,1.827,0,0,0,1.827-1.827" transform="translate(-1122.946 -1559.699)" fill="#313440"/>
        <path id="Trazado_1014752" data-name="Trazado 1014752" d="M1256.643,1844.851a.161.161,0,0,1-.114-.275l1.33-1.33a.161.161,0,0,1,.228.228l-1.33,1.33a.161.161,0,0,1-.114.047" transform="translate(-1126.766 -1563.982)" fill="#313440"/>
        <path id="Trazado_1014753" data-name="Trazado 1014753" d="M1257.973,1844.851a.161.161,0,0,0,.114-.275l-1.33-1.33a.161.161,0,0,0-.228.228l1.33,1.33a.161.161,0,0,0,.114.047" transform="translate(-1126.766 -1563.982)" fill="#313440"/>
        <path id="Trazado_1014754" data-name="Trazado 1014754" d="M1250.816,1076.329a.242.242,0,0,1-.124-.431c.113-.088,2.748-2.188,1.4-4.394a.242.242,0,0,1,.412-.253c1.574,2.575-1.483,5-1.514,5.028a.242.242,0,0,1-.174.05" transform="translate(-1120.394 -948.296)" fill="#313440"/>
        <path id="Trazado_1014755" data-name="Trazado 1014755" d="M1468.158,1283.407c-14.419,9.337-31.726,92.29-25.689,125.87l55.67-.354,33.328-23.737-11.7-35.845-27.921-2.641Z" transform="translate(-1437.519 -1117.574)" fill="#fcb033"/>
        <path id="Trazado_1014756" data-name="Trazado 1014756" d="M1004.459,1481.027a.278.278,0,0,0,.112-.024l14.866-6.757a.269.269,0,1,0-.223-.49l-14.748,6.7-12.845-6.507v-33.767h27.7l.122,31.694a.269.269,0,0,0,.539,0l-.122-31.962a.269.269,0,0,0-.27-.268H991.352a.27.27,0,0,0-.27.27v34.2a.268.268,0,0,0,.147.24l13.108,6.64a.261.261,0,0,0,.122.03" transform="translate(-834.857 -1242.167)" fill="#313440"/>
        <path id="Trazado_1014757" data-name="Trazado 1014757" d="M992.932,1471.6h27.839a.27.27,0,1,0,0-.539H992.932a.27.27,0,1,0,0,.539" transform="translate(-836.236 -1267.221)" fill="#313440"/>
        <path id="Trazado_1014758" data-name="Trazado 1014758" d="M1706.03,1703.773a.27.27,0,0,0,.095-.017c.168-.064,17.009-6.346,24.3-6.346a.27.27,0,0,0,0-.539c-7.388,0-23.792,6.12-24.487,6.38a.27.27,0,0,0,.095.522" transform="translate(-1690.323 -1447.293)" fill="#313440"/>
        <path id="Trazado_1014759" data-name="Trazado 1014759" d="M1655.464,1307.5a.278.278,0,0,0,.133-.035.272.272,0,0,0,.1-.366c-4.758-8.461-17.489-14.633-17.617-14.694a.269.269,0,0,0-.232.486c.126.06,12.706,6.16,17.378,14.471a.271.271,0,0,0,.236.138" transform="translate(-1601.578 -1124.731)" fill="#313440"/>
        <path id="Trazado_1014760" data-name="Trazado 1014760" d="M1494.906,1664.416a.283.283,0,0,0,.093-.016.27.27,0,0,0,.16-.345l-12.729-35.078a.269.269,0,1,0-.505.183l12.729,35.078a.269.269,0,0,0,.252.178" transform="translate(-1409.467 -1393.009)" fill="#313440"/>
        <path id="Trazado_1014761" data-name="Trazado 1014761" d="M1504.664,1631.362a2.523,2.523,0,1,0-2.523,2.523,2.523,2.523,0,0,0,2.523-2.523" transform="translate(-1422.542 -1393.04)" fill="#313440"/>
        <path id="Trazado_1014762" data-name="Trazado 1014762" d="M1506.526,1638.539a.223.223,0,0,1-.157-.38l1.836-1.836a.223.223,0,1,1,.315.315l-1.836,1.836a.221.221,0,0,1-.157.065" transform="translate(-1427.817 -1398.956)" fill="#313440"/>
        <path id="Trazado_1014763" data-name="Trazado 1014763" d="M1508.362,1638.539a.223.223,0,0,0,.157-.38l-1.836-1.836a.223.223,0,0,0-.315.315l1.836,1.836a.221.221,0,0,0,.157.065" transform="translate(-1427.817 -1398.956)" fill="#313440"/>
        <path id="Trazado_1014764" data-name="Trazado 1014764" d="M928.823,1539.219h.006a.27.27,0,0,0,.263-.276l-2.034-81.52,1.625-11.758a.271.271,0,0,0-.232-.3.29.29,0,0,0-.3.231l-1.627,11.8,2.031,81.563a.271.271,0,0,0,.27.263" transform="translate(-730.892 -1246.724)" fill="#313440"/>
        <path id="Trazado_1014765" data-name="Trazado 1014765" d="M1281.032,914.244c4.436.456,8.481-3.4,9.016-8.6s-2.641-9.793-7.077-10.25-8.481,3.4-9.016,8.595,2.641,9.794,7.077,10.251m1.883-18.309c4.14.426,7.1,4.759,6.6,9.659s-4.284,8.541-8.424,8.115-7.1-4.759-6.6-9.66,4.284-8.539,8.424-8.114" transform="translate(-1162.265 -808.125)" fill="#313440"/>
        <path id="Trazado_1014766" data-name="Trazado 1014766" d="M1163.137,926.371c4.436.456,8.481-3.4,9.016-8.6s-2.641-9.793-7.077-10.25-8.481,3.4-9.015,8.595,2.641,9.794,7.077,10.251m1.883-18.309c4.141.426,7.1,4.759,6.6,9.659s-4.284,8.541-8.424,8.115-7.1-4.759-6.6-9.66,4.284-8.539,8.424-8.114" transform="translate(-1020.491 -817.796)" fill="#313440"/>
        <path id="Trazado_1014767" data-name="Trazado 1014767" d="M1234.181,944.784c5.2-2.669,7.931.223,8.047.349l.4-.362c-.032-.035-3.107-3.331-8.693-.468Z" transform="translate(-1106.692 -846.222)" fill="#313440"/>
        <path id="Trazado_1014768" data-name="Trazado 1014768" d="M1353.427,943.021l17.481.5.017-.538-17.481-.5Z" transform="translate(-1259.193 -845.702)" fill="#313440"/>
        <path id="Trazado_1014769" data-name="Trazado 1014769" d="M1408.992,945.882s-5.485-7.586-11.219-6.447-8.226,12.765-2.718,15.924,13.217-.369,13.217-.369Z" transform="translate(-1305.069 -843.179)" fill="#f0b48f"/>
        <path id="Trazado_1014770" data-name="Trazado 1014770" d="M1418.015,968.037a.247.247,0,0,1-.1-.035,5.775,5.775,0,0,1,.926-9.609c1.427-.527,3.2-.151,6.117,1.3a.242.242,0,0,1-.215.433c-2.748-1.367-4.464-1.75-5.733-1.279a4.684,4.684,0,0,0-2.458,2.873,4.61,4.61,0,0,0,1.62,5.872.242.242,0,0,1-.153.446" transform="translate(-1325.95 -858.209)" fill="#313440"/>
        <path id="Trazado_1014771" data-name="Trazado 1014771" d="M1269.677,1025a14.732,14.732,0,0,0,2.31-.19.281.281,0,1,0-.088-.555c-7.037,1.116-9.254-3.2-9.276-3.249a.281.281,0,1,0-.5.248c.021.042,1.919,3.746,7.558,3.746" transform="translate(-1141.991 -908.197)" fill="#313440"/>
        <path id="Trazado_1014772" data-name="Trazado 1014772" d="M1472.472,1249.367a7.946,7.946,0,0,0,6-2.4,3.963,3.963,0,0,0-2.008-6.81,10.9,10.9,0,0,0-3.226-.256l-.413.008a17.178,17.178,0,0,1-6.8-1.045,24.03,24.03,0,0,1-2.663-1.357c-.8-.449-1.627-.913-2.5-1.3-1.713-.761-4.243-1.45-6.573-.411a5.171,5.171,0,0,0-2.744,3.13,3.951,3.951,0,0,0,.355,3.289,6.557,6.557,0,0,0,3.79,2.428q2.556.838,5.116,1.667l5.3,1.722a21.476,21.476,0,0,0,6.107,1.337q.133,0,.265,0m1.612-7.236a6.706,6.706,0,0,1,1.779.187,2.124,2.124,0,0,1,1.577,1.319,2.2,2.2,0,0,1-.645,1.828,5.809,5.809,0,0,1-4.53,1.652,19.788,19.788,0,0,1-5.469-1.228l-5.3-1.722q-2.556-.831-5.11-1.666a4.659,4.659,0,0,1-2.579-1.475,1.749,1.749,0,0,1-.119-1.446,2.905,2.905,0,0,1,1.512-1.74c1.659-.739,3.686-.059,4.747.412.779.346,1.525.765,2.314,1.208a26.115,26.115,0,0,0,2.915,1.478,19.34,19.34,0,0,0,7.683,1.211l.426-.009c.27-.006.537-.012.8-.012" transform="translate(-1387.82 -1079.181)" fill="#fff"/>
        <path id="Trazado_1014773" data-name="Trazado 1014773" d="M1617.769,1391.032a7.946,7.946,0,0,0,6-2.4,3.963,3.963,0,0,0-2.008-6.81,10.9,10.9,0,0,0-3.226-.256l-.413.008a17.169,17.169,0,0,1-6.8-1.045,24.077,24.077,0,0,1-2.664-1.357c-.8-.449-1.626-.913-2.5-1.3-1.713-.761-4.243-1.45-6.573-.412a5.172,5.172,0,0,0-2.744,3.13,3.952,3.952,0,0,0,.356,3.289,6.558,6.558,0,0,0,3.79,2.428q2.583.846,5.168,1.684l5.245,1.7a21.479,21.479,0,0,0,6.106,1.337q.133,0,.265,0m1.612-7.236a6.707,6.707,0,0,1,1.78.187,2.123,2.123,0,0,1,1.577,1.319,2.2,2.2,0,0,1-.645,1.828,5.811,5.811,0,0,1-4.531,1.652,19.794,19.794,0,0,1-5.469-1.228l-5.245-1.7q-2.582-.839-5.163-1.683a4.659,4.659,0,0,1-2.579-1.475,1.749,1.749,0,0,1-.119-1.446,2.9,2.9,0,0,1,1.512-1.74c1.658-.739,3.686-.058,4.747.413.779.346,1.525.765,2.314,1.208a26.152,26.152,0,0,0,2.916,1.478h0a19.317,19.317,0,0,0,7.683,1.211l.426-.009c.271-.006.537-.012.8-.012" transform="translate(-1562.546 -1192.152)" fill="#fff"/>
        <path id="Trazado_1014774" data-name="Trazado 1014774" d="M1359.867,1396.48a7.944,7.944,0,0,0,6-2.4,3.963,3.963,0,0,0-2.008-6.81,10.907,10.907,0,0,0-3.225-.255l-.413.008a17.181,17.181,0,0,1-6.8-1.046,24.057,24.057,0,0,1-2.663-1.357c-.8-.449-1.627-.913-2.5-1.3-1.713-.761-4.243-1.45-6.573-.411a5.171,5.171,0,0,0-2.744,3.13,3.953,3.953,0,0,0,.356,3.29,6.558,6.558,0,0,0,3.79,2.428q2.556.838,5.115,1.667l5.3,1.722a21.465,21.465,0,0,0,6.107,1.337c.089,0,.177,0,.265,0m1.611-7.236a6.706,6.706,0,0,1,1.78.187,2.124,2.124,0,0,1,1.577,1.319,2.2,2.2,0,0,1-.645,1.828,5.809,5.809,0,0,1-4.53,1.652,19.786,19.786,0,0,1-5.469-1.228l-5.3-1.722q-2.556-.831-5.11-1.665a4.659,4.659,0,0,1-2.579-1.475,1.749,1.749,0,0,1-.119-1.447,2.9,2.9,0,0,1,1.512-1.739c1.659-.739,3.686-.059,4.747.412.779.346,1.525.765,2.314,1.208a26.165,26.165,0,0,0,2.915,1.478,19.335,19.335,0,0,0,7.683,1.211l.427-.009c.27-.006.536-.012.8-.012" transform="translate(-1252.407 -1196.497)" fill="#fff"/>
        <path id="Trazado_1014775" data-name="Trazado 1014775" d="M1593.25,1577.194a7.946,7.946,0,0,0,6-2.4,3.963,3.963,0,0,0-2.008-6.81,10.915,10.915,0,0,0-3.226-.256l-.413.009a17.179,17.179,0,0,1-6.8-1.046,24.094,24.094,0,0,1-2.664-1.357c-.8-.449-1.626-.913-2.5-1.3-1.712-.761-4.243-1.45-6.573-.412a5.171,5.171,0,0,0-2.744,3.13,3.952,3.952,0,0,0,.355,3.289,6.557,6.557,0,0,0,3.79,2.428q2.583.846,5.168,1.684l5.245,1.7a21.48,21.48,0,0,0,6.106,1.337c.089,0,.177,0,.265,0m1.612-7.236a6.716,6.716,0,0,1,1.78.187,2.125,2.125,0,0,1,1.577,1.32,2.2,2.2,0,0,1-.645,1.828,5.81,5.81,0,0,1-4.531,1.652,19.8,19.8,0,0,1-5.469-1.228l-5.245-1.7q-2.582-.839-5.163-1.683a4.66,4.66,0,0,1-2.579-1.475,1.749,1.749,0,0,1-.119-1.446,2.905,2.905,0,0,1,1.512-1.739c1.659-.739,3.686-.059,4.747.412.779.346,1.525.765,2.314,1.208a26.13,26.13,0,0,0,2.916,1.478,19.325,19.325,0,0,0,7.683,1.211l.426-.009c.271-.006.537-.012.8-.012" transform="translate(-1533.061 -1340.608)" fill="#fff"/>
        <path id="Trazado_1014776" data-name="Trazado 1014776" d="M1776.009,1574.445l5.2,1.69a19.785,19.785,0,0,0,5.474,1.229l.2,0a5.771,5.771,0,0,0,4.343-1.661,2.219,2.219,0,0,0,.649-1.846,2.184,2.184,0,0,0-1.59-1.333,6.771,6.771,0,0,0-1.786-.188c-.264,0-.53.006-.794.012l-.953.014a18.747,18.747,0,0,1-7.15-1.214,24.7,24.7,0,0,1-2.749-1.388q.214-1.142.435-2.279c.159.089.323.177.481.265a24.154,24.154,0,0,0,2.666,1.357,16.612,16.612,0,0,0,6.317,1.051l.9-.012c.281-.006.562-.013.844-.013a8.928,8.928,0,0,1,2.374.268,3.944,3.944,0,0,1,2,6.778,7.959,7.959,0,0,1-5.989,2.4l-.259,0a21.749,21.749,0,0,1-6.1-1.336l-4.894-1.59q.184-1.1.375-2.2" transform="translate(-1767.904 -1344.11)" fill="#f8eee9"/>
        <path id="Trazado_1014777" data-name="Trazado 1014777" d="M1033.857,1293.864a7.946,7.946,0,0,0,6-2.4,3.964,3.964,0,0,0-2.008-6.81,10.907,10.907,0,0,0-3.226-.256l-.413.009a17.178,17.178,0,0,1-6.8-1.046,24.1,24.1,0,0,1-2.664-1.357c-.8-.449-1.626-.913-2.5-1.3-1.713-.761-4.243-1.45-6.573-.412a5.172,5.172,0,0,0-2.744,3.13,3.953,3.953,0,0,0,.355,3.29,6.558,6.558,0,0,0,3.79,2.428q2.583.846,5.168,1.684l5.245,1.7a21.484,21.484,0,0,0,6.106,1.337q.133,0,.265,0m1.612-7.236a6.706,6.706,0,0,1,1.78.187,2.125,2.125,0,0,1,1.577,1.319,2.2,2.2,0,0,1-.645,1.828,5.81,5.81,0,0,1-4.531,1.652,19.789,19.789,0,0,1-5.469-1.228l-5.245-1.7q-2.582-.839-5.163-1.683a4.659,4.659,0,0,1-2.579-1.475,1.749,1.749,0,0,1-.119-1.447,2.9,2.9,0,0,1,1.512-1.739c1.658-.739,3.686-.059,4.747.412.779.346,1.525.765,2.314,1.208a26.173,26.173,0,0,0,2.916,1.478h0a19.318,19.318,0,0,0,7.683,1.211l.426-.009c.271-.006.537-.012.8-.012" transform="translate(-860.365 -1114.666)" fill="#fff"/>
        <path id="Trazado_1014778" data-name="Trazado 1014778" d="M1585.985,1760.631a7.946,7.946,0,0,0,6-2.4,3.963,3.963,0,0,0-2.008-6.81,10.9,10.9,0,0,0-3.226-.255l-.413.008a17.178,17.178,0,0,1-6.8-1.045,24.1,24.1,0,0,1-2.663-1.357c-.8-.449-1.627-.913-2.5-1.3-1.712-.761-4.243-1.45-6.573-.412a5.172,5.172,0,0,0-2.744,3.13,3.952,3.952,0,0,0,.355,3.29,6.558,6.558,0,0,0,3.79,2.428q2.556.838,5.115,1.667l5.3,1.722a21.482,21.482,0,0,0,6.106,1.337q.133,0,.265,0m1.611-7.236a6.706,6.706,0,0,1,1.78.187,2.124,2.124,0,0,1,1.577,1.319,2.2,2.2,0,0,1-.645,1.828,5.812,5.812,0,0,1-4.531,1.652,19.786,19.786,0,0,1-5.469-1.228l-5.3-1.721q-2.556-.831-5.11-1.666a4.658,4.658,0,0,1-2.579-1.475,1.75,1.75,0,0,1-.119-1.446,2.906,2.906,0,0,1,1.511-1.74c1.659-.739,3.686-.059,4.747.413.779.346,1.525.765,2.314,1.208a26.127,26.127,0,0,0,2.915,1.478,19.335,19.335,0,0,0,7.683,1.211l.426-.009c.27-.006.537-.012.8-.012" transform="translate(-1524.325 -1486.892)" fill="#fff"/>
        <path id="Trazado_1014779" data-name="Trazado 1014779" d="M1596.078,1531.309a.268.268,0,0,0,.266-.226l5.3-32.877a.269.269,0,1,0-.531-.086l-5.3,32.877a.269.269,0,0,0,.223.31.272.272,0,0,0,.042,0" transform="translate(-1539.01 -1288.616)" fill="#313440"/>
        <path id="Trazado_1014780" data-name="Trazado 1014780" d="M1584.288,1529.435a.271.271,0,0,0,.095-.017c2.188-.821,4.188-8.106,4.409-8.933a.27.27,0,0,0-.522-.139c-.579,2.175-2.444,7.954-4.076,8.567a.27.27,0,0,0,.095.522" transform="translate(-1523.772 -1306.361)" fill="#313440"/>
        <path id="Trazado_1014781" data-name="Trazado 1014781" d="M893.987,1428.44l-92.545,1.233a3.47,3.47,0,0,0-3.37,2.861l-11.61,65.155a3.47,3.47,0,0,0,3.4,4.079l91.937.389a3.47,3.47,0,0,0,3.428-2.845l12.218-66.778a3.47,3.47,0,0,0-3.46-4.094" transform="translate(-670.925 -1233.23)" fill="#cfc1cc"/>
        <path id="Trazado_1014782" data-name="Trazado 1014782" d="M879.926,1428.44l-92.545,1.233a3.47,3.47,0,0,0-3.37,2.861l-11.61,65.155a3.47,3.47,0,0,0,3.4,4.079l91.937.389a3.47,3.47,0,0,0,3.428-2.845l12.218-66.778a3.47,3.47,0,0,0-3.46-4.094" transform="translate(-654.017 -1233.23)" fill="#34b7bf"/>
        <path id="Trazado_1014783" data-name="Trazado 1014783" d="M801.818,1497.329l11.61-65.155a3.47,3.47,0,0,1,3.37-2.861l92.545-1.233c.115,0,.222.024.334.033l-90.031,1.2a3.47,3.47,0,0,0-3.37,2.861l-11.61,65.155a3.47,3.47,0,0,0,3.4,4.079l89.224.378a.541.541,0,0,0-.09.011l-91.982-.39a3.47,3.47,0,0,1-3.4-4.079" transform="translate(-686.207 -1232.943)" fill="#298c91"/>
        <path id="Trazado_1014784" data-name="Trazado 1014784" d="M995.331,1568.968a8.08,8.08,0,0,1-7.006-.065c-3.293-1.551-6.482-5.344-5.917-9.188.547-3.722,4.136-6.165,7.617-6.859a8.986,8.986,0,0,1,7.107,1.479c4.646,3.512,3.261,11.837-1.618,14.535-.06.033-.121.066-.182.1" transform="translate(-813.089 -1332.299)" fill="#fff"/>
        <path id="Trazado_1014785" data-name="Trazado 1014785" d="M1281.093,1498.1c6.819-6.569,7.411-7.856,8.834-10.366s17.892-12.668,22.778-18.222c4.523-5.141,11.748-5.085,10.326,3.341-1.328,7.869-13.922,13.722-11.541,13.667,7.348-.172,7.344-.257,7.344-.257l-.4,31.98-4.279,6.048-15.631,0Z" transform="translate(-1196.83 -1263.19)" fill="#f0b48f"/>
        <path id="Trazado_1014786" data-name="Trazado 1014786" d="M1235.228,1732.74a4.959,4.959,0,0,1-2.3.471l-30.194-1.032a5.012,5.012,0,1,1,.344-10.018l30.194,1.032a5.012,5.012,0,0,1,1.959,9.547" transform="translate(-1094.876 -1467.456)" fill="#f0b48f"/>
        <path id="Trazado_1014787" data-name="Trazado 1014787" d="M1155.8,1564.734a6.716,6.716,0,0,1-1.065.184l-30.3,2.694a6.689,6.689,0,0,1-7.254-6.067c-.326-3.683-9.4-7.427,6.067-7.254l30.3-2.694a6.686,6.686,0,0,1,2.252,13.137" transform="translate(-1000.653 -1331.422)" fill="#f0b48f"/>
        <path id="Trazado_1014788" data-name="Trazado 1014788" d="M1282.238,1571.511s9.84-11.864,12.913-12.809c13.159-4.049,25.512,9.227,25.512,9.227s8.422,29.322,1.762,31.5c-6.267,2.05-31.056,2.532-31.056,2.532Z" transform="translate(-1198.837 -1336.496)" fill="#f0b48f"/>
        <path id="Trazado_1014789" data-name="Trazado 1014789" d="M1322.831,1597.829a.27.27,0,0,1-.046.171.274.274,0,0,1-.38.078l-3.378-2.235a.275.275,0,0,1,.3-.459l3.378,2.235a.274.274,0,0,1,.123.21" transform="translate(-1204.106 -1366.325)" fill="#313440"/>
        <path id="Trazado_1014790" data-name="Trazado 1014790" d="M1319.792,1597.186a.276.276,0,0,0,.457.185l3.019-2.7a.275.275,0,0,0-.366-.411l-3.019,2.7a.275.275,0,0,0-.091.225" transform="translate(-1204.815 -1365.409)" fill="#313440"/>
        <path id="Trazado_1014791" data-name="Trazado 1014791" d="M1133.448,1578.281a.265.265,0,0,1-.244-.059.271.271,0,0,1-.022-.378c1.964-2.219.047-5.058-.405-5.671l-6.334.686c-1.057,1.772.193,5.961.207,6a.267.267,0,0,1-.177.335l-.013,0a.266.266,0,0,1-.322-.181c-.058-.187-1.385-4.653-.071-6.565a.289.289,0,0,1,.193-.116l6.609-.715a.262.262,0,0,1,.235.1c.029.033,2.945,3.689.479,6.474a.255.255,0,0,1-.134.081" transform="translate(-976.671 -1347.412)" fill="#313440"/>
        <path id="Trazado_1014792" data-name="Trazado 1014792" d="M1175.627,1628.72c.175.005.351,0,.529,0l22.636-.859a6.839,6.839,0,0,0,6.85-6.914c-.182-3.666-3.553-6.482-7.5-6.371l-22.636.859a6.839,6.839,0,0,0-6.85,6.914,6.983,6.983,0,0,0,6.974,6.372" transform="translate(-1056.49 -1381.663)" fill="#f0b48f"/>
        <path id="Trazado_1014793" data-name="Trazado 1014793" d="M1177.125,1679.688c.175.005.351,0,.529,0l22.636-.859a6.839,6.839,0,0,0,6.85-6.914c-.182-3.666-3.553-6.482-7.5-6.371L1177,1666.4a6.838,6.838,0,0,0-6.85,6.914,6.983,6.983,0,0,0,6.975,6.372" transform="translate(-1058.292 -1422.308)" fill="#f0b48f"/>
        <path id="Trazado_1014794" data-name="Trazado 1014794" d="M1182.008,1621.57c.669,0,17.719-.917,18.449-.957a.162.162,0,0,0-.008-.323h-.009c-6.175.332-17.9.956-18.424.956H1182a.162.162,0,0,0,0,.324Z" transform="translate(-1054.124 -1386.224)" fill="#313440"/>
        <path id="Trazado_1014795" data-name="Trazado 1014795" d="M1181.346,1674.531h.009l13.049-.665a.162.162,0,0,0-.008-.323h-.008l-13.049.665a.162.162,0,0,0,.008.323" transform="translate(-1047.938 -1428.688)" fill="#313440"/>
        <path id="Trazado_1014796" data-name="Trazado 1014796" d="M1217.612,1730.391a.162.162,0,0,0,0-.324l-9.426-.277h0a.162.162,0,0,0,0,.324l9.426.277Z" transform="translate(-1076.591 -1473.544)" fill="#313440"/>
        <path id="Trazado_1014797" data-name="Trazado 1014797" d="M1322.113,1648.862a.275.275,0,0,1-.426.249l-3.378-2.235a.275.275,0,0,1,.3-.459l3.378,2.235a.274.274,0,0,1,.123.21" transform="translate(-1203.243 -1407.021)" fill="#313440"/>
        <path id="Trazado_1014798" data-name="Trazado 1014798" d="M1319.073,1648.219a.27.27,0,0,0,.07.163.274.274,0,0,0,.387.023l3.019-2.7a.275.275,0,0,0-.366-.411l-3.019,2.7a.275.275,0,0,0-.091.225" transform="translate(-1203.95 -1406.105)" fill="#313440"/>
        <path id="Trazado_1014799" data-name="Trazado 1014799" d="M1319.809,1696.246a.276.276,0,0,1-.426.25l-3.378-2.235a.275.275,0,0,1,.3-.459l3.378,2.235a.274.274,0,0,1,.123.21" transform="translate(-1200.473 -1444.809)" fill="#313440"/>
        <path id="Trazado_1014800" data-name="Trazado 1014800" d="M1316.769,1695.6a.27.27,0,0,0,.07.163.274.274,0,0,0,.387.022l3.019-2.7a.275.275,0,0,0-.366-.411l-3.019,2.7a.275.275,0,0,0-.091.225" transform="translate(-1201.179 -1443.892)" fill="#313440"/>
        <path id="Trazado_1014801" data-name="Trazado 1014801" d="M1489.62,1667.367a.262.262,0,0,0,.133-.036l36.85-21a.267.267,0,0,0,.124-.313l-11.672-38.23a.267.267,0,0,0-.356-.172c-.478.188-48.048,19.069-74.539,35.07a.269.269,0,1,0,.278.461c25.411-15.347,70.268-33.358,74.188-34.921l11.525,37.744-36.662,20.89a.269.269,0,0,0,.133.5" transform="translate(-1432.548 -1376.104)" fill="#313440"/>
        <path id="Trazado_1014802" data-name="Trazado 1014802" d="M266.477,1084.977a29.662,29.662,0,1,0,29.662-29.662,29.662,29.662,0,0,0-29.662,29.662" transform="translate(6.088 -935.681)" fill="#34b7bf"/>
        <path id="Trazado_1014803" data-name="Trazado 1014803" d="M325.943,1219.5h35.235s-5.371-18.047-17.832-18.047-17.4,18.047-17.4,18.047" transform="translate(-41.332 -1052.223)" fill="#fff"/>
        <path id="Trazado_1014804" data-name="Trazado 1014804" d="M366.958,1103.531a9.561,9.561,0,1,1,9.561,9.561,9.561,9.561,0,0,1-9.561-9.561" transform="translate(-74.542 -966.507)" fill="#fff"/>
        <path id="Trazado_1014805" data-name="Trazado 1014805" d="M1651.188,984.032l3.431-17.183a7.058,7.058,0,0,1,5.458-5.526l.081-.022,10.8-3.589-11.068-4.029a7.089,7.089,0,0,1-5.323-5.414l-3.709-17.437-4.062,17.62a7.028,7.028,0,0,1-5.211,5.276l-.052.015-11.8,3.789L1641.5,961.5a7.089,7.089,0,0,1,5.48,5.255Zm8.532-24.179a8.569,8.569,0,0,0-6.583,6.7l-2.1,10.494-2.6-10.65a8.606,8.606,0,0,0-6.6-6.369l-7.282-2.46,7.407-2.378a8.53,8.53,0,0,0,6.3-6.4l2.53-10.973,2.29,10.765a8.606,8.606,0,0,0,6.415,6.562l6.86,2.5Z" transform="translate(-1615.187 -836.411)" fill="#34b7bf"/>
        <path id="Trazado_1014806" data-name="Trazado 1014806" d="M1169,494.855l-7.115-2.4,7.2-2.312a5.856,5.856,0,0,0,4.32-4.374l2.468-10.707,2.246,10.56a5.856,5.856,0,0,0,4.413,4.488l6.7,2.442-6.545,2.175a5.856,5.856,0,0,0-4.525,4.582l-2.069,10.364-2.549-10.457a5.857,5.857,0,0,0-4.543-4.357" transform="translate(-1038.706 -472.952)" fill="#fcb033"/>
        <path id="Trazado_1014807" data-name="Trazado 1014807" d="M220.375,1724.905a3.709,3.709,0,0,1,3.709-3.709h37.83a3.709,3.709,0,0,1,3.709,3.709v11.046a22.493,22.493,0,0,1-2.379,10.054c-13.833-4.408-28.629-6.1-42.869-11.158Z" transform="translate(75.603 -1466.69)" fill="#fcb033"/>
        <path id="Trazado_1014808" data-name="Trazado 1014808" d="M274.989,1799.754A22.61,22.61,0,0,1,232.12,1789.7v-1.1c14.24,5.06,29.036,6.75,42.869,11.158" transform="translate(63.859 -1520.439)" fill="#fcb033"/>
        <path id="Trazado_1014809" data-name="Trazado 1014809" d="M237.256,1726.542c0-1.164,8.934-2.108,19.954-2.108s19.954.944,19.954,2.108-8.934,2.108-19.954,2.108-19.954-.944-19.954-2.108" transform="translate(60.643 -1469.273)" fill="#313440"/>
        <path id="Trazado_1014810" data-name="Trazado 1014810" d="M227.093,1471.917c-.421-.562-6.6-18.127.843-19.673s10.539,4.778,11.663,13.069-1.827,18.83-.422,19.251,3.373-5.059,7.167-2.108.422,8.15-2.389,10.961-2.67,3.935-2.108,3.935,3.513-1.686,5.2.7,1.686,8.431-8.15,11.523c0,0-8.01,2.108-13.49-.141s1.686-37.52,1.686-37.52" transform="translate(92.588 -1252.027)" fill="#8fa159"/>
        <path id="Trazado_1014811" data-name="Trazado 1014811" d="M301.357,1527.8c-1.124,0-8.619.75-11.8-.937S277.937,1513,280.56,1510s5.059-2.436,5.059-2.436S275.5,1496.7,280.747,1495.2s6.932,1.124,6.932,1.124-7.307-22.484,3.935-21.922,5.059,21.734,5.059,21.734,1.874-8.619,7.869-7.12,4.871,12.553,1.686,20.8c0,0,3.935-3.373,6.183.75s-11.055,17.237-11.055,17.237" transform="translate(16.637 -1269.873)" fill="#b0c66b"/>
        <path id="Trazado_1014812" data-name="Trazado 1014812" d="M360.63,1600.046a.3.3,0,0,0,.208-.079.312.312,0,0,0,.03-.445c-.049-.057-4.913-5.658-3.6-8.948a2.437,2.437,0,0,1,1.5-1.564c1.43-.443,3.216.713,3.233.725a.317.317,0,0,0,.49-.307c-.015-.1-1.366-9.952.957-15.289a.313.313,0,0,0-.163-.416.309.309,0,0,0-.416.163c-2.076,4.767-1.353,12.7-1.086,15a4.591,4.591,0,0,0-3.2-.482,3.047,3.047,0,0,0-1.9,1.932c-1.46,3.651,3.5,9.361,3.711,9.6a.312.312,0,0,0,.238.109" transform="translate(-49.802 -1349.066)" fill="#313440"/>
        <path id="Trazado_1014813" data-name="Trazado 1014813" d="M277.865,1657.248a.316.316,0,0,0,.23-.1c.379-.4,9.27-9.767,7.167-13.582a3.984,3.984,0,0,0-2.442-2.046,6,6,0,0,0-4.129.66.319.319,0,0,0-.116.433.327.327,0,0,0,.433.116,5.427,5.427,0,0,1,3.646-.6,3.372,3.372,0,0,1,2.053,1.741c1.559,2.83-4.577,10.227-7.073,12.84a.317.317,0,0,0,.23.534" transform="translate(44.062 -1403.034)" fill="#313440"/>
        <path id="Trazado_1014814" data-name="Trazado 1014814" d="M371.248,1534.475a.317.317,0,0,0,.25-.51c-.03-.042-3.125-4.077-2.605-6.172a1.33,1.33,0,0,1,.8-.933,1.974,1.974,0,0,1,1.719-.045c1.623.732,2.476,3.473,2.486,3.5a.305.305,0,0,0,.393.21.313.313,0,0,0,.21-.393c-.037-.126-.948-3.048-2.83-3.9a2.628,2.628,0,0,0-2.241.045,1.964,1.964,0,0,0-1.153,1.361c-.591,2.39,2.585,6.534,2.721,6.709a.313.313,0,0,0,.25.124" transform="translate(-63.231 -1311.036)" fill="#313440"/>
        <path id="Trazado_1014815" data-name="Trazado 1014815" d="M272.523,1628.187a.314.314,0,0,0,.3-.208,3.51,3.51,0,0,0-1.2-3.565,2.548,2.548,0,0,0-1.823-.807,2.889,2.889,0,0,0-1.878.965.317.317,0,0,0,.037.445.31.31,0,0,0,.445-.035,2.278,2.278,0,0,1,1.425-.742,1.926,1.926,0,0,1,1.346.621,2.921,2.921,0,0,1,1.046,2.9.317.317,0,0,0,.193.4.336.336,0,0,0,.106.02" transform="translate(58.68 -1388.868)" fill="#313440"/>
        <path id="Trazado_1014816" data-name="Trazado 1014816" d="M449.809,1611.022c-1.906,2.012-8.712-6.745-5.621-7.729s8.15,5.059,5.621,7.729" transform="translate(-154.439 -1372.583)" fill="#b0c66b"/>
        <path id="Trazado_1014817" data-name="Trazado 1014817" d="M230.584,1541.542c2.649.813-2.171,10.8-4.425,8.47s.909-9.549,4.425-8.47" transform="translate(108.851 -1323.338)" fill="#8fa159"/>
        <path id="Trazado_1014818" data-name="Trazado 1014818" d="M430.291,1527.458c-1.471.736-1.967-1.967-1.124-2.248s2.248,1.686,1.124,2.248" transform="translate(-131.69 -1310.379)" fill="#b0c66b"/>
        <path id="Trazado_1014819" data-name="Trazado 1014819" d="M223.544,1582.962c-1.471.736-1.967-1.967-1.124-2.248s2.248,1.686,1.124,2.248" transform="translate(116.934 -1354.641)" fill="#8fa159"/>
        <path id="Trazado_1014820" data-name="Trazado 1014820" d="M347.844,1434.239c-2.69.269-1.827-6.745-.281-6.745s3.091,6.464.281,6.745" transform="translate(-33.644 -1232.477)" fill="#8fa159"/>
        <path id="Trazado_1014821" data-name="Trazado 1014821" d="M190.509,1646.613s.281-4.356,3.935-3.653.984,8.853-1.967,8.291-1.967-4.638-1.967-4.638" transform="translate(151.093 -1404.24)" fill="#8fa159"/>
        <path id="Trazado_1014822" data-name="Trazado 1014822" d="M220.663,1779.27c.339-.043.678-.088,1.011-.115,2.46-.2,5.376.735,5.925,3.276a5.8,5.8,0,0,1-.227,2.718c-.053.206-.105.413-.149.619-.15.707-.07,1.33.2,1.517.334.244,1.142-.182,1.6-.83a11.272,11.272,0,0,0,.593-.979,6.926,6.926,0,0,1,1.783-2.3,4.248,4.248,0,0,1,6.4,2.123,6.994,6.994,0,0,1,.2,1.067,5.027,5.027,0,0,0,.125.712,2.056,2.056,0,0,0,1.811,1.44,2.113,2.113,0,0,0,1.939-1.265,5.386,5.386,0,0,0,.24-1.394,7.469,7.469,0,0,1,.35-1.917,4.517,4.517,0,0,1,7.037-1.735,7.442,7.442,0,0,1,1.562,2.334c.152.307.3.615.474.907.382.648,1.067,1.262,1.579,1.137.584-.149.938-1.177,1.249-2.081l.08-.233a6.588,6.588,0,0,1,2.256-3.342,3.843,3.843,0,0,1,4.524-.088,5.206,5.206,0,0,1,.995,1.12c.1.143.2.285.316.422a2.949,2.949,0,0,0,2.667.9,3.587,3.587,0,0,0,.706-.167v.825c0,.5-.04.995-.075,1.488-.12.022-.228.07-.351.085a5.165,5.165,0,0,1-4.675-1.7c-.146-.176-.281-.362-.414-.549a3.375,3.375,0,0,0-.557-.663,1.632,1.632,0,0,0-1.823.147,4.465,4.465,0,0,0-1.446,2.253l-.077.224c-.448,1.3-1.061,3.085-2.825,3.531-1.792.457-3.31-.889-4.066-2.174-.2-.34-.378-.7-.554-1.054a5.588,5.588,0,0,0-1.063-1.669,2.284,2.284,0,0,0-3.406.839,5.627,5.627,0,0,0-.225,1.355,7.221,7.221,0,0,1-.383,2,4.336,4.336,0,0,1-3.959,2.705c-.062,0-.123,0-.185,0a4.33,4.33,0,0,1-3.869-3.076,7.346,7.346,0,0,1-.189-1.023,5.018,5.018,0,0,0-.131-.731,2.018,2.018,0,0,0-2.9-.959,5.129,5.129,0,0,0-1.175,1.6,13.165,13.165,0,0,1-.715,1.175c-1.09,1.543-3.158,2.483-4.728,1.374a3.573,3.573,0,0,1-1.1-3.823c.05-.237.11-.472.17-.709a4.014,4.014,0,0,0,.209-1.688c-.248-1.148-2.018-1.636-3.543-1.511-.395.033-.8.085-1.2.137Z" transform="translate(75.257 -1512.891)" fill="#fff"/>
        <path id="Trazado_1014823" data-name="Trazado 1014823" d="M738.521,975.412a29.662,29.662,0,1,0,29.662-29.662,29.662,29.662,0,0,0-29.662,29.662" transform="translate(-561.566 -848.308)" fill="#34b7bf"/>
        <path id="Trazado_1014824" data-name="Trazado 1014824" d="M797.987,1109.939h35.234s-5.371-18.047-17.832-18.047-17.4,18.047-17.4,18.047" transform="translate(-608.988 -964.849)" fill="#fff"/>
        <path id="Trazado_1014825" data-name="Trazado 1014825" d="M839,993.966a9.561,9.561,0,1,1,9.561,9.561A9.56,9.56,0,0,1,839,993.966" transform="translate(-642.197 -879.133)" fill="#fff"/>
        <path id="Trazado_1014826" data-name="Trazado 1014826" d="M206.67,495.488l-7.046-2.38,7.133-2.29a5.8,5.8,0,0,0,4.279-4.332l2.444-10.6L215.7,486.34a5.8,5.8,0,0,0,4.37,4.445l6.631,2.418-6.481,2.154a5.8,5.8,0,0,0-4.481,4.537l-2.049,10.264L211.17,499.8a5.8,5.8,0,0,0-4.5-4.314" transform="translate(118.724 -473.609)" fill="#e2e2ec"/>
        <path id="Trazado_1014827" data-name="Trazado 1014827" d="M881.659,1903.377h46.413a.841.841,0,1,0,0-1.681H881.659a.841.841,0,1,0,0,1.681" transform="translate(-721.455 -1610.632)" fill="#545e7d"/>
        <path id="Trazado_1014828" data-name="Trazado 1014828" d="M183.272,1903.412h0l134.157-.035a.841.841,0,0,0,0-1.681h0l-134.157.035a.841.841,0,0,0,0,1.681" transform="translate(30.643 -1610.632)" fill="#545e7d"/>
        <path id="Trazado_1014829" data-name="Trazado 1014829" d="M1208.106,1903.377h139.655a.841.841,0,1,0,0-1.681H1208.106a.841.841,0,1,0,0,1.681" transform="translate(-1207.265 -1610.632)" fill="#545e7d"/>
      </g>
    </g>
  </g>
</svg>
