<svg xmlns="http://www.w3.org/2000/svg" xmlns:xlink="http://www.w3.org/1999/xlink" width="110" height="110" viewBox="0 0 110 110">
  <defs>
    <filter id="Trazado_982547" x="0" y="0" width="110" height="110" filterUnits="userSpaceOnUse">
      <feOffset dy="3" input="SourceAlpha"/>
      <feGaussianBlur stdDeviation="3" result="blur"/>
      <feFlood flood-opacity="0.161"/>
      <feComposite operator="in" in2="blur"/>
      <feComposite in="SourceGraphic"/>
    </filter>
  </defs>
  <g id="Grupo_1162576" data-name="Grupo 1162576" transform="translate(-4551 -2382)">
    <g id="Grupo_1162416" data-name="Grupo 1162416" transform="translate(3436.196 -3684.54)">
      <g id="Grupo_1158638" data-name="Grupo 1158638" transform="translate(-1.195 2772.54)">
        <g id="Grupo_1155734" data-name="Grupo 1155734" transform="translate(0 -1390)">
          <g id="Grupo_1154704" data-name="Grupo 1154704" transform="translate(0 1466)">
            <g id="Grupo_1150790" data-name="Grupo 1150790" transform="translate(3 2320)">
              <g id="Grupo_1154214" data-name="Grupo 1154214" transform="translate(79 -5809)">
                <g id="Grupo_1152583" data-name="Grupo 1152583" transform="translate(1043 6713)">
                  <g id="Grupo_1146973" data-name="Grupo 1146973" transform="translate(0 0)">
                    <g id="Grupo_1146954" data-name="Grupo 1146954">
                      <g transform="matrix(1, 0, 0, 1, -9, -6)" filter="url(#Trazado_982547)">
                        <g id="Trazado_982547-2" data-name="Trazado 982547" transform="translate(9 6)" fill="#fcf3f0">
                          <path d="M 46 90.49987030029297 C 39.99187850952148 90.49987030029297 34.16426849365234 89.32350921630859 28.67905426025391 87.00345611572266 C 23.38019943237305 84.76224517822266 18.62104034423828 81.55341339111328 14.53374671936035 77.46613311767578 C 10.44646644592285 73.37885284423828 7.237639904022217 68.61969757080078 4.996413230895996 63.32085418701172 C 2.676359891891479 57.83565521240234 1.5 52.008056640625 1.5 45.99993515014648 C 1.5 39.99181365966797 2.676359891891479 34.16421508789062 4.996413230895996 28.67901420593262 C 7.237639904022217 23.38017463684082 10.44646644592285 18.62101554870605 14.53374671936035 14.53373527526855 C 18.62104034423828 10.44645500183105 23.38019943237305 7.23762845993042 28.67905426025391 4.996415138244629 C 34.16426849365234 2.676361799240112 39.99187850952148 1.500001788139343 46 1.500001788139343 C 52.00812149047852 1.500001788139343 57.83573150634766 2.676361799240112 63.32094573974609 4.996415138244629 C 68.61979675292969 7.23762845993042 73.37895965576172 10.44645500183105 77.46625518798828 14.53373527526855 C 81.55353546142578 18.62101554870605 84.76235961914062 23.38017463684082 87.00358581542969 28.67901420593262 C 89.32363891601562 34.16421508789062 90.5 39.99181365966797 90.5 45.99993515014648 C 90.5 52.008056640625 89.32363891601562 57.83565521240234 87.00358581542969 63.32085418701172 C 84.76235961914062 68.61969757080078 81.55353546142578 73.37885284423828 77.46625518798828 77.46613311767578 C 73.37895965576172 81.55341339111328 68.61979675292969 84.76224517822266 63.32094573974609 87.00345611572266 C 57.83573150634766 89.32350921630859 52.00812149047852 90.49987030029297 46 90.49987030029297 Z" stroke="none"/>
                          <path d="M 46 2.999992370605469 C 40.1937141418457 2.999992370605469 34.56269836425781 4.136489868164062 29.26337051391602 6.377906799316406 C 24.14332580566406 8.543502807617188 19.54441070556641 11.64437866210938 15.59439849853516 15.59437561035156 C 11.64440155029297 19.54439544677734 8.54351806640625 24.14329528808594 6.377914428710938 29.26333618164062 C 4.136497497558594 34.56264877319336 3 40.19366455078125 3 45.99993515014648 C 3 51.80620574951172 4.136497497558594 57.43720626831055 6.377914428710938 62.73651885986328 C 8.54351806640625 67.8565673828125 11.64440155029297 72.45545959472656 15.59439849853516 76.40547943115234 C 19.54441070556641 80.35547637939453 24.14332580566406 83.45635223388672 29.26337051391602 85.6219482421875 C 34.56269836425781 87.86336517333984 40.1937141418457 88.99986267089844 46 88.99986267089844 C 51.8062858581543 88.99986267089844 57.43730163574219 87.86336517333984 62.73661422729492 85.6219482421875 C 67.85667419433594 83.45635223388672 72.45557403564453 80.35547637939453 76.40558624267578 76.40547943115234 C 80.35559844970703 72.45545959472656 83.45647430419922 67.8565673828125 85.6220703125 62.73651885986328 C 87.86350250244141 57.43720626831055 89 51.80620574951172 89 45.99993515014648 C 89 40.19366455078125 87.86350250244141 34.56264877319336 85.6220703125 29.26333618164062 C 83.45647430419922 24.14329528808594 80.35559844970703 19.54439544677734 76.40558624267578 15.59437561035156 C 72.45557403564453 11.64437866210938 67.85667419433594 8.543502807617188 62.73661422729492 6.377906799316406 C 57.43730163574219 4.136489868164062 51.8062858581543 2.999992370605469 46 2.999992370605469 M 46 -7.62939453125e-06 C 71.40509033203125 -7.62939453125e-06 92 20.59486389160156 92 45.99993515014648 C 92 71.40499114990234 71.40509033203125 91.99986267089844 46 91.99986267089844 C 20.59490203857422 91.99986267089844 0 71.40499114990234 0 45.99993515014648 C 0 20.59486389160156 20.59490203857422 -7.62939453125e-06 46 -7.62939453125e-06 Z" stroke="none" fill="#e89076"/>
                        </g>
                      </g>
                    </g>
                  </g>
                </g>
              </g>
            </g>
          </g>
        </g>
      </g>
    </g>
    <g id="creative_17643467" transform="translate(4551.182 2402)">
      <path id="Trazado_1014545" data-name="Trazado 1014545" d="M61.764,162.065a12.652,12.652,0,0,0-1.575-3.8l.729-1.216.885-1.486a15.729,15.729,0,0,0-3.015-3.015l-1.483.889-1.22.725a12.536,12.536,0,0,0-3.794-1.572l-.348-1.376-.423-1.675a15.563,15.563,0,0,0-4.264,0l-.42,1.675-.348,1.376a12.537,12.537,0,0,0-3.794,1.572l-1.22-.725-1.483-.889a15.629,15.629,0,0,0-3.015,3.015l.885,1.486.729,1.216a12.653,12.653,0,0,0-1.576,3.8l-1.373.345-1.678.423a15.661,15.661,0,0,0,0,4.264l1.678.423,1.373.345a12.654,12.654,0,0,0,1.575,3.8l-.728,1.216-.885,1.486a15.626,15.626,0,0,0,3.015,3.016l1.483-.889,1.22-.725a12.537,12.537,0,0,0,3.794,1.572l.348,1.376.42,1.675a15.66,15.66,0,0,0,4.264,0l.423-1.674.348-1.376a12.573,12.573,0,0,0,3.794-1.572l1.22.725,1.483.889a15.826,15.826,0,0,0,3.015-3.015l-.885-1.487-.729-1.216a12.654,12.654,0,0,0,1.576-3.8l1.373-.345,1.678-.423a15.661,15.661,0,0,0,0-4.264l-1.678-.423Z" transform="translate(-6.121 -130.654)" fill="#69a7ff" fill-rule="evenodd"/>
      <path id="Trazado_1014546" data-name="Trazado 1014546" d="M108.953,216.336a8.2,8.2,0,1,0-8.2,8.2A8.2,8.2,0,0,0,108.953,216.336Z" transform="translate(-57.482 -182.023)" fill="#d5e3f2" fill-rule="evenodd"/>
      <path id="Trazado_1014547" data-name="Trazado 1014547" d="M268.643,417.594v5.064a3.209,3.209,0,0,0,6.419,0v-5.064a3.209,3.209,0,1,0-6.419,0Z" transform="translate(-211.489 -362.4)" fill="#4d6c8f" fill-rule="evenodd"/>
      <path id="Trazado_1014548" data-name="Trazado 1014548" d="M186.509,105.163a18.036,18.036,0,1,0-36.071,0c0,11.713,10.3,14.558,11.286,23.761a1.6,1.6,0,0,0,1.6,1.44h10.305a1.6,1.6,0,0,0,1.6-1.44C176.212,119.721,186.509,116.876,186.509,105.163Z" transform="translate(-108.112 -76.197)" fill="#ffc90d" fill-rule="evenodd"/>
      <path id="Trazado_1014549" data-name="Trazado 1014549" d="M246.1,431.791H235.08a2.18,2.18,0,0,0,0,4.36H246.1a2.18,2.18,0,1,0,0-4.36Z" transform="translate(-180.23 -377.625)" fill="#3b5c82" fill-rule="evenodd"/>
      <path id="Trazado_1014550" data-name="Trazado 1014550" d="M414.145,127.984v36.349a4.016,4.016,0,1,0,8.033,0V127.984l-4.018-8.033Z" transform="translate(-338.738 -104.904)" fill="#2eb851" fill-rule="evenodd"/>
      <path id="Trazado_1014551" data-name="Trazado 1014551" d="M414.145,469.406v.544a4.016,4.016,0,1,0,8.033,0v-.544Z" transform="translate(-338.738 -410.521)" fill="#ff3d50" fill-rule="evenodd"/>
      <path id="Trazado_1014552" data-name="Trazado 1014552" d="M414.145,437.035h8.033V441.1h-8.033Z" transform="translate(-338.738 -382.211)" fill="#d5e3f2"/>
      <g id="Grupo_1162575" data-name="Grupo 1162575" transform="translate(27.696 10.926)">
        <path id="Trazado_1014553" data-name="Trazado 1014553" d="M414.145,127.984h8.033l-4.018-8.033Z" transform="translate(-366.434 -115.83)" fill="#e8b603" fill-rule="evenodd"/>
        <path id="Trazado_1014554" data-name="Trazado 1014554" d="M431.309,124.922l-2.489-4.971-2.486,4.971Z" transform="translate(-377.094 -115.83)" fill="#4d6c8f" fill-rule="evenodd"/>
        <path id="Trazado_1014555" data-name="Trazado 1014555" d="M237.413,397.01H223.48a2.181,2.181,0,0,0,0,4.363h13.933a2.181,2.181,0,0,0,0-4.363Z" transform="translate(-197.781 -358.133)" fill="#4d6c8f" fill-rule="evenodd"/>
        <path id="Trazado_1014556" data-name="Trazado 1014556" d="M157.148,116.316a17.711,17.711,0,0,1-3.986-11.18,18.123,18.123,0,0,1,.188-2.617,17.832,17.832,0,0,1,1.205-4.345,18.058,18.058,0,0,1,15.279-11.027c-.448-.032-.9-.05-1.362-.05a18.04,18.04,0,0,0-17.818,15.216,18.447,18.447,0,0,0-.217,2.824c0,5.658,2.4,9.245,5,12.482,1.084,1.351,2.2,2.639,3.193,3.993a17.155,17.155,0,0,1,2.439,4.409,2.02,2.02,0,0,1,.441-.046h2.269a16.476,16.476,0,0,0-2.055-3.851c-1.38-1.974-3.062-3.787-4.573-5.807Z" transform="translate(-135.808 -87.097)" fill="#e8b603" fill-rule="evenodd"/>
        <path id="Trazado_1014557" data-name="Trazado 1014557" d="M114.639,154.18a12.573,12.573,0,0,1,3.795-1.572l.348-1.376.423-1.675c.345-.05.693-.085,1.042-.107a15.781,15.781,0,0,0-3.225.107l-.42,1.675-.348,1.376a12.606,12.606,0,0,0-2.663.946Z" transform="translate(-103.583 -141.595)" fill="#4c8fed" fill-rule="evenodd"/>
        <path id="Trazado_1014558" data-name="Trazado 1014558" d="M39.155,177.562a15.616,15.616,0,0,1,2.1-2.262l-1.262-.754a15.628,15.628,0,0,0-3.015,3.015l.885,1.486.729,1.216a12.653,12.653,0,0,0-1.576,3.8l-1.373.345-1.678.423a15.661,15.661,0,0,0,0,4.264l1.678.423,1.373.345a12.654,12.654,0,0,0,1.575,3.8l-.728,1.216-.885,1.486a15.626,15.626,0,0,0,3.015,3.016l1.262-.754a15.61,15.61,0,0,1-2.1-2.262l.886-1.487.729-1.216a12.654,12.654,0,0,1-1.575-3.8l-1.373-.345-1.678-.423A16.2,16.2,0,0,1,36,186.96a15.616,15.616,0,0,1,.146-2.132l1.678-.422,1.372-.345a12.652,12.652,0,0,1,1.575-3.8l-.729-1.216Z" transform="translate(-33.817 -163.577)" fill="#4c8fed" fill-rule="evenodd"/>
        <path id="Trazado_1014559" data-name="Trazado 1014559" d="M118.435,361.193a12.573,12.573,0,0,1-3.794-1.572l-1.049.626a12.6,12.6,0,0,0,2.663.946l.348,1.376.42,1.675a15.656,15.656,0,0,0,2.134.146c.366,0,.729-.011,1.091-.035-.352-.025-.7-.064-1.042-.11l-.423-1.675Z" transform="translate(-103.585 -325.434)" fill="#4c8fed" fill-rule="evenodd"/>
        <path id="Trazado_1014560" data-name="Trazado 1014560" d="M416.147,469.406h-2v.544a4.049,4.049,0,0,0,4.014,4.036,3.9,3.9,0,0,0,1-.132,4.051,4.051,0,0,1-3.016-3.9Z" transform="translate(-366.434 -421.447)" fill="#e82e41" fill-rule="evenodd"/>
      </g>
      <path id="Trazado_1014561" data-name="Trazado 1014561" d="M414.145,437.035h2V441.1h-2Z" transform="translate(-338.738 -382.211)" fill="#b7cfe8"/>
      <path id="Trazado_1014562" data-name="Trazado 1014562" d="M414.145,215.73h2V183.986h-2V215.73Z" transform="translate(-338.738 -160.906)" fill="#1ca63e" fill-rule="evenodd"/>
      <path id="Trazado_1014563" data-name="Trazado 1014563" d="M416.151,162.627l1.526-3.047h-2l-.437.878-1.092,2.183h2Z" transform="translate(-338.738 -139.561)" fill="#d1a403" fill-rule="evenodd"/>
      <path id="Trazado_1014564" data-name="Trazado 1014564" d="M426.334,124.922h2l1.486-2.973-1-2Z" transform="translate(-349.398 -104.904)" fill="#3b5c82" fill-rule="evenodd"/>
      <path id="Trazado_1014565" data-name="Trazado 1014565" d="M71.349,8.6l2.507-4.338a.877.877,0,1,1,1.518.877L72.867,9.473A.877.877,0,1,1,71.349,8.6ZM60.362,6.828a.877.877,0,0,0,.877-.877V.877a.877.877,0,0,0-1.753,0V5.951a.877.877,0,0,0,.877.877ZM47.857,9.473A.877.877,0,1,0,49.375,8.6L46.867,4.257a.877.877,0,1,0-1.518.877ZM84.318,22.964V59.315a4.893,4.893,0,0,1-9.787,0v-18c-.5.635-1,1.25-1.5,1.855A26.285,26.285,0,0,0,68.9,49.251a3.058,3.058,0,0,1-.392,5.44,3.054,3.054,0,0,1-2.637,4.6H64.446v.855a4.086,4.086,0,1,1-8.172,0v-.855H54.849a3.054,3.054,0,0,1-2.637-4.6,3.058,3.058,0,0,1-.393-5.44,17.283,17.283,0,0,0-1.88-3.22,13.419,13.419,0,0,1-3.048,1.261l-.644,2.545a.877.877,0,0,1-.73.654,16.546,16.546,0,0,1-4.5,0,.877.877,0,0,1-.73-.654l-.641-2.545a13.372,13.372,0,0,1-3.072-1.273l-2.252,1.346a.877.877,0,0,1-.981-.054,16.5,16.5,0,0,1-3.185-3.185.876.876,0,0,1-.054-.977l1.347-2.256a13.5,13.5,0,0,1-1.275-3.073l-2.545-.641a.877.877,0,0,1-.654-.73,16.546,16.546,0,0,1,0-4.5.877.877,0,0,1,.654-.73l2.544-.641A13.421,13.421,0,0,1,31.446,27.5L30.1,25.244a.876.876,0,0,1,.055-.978,16.467,16.467,0,0,1,3.185-3.181.876.876,0,0,1,.978-.053l2.254,1.344A13.443,13.443,0,0,1,39.642,21.1l.641-2.545a.877.877,0,0,1,.73-.654,16.43,16.43,0,0,1,3.978-.064,18.9,18.9,0,0,1,31.464,1.07l2.184-4.37a.877.877,0,0,1,1.568,0l4.018,8.033a.878.878,0,0,1,.093.392Zm-5.962-3.939h2.135L79.423,16.89Zm-.876,1.753-.654,1.309h5.2l-.655-1.309Zm-1.2,33.055h2.262V23.841H76.285V53.834ZM48.866,44.619c-.382-.481-.777-.961-1.177-1.448l-.6-.736A9.08,9.08,0,1,1,41.8,25.24a18.788,18.788,0,0,1,2.12-5.723,14.709,14.709,0,0,0-2.08.055l-.62,2.465a.876.876,0,0,1-.652.641,11.716,11.716,0,0,0-3.531,1.463.876.876,0,0,1-.91.009l-2.185-1.3a14.71,14.71,0,0,0-2.022,2.02l1.3,2.182a.877.877,0,0,1-.007.913,11.676,11.676,0,0,0-1.466,3.534.876.876,0,0,1-.64.652l-2.466.62c-.046.474-.069.953-.069,1.431s.023.953.069,1.428l2.465.62a.876.876,0,0,1,.64.65,11.77,11.77,0,0,0,1.466,3.535.877.877,0,0,1,.007.914l-1.3,2.183a14.738,14.738,0,0,0,2.022,2.022l2.186-1.3a.876.876,0,0,1,.912.01,11.63,11.63,0,0,0,3.529,1.462.876.876,0,0,1,.652.641l.62,2.464a14.85,14.85,0,0,0,2.86,0l.623-2.466a.876.876,0,0,1,.651-.639,11.66,11.66,0,0,0,2.9-1.1ZM41.448,28.85c0-.6.029-1.186.083-1.769a7.326,7.326,0,1,0,4.426,13.932c-2.363-3.081-4.509-6.75-4.509-12.164ZM62.693,59.289H58.027v.855a2.333,2.333,0,1,0,4.666,0Zm4.484-3.056a1.3,1.3,0,0,0-1.3-1.3H54.849a1.3,1.3,0,0,0,0,2.607H65.874a1.3,1.3,0,0,0,1.3-1.3Zm1.454-4.363a1.3,1.3,0,0,0-1.3-1.3H53.4a1.305,1.305,0,0,0,0,2.61H67.328a1.307,1.307,0,0,0,1.3-1.307ZM56.985,27.79a1.858,1.858,0,1,0-3.716,0c0,.855.593,1.554,1.763,2.079a8.821,8.821,0,0,0,1.953.585Zm5,21.022V32.335a19.971,19.971,0,0,1-3.247.089V48.812ZM74.531,38.347V22.964a.876.876,0,0,1,.093-.392l.891-1.783A17.162,17.162,0,0,0,43.2,28.85c0,6.1,2.97,9.714,5.843,13.208a27.12,27.12,0,0,1,4.493,6.755h3.45V32.233a10.97,10.97,0,0,1-2.671-.764c-2.313-1.038-2.8-2.574-2.8-3.679a3.611,3.611,0,1,1,7.223,0v2.878c.344.021.7.032,1.056.032a18.156,18.156,0,0,0,2.191-.132V27.79a3.611,3.611,0,1,1,7.223,0c0,2.179-2.4,3.619-5.47,4.267V48.812h3.448a27.068,27.068,0,0,1,4.492-6.754C72.65,40.876,73.652,39.654,74.531,38.347ZM67.455,27.79a1.858,1.858,0,0,0-3.716,0v2.466C65.931,29.732,67.455,28.8,67.455,27.79ZM82.547,59.648H76.3a3.138,3.138,0,0,0,6.245,0Zm.018-4.061h-6.28v2.308h6.28Zm0-31.746H80.3V53.834h2.265Z" transform="translate(0)"/>
    </g>
  </g>
</svg>
