<svg xmlns="http://www.w3.org/2000/svg" xmlns:xlink="http://www.w3.org/1999/xlink" width="110" height="110" viewBox="0 0 110 110">
  <defs>
    <filter id="Trazado_982547" x="0" y="0" width="110" height="110" filterUnits="userSpaceOnUse">
      <feOffset dy="3" input="SourceAlpha"/>
      <feGaussianBlur stdDeviation="3" result="blur"/>
      <feFlood flood-opacity="0.161"/>
      <feComposite operator="in" in2="blur"/>
      <feComposite in="SourceGraphic"/>
    </filter>
  </defs>
  <g id="Grupo_1162590" data-name="Grupo 1162590" transform="translate(-4237 -2737)">
    <g id="Grupo_1162417" data-name="Grupo 1162417" transform="translate(3437 -3329)">
      <g id="Grupo_1158637" data-name="Grupo 1158637" transform="translate(-1 2772.334)">
        <g id="Grupo_1155724" data-name="Grupo 1155724" transform="translate(0 -1390)">
          <g id="Grupo_1154703" data-name="Grupo 1154703" transform="translate(0 1465.666)">
            <g id="Grupo_1150789" data-name="Grupo 1150789" transform="translate(3 2320)">
              <g id="Grupo_1154212" data-name="Grupo 1154212" transform="translate(-236 -5809)">
                <g id="Grupo_1152583" data-name="Grupo 1152583" transform="translate(1043 6713)">
                  <g id="Grupo_1146973" data-name="Grupo 1146973" transform="translate(0 0)">
                    <g id="Grupo_1146954" data-name="Grupo 1146954">
                      <g transform="matrix(1, 0, 0, 1, -9, -6)" filter="url(#Trazado_982547)">
                        <g id="Trazado_982547-2" data-name="Trazado 982547" transform="translate(9 6)" fill="#fcf3f0">
                          <path d="M 46 90.49987030029297 C 39.99187850952148 90.49987030029297 34.16426849365234 89.32350921630859 28.67905426025391 87.00345611572266 C 23.38019943237305 84.76224517822266 18.62104034423828 81.55341339111328 14.53374671936035 77.46613311767578 C 10.44646644592285 73.37885284423828 7.237639904022217 68.61969757080078 4.996413230895996 63.32085418701172 C 2.676359891891479 57.83565521240234 1.5 52.008056640625 1.5 45.99993515014648 C 1.5 39.99181365966797 2.676359891891479 34.16421508789062 4.996413230895996 28.67901420593262 C 7.237639904022217 23.38017463684082 10.44646644592285 18.62101554870605 14.53374671936035 14.53373527526855 C 18.62104034423828 10.44645500183105 23.38019943237305 7.23762845993042 28.67905426025391 4.996415138244629 C 34.16426849365234 2.676361799240112 39.99187850952148 1.500001788139343 46 1.500001788139343 C 52.00812149047852 1.500001788139343 57.83573150634766 2.676361799240112 63.32094573974609 4.996415138244629 C 68.61979675292969 7.23762845993042 73.37895965576172 10.44645500183105 77.46625518798828 14.53373527526855 C 81.55353546142578 18.62101554870605 84.76235961914062 23.38017463684082 87.00358581542969 28.67901420593262 C 89.32363891601562 34.16421508789062 90.5 39.99181365966797 90.5 45.99993515014648 C 90.5 52.008056640625 89.32363891601562 57.83565521240234 87.00358581542969 63.32085418701172 C 84.76235961914062 68.61969757080078 81.55353546142578 73.37885284423828 77.46625518798828 77.46613311767578 C 73.37895965576172 81.55341339111328 68.61979675292969 84.76224517822266 63.32094573974609 87.00345611572266 C 57.83573150634766 89.32350921630859 52.00812149047852 90.49987030029297 46 90.49987030029297 Z" stroke="none"/>
                          <path d="M 46 2.999992370605469 C 40.1937141418457 2.999992370605469 34.56269836425781 4.136489868164062 29.26337051391602 6.377906799316406 C 24.14332580566406 8.543502807617188 19.54441070556641 11.64437866210938 15.59439849853516 15.59437561035156 C 11.64440155029297 19.54439544677734 8.54351806640625 24.14329528808594 6.377914428710938 29.26333618164062 C 4.136497497558594 34.56264877319336 3 40.19366455078125 3 45.99993515014648 C 3 51.80620574951172 4.136497497558594 57.43720626831055 6.377914428710938 62.73651885986328 C 8.54351806640625 67.8565673828125 11.64440155029297 72.45545959472656 15.59439849853516 76.40547943115234 C 19.54441070556641 80.35547637939453 24.14332580566406 83.45635223388672 29.26337051391602 85.6219482421875 C 34.56269836425781 87.86336517333984 40.1937141418457 88.99986267089844 46 88.99986267089844 C 51.8062858581543 88.99986267089844 57.43730163574219 87.86336517333984 62.73661422729492 85.6219482421875 C 67.85667419433594 83.45635223388672 72.45557403564453 80.35547637939453 76.40558624267578 76.40547943115234 C 80.35559844970703 72.45545959472656 83.45647430419922 67.8565673828125 85.6220703125 62.73651885986328 C 87.86350250244141 57.43720626831055 89 51.80620574951172 89 45.99993515014648 C 89 40.19366455078125 87.86350250244141 34.56264877319336 85.6220703125 29.26333618164062 C 83.45647430419922 24.14329528808594 80.35559844970703 19.54439544677734 76.40558624267578 15.59437561035156 C 72.45557403564453 11.64437866210938 67.85667419433594 8.543502807617188 62.73661422729492 6.377906799316406 C 57.43730163574219 4.136489868164062 51.8062858581543 2.999992370605469 46 2.999992370605469 M 46 -7.62939453125e-06 C 71.40509033203125 -7.62939453125e-06 92 20.59486389160156 92 45.99993515014648 C 92 71.40499114990234 71.40509033203125 91.99986267089844 46 91.99986267089844 C 20.59490203857422 91.99986267089844 0 71.40499114990234 0 45.99993515014648 C 0 20.59486389160156 20.59490203857422 -7.62939453125e-06 46 -7.62939453125e-06 Z" stroke="none" fill="#e89076"/>
                        </g>
                      </g>
                    </g>
                  </g>
                </g>
              </g>
            </g>
          </g>
        </g>
      </g>
    </g>
    <g id="Layer_3" transform="translate(4261.999 2758.688)">
      <g id="Grupo_1162588" data-name="Grupo 1162588" transform="translate(0.888 0.312)">
        <g id="Grupo_1162578" data-name="Grupo 1162578" transform="translate(15.781 1.161)">
          <g id="Grupo_1162577" data-name="Grupo 1162577" transform="translate(0 0)">
            <path id="Trazado_1014566" data-name="Trazado 1014566" d="M143.838,26.457a.875.875,0,0,1-.348-1.677l33.364-14.434a.874.874,0,1,1,.694,1.6L144.185,26.385a.871.871,0,0,1-.347.072Z" transform="translate(-142.963 -10.274)" fill="#827cd2"/>
          </g>
        </g>
        <g id="Grupo_1162580" data-name="Grupo 1162580" transform="translate(41.884 0)">
          <g id="Grupo_1162579" data-name="Grupo 1162579">
            <path id="Trazado_1014567" data-name="Trazado 1014567" d="M375.8,2.739c-.024,0-.049,0-.074,0l-8.065-.678a.874.874,0,0,1,.146-1.743l8.065.678a.874.874,0,0,1-.072,1.746Z" transform="translate(-366.858 -0.312)" fill="#827cd2"/>
          </g>
        </g>
        <g id="Grupo_1162582" data-name="Grupo 1162582" transform="translate(45.024 0.907)">
          <g id="Grupo_1162581" data-name="Grupo 1162581" transform="translate(0 0)">
            <path id="Trazado_1014568" data-name="Trazado 1014568" d="M394.671,16.179a.874.874,0,0,1-.685-1.417l5.024-6.34a.874.874,0,0,1,1.371,1.086l-5.024,6.34A.873.873,0,0,1,394.671,16.179Z" transform="translate(-393.797 -8.091)" fill="#827cd2"/>
          </g>
        </g>
        <path id="Trazado_1014569" data-name="Trazado 1014569" d="M196.871,192h4.71v10.993h-4.71Z" transform="translate(-174.805 -169.652)" fill="#f9475e"/>
        <path id="Trazado_1014570" data-name="Trazado 1014570" d="M222.272,192h1.749v10.993h-1.749Z" transform="translate(-197.245 -169.652)" fill="#e92740"/>
        <path id="Trazado_1014571" data-name="Trazado 1014571" d="M276.658,159.887h4.71v14.737h-4.71Z" transform="translate(-245.29 -141.283)" fill="#00c755"/>
        <path id="Trazado_1014572" data-name="Trazado 1014572" d="M302.058,159.887h1.749v14.737h-1.749Z" transform="translate(-267.729 -141.283)" fill="#00b730"/>
        <path id="Trazado_1014573" data-name="Trazado 1014573" d="M356.444,129.823h4.71v18.242h-4.71Z" transform="translate(-315.775 -114.724)" fill="#f9475e"/>
        <path id="Trazado_1014574" data-name="Trazado 1014574" d="M381.844,129.823h1.749v18.242h-1.749Z" transform="translate(-338.213 -114.724)" fill="#e92740"/>
        <path id="Trazado_1014575" data-name="Trazado 1014575" d="M436.23,97.026h4.71v22.065h-4.71Z" transform="translate(-386.259 -85.751)" fill="#00c755"/>
        <path id="Trazado_1014576" data-name="Trazado 1014576" d="M461.631,97.026h1.749v22.065h-1.749Z" transform="translate(-408.698 -85.751)" fill="#00b730"/>
        <path id="Trazado_1014577" data-name="Trazado 1014577" d="M0,0H9.558V18.95H0Z" transform="translate(0 40.483) rotate(-15.3)" fill="#00c755"/>
        <path id="Trazado_1014578" data-name="Trazado 1014578" d="M53.744,325.79l-1.627.445L57,344.067l-7.593,2.077.122.445,9.22-2.522Z" transform="translate(-44.536 -287.844)" fill="#00b730"/>
        <path id="Trazado_1014579" data-name="Trazado 1014579" d="M97.422,341.751l-3.906,1.068a.017.017,0,0,1-.02-.012L89.07,326.657a.016.016,0,0,1,.012-.02l3.906-1.068a.016.016,0,0,1,.02.011l4.425,16.151A.016.016,0,0,1,97.422,341.751Z" transform="translate(-79.572 -287.648)" fill="#827cd2"/>
        <path id="Trazado_1014580" data-name="Trazado 1014580" d="M110.488,325.58a.016.016,0,0,0-.02-.011l-1.611.441,4.308,15.722a.016.016,0,0,1-.012.02l-2.295.628.118.429a.016.016,0,0,0,.02.011l3.906-1.068a.017.017,0,0,0,.012-.02Z" transform="translate(-97.053 -287.648)" fill="#625ac5"/>
        <path id="Trazado_1014581" data-name="Trazado 1014581" d="M172.523,314.659l-25.777,14.067a1.3,1.3,0,0,1-1.1.065l-6.628-3.953-7.142,1.59-3.16-11.532,10.052-4.237a.241.241,0,0,1,.19.027l8.513,5.216.962,3.511-.758-2.765,20.416-5.584a3.315,3.315,0,0,1,4.081,2.3Z" transform="translate(-114.593 -274.469)" fill="#ffbd86"/>
        <g id="Grupo_1162583" data-name="Grupo 1162583" transform="translate(29.849 36.474)">
          <path id="Trazado_1014582" data-name="Trazado 1014582" d="M291.357,315.588a3.315,3.315,0,0,0-4.081-2.3l-1.029.281a3.275,3.275,0,0,1,1.612,2.022l.354,1.293L263.629,330.3l1.2.716a1.3,1.3,0,0,0,1.1-.065l25.777-14.067Z" transform="translate(-263.629 -313.165)" fill="#db9e82"/>
        </g>
        <g id="Grupo_1162584" data-name="Grupo 1162584" transform="translate(24.989 43.92)">
          <path id="Trazado_1014583" data-name="Trazado 1014583" d="M225.984,380.226a1.194,1.194,0,0,1-.505-.112l-3.032-1.418a.874.874,0,1,1,.741-1.584l2.847,1.331,4.54-1.242a.874.874,0,0,1,.461,1.687l-4.737,1.3A1.2,1.2,0,0,1,225.984,380.226Z" transform="translate(-221.942 -377.029)" fill="#fed2a4"/>
        </g>
        <ellipse id="Elipse_11844" data-name="Elipse 11844" cx="13.855" cy="13.733" rx="13.855" ry="13.733" transform="translate(0.776 2.261)" fill="#827cd2"/>
        <path id="Trazado_1014584" data-name="Trazado 1014584" d="M119.855,19.709a14.12,14.12,0,0,0-1.749.109,13.719,13.719,0,0,1,0,27.248,14.119,14.119,0,0,0,1.749.109,13.733,13.733,0,1,0,0-27.465Z" transform="translate(-105.223 -17.448)" fill="#625ac5"/>
        <ellipse id="Elipse_11845" data-name="Elipse 11845" cx="10.262" cy="10.172" rx="10.262" ry="10.172" transform="translate(4.369 5.822)" fill="#00c755"/>
        <path id="Trazado_1014585" data-name="Trazado 1014585" d="M119.855,50.252a10.425,10.425,0,0,0-1.749.148,10.158,10.158,0,0,1,0,20.048,10.413,10.413,0,0,0,1.749.148,10.172,10.172,0,1,0,0-20.343Z" transform="translate(-105.223 -44.43)" fill="#00b730"/>
        <g id="Grupo_1162587" data-name="Grupo 1162587" transform="translate(10.43 7.66)">
          <g id="Grupo_1162585" data-name="Grupo 1162585" transform="translate(3.249)">
            <path id="Trazado_1014586" data-name="Trazado 1014586" d="M125.812,82.684a.874.874,0,0,1-.874-.874V66.891a.874.874,0,0,1,1.749,0V81.81A.874.874,0,0,1,125.812,82.684Z" transform="translate(-124.938 -66.017)" fill="#deddf5"/>
          </g>
          <g id="Grupo_1162586" data-name="Grupo 1162586" transform="translate(0 1.567)">
            <path id="Trazado_1014587" data-name="Trazado 1014587" d="M101.023,92.866a5.689,5.689,0,0,1-3.542-.957.874.874,0,1,1,.919-1.488,4.136,4.136,0,0,0,2.784.7A2.451,2.451,0,0,0,103.7,89.1a1.862,1.862,0,0,0-1.432-2.112,13.38,13.38,0,0,1-3.728-1.684,2.925,2.925,0,0,1-1.052-2.921,3.443,3.443,0,0,1,2.454-2.719,4.807,4.807,0,0,1,4.351.783.874.874,0,0,1-1.142,1.324,3.068,3.068,0,0,0-2.731-.426A1.71,1.71,0,0,0,99.2,82.7a1.215,1.215,0,0,0,.372,1.2,12.954,12.954,0,0,0,3.241,1.431,3.582,3.582,0,0,1,2.606,4.046,4.224,4.224,0,0,1-4.227,3.489Z" transform="translate(-97.067 -79.461)" fill="#deddf5"/>
          </g>
        </g>
      </g>
      <g id="Grupo_1162589" data-name="Grupo 1162589" transform="translate(0.001 0.312)">
        <path id="Trazado_1014588" data-name="Trazado 1014588" d="M270.032,152.387a.874.874,0,0,0-.874.874V168a.874.874,0,0,0,.874.874h4.71a.874.874,0,0,0,.874-.874V153.261a.874.874,0,0,0-.874-.874Zm3.836,14.737h-2.961V154.136h2.961Z" transform="translate(-237.778 -134.657)"/>
        <path id="Trazado_1014589" data-name="Trazado 1014589" d="M349.818,122.323a.874.874,0,0,0-.874.874v18.242a.874.874,0,0,0,.874.874h4.71a.874.874,0,0,0,.874-.874V123.2a.874.874,0,0,0-.874-.874Zm3.836,18.242h-2.961V124.072h2.961Z" transform="translate(-308.262 -108.098)"/>
        <path id="Trazado_1014590" data-name="Trazado 1014590" d="M428.73,90.4v22.065a.874.874,0,0,0,.874.874h4.71a.874.874,0,0,0,.874-.874V102.322a.874.874,0,1,0-1.749,0v9.269h-2.961V91.275h2.961v6.967a.874.874,0,1,0,1.749,0V90.4a.874.874,0,0,0-.874-.874H429.6a.874.874,0,0,0-.874.874Z" transform="translate(-378.747 -79.125)"/>
        <path id="Trazado_1014591" data-name="Trazado 1014591" d="M59.662,307.8l-.354-1.293a4.194,4.194,0,0,0-5.155-2.915l-19.579,5.355a.875.875,0,0,0-.354-.419l-8.513-5.216a1.119,1.119,0,0,0-.877-.125.879.879,0,0,0-.109.038l-9.133,3.85-.421-1.536a.894.894,0,0,0-1.093-.62l-3.078.842-.056-.2a.874.874,0,0,0-1.074-.612l-9.22,2.522a.874.874,0,0,0-.613,1.075l2.237,8.163a.874.874,0,0,0,1.687-.462L1.95,308.925l7.533-2.06.057.207s0,.009,0,.014l4.427,16.155,0,.008.057.207L6.5,325.516l-1.46-5.327a.874.874,0,0,0-1.687.462l1.69,6.17a.873.873,0,0,0,1.074.612l9.22-2.522a.874.874,0,0,0,.613-1.075l-.056-.2,3.077-.842h0a.891.891,0,0,0,.621-1.094l-.339-1.239,5.906-1.315,6.33,3.775a.9.9,0,0,0,.122.061,2.165,2.165,0,0,0,1.849-.109L59.237,308.8a.875.875,0,0,0,.424-1ZM15.429,321.947l-3.972-14.5,2.25-.615.457,1.667h0l2.127,7.761,1.388,5.067Zm17.194-.612a.42.42,0,0,1-.313.037l-6.553-3.909a.874.874,0,0,0-.638-.1l-6.328,1.409-2.737-9.989,9.019-3.8,7.939,4.864.638,2.33-3.681,1.007-2.847-1.331a.874.874,0,1,0-.741,1.584l3.032,1.418a1.2,1.2,0,0,0,.82.07l4.641-1.27c.027,0,.054-.011.082-.018a.877.877,0,0,0,.567-1.238l-.482-1.758,19.573-5.353a2.443,2.443,0,0,1,3.007,1.691l.171.626Z" transform="translate(-0.001 -267.845)"/>
        <path id="Trazado_1014592" data-name="Trazado 1014592" d="M21.5,30.914a14.739,14.739,0,0,0,6.56-1.531v4.271a.874.874,0,0,0,.874.874h4.71a.874.874,0,0,0,.874-.874V23.134a14.484,14.484,0,0,0,1.193-10.67L55.1,4.072,52.077,7.891a.874.874,0,1,0,1.371,1.086l5.024-6.34a.874.874,0,0,0,.058-1,.874.874,0,0,0-.77-.642L49.695.316a.874.874,0,0,0-.146,1.743l4.86.408L35.139,10.8a14.748,14.748,0,0,0-28.373,5.5A14.685,14.685,0,0,0,21.5,30.914Zm11.27,1.865H29.8V28.362A14.808,14.808,0,0,0,32.765,25.7ZM21.5,3.449A12.859,12.859,0,1,1,8.515,16.307,12.935,12.935,0,0,1,21.5,3.449Z" transform="translate(-5.977 -0.313)"/>
        <path id="Trazado_1014593" data-name="Trazado 1014593" d="M48.719,64.844A11.046,11.046,0,1,0,37.582,53.8,11.1,11.1,0,0,0,48.719,64.844Zm0-20.343a9.3,9.3,0,1,1-9.388,9.3A9.354,9.354,0,0,1,48.719,44.5Z" transform="translate(-33.201 -37.804)"/>
        <path id="Trazado_1014594" data-name="Trazado 1014594" d="M97.481,80.034a5.413,5.413,0,0,0,2.834.94v.837a.874.874,0,1,0,1.749,0v-.906a4.2,4.2,0,0,0,3.358-3.4,3.582,3.582,0,0,0-2.606-4.046c-.247-.083-.5-.169-.752-.259V69.411a2.736,2.736,0,0,1,1.081.488.874.874,0,0,0,1.142-1.324,4.586,4.586,0,0,0-2.223-.939v-.743a.874.874,0,0,0-1.749,0V67.7c-.124.026-.25.056-.379.092a3.443,3.443,0,0,0-2.454,2.719,2.925,2.925,0,0,0,1.052,2.921,8.487,8.487,0,0,0,1.78.965v4.828a3.739,3.739,0,0,1-1.916-.677.874.874,0,1,0-.919,1.488Zm2.094-8.009a1.215,1.215,0,0,1-.372-1.2,1.714,1.714,0,0,1,1.112-1.317V72.47A5.313,5.313,0,0,1,99.576,72.025Zm2.688,3.089a1.862,1.862,0,0,1,1.432,2.112,2.4,2.4,0,0,1-1.631,1.874V75.047Z" transform="translate(-85.75 -58.358)"/>
      </g>
    </g>
  </g>
</svg>
