<svg xmlns="http://www.w3.org/2000/svg" xmlns:xlink="http://www.w3.org/1999/xlink" width="110" height="110" viewBox="0 0 110 110">
  <defs>
    <filter id="Trazado_982547" x="0" y="0" width="110" height="110" filterUnits="userSpaceOnUse">
      <feOffset dy="3" input="SourceAlpha"/>
      <feGaussianBlur stdDeviation="3" result="blur"/>
      <feFlood flood-opacity="0.161"/>
      <feComposite operator="in" in2="blur"/>
      <feComposite in="SourceGraphic"/>
    </filter>
  </defs>
  <g id="Grupo_1162592" data-name="Grupo 1162592" transform="translate(-4551 -2738)">
    <g id="Grupo_1162418" data-name="Grupo 1162418" transform="translate(3436.196 -3328.54)">
      <g id="Grupo_1158638" data-name="Grupo 1158638" transform="translate(-1.195 2772.54)">
        <g id="Grupo_1155734" data-name="Grupo 1155734" transform="translate(0 -1390)">
          <g id="Grupo_1154704" data-name="Grupo 1154704" transform="translate(0 1466)">
            <g id="Grupo_1150790" data-name="Grupo 1150790" transform="translate(3 2320)">
              <g id="Grupo_1154214" data-name="Grupo 1154214" transform="translate(79 -5809)">
                <g id="Grupo_1152583" data-name="Grupo 1152583" transform="translate(1043 6713)">
                  <g id="Grupo_1146973" data-name="Grupo 1146973" transform="translate(0 0)">
                    <g id="Grupo_1146954" data-name="Grupo 1146954">
                      <g transform="matrix(1, 0, 0, 1, -9, -6)" filter="url(#Trazado_982547)">
                        <g id="Trazado_982547-2" data-name="Trazado 982547" transform="translate(9 6)" fill="#fcf3f0">
                          <path d="M 46 90.49987030029297 C 39.99187850952148 90.49987030029297 34.16426849365234 89.32350921630859 28.67905426025391 87.00345611572266 C 23.38019943237305 84.76224517822266 18.62104034423828 81.55341339111328 14.53374671936035 77.46613311767578 C 10.44646644592285 73.37885284423828 7.237639904022217 68.61969757080078 4.996413230895996 63.32085418701172 C 2.676359891891479 57.83565521240234 1.5 52.008056640625 1.5 45.99993515014648 C 1.5 39.99181365966797 2.676359891891479 34.16421508789062 4.996413230895996 28.67901420593262 C 7.237639904022217 23.38017463684082 10.44646644592285 18.62101554870605 14.53374671936035 14.53373527526855 C 18.62104034423828 10.44645500183105 23.38019943237305 7.23762845993042 28.67905426025391 4.996415138244629 C 34.16426849365234 2.676361799240112 39.99187850952148 1.500001788139343 46 1.500001788139343 C 52.00812149047852 1.500001788139343 57.83573150634766 2.676361799240112 63.32094573974609 4.996415138244629 C 68.61979675292969 7.23762845993042 73.37895965576172 10.44645500183105 77.46625518798828 14.53373527526855 C 81.55353546142578 18.62101554870605 84.76235961914062 23.38017463684082 87.00358581542969 28.67901420593262 C 89.32363891601562 34.16421508789062 90.5 39.99181365966797 90.5 45.99993515014648 C 90.5 52.008056640625 89.32363891601562 57.83565521240234 87.00358581542969 63.32085418701172 C 84.76235961914062 68.61969757080078 81.55353546142578 73.37885284423828 77.46625518798828 77.46613311767578 C 73.37895965576172 81.55341339111328 68.61979675292969 84.76224517822266 63.32094573974609 87.00345611572266 C 57.83573150634766 89.32350921630859 52.00812149047852 90.49987030029297 46 90.49987030029297 Z" stroke="none"/>
                          <path d="M 46 2.999992370605469 C 40.1937141418457 2.999992370605469 34.56269836425781 4.136489868164062 29.26337051391602 6.377906799316406 C 24.14332580566406 8.543502807617188 19.54441070556641 11.64437866210938 15.59439849853516 15.59437561035156 C 11.64440155029297 19.54439544677734 8.54351806640625 24.14329528808594 6.377914428710938 29.26333618164062 C 4.136497497558594 34.56264877319336 3 40.19366455078125 3 45.99993515014648 C 3 51.80620574951172 4.136497497558594 57.43720626831055 6.377914428710938 62.73651885986328 C 8.54351806640625 67.8565673828125 11.64440155029297 72.45545959472656 15.59439849853516 76.40547943115234 C 19.54441070556641 80.35547637939453 24.14332580566406 83.45635223388672 29.26337051391602 85.6219482421875 C 34.56269836425781 87.86336517333984 40.1937141418457 88.99986267089844 46 88.99986267089844 C 51.8062858581543 88.99986267089844 57.43730163574219 87.86336517333984 62.73661422729492 85.6219482421875 C 67.85667419433594 83.45635223388672 72.45557403564453 80.35547637939453 76.40558624267578 76.40547943115234 C 80.35559844970703 72.45545959472656 83.45647430419922 67.8565673828125 85.6220703125 62.73651885986328 C 87.86350250244141 57.43720626831055 89 51.80620574951172 89 45.99993515014648 C 89 40.19366455078125 87.86350250244141 34.56264877319336 85.6220703125 29.26333618164062 C 83.45647430419922 24.14329528808594 80.35559844970703 19.54439544677734 76.40558624267578 15.59437561035156 C 72.45557403564453 11.64437866210938 67.85667419433594 8.543502807617188 62.73661422729492 6.377906799316406 C 57.43730163574219 4.136489868164062 51.8062858581543 2.999992370605469 46 2.999992370605469 M 46 -7.62939453125e-06 C 71.40509033203125 -7.62939453125e-06 92 20.59486389160156 92 45.99993515014648 C 92 71.40499114990234 71.40509033203125 91.99986267089844 46 91.99986267089844 C 20.59490203857422 91.99986267089844 0 71.40499114990234 0 45.99993515014648 C 0 20.59486389160156 20.59490203857422 -7.62939453125e-06 46 -7.62939453125e-06 Z" stroke="none" fill="#e89076"/>
                        </g>
                      </g>
                    </g>
                  </g>
                </g>
              </g>
            </g>
          </g>
        </g>
      </g>
    </g>
    <g id="green-earth_11226473" transform="translate(4558.034 2750.004)">
      <g id="Grupo_1162591" data-name="Grupo 1162591" transform="translate(14.978 5.032)">
        <path id="Trazado_1014595" data-name="Trazado 1014595" d="M79.189,106.817c-3.72-7.088,2.834-14.792,10.806-12.288C90.533,103.652,81.039,103.132,79.189,106.817Z" transform="translate(-69.934 -82.174)" fill="#8bbd00" fill-rule="evenodd"/>
        <path id="Trazado_1014596" data-name="Trazado 1014596" d="M79.445,112.1a9.166,9.166,0,0,1-1.027-3.352,8.744,8.744,0,0,1,9.647-7.693,7.829,7.829,0,0,0,2.2-.841C90.508,108.926,81.268,108.475,79.445,112.1Z" transform="translate(-70.191 -87.462)" fill="#a8e304" fill-rule="evenodd"/>
        <path id="Trazado_1014597" data-name="Trazado 1014597" d="M385.911,11.228c-7.5.3-10.689,9.241-4.914,14.543C388.661,21.929,383.785,14.46,385.911,11.228Z" transform="translate(-326.85 -11.228)" fill="#8bbd00" fill-rule="evenodd"/>
        <path id="Trazado_1014598" data-name="Trazado 1014598" d="M394.1,11.227a8.6,8.6,0,0,0-3.2.738,8.2,8.2,0,0,0-1.725,11.446,7.343,7.343,0,0,1,.35,2.185c7.186-3.889,2.486-11.185,4.58-14.368Z" transform="translate(-335.038 -11.227)" fill="#a8e304" fill-rule="evenodd"/>
        <path id="Trazado_1014599" data-name="Trazado 1014599" d="M71.854,251.489a17.26,17.26,0,1,1-34.274,0H21.029v7.685L27.8,260.51l2.975,7.172L26.93,273.42l7.932,7.932L40.6,277.5l7.172,2.975,1.336,6.774H60.326l1.336-6.774,7.172-2.975,5.738,3.848L82.5,273.42l-3.848-5.738,2.975-7.172,6.774-1.336v-7.685H71.853Z" transform="translate(-21.029 -217.047)" fill="#9cf" fill-rule="evenodd"/>
        <path id="Trazado_1014600" data-name="Trazado 1014600" d="M85.129,259.174l-6.774,1.336-2.975,7.172,3.848,5.738-6.618,6.618-5.03-3.373-9.195,3.814-1.336,6.774H49.107l-1.336-6.774-9.2-3.814-5.03,3.373-6.618-6.618,3.848-5.738L27.8,260.51l-6.774-1.336v-7.685H37.579a17.26,17.26,0,1,0,34.274,0H85.129v7.685Z" transform="translate(-21.028 -217.047)" fill="#b6dbff" fill-rule="evenodd"/>
        <path id="Trazado_1014601" data-name="Trazado 1014601" d="M135.179,270.8a17.517,17.517,0,0,1-1.812.094,17.33,17.33,0,0,1-17.33-17.33,17.5,17.5,0,0,1,.123-2.076h2.809a17.274,17.274,0,0,0,16.21,19.312Z" transform="translate(-102.417 -217.047)" fill="#7986bf" fill-rule="evenodd"/>
      </g>
      <circle id="Elipse_11846" data-name="Elipse 11846" cx="21.216" cy="21.216" r="21.216" transform="translate(18.653 41.552) rotate(-45)" fill="#1176e8"/>
      <path id="Trazado_1014602" data-name="Trazado 1014602" d="M126,161.618a21.219,21.219,0,0,1,0-41.95,21.219,21.219,0,0,1,0,41.95Z" transform="translate(-80.548 -99.09)" fill="#2a92fa" fill-rule="evenodd"/>
      <path id="Trazado_1014603" data-name="Trazado 1014603" d="M196.423,131.5c4.258-1.371-1.081-6.639,1.82-8.461a21.242,21.242,0,0,0-21.9-3.47c.643,1.955,1.629,3.556,3.065,4,1.558.484,4.242,1.264,3.215,3.31-1,1.992,2.06,2.176-.7,5.5-1.041,1.256.845,3.882-2.415,4.617-.829.187-9.228,1.928-6.472,3.75,2.593,1.714,2.759-2.276,5.983,1.7,1.356,1.674,3.028,1,4.042-.544.708-1.079,2.254-3.967,3.594-3.507,5.231,1.8,3.091-4.466,2.7-6.549-.574-3.069,5.084-6.528,4.616-1.867-.19,1.9.663,2.092,2.449,1.517Z" transform="translate(-135.795 -97.616)" fill="#a8e304" fill-rule="evenodd"/>
      <path id="Trazado_1014604" data-name="Trazado 1014604" d="M196.424,132.965a2.814,2.814,0,0,0,1.141-.643,21.242,21.242,0,0,0-16.322-12.66,21.241,21.241,0,0,0-4.9,1.372c.643,1.955,1.629,3.556,3.065,4,1.558.484,4.242,1.264,3.215,3.31-1,1.992,2.06,2.176-.7,5.5-1.041,1.256.845,3.882-2.415,4.617-.829.187-9.228,1.928-6.472,3.75,2.593,1.714,2.759-2.276,5.983,1.7,1.356,1.674,3.028,1,4.042-.544.708-1.079,2.254-3.967,3.594-3.507,5.231,1.8,3.091-4.466,2.7-6.549-.574-3.069,5.084-6.528,4.616-1.867-.19,1.9.663,2.092,2.449,1.517Z" transform="translate(-135.796 -99.085)" fill="#dbff78" fill-rule="evenodd"/>
      <path id="Trazado_1014605" data-name="Trazado 1014605" d="M111.873,227.368c4.183-.168,6.326-2.308,2.407-4.151-1.232-.58-3.362-1.535-2.277-3.107,1.057-1.532-1.261-3.377,1.4-5.807,1.983-1.81,4.725-3.881,3.371-6.649-.928-1.54-2.388-1.177-3.4-.016-.71.81-2.321,3.02-3.376,2.485a4.236,4.236,0,0,0-1.29-.449,21.254,21.254,0,0,0,3.167,17.7Z" transform="translate(-80.549 -173.585)" fill="#dbff78" fill-rule="evenodd"/>
      <path id="Trazado_1014606" data-name="Trazado 1014606" d="M216.664,347.813c-4.967,4.554-1.92-.543-5.766-.543-6.371,0-.06,4.015-5.826,4.167-1.847.049-2.405,1.658-2.562,3.039a21.244,21.244,0,0,0,22.016-4.16c-1.61-2.965-3.894-6.14-7.861-2.5Z" transform="translate(-161.515 -293.135)" fill="#a8e304" fill-rule="evenodd"/>
      <path id="Trazado_1014607" data-name="Trazado 1014607" d="M216.663,347.814c-4.967,4.553-1.92-.543-5.767-.543-6.371,0-.06,4.015-5.826,4.167-1.847.049-2.405,1.658-2.563,3.039a21.074,21.074,0,0,0,4.459,1.187,21.218,21.218,0,0,0,14.4-9.133C220.118,345.888,218.589,346.048,216.663,347.814Z" transform="translate(-161.514 -293.135)" fill="#dbff78" fill-rule="evenodd"/>
      <path id="Trazado_1014608" data-name="Trazado 1014608" d="M81.352,46.335l-5.965,1.177a1,1,0,0,0-.734.6l-2.975,7.174a1,1,0,0,0,.093.943l3.388,5.054-6.766,6.767-5.055-3.389a1.006,1.006,0,0,0-.943-.095L55.224,67.54a1.007,1.007,0,0,0-.6.733l-1.175,5.966h-9.57L42.7,68.273a1,1,0,0,0-.6-.733l-7.174-2.976a1.008,1.008,0,0,0-.943.095L28.93,68.048l-6.766-6.767,3.388-5.054a1,1,0,0,0,.095-.943L22.672,48.11a1,1,0,0,0-.732-.6l-5.966-1.177V40.479H26.5c-.017.355-.026.714-.026,1.074a22.19,22.19,0,1,0,44.381,0c0-.36-.01-.719-.027-1.074H81.352ZM28.914,37.387a20.277,20.277,0,0,0-.432,4.166,20.068,20.068,0,0,0,3.384,11.176c2.087-.187,2.924-.884,2.947-1.067,0-.084-.259-.556-1.485-1.132l-.079-.037C32.2,50,30.618,49.256,30.255,47.913a2.306,2.306,0,0,1,.4-1.964c.169-.247.139-.552.023-1.243A4.565,4.565,0,0,1,32.2,39.979c.176-.161.357-.323.542-.488,2.1-1.876,3.416-3.236,2.619-4.93a.9.9,0,0,0-.619-.5,1.6,1.6,0,0,0-1.144.663c-.088.1-.194.227-.307.366-.876,1.052-2.123,2.549-3.455,2.55a1.78,1.78,0,0,1-.817-.2c-.037-.02-.072-.036-.108-.053ZM47.255,56.156A2.673,2.673,0,0,1,46.7,58.3c-.587.639-1.545.943-3.109.985-.347.009-1.092.03-1.448,1.374a20.157,20.157,0,0,0,19.57-3.722c-.788-1.345-1.786-2.678-2.946-2.872-.837-.139-1.83.31-2.949,1.338-1.964,1.8-2.877,2.313-3.759,2.116a1.941,1.941,0,0,1-1.29-1.373c-.268-.66-.416-1.023-1.388-1.023-1.711,0-2.061.32-2.094.356-.073.076-.052.424-.036.68ZM40,23.328A20.3,20.3,0,0,0,29.435,35.42c.14.059.281.124.429.195.324-.084.958-.692,1.888-1.808.128-.155.244-.292.341-.406a3.465,3.465,0,0,1,2.831-1.339,2.809,2.809,0,0,1,2.183,1.5.594.594,0,0,1,.043.077c1.567,3.205-1.111,5.6-3.066,7.348-.18.16-.356.317-.527.473a2.621,2.621,0,0,0-.9,2.913,3.432,3.432,0,0,1-.351,2.715c-.041.061-.139.215-.116.3.12.444,1.375,1.035,1.911,1.286l.08.037c2.471,1.162,2.776,2.463,2.6,3.347-.245,1.207-1.55,2.1-3.536,2.5a20.285,20.285,0,0,0,7.031,5.35,3.367,3.367,0,0,1,3.265-2.632c1.37-.036,1.654-.3,1.683-.334a1.673,1.673,0,0,0,.028-.663,2.709,2.709,0,0,1,.576-2.177c.643-.683,1.739-.987,3.556-.987a3.174,3.174,0,0,1,3.248,2.272l.008.021a13.483,13.483,0,0,0,1.823-1.486c1.6-1.467,3.16-2.085,4.638-1.838,1.8.3,3.086,1.787,4.11,3.445a20.148,20.148,0,0,0-.661-28.609,6.178,6.178,0,0,0,.347,2.259,8.174,8.174,0,0,1,.41,3.031,3.119,3.119,0,0,1-2.385,2.637c-1.032.332-2.2.581-3.035-.094a2.8,2.8,0,0,1-.717-2.476c.083-.833-.088-1.123-.136-1.153-.076-.043-.493-.031-1.1.395a2.912,2.912,0,0,0-1.389,2.537c.044.237.114.543.2.9.471,2.02,1.182,5.07-.389,6.488-.849.766-2.125.866-3.8.3-.06.016-.344.119-.883.771A17.034,17.034,0,0,0,48.447,44.3c-.125.2-.238.384-.336.533a3.957,3.957,0,0,1-2.98,1.968l-.142,0a3.208,3.208,0,0,1-2.533-1.347c-.9-1.115-1.416-1.382-1.64-1.442-.2-.053-.357,0-.762.182a3.08,3.08,0,0,1-3.346-.234,1.807,1.807,0,0,1-.976-1.879c.189-1.016,1.244-2.246,7.636-3.651l.136-.03c1.283-.29,1.279-.752,1.266-1.872a3.486,3.486,0,0,1,.593-2.4c1.229-1.481,1.015-1.91.691-2.559a2.755,2.755,0,0,1-.12-2.744c.176-.35.115-.495.095-.542-.254-.593-1.841-1.087-2.6-1.323l-.1-.032c-1.386-.43-2.5-1.641-3.328-3.6Zm20.946,2.217a20.155,20.155,0,0,0-19.093-2.989,4,4,0,0,0,2.071,2.458l.1.032c1.366.424,3.238,1,3.856,2.453a2.571,2.571,0,0,1-.148,2.23c-.17.339-.129.444.122.946.567,1.137.963,2.44-.94,4.737a2.217,2.217,0,0,0-.132,1.1c.012,1.2.036,3.207-2.831,3.853l-.147.033c-4.017.883-5.426,1.611-5.9,1.95a1.139,1.139,0,0,0,1.351.016c1.532-.671,2.8-.587,4.765,1.834a1.3,1.3,0,0,0,1.016.6,2.068,2.068,0,0,0,1.4-1.066c.09-.137.193-.305.309-.491,1.006-1.62,2.527-4.067,4.446-3.409.886.305,1.568.35,1.821.12.692-.625.053-3.37-.22-4.542-.089-.379-.165-.705-.216-.983a4.832,4.832,0,0,1,2.206-4.547,3.056,3.056,0,0,1,3.267-.488c.616.36,1.311,1.188,1.121,3.085a2.259,2.259,0,0,0,.006.7,3.579,3.579,0,0,0,1.134-.236c1.222-.395,1.238-1.009.649-3.245-.334-1.271-.763-2.9-.015-4.146Zm6.641-14.926a6.97,6.97,0,0,1,4.98-4.4,15.421,15.421,0,0,0,0,3.536c.213,2.914.43,5.915-2.47,8.091a17.9,17.9,0,0,1,.846-4.958,1,1,0,0,0-1.912-.611,19.853,19.853,0,0,0-.887,4.52,7.3,7.3,0,0,1-.555-6.174Zm-39.744,15.2a15.725,15.725,0,0,0-3.285,1.912,7.406,7.406,0,0,1,1.383-7.007,7.763,7.763,0,0,1,6.038-2.774c.1,0,.2.006.3.009a28.771,28.771,0,0,0-3.5,2.871,1,1,0,0,0,1.39,1.448,26.8,26.8,0,0,1,3.8-3.039c-.456,3.834-3.33,5.227-6.123,6.58ZM82.355,38.472H77.229a28.586,28.586,0,0,0-6.478-15.291,17.694,17.694,0,0,1-.573-3C75.127,17.356,74.8,12.9,74.563,9.6c-.12-1.641-.234-3.192.333-4.052A1,1,0,0,0,74.018,4,9.047,9.047,0,0,0,65.7,9.929a9.5,9.5,0,0,0,2.453,10.139c.012.139.024.276.04.414l-.028-.027a28.753,28.753,0,0,0-33.282-4.118,9.969,9.969,0,0,0-10.485,3.1,9.492,9.492,0,0,0-1.025,10.673,1,1,0,0,0,.889.537h.008a1,1,0,0,0,.888-.553c.5-.988,1.982-1.707,3.556-2.469C31.846,26.1,36.1,24.045,36.032,18A26.732,26.732,0,0,1,75.207,38.471H70.64a22.19,22.19,0,0,0-43.951,0H14.969a1,1,0,0,0-1,1V47.16a1,1,0,0,0,.81.983l6.247,1.233,2.565,6.18-3.55,5.293a1.006,1.006,0,0,0,.123,1.269l7.934,7.933a1,1,0,0,0,1.269.123l5.292-3.549,6.18,2.564,1.233,6.248a1,1,0,0,0,.984.81h11.22a1.006,1.006,0,0,0,.985-.81l1.231-6.248,6.18-2.564,5.292,3.549a1,1,0,0,0,1.269-.123l7.934-7.933a1,1,0,0,0,.124-1.269l-3.549-5.293,2.563-6.18,6.248-1.233a1,1,0,0,0,.809-.983V39.475a1,1,0,0,0-1-1Z" transform="translate(0 0)" fill-rule="evenodd"/>
    </g>
  </g>
</svg>
