<svg xmlns="http://www.w3.org/2000/svg" xmlns:xlink="http://www.w3.org/1999/xlink" width="108" height="108" viewBox="0 0 108 108">
  <defs>
    <filter id="Trazado_982547" x="0" y="0" width="108" height="108" filterUnits="userSpaceOnUse">
      <feOffset dy="3" input="SourceAlpha"/>
      <feGaussianBlur stdDeviation="3" result="blur"/>
      <feFlood flood-opacity="0.161"/>
      <feComposite operator="in" in2="blur"/>
      <feComposite in="SourceGraphic"/>
    </filter>
  </defs>
  <g id="Grupo_1162520" data-name="Grupo 1162520" transform="translate(-616.637 -845)">
    <g id="Grupo_1162408" data-name="Grupo 1162408" transform="translate(5.637 -1732)">
      <g id="Grupo_1158624" data-name="Grupo 1158624" transform="translate(0 2113)">
        <g id="Grupo_1155790" data-name="Grupo 1155790" transform="translate(-5 -3446)">
          <g id="Grupo_1153177" data-name="Grupo 1153177" transform="translate(362 3397)">
            <g id="Grupo_1149598" data-name="Grupo 1149598" transform="translate(80 315)">
              <g id="Grupo_1148770" data-name="Grupo 1148770" transform="translate(-27 -2583)">
                <g id="Grupo_1146954" data-name="Grupo 1146954" transform="translate(-415 -1202)">
                  <g transform="matrix(1, 0, 0, 1, 616, 3983)" filter="url(#Trazado_982547)">
                    <g id="Trazado_982547-2" data-name="Trazado 982547" transform="translate(9 6)" fill="#fcf3f0">
                      <path d="M 45 88.5 C 39.12687683105469 88.5 33.43022537231445 87.35007476806641 28.06830024719238 85.08217620849609 C 22.88852500915527 82.89131164550781 18.23629951477051 79.75458526611328 14.2408504486084 75.75914764404297 C 10.24541282653809 71.76370239257812 7.108687400817871 67.11147308349609 4.917825222015381 61.93170166015625 C 2.649924993515015 56.56977462768555 1.5 50.87312316894531 1.5 45 C 1.5 39.12687683105469 2.649924993515015 33.43022537231445 4.917825222015381 28.06830024719238 C 7.108687400817871 22.88852500915527 10.24541282653809 18.23629951477051 14.2408504486084 14.2408504486084 C 18.23629951477051 10.24541282653809 22.88852500915527 7.108687400817871 28.06830024719238 4.917825222015381 C 33.43022537231445 2.649924993515015 39.12687683105469 1.5 45 1.5 C 50.87312316894531 1.5 56.56977462768555 2.649924993515015 61.93170166015625 4.917825222015381 C 67.11147308349609 7.108687400817871 71.76370239257812 10.24541282653809 75.75914764404297 14.2408504486084 C 79.75458526611328 18.23629951477051 82.89131164550781 22.88852500915527 85.08217620849609 28.06830024719238 C 87.35007476806641 33.43022537231445 88.5 39.12687683105469 88.5 45 C 88.5 50.87312316894531 87.35007476806641 56.56977462768555 85.08217620849609 61.93170166015625 C 82.89131164550781 67.11147308349609 79.75458526611328 71.76370239257812 75.75914764404297 75.75914764404297 C 71.76370239257812 79.75458526611328 67.11147308349609 82.89131164550781 61.93170166015625 85.08217620849609 C 56.56977462768555 87.35007476806641 50.87312316894531 88.5 45 88.5 Z" stroke="none"/>
                      <path d="M 45 3 C 39.32871246337891 3 33.82865524291992 4.110054016113281 28.65262985229492 6.299339294433594 C 23.65165710449219 8.414573669433594 19.15968322753906 11.44334411621094 15.301513671875 15.301513671875 C 11.44334411621094 19.15968322753906 8.414573669433594 23.65165710449219 6.299339294433594 28.65262985229492 C 4.110054016113281 33.82865524291992 3 39.32871246337891 3 45 C 3 50.67128753662109 4.110054016113281 56.17134475708008 6.299339294433594 61.34737396240234 C 8.414573669433594 66.34834289550781 11.44334411621094 70.84031677246094 15.301513671875 74.698486328125 C 19.15968322753906 78.55665588378906 23.65165710449219 81.58542633056641 28.65262985229492 83.70066070556641 C 33.82865524291992 85.88994598388672 39.32871246337891 87 45 87 C 50.67128753662109 87 56.17134475708008 85.88994598388672 61.34737396240234 83.70066070556641 C 66.34834289550781 81.58542633056641 70.84031677246094 78.55665588378906 74.698486328125 74.698486328125 C 78.55665588378906 70.84031677246094 81.58542633056641 66.34834289550781 83.70066070556641 61.34737396240234 C 85.88994598388672 56.17134475708008 87 50.67128753662109 87 45 C 87 39.32871246337891 85.88994598388672 33.82865524291992 83.70066070556641 28.65262985229492 C 81.58542633056641 23.65165710449219 78.55665588378906 19.15968322753906 74.698486328125 15.301513671875 C 70.84031677246094 11.44334411621094 66.34834289550781 8.414573669433594 61.34737396240234 6.299339294433594 C 56.17134475708008 4.110054016113281 50.67128753662109 3 45 3 M 45 0 C 69.85281372070312 0 90 20.14718627929688 90 45 C 90 69.85281372070312 69.85281372070312 90 45 90 C 20.14718627929688 90 0 69.85281372070312 0 45 C 0 20.14718627929688 20.14718627929688 0 45 0 Z" stroke="none" fill="#e89076"/>
                    </g>
                  </g>
                </g>
              </g>
            </g>
          </g>
        </g>
      </g>
    </g>
    <g id="_15-Knowledge" data-name="15-Knowledge" transform="translate(638.637 864.014)">
      <path id="Trazado_1014414" data-name="Trazado 1014414" d="M47,16A15,15,0,0,1,37,30.13V33H27V30.13A15,15,0,1,1,47,16Z" fill="#f5e3a7"/>
      <path id="Trazado_1014415" data-name="Trazado 1014415" d="M38,37v2l-2,2H28l-2-2V37Z" fill="#7e8596"/>
      <path id="Trazado_1014416" data-name="Trazado 1014416" d="M39,33v4H25V33H39Z" fill="#afb4c8"/>
      <circle id="Elipse_11835" data-name="Elipse 11835" cx="10" cy="10" r="10" transform="translate(22 6)" fill="#ffc247"/>
      <path id="Trazado_1014417" data-name="Trazado 1014417" d="M50,41h6l1-1,2-2V30l-2-2-.59-.59a1.992,1.992,0,0,1,0-2.82L58,23l5,5V41L53,51v4H39V48l4-4V42.28l2-2.14V35.5a2.5,2.5,0,0,1,5,0Z" fill="#ffdaaa"/>
      <path id="Trazado_1014418" data-name="Trazado 1014418" d="M59,36v2l-2,2-2.59-2.59a1.992,1.992,0,0,1,0-2.82L56,33Z" fill="#eb975d"/>
      <path id="Trazado_1014419" data-name="Trazado 1014419" d="M59,30v6l-3-3-.59-.59a1.992,1.992,0,0,1,0-2.82L57,28Z" fill="#ffb680"/>
      <path id="Trazado_1014420" data-name="Trazado 1014420" d="M21,44l4,4v7H11V51L1,41V28l5-5,1.59,1.59a1.992,1.992,0,0,1,0,2.82L7,28,5,30v8l2,2,1,1h6V35.5a2.5,2.5,0,0,1,5,0v4.64l2,2.14Z" fill="#ffdaaa"/>
      <path id="Trazado_1014421" data-name="Trazado 1014421" d="M9.59,34.59a1.992,1.992,0,0,1,0,2.82L7,40,5,38V36l3-3Z" fill="#eb975d"/>
      <path id="Trazado_1014422" data-name="Trazado 1014422" d="M8.59,29.59a1.992,1.992,0,0,1,0,2.82L8,33,5,36V30l2-2Z" fill="#ffb680"/>
      <path id="Trazado_1014423" data-name="Trazado 1014423" d="M7,55H27v8H7Z" fill="#ff7045"/>
      <path id="Trazado_1014424" data-name="Trazado 1014424" d="M7,55H27v4H7Z" fill="#ffa480"/>
      <path id="Trazado_1014425" data-name="Trazado 1014425" d="M37,55H57v8H37Z" fill="#ff7045"/>
      <path id="Trazado_1014426" data-name="Trazado 1014426" d="M37,55H57v4H37Z" fill="#ffa480"/>
      <path id="Trazado_1014427" data-name="Trazado 1014427" d="M63.707,27.293l-5-5a1,1,0,0,0-1.414,0l-1.586,1.585a2.977,2.977,0,0,0-.109,4.11l-.891.89a2.977,2.977,0,0,0-.109,4.11l-.891.891a3,3,0,0,0,0,4.242L55.586,40H51V35.5a3.5,3.5,0,1,0-7,0v4.244L42.27,41.6a1,1,0,0,0-.27.682v1.306l-3.707,3.707A1,1,0,0,0,38,48v6H37a1,1,0,0,0-1,1v8a1,1,0,0,0,1,1H57a1,1,0,0,0,1-1V55a1,1,0,0,0-1-1H54V51.414l9.707-9.707A1,1,0,0,0,64,41V28a1,1,0,0,0-.293-.707ZM58,33.586l-1.879-1.879a1,1,0,0,1,0-1.414L57,29.414l1,1Zm-2.879,3.121a1,1,0,0,1,0-1.414L56,34.414l2,2v1.172l-1,1ZM62,40.586l-9.707,9.707A1,1,0,0,0,52,51v3H50v2h6v6H38V56H48V54H40V48.414l2-2V48h2V42.675l1.73-1.854a1,1,0,0,0,.27-.682V35.5a1.5,1.5,0,0,1,3,0V45h2V42h5a1,1,0,0,0,.707-.293l3-3A1,1,0,0,0,60,38V30a1,1,0,0,0-.293-.707l-2.586-2.586a1,1,0,0,1,0-1.414L58,24.414l4,4Z"/>
      <path id="Trazado_1014428" data-name="Trazado 1014428" d="M27,54H26V48a1,1,0,0,0-.293-.707L22,43.586V42.28a1,1,0,0,0-.27-.682L20,39.744V35.5a3.5,3.5,0,0,0-7,0V40H8.414l1.879-1.879a3,3,0,0,0,0-4.242L9.4,32.988a2.976,2.976,0,0,0-.109-4.109L8.4,27.988a2.976,2.976,0,0,0-.109-4.109L6.707,22.293a1,1,0,0,0-1.414,0l-5,5A1,1,0,0,0,0,28V41a1,1,0,0,0,.293.707L10,51.414V54H7a1,1,0,0,0-1,1v8a1,1,0,0,0,1,1H27a1,1,0,0,0,1-1V55A1,1,0,0,0,27,54ZM8.879,36.707,7,38.586l-1-1V36.414l2-2,.879.879a1,1,0,0,1,0,1.414ZM7,29.414l.879.879a1,1,0,0,1,0,1.414L6,33.586V30.414ZM26,62H8V56h6V54H12V51a1,1,0,0,0-.293-.707L2,40.586V28.414l4-4,.879.879a1,1,0,0,1,0,1.414L4.293,29.293A1,1,0,0,0,4,30v8a1,1,0,0,0,.293.707l3,3A1,1,0,0,0,8,42h5v3h2V35.5a1.5,1.5,0,0,1,3,0v4.639a1,1,0,0,0,.27.682L20,42.675V48h2V46.414l2,2V54H16v2H26Z"/>
      <path id="Trazado_1014429" data-name="Trazado 1014429" d="M52,23h2V21h2V19H54V17H52v2H50v2h2Z"/>
      <path id="Trazado_1014430" data-name="Trazado 1014430" d="M10,13h2V11h2V9H12V7H10V9H8v2h2Z"/>
      <path id="Trazado_1014431" data-name="Trazado 1014431" d="M41,16h2A11.013,11.013,0,0,0,32,5V7a9.01,9.01,0,0,1,9,9Z"/>
      <path id="Trazado_1014432" data-name="Trazado 1014432" d="M36,42a1,1,0,0,0,.707-.293l2-2A1,1,0,0,0,39,39V38a1,1,0,0,0,1-1V33a1,1,0,0,0-1-1H38V30.818a16,16,0,1,0-12,0V32H25a1,1,0,0,0-1,1v4a1,1,0,0,0,1,1v1a1,1,0,0,0,.293.707l2,2A1,1,0,0,0,28,42h3v6h2V42ZM27.334,29.185a14,14,0,1,1,9.332,0,1,1,0,0,0-.666.943V32H33V17h3a1,1,0,0,0,1-1V13H35v2H29V13H27v3a1,1,0,0,0,1,1h3v7.941A9.01,9.01,0,0,1,23,16H21A11.01,11.01,0,0,0,31,26.949V32H28V30.128a1,1,0,0,0-.666-.943ZM26,34H38v2H26Zm1,4.586V38H37v.586L35.586,40H28.414Z"/>
      <path id="Trazado_1014433" data-name="Trazado 1014433" d="M31,50h2v2H31Z"/>
      <path id="Trazado_1014434" data-name="Trazado 1014434" d="M31,54h2v2H31Z"/>
    </g>
  </g>
</svg>
