<svg xmlns="http://www.w3.org/2000/svg" xmlns:xlink="http://www.w3.org/1999/xlink" width="110" height="110" viewBox="0 0 110 110">
  <defs>
    <filter id="Trazado_982547" x="0" y="0" width="110" height="110" filterUnits="userSpaceOnUse">
      <feOffset dy="3" input="SourceAlpha"/>
      <feGaussianBlur stdDeviation="3" result="blur"/>
      <feFlood flood-opacity="0.161"/>
      <feComposite operator="in" in2="blur"/>
      <feComposite in="SourceGraphic"/>
    </filter>
  </defs>
  <g id="Grupo_1162569" data-name="Grupo 1162569" transform="translate(-4237 -2020)">
    <g id="Grupo_1162413" data-name="Grupo 1162413" transform="translate(3437 -4046)">
      <g id="Grupo_1158637" data-name="Grupo 1158637" transform="translate(-1 2772.334)">
        <g id="Grupo_1155724" data-name="Grupo 1155724" transform="translate(0 -1390)">
          <g id="Grupo_1154703" data-name="Grupo 1154703" transform="translate(0 1465.666)">
            <g id="Grupo_1150789" data-name="Grupo 1150789" transform="translate(3 2320)">
              <g id="Grupo_1154212" data-name="Grupo 1154212" transform="translate(-236 -5809)">
                <g id="Grupo_1152583" data-name="Grupo 1152583" transform="translate(1043 6713)">
                  <g id="Grupo_1146973" data-name="Grupo 1146973" transform="translate(0 0)">
                    <g id="Grupo_1146954" data-name="Grupo 1146954">
                      <g transform="matrix(1, 0, 0, 1, -9, -6)" filter="url(#Trazado_982547)">
                        <g id="Trazado_982547-2" data-name="Trazado 982547" transform="translate(9 6)" fill="#fcf3f0">
                          <path d="M 46 90.49987030029297 C 39.99187850952148 90.49987030029297 34.16426849365234 89.32350921630859 28.67905426025391 87.00345611572266 C 23.38019943237305 84.76224517822266 18.62104034423828 81.55341339111328 14.53374671936035 77.46613311767578 C 10.44646644592285 73.37885284423828 7.237639904022217 68.61969757080078 4.996413230895996 63.32085418701172 C 2.676359891891479 57.83565521240234 1.5 52.008056640625 1.5 45.99993515014648 C 1.5 39.99181365966797 2.676359891891479 34.16421508789062 4.996413230895996 28.67901420593262 C 7.237639904022217 23.38017463684082 10.44646644592285 18.62101554870605 14.53374671936035 14.53373527526855 C 18.62104034423828 10.44645500183105 23.38019943237305 7.23762845993042 28.67905426025391 4.996415138244629 C 34.16426849365234 2.676361799240112 39.99187850952148 1.500001788139343 46 1.500001788139343 C 52.00812149047852 1.500001788139343 57.83573150634766 2.676361799240112 63.32094573974609 4.996415138244629 C 68.61979675292969 7.23762845993042 73.37895965576172 10.44645500183105 77.46625518798828 14.53373527526855 C 81.55353546142578 18.62101554870605 84.76235961914062 23.38017463684082 87.00358581542969 28.67901420593262 C 89.32363891601562 34.16421508789062 90.5 39.99181365966797 90.5 45.99993515014648 C 90.5 52.008056640625 89.32363891601562 57.83565521240234 87.00358581542969 63.32085418701172 C 84.76235961914062 68.61969757080078 81.55353546142578 73.37885284423828 77.46625518798828 77.46613311767578 C 73.37895965576172 81.55341339111328 68.61979675292969 84.76224517822266 63.32094573974609 87.00345611572266 C 57.83573150634766 89.32350921630859 52.00812149047852 90.49987030029297 46 90.49987030029297 Z" stroke="none"/>
                          <path d="M 46 2.999992370605469 C 40.1937141418457 2.999992370605469 34.56269836425781 4.136489868164062 29.26337051391602 6.377906799316406 C 24.14332580566406 8.543502807617188 19.54441070556641 11.64437866210938 15.59439849853516 15.59437561035156 C 11.64440155029297 19.54439544677734 8.54351806640625 24.14329528808594 6.377914428710938 29.26333618164062 C 4.136497497558594 34.56264877319336 3 40.19366455078125 3 45.99993515014648 C 3 51.80620574951172 4.136497497558594 57.43720626831055 6.377914428710938 62.73651885986328 C 8.54351806640625 67.8565673828125 11.64440155029297 72.45545959472656 15.59439849853516 76.40547943115234 C 19.54441070556641 80.35547637939453 24.14332580566406 83.45635223388672 29.26337051391602 85.6219482421875 C 34.56269836425781 87.86336517333984 40.1937141418457 88.99986267089844 46 88.99986267089844 C 51.8062858581543 88.99986267089844 57.43730163574219 87.86336517333984 62.73661422729492 85.6219482421875 C 67.85667419433594 83.45635223388672 72.45557403564453 80.35547637939453 76.40558624267578 76.40547943115234 C 80.35559844970703 72.45545959472656 83.45647430419922 67.8565673828125 85.6220703125 62.73651885986328 C 87.86350250244141 57.43720626831055 89 51.80620574951172 89 45.99993515014648 C 89 40.19366455078125 87.86350250244141 34.56264877319336 85.6220703125 29.26333618164062 C 83.45647430419922 24.14329528808594 80.35559844970703 19.54439544677734 76.40558624267578 15.59437561035156 C 72.45557403564453 11.64437866210938 67.85667419433594 8.543502807617188 62.73661422729492 6.377906799316406 C 57.43730163574219 4.136489868164062 51.8062858581543 2.999992370605469 46 2.999992370605469 M 46 -7.62939453125e-06 C 71.40509033203125 -7.62939453125e-06 92 20.59486389160156 92 45.99993515014648 C 92 71.40499114990234 71.40509033203125 91.99986267089844 46 91.99986267089844 C 20.59490203857422 91.99986267089844 0 71.40499114990234 0 45.99993515014648 C 0 20.59486389160156 20.59490203857422 -7.62939453125e-06 46 -7.62939453125e-06 Z" stroke="none" fill="#e89076"/>
                        </g>
                      </g>
                    </g>
                  </g>
                </g>
              </g>
            </g>
          </g>
        </g>
      </g>
    </g>
    <g id="feedback_3201629" transform="translate(4263 2044)">
      <g id="Grupo_1162567" data-name="Grupo 1162567" transform="translate(1.881 1.881)">
        <g id="Grupo_1162554" data-name="Grupo 1162554" transform="translate(0 0)">
          <path id="Trazado_1014476" data-name="Trazado 1014476" d="M2,9.044V3.761A1.766,1.766,0,0,1,3.761,2H53.07a1.766,1.766,0,0,1,1.761,1.761V9.044Z" transform="translate(-2 -2)" fill="#b4dd7f"/>
        </g>
        <g id="Grupo_1162555" data-name="Grupo 1162555" transform="translate(0 7.044)">
          <path id="Trazado_1014477" data-name="Trazado 1014477" d="M2,10V36.415H53.07a1.766,1.766,0,0,0,1.761-1.761V10Z" transform="translate(-2 -10)" fill="#e6e9ed"/>
        </g>
        <g id="Grupo_1162556" data-name="Grupo 1162556" transform="translate(24.611 22.894)">
          <path id="Trazado_1014478" data-name="Trazado 1014478" d="M54.649,31.522V45.61a3.521,3.521,0,0,1-3.522,3.522H41.441L39.1,53.817a1.088,1.088,0,0,1-2.06-.493V49.132h-4.4l-.026-.018a4.252,4.252,0,0,0,.907-2.624v-.15a3.9,3.9,0,0,0-1.136-2.747,2.126,2.126,0,0,1,0-3.011l.141-.141a3.412,3.412,0,0,0-.889-5.459,2.958,2.958,0,0,1-1.638-2.65V28.9c0-.3-.018-.6-.044-.889L29.994,28H51.127a3.521,3.521,0,0,1,3.522,3.522Z" transform="translate(-29.95 -28)" fill="#ffeaa7"/>
        </g>
        <g id="Grupo_1162557" data-name="Grupo 1162557" transform="translate(16.809 29.938)">
          <path id="Trazado_1014479" data-name="Trazado 1014479" d="M25.9,46.417l.335.5-2.642-.925v-.009c-.185-.035-.37-.07-.564-.106a1.791,1.791,0,0,1-1.418-1.312L21.09,42.5A7.035,7.035,0,0,0,25.413,36l1.03,1.541a4.377,4.377,0,0,1,0,4.843l-.546.81a2.923,2.923,0,0,0,0,3.223Z" transform="translate(-21.09 -36)" fill="#656d78"/>
        </g>
        <g id="Grupo_1162558" data-name="Grupo 1162558" transform="translate(5.283 29.938)">
          <path id="Trazado_1014480" data-name="Trazado 1014480" d="M12.147,45.879c-.194.035-.379.07-.564.106v.009a11.445,11.445,0,0,0-2.642.925l.335-.5a2.923,2.923,0,0,0,0-3.223l-.546-.81a4.377,4.377,0,0,1,0-4.843L9.761,36a7.057,7.057,0,0,0,2.06,4.984A6.951,6.951,0,0,0,14.084,42.5l-.52,2.069a1.791,1.791,0,0,1-1.418,1.312Z" transform="translate(-8 -36)" fill="#656d78"/>
        </g>
        <g id="Grupo_1162559" data-name="Grupo 1162559" transform="translate(0 14.088)">
          <path id="Trazado_1014481" data-name="Trazado 1014481" d="M15.771,25.7l-5.82,3.24a1.749,1.749,0,0,0-.907,1.541v3.364L8.014,35.39a4.377,4.377,0,0,0,0,4.843l.546.81a2.923,2.923,0,0,1,0,3.223l-.335.5a11.386,11.386,0,0,0-4.473,4.042L3.242,48.3A4.252,4.252,0,0,1,2,45.3v-.15A3.9,3.9,0,0,1,3.136,42.4a2.126,2.126,0,0,0,0-3.011l-.141-.141A3.419,3.419,0,0,1,2,36.834a2.255,2.255,0,0,1,.026-.343,3.384,3.384,0,0,1,1.858-2.7,2.958,2.958,0,0,0,1.638-2.65V27.7a9.427,9.427,0,0,1,.6-3.32,9.713,9.713,0,0,1,1.708-2.906A9.927,9.927,0,0,1,15.384,18h1.409a9.915,9.915,0,0,1,7.555,3.478,9.581,9.581,0,0,1,2.263,5.336c.026.291.044.59.044.889v3.434a2.958,2.958,0,0,0,1.638,2.65,3.412,3.412,0,0,1,.889,5.459l-.141.141a2.126,2.126,0,0,0,0,3.011,3.9,3.9,0,0,1,1.136,2.747v.15a4.252,4.252,0,0,1-.907,2.624,4.475,4.475,0,0,1-.335.379l-.511.511a12.721,12.721,0,0,0-.925-1.25l-3.548-2.791-.335-.5a2.923,2.923,0,0,1,0-3.223l.546-.81a4.377,4.377,0,0,0,0-4.843l-1.03-1.541V30.856a1.768,1.768,0,0,0-1.382-1.717l-2.245-.5A5.489,5.489,0,0,1,15.771,25.7Z" transform="translate(-2 -18)" fill="#656d78"/>
        </g>
        <g id="Grupo_1162560" data-name="Grupo 1162560" transform="translate(0 39.932)">
          <path id="Trazado_1014482" data-name="Trazado 1014482" d="M23.132,60.25H2V58.357a11.219,11.219,0,0,1,1.752-6.04,11.191,11.191,0,0,1,7.115-4.966l.916,4.094.018.088a4.405,4.405,0,0,0,4.288,3.434,4.391,4.391,0,0,0,4.288-3.434l.018-.088.916-4.094,2.642.925L27.5,51.066a12.722,12.722,0,0,1,.925,1.25,11.219,11.219,0,0,1,1.752,6.04V60.25Z" transform="translate(-2 -47.35)" fill="#ff826e"/>
        </g>
        <g id="Grupo_1162561" data-name="Grupo 1162561" transform="translate(9.783 44.026)">
          <path id="Trazado_1014483" data-name="Trazado 1014483" d="M13.11,52h8.611l-.018.088a4.391,4.391,0,0,1-4.288,3.434,4.405,4.405,0,0,1-4.288-3.434Z" transform="translate(-13.11 -52)" fill="#b4dd7f"/>
        </g>
        <g id="Grupo_1162562" data-name="Grupo 1162562" transform="translate(8.867 36.436)">
          <path id="Trazado_1014484" data-name="Trazado 1014484" d="M22.513,46.867v.009L21.6,50.97H12.986l-.916-4.094v-.009c.185-.035.37-.07.564-.106a1.791,1.791,0,0,0,1.418-1.312l.52-2.069a7.053,7.053,0,0,0,5.442,0l.52,2.069a1.791,1.791,0,0,0,1.418,1.312C22.143,46.8,22.328,46.832,22.513,46.867Z" transform="translate(-12.07 -43.38)" fill="#f0d0b4"/>
        </g>
        <g id="Grupo_1162563" data-name="Grupo 1162563" transform="translate(7.044 21.793)">
          <path id="Trazado_1014485" data-name="Trazado 1014485" d="M20.461,29.682l2.245.5A1.768,1.768,0,0,1,24.088,31.9v2.994a7.046,7.046,0,0,1-9.765,6.5,6.951,6.951,0,0,1-2.263-1.514A7.057,7.057,0,0,1,10,34.895V31.531a1.749,1.749,0,0,1,.907-1.541l5.82-3.24a5.489,5.489,0,0,0,3.733,2.932Z" transform="translate(-10 -26.75)" fill="#f0d0b4"/>
        </g>
        <g id="Grupo_1162564" data-name="Grupo 1162564" transform="translate(44.149 12.327)">
          <path id="Trazado_1014486" data-name="Trazado 1014486" d="M56.226,19.135l.255,1.462a3.241,3.241,0,0,1-.449.326l-1.312-.7-1.312.7a2.446,2.446,0,0,1-.449-.326l.247-1.462L52.14,18.087a2.479,2.479,0,0,1,.167-.511l1.479-.22.652-1.33c.1-.009.185-.026.282-.026a2.608,2.608,0,0,1,.273.026l.66,1.33,1.479.22a2.479,2.479,0,0,1,.167.511Z" transform="translate(-52.14 -16)" fill="#fcd770"/>
        </g>
        <g id="Grupo_1162565" data-name="Grupo 1162565" transform="translate(35.282 12.327)">
          <path id="Trazado_1014487" data-name="Trazado 1014487" d="M45.583,17.356l1.479.22a2.478,2.478,0,0,1,.167.511l-1.074,1.048.255,1.462a2.788,2.788,0,0,1-.449.326l-1.312-.7-1.312.7a2.788,2.788,0,0,1-.449-.326l.255-1.462L42.07,18.087a2.479,2.479,0,0,1,.167-.511l1.479-.22.66-1.33a1.424,1.424,0,0,1,.546,0Z" transform="translate(-42.07 -16)" fill="#fcd770"/>
        </g>
        <g id="Grupo_1162566" data-name="Grupo 1162566" transform="translate(26.416 12.327)">
          <path id="Trazado_1014488" data-name="Trazado 1014488" d="M35.513,17.356l1.479.22a2.478,2.478,0,0,1,.167.511l-1.065,1.048.247,1.462a2.447,2.447,0,0,1-.449.326l-1.312-.7-1.312.7a3.24,3.24,0,0,1-.449-.326l.255-1.462L32,18.087a2.479,2.479,0,0,1,.167-.511l1.479-.22.66-1.33A2.609,2.609,0,0,1,34.58,16c.1,0,.185.018.282.026Z" transform="translate(-32 -16)" fill="#fcd770"/>
        </g>
      </g>
      <g id="Grupo_1162568" data-name="Grupo 1162568" transform="translate(1 1)">
        <circle id="Elipse_11839" data-name="Elipse 11839" cx="0.5" cy="0.5" r="0.5" transform="translate(11 28.592)"/>
        <circle id="Elipse_11840" data-name="Elipse 11840" cx="0.5" cy="0.5" r="0.5" transform="translate(18 28.592)"/>
        <path id="Trazado_1014489" data-name="Trazado 1014489" d="M17.434,38.827H15v1.761h2.434a4.045,4.045,0,0,0,3.637-2.248L19.5,37.552A2.294,2.294,0,0,1,17.434,38.827Z" transform="translate(-2.673 -5.367)"/>
        <path id="Trazado_1014490" data-name="Trazado 1014490" d="M37,45h8.805v1.761H37Z" transform="translate(-5.301 -6.257)"/>
        <path id="Trazado_1014491" data-name="Trazado 1014491" d="M49,45h1.761v1.761H49Z" transform="translate(-6.735 -6.257)"/>
        <path id="Trazado_1014492" data-name="Trazado 1014492" d="M53,45h1.761v1.761H53Z" transform="translate(-7.213 -6.257)"/>
        <path id="Trazado_1014493" data-name="Trazado 1014493" d="M37,39H52.849v1.761H37Z" transform="translate(-5.301 -5.54)"/>
        <path id="Trazado_1014494" data-name="Trazado 1014494" d="M37,33H52.849v1.761H37Z" transform="translate(-5.301 -4.823)"/>
        <path id="Trazado_1014495" data-name="Trazado 1014495" d="M52.951,1H3.642A2.645,2.645,0,0,0,1,3.642V34.46h.024c-.009.115-.024.23-.024.348a4.264,4.264,0,0,0,1.257,3.035l.139.139a1.246,1.246,0,0,1,0,1.761A4.734,4.734,0,0,0,1,43.114v.151a5.1,5.1,0,0,0,1.5,3.629l.024.024A12.156,12.156,0,0,0,1,52.822v2.77H30.938v-2.77a12.141,12.141,0,0,0-1.528-5.9l.025-.025c.034-.034.063-.071.1-.107H32.7V50.1a1.969,1.969,0,0,0,3.73.881l2.1-4.195h9.142a4.408,4.408,0,0,0,4.4-4.4V36.221h.881a2.645,2.645,0,0,0,2.642-2.642V3.642A2.645,2.645,0,0,0,52.951,1ZM3.642,2.761H52.951a.881.881,0,0,1,.881.881v4.4H2.761v-4.4A.881.881,0,0,1,3.642,2.761Zm-.881,40.5v-.151a2.984,2.984,0,0,1,.881-2.126,3.007,3.007,0,0,0,0-4.252L3.5,36.6a2.531,2.531,0,0,1,.658-4.054,3.821,3.821,0,0,0,2.123-3.435V25.674a8.7,8.7,0,0,1,2.092-5.656,9.066,9.066,0,0,1,6.887-3.168h1.412a9.061,9.061,0,0,1,6.887,3.168,8.694,8.694,0,0,1,2.093,5.656v3.435a3.82,3.82,0,0,0,2.123,3.435,2.531,2.531,0,0,1,.658,4.054l-.139.139a3.007,3.007,0,0,0,0,4.252,2.986,2.986,0,0,1,.881,2.126v.151a3.334,3.334,0,0,1-.774,2.124,12.1,12.1,0,0,0-3.955-3.321l-.213-.32a2.026,2.026,0,0,1,0-2.249l.54-.81a5.243,5.243,0,0,0,0-5.817l-.881-1.321V28.828a2.627,2.627,0,0,0-2.069-2.579l-2.248-.5a4.581,4.581,0,0,1-3.607-4.5H14.208a6.429,6.429,0,0,0,.328,2.038L9.4,26.142a2.643,2.643,0,0,0-1.359,2.31v3.1l-.881,1.321a5.243,5.243,0,0,0,0,5.817l.54.809a2.026,2.026,0,0,1,0,2.249l-.213.32a12.077,12.077,0,0,0-3.955,3.321,3.336,3.336,0,0,1-.774-2.124Zm6.408-4.743-.54-.81a3.463,3.463,0,0,1-.21-3.491,7.965,7.965,0,0,0,3.8,4.575l-.343,1.374a.883.883,0,0,1-.711.655,12.3,12.3,0,0,0-1.4.327,3.632,3.632,0,0,0,.04-.528A3.778,3.778,0,0,0,9.169,38.522Zm6.8-.54a6.171,6.171,0,0,1-6.164-6.164V28.452a.881.881,0,0,1,.453-.77l5.065-2.813a6.346,6.346,0,0,0,3.873,2.6l2.248.5a.875.875,0,0,1,.689.859v2.99a6.171,6.171,0,0,1-6.164,6.164Zm3.6,7.044h-7.2L11.8,42.477A2.639,2.639,0,0,0,13.582,40.6l.286-1.146a7.721,7.721,0,0,0,4.2,0l.286,1.146a2.64,2.64,0,0,0,1.777,1.879Zm-.562,1.761a3.5,3.5,0,0,1-6.074,0Zm1.768-5.962a.88.88,0,0,1-.71-.655L19.721,38.8a7.962,7.962,0,0,0,3.8-4.575,3.46,3.46,0,0,1-.21,3.491l-.54.81a3.758,3.758,0,0,0-.6,2.631,12.315,12.315,0,0,0-1.4-.328Zm8.4,13.006H23.894V48.548H22.132v5.283H9.805V48.548H8.044v5.283H2.761V52.822a10.358,10.358,0,0,1,7.331-9.929l.73,3.289a5.272,5.272,0,0,0,10.293,0l.73-3.288a10.357,10.357,0,0,1,7.331,9.929ZM50.309,42.384a2.645,2.645,0,0,1-2.642,2.642H37.438l-2.583,5.168a.216.216,0,0,1-.394-.092V45.026H30.622a5.127,5.127,0,0,0,.315-1.761v-.151a4.737,4.737,0,0,0-1.4-3.372,1.246,1.246,0,0,1,0-1.761l.139-.139a4.292,4.292,0,0,0-1.115-6.874,2.068,2.068,0,0,1-1.15-1.86V25.674c0-.006,0-.012,0-.018H47.668A2.645,2.645,0,0,1,50.309,28.3Zm2.642-7.925H52.07V28.3a4.408,4.408,0,0,0-4.4-4.4H27.26A10.449,10.449,0,0,0,24.9,18.871a10.819,10.819,0,0,0-8.224-3.783H15.262a10.822,10.822,0,0,0-8.225,3.783,10.467,10.467,0,0,0-2.515,6.8v3.435a2.068,2.068,0,0,1-1.15,1.86,4.357,4.357,0,0,0-.611.38V9.805h51.07V33.579A.881.881,0,0,1,52.951,34.46Z" transform="translate(-1 -1)"/>
        <path id="Trazado_1014496" data-name="Trazado 1014496" d="M5,5H6.761V6.761H5Z" transform="translate(-1.478 -1.478)"/>
        <path id="Trazado_1014497" data-name="Trazado 1014497" d="M9,5h1.761V6.761H9Z" transform="translate(-1.956 -1.478)"/>
        <path id="Trazado_1014498" data-name="Trazado 1014498" d="M37.893,17.784a3.542,3.542,0,0,0-.227-.689l-.2-.443-1.5-.218-.452-.914-.293-.431-.463-.063a2.2,2.2,0,0,0-.679.008l-.482.052-.666,1.348-1.5.218-.2.443a3.5,3.5,0,0,0-.226.689l-.1.476L32,19.32l-.255,1.488.361.325a3.489,3.489,0,0,0,.6.43l.421.243,1.335-.7,1.337.7.421-.245a3.611,3.611,0,0,0,.593-.429l.361-.325-.256-1.488L38,18.259Zm-2.745,1.7-.7-.366-.7.366.132-.776-.564-.549.779-.113.349-.705.349.705.778.113-.564.549Z" transform="translate(-4.573 -2.673)"/>
        <path id="Trazado_1014499" data-name="Trazado 1014499" d="M47.961,17.784a3.579,3.579,0,0,0-.225-.685l-.2-.446-1.5-.218-.452-.914-.291-.431-.464-.063a2.15,2.15,0,0,0-.68.008l-.482.052L43,16.434l-1.5.218-.2.446a3.6,3.6,0,0,0-.225.685l-.1.476,1.088,1.061-.255,1.488.361.325a3.51,3.51,0,0,0,.593.429l.421.245,1.336-.7,1.337.7.421-.245a3.61,3.61,0,0,0,.593-.429l.361-.325-.255-1.488,1.088-1.061Zm-2.745,1.7-.7-.366-.7.366.132-.776-.564-.549.779-.113.349-.706.349.705.779.113-.564.549Z" transform="translate(-5.776 -2.673)"/>
        <path id="Trazado_1014500" data-name="Trazado 1014500" d="M57.8,17.094l-.2-.443-1.5-.218-.452-.914-.292-.431-.463-.063a2.122,2.122,0,0,0-.68.008l-.483.051-.666,1.349-1.5.218-.2.443a3.562,3.562,0,0,0-.227.689l-.1.476,1.089,1.061-.256,1.488.361.325a3.51,3.51,0,0,0,.593.429l.421.245,1.337-.7,1.335.7.421-.243a3.537,3.537,0,0,0,.6-.43l.361-.325-.255-1.488,1.088-1.061-.1-.476A3.584,3.584,0,0,0,57.8,17.094Zm-2.52,2.387-.7-.366-.7.366.133-.775-.564-.549.778-.113.349-.705.349.705.779.113-.564.549Z" transform="translate(-6.979 -2.673)"/>
        <path id="Trazado_1014501" data-name="Trazado 1014501" d="M13,5h1.761V6.761H13Z" transform="translate(-2.434 -1.478)"/>
      </g>
    </g>
  </g>
</svg>
