<svg xmlns="http://www.w3.org/2000/svg" xmlns:xlink="http://www.w3.org/1999/xlink" width="110" height="110" viewBox="0 0 110 110">
  <defs>
    <filter id="Trazado_982547" x="0" y="0" width="110" height="110" filterUnits="userSpaceOnUse">
      <feOffset dy="3" input="SourceAlpha"/>
      <feGaussianBlur stdDeviation="3" result="blur"/>
      <feFlood flood-opacity="0.161"/>
      <feComposite operator="in" in2="blur"/>
      <feComposite in="SourceGraphic"/>
    </filter>
  </defs>
  <g id="Grupo_1162570" data-name="Grupo 1162570" transform="translate(-4551.349 -2020.837)">
    <g id="Grupo_1162414" data-name="Grupo 1162414" transform="translate(3436.544 -4045.703)">
      <g id="Grupo_1158638" data-name="Grupo 1158638" transform="translate(-1.195 2772.54)">
        <g id="Grupo_1155734" data-name="Grupo 1155734" transform="translate(0 -1390)">
          <g id="Grupo_1154704" data-name="Grupo 1154704" transform="translate(0 1466)">
            <g id="Grupo_1150790" data-name="Grupo 1150790" transform="translate(3 2320)">
              <g id="Grupo_1154214" data-name="Grupo 1154214" transform="translate(79 -5809)">
                <g id="Grupo_1152583" data-name="Grupo 1152583" transform="translate(1043 6713)">
                  <g id="Grupo_1146973" data-name="Grupo 1146973" transform="translate(0 0)">
                    <g id="Grupo_1146954" data-name="Grupo 1146954">
                      <g transform="matrix(1, 0, 0, 1, -9, -6)" filter="url(#Trazado_982547)">
                        <g id="Trazado_982547-2" data-name="Trazado 982547" transform="translate(9 6)" fill="#fcf3f0">
                          <path d="M 46 90.49987030029297 C 39.99187850952148 90.49987030029297 34.16426849365234 89.32350921630859 28.67905426025391 87.00345611572266 C 23.38019943237305 84.76224517822266 18.62104034423828 81.55341339111328 14.53374671936035 77.46613311767578 C 10.44646644592285 73.37885284423828 7.237639904022217 68.61969757080078 4.996413230895996 63.32085418701172 C 2.676359891891479 57.83565521240234 1.5 52.008056640625 1.5 45.99993515014648 C 1.5 39.99181365966797 2.676359891891479 34.16421508789062 4.996413230895996 28.67901420593262 C 7.237639904022217 23.38017463684082 10.44646644592285 18.62101554870605 14.53374671936035 14.53373527526855 C 18.62104034423828 10.44645500183105 23.38019943237305 7.23762845993042 28.67905426025391 4.996415138244629 C 34.16426849365234 2.676361799240112 39.99187850952148 1.500001788139343 46 1.500001788139343 C 52.00812149047852 1.500001788139343 57.83573150634766 2.676361799240112 63.32094573974609 4.996415138244629 C 68.61979675292969 7.23762845993042 73.37895965576172 10.44645500183105 77.46625518798828 14.53373527526855 C 81.55353546142578 18.62101554870605 84.76235961914062 23.38017463684082 87.00358581542969 28.67901420593262 C 89.32363891601562 34.16421508789062 90.5 39.99181365966797 90.5 45.99993515014648 C 90.5 52.008056640625 89.32363891601562 57.83565521240234 87.00358581542969 63.32085418701172 C 84.76235961914062 68.61969757080078 81.55353546142578 73.37885284423828 77.46625518798828 77.46613311767578 C 73.37895965576172 81.55341339111328 68.61979675292969 84.76224517822266 63.32094573974609 87.00345611572266 C 57.83573150634766 89.32350921630859 52.00812149047852 90.49987030029297 46 90.49987030029297 Z" stroke="none"/>
                          <path d="M 46 2.999992370605469 C 40.1937141418457 2.999992370605469 34.56269836425781 4.136489868164062 29.26337051391602 6.377906799316406 C 24.14332580566406 8.543502807617188 19.54441070556641 11.64437866210938 15.59439849853516 15.59437561035156 C 11.64440155029297 19.54439544677734 8.54351806640625 24.14329528808594 6.377914428710938 29.26333618164062 C 4.136497497558594 34.56264877319336 3 40.19366455078125 3 45.99993515014648 C 3 51.80620574951172 4.136497497558594 57.43720626831055 6.377914428710938 62.73651885986328 C 8.54351806640625 67.8565673828125 11.64440155029297 72.45545959472656 15.59439849853516 76.40547943115234 C 19.54441070556641 80.35547637939453 24.14332580566406 83.45635223388672 29.26337051391602 85.6219482421875 C 34.56269836425781 87.86336517333984 40.1937141418457 88.99986267089844 46 88.99986267089844 C 51.8062858581543 88.99986267089844 57.43730163574219 87.86336517333984 62.73661422729492 85.6219482421875 C 67.85667419433594 83.45635223388672 72.45557403564453 80.35547637939453 76.40558624267578 76.40547943115234 C 80.35559844970703 72.45545959472656 83.45647430419922 67.8565673828125 85.6220703125 62.73651885986328 C 87.86350250244141 57.43720626831055 89 51.80620574951172 89 45.99993515014648 C 89 40.19366455078125 87.86350250244141 34.56264877319336 85.6220703125 29.26333618164062 C 83.45647430419922 24.14329528808594 80.35559844970703 19.54439544677734 76.40558624267578 15.59437561035156 C 72.45557403564453 11.64437866210938 67.85667419433594 8.543502807617188 62.73661422729492 6.377906799316406 C 57.43730163574219 4.136489868164062 51.8062858581543 2.999992370605469 46 2.999992370605469 M 46 -7.62939453125e-06 C 71.40509033203125 -7.62939453125e-06 92 20.59486389160156 92 45.99993515014648 C 92 71.40499114990234 71.40509033203125 91.99986267089844 46 91.99986267089844 C 20.59490203857422 91.99986267089844 0 71.40499114990234 0 45.99993515014648 C 0 20.59486389160156 20.59490203857422 -7.62939453125e-06 46 -7.62939453125e-06 Z" stroke="none" fill="#e89076"/>
                        </g>
                      </g>
                    </g>
                  </g>
                </g>
              </g>
            </g>
          </g>
        </g>
      </g>
    </g>
    <g id="organize_2116963" transform="translate(4579.226 2044.179)">
      <path id="Trazado_1014502" data-name="Trazado 1014502" d="M1,1H27.852V24.093H1Z" fill="#ffd858"/>
      <path id="Trazado_1014503" data-name="Trazado 1014503" d="M1,33.222H27.852V56.315H1Z" fill="#89f489"/>
      <path id="Trazado_1014504" data-name="Trazado 1014504" d="M36.444,15.037H25v2H35.444V47.259H23.407l2.022-2.7-1.6-1.2-3.222,4.3a.935.935,0,0,0,.006,1.194l-.007.005,3.222,4.3,1.6-1.2-2.023-2.7H36.443a1,1,0,0,0,1-1V16.037a1,1,0,0,0-1-1Z" fill="#273134"/>
      <path id="Trazado_1014505" data-name="Trazado 1014505" d="M22.481,43.352H5.3a1,1,0,0,1-1-1v-5.37a1,1,0,0,1,1-1H22.481a1,1,0,0,1,1,1v5.37A1,1,0,0,1,22.481,43.352Z" fill="#00c900"/>
      <path id="Trazado_1014506" data-name="Trazado 1014506" d="M18.185,53.019H5.3a1,1,0,0,1-1-1v-5.37a1,1,0,0,1,1-1H18.185a1,1,0,0,1,1,1v5.37A1,1,0,0,1,18.185,53.019Z" fill="#00c900"/>
      <path id="Trazado_1014507" data-name="Trazado 1014507" d="M13.889,11.129H4.222a1,1,0,0,1-1-1V4.759a1,1,0,0,1,1-1h9.667a1,1,0,0,1,1,1v5.37A1,1,0,0,1,13.889,11.129Z" fill="#eabb39"/>
      <path id="Trazado_1014508" data-name="Trazado 1014508" d="M20.333,20.8H4.222a1,1,0,0,1-1-1V14.425a1,1,0,0,1,1-1H20.333a1,1,0,0,1,1,1V19.8A1,1,0,0,1,20.333,20.8Z" fill="#eabb39"/>
      <path id="Trazado_1014509" data-name="Trazado 1014509" d="M58.4,30.322H53.673a.594.594,0,0,1-.43-1.01l3.351-3.351a.6.6,0,0,0,0-.848l-3.115-3.1a.584.584,0,0,0-.838,0L49.29,25.36a.594.594,0,0,1-1.01-.43V20.2a.6.6,0,0,0-.6-.6h-4.4a.6.6,0,0,0-.6.6V24.93a.594.594,0,0,1-1.01.43l-3.351-3.351a.6.6,0,0,0-.848,0l-3.1,3.1a.6.6,0,0,0,0,.848l3.351,3.351a.591.591,0,0,1-.429,1.009H32.557a.6.6,0,0,0-.6.6v4.4a.6.6,0,0,0,.6.6h4.726a.594.594,0,0,1,.43,1.01L36.446,38.2l-2.084,2.084a.584.584,0,0,0,0,.838l2.084,2.094,1.02,1.02a.6.6,0,0,0,.848,0l3.351-3.351a.594.594,0,0,1,1.01.43v4.726a.6.6,0,0,0,.6.6h4.4a.6.6,0,0,0,.6-.6V41.319a.594.594,0,0,1,1.01-.43l3.351,3.351a.584.584,0,0,0,.838,0l3.115-3.115a.584.584,0,0,0,0-.838l-3.351-3.351a.594.594,0,0,1,.43-1.01H58.4a.6.6,0,0,0,.6-.6v-4.4a.6.6,0,0,0-.6-.6ZM45.477,36.391a3.265,3.265,0,1,1,3.265-3.265A3.264,3.264,0,0,1,45.477,36.391Z" fill="#0085ff"/>
      <path id="Trazado_1014510" data-name="Trazado 1014510" d="M58.4,29.322H54.647L57.3,26.668a1.6,1.6,0,0,0,0-2.264l-3.1-3.085a1.559,1.559,0,0,0-1.119-.488,1.614,1.614,0,0,0-1.149.47l-2.654,2.654V20.2a1.6,1.6,0,0,0-1.6-1.6h-4.4a1.6,1.6,0,0,0-1.6,1.6v3.75L39.02,21.3a1.6,1.6,0,0,0-1.576-.4V16.036a1,1,0,0,0-1-1H28.852V1a1,1,0,0,0-1-1H1A1,1,0,0,0,0,1V24.093a1,1,0,0,0,1,1H27.852a1,1,0,0,0,1-1V17.037h6.592v5.578l-1.791,1.791a1.6,1.6,0,0,0,0,2.262l1.791,1.791v.863H32.556a1.6,1.6,0,0,0-1.6,1.6v4.4a1.6,1.6,0,0,0,1.6,1.6h2.888v.863l-1.791,1.791a1.586,1.586,0,0,0-.47,1.147,1.547,1.547,0,0,0,.468,1.1l1.792,1.8v3.628H28.851V33.223a1,1,0,0,0-1-1H1a1,1,0,0,0-1,1V56.315a1,1,0,0,0,1,1H27.852a1,1,0,0,0,1-1V49.259h7.592a1,1,0,0,0,1-1V45.347a1.6,1.6,0,0,0,1.576-.4L41.673,42.3v3.751a1.6,1.6,0,0,0,1.6,1.6h4.4a1.6,1.6,0,0,0,1.6-1.6V42.3l2.654,2.653a1.579,1.579,0,0,0,1.149.47,1.542,1.542,0,0,0,1.1-.47l3.1-3.1a1.561,1.561,0,0,0,.487-1.12,1.583,1.583,0,0,0-.47-1.147l-2.654-2.654H58.4a1.6,1.6,0,0,0,1.6-1.6v-4.4a1.605,1.605,0,0,0-1.6-1.6ZM26.852,23.093H2V2H26.852V15.037H25v2h1.852Zm0,32.221H2V34.223H26.852V47.259H23.407l2.022-2.7-1.6-1.2-3.222,4.3a.935.935,0,0,0,.006,1.194l-.007.005,3.222,4.3,1.6-1.2L23.4,49.26H26.85v6.054ZM58,34.929H53.672a1.594,1.594,0,0,0-1.136,2.717L55.6,40.708,53.06,43.247l-3.073-3.072a1.594,1.594,0,0,0-2.707,1.146v4.328H43.673V41.32a1.594,1.594,0,0,0-2.717-1.136l-3.068,3.067-2.534-2.543,3.074-3.073a1.594,1.594,0,0,0-1.147-2.707H32.953V31.322h4.328a1.616,1.616,0,0,0,1.3-.655,1.594,1.594,0,0,0-.161-2.062l-3.068-3.068L37.888,23l3.079,3.079a1.593,1.593,0,0,0,2.706-1.147V20.6H47.28V24.93A1.594,1.594,0,0,0,50,26.067L53.06,23,55.6,25.538l-3.078,3.078a1.594,1.594,0,0,0,1.146,2.707H58Z"/>
      <path id="Trazado_1014511" data-name="Trazado 1014511" d="M45.478,28.86a4.265,4.265,0,1,0,4.265,4.266A4.27,4.27,0,0,0,45.478,28.86Zm0,6.531a2.266,2.266,0,1,1,2.265-2.265A2.267,2.267,0,0,1,45.478,35.391Z"/>
      <path id="Trazado_1014512" data-name="Trazado 1014512" d="M5.3,43.352H22.481a1,1,0,0,0,1-1v-5.37a1,1,0,0,0-1-1H5.3a1,1,0,0,0-1,1v5.37a1,1,0,0,0,1,1Zm1-5.371H21.481v3.37H6.3Z"/>
      <path id="Trazado_1014513" data-name="Trazado 1014513" d="M18.185,45.648H5.3a1,1,0,0,0-1,1v5.37a1,1,0,0,0,1,1H18.185a1,1,0,0,0,1-1v-5.37A1,1,0,0,0,18.185,45.648Zm-1,5.371H6.3v-3.37H17.185Z"/>
      <path id="Trazado_1014514" data-name="Trazado 1014514" d="M4.222,11.129h9.667a1,1,0,0,0,1-1V4.759a1,1,0,0,0-1-1H4.222a1,1,0,0,0-1,1v5.37A1,1,0,0,0,4.222,11.129Zm1-5.37h7.667v3.37H5.222Z"/>
      <path id="Trazado_1014515" data-name="Trazado 1014515" d="M20.333,13.426H4.222a1,1,0,0,0-1,1V19.8a1,1,0,0,0,1,1H20.333a1,1,0,0,0,1-1V14.426a1,1,0,0,0-1-1Zm-1,5.37H5.222V15.425H19.333Z"/>
    </g>
  </g>
</svg>
