<svg xmlns="http://www.w3.org/2000/svg" xmlns:xlink="http://www.w3.org/1999/xlink" width="1328" height="578" viewBox="0 0 1328 578">
  <defs>
    <filter id="Rectángulo_409557" x="-9" y="-6" width="1346" height="596" filterUnits="userSpaceOnUse">
      <feOffset dy="3" input="SourceAlpha"/>
      <feGaussianBlur stdDeviation="3" result="blur"/>
      <feFlood flood-opacity="0.161"/>
      <feComposite operator="in" in2="blur"/>
      <feComposite in="SourceGraphic"/>
    </filter>
    <clipPath id="clip-path">
      <g transform="matrix(1, 0, 0, 1, 0, 0)" filter="url(#Rectángulo_409557)">
        <rect id="Rectángulo_409557-2" data-name="Rectángulo 409557" width="1328" height="578" transform="translate(4269 5504)" fill="#fff" opacity="0.59"/>
      </g>
    </clipPath>
    <filter id="Trazado_989418" x="-196.793" y="-4.577" width="1532.489" height="594.245" filterUnits="userSpaceOnUse">
      <feOffset dy="3" input="SourceAlpha"/>
      <feGaussianBlur stdDeviation="3" result="blur-2"/>
      <feFlood flood-opacity="0.161"/>
      <feComposite operator="in" in2="blur-2"/>
      <feComposite in="SourceGraphic"/>
    </filter>
    <clipPath id="clip-path-2">
      <rect id="Rectángulo_409544" data-name="Rectángulo 409544" width="559.94" height="365.993" fill="#88bba9"/>
    </clipPath>
    <clipPath id="clip-path-3">
      <rect id="Rectángulo_409545" data-name="Rectángulo 409545" width="543.914" height="310.249" fill="#e89076"/>
    </clipPath>
    <clipPath id="clip-path-4">
      <path id="Trazado_989371" data-name="Trazado 989371" d="M442.177,410.153,231.245,459.3a9.065,9.065,0,0,0-6.769,10.882l27.348,117.373a9.064,9.064,0,0,0,10.882,6.771l210.93-49.147A9.06,9.06,0,0,0,480.4,534.3L453.059,416.922a9.053,9.053,0,0,0-10.882-6.769" transform="translate(-224.238 -409.915)" fill="#817489"/>
    </clipPath>
    <clipPath id="clip-path-5">
      <rect id="Rectángulo_409551" data-name="Rectángulo 409551" width="1780.192" height="1226.677" fill="none"/>
    </clipPath>
    <clipPath id="clip-path-6">
      <rect id="Rectángulo_409552" data-name="Rectángulo 409552" width="76.374" height="76.374" fill="#817489"/>
    </clipPath>
    <clipPath id="clip-path-7">
      <rect id="Rectángulo_409553" data-name="Rectángulo 409553" width="122.578" height="136.899" fill="#edae3b"/>
    </clipPath>
    <clipPath id="clip-path-8">
      <rect id="Rectángulo_409554" data-name="Rectángulo 409554" width="244.682" height="102.913" fill="none"/>
    </clipPath>
    <clipPath id="clip-path-9">
      <rect id="Rectángulo_409555" data-name="Rectángulo 409555" width="234.746" height="105.582" fill="none"/>
    </clipPath>
  </defs>
  <g id="Enmascarar_grupo_1098774" data-name="Enmascarar grupo 1098774" transform="translate(-4269 -5504)" clip-path="url(#clip-path)">
    <g id="Grupo_1155758" data-name="Grupo 1155758" transform="translate(3895.948 5069.146)">
      <g transform="matrix(1, 0, 0, 1, 373.05, 434.85)" filter="url(#Trazado_989418)">
        <path id="Trazado_989418-2" data-name="Trazado 989418" d="M0,0H1514.489V576.245H0Z" transform="translate(-187.79 1.42)" fill="#f7ead7"/>
      </g>
      <g id="Grupo_1155741" data-name="Grupo 1155741" transform="translate(1139.808 646.529)">
        <g id="Grupo_1155740" data-name="Grupo 1155740" transform="translate(0 0)" clip-path="url(#clip-path-2)">
          <path id="Trazado_989368" data-name="Trazado 989368" d="M623.564,505.277C737.71,350.495,955.719,317.553,1110.5,431.7s187.725,332.157,73.578,486.94Z" transform="translate(-611.688 -338.49)" fill="#88bba9"/>
        </g>
      </g>
      <g id="Grupo_1155743" data-name="Grupo 1155743" transform="translate(185.259 436.277)">
        <g id="Grupo_1155742" data-name="Grupo 1155742" transform="translate(0 0)" clip-path="url(#clip-path-3)">
          <path id="Trazado_989369" data-name="Trazado 989369" d="M0,362.2C0,162.161,162.163,0,362.2,0S724.4,162.161,724.4,362.2,562.237,724.4,362.2,724.4,0,562.237,0,362.2" transform="translate(-185.259 -436.277)" fill="#e89076"/>
        </g>
      </g>
      <g id="Grupo_1155745" data-name="Grupo 1155745" transform="translate(414.154 757.088)">
        <g id="Grupo_1155744" data-name="Grupo 1155744" transform="translate(0 0)" clip-path="url(#clip-path-4)">
          <path id="Trazado_989370" data-name="Trazado 989370" d="M442.176,410.153,231.245,459.3a9.061,9.061,0,0,0-6.767,10.88l27.346,117.373a9.061,9.061,0,0,0,10.88,6.769l210.931-49.145A9.06,9.06,0,0,0,480.4,534.3L453.056,416.922a9.06,9.06,0,0,0-10.88-6.769" transform="translate(-224.238 -409.915)" fill="#817489"/>
          <line id="Línea_642" data-name="Línea 642" x2="1.104" y2="191.341" transform="translate(81.336 9.012)" fill="none"/>
          <line id="Línea_643" data-name="Línea 643" x2="1.104" y2="191.341" transform="translate(18.04 23.759)" fill="none"/>
          <line id="Línea_644" data-name="Línea 644" x2="1.104" y2="191.341" transform="translate(111.984 1.871)" fill="none"/>
          <line id="Línea_645" data-name="Línea 645" x2="1.104" y2="191.341" transform="translate(186.872 -15.577)" fill="none"/>
          <line id="Línea_646" data-name="Línea 646" x2="1.104" y2="191.341" transform="translate(204.828 -19.761)" fill="none"/>
        </g>
      </g>
      <g id="Grupo_1155747" data-name="Grupo 1155747" transform="translate(0)">
        <g id="Grupo_1155746" data-name="Grupo 1155746" clip-path="url(#clip-path-5)">
          <path id="Trazado_989372" data-name="Trazado 989372" d="M360.461,452.78l-31.082,7.242a7.228,7.228,0,0,1-8.679-5.4l-2.909-12.489a7.225,7.225,0,0,1,5.4-8.679l31.082-7.242a7.224,7.224,0,0,1,8.677,5.4L365.86,444.1a7.227,7.227,0,0,1-5.4,8.679" transform="translate(268.988 360.815)" fill="#f9b65d"/>
          <line id="Línea_647" data-name="Línea 647" x2="6.189" y2="26.566" transform="translate(604.265 791.454)" fill="none"/>
          <line id="Línea_648" data-name="Línea 648" y1="6.065" x2="26.033" transform="translate(606.477 794.884)" fill="none"/>
          <line id="Línea_649" data-name="Línea 649" y1="6.065" x2="26.033" transform="translate(608.242 802.46)" fill="none"/>
          <path id="Rectángulo_409546" data-name="Rectángulo 409546" d="M1.45,0h38.7A1.449,1.449,0,0,1,41.6,1.449V8.224a1.45,1.45,0,0,1-1.45,1.45H1.45A1.45,1.45,0,0,1,0,8.224V1.45A1.45,1.45,0,0,1,1.45,0Z" transform="translate(445.335 886.779) rotate(-13.116)" fill="none"/>
          <path id="Trazado_989373" data-name="Trazado 989373" d="M309.37,478.191l-35.3,8.224a2.679,2.679,0,0,1-3.216-2l-.979-4.207a2.674,2.674,0,0,1,2-3.214l35.3-8.224a2.676,2.676,0,0,1,3.214,2l.981,4.207A2.678,2.678,0,0,1,309.37,478.191Z" transform="translate(228.51 396.959)" fill="none"/>
          <path id="Rectángulo_409547" data-name="Rectángulo 409547" d="M1.449,0h38.7A1.449,1.449,0,0,1,41.6,1.449V8.224a1.45,1.45,0,0,1-1.45,1.45H1.45A1.45,1.45,0,0,1,0,8.224V1.449A1.449,1.449,0,0,1,1.449,0Z" transform="translate(550.224 862.341) rotate(-13.116)" fill="none"/>
          <path id="Trazado_989374" data-name="Trazado 989374" d="M366.161,464.959l-35.3,8.224a2.679,2.679,0,0,1-3.216-2l-.979-4.207a2.675,2.675,0,0,1,2-3.214l35.3-8.224a2.676,2.676,0,0,1,3.214,2l.981,4.207A2.678,2.678,0,0,1,366.161,464.959Z" transform="translate(276.609 385.752)" fill="none"/>
          <line id="Línea_650" data-name="Línea 650" y1="21.508" x2="92.308" transform="translate(450.655 888.102)" fill="none"/>
          <line id="Línea_651" data-name="Línea 651" y1="21.508" x2="92.308" transform="translate(435.034 821.054)" fill="none"/>
          <path id="Trazado_989375" data-name="Trazado 989375" d="M401.174,354.975a43.785,43.785,0,1,0-55.059,28.332,43.785,43.785,0,0,0,55.059-28.332" transform="translate(267.363 252.23)" fill="#95d4df"/>
          <path id="Rectángulo_409548" data-name="Rectángulo 409548" d="M1.777,0h11.57a1.776,1.776,0,0,1,1.776,1.776V8.987a1.777,1.777,0,0,1-1.777,1.777H1.777A1.777,1.777,0,0,1,0,8.987V1.777A1.777,1.777,0,0,1,1.777,0Z" transform="translate(611.286 587.756) rotate(-72.243)" fill="none"/>
          <path id="Rectángulo_409549" data-name="Rectángulo 409549" d="M1.777,0H13.345a1.777,1.777,0,0,1,1.777,1.777v7.21a1.777,1.777,0,0,1-1.777,1.777H1.776A1.776,1.776,0,0,1,0,8.988V1.777A1.777,1.777,0,0,1,1.777,0Z" transform="translate(626.383 613.12) rotate(-72.243)" fill="none"/>
          <line id="Línea_652" data-name="Línea 652" y1="29.593" x2="39.462" transform="translate(606.262 578.773)" fill="none"/>
          <path id="Trazado_989376" data-name="Trazado 989376" d="M386.711,347.145a33.535,33.535,0,1,0-42.169,21.7A33.532,33.532,0,0,0,386.711,347.145Z" transform="translate(272.064 256.933)" fill="none"/>
          <path id="Trazado_989377" data-name="Trazado 989377" d="M860.114,443.782l-95.609,29.824a13.627,13.627,0,0,0-9.057,15.644l2.105,9.654,15.74,72.2.864,3.958c.973,4.466-1.721,9.663-4.94,14a3.434,3.434,0,0,0,3.812,5.29l4.992-1.557,95.7-29.85a13.63,13.63,0,0,0,9.052-15.664l-2.115-9.665-15.8-72.182-.865-3.952a20.074,20.074,0,0,1,13.342-23.07Z" transform="translate(639.57 371.307)" fill="#fff"/>
          <path id="Trazado_989378" data-name="Trazado 989378" d="M827.623,438.779h0a20.078,20.078,0,0,0-13.342,23.07l3.029,13.835,20.983-6.546a15.686,15.686,0,0,0,10.426-18.032,16.281,16.281,0,0,0-21.1-12.328" transform="translate(689.278 370.939)" fill="#cfe3dc"/>
          <path id="Trazado_989379" data-name="Trazado 989379" d="M867.608,387.254l-95.54,29.8a13.607,13.607,0,0,0-9.048,15.623l17.841,81.729,90.683-28.288a16.252,16.252,0,0,1,20.47,12.489l-20.534-93.684a20.045,20.045,0,0,1,13.331-23.037Z" transform="translate(645.982 323.436)" fill="#fff"/>
          <path id="Trazado_989380" data-name="Trazado 989380" d="M835.139,382.257h0A20.046,20.046,0,0,0,821.81,405.3l6.39,29.154,34.42-10.736-6.4-29.152a16.267,16.267,0,0,0-21.081-12.3" transform="translate(695.653 323.069)" fill="#cfe3dc"/>
          <line id="Línea_653" data-name="Línea 653" y1="33.622" x2="107.782" transform="translate(1409.737 809.525)" fill="none"/>
          <line id="Línea_654" data-name="Línea 654" y1="12.402" x2="39.757" transform="translate(1439.56 806.976)" fill="none"/>
          <line id="Línea_655" data-name="Línea 655" y1="12.4" x2="39.753" transform="translate(1437.015 795.329)" fill="none"/>
          <line id="Línea_656" data-name="Línea 656" y1="12.4" x2="39.75" transform="translate(1434.471 783.683)" fill="none"/>
          <line id="Línea_657" data-name="Línea 657" y1="12.398" x2="39.746" transform="translate(1431.928 772.041)" fill="none"/>
          <line id="Línea_658" data-name="Línea 658" y1="12.397" x2="39.742" transform="translate(1429.385 760.401)" fill="none"/>
          <line id="Línea_659" data-name="Línea 659" y1="3.319" x2="10.64" transform="translate(1502.058 796.563)" fill="none"/>
          <line id="Línea_660" data-name="Línea 660" y1="3.319" x2="10.638" transform="translate(1499.508 784.917)" fill="none"/>
          <line id="Línea_661" data-name="Línea 661" y1="3.319" x2="10.638" transform="translate(1496.958 773.273)" fill="none"/>
          <line id="Línea_662" data-name="Línea 662" y1="3.319" x2="10.636" transform="translate(1494.409 761.63)" fill="none"/>
          <line id="Línea_663" data-name="Línea 663" y1="3.317" x2="10.636" transform="translate(1491.86 749.992)" fill="none"/>
          <line id="Línea_664" data-name="Línea 664" y1="12.41" x2="39.781" transform="translate(1420.54 898.835)" fill="none"/>
          <line id="Línea_665" data-name="Línea 665" y1="12.408" x2="39.777" transform="translate(1417.996 887.173)" fill="none"/>
          <line id="Línea_666" data-name="Línea 666" y1="12.408" x2="39.774" transform="translate(1415.453 875.51)" fill="none"/>
          <line id="Línea_667" data-name="Línea 667" y1="12.406" x2="39.77" transform="translate(1412.909 863.853)" fill="none"/>
          <line id="Línea_668" data-name="Línea 668" y1="12.404" x2="39.766" transform="translate(1410.366 852.197)" fill="none"/>
          <line id="Línea_669" data-name="Línea 669" y1="3.321" x2="10.648" transform="translate(1483.078 888.416)" fill="none"/>
          <line id="Línea_670" data-name="Línea 670" y1="3.321" x2="10.646" transform="translate(1480.528 876.753)" fill="none"/>
          <line id="Línea_671" data-name="Línea 671" y1="3.321" x2="10.646" transform="translate(1477.979 865.093)" fill="none"/>
          <line id="Línea_672" data-name="Línea 672" y1="12.411" x2="39.789" transform="translate(1425.577 921.925)" fill="none"/>
          <line id="Línea_673" data-name="Línea 673" y1="12.41" x2="39.785" transform="translate(1423.032 910.258)" fill="none"/>
          <line id="Línea_674" data-name="Línea 674" y1="3.323" x2="10.649" transform="translate(1488.126 911.502)" fill="none"/>
          <line id="Línea_675" data-name="Línea 675" y1="3.321" x2="10.648" transform="translate(1485.575 899.838)" fill="none"/>
          <line id="Línea_676" data-name="Línea 676" y1="3.321" x2="10.644" transform="translate(1475.43 853.435)" fill="none"/>
          <line id="Línea_677" data-name="Línea 677" y1="3.321" x2="10.644" transform="translate(1472.881 841.779)" fill="none"/>
          <path id="Trazado_989381" data-name="Trazado 989381" d="M203.068,472,197.15,460.23,191.231,472l-11.772,5.918,11.772,5.919,5.919,11.772,5.918-11.772,11.772-5.919Z" transform="translate(342.801 486.347)" fill="none"/>
          <path id="Trazado_989382" data-name="Trazado 989382" d="M853.152,317.417l-5.919-11.772-5.918,11.772-11.772,5.918,11.772,5.919,5.918,11.772,5.919-11.772,11.771-5.919Z" transform="translate(702.571 258.862)" fill="none"/>
          <path id="Trazado_989383" data-name="Trazado 989383" d="M391.476,323.811c-33.158-.242-33.112-6.494-66.268-6.736s-33.2,6.01-66.361,5.768-33.112-6.494-66.266-6.736l-6.634,90.182c33.156.242,33.11,6.494,66.266,6.736s33.2-6.01,66.36-5.768,33.112,6.494,66.27,6.736Z" transform="translate(157.486 267.723)" fill="#95d4df"/>
          <line id="Línea_678" data-name="Línea 678" x1="5.517" y2="90.18" transform="translate(407.832 590.536)" fill="none"/>
          <line id="Línea_679" data-name="Línea 679" x1="5.517" y2="90.18" transform="translate(399.739 590.477)" fill="none"/>
          <line id="Línea_680" data-name="Línea 680" x1="5.517" y2="90.18" transform="translate(487.522 584.873)" fill="none"/>
          <path id="Trazado_989384" data-name="Trazado 989384" d="M283.669,356.4a29.694,29.694,0,1,0-29.909,29.477A29.693,29.693,0,0,0,283.669,356.4Z" transform="translate(189.953 276.515)" fill="none"/>
          <path id="Trazado_989385" data-name="Trazado 989385" d="M250.6,338.646l-8.725-.983a4.7,4.7,0,0,0-5.231,4.641l0,.393a3.6,3.6,0,0,0,3.2,3.6l7.462.818a3.6,3.6,0,0,1,3.2,3.6l0,.392a4.705,4.705,0,0,1-5.232,4.641l-8.725-.981" transform="translate(200.348 285.955)" fill="none"/>
          <line id="Línea_681" data-name="Línea 681" x1="0.046" y2="6.326" transform="translate(443.994 617.492)" fill="none"/>
          <line id="Línea_682" data-name="Línea 682" x1="0.046" y2="6.326" transform="translate(443.82 641.331)" fill="none"/>
          <path id="Trazado_989386" data-name="Trazado 989386" d="M270.635,352.235a20.757,20.757,0,1,0-20.907,20.6A20.756,20.756,0,0,0,270.635,352.235Z" transform="translate(194.051 280.613)" fill="none"/>
          <path id="Trazado_989387" data-name="Trazado 989387" d="M381.127,326.608c-28.369-.207-36.566-5.617-64.935-5.823s-28.408,5.142-56.775,4.935-35.007-5.605-63.374-5.812l-5.676,77.158c28.367.207,35.007,5.6,63.374,5.812s28.408-5.142,56.777-4.935,36.566,5.617,64.933,5.823Z" transform="translate(161.23 270.941)" fill="none"/>
          <path id="Trazado_989388" data-name="Trazado 989388" d="M237.193,350.7l-38.747-2.166a2.289,2.289,0,0,1-2.155-2.414l.323-5.777a2.289,2.289,0,0,1,2.412-2.157l38.745,2.168a2.287,2.287,0,0,1,2.157,2.412l-.323,5.777A2.289,2.289,0,0,1,237.193,350.7Z" transform="translate(166.243 286.421)" fill="none"/>
          <path id="Trazado_989389" data-name="Trazado 989389" d="M302.466,351.18l-38.747-2.166a2.291,2.291,0,0,1-2.157-2.414l.323-5.777a2.292,2.292,0,0,1,2.414-2.157l38.745,2.168a2.287,2.287,0,0,1,2.157,2.412l-.323,5.777A2.289,2.289,0,0,1,302.466,351.18Z" transform="translate(221.523 286.825)" fill="none"/>
          <rect id="Rectángulo_409550" data-name="Rectángulo 409550" width="143.701" height="208.444" transform="translate(323.738 747.876) rotate(-76.036)" fill="#edae3b"/>
          <path id="Trazado_989390" data-name="Trazado 989390" d="M358.825,513.531,169.645,466.49a13.505,13.505,0,0,1-9.846-16.364l28.158-113.243a13.506,13.506,0,0,1,16.364-9.846L393.5,374.078Z" transform="translate(135 276.639)" fill="#edae3b"/>
          <path id="Trazado_989391" data-name="Trazado 989391" d="M348.52,433.275,230.953,404.041a7.912,7.912,0,0,1-5.768-9.586l4.828-19.411a7.909,7.909,0,0,1,9.584-5.766l117.567,29.233Z" transform="translate(190.519 312.556)" fill="#df7e9f"/>
          <line id="Línea_683" data-name="Línea 683" x1="34.676" y2="139.453" transform="translate(493.826 650.716)" fill="none"/>
          <path id="Trazado_989392" data-name="Trazado 989392" d="M241.344,382.8a4.448,4.448,0,1,0-5.389,3.243A4.447,4.447,0,0,0,241.344,382.8Z" transform="translate(196.98 319.531)" fill="none"/>
          <line id="Línea_684" data-name="Línea 684" x2="209.391" y2="52.067" transform="translate(342.596 604.489)" fill="none"/>
          <path id="Trazado_989393" data-name="Trazado 989393" d="M904.736,388.791a41.842,41.842,0,1,0-41.842,41.842,41.842,41.842,0,0,0,41.842-41.842" transform="translate(695.38 293.844)" fill="#edae3b"/>
          <circle id="Elipse_11649" data-name="Elipse 11649" cx="36.108" cy="36.108" r="36.108" transform="translate(1511.096 663.095) rotate(-22.5)" fill="none"/>
          <path id="Trazado_989394" data-name="Trazado 989394" d="M856.06,364.767l-10.62-1.116a5.721,5.721,0,0,0-6.32,5.689v.478a4.376,4.376,0,0,0,3.93,4.351l9.08.929a4.376,4.376,0,0,1,3.93,4.351v.477a5.723,5.723,0,0,1-6.322,5.69L839.12,384.5" transform="translate(710.683 307.963)" fill="none"/>
          <line id="Línea_685" data-name="Línea 685" y2="7.693" transform="translate(1558.273 664.148)" fill="none"/>
          <line id="Línea_686" data-name="Línea 686" y2="7.693" transform="translate(1558.273 693.137)" fill="none"/>
          <circle id="Elipse_11650" data-name="Elipse 11650" cx="25.24" cy="25.24" r="25.24" transform="translate(1529.316 661.765) rotate(-9.217)" fill="none"/>
          <path id="Trazado_989395" data-name="Trazado 989395" d="M170.433,505.154a4.889,4.889,0,1,0-4.889,4.889,4.889,4.889,0,0,0,4.889-4.889" transform="translate(277.802 481.694)" fill="#3d436c"/>
          <path id="Trazado_989396" data-name="Trazado 989396" d="M888.892,349.191A4.889,4.889,0,1,0,884,354.08a4.889,4.889,0,0,0,4.889-4.889" transform="translate(744.555 291.602)" fill="#3d436c"/>
          <path id="Trazado_989419" data-name="Trazado 989419" d="M203.068,472,197.15,460.23,191.231,472l-11.772,5.918,11.772,5.919,5.919,11.772,5.918-11.772,11.772-5.919Z" transform="translate(512.801 382.332)" fill="none"/>
          <path id="Trazado_989420" data-name="Trazado 989420" d="M220.488,480.689,210.2,460.23l-10.287,20.459-20.459,10.284,20.459,10.287L210.2,521.719l10.284-20.459,20.459-10.287Z" transform="translate(512.801 72.124)" fill="none"/>
          <path id="Trazado_989421" data-name="Trazado 989421" d="M220.488,480.689,210.2,460.23l-10.287,20.459-20.459,10.284,20.459,10.287L210.2,521.719l10.284-20.459,20.459-10.287Z" transform="translate(1060.801 474.85)" fill="none"/>
          <path id="Trazado_989422" data-name="Trazado 989422" d="M203.068,472,197.15,460.23,191.231,472l-11.772,5.918,11.772,5.919,5.919,11.772,5.918-11.772,11.772-5.919Z" transform="translate(1025.419 500.957)" fill="none"/>
          <path id="Trazado_989423" data-name="Trazado 989423" d="M203.068,472,197.15,460.23,191.231,472l-11.772,5.918,11.772,5.919,5.919,11.772,5.918-11.772,11.772-5.919Z" transform="translate(1460.419 233.383)" fill="none"/>
          <path id="Trazado_989441" data-name="Trazado 989441" d="M904.736,388.791a41.842,41.842,0,1,0-41.842,41.842,41.842,41.842,0,0,0,41.842-41.842" transform="translate(111.379 52.844)" fill="#edae3b"/>
          <path id="Trazado_989442" data-name="Trazado 989442" d="M904.736,388.791a41.842,41.842,0,1,0-41.842,41.842,41.842,41.842,0,0,0,41.842-41.842" transform="translate(27.695 631.928)" fill="#edae3b"/>
          <path id="Trazado_989443" data-name="Trazado 989443" d="M375.694,337.939a30.735,30.735,0,1,0-38.65,19.888,30.736,30.736,0,0,0,38.65-19.888" transform="translate(884.399 636.522)" fill="#95d4df"/>
          <path id="Trazado_989444" data-name="Trazado 989444" d="M375.694,337.939a30.735,30.735,0,1,0-38.65,19.888,30.736,30.736,0,0,0,38.65-19.888" transform="translate(1117.241 113.078)" fill="#95d4df"/>
        </g>
      </g>
      <g id="Grupo_1155749" data-name="Grupo 1155749" transform="translate(185.259 800.946)">
        <g id="Grupo_1155748" data-name="Grupo 1155748" transform="translate(176.023 202.689) rotate(-60)" clip-path="url(#clip-path-6)">
          <path id="Trazado_989397" data-name="Trazado 989397" d="M62.612,512.656A58.4,58.4,0,1,1,173.945,477.32Z" transform="translate(-104.468 -433.363)" fill="#817489"/>
        </g>
      </g>
      <g id="Grupo_1155751" data-name="Grupo 1155751" transform="translate(1577.171 473.409)">
        <g id="Grupo_1155750" data-name="Grupo 1155750" transform="translate(0 0)" clip-path="url(#clip-path-7)">
          <path id="Trazado_989398" data-name="Trazado 989398" d="M855.373,329.037a97.8,97.8,0,0,1,186.275,59.7Z" transform="translate(-852.723 -245.411)" fill="#edae3b"/>
        </g>
      </g>
      <g id="Grupo_1155753" data-name="Grupo 1155753" transform="translate(575.487 909.607)">
        <g id="Grupo_1155752" data-name="Grupo 1155752" transform="translate(0 0)" clip-path="url(#clip-path-8)">
          <path id="Trazado_989399" data-name="Trazado 989399" d="M323.7,658.065a116.277,116.277,0,1,1,215.322-87.852Z" transform="translate(-308.66 -487.975)" fill="none"/>
        </g>
      </g>
      <g id="Grupo_1155755" data-name="Grupo 1155755" transform="translate(1180.079 436.277)">
        <g id="Grupo_1155754" data-name="Grupo 1155754" transform="translate(0 0)" clip-path="url(#clip-path-9)">
          <circle id="Elipse_11651" data-name="Elipse 11651" cx="111.37" cy="111.37" r="111.37" transform="translate(5.89 -123.79)" fill="none"/>
        </g>
      </g>
      <g id="Grupo_1155757" data-name="Grupo 1155757" transform="translate(0)">
        <g id="Grupo_1155756" data-name="Grupo 1155756" clip-path="url(#clip-path-5)">
          <path id="Trazado_989400" data-name="Trazado 989400" d="M822.491,497.535,697.766,457.558a16.457,16.457,0,0,1-10.65-20.695l53.07-165.578a16.458,16.458,0,0,1,20.7-10.649l124.726,39.977a16.458,16.458,0,0,1,10.649,20.7l-53.07,165.576a16.457,16.457,0,0,1-20.695,10.65" transform="translate(581.276 220.073)" fill="#46aef7"/>
          <path id="Trazado_989401" data-name="Trazado 989401" d="M816.826,279.885l6.738,2.159a10.129,10.129,0,0,1,6.553,12.737L773.183,472.414a10.129,10.129,0,0,1-12.736,6.553l-6.738-2.159" transform="translate(638.345 237.045)" fill="none"/>
          <path id="Trazado_989402" data-name="Trazado 989402" d="M825.014,338.755,718.956,304.762a5.45,5.45,0,0,1-3.526-6.852l8.032-25.059a5.451,5.451,0,0,1,6.852-3.526l106.059,33.993a5.448,5.448,0,0,1,3.524,6.852l-8.03,25.059a5.45,5.45,0,0,1-6.852,3.526" transform="translate(605.703 227.88)" fill="#fff"/>
          <path id="Trazado_989403" data-name="Trazado 989403" d="M723.56,319.98,713.026,316.6a5.45,5.45,0,0,1-3.526-6.852l3.378-10.535a5.446,5.446,0,0,1,6.85-3.524l10.535,3.376a5.449,5.449,0,0,1,3.526,6.85l-3.376,10.535a5.449,5.449,0,0,1-6.852,3.526" transform="translate(600.681 250.212)" fill="#fff"/>
          <path id="Trazado_989404" data-name="Trazado 989404" d="M740.8,325.506l-10.535-3.376a5.45,5.45,0,0,1-3.526-6.852l3.378-10.535a5.446,5.446,0,0,1,6.85-3.524L747.5,304.6a5.447,5.447,0,0,1,3.526,6.85l-3.376,10.535a5.449,5.449,0,0,1-6.852,3.526" transform="translate(615.282 254.892)" fill="#fff"/>
          <path id="Trazado_989405" data-name="Trazado 989405" d="M758.041,331.031l-10.535-3.376a5.45,5.45,0,0,1-3.526-6.852l3.378-10.535a5.446,5.446,0,0,1,6.85-3.524l10.535,3.376a5.447,5.447,0,0,1,3.526,6.85l-3.376,10.535a5.449,5.449,0,0,1-6.852,3.526" transform="translate(629.884 259.571)" fill="#fff"/>
          <path id="Trazado_989406" data-name="Trazado 989406" d="M775.281,336.557l-10.535-3.376a5.45,5.45,0,0,1-3.526-6.852l3.378-10.535a5.446,5.446,0,0,1,6.85-3.524l10.535,3.376a5.447,5.447,0,0,1,3.526,6.85l-3.376,10.535a5.448,5.448,0,0,1-6.852,3.526" transform="translate(644.485 264.252)" fill="#f9b65d"/>
          <path id="Trazado_989407" data-name="Trazado 989407" d="M718.133,336.913,707.6,333.537a5.45,5.45,0,0,1-3.526-6.852l3.378-10.535a5.446,5.446,0,0,1,6.85-3.524L724.835,316a5.449,5.449,0,0,1,3.526,6.85l-3.376,10.535a5.45,5.45,0,0,1-6.852,3.526" transform="translate(596.084 264.553)" fill="#fff"/>
          <path id="Trazado_989408" data-name="Trazado 989408" d="M735.372,342.438l-10.535-3.376a5.45,5.45,0,0,1-3.526-6.852l3.378-10.533a5.446,5.446,0,0,1,6.85-3.526l10.535,3.376a5.45,5.45,0,0,1,3.526,6.852l-3.376,10.533a5.449,5.449,0,0,1-6.852,3.526" transform="translate(610.685 269.232)" fill="#fff"/>
          <path id="Trazado_989409" data-name="Trazado 989409" d="M752.613,347.964l-10.535-3.376a5.45,5.45,0,0,1-3.526-6.852L741.93,327.2a5.446,5.446,0,0,1,6.85-3.524l10.535,3.376a5.449,5.449,0,0,1,3.526,6.85l-3.376,10.535a5.45,5.45,0,0,1-6.852,3.526" transform="translate(625.286 273.913)" fill="#fff"/>
          <path id="Trazado_989410" data-name="Trazado 989410" d="M769.853,353.49l-10.535-3.376a5.45,5.45,0,0,1-3.526-6.852l3.376-10.535a5.449,5.449,0,0,1,6.852-3.524l10.535,3.376a5.449,5.449,0,0,1,3.526,6.85L776.7,349.965a5.45,5.45,0,0,1-6.852,3.526" transform="translate(639.888 278.593)" fill="#df7e9f"/>
          <path id="Trazado_989411" data-name="Trazado 989411" d="M712.705,353.846,702.17,350.47a5.447,5.447,0,0,1-3.524-6.852l3.376-10.535a5.446,5.446,0,0,1,6.85-3.524l10.535,3.376a5.449,5.449,0,0,1,3.526,6.85l-3.376,10.535a5.449,5.449,0,0,1-6.852,3.526" transform="translate(591.488 278.894)" fill="#fff"/>
          <path id="Trazado_989412" data-name="Trazado 989412" d="M729.946,359.371,719.411,356a5.45,5.45,0,0,1-3.526-6.852l3.378-10.533a5.446,5.446,0,0,1,6.85-3.526l10.535,3.376a5.449,5.449,0,0,1,3.526,6.85L736.8,355.846a5.449,5.449,0,0,1-6.852,3.526" transform="translate(606.089 283.574)" fill="#fff"/>
          <path id="Trazado_989413" data-name="Trazado 989413" d="M747.186,364.9l-10.535-3.376a5.45,5.45,0,0,1-3.526-6.852l3.378-10.535a5.446,5.446,0,0,1,6.85-3.524l10.535,3.376a5.447,5.447,0,0,1,3.526,6.85l-3.376,10.535a5.449,5.449,0,0,1-6.852,3.526" transform="translate(620.69 288.254)" fill="#fff"/>
          <path id="Trazado_989414" data-name="Trazado 989414" d="M759,401.7l-10.535-3.376a5.451,5.451,0,0,1-3.526-6.852l13.4-41.807a5.446,5.446,0,0,1,6.85-3.526l10.535,3.376a5.447,5.447,0,0,1,3.526,6.85l-13.4,41.809A5.45,5.45,0,0,1,759,401.7" transform="translate(630.695 292.934)" fill="#f9b65d"/>
          <path id="Trazado_989415" data-name="Trazado 989415" d="M707.279,370.78,696.744,367.4a5.451,5.451,0,0,1-3.526-6.852l3.376-10.535a5.451,5.451,0,0,1,6.852-3.526l10.535,3.378a5.449,5.449,0,0,1,3.526,6.85l-3.376,10.535a5.449,5.449,0,0,1-6.852,3.526" transform="translate(586.891 293.235)" fill="#7162ef"/>
          <path id="Trazado_989416" data-name="Trazado 989416" d="M724.519,376.3l-10.535-3.376a5.45,5.45,0,0,1-3.526-6.852l3.378-10.535a5.446,5.446,0,0,1,6.85-3.524l10.535,3.376a5.449,5.449,0,0,1,3.526,6.85l-3.376,10.535a5.449,5.449,0,0,1-6.852,3.526" transform="translate(601.493 297.915)" fill="#fff"/>
          <path id="Trazado_989417" data-name="Trazado 989417" d="M741.759,381.83l-10.535-3.376A5.45,5.45,0,0,1,727.7,371.6l3.378-10.535a5.446,5.446,0,0,1,6.85-3.524l10.535,3.376a5.447,5.447,0,0,1,3.526,6.85L748.611,378.3a5.448,5.448,0,0,1-6.852,3.526" transform="translate(616.094 302.595)" fill="#7162ef"/>
          <path id="Trazado_989424" data-name="Trazado 989424" d="M822.491,497.535,697.766,457.558a16.457,16.457,0,0,1-10.65-20.695l53.07-165.578a16.458,16.458,0,0,1,20.7-10.649l124.726,39.977a16.458,16.458,0,0,1,10.649,20.7l-53.07,165.576a16.457,16.457,0,0,1-20.695,10.65" transform="translate(255.276 635.073)" fill="#46aef7"/>
          <path id="Trazado_989425" data-name="Trazado 989425" d="M825.014,338.755,718.956,304.762a5.45,5.45,0,0,1-3.526-6.852l8.032-25.059a5.451,5.451,0,0,1,6.852-3.526l106.059,33.993a5.448,5.448,0,0,1,3.524,6.852l-8.03,25.059a5.45,5.45,0,0,1-6.852,3.526" transform="translate(279.704 642.88)" fill="#fff"/>
          <path id="Trazado_989426" data-name="Trazado 989426" d="M723.56,319.98,713.026,316.6a5.45,5.45,0,0,1-3.526-6.852l3.378-10.535a5.446,5.446,0,0,1,6.85-3.524l10.535,3.376a5.449,5.449,0,0,1,3.526,6.85l-3.376,10.535a5.449,5.449,0,0,1-6.852,3.526" transform="translate(274.681 665.212)" fill="#fff"/>
          <path id="Trazado_989427" data-name="Trazado 989427" d="M740.8,325.506l-10.535-3.376a5.45,5.45,0,0,1-3.526-6.852l3.378-10.535a5.446,5.446,0,0,1,6.85-3.524L747.5,304.6a5.447,5.447,0,0,1,3.526,6.85l-3.376,10.535a5.449,5.449,0,0,1-6.852,3.526" transform="translate(289.282 669.892)" fill="#fff"/>
          <path id="Trazado_989428" data-name="Trazado 989428" d="M758.041,331.031l-10.535-3.376a5.45,5.45,0,0,1-3.526-6.852l3.378-10.535a5.446,5.446,0,0,1,6.85-3.524l10.535,3.376a5.447,5.447,0,0,1,3.526,6.85l-3.376,10.535a5.449,5.449,0,0,1-6.852,3.526" transform="translate(303.884 674.571)" fill="#fff"/>
          <path id="Trazado_989429" data-name="Trazado 989429" d="M775.281,336.557l-10.535-3.376a5.45,5.45,0,0,1-3.526-6.852l3.378-10.535a5.446,5.446,0,0,1,6.85-3.524l10.535,3.376a5.447,5.447,0,0,1,3.526,6.85l-3.376,10.535a5.448,5.448,0,0,1-6.852,3.526" transform="translate(318.485 679.251)" fill="#f9b65d"/>
          <path id="Trazado_989430" data-name="Trazado 989430" d="M718.133,336.913,707.6,333.537a5.45,5.45,0,0,1-3.526-6.852l3.378-10.535a5.446,5.446,0,0,1,6.85-3.524L724.835,316a5.449,5.449,0,0,1,3.526,6.85l-3.376,10.535a5.45,5.45,0,0,1-6.852,3.526" transform="translate(270.084 679.553)" fill="#fff"/>
          <path id="Trazado_989431" data-name="Trazado 989431" d="M735.372,342.438l-10.535-3.376a5.45,5.45,0,0,1-3.526-6.852l3.378-10.533a5.446,5.446,0,0,1,6.85-3.526l10.535,3.376a5.45,5.45,0,0,1,3.526,6.852l-3.376,10.533a5.449,5.449,0,0,1-6.852,3.526" transform="translate(284.685 684.232)" fill="#fff"/>
          <path id="Trazado_989432" data-name="Trazado 989432" d="M752.613,347.964l-10.535-3.376a5.45,5.45,0,0,1-3.526-6.852L741.93,327.2a5.446,5.446,0,0,1,6.85-3.524l10.535,3.376a5.449,5.449,0,0,1,3.526,6.85l-3.376,10.535a5.45,5.45,0,0,1-6.852,3.526" transform="translate(299.287 688.913)" fill="#fff"/>
          <path id="Trazado_989433" data-name="Trazado 989433" d="M769.853,353.49l-10.535-3.376a5.45,5.45,0,0,1-3.526-6.852l3.376-10.535a5.449,5.449,0,0,1,6.852-3.524l10.535,3.376a5.449,5.449,0,0,1,3.526,6.85L776.7,349.965a5.45,5.45,0,0,1-6.852,3.526" transform="translate(313.888 693.593)" fill="#df7e9f"/>
          <path id="Trazado_989434" data-name="Trazado 989434" d="M712.705,353.846,702.17,350.47a5.447,5.447,0,0,1-3.524-6.852l3.376-10.535a5.446,5.446,0,0,1,6.85-3.524l10.535,3.376a5.449,5.449,0,0,1,3.526,6.85l-3.376,10.535a5.449,5.449,0,0,1-6.852,3.526" transform="translate(265.488 693.895)" fill="#fff"/>
          <path id="Trazado_989435" data-name="Trazado 989435" d="M729.946,359.371,719.411,356a5.45,5.45,0,0,1-3.526-6.852l3.378-10.533a5.446,5.446,0,0,1,6.85-3.526l10.535,3.376a5.449,5.449,0,0,1,3.526,6.85L736.8,355.846a5.449,5.449,0,0,1-6.852,3.526" transform="translate(280.089 698.574)" fill="#fff"/>
          <path id="Trazado_989436" data-name="Trazado 989436" d="M747.186,364.9l-10.535-3.376a5.45,5.45,0,0,1-3.526-6.852l3.378-10.535a5.446,5.446,0,0,1,6.85-3.524l10.535,3.376a5.447,5.447,0,0,1,3.526,6.85l-3.376,10.535a5.449,5.449,0,0,1-6.852,3.526" transform="translate(294.69 703.254)" fill="#fff"/>
          <path id="Trazado_989437" data-name="Trazado 989437" d="M759,401.7l-10.535-3.376a5.451,5.451,0,0,1-3.526-6.852l13.4-41.807a5.446,5.446,0,0,1,6.85-3.526l10.535,3.376a5.447,5.447,0,0,1,3.526,6.85l-13.4,41.809A5.45,5.45,0,0,1,759,401.7" transform="translate(304.695 707.934)" fill="#f9b65d"/>
          <path id="Trazado_989438" data-name="Trazado 989438" d="M707.279,370.78,696.744,367.4a5.451,5.451,0,0,1-3.526-6.852l3.376-10.535a5.451,5.451,0,0,1,6.852-3.526l10.535,3.378a5.449,5.449,0,0,1,3.526,6.85l-3.376,10.535a5.449,5.449,0,0,1-6.852,3.526" transform="translate(260.892 708.235)" fill="#7162ef"/>
          <path id="Trazado_989439" data-name="Trazado 989439" d="M724.519,376.3l-10.535-3.376a5.45,5.45,0,0,1-3.526-6.852l3.378-10.535a5.446,5.446,0,0,1,6.85-3.524l10.535,3.376a5.449,5.449,0,0,1,3.526,6.85l-3.376,10.535a5.449,5.449,0,0,1-6.852,3.526" transform="translate(275.493 712.915)" fill="#fff"/>
          <path id="Trazado_989440" data-name="Trazado 989440" d="M741.759,381.83l-10.535-3.376A5.45,5.45,0,0,1,727.7,371.6l3.378-10.535a5.446,5.446,0,0,1,6.85-3.524l10.535,3.376a5.447,5.447,0,0,1,3.526,6.85L748.611,378.3a5.448,5.448,0,0,1-6.852,3.526" transform="translate(290.094 717.595)" fill="#7162ef"/>
        </g>
      </g>
    </g>
  </g>
</svg>
