<svg xmlns="http://www.w3.org/2000/svg" xmlns:xlink="http://www.w3.org/1999/xlink" width="108" height="108" viewBox="0 0 108 108">
  <defs>
    <filter id="Trazado_982547" x="0" y="0" width="108" height="108" filterUnits="userSpaceOnUse">
      <feOffset dy="3" input="SourceAlpha"/>
      <feGaussianBlur stdDeviation="3" result="blur"/>
      <feFlood flood-opacity="0.161"/>
      <feComposite operator="in" in2="blur"/>
      <feComposite in="SourceGraphic"/>
    </filter>
  </defs>
  <g id="Grupo_1162605" data-name="Grupo 1162605" transform="translate(-190.637 -306)">
    <g id="Grupo_1162421" data-name="Grupo 1162421" transform="translate(-1.182 -644)">
      <g id="Grupo_1158695" data-name="Grupo 1158695" transform="translate(-419.181 486)">
        <g id="Grupo_1155790" data-name="Grupo 1155790" transform="translate(-5 -3446)">
          <g id="Grupo_1153177" data-name="Grupo 1153177" transform="translate(362 3397)">
            <g id="Grupo_1149598" data-name="Grupo 1149598" transform="translate(80 315)">
              <g id="Grupo_1148770" data-name="Grupo 1148770" transform="translate(-27 -2583)">
                <g id="Grupo_1146954" data-name="Grupo 1146954" transform="translate(-415 -1202)">
                  <g transform="matrix(1, 0, 0, 1, 616, 3983)" filter="url(#Trazado_982547)">
                    <g id="Trazado_982547-2" data-name="Trazado 982547" transform="translate(9 6)" fill="#f1f0f2">
                      <path d="M 45 88.5 C 39.12687683105469 88.5 33.43022537231445 87.35007476806641 28.06830024719238 85.08217620849609 C 22.88852500915527 82.89131164550781 18.23629951477051 79.75458526611328 14.2408504486084 75.75914764404297 C 10.24541282653809 71.76370239257812 7.108687400817871 67.11147308349609 4.917825222015381 61.93170166015625 C 2.649924993515015 56.56977462768555 1.5 50.87312316894531 1.5 45 C 1.5 39.12687683105469 2.649924993515015 33.43022537231445 4.917825222015381 28.06830024719238 C 7.108687400817871 22.88852500915527 10.24541282653809 18.23629951477051 14.2408504486084 14.2408504486084 C 18.23629951477051 10.24541282653809 22.88852500915527 7.108687400817871 28.06830024719238 4.917825222015381 C 33.43022537231445 2.649924993515015 39.12687683105469 1.5 45 1.5 C 50.87312316894531 1.5 56.56977462768555 2.649924993515015 61.93170166015625 4.917825222015381 C 67.11147308349609 7.108687400817871 71.76370239257812 10.24541282653809 75.75914764404297 14.2408504486084 C 79.75458526611328 18.23629951477051 82.89131164550781 22.88852500915527 85.08217620849609 28.06830024719238 C 87.35007476806641 33.43022537231445 88.5 39.12687683105469 88.5 45 C 88.5 50.87312316894531 87.35007476806641 56.56977462768555 85.08217620849609 61.93170166015625 C 82.89131164550781 67.11147308349609 79.75458526611328 71.76370239257812 75.75914764404297 75.75914764404297 C 71.76370239257812 79.75458526611328 67.11147308349609 82.89131164550781 61.93170166015625 85.08217620849609 C 56.56977462768555 87.35007476806641 50.87312316894531 88.5 45 88.5 Z" stroke="none"/>
                      <path d="M 45 3 C 39.32871246337891 3 33.82865524291992 4.110054016113281 28.65262985229492 6.299339294433594 C 23.65165710449219 8.414573669433594 19.15968322753906 11.44334411621094 15.301513671875 15.301513671875 C 11.44334411621094 19.15968322753906 8.414573669433594 23.65165710449219 6.299339294433594 28.65262985229492 C 4.110054016113281 33.82865524291992 3 39.32871246337891 3 45 C 3 50.67128753662109 4.110054016113281 56.17134475708008 6.299339294433594 61.34737396240234 C 8.414573669433594 66.34834289550781 11.44334411621094 70.84031677246094 15.301513671875 74.698486328125 C 19.15968322753906 78.55665588378906 23.65165710449219 81.58542633056641 28.65262985229492 83.70066070556641 C 33.82865524291992 85.88994598388672 39.32871246337891 87 45 87 C 50.67128753662109 87 56.17134475708008 85.88994598388672 61.34737396240234 83.70066070556641 C 66.34834289550781 81.58542633056641 70.84031677246094 78.55665588378906 74.698486328125 74.698486328125 C 78.55665588378906 70.84031677246094 81.58542633056641 66.34834289550781 83.70066070556641 61.34737396240234 C 85.88994598388672 56.17134475708008 87 50.67128753662109 87 45 C 87 39.32871246337891 85.88994598388672 33.82865524291992 83.70066070556641 28.65262985229492 C 81.58542633056641 23.65165710449219 78.55665588378906 19.15968322753906 74.698486328125 15.301513671875 C 70.84031677246094 11.44334411621094 66.34834289550781 8.414573669433594 61.34737396240234 6.299339294433594 C 56.17134475708008 4.110054016113281 50.67128753662109 3 45 3 M 45 0 C 69.85281372070312 0 90 20.14718627929688 90 45 C 90 69.85281372070312 69.85281372070312 90 45 90 C 20.14718627929688 90 0 69.85281372070312 0 45 C 0 20.14718627929688 20.14718627929688 0 45 0 Z" stroke="none" fill="#817489"/>
                    </g>
                  </g>
                </g>
              </g>
            </g>
          </g>
        </g>
      </g>
    </g>
    <g id="social-care_921356" transform="translate(211.636 324)">
      <g id="Grupo_1162603" data-name="Grupo 1162603" transform="translate(1.292 21.497)">
        <path id="Trazado_1014669" data-name="Trazado 1014669" d="M22.386,195.179l-4.216-4.487a7.768,7.768,0,0,1-2.107-5.319V169.486a3.032,3.032,0,0,0-2.375-2.96h0A3.032,3.032,0,0,0,10,169.486v20.024a11.284,11.284,0,0,0,2.083,6.533l2.3,3.244,5.51,7.762,1.944,2.739H36.529L34.413,199.7a17.828,17.828,0,0,0-7.5-11.134L22.4,185.531a3.237,3.237,0,0,0-4.23.54h0a3.484,3.484,0,0,0,.073,4.7c2.474,2.621,6.154,6.541,6.154,6.541" transform="translate(-10 -166.453)" fill="#ffcdac"/>
        <path id="Trazado_1014670" data-name="Trazado 1014670" d="M310.724,195.179l4.216-4.487a7.768,7.768,0,0,0,2.107-5.319V169.486a3.032,3.032,0,0,1,2.375-2.96h0a3.032,3.032,0,0,1,3.689,2.96v20.024a11.284,11.284,0,0,1-2.083,6.533l-2.3,3.244-5.51,7.762-1.944,2.739H296.581L298.7,199.7a17.828,17.828,0,0,1,7.5-11.134l4.518-3.038a3.237,3.237,0,0,1,4.23.54h0a3.484,3.484,0,0,1-.073,4.7c-2.474,2.621-6.155,6.541-6.155,6.541" transform="translate(-259.57 -166.453)" fill="#ffcdac"/>
      </g>
      <g id="Grupo_1162604" data-name="Grupo 1162604" transform="translate(13.353 23.196)">
        <path id="Trazado_1014671" data-name="Trazado 1014671" d="M280.137,183.8a4.766,4.766,0,0,1,2.326-1.332l3.3-.79v-2.013h4.027v2.02h0l3.289.786a4.778,4.778,0,0,1,3.668,4.647v2.412h-7.291Z" transform="translate(-257.311 -179.655)" fill="#7d9bff"/>
        <path id="Trazado_1014672" data-name="Trazado 1014672" d="M120,183.746a4.766,4.766,0,0,0-2.326-1.332l-3.3-.79v-2.013h-4.027v2.02h0l-3.289.786a4.778,4.778,0,0,0-3.668,4.647v2.412h7.291Z" transform="translate(-103.39 -179.611)" fill="#7d9bff"/>
      </g>
      <path id="Trazado_1014673" data-name="Trazado 1014673" d="M168.921,211.07l-4.593,1.1a6.655,6.655,0,0,0-5.1,6.472v4.644h25v-4.64a6.655,6.655,0,0,0-5.109-6.473l-4.581-1.094" transform="translate(-138.659 -183.811)" fill="#78d2fa"/>
      <path id="Trazado_1014674" data-name="Trazado 1014674" d="M239.922,189.357v2.813l-2.8,6.375-2.806-6.384v-2.8" transform="translate(-204.051 -164.902)" fill="#ffb487"/>
      <path id="Trazado_1014675" data-name="Trazado 1014675" d="M220.22,114.551v3.884a6.252,6.252,0,0,1-6.252,6.252h0a6.252,6.252,0,0,1-6.252-6.252v-3.884" transform="translate(-180.889 -99.757)" fill="#ffcdac"/>
      <path id="Trazado_1014676" data-name="Trazado 1014676" d="M213.968,64h0a6.252,6.252,0,0,0-6.252,6.252v1.505h3.057a6.869,6.869,0,0,0,5.265-2.457h0l4.182,2.457V70.252A6.252,6.252,0,0,0,213.968,64Z" transform="translate(-180.889 -55.735)" fill="#bebebe"/>
      <path id="Trazado_1014677" data-name="Trazado 1014677" d="M147.092,95.18V94.1a4.489,4.489,0,0,0-4.489-4.489h0a4.489,4.489,0,0,0-4.489,4.489V95.18h3.094a10.7,10.7,0,0,0,5.5-1.522h0" transform="translate(-120.277 -78.038)" fill="#f5b955"/>
      <path id="Trazado_1014678" data-name="Trazado 1014678" d="M147.092,125.9v2.789a4.489,4.489,0,0,1-4.489,4.489h0a4.489,4.489,0,0,1-4.489-4.489V125.9" transform="translate(-120.277 -109.644)" fill="#ffcdac"/>
      <path id="Trazado_1014679" data-name="Trazado 1014679" d="M304.5,95.231V94.151a4.489,4.489,0,0,1,4.489-4.489h0a4.489,4.489,0,0,1,4.489,4.489v1.081h-3.094a10.7,10.7,0,0,1-5.5-1.522h0" transform="translate(-265.174 -78.082)" fill="#f5b955"/>
      <path id="Trazado_1014680" data-name="Trazado 1014680" d="M304.5,125.955v2.789a4.489,4.489,0,0,0,4.489,4.489h0a4.489,4.489,0,0,0,4.489-4.489v-2.789" transform="translate(-265.174 -109.688)" fill="#ffcdac"/>
      <path id="Trazado_1014681" data-name="Trazado 1014681" d="M78.969,471.335a1.291,1.291,0,1,0-2.106,1.5l1.944,2.739a1.291,1.291,0,1,0,2.106-1.5Z" transform="translate(-66.727 -409.99)"/>
      <path id="Trazado_1014682" data-name="Trazado 1014682" d="M26.97,190.728a19.019,19.019,0,0,0-8.044-11.94l-4.518-3.038a4.544,4.544,0,0,0-5.761.588V160.776A4.323,4.323,0,0,0,1.619,157.4,4.3,4.3,0,0,0,0,160.776V180.8a12.51,12.51,0,0,0,2.321,7.28l2.3,3.244a1.291,1.291,0,1,0,2.106-1.5l-2.3-3.244A9.94,9.94,0,0,1,2.584,180.8V160.776a1.74,1.74,0,1,1,3.481,0v15.887a9.024,9.024,0,0,0,2.327,6.059c.064.077.13.153.2.227.858.909,1.866,1.98,2.816,2.989l1.33,1.415.013.013,1.994,2.122a1.291,1.291,0,1,0,1.883-1.768c-.024-.025-1.535-1.635-3.262-3.47L10.4,181.1l-.022-.024a2.179,2.179,0,0,1,.042-2.856,1.953,1.953,0,0,1,2.542-.325l4.517,3.038a16.449,16.449,0,0,1,6.957,10.327l2.116,10.085a1.291,1.291,0,1,0,2.528-.531Z" transform="translate(0 -136.246)"/>
      <path id="Trazado_1014683" data-name="Trazado 1014683" d="M58.227,442.117a1.291,1.291,0,0,0-2.1,1.5l.008.012a1.291,1.291,0,0,0,2.1-1.5Z" transform="translate(-48.666 -384.547)"/>
      <path id="Trazado_1014684" data-name="Trazado 1014684" d="M314.075,157.406a4.323,4.323,0,0,0-7.029,3.372V176.34a4.544,4.544,0,0,0-5.761-.588l-4.518,3.038a19.019,19.019,0,0,0-8.044,11.94l-2.116,10.085a1.291,1.291,0,1,0,2.528.53l2.116-10.085a16.449,16.449,0,0,1,6.957-10.327l4.518-3.038a1.953,1.953,0,0,1,2.542.324,2.179,2.179,0,0,1,.045,2.853l-.024.027-6.223,6.621a1.291,1.291,0,1,0,1.883,1.768c.018-.019,5.295-5.63,6.152-6.538.07-.074.136-.15.2-.227a9.024,9.024,0,0,0,2.327-6.059V160.778a1.74,1.74,0,1,1,3.481,0V180.8a9.94,9.94,0,0,1-1.845,5.785l-9.757,13.745a1.291,1.291,0,1,0,2.106,1.5l9.757-13.745a12.51,12.51,0,0,0,2.321-7.28V160.778A4.3,4.3,0,0,0,314.075,157.406Z" transform="translate(-249.568 -136.248)"/>
      <path id="Trazado_1014685" data-name="Trazado 1014685" d="M126.889,87.793A1.292,1.292,0,0,0,128.18,86.5v-4.64c0-.16-.006-.319-.016-.477h5.951a1.292,1.292,0,0,0,1.291-1.291V77.682a6.05,6.05,0,0,0-4.66-5.9l-2.3-.549v-.412a5.776,5.776,0,0,0,2.473-4.736V63.095a5.776,5.776,0,0,0-9.53-4.393,7.541,7.541,0,0,0-13.976.01,5.775,5.775,0,0,0-9.542,4.382v2.987a5.776,5.776,0,0,0,2.473,4.736v.412l-2.3.549a6.05,6.05,0,0,0-4.659,5.9v2.412a1.292,1.292,0,0,0,1.291,1.291h5.935c-.009.157-.015.314-.015.473V86.5a1.292,1.292,0,0,0,1.291,1.291h7.763a1.291,1.291,0,1,0,0-2.583h-1.334V82.541a1.291,1.291,0,0,0-2.583,0v2.669h-2.554V81.858a5.347,5.347,0,0,1,4.114-5.216l3.544-.849,2.372,5.4a1.291,1.291,0,0,0,1.182.772h0a1.291,1.291,0,0,0,1.182-.772l2.369-5.388,3.533.844a5.347,5.347,0,0,1,4.118,5.217v3.349h-2.554V82.541a1.291,1.291,0,0,0-2.583,0v2.669H119a1.291,1.291,0,1,0,0,2.583ZM110.3,72.125a6.06,6.06,0,0,0-1.034-.349l-2.307-.553v-.4a5.827,5.827,0,0,0,1.119-1.023,7.6,7.6,0,0,0,2.222,2.227Zm-9.841-6.044v-.615h1.8a12,12,0,0,0,4.592-.914v1.529a3.2,3.2,0,0,1-6.394,0Zm8.989-.377V64.34h1.765a8.137,8.137,0,0,0,5.488-2.12l2.663,1.565v2.108a4.96,4.96,0,0,1-9.916-.189Zm9.044,6.425v-.087a7.6,7.6,0,0,0,2.24-2.232,5.826,5.826,0,0,0,1.11,1.012v.4l-2.307.553A6.078,6.078,0,0,0,118.49,72.129Zm3.456-6.048v-.189c0-.063,0-.126,0-.189v-1.15a12,12,0,0,0,4.587.913h1.8v.615a3.2,3.2,0,1,1-6.394,0Zm3.2-6.184a3.2,3.2,0,0,1,3.19,2.986h-1.8a9.413,9.413,0,0,1-4.33-1.055A3.2,3.2,0,0,1,125.143,59.9Zm-15.7,1.646a4.961,4.961,0,0,1,9.859-.788l-2.174-1.277a1.291,1.291,0,0,0-1.644.284,5.564,5.564,0,0,1-4.275,2h-1.765v-.214ZM103.655,59.9a3.2,3.2,0,0,1,2.936,1.931,9.414,9.414,0,0,1-4.33,1.055h-1.8A3.2,3.2,0,0,1,103.655,59.9ZM106.7,74.13a7.92,7.92,0,0,0-5.488,4.672H95.973v-1.12A3.475,3.475,0,0,1,98.65,74.29l3.289-.786a1.291,1.291,0,0,0,.991-1.256v-.434a5.606,5.606,0,0,0,1.444,0v.368c0,.019,0,.038,0,.058a1.293,1.293,0,0,0,1.049,1.271l1.926.462Zm7.7,3.33-1.515-3.446v-.922a7.569,7.569,0,0,0,3.026,0v.925Zm7.684-3.327-.648-.155,1.937-.464a1.293,1.293,0,0,0,1.055-1.272c0-.01,0-.02,0-.03v-.4a5.607,5.607,0,0,0,1.444,0v.434a1.291,1.291,0,0,0,.991,1.256l3.289.786a3.476,3.476,0,0,1,2.677,3.391V78.8h-5.252A7.919,7.919,0,0,0,122.08,74.132Z" transform="translate(-81.328 -47.026)"/>
      <path id="Trazado_1014686" data-name="Trazado 1014686" d="M247.291,295.67a1.29,1.29,0,1,0,.913.377A1.3,1.3,0,0,0,247.291,295.67Z" transform="translate(-214.229 -257.485)"/>
      <path id="Trazado_1014687" data-name="Trazado 1014687" d="M247.285,4.515a1.292,1.292,0,0,0,1.291-1.291V1.291a1.291,1.291,0,0,0-2.583,0V3.224A1.292,1.292,0,0,0,247.285,4.515Z" transform="translate(-214.224)"/>
      <path id="Trazado_1014688" data-name="Trazado 1014688" d="M193.333,22.771a1.291,1.291,0,1,0,1.825-1.827L193.8,19.591a1.291,1.291,0,1,0-1.825,1.827Z" transform="translate(-166.854 -16.732)"/>
      <path id="Trazado_1014689" data-name="Trazado 1014689" d="M291.037,23.4a1.287,1.287,0,0,0,.914-.379l1.344-1.346a1.291,1.291,0,1,0-1.827-1.825l-1.344,1.346a1.292,1.292,0,0,0,.914,2.2Z" transform="translate(-252.325 -16.955)"/>
    </g>
  </g>
</svg>
