<svg xmlns="http://www.w3.org/2000/svg" xmlns:xlink="http://www.w3.org/1999/xlink" width="352.954" height="308.675" viewBox="0 0 352.954 308.675">
  <defs>
    <clipPath id="clip-path">
      <rect id="Rectángulo_410001" data-name="Rectángulo 410001" width="45.234" height="45.273" fill="none"/>
    </clipPath>
    <clipPath id="clip-path-2">
      <rect id="Rectángulo_410002" data-name="Rectángulo 410002" width="43.719" height="43.756" fill="none"/>
    </clipPath>
    <clipPath id="clip-path-3">
      <rect id="Rectángulo_410003" data-name="Rectángulo 410003" width="9.804" height="15.873" fill="none"/>
    </clipPath>
    <clipPath id="clip-path-4">
      <rect id="Rectángulo_410004" data-name="Rectángulo 410004" width="14.556" height="20.763" fill="none"/>
    </clipPath>
  </defs>
  <g id="Grupo_1162647" data-name="Grupo 1162647" transform="translate(-1044 -1948.438)">
    <path id="Trazado_1015881" data-name="Trazado 1015881" d="M1900.1,489.764c41.213-43.435,15.729-167.013-116.554-218.29S1545.47,378.306,1568.323,474.993s218.727,133.916,331.777,14.771" transform="translate(-521.202 1692.643)" fill="#e6f1ed"/>
    <g id="Grupo_1162643" data-name="Grupo 1162643" transform="translate(6311.314 -4983.956)">
      <path id="Trazado_1015571" data-name="Trazado 1015571" d="M1121.674,798.786v26.959h-21.708v34.978" transform="translate(-6108.09 6282.497)" fill="none" stroke="#313440" stroke-linejoin="round" stroke-width="2.514" stroke-dasharray="13.217 13.217"/>
      <path id="Trazado_1015572" data-name="Trazado 1015572" d="M828.954,1055.676s-1.032-8.191,1.509-6.63c6.29,3.861,13.2-.161,13.921-1.595,4.35-8.708,2.348-33.74,14.089-33.74s6.373,22.829,12.747,27.865,15.095-18.129,24.487-18.129,11.74,17.458,19.791,17.458,10.734-8.057,19.12-9.4v24.234Z" transform="translate(-5911.783 6126.935)" fill="#f05923"/>
      <path id="Trazado_1015573" data-name="Trazado 1015573" d="M819.581,992.711a.736.736,0,0,1-.5-.194.745.745,0,0,1-.046-1.048l2.714-2.966a.74.74,0,0,1,1.094,0l2.471,2.718a.741.741,0,1,1-1.094,1l-1.927-2.118-2.165,2.368a.744.744,0,0,1-.547.24" transform="translate(-5904.613 6145.354)" fill="#535b7d"/>
      <path id="Trazado_1015574" data-name="Trazado 1015574" d="M1237.233,1155.432a.736.736,0,0,1,.194-.5.744.744,0,0,1,1.048-.047l2.963,2.717a.742.742,0,0,1,0,1.095l-2.716,2.473a.741.741,0,1,1-1-1.095l2.116-1.929-2.365-2.166a.745.745,0,0,1-.24-.548" transform="translate(-6207.444 6024.893)" fill="#535b7d"/>
      <path id="Trazado_1015575" data-name="Trazado 1015575" d="M935.878,1038.613a.369.369,0,0,1-.37-.37V990.421a.37.37,0,1,1,.74,0v47.821a.369.369,0,0,1-.37.37" transform="translate(-5989.056 6144.059)" fill="#535b7d"/>
      <path id="Trazado_1015576" data-name="Trazado 1015576" d="M1069.075,1038.613a.369.369,0,0,1-.37-.37V990.421a.37.37,0,1,1,.74,0v47.821a.369.369,0,0,1-.37.37" transform="translate(-6085.464 6144.059)" fill="#535b7d"/>
      <path id="Trazado_1015577" data-name="Trazado 1015577" d="M1211.224,1038.613a.369.369,0,0,1-.37-.37V990.421a.37.37,0,1,1,.74,0v47.821a.369.369,0,0,1-.37.37" transform="translate(-6188.351 6144.059)" fill="#535b7d"/>
      <path id="Trazado_1015578" data-name="Trazado 1015578" d="M828.965,1048.354a.739.739,0,0,1-.74-.74v-51.9a.74.74,0,1,1,1.48,0v51.9a.739.739,0,0,1-.74.74" transform="translate(-5911.405 6140.495)" fill="#535b7d"/>
      <path id="Trazado_1015579" data-name="Trazado 1015579" d="M930.19,1165.566H810.184a.741.741,0,0,1,0-1.481H930.19a.741.741,0,0,1,0,1.481" transform="translate(-5897.811 6018.094)" fill="#535b7d"/>
      <path id="Trazado_1015580" data-name="Trazado 1015580" d="M935.243,1005.245a1.258,1.258,0,1,0-1.258,1.259,1.258,1.258,0,0,0,1.258-1.259" transform="translate(-5987.043 6133.973)" fill="#fff"/>
      <path id="Trazado_1015581" data-name="Trazado 1015581" d="M933.066,1005.936a1.61,1.61,0,1,1,1.608-1.61,1.61,1.61,0,0,1-1.608,1.61m0-2.52a.91.91,0,1,0,.909.91.909.909,0,0,0-.909-.91" transform="translate(-5986.125 6134.893)" fill="#535b7d"/>
      <path id="Trazado_1015582" data-name="Trazado 1015582" d="M1067.621,1044.141a1.258,1.258,0,1,0-1.258,1.259,1.258,1.258,0,0,0,1.258-1.259" transform="translate(-6082.859 6105.82)" fill="#fff"/>
      <path id="Trazado_1015583" data-name="Trazado 1015583" d="M1065.449,1044.831a1.608,1.608,0,1,1,1.609-1.607,1.609,1.609,0,0,1-1.609,1.607m0-2.517a.909.909,0,1,0,.909.91.909.909,0,0,0-.909-.91" transform="translate(-6081.944 6106.738)" fill="#535b7d"/>
      <path id="Trazado_1015584" data-name="Trazado 1015584" d="M1208.906,1074.124a1.258,1.258,0,1,0-1.258,1.259,1.258,1.258,0,0,0,1.258-1.259" transform="translate(-6185.12 6084.119)" fill="#fff"/>
      <path id="Trazado_1015585" data-name="Trazado 1015585" d="M1206.734,1074.814a1.608,1.608,0,1,1,1.608-1.607,1.609,1.609,0,0,1-1.608,1.607m0-2.517a.909.909,0,1,0,.909.91.909.909,0,0,0-.909-.91" transform="translate(-6184.207 6085.036)" fill="#535b7d"/>
      <path id="Trazado_1015586" data-name="Trazado 1015586" d="M406.187,347.861H372.956v20.077H344.062v22.62" transform="translate(-5560.969 6608.875)" fill="none" stroke="#313440" stroke-linejoin="round" stroke-width="2.969" stroke-dasharray="15.611 15.611"/>
      <path id="Trazado_1015587" data-name="Trazado 1015587" d="M295.445,1043.1a4.283,4.283,0,0,0-.826.3c-6.653-20.6-20.561-60.8-31.591-73.573l1.372-1.188c11.409,13.214,25.363,53.657,32,74.324a5.746,5.746,0,0,0-.96.137" transform="translate(-5502.316 6159.56)" fill="#b0c66b"/>
      <path id="Trazado_1015588" data-name="Trazado 1015588" d="M216.173,910.722c-2.848-.065-2.089,2.554-.419,5.584s5.457,3.652,7.8,6.242,2.049,4.941,4.043,6.531,5.047,3.122,4.227,1.3-2.112-1.414-2.637-4.06-2.572-9.115-4.831-10.5-5.426-5.034-8.186-5.1" transform="translate(-5467.023 6201.478)" fill="#b0c66b"/>
      <path id="Trazado_1015589" data-name="Trazado 1015589" d="M286.189,918.648c-1.814-1.73-2.87.423-3.577,3.383s1.388,5.61,1.382,8.685-1.591,4.428-1.234,6.644,1.435,5.022,1.981,3.35-.538-2.172.687-4.2,3.721-7.453,3.071-9.692-.55-6.49-2.309-8.167" transform="translate(-5516.386 6196.188)" fill="#b0c66b"/>
      <path id="Trazado_1015590" data-name="Trazado 1015590" d="M212.868,982.537c-.968-2.314,1.419-2.532,4.434-2.137s4.741,3.3,7.613,4.39,4.7.092,6.642,1.216,4.176,3.133,2.421,3.047-1.835-1.277-4.169-.858-8.284.82-10.142-.587-5.861-2.83-6.8-5.072" transform="translate(-5465.853 6151.159)" fill="#b0c66b"/>
      <path id="Trazado_1015591" data-name="Trazado 1015591" d="M316.745,978.034c-1.656-1.882-2.9.171-3.858,3.058s.894,5.71.618,8.772-1.971,4.272-1.809,6.511.991,5.128,1.68,3.511-.346-2.21,1.051-4.128,4.357-7.1,3.9-9.387.018-6.513-1.587-8.337" transform="translate(-5537.535 6153.282)" fill="#b0c66b"/>
      <path id="Trazado_1015592" data-name="Trazado 1015592" d="M241.485,1035.209c-.762-2.389,1.635-2.4,4.6-1.741s4.435,3.7,7.2,5.039,4.674.5,6.51,1.792,3.887,3.486,2.146,3.247-1.717-1.433-4.078-1.219-8.324.093-10.052-1.471-5.592-3.332-6.331-5.647" transform="translate(-5486.62 6112.904)" fill="#b0c66b"/>
      <path id="Trazado_1015593" data-name="Trazado 1015593" d="M342.519,1039.593c-1.656-1.882-2.9.171-3.858,3.058s.894,5.71.618,8.772-1.971,4.272-1.809,6.511.991,5.129,1.68,3.511-.346-2.21,1.051-4.127,4.357-7.1,3.9-9.387.018-6.513-1.587-8.337" transform="translate(-5556.19 6108.726)" fill="#b0c66b"/>
      <path id="Trazado_1015594" data-name="Trazado 1015594" d="M267.259,1096.768c-.762-2.389,1.635-2.4,4.6-1.741s4.435,3.7,7.2,5.039,4.674.5,6.51,1.792,3.887,3.486,2.146,3.247-1.717-1.433-4.078-1.219-8.324.093-10.052-1.471-5.592-3.331-6.331-5.647" transform="translate(-5505.275 6068.347)" fill="#b0c66b"/>
      <path id="Trazado_1015595" data-name="Trazado 1015595" d="M365.135,1100.391c-1.441-2.052-2.9-.146-4.168,2.618s.265,5.773-.342,8.787-2.425,4.031-2.508,6.275.426,5.206,1.288,3.673-.1-2.235,1.495-3.988,5.105-6.581,4.905-8.9.728-6.472-.669-8.461" transform="translate(-5571.136 6064.819)" fill="#b0c66b"/>
      <path id="Trazado_1015596" data-name="Trazado 1015596" d="M290.9,1156.655c-.762-2.389,1.635-2.4,4.6-1.741s4.435,3.7,7.2,5.039,4.674.5,6.51,1.792,3.887,3.486,2.146,3.247-1.717-1.433-4.078-1.219-8.324.093-10.052-1.471-5.592-3.332-6.33-5.647" transform="translate(-5522.388 6025.001)" fill="#b0c66b"/>
      <path id="Trazado_1015597" data-name="Trazado 1015597" d="M384.727,1186.241c.144,1.823-2.632,5.589-3.894,6.956a2.746,2.746,0,0,0-.849,1.975,5.759,5.759,0,0,0-.859.127c-.126.03-.252.074-.378.118a10.861,10.861,0,0,1-.1-1.988c.077-1.759,1.508-2.546,2-4.906s-.7-4.727.315-6.889,2.163-3.647,3.283-2.031c1.085,1.567.335,4.815.479,6.638" transform="translate(-5585.996 6007.356)" fill="#b0c66b"/>
      <path id="Trazado_1015598" data-name="Trazado 1015598" d="M329.187,1211.226c2.152.476,3.215,2.683,5.22,3.652s3.388.365,4.719,1.3c1.077.757,2.23,1.928,1.972,2.261-.086.016-.173.028-.257.047-.047.011-.094.031-.141.044-.008,0-.01,0-.019,0-1.262-.173-1.245-1.038-2.956-.883s-6.034.067-7.286-1.067-4.053-2.415-4.589-4.094c-.553-1.732,1.185-1.738,3.337-1.262" transform="translate(-5547.712 5984.168)" fill="#b0c66b"/>
      <path id="Trazado_1015599" data-name="Trazado 1015599" d="M255.043,1143.511c-.706-3.8-1.359-7.6-1.993-11.344l-.609-3.578a37.923,37.923,0,0,0-2.748-10.146c-2.218-4.6-6.2-8.15-9.713-11.288a.408.408,0,0,0-.543.608c3.458,3.087,7.377,6.585,9.525,11.036a37.324,37.324,0,0,1,2.681,9.929l.608,3.577c.61,3.6,1.237,7.259,1.913,10.923a3.921,3.921,0,0,1,.881.284" transform="translate(-5485.143 6059.375)" fill="#8fa159"/>
      <path id="Trazado_1015600" data-name="Trazado 1015600" d="M214.262,1083.877a7.552,7.552,0,0,1,1.565-1.993,3,3,0,0,1,2.476-.964,3.629,3.629,0,0,1,1.39.745,7.788,7.788,0,0,1,2.048,1.95,7.037,7.037,0,0,1,.642,1.423,5.608,5.608,0,0,1,.374,3.623,1.726,1.726,0,0,1-.91,1.09,2.38,2.38,0,0,1-1.052.085,6.566,6.566,0,0,1-3.527-.929,6.123,6.123,0,0,1-1.081-1.116q-.923-1.145-1.777-2.344a1.62,1.62,0,0,1-.374-.829,1.474,1.474,0,0,1,.227-.742" transform="translate(-5466.855 6078.313)" fill="#8fa159"/>
      <path id="Trazado_1015601" data-name="Trazado 1015601" d="M257.3,1103.329a2.568,2.568,0,0,1-.542-2.99l.51-1.484a4.425,4.425,0,0,1,1.141-2.039,2.785,2.785,0,0,1,3.719.5,4.043,4.043,0,0,1,.7,3.835,5.647,5.647,0,0,1-2.558,3.055,2.215,2.215,0,0,1-1.386.394,2.622,2.622,0,0,1-1.585-1.275" transform="translate(-5497.593 6067.151)" fill="#8fa159"/>
      <path id="Trazado_1015602" data-name="Trazado 1015602" d="M275.352,1128.785a2.342,2.342,0,0,1,.988-2.592l1.1-.918a4.036,4.036,0,0,1,1.854-1.053,2.545,2.545,0,0,1,2.665,2.154,3.689,3.689,0,0,1-1.262,3.327,5.148,5.148,0,0,1-3.44,1.176,2.022,2.022,0,0,1-1.269-.349,2.4,2.4,0,0,1-.636-1.746" transform="translate(-5511.214 6046.962)" fill="#8fa159"/>
      <path id="Trazado_1015603" data-name="Trazado 1015603" d="M285.706,1155.8a2.343,2.343,0,0,1,.354-2.752l.853-1.15a4.034,4.034,0,0,1,1.556-1.458,2.543,2.543,0,0,1,3.1,1.469,3.691,3.691,0,0,1-.448,3.53,5.152,5.152,0,0,1-3.069,1.95,2.022,2.022,0,0,1-1.315-.041,2.4,2.4,0,0,1-1.027-1.548" transform="translate(-5518.535 6028.071)" fill="#8fa159"/>
      <path id="Trazado_1015604" data-name="Trazado 1015604" d="M230.047,1126.874l.527,1.788a1.893,1.893,0,0,0,.844,1.307,1.714,1.714,0,0,0,1.1-.007,10.248,10.248,0,0,0,4.649-2.594,1.2,1.2,0,0,0,.367-.531c.088-.343-.119-.688-.162-1.04a5.954,5.954,0,0,0-.035-.907,1.426,1.426,0,0,0-.672-.751,5.231,5.231,0,0,0-6.133.534,1.965,1.965,0,0,0-.624.9,2.432,2.432,0,0,0,.135,1.3" transform="translate(-5478.314 6047.55)" fill="#8fa159"/>
      <path id="Trazado_1015605" data-name="Trazado 1015605" d="M251.263,1147.3l.417,1.413a1.5,1.5,0,0,0,.667,1.033,1.354,1.354,0,0,0,.872-.006,8.1,8.1,0,0,0,3.674-2.049.95.95,0,0,0,.29-.42c.069-.271-.094-.544-.128-.822a4.688,4.688,0,0,0-.028-.717,1.127,1.127,0,0,0-.531-.593,4.135,4.135,0,0,0-4.847.422,1.548,1.548,0,0,0-.493.709,1.921,1.921,0,0,0,.107,1.031" transform="translate(-5493.697 6032.235)" fill="#8fa159"/>
      <path id="Trazado_1015606" data-name="Trazado 1015606" d="M257.513,1168.157l-.159,1.464a1.5,1.5,0,0,0,.218,1.21,1.359,1.359,0,0,0,.807.331,8.1,8.1,0,0,0,4.179-.476.948.948,0,0,0,.429-.276c.168-.224.122-.538.2-.808a4.681,4.681,0,0,0,.25-.672,1.128,1.128,0,0,0-.262-.752,4.135,4.135,0,0,0-4.636-1.478,1.548,1.548,0,0,0-.728.464,1.922,1.922,0,0,0-.3.992" transform="translate(-5498.189 6016.356)" fill="#8fa159"/>
      <path id="Trazado_1015607" data-name="Trazado 1015607" d="M290.992,1186.127a1.459,1.459,0,0,1-1.091-.623,2.411,2.411,0,0,1-.249-2.122,5.882,5.882,0,0,1,1.131-1.89q.581-.716,1.22-1.382a3.616,3.616,0,0,1,1.458-1.051,2.321,2.321,0,0,1,2.6,1.166,3.285,3.285,0,0,1-.043,2.97,5.728,5.728,0,0,1-2.107,2.2,3.524,3.524,0,0,1-1.193.536c-.332.066-.674.053-1.009.1a4.082,4.082,0,0,1-.716.092" transform="translate(-5521.49 6007.315)" fill="#8fa159"/>
      <path id="Trazado_1015608" data-name="Trazado 1015608" d="M269,1193.377a3.165,3.165,0,0,0-.456-.806c-.774-1.1-1.753-2.282-3.093-2.341a2.288,2.288,0,0,0-1.833.816.7.7,0,0,0-.17.321.778.778,0,0,0,.1.449,11.448,11.448,0,0,0,1.637,2.342,4.259,4.259,0,0,0,2.331,1.732,1.261,1.261,0,0,0,1.382-.577,1.736,1.736,0,0,0,.11-.454,3.222,3.222,0,0,0-.012-1.482" transform="translate(-5502.619 5999.17)" fill="#8fa159"/>
      <path id="Trazado_1015609" data-name="Trazado 1015609" d="M294.178,1213.267a4.078,4.078,0,0,1,.634-.9c.733-.961.95-2.324,1.93-3.031a2.118,2.118,0,0,1,2.343-.068,1.97,1.97,0,0,1,.783,2.186,3.717,3.717,0,0,1-1.275,1.558l-1.154.974a5.058,5.058,0,0,1-1.236.848,1.7,1.7,0,0,1-1.454.006,1.305,1.305,0,0,1-.572-1.578" transform="translate(-5524.803 5985.619)" fill="#8fa159"/>
      <path id="Trazado_1015610" data-name="Trazado 1015610" d="M270.476,1216.432a2.174,2.174,0,0,0-1.794-.33,1.718,1.718,0,0,0-.742,1.9,2.91,2.91,0,0,0,.433,1.159c.745,1.114,2.237,1.382,3.564,1.554a1.811,1.811,0,0,0,.553.015,1.115,1.115,0,0,0,.83-.827,1.824,1.824,0,0,0-.148-1.2,5.434,5.434,0,0,0-2.7-2.262" transform="translate(-5505.849 5980.514)" fill="#8fa159"/>
      <rect id="Rectángulo_410023" data-name="Rectángulo 410023" width="204.33" height="135.221" transform="translate(-5144.284 6952.589)" fill="#f5e6dc"/>
      <rect id="Rectángulo_410024" data-name="Rectángulo 410024" width="204.33" height="8.747" transform="translate(-5144.284 6952.48)" fill="#535b7d"/>
      <path id="Trazado_1015611" data-name="Trazado 1015611" d="M625.515,342.126a2.187,2.187,0,1,0-2.187,2.189,2.188,2.188,0,0,0,2.187-2.189" transform="translate(-5761.518 6614.611)" fill="#f05923"/>
      <path id="Trazado_1015612" data-name="Trazado 1015612" d="M651.908,342.126a2.187,2.187,0,1,0-2.187,2.189,2.188,2.188,0,0,0,2.187-2.189" transform="translate(-5780.622 6614.611)" fill="#33bac1"/>
      <path id="Trazado_1015613" data-name="Trazado 1015613" d="M679.62,342.126a2.187,2.187,0,1,0-2.187,2.189,2.188,2.188,0,0,0,2.187-2.189" transform="translate(-5800.679 6614.611)" fill="#fcb036"/>
      <path id="Trazado_1015614" data-name="Trazado 1015614" d="M697.6,402.744a12.037,12.037,0,1,0-12.037,12.047A12.042,12.042,0,0,0,697.6,402.744" transform="translate(-5799.433 6577.871)" fill="#fcb036"/>
      <path id="Trazado_1015615" data-name="Trazado 1015615" d="M699.631,432.206h-1.457a6.106,6.106,0,0,0-6.106,6.106v1.974h13.669v-1.974a6.106,6.106,0,0,0-6.106-6.106" transform="translate(-5812.855 6547.826)" fill="#fff"/>
      <path id="Trazado_1015616" data-name="Trazado 1015616" d="M709.623,402.466a4.437,4.437,0,1,0-4.436,4.44,4.438,4.438,0,0,0,4.436-4.44" transform="translate(-5819.139 6572.566)" fill="#fff"/>
      <path id="Trazado_1015617" data-name="Trazado 1015617" d="M697.6,505.71a12.037,12.037,0,1,0-12.037,12.047A12.042,12.042,0,0,0,697.6,505.71" transform="translate(-5799.433 6503.344)" fill="#33bac1"/>
      <path id="Trazado_1015618" data-name="Trazado 1015618" d="M699.631,535.172h-1.457a6.106,6.106,0,0,0-6.106,6.106v1.974h13.669v-1.974a6.106,6.106,0,0,0-6.106-6.106" transform="translate(-5812.855 6473.3)" fill="#fff"/>
      <path id="Trazado_1015619" data-name="Trazado 1015619" d="M709.623,505.433a4.437,4.437,0,1,0-4.436,4.44,4.438,4.438,0,0,0,4.436-4.44" transform="translate(-5819.139 6498.038)" fill="#fff"/>
      <path id="Trazado_1015620" data-name="Trazado 1015620" d="M697.6,605.085a12.037,12.037,0,1,0-12.037,12.047A12.042,12.042,0,0,0,697.6,605.085" transform="translate(-5799.433 6431.417)" fill="#f05923"/>
      <path id="Trazado_1015621" data-name="Trazado 1015621" d="M699.631,634.547h-1.457a6.106,6.106,0,0,0-6.106,6.106v1.974h13.669v-1.974a6.106,6.106,0,0,0-6.106-6.106" transform="translate(-5812.855 6401.373)" fill="#fff"/>
      <path id="Trazado_1015622" data-name="Trazado 1015622" d="M709.623,604.807a4.437,4.437,0,1,0-4.436,4.44,4.438,4.438,0,0,0,4.436-4.44" transform="translate(-5819.139 6426.112)" fill="#fff"/>
      <path id="Trazado_1015623" data-name="Trazado 1015623" d="M804.385,569.219a1.733,1.733,0,0,1-1-3.15l24.666-17.324a1.733,1.733,0,0,1,1.527-.231l13.717,4.442,22.619-22.221a1.736,1.736,0,0,1,1.8-.393L877.6,533.9l45.542-37.913a1.732,1.732,0,0,1,2.215,2.664l-46.3,38.547a1.739,1.739,0,0,1-1.694.3l-9.795-3.529-22.593,22.193a1.736,1.736,0,0,1-1.745.412l-13.893-4.5L805.378,568.9a1.719,1.719,0,0,1-.993.315" transform="translate(-5892.896 6501.95)" fill="#f05923"/>
      <path id="Trazado_1015624" data-name="Trazado 1015624" d="M1197.317,509.057a1.735,1.735,0,0,1-1.674-2.175l2.755-10.453-12.425,2.487a1.732,1.732,0,0,1-.679-3.4l15.146-3.032a1.731,1.731,0,0,1,2.013,2.14l-3.462,13.138a1.732,1.732,0,0,1-1.673,1.292" transform="translate(-6168.843 6504.22)" fill="#f05923"/>
      <path id="Trazado_1015625" data-name="Trazado 1015625" d="M1166.869,601.438h-2.793a1.849,1.849,0,0,0-1.849,1.849v45.459a1.849,1.849,0,0,0,1.849,1.849h2.793a1.849,1.849,0,0,0,1.849-1.849V603.287a1.849,1.849,0,0,0-1.849-1.849" transform="translate(-6153.155 6425.337)" fill="#2a989e"/>
      <path id="Trazado_1015626" data-name="Trazado 1015626" d="M1132.479,616.334h-2.951a1.77,1.77,0,0,0-1.77,1.77v41.5a1.77,1.77,0,0,0,1.77,1.77h2.951a1.77,1.77,0,0,0,1.77-1.77V618.1a1.77,1.77,0,0,0-1.77-1.77" transform="translate(-6128.207 6414.555)" fill="#2a989e"/>
      <path id="Trazado_1015627" data-name="Trazado 1015627" d="M1097.828,652.793h-3.371a1.56,1.56,0,0,0-1.56,1.56v31.854a1.56,1.56,0,0,0,1.56,1.56h3.371a1.56,1.56,0,0,0,1.56-1.56V654.353a1.56,1.56,0,0,0-1.56-1.56" transform="translate(-6102.974 6388.166)" fill="#33bac1"/>
      <path id="Trazado_1015628" data-name="Trazado 1015628" d="M1062.576,652.793H1059.2a1.56,1.56,0,0,0-1.56,1.56v31.854a1.56,1.56,0,0,0,1.56,1.56h3.371a1.56,1.56,0,0,0,1.56-1.56V654.353a1.56,1.56,0,0,0-1.56-1.56" transform="translate(-6077.459 6388.166)" fill="#33bac1"/>
      <path id="Trazado_1015629" data-name="Trazado 1015629" d="M1028.265,677.1h-3.687a1.4,1.4,0,0,0-1.4,1.4v25.456a1.4,1.4,0,0,0,1.4,1.4h3.687a1.4,1.4,0,0,0,1.4-1.4V678.5a1.4,1.4,0,0,0-1.4-1.4" transform="translate(-6052.51 6370.574)" fill="#84dce0"/>
      <path id="Trazado_1015630" data-name="Trazado 1015630" d="M992.82,704.148h-4.086a1.2,1.2,0,0,0-1.2,1.2v18.384a1.2,1.2,0,0,0,1.2,1.2h4.086a1.2,1.2,0,0,0,1.2-1.2V705.351a1.2,1.2,0,0,0-1.2-1.2" transform="translate(-6026.71 6350.996)" fill="#33bac1"/>
      <path id="Trazado_1015631" data-name="Trazado 1015631" d="M957.9,740.214h-4.755a.868.868,0,0,0-.868.868v9.092a.868.868,0,0,0,.868.868H957.9a.868.868,0,0,0,.868-.868v-9.092a.868.868,0,0,0-.868-.868" transform="translate(-6001.196 6324.891)" fill="#e7e3d6"/>
      <path id="Trazado_1015632" data-name="Trazado 1015632" d="M924.022,720.613h-4.365a1.063,1.063,0,0,0-1.063,1.063v14.116a1.063,1.063,0,0,0,1.063,1.063h4.365a1.063,1.063,0,0,0,1.063-1.063V721.676a1.063,1.063,0,0,0-1.063-1.063" transform="translate(-5976.813 6339.078)" fill="#84dce0"/>
      <path id="Trazado_1015633" data-name="Trazado 1015633" d="M891.456,714.34H887.2a1.118,1.118,0,0,0-1.118,1.118V731.2a1.118,1.118,0,0,0,1.118,1.118h4.255a1.118,1.118,0,0,0,1.118-1.118V715.458a1.118,1.118,0,0,0-1.118-1.118" transform="translate(-5953.282 6343.618)" fill="#33bac1"/>
      <path id="Trazado_1015634" data-name="Trazado 1015634" d="M858.35,734.333h-4.63a.931.931,0,0,0-.931.931v10.59a.931.931,0,0,0,.931.931h4.63a.931.931,0,0,0,.931-.931v-10.59a.931.931,0,0,0-.931-.931" transform="translate(-5929.184 6329.148)" fill="#33bac1"/>
      <path id="Trazado_1015635" data-name="Trazado 1015635" d="M1249.26,591.359a8.644,8.644,0,1,1,8.638-8.645,8.651,8.651,0,0,1-8.638,8.645m0-13.3a4.655,4.655,0,1,0,4.651,4.655,4.658,4.658,0,0,0-4.651-4.655" transform="translate(-6209.897 6445.146)" fill="#f05923"/>
      <path id="Trazado_1015636" data-name="Trazado 1015636" d="M1257.672,591.407a8.639,8.639,0,0,0,.359-17.27v4.007A4.643,4.643,0,1,1,1255,586.56l-2.754,2.918a8.588,8.588,0,0,0,5.427,1.928" transform="translate(-6218.31 6445.097)" fill="#33bac1"/>
      <path id="Trazado_1015637" data-name="Trazado 1015637" d="M1273.195,574.137v4.007a4.634,4.634,0,0,1,4.248,4.165l3.491-2.527a8.649,8.649,0,0,0-7.739-5.645" transform="translate(-6233.473 6445.097)" fill="#fcb036"/>
      <path id="Trazado_1015638" data-name="Trazado 1015638" d="M1256.543,650.06h-14.277a.809.809,0,0,1-.806-.806h0a.809.809,0,0,1,.806-.806h14.277a.809.809,0,0,1,.806.806h0a.809.809,0,0,1-.806.806" transform="translate(-6210.503 6391.312)" fill="#bea79c"/>
      <path id="Trazado_1015639" data-name="Trazado 1015639" d="M1256.543,664.662h-14.277a.809.809,0,0,1-.806-.806h0a.809.809,0,0,1,.806-.806h14.277a.809.809,0,0,1,.806.806h0a.809.809,0,0,1-.806.806" transform="translate(-6210.503 6380.743)" fill="#bea79c"/>
      <path id="Trazado_1015640" data-name="Trazado 1015640" d="M1249.26,700.362a8.644,8.644,0,1,1,8.638-8.645,8.651,8.651,0,0,1-8.638,8.645m0-13.3a4.655,4.655,0,1,0,4.651,4.655,4.658,4.658,0,0,0-4.651-4.655" transform="translate(-6209.897 6366.25)" fill="#fcb036"/>
      <path id="Trazado_1015641" data-name="Trazado 1015641" d="M1257.672,700.41a8.639,8.639,0,0,0,.359-17.27v4.007a4.643,4.643,0,1,1-3.032,8.416l-2.754,2.918a8.588,8.588,0,0,0,5.427,1.928" transform="translate(-6218.31 6366.201)" fill="#33bac1"/>
      <path id="Trazado_1015642" data-name="Trazado 1015642" d="M1273.195,683.14v4.007a4.634,4.634,0,0,1,4.248,4.165l3.491-2.527a8.648,8.648,0,0,0-7.739-5.645" transform="translate(-6233.473 6366.201)" fill="#f05923"/>
      <path id="Trazado_1015643" data-name="Trazado 1015643" d="M1256.543,759.063h-14.277a.809.809,0,0,1-.806-.806h0a.809.809,0,0,1,.806-.806h14.277a.809.809,0,0,1,.806.806h0a.809.809,0,0,1-.806.806" transform="translate(-6210.503 6312.416)" fill="#bea79c"/>
      <path id="Trazado_1015644" data-name="Trazado 1015644" d="M1256.543,773.666h-14.277a.808.808,0,0,1-.806-.806h0a.809.809,0,0,1,.806-.806h14.277a.809.809,0,0,1,.806.806h0a.808.808,0,0,1-.806.806" transform="translate(-6210.503 6301.845)" fill="#bea79c"/>
      <path id="Trazado_1015645" data-name="Trazado 1015645" d="M876.425,424.431H791.589a4.587,4.587,0,0,1-4.574-4.574v0a4.588,4.588,0,0,1,4.574-4.574h84.836A4.588,4.588,0,0,1,881,419.853v0a4.588,4.588,0,0,1-4.574,4.574" transform="translate(-5881.577 6560.078)" fill="#bea79c"/>
      <path id="Trazado_1015646" data-name="Trazado 1015646" d="M858.573,522H791.406a4.4,4.4,0,0,1-4.391-4.391v-.37a4.4,4.4,0,0,1,4.391-4.391h67.167a4.4,4.4,0,0,1,4.391,4.391v.37A4.4,4.4,0,0,1,858.573,522" transform="translate(-5881.577 6489.46)" fill="#bea79c"/>
      <path id="Trazado_1015647" data-name="Trazado 1015647" d="M824.354,622.325H791.59a4.587,4.587,0,0,1-4.574-4.574v0a4.588,4.588,0,0,1,4.574-4.574h32.764a4.588,4.588,0,0,1,4.574,4.574v0a4.587,4.587,0,0,1-4.574,4.574" transform="translate(-5881.578 6416.842)" fill="#bea79c"/>
      <path id="Trazado_1015648" data-name="Trazado 1015648" d="M316.8,1048.663c.131,6.674,1.6,11.807,5.415,13.283,5.053,1.958,11.139,1.131,16.846-.713-2.588-9.543-12.264-14.23-22.261-12.571" transform="translate(-5541.237 6101.874)" fill="#f0b48f"/>
      <path id="Trazado_1015649" data-name="Trazado 1015649" d="M350.069,883.968l-24.507-2.25s-9.135,28.621-8.787,46.349c10-1.659,19.673,3.027,22.261,12.571a78.043,78.043,0,0,0,18.9-9.639Z" transform="translate(-5541.211 6222.47)" fill="#f0b48f"/>
      <path id="Trazado_1015650" data-name="Trazado 1015650" d="M411.225,990.825a.338.338,0,0,1-.155-.637l5.622-2.926a.337.337,0,0,1,.311.6l-5.621,2.926a.327.327,0,0,1-.156.038" transform="translate(-5609.337 6146.105)" fill="#313440"/>
      <path id="Trazado_1015651" data-name="Trazado 1015651" d="M340.109,1073.252a3.007,3.007,0,0,1-2.651-1.276c-.532-.9-.276-1.982.7-2.972.784-.79,2.487-1.775,3.834-1.47a1.889,1.889,0,0,1,1.394,1.3.337.337,0,0,1-.636.224,1.217,1.217,0,0,0-.906-.868,4.239,4.239,0,0,0-3.206,1.287c-.757.766-.97,1.531-.6,2.153a2.759,2.759,0,0,0,3.124.8c.486-.139.982-.466.994-.88a.755.755,0,0,0-.586-.679,1.392,1.392,0,0,0-1.153.292.343.343,0,0,1-.473-.059.337.337,0,0,1,.059-.473,2.06,2.06,0,0,1,1.736-.413,1.42,1.42,0,0,1,1.093,1.353c-.024.807-.781,1.308-1.483,1.508a4.479,4.479,0,0,1-1.24.177" transform="translate(-5555.992 6088.019)" fill="#313440"/>
      <path id="Trazado_1015652" data-name="Trazado 1015652" d="M479.407,1072.981c-1.1-2.706-1.84-4.272-1.84-4.272l-10.792-5.063-59.357-4.726c-1.809,1.644-3.477,3.244-5.053,4.812,22.724,14.446,51.048,15.681,77.043,9.249" transform="translate(-5603.167 6094.212)" fill="#313440"/>
      <path id="Trazado_1015653" data-name="Trazado 1015653" d="M347.43,1076.342c-18.523,24.128-20.963,44.884-20.963,44.884l106.435-.305c-1.9-14.041-5.792-28.863-8.43-35.33-25.995,6.431-54.319,5.2-77.043-9.249" transform="translate(-5548.234 6081.602)" fill="#535b7d"/>
      <path id="Trazado_1015654" data-name="Trazado 1015654" d="M668.055,1144.444a.338.338,0,0,1-.337-.334c-.166-13.632-5.83-32.627-5.888-32.817a.337.337,0,0,1,.225-.421.334.334,0,0,1,.42.225c.058.191,5.75,19.276,5.916,33a.337.337,0,0,1-.333.341Z" transform="translate(-5790.958 6056.619)" fill="#313440"/>
      <path id="Trazado_1015655" data-name="Trazado 1015655" d="M437.478,1141.792h-.005a.339.339,0,0,1-.332-.346c.335-13.759,10.726-33.869,10.83-34.071a.337.337,0,1,1,.6.311c-.1.2-10.422,20.175-10.754,33.776a.338.338,0,0,1-.337.329" transform="translate(-5628.339 6059.271)" fill="#313440"/>
      <path id="Trazado_1015656" data-name="Trazado 1015656" d="M478.555,1167.888a.338.338,0,0,1-.327-.256c-1.687-6.755,2.357-23.1,2.529-23.792a.34.34,0,0,1,.161-.212.351.351,0,0,1,.265-.029c12.93,3.981,40.883-.3,41.163-.348a.337.337,0,0,1,.1.667c-.28.045-27.9,4.278-41.123.43-.582,2.429-3.961,17.055-2.446,23.12a.338.338,0,0,1-.246.409.3.3,0,0,1-.082.011" transform="translate(-5657.781 6033.175)" fill="#313440"/>
      <path id="Trazado_1015657" data-name="Trazado 1015657" d="M638.573,1172.29a.337.337,0,0,1-.336-.315l-.844-12.489a.337.337,0,0,1,.313-.359.327.327,0,0,1,.36.314l.843,12.489a.336.336,0,0,1-.313.359h-.024" transform="translate(-5773.281 6021.685)" fill="#313440"/>
      <path id="Trazado_1015658" data-name="Trazado 1015658" d="M382.549,1152.476l-.046,0a.339.339,0,0,1-.289-.381c.022-.162,2.224-16.069,5.49-24.451-2.2-.426-12.318-2.53-14.209-5.475a.337.337,0,0,1,.1-.465.33.33,0,0,1,.466.1c1.922,2.99,14.044,5.228,14.166,5.25a.337.337,0,0,1,.252.459c-3.318,8.192-5.577,24.507-5.6,24.672a.337.337,0,0,1-.333.291" transform="translate(-5582.234 6048.812)" fill="#313440"/>
      <path id="Trazado_1015659" data-name="Trazado 1015659" d="M657.422,1097.6l-3.6.788-1.574-7.539,4.5-.562Z" transform="translate(-5784.035 6071.509)" fill="#a58067"/>
      <path id="Trazado_1015660" data-name="Trazado 1015660" d="M462.581,1095.114l5.733,1.463,1.911-7.763-4.159-.563Z" transform="translate(-5646.752 6072.983)" fill="#a58067"/>
      <path id="Trazado_1015661" data-name="Trazado 1015661" d="M444.921,790.172c.337,9.451-9.106,17.552-10.118,20.928s-1.349,20.253-6.745,22.615c0,0-52.275,8.1-70.149-7.426,0,0-3.373-1.013-1.349-7.089s4.834-12.714,1.012-34.092c0,0-13.94.9-23.608-7.651,0,0,11.242-31.729,24.283-36.68a143.824,143.824,0,0,1,21.135-6.526l27.655,3.15,26.531,18.9Z" transform="translate(-5553.659 6329.207)" fill="#fcb036"/>
      <path id="Trazado_1015662" data-name="Trazado 1015662" d="M780.736,1024.937c5.452,4.477,11.548,7.074,18.586,5.665,3.239-.648,7.015-3.407,11-7.433-9.094-6.34-20.316-2.576-29.585,1.768" transform="translate(-5877.032 6122.53)" fill="#f0b48f"/>
      <path id="Trazado_1015663" data-name="Trazado 1015663" d="M776.616,763.175l-31.534,38.817-10.961-11.814-25.294,24.978c5.9,7.866,12.25,17.788,19.862,24.039,9.269-4.344,20.491-8.109,29.585-1.768C775.031,820.5,795.5,781.065,795.5,781.065Z" transform="translate(-5824.985 6308.272)" fill="#f0b48f"/>
      <path id="Trazado_1015664" data-name="Trazado 1015664" d="M844.547,908.685a.336.336,0,0,1-.243-.1l-5.339-5.513a.337.337,0,1,1,.485-.469l5.34,5.513a.338.338,0,0,1-.243.572" transform="translate(-5919.11 6207.43)" fill="#313440"/>
      <path id="Trazado_1015665" data-name="Trazado 1015665" d="M830.362,1036.587a3.007,3.007,0,0,1-2.651-1.276c-.532-.9-.277-1.982.7-2.972.783-.792,2.487-1.777,3.834-1.47a1.885,1.885,0,0,1,1.394,1.3.335.335,0,0,1-.206.43.34.34,0,0,1-.43-.206,1.22,1.22,0,0,0-.907-.868,4.22,4.22,0,0,0-3.206,1.287c-.756.766-.97,1.531-.6,2.153a2.759,2.759,0,0,0,3.122.795c.487-.138.984-.465,1-.881a.758.758,0,0,0-.587-.678,1.392,1.392,0,0,0-1.152.291.343.343,0,0,1-.474-.058.339.339,0,0,1,.058-.475,2.064,2.064,0,0,1,1.736-.413,1.423,1.423,0,0,1,1.094,1.351c-.025.808-.782,1.31-1.484,1.51a4.474,4.474,0,0,1-1.239.177" transform="translate(-5910.836 6114.557)" fill="#313440"/>
      <path id="Trazado_1015666" data-name="Trazado 1015666" d="M981.585,639.524l12.237,39.833a1.084,1.084,0,0,0,1.355.718l5.364-1.651a1.084,1.084,0,0,0,.717-1.354l-12.237-39.835Z" transform="translate(-6022.407 6399.426)" fill="#313440"/>
      <rect id="Rectángulo_410025" data-name="Rectángulo 410025" width="9.395" height="9.006" transform="matrix(0.956, -0.294, 0.294, 0.956, -5041.693, 7038.526)" fill="#535b7d"/>
      <g id="Grupo_1162639" data-name="Grupo 1162639" transform="translate(-5067.032 6993.647)" opacity="0.42">
        <g id="Grupo_1162610" data-name="Grupo 1162610" transform="translate(0 0)">
          <g id="Grupo_1162609" data-name="Grupo 1162609" clip-path="url(#clip-path)">
            <path id="Trazado_1015169" data-name="Trazado 1015169" d="M902.661,482.5a22.629,22.629,0,1,1-14.968,28.282A22.608,22.608,0,0,1,902.661,482.5" transform="translate(-886.689 -481.497)" fill="#fff"/>
          </g>
        </g>
      </g>
      <path id="Trazado_1015667" data-name="Trazado 1015667" d="M982.412,633.168a17.245,17.245,0,0,0,4.3-2.007l1.2,3.9a21.1,21.1,0,0,1-8.98,2.763l-1.2-3.9a17.239,17.239,0,0,0,4.682-.757" transform="translate(-6019.616 6403.824)" fill="#313440"/>
      <path id="Trazado_1015668" data-name="Trazado 1015668" d="M895.911,474.212a24.949,24.949,0,1,1-16.5,31.182,24.954,24.954,0,0,1,16.5-31.182m1.363,4.437a20.308,20.308,0,1,0,25.36,13.443,20.335,20.335,0,0,0-25.36-13.443" transform="translate(-5947.653 6518.222)" fill="#535b7d"/>
      <g id="Grupo_1162640" data-name="Grupo 1162640" transform="translate(-5066.274 6994.405)" opacity="0.52" style="mix-blend-mode: multiply;isolation: isolate">
        <g id="Grupo_1162613" data-name="Grupo 1162613" transform="translate(0 0)">
          <g id="Grupo_1162612" data-name="Grupo 1162612" clip-path="url(#clip-path-2)">
            <path id="Trazado_1015172" data-name="Trazado 1015172" d="M890.4,512.55a21.859,21.859,0,1,0,14.469-27.339A21.878,21.878,0,0,0,890.4,512.55m14.929-25.841A20.308,20.308,0,1,1,891.9,512.09a20.312,20.312,0,0,1,13.433-25.38" transform="translate(-889.432 -484.243)" fill="#9fa4af"/>
          </g>
        </g>
      </g>
      <g id="Grupo_1162641" data-name="Grupo 1162641" transform="translate(-5038.129 7002.694)" opacity="0.42">
        <g id="Grupo_1162616" data-name="Grupo 1162616" transform="translate(0 0)">
          <g id="Grupo_1162615" data-name="Grupo 1162615" clip-path="url(#clip-path-3)">
            <path id="Trazado_1015173" data-name="Trazado 1015173" d="M1000.526,520.57c-1.022-3.328-5.676-8.209-8.379-5.556s1.86,16.322,6.014,15.026c3.39-1.058,3.421-6.031,2.365-9.47" transform="translate(-991.334 -514.253)" fill="#fff"/>
          </g>
        </g>
      </g>
      <g id="Grupo_1162642" data-name="Grupo 1162642" transform="translate(-5048.172 7010.16)" opacity="0.42">
        <g id="Grupo_1162619" data-name="Grupo 1162619" transform="translate(0 0)">
          <g id="Grupo_1162618" data-name="Grupo 1162618" clip-path="url(#clip-path-4)">
            <path id="Trazado_1015174" data-name="Trazado 1015174" d="M965.254,549.891c-2.294-2.532-3.272-10.649-5.941-8.128-12.568,11.868,5.9,23.2,8.356,19.607,4.355-6.359,0-8.815-2.415-11.479" transform="translate(-954.971 -541.283)" fill="#fff"/>
          </g>
        </g>
      </g>
      <path id="Trazado_1015669" data-name="Trazado 1015669" d="M939.465,704.265a3.464,3.464,0,0,1-.38-3.755c3.909-7.6,8.239-17.14,8.419-19.29a3.459,3.459,0,1,1,6.893.579c-.378,4.5-7.109,17.884-9.162,21.877a3.459,3.459,0,0,1-5.769.588" transform="translate(-5991.368 6369.886)" fill="#f0b48f"/>
      <path id="Trazado_1015670" data-name="Trazado 1015670" d="M969.989,685.8a7.044,7.044,0,0,1-1.278-.117.169.169,0,0,1,.066-.331,6.037,6.037,0,0,0,2.305-.015l.935-3.685a3.865,3.865,0,0,0-1.213-.737.169.169,0,0,1,0-.338c.414,0,1.331.733,1.51.881a.167.167,0,0,1,.057.171l-.985,3.886a.168.168,0,0,1-.115.119,4.482,4.482,0,0,1-1.282.166" transform="translate(-6012.991 6368.053)" fill="#313440"/>
      <path id="Trazado_1015671" data-name="Trazado 1015671" d="M933.743,737.567s-1.061-10.48,6.569-16.7c4.472-3.647,13.939-5.587,13.939-5.587s18.32,15.3,15.949,19.826-16.8,17.165-16.8,17.165Z" transform="translate(-5987.743 6342.94)" fill="#f0b48f"/>
      <path id="Trazado_1015672" data-name="Trazado 1015672" d="M1015.207,715.592a4.071,4.071,0,0,1,.869,3.843,3.907,3.907,0,0,1,3.411,1.393,4.061,4.061,0,0,1,.815,4.081,3.285,3.285,0,0,1-.273.516,3.464,3.464,0,0,1,3.262,1.213,3.641,3.641,0,0,1,.73,3.658,2.818,2.818,0,0,1-.728,1.061l-7.081,6.426a3.22,3.22,0,0,1-4.576-.568,3.651,3.651,0,0,1-.78-3.477,3.727,3.727,0,0,1-4.369-1.111,4.079,4.079,0,0,1-.881-3.841,3.91,3.91,0,0,1-3.4-1.4,3.971,3.971,0,0,1-.722-4.145c2.866-3.553,5.979-5.275,10.5-9.252a6.982,6.982,0,0,1,3.223,1.6" transform="translate(-6036.595 6343.869)" fill="#f0b48f"/>
      <path id="Trazado_1015673" data-name="Trazado 1015673" d="M1039.645,737.135a.164.164,0,0,1-.125-.057.166.166,0,0,1,.013-.237l4.144-3.716a.168.168,0,1,1,.224.25l-4.145,3.716a.165.165,0,0,1-.112.044" transform="translate(-6064.308 6330.053)" fill="#313440"/>
      <path id="Trazado_1015674" data-name="Trazado 1015674" d="M1054.188,758.921a.172.172,0,0,1-.124-.054.169.169,0,0,1,.009-.239l4.082-3.81a.169.169,0,1,1,.229.248l-4.081,3.81a.165.165,0,0,1-.115.045" transform="translate(-6074.835 6314.354)" fill="#313440"/>
      <path id="Trazado_1015675" data-name="Trazado 1015675" d="M1017.791,766.15a.168.168,0,0,1-.049-.33l3.226-.98a.17.17,0,0,1,.209.112.167.167,0,0,1-.112.21l-3.226.98a.161.161,0,0,1-.049.008" transform="translate(-6048.49 6307.07)" fill="#313440"/>
      <path id="Trazado_1015676" data-name="Trazado 1015676" d="M1023.543,763.434h-.014a.167.167,0,0,1-.153-.182l.33-3.7a.168.168,0,1,1,.334.029l-.329,3.7a.167.167,0,0,1-.167.154" transform="translate(-6052.654 6311.004)" fill="#313440"/>
      <path id="Trazado_1015677" data-name="Trazado 1015677" d="M1034.538,785.3a.168.168,0,0,1-.049-.33l3.227-.981a.168.168,0,0,1,.1.322l-3.226.981a.164.164,0,0,1-.049.008" transform="translate(-6060.612 6293.209)" fill="#313440"/>
      <path id="Trazado_1015678" data-name="Trazado 1015678" d="M1040.29,782.6a.059.059,0,0,1-.014,0,.166.166,0,0,1-.153-.182l.329-3.7a.167.167,0,0,1,.167-.154.045.045,0,0,1,.014,0,.166.166,0,0,1,.153.182l-.329,3.7a.167.167,0,0,1-.167.154" transform="translate(-6064.776 6297.134)" fill="#313440"/>
      <path id="Trazado_1015679" data-name="Trazado 1015679" d="M946.577,716.207a3.767,3.767,0,0,1-.749-.674,3.446,3.446,0,0,1,.367-4.931c.109-.088,10.913-8.874,15.674-13.547l4.93-4.839a3.583,3.583,0,0,1,5.033.107,3.473,3.473,0,0,1,.088,4.96l-4.93,4.839c-4.985,4.892-15.688,13.6-16.141,13.965a3.588,3.588,0,0,1-4.273.12" transform="translate(-5995.899 6360.341)" fill="#f0b48f"/>
      <path id="Trazado_1015680" data-name="Trazado 1015680" d="M1022.049,718.1a.169.169,0,0,1-.112-.3l4.913-4.38a.166.166,0,0,1,.238.015.169.169,0,0,1-.015.239l-4.913,4.38a.17.17,0,0,1-.112.042" transform="translate(-6051.573 6344.315)" fill="#313440"/>
      <path id="Trazado_1015681" data-name="Trazado 1015681" d="M996.642,743.935a.168.168,0,0,1-.049-.33l3.228-.981a.168.168,0,0,1,.1.322l-3.227.981a.16.16,0,0,1-.049.008" transform="translate(-6033.183 6323.152)" fill="#313440"/>
      <path id="Trazado_1015682" data-name="Trazado 1015682" d="M1002.4,741.226h-.014a.166.166,0,0,1-.153-.182l.33-3.7a.167.167,0,0,1,.167-.154h.015a.166.166,0,0,1,.153.182l-.329,3.7a.167.167,0,0,1-.167.154" transform="translate(-6037.35 6327.077)" fill="#313440"/>
      <path id="Trazado_1015683" data-name="Trazado 1015683" d="M626.5,736.7a38.2,38.2,0,0,1,24.283,13.952c7.869,9.676,19.786,25.428,19.786,25.428s-14.39,22.5-38.447,24.3L614.139,768.2l-5.846-26.328Z" transform="translate(-5752.219 6327.437)" fill="#fcb036"/>
      <path id="Trazado_1015684" data-name="Trazado 1015684" d="M526.286,1069.055c-.659,0-3.948-.232-6.278-4.685a.338.338,0,1,1,.6-.314c1.644,3.142,3.761,4.006,4.914,4.239-1.787-2.588-1.085-8.781-1.051-9.071a.337.337,0,1,1,.67.079c-.243,2.074-.46,7.757,1.437,9.139a.338.338,0,0,1-.177.61c-.013,0-.052,0-.113,0" transform="translate(-5688.291 6094.206)" fill="#313440"/>
      <path id="Trazado_1015685" data-name="Trazado 1015685" d="M661.95,1074.781a.337.337,0,0,1-.178-.624c1.666-1.043,2.764-5.159,2.775-5.2a.346.346,0,0,1,.412-.241.337.337,0,0,1,.24.412c-.047.181-1.179,4.418-3.07,5.6a.341.341,0,0,1-.179.051" transform="translate(-5790.812 6087.128)" fill="#313440"/>
      <path id="Trazado_1015686" data-name="Trazado 1015686" d="M432.889,1055.842a.338.338,0,0,1-.252-.113c-1.91-2.151.074-7.753.159-7.99a.338.338,0,1,1,.635.23c-.019.05-1.645,4.64-.616,6.811l1.56-3.9a.337.337,0,1,1,.626.251l-1.8,4.5a.337.337,0,0,1-.255.207.291.291,0,0,1-.058.005" transform="translate(-5624.48 6102.465)" fill="#313440"/>
      <path id="Trazado_1015687" data-name="Trazado 1015687" d="M498.111,939.262a.338.338,0,0,1-.314-.215c-1.55-3.989-6.234-13.154-6.282-13.246a.338.338,0,0,1,.147-.455.344.344,0,0,1,.454.146c.047.092,4.747,9.289,6.31,13.309a.339.339,0,0,1-.192.438.364.364,0,0,1-.123.023" transform="translate(-5667.668 6190.918)" fill="#313440"/>
      <path id="Trazado_1015688" data-name="Trazado 1015688" d="M462.079,779.5c-.863-1.062-1.748-2.032-2.645-2.943A11.327,11.327,0,0,0,457,778.468c-3,3.172-3.979,7.7-6.031,11.559A23.027,23.027,0,0,1,426.513,801.4c-8.944-1.921-16.481-9.234-25.628-9.219-7.588.012-14.528,5.165-22.109,4.858-9.007-.364-16-8.158-24.168-11.736a119.973,119.973,0,0,0-7.034,13.552c4.87.095,9.668.909,13.312,3.976,3.006,2.531,4.842,6.338,8.145,8.465a17.884,17.884,0,0,0,5.89,2.165c4.721,1.045,9.679,1.548,14.37.377,5.99-1.495,11.18-5.618,17.3-6.458,6.729-.924,13.282,2.273,19.2,5.6a36.15,36.15,0,0,0,7.466,3.525c4.147,1.206,8.588.781,12.839.018a16.845,16.845,0,0,0,7.209-2.6c4.248-3.158,5.005-9.078,7.133-13.927a23.914,23.914,0,0,1,9.446-10.659c-2.678-3.433-5.426-6.912-7.8-9.837" transform="translate(-5563.51 6298.586)" fill="#fff"/>
      <path id="Trazado_1015689" data-name="Trazado 1015689" d="M667.183,920.721a.34.34,0,0,1-.292-.169L656.774,903a.337.337,0,1,1,.584-.338l10.014,17.372c16.224-.982,29.344-14.156,29.475-14.289a.337.337,0,1,1,.482.472c-.134.137-13.551,13.606-30.126,14.5Z" transform="translate(-5787.276 6207.433)" fill="#313440"/>
      <path id="Trazado_1015690" data-name="Trazado 1015690" d="M413.838,894.248a.337.337,0,0,1-.33-.272l-1.8-9a.338.338,0,0,1,.265-.4.345.345,0,0,1,.4.265l1.8,9a.338.338,0,0,1-.265.4.381.381,0,0,1-.067.007" transform="translate(-5609.928 6220.404)" fill="#313440"/>
      <path id="Trazado_1015691" data-name="Trazado 1015691" d="M556.2,502.751c3.878-2.138,17.256-.563,27.037,2.7s13.6,8.1,10.455,13.5-33.5-8.888-33.5-8.888Z" transform="translate(-5714.51 6497.474)" fill="#313440"/>
      <path id="Trazado_1015692" data-name="Trazado 1015692" d="M607.834,529.756a17.761,17.761,0,0,1,8.769,11.477c.788,2.68.361,7.461.035,10.082a4.509,4.509,0,0,0,.824,3.233c1.111,1.512,2.04,2.5,1.894,3.956-.225,2.25-3.2,4.219-3.2,4.219s-.45,9.564-6.071,11.364-18.437-3.6-18.437-3.6l-4.722-27.9Z" transform="translate(-5736.751 6477.22)" fill="#f0b48f"/>
      <path id="Trazado_1015693" data-name="Trazado 1015693" d="M677.392,600.934c.1-1.245-.22-2.288-.725-2.331s-1,.932-1.1,2.177.22,2.288.724,2.331,1-.932,1.1-2.177" transform="translate(-5800.896 6427.389)" fill="#313440"/>
      <path id="Trazado_1015694" data-name="Trazado 1015694" d="M670.457,587.094a.739.739,0,0,1-.529-.035,5.349,5.349,0,0,0-4.463.447.741.741,0,0,1-.681-1.317,6.792,6.792,0,0,1,5.767-.475.742.742,0,0,1-.1,1.38" transform="translate(-5792.816 6437.022)" fill="#313440"/>
      <path id="Trazado_1015695" data-name="Trazado 1015695" d="M487.22,514.316a10.32,10.32,0,0,1-2.586,9.789c-4.272,4.275-6.793,9.557-7.918,11.358s-4.569,2.569-4.231,5.494,7.652,14.652,10.013,23.766,3.373,18.9-3.372,28.354-10.792.675-19.9,7.089-11.467,20.927-25.632,13.5-6.408-20.253-13.153-24.641-12.478-15.527-3.035-23.966,22.933-12.827,22.933-21.94-6.745-25.991,11.8-37.8l32.714,6.245Z" transform="translate(-5610.46 6494.91)" fill="#313440"/>
      <path id="Trazado_1015696" data-name="Trazado 1015696" d="M677.936,655.332c-1,0-2.429-.455-3.471-2.687a.337.337,0,1,1,.611-.285c1.461,3.124,3.651,2.182,3.743,2.142a.339.339,0,0,1,.445.168.336.336,0,0,1-.165.445,3.05,3.05,0,0,1-1.163.216" transform="translate(-5800.091 6388.621)" fill="#313440"/>
      <path id="Trazado_1015697" data-name="Trazado 1015697" d="M412.647,610.953c-.013-.063-1.379-6.339-5.615-9.765a29.551,29.551,0,0,0-2.594-1.829c-3.155-2.052-5.879-3.822-7.643-13.053-2.471-12.94,13.239-20.508,20.108-23.163,7.781-3.006,7.842-7.851,7.926-14.558.017-1.4.036-2.845.121-4.385.525-9.462,1.615-16.761,10.913-24.543l.432.517c-9.088,7.608-10.156,14.773-10.672,24.063-.084,1.527-.1,2.965-.12,4.358-.084,6.709-.151,12.008-8.358,15.179-6.711,2.592-22.065,9.965-19.688,22.405,1.709,8.947,4.2,10.565,7.348,12.614a30.073,30.073,0,0,1,2.651,1.87c4.426,3.578,5.8,9.884,5.851,10.15Z" transform="translate(-5598.947 6484.529)" fill="#313440"/>
      <path id="Trazado_1015698" data-name="Trazado 1015698" d="M617.271,601.177s-2.85-5.65-6.8-5.5-6.849,7.644-3.512,10.342,8.856,1.165,8.856,1.165Z" transform="translate(-5750.199 6429.51)" fill="#f0b48f"/>
      <path id="Trazado_1015699" data-name="Trazado 1015699" d="M613.56,611.471a.165.165,0,0,1-.042-.027,3.906,3.906,0,0,1,1.642-6.316c1.008-.2,2.149.241,3.942,1.52a.164.164,0,0,1-.19.267c-1.688-1.206-2.79-1.644-3.688-1.466a3.165,3.165,0,0,0-1.946,1.656,3.11,3.11,0,0,0,.454,4.093.163.163,0,0,1-.172.273" transform="translate(-5755.182 6422.699)" fill="#313440"/>
      <path id="Trazado_1015700" data-name="Trazado 1015700" d="M1094.75,888.987a3.218,3.218,0,1,1-3.218-3.221,3.219,3.219,0,0,1,3.218,3.221" transform="translate(-6099.658 6219.541)" fill="#535b7d"/>
      <path id="Trazado_1015701" data-name="Trazado 1015701" d="M1173.347,790.346a3.218,3.218,0,1,1-3.218-3.221,3.219,3.219,0,0,1,3.218,3.221" transform="translate(-6156.545 6290.937)" fill="#535b7d"/>
      <path id="Trazado_1015702" data-name="Trazado 1015702" d="M1266.628,1141.564c.706-3.8,1.359-7.6,1.992-11.344l.609-3.578a37.923,37.923,0,0,1,2.749-10.147c2.218-4.6,6.2-8.151,9.713-11.288a.408.408,0,0,1,.543.608c-3.458,3.087-7.377,6.585-9.525,11.036a37.312,37.312,0,0,0-2.681,9.929l-.608,3.577c-.61,3.6-1.237,7.259-1.913,10.923a3.916,3.916,0,0,0-.88.284" transform="translate(-6228.72 6060.785)" fill="#8fa159"/>
      <path id="Trazado_1015703" data-name="Trazado 1015703" d="M1325.352,1081.93a7.555,7.555,0,0,0-1.564-1.992,3,3,0,0,0-2.477-.964,3.631,3.631,0,0,0-1.39.745,7.79,7.79,0,0,0-2.048,1.949,7.058,7.058,0,0,0-.642,1.423,5.607,5.607,0,0,0-.374,3.623,1.725,1.725,0,0,0,.91,1.09,2.382,2.382,0,0,0,1.052.085,6.565,6.565,0,0,0,3.527-.929,6.092,6.092,0,0,0,1.081-1.116q.924-1.145,1.777-2.344a1.614,1.614,0,0,0,.374-.829,1.473,1.473,0,0,0-.227-.742" transform="translate(-6264.951 6079.723)" fill="#8fa159"/>
      <path id="Trazado_1015704" data-name="Trazado 1015704" d="M1288.5,1101.382a2.567,2.567,0,0,0,.542-2.99l-.51-1.484a4.422,4.422,0,0,0-1.141-2.039,2.785,2.785,0,0,0-3.719.5,4.044,4.044,0,0,0-.7,3.834,5.645,5.645,0,0,0,2.558,3.055,2.213,2.213,0,0,0,1.386.394,2.623,2.623,0,0,0,1.586-1.275" transform="translate(-6240.406 6068.56)" fill="#8fa159"/>
      <path id="Trazado_1015705" data-name="Trazado 1015705" d="M1270.05,1126.838a2.342,2.342,0,0,0-.989-2.592l-1.1-.918a4.032,4.032,0,0,0-1.854-1.052,2.544,2.544,0,0,0-2.665,2.154,3.69,3.69,0,0,0,1.262,3.327,5.149,5.149,0,0,0,3.44,1.176,2.023,2.023,0,0,0,1.269-.349,2.4,2.4,0,0,0,.636-1.746" transform="translate(-6226.38 6048.371)" fill="#8fa159"/>
      <path id="Trazado_1015706" data-name="Trazado 1015706" d="M1260.46,1153.858a2.342,2.342,0,0,0-.354-2.751l-.853-1.15a4.037,4.037,0,0,0-1.555-1.458,2.544,2.544,0,0,0-3.1,1.469,3.692,3.692,0,0,0,.448,3.53,5.153,5.153,0,0,0,3.069,1.95,2.022,2.022,0,0,0,1.315-.041,2.4,2.4,0,0,0,1.027-1.548" transform="translate(-6219.823 6029.48)" fill="#8fa159"/>
      <path id="Trazado_1015707" data-name="Trazado 1015707" d="M1312.716,1124.928l-.527,1.788a1.892,1.892,0,0,1-.844,1.306,1.717,1.717,0,0,1-1.1-.007,10.248,10.248,0,0,1-4.649-2.594,1.2,1.2,0,0,1-.367-.531c-.088-.343.119-.688.162-1.04a5.951,5.951,0,0,1,.035-.907,1.425,1.425,0,0,1,.672-.751,5.231,5.231,0,0,1,6.133.534,1.964,1.964,0,0,1,.624.9,2.434,2.434,0,0,1-.135,1.3" transform="translate(-6256.642 6048.959)" fill="#8fa159"/>
      <path id="Trazado_1015708" data-name="Trazado 1015708" d="M1295.728,1145.355l-.417,1.413a1.5,1.5,0,0,1-.667,1.033,1.357,1.357,0,0,1-.872-.006,8.1,8.1,0,0,1-3.674-2.05.947.947,0,0,1-.29-.42c-.069-.271.094-.544.127-.822a4.75,4.75,0,0,1,.028-.717,1.129,1.129,0,0,1,.531-.594,4.134,4.134,0,0,1,4.847.422,1.55,1.55,0,0,1,.493.709,1.924,1.924,0,0,1-.107,1.03" transform="translate(-6245.486 6033.645)" fill="#8fa159"/>
      <path id="Trazado_1015709" data-name="Trazado 1015709" d="M1289.383,1166.211l.159,1.464a1.5,1.5,0,0,1-.219,1.21,1.361,1.361,0,0,1-.807.331,8.1,8.1,0,0,1-4.179-.476.949.949,0,0,1-.429-.276c-.168-.224-.122-.538-.2-.808a4.706,4.706,0,0,1-.25-.672,1.125,1.125,0,0,1,.262-.752,4.135,4.135,0,0,1,4.635-1.479,1.552,1.552,0,0,1,.728.464,1.925,1.925,0,0,1,.3.993" transform="translate(-6240.9 6017.766)" fill="#8fa159"/>
      <path id="Trazado_1015710" data-name="Trazado 1015710" d="M1253.911,1184.18a1.459,1.459,0,0,0,1.091-.623,2.411,2.411,0,0,0,.249-2.122,5.891,5.891,0,0,0-1.132-1.89q-.581-.716-1.219-1.382a3.615,3.615,0,0,0-1.458-1.051,2.321,2.321,0,0,0-2.6,1.166,3.285,3.285,0,0,0,.042,2.97,5.727,5.727,0,0,0,2.107,2.2,3.522,3.522,0,0,0,1.193.536c.332.066.674.053,1.009.1a4.107,4.107,0,0,0,.716.092" transform="translate(-6215.604 6008.725)" fill="#8fa159"/>
      <path id="Trazado_1015711" data-name="Trazado 1015711" d="M1279.11,1191.43a3.169,3.169,0,0,1,.456-.806c.774-1.1,1.753-2.283,3.093-2.341a2.288,2.288,0,0,1,1.833.816.7.7,0,0,1,.17.321.776.776,0,0,1-.1.449,11.461,11.461,0,0,1-1.637,2.342,4.262,4.262,0,0,1-2.331,1.732,1.26,1.26,0,0,1-1.381-.577,1.718,1.718,0,0,1-.11-.454,3.216,3.216,0,0,1,.012-1.482" transform="translate(-6237.687 6000.58)" fill="#8fa159"/>
      <path id="Trazado_1015712" data-name="Trazado 1015712" d="M1253.392,1211.32a4.081,4.081,0,0,0-.634-.9c-.733-.961-.95-2.324-1.931-3.031a2.118,2.118,0,0,0-2.344-.068,1.97,1.97,0,0,0-.782,2.186,3.716,3.716,0,0,0,1.275,1.558l1.154.974a5.053,5.053,0,0,0,1.236.848,1.705,1.705,0,0,0,1.454.006,1.305,1.305,0,0,0,.572-1.578" transform="translate(-6214.959 5987.028)" fill="#8fa159"/>
      <path id="Trazado_1015713" data-name="Trazado 1015713" d="M1278.139,1214.485a2.172,2.172,0,0,1,1.794-.33,1.717,1.717,0,0,1,.742,1.9,2.909,2.909,0,0,1-.433,1.159c-.745,1.114-2.237,1.383-3.564,1.554a1.826,1.826,0,0,1-.553.015,1.115,1.115,0,0,1-.83-.827,1.824,1.824,0,0,1,.147-1.2,5.435,5.435,0,0,1,2.7-2.262" transform="translate(-6234.958 5981.923)" fill="#8fa159"/>
      <rect id="Rectángulo_410026" data-name="Rectángulo 410026" width="72.645" height="48.075" transform="translate(-5250.417 6988.979)" fill="#f5e6dc"/>
      <rect id="Rectángulo_410027" data-name="Rectángulo 410027" width="72.645" height="3.11" transform="translate(-5250.417 6988.94)" fill="#535b7d"/>
      <path id="Trazado_1015714" data-name="Trazado 1015714" d="M229.321,467.9a.777.777,0,1,0-.777.778.778.778,0,0,0,.777-.778" transform="translate(-5476.793 6522.558)" fill="#f05923"/>
      <path id="Trazado_1015715" data-name="Trazado 1015715" d="M238.7,467.9a.778.778,0,1,0-.778.778.778.778,0,0,0,.778-.778" transform="translate(-5483.585 6522.558)" fill="#33bac1"/>
      <path id="Trazado_1015716" data-name="Trazado 1015716" d="M248.557,467.9a.778.778,0,1,0-.778.778.778.778,0,0,0,.778-.778" transform="translate(-5490.717 6522.558)" fill="#fcb036"/>
      <path id="Trazado_1015717" data-name="Trazado 1015717" d="M317.8,504.95a18.192,18.192,0,1,0-18.192,18.207A18.2,18.2,0,0,0,317.8,504.95" transform="translate(-5515.626 6508.353)" fill="#33bac1"/>
      <path id="Trazado_1015718" data-name="Trazado 1015718" d="M222.327,509.391v35.7h32.295" transform="translate(-5472.857 6491.959)" fill="none" stroke="#313440" stroke-miterlimit="10" stroke-width="1.355"/>
      <path id="Trazado_1015719" data-name="Trazado 1015719" d="M453.424,578.518h8.928V555.512" transform="translate(-5640.125 6458.578)" fill="none" stroke="#313440" stroke-miterlimit="10" stroke-width="1.355"/>
      <path id="Trazado_1015720" data-name="Trazado 1015720" d="M311.808,530.741a14.147,14.147,0,1,1,14.135-14.147,14.157,14.157,0,0,1-14.135,14.147m0-27.453A13.306,13.306,0,1,0,325.1,516.594a13.316,13.316,0,0,0-13.294-13.306" transform="translate(-5527.393 6496.986)" fill="#fff"/>
      <path id="Trazado_1015721" data-name="Trazado 1015721" d="M324.064,530.741c-5.215,0-9.459-6.346-9.459-14.147s4.243-14.147,9.459-14.147,9.459,6.347,9.459,14.147-4.243,14.147-9.459,14.147m0-27.453c-4.752,0-8.618,5.969-8.618,13.306s3.865,13.305,8.618,13.305,8.618-5.969,8.618-13.305-3.865-13.306-8.618-13.306" transform="translate(-5539.647 6496.986)" fill="#fff"/>
      <path id="Trazado_1015722" data-name="Trazado 1015722" d="M340.072,530.741c-2.457,0-3.35-8.461-3.35-14.147s.892-14.147,3.35-14.147,3.35,8.461,3.35,14.147-.892,14.147-3.35,14.147m0-27.453c-1.023,0-2.509,5.184-2.509,13.306s1.486,13.305,2.509,13.305,2.509-5.184,2.509-13.305-1.486-13.306-2.509-13.306" transform="translate(-5555.656 6496.986)" fill="#fff"/>
      <rect id="Rectángulo_410028" data-name="Rectángulo 410028" width="27.799" height="0.841" transform="translate(-5229.299 7013.16)" fill="#fff"/>
      <path id="Trazado_1015723" data-name="Trazado 1015723" d="M322.03,522.139a32.769,32.769,0,0,1-10.766-1.791l.307-.784c.1.039,10.133,3.887,20.153,0l.3.784a27.589,27.589,0,0,1-10,1.791" transform="translate(-5537.229 6484.597)" fill="#fff"/>
      <path id="Trazado_1015724" data-name="Trazado 1015724" d="M331.724,580.922c-10.019-3.887-20.053-.039-20.153,0l-.307-.784c.1-.039,10.431-4.009,20.764,0Z" transform="translate(-5537.229 6442.049)" fill="#fff"/>
      <path id="Trazado_1015725" data-name="Trazado 1015725" d="M562.829,337.892a3.8,3.8,0,1,1-3.8-3.8,3.8,3.8,0,0,1,3.8,3.8" transform="translate(-5713.81 6618.844)" fill="#535b7d"/>
      <path id="Trazado_1015726" data-name="Trazado 1015726" d="M442.639,338.318a3.8,3.8,0,1,1-3.8-3.8,3.8,3.8,0,0,1,3.8,3.8" transform="translate(-5626.816 6618.536)" fill="#535b7d"/>
      <path id="Trazado_1015727" data-name="Trazado 1015727" d="M442.639,410.57a3.8,3.8,0,1,1-3.8-3.8,3.8,3.8,0,0,1,3.8,3.8" transform="translate(-5626.816 6566.24)" fill="#535b7d"/>
      <path id="Trazado_1015728" data-name="Trazado 1015728" d="M1173.836,884.586a3.218,3.218,0,1,1-3.218-3.221,3.219,3.219,0,0,1,3.218,3.221" transform="translate(-6156.899 6222.726)" fill="#535b7d"/>
      <path id="Trazado_1015729" data-name="Trazado 1015729" d="M253.6,720.05a.448.448,0,0,1-.108-.013l-3.6-.861a.465.465,0,0,1-.356-.455l.033-4.162a12.787,12.787,0,0,1-2.742-2.3l-3.37,1.169a.472.472,0,0,1-.556-.21l-1.867-3.3a.463.463,0,0,1,.083-.562l2.752-2.654a13.508,13.508,0,0,1-.423-3.92l-2.969-1.445a.464.464,0,0,1-.249-.52l.846-3.724a.413.413,0,0,1,.457-.361l3.6.045a12.674,12.674,0,0,1,2.353-3.015l0,0-.937-3.369a.466.466,0,0,1,.218-.529l3.238-1.837a.466.466,0,0,1,.586.109l2.229,2.7a12.063,12.063,0,0,1,3.646-.364l1.82-3.285a.465.465,0,0,1,.548-.218l3.523,1.139a.465.465,0,0,1,.32.484l-.341,3.729a12.781,12.781,0,0,1,2.889,2.449l3.489-1.108a.468.468,0,0,1,.547.219L271.1,697.2a.465.465,0,0,1-.093.566l-2.865,2.623a13.591,13.591,0,0,1,.383,3.537l3.2,1.833a.464.464,0,0,1,.217.529l-1.036,3.671a.444.444,0,0,1-.484.335l-3.55-.282A12.716,12.716,0,0,1,264.6,713l1.135,3.434a.464.464,0,0,1-.2.54l-3.168,1.96a.47.47,0,0,1-.586-.082l-2.568-2.815a11.848,11.848,0,0,1-3.693.39l-1.5,3.349a.466.466,0,0,1-.423.274m-3.129-1.692,2.863.687,1.474-3.29a.445.445,0,0,1,.458-.272,11.43,11.43,0,0,0,3.971-.415.457.457,0,0,1,.471.132l2.5,2.743,2.53-1.564L263.626,713a.466.466,0,0,1,.13-.491,11.726,11.726,0,0,0,2.438-3.2.432.432,0,0,1,.448-.247l3.472.277.833-2.955-3.132-1.791a.462.462,0,0,1-.233-.424,12.644,12.644,0,0,0-.413-3.816.463.463,0,0,1,.135-.46l2.8-2.565-1.464-2.674-3.429,1.088a.464.464,0,0,1-.5-.143l-.177-.223a11.816,11.816,0,0,0-2.917-2.417.467.467,0,0,1-.227-.442l.333-3.648-2.807-.908-1.777,3.209a.457.457,0,0,1-.441.238,11.291,11.291,0,0,0-3.916.391.451.451,0,0,1-.484-.15l-2.171-2.629-2.584,1.465.921,3.3a.467.467,0,0,1-.137.472l-.208.176a11.77,11.77,0,0,0-2.307,3.024.464.464,0,0,1-.409.245h-.005l-3.508-.044-.681,3,2.914,1.418a.462.462,0,0,1,.26.446,12.574,12.574,0,0,0,.447,4.191.463.463,0,0,1-.125.459l-2.69,2.6,1.5,2.649,3.307-1.146a.465.465,0,0,1,.507.139l-.278.4.352-.3a11.869,11.869,0,0,0,2.867,2.391.467.467,0,0,1,.226.4Zm5.714-5.8a8.864,8.864,0,0,1-6.654-3.068,9.39,9.39,0,0,1,.509-12.916,8.5,8.5,0,0,1,5.836-2.319,8.86,8.86,0,0,1,6.654,3.066,9.393,9.393,0,0,1-.509,12.917,8.5,8.5,0,0,1-5.836,2.319m-.309-17.374a7.578,7.578,0,0,0-5.2,2.068,8.451,8.451,0,0,0-.445,11.625,7.934,7.934,0,0,0,5.957,2.752,7.576,7.576,0,0,0,5.2-2.069,8.455,8.455,0,0,0,.445-11.627,7.939,7.939,0,0,0-5.957-2.75" transform="translate(-5485.81 6363.451)" fill="#d1beb4"/>
      <path id="Trazado_1015730" data-name="Trazado 1015730" d="M739.967,1113.83h-9.246a.322.322,0,0,1-.322-.322v-9.254a.322.322,0,0,1,.322-.322h9.246a.322.322,0,0,1,.322.322v9.254a.322.322,0,0,1-.322.322m-8.925-.644h8.6v-8.61h-8.6Z" transform="translate(-5840.599 6061.632)" fill="#baa9a0"/>
      <path id="Trazado_1015731" data-name="Trazado 1015731" d="M738.4,1115.507a.321.321,0,0,1-.234-.1l-2.529-2.69a.322.322,0,0,1,.468-.441l2.268,2.412,4.116-5.469a.322.322,0,1,1,.514.387l-4.346,5.774a.32.32,0,0,1-.239.128Z" transform="translate(-5844.327 6057.9)" fill="#baa9a0"/>
      <path id="Trazado_1015732" data-name="Trazado 1015732" d="M1263.7,948.922a.4.4,0,0,1-.179-.043l-3.834-2.019-3.835,2.019a.386.386,0,0,1-.4-.03.38.38,0,0,1-.152-.373l.731-4.275-3.1-3.028a.38.38,0,0,1,.212-.651l4.288-.624,1.917-3.889a.4.4,0,0,1,.686,0l1.917,3.889,4.288.624a.38.38,0,0,1,.212.651l-3.1,3.028.731,4.275a.38.38,0,0,1-.152.373.368.368,0,0,1-.224.073m-4.014-2.875a.4.4,0,0,1,.179.043l3.328,1.752-.635-3.709a.374.374,0,0,1,.11-.337l2.693-2.628-3.722-.542a.383.383,0,0,1-.289-.209l-1.664-3.375-1.664,3.375a.383.383,0,0,1-.289.209l-3.722.542,2.693,2.628a.376.376,0,0,1,.111.337l-.635,3.709,3.328-1.752a.4.4,0,0,1,.179-.043" transform="translate(-6218.718 6183.317)" fill="#d1beb4"/>
      <path id="Trazado_1015733" data-name="Trazado 1015733" d="M333.568,329.85a.4.4,0,0,1-.179-.043l-3.835-2.019-3.835,2.019a.387.387,0,0,1-.4-.03.379.379,0,0,1-.152-.373l.731-4.275-3.1-3.028a.38.38,0,0,1,.212-.65l4.288-.624,1.917-3.889a.4.4,0,0,1,.686,0l1.917,3.889,4.288.624a.38.38,0,0,1,.212.65l-3.1,3.028.731,4.275a.38.38,0,0,1-.152.373.37.37,0,0,1-.224.073m-4.013-2.876a.4.4,0,0,1,.179.043l3.328,1.752-.635-3.71a.373.373,0,0,1,.11-.337l2.693-2.628-3.722-.542a.383.383,0,0,1-.289-.209l-1.664-3.375-1.664,3.375a.383.383,0,0,1-.289.209l-3.722.542,2.693,2.628a.374.374,0,0,1,.111.337l-.635,3.71,3.328-1.752a.4.4,0,0,1,.179-.043" transform="translate(-5545.491 6631.4)" fill="#e6ddd8"/>
      <path id="Trazado_1015734" data-name="Trazado 1015734" d="M1246.737,269.611h-9.229a.321.321,0,0,1-.321-.321v-9.237a.321.321,0,0,1,.321-.322h9.229a.321.321,0,0,1,.321.322v9.237a.321.321,0,0,1-.321.321m-8.908-.642h8.587v-8.595h-8.587Z" transform="translate(-6207.411 6672.664)" fill="#e3d4cc"/>
      <path id="Trazado_1015735" data-name="Trazado 1015735" d="M1245.173,271.284a.321.321,0,0,1-.234-.1l-2.524-2.684a.321.321,0,1,1,.468-.441l2.263,2.407,4.109-5.459a.321.321,0,0,1,.513.387l-4.338,5.763a.32.32,0,0,1-.239.128Z" transform="translate(-6211.131 6668.937)" fill="#e3d4cc"/>
      <line id="Línea_1100" data-name="Línea 1100" x2="42.188" transform="translate(-5124.354 7202.478)" fill="none" stroke="#313440" stroke-linecap="round" stroke-miterlimit="10" stroke-width="5.938"/>
      <line id="Línea_1101" data-name="Línea 1101" x2="122.281" transform="translate(-5253.314 7202.478)" fill="none" stroke="#313440" stroke-linecap="round" stroke-miterlimit="10" stroke-width="5.938"/>
      <line id="Línea_1102" data-name="Línea 1102" x2="125.922" y2="0.281" transform="translate(-5064.236 7202.478)" fill="none" stroke="#313440" stroke-linecap="round" stroke-miterlimit="10" stroke-width="5.938"/>
    </g>
  </g>
</svg>
