<svg xmlns="http://www.w3.org/2000/svg" xmlns:xlink="http://www.w3.org/1999/xlink" width="495" height="314" viewBox="0 0 495 314">
  <defs>
    <clipPath id="clip-path">
      <rect id="Rect치ngulo_410031" data-name="Rect치ngulo 410031" width="495" height="314" transform="translate(914.716 1336.463)" fill="#fff" stroke="#707070" stroke-width="1" opacity="0.66"/>
    </clipPath>
  </defs>
  <g id="Enmascarar_grupo_1098798" data-name="Enmascarar grupo 1098798" transform="translate(-914.716 -1336.463)" clip-path="url(#clip-path)">
    <g id="Grupo_1162646" data-name="Grupo 1162646" transform="translate(890.045 1278.929)">
      <path id="Trazado_1015882" data-name="Trazado 1015882" d="M298.629,31.2c-44.358-54.054-194.3-46.822-276.753,93.477S108.246,411.849,226.045,402.9,420.306,179.478,298.629,31.2" transform="translate(0 326.562) rotate(-65)" fill="#f7ddd5"/>
      <g id="Grupo_1162608" data-name="Grupo 1162608" transform="translate(81.383 73.533)">
        <path id="Trazado_1014943" data-name="Trazado 1014943" d="M4826.438,462.862h155.213a9.847,9.847,0,0,1,9.847,9.846V750.163a9.846,9.846,0,0,1-9.847,9.846H4826.438a9.847,9.847,0,0,1-9.847-9.846V472.708a9.847,9.847,0,0,1,9.847-9.846" transform="translate(-4791.493 -462.862)" fill="#7d86ba"/>
        <path id="Trazado_1014944" data-name="Trazado 1014944" d="M4848.093,486.024h155.095a4.3,4.3,0,0,1,4.3,4.3v277.4a5.044,5.044,0,0,1-5.044,5.044h-153.61a5.044,5.044,0,0,1-5.043-5.044v-277.4a4.3,4.3,0,0,1,4.3-4.3" transform="translate(-4813.087 -481.251)" fill="#fff"/>
        <rect id="Rect치ngulo_409996" data-name="Rect치ngulo 409996" width="101.119" height="18.234" transform="translate(61.993 237.527)" fill="#e2e2ec"/>
        <path id="Trazado_1014945" data-name="Trazado 1014945" d="M5000.693,930.981h58.57l24.756,16.292-55.248,78.747-52.834-78.747Z" transform="translate(-4916.848 -834.524)" fill="#8ed0d4"/>
        <path id="Trazado_1014946" data-name="Trazado 1014946" d="M5124.294,930.981l-16,16.292h51.928l-17.248-16.292h-18.679Z" transform="translate(-5020.321 -834.524)" fill="#fff"/>
        <path id="Trazado_1014947" data-name="Trazado 1014947" d="M5244.069,1010.05,5296.9,1088.8l-23.951-78.746Z" transform="translate(-5184.979 -897.301)" fill="#34b7bf"/>
        <path id="Trazado_1014948" data-name="Trazado 1014948" d="M5031.186,1010.05l-55.249,78.746,27.322-78.746Z" transform="translate(-4864.013 -897.301)" fill="#34b7bf"/>
        <path id="Trazado_1014949" data-name="Trazado 1014949" d="M4985.725,941.963c.651,0,1.309-.01,1.956-.029l-.063-2.123c-1.178.035-2.381.037-3.563.006l-.056,2.123c.573.015,1.152.023,1.726.023m-5.4-.223.175-2.116c-1.18-.1-2.37-.231-3.539-.395l-.3,2.1c1.208.17,2.439.307,3.659.408m11.032-.02c1.219-.106,2.45-.247,3.657-.421l-.3-2.1c-1.168.168-2.359.305-3.537.407Zm-18.322-1,.416-2.083c-1.159-.231-2.327-.5-3.471-.8l-.534,2.055c1.182.307,2.39.584,3.589.823m25.607-.046c1.2-.243,2.4-.525,3.586-.836l-.541-2.053c-1.142.3-2.309.573-3.468.809Zm-32.733-1.806.651-2.021c-1.127-.363-2.258-.764-3.362-1.192l-.768,1.981c1.143.442,2.313.857,3.479,1.232m39.852-.071c1.162-.379,2.329-.8,3.467-1.242l-.773-1.978c-1.1.431-2.229.835-3.352,1.2Zm-46.73-2.591.879-1.933c-1.077-.49-2.155-1.018-3.2-1.569l-.988,1.88c1.083.57,2.2,1.116,3.311,1.622m53.581-.087c1.109-.509,2.219-1.057,3.3-1.628l-1-1.876c-1.043.553-2.116,1.083-3.188,1.575Zm-60.1-3.344,1.095-1.82c-1.013-.609-2.023-1.257-3-1.924l-1.2,1.755c1.011.69,2.055,1.359,3.1,1.989m66.6-.1c1.044-.632,2.084-1.3,3.092-1.994l-1.2-1.751c-.975.668-1.98,1.318-2.99,1.929Zm-72.687-4.051,1.294-1.683c-.937-.72-1.866-1.478-2.762-2.251l-1.388,1.607c.926.8,1.887,1.583,2.856,2.327m78.752-.111c.965-.747,1.923-1.532,2.846-2.334l-1.392-1.6c-.893.775-1.819,1.535-2.753,2.257Zm-84.326-4.7,1.477-1.526c-.85-.822-1.687-1.68-2.488-2.549l-1.561,1.44c.828.9,1.693,1.785,2.572,2.635m89.883-.124c.876-.853,1.739-1.742,2.564-2.642l-1.565-1.435c-.8.871-1.633,1.731-2.481,2.556Zm-94.873-5.287,1.64-1.349c-.75-.913-1.485-1.859-2.182-2.813l-1.714,1.253c.72.986,1.48,1.964,2.256,2.908m99.849-.139c.774-.947,1.531-1.928,2.25-2.917l-1.718-1.249c-.695.957-1.427,1.906-2.176,2.821Zm-104.192-5.8,1.783-1.154c-.642-.992-1.264-2.015-1.847-3.041l-1.846,1.05c.6,1.061,1.246,2.118,1.909,3.144m108.522-.158c.662-1.029,1.3-2.091,1.9-3.156l-1.849-1.044c-.581,1.029-1.2,2.056-1.841,3.052Zm-112.159-6.234,1.9-.943c-.524-1.058-1.024-2.145-1.486-3.229l-1.954.832c.477,1.122.995,2.246,1.537,3.34m115.784-.183c.541-1.1,1.056-2.228,1.531-3.355l-1.957-.826c-.46,1.09-.958,2.181-1.48,3.244ZM4925,899.3l2-.718c-.4-1.112-.772-2.251-1.108-3.384l-2.036.6c.347,1.172.732,2.349,1.146,3.5m121.53-.216c.41-1.151.791-2.33,1.134-3.5l-2.039-.6c-.332,1.135-.7,2.274-1.1,3.388Zm-123.619-6.844,2.067-.484c-.27-1.151-.509-2.324-.712-3.488l-2.092.365c.21,1.2.458,2.418.737,3.608m125.683-.223c.274-1.191.518-2.406.723-3.611l-2.093-.357c-.2,1.165-.434,2.339-.7,3.491Zm-126.948-7.028,2.109-.245c-.135-1.172-.24-2.365-.309-3.547l-2.121.124c.072,1.222.18,2.456.32,3.668m128.187-.228c.136-1.213.239-2.447.306-3.669l-2.12-.117c-.065,1.182-.165,2.376-.3,3.548Zm-128.619-7.12,2.124,0v-.148c0-1.184.033-2.382.1-3.56l-2.12-.119c-.068,1.218-.1,2.456-.1,3.679Zm126.9-.226,2.124,0c0-1.224-.038-2.463-.108-3.681l-2.12.122c.067,1.178.1,2.376.1,3.561m-124.376-7.034c.133-1.175.3-2.361.5-3.525l-2.093-.36c-.207,1.2-.381,2.43-.52,3.645Zm123.967-.075,2.11-.242c-.14-1.215-.315-2.441-.524-3.645l-2.092.362c.2,1.164.372,2.349.506,3.524m-122.761-6.941c.267-1.152.571-2.311.9-3.444l-2.038-.6c-.345,1.172-.659,2.371-.935,3.562Zm121.546-.073,2.069-.482c-.278-1.191-.594-2.389-.939-3.561l-2.037.6c.333,1.133.639,2.291.907,3.443m-119.542-6.757c.4-1.114.833-2.232,1.3-3.323l-1.956-.828c-.478,1.129-.929,2.285-1.34,3.437Zm117.531-.07,2-.716c-.412-1.149-.862-2.3-1.339-3.423l-1.955.83c.461,1.086.9,2.2,1.294,3.309m-114.751-6.5c.522-1.061,1.083-2.121,1.667-3.151l-1.848-1.047c-.6,1.065-1.184,2.162-1.725,3.259Zm111.975-.045,1.9-.94c-.541-1.094-1.121-2.187-1.723-3.25l-1.848,1.048c.583,1.027,1.144,2.084,1.667,3.142m-108.462-6.156c.641-.994,1.319-1.983,2.016-2.939l-1.716-1.251c-.721.989-1.421,2.011-2.084,3.039Zm104.953-.029,1.784-1.151c-.662-1.026-1.362-2.046-2.083-3.034l-1.715,1.251c.7.955,1.374,1.942,2.014,2.934m-100.758-5.729c.75-.914,1.535-1.819,2.335-2.69l-1.563-1.437c-.828.9-1.641,1.836-2.415,2.781Zm96.564-.02,1.643-1.347c-.774-.944-1.587-1.879-2.415-2.779l-1.563,1.438c.8.87,1.586,1.775,2.335,2.688m-91.745-5.222c.849-.824,1.731-1.634,2.624-2.407l-1.39-1.605c-.923.8-1.836,1.637-2.714,2.489Zm86.925-.017,1.479-1.524c-.878-.851-1.792-1.688-2.716-2.488l-1.39,1.606c.894.774,1.778,1.584,2.626,2.407m-81.545-4.644c.936-.722,1.9-1.426,2.879-2.093l-1.2-1.752c-1.008.69-2.009,1.418-2.977,2.164Zm76.16-.017,1.3-1.682c-.969-.747-1.972-1.475-2.981-2.165l-1.2,1.753c.976.667,1.946,1.372,2.883,2.094m-70.288-4c1.011-.611,2.053-1.2,3.1-1.751l-.992-1.878c-1.079.57-2.156,1.179-3.2,1.811Zm64.406-.02,1.1-1.819c-1.049-.632-2.129-1.242-3.21-1.813l-.991,1.878c1.046.552,2.091,1.141,3.1,1.753m-58.121-3.3c1.073-.491,2.174-.957,3.273-1.385l-.771-1.979c-1.137.443-2.275.925-3.385,1.432Zm51.816-.024.881-1.932c-1.114-.508-2.258-.991-3.4-1.434l-.769,1.979c1.1.429,2.209.9,3.287,1.387m-45.189-2.559c1.124-.365,2.273-.7,3.416-1l-.539-2.054c-1.182.31-2.371.659-3.534,1.037Zm38.541-.023.654-2.021c-1.164-.376-2.353-.724-3.536-1.032l-.537,2.055c1.144.3,2.294.634,3.418,1m-31.657-1.783c1.158-.234,2.339-.437,3.509-.6l-.3-2.1c-1.21.173-2.431.383-3.629.625Zm24.77-.015.417-2.082c-1.2-.24-2.419-.449-3.629-.621l-.3,2.1c1.171.166,2.352.368,3.511.6m-17.724-.993c1.176-.1,2.373-.168,3.556-.2l-.061-2.123c-1.223.035-2.46.105-3.676.209Zm10.675-.006.177-2.116c-1.215-.1-2.451-.171-3.675-.2l-.058,2.123c1.184.033,2.38.1,3.556.2" transform="translate(-4871.788 -740.89)" fill="#313440"/>
        <path id="Trazado_1014950" data-name="Trazado 1014950" d="M5101.231,626.253a27.419,27.419,0,0,1,54.839,0c0,15.153-26.793,51.853-27.419,51.853-1.074,0-27.42-36.7-27.42-51.853" transform="translate(-5014.714 -570.83)" fill="#f05a25"/>
        <path id="Trazado_1014951" data-name="Trazado 1014951" d="M5161.569,642.457a18.864,18.864,0,1,0,18.876,18.864,18.87,18.87,0,0,0-18.876-18.864" transform="translate(-5047.633 -605.451)" fill="#fff"/>
        <path id="Trazado_1014952" data-name="Trazado 1014952" d="M5413.917,1222.6a21.483,21.483,0,1,0,21.483-21.47,21.476,21.476,0,0,0-21.483,21.47" transform="translate(-5379.958 -1049.013)" fill="#34b7bf"/>
        <path id="Trazado_1014953" data-name="Trazado 1014953" d="M5456.255,1318.177h25.52s-3.89-13.063-12.915-13.063-12.6,13.063-12.6,13.063" transform="translate(-5413.574 -1131.566)" fill="#fff"/>
        <path id="Trazado_1014954" data-name="Trazado 1014954" d="M5485.456,1235.558a6.925,6.925,0,1,1,6.925,6.92,6.923,6.923,0,0,1-6.925-6.92" transform="translate(-5437.12 -1070.849)" fill="#fff"/>
        <path id="Trazado_1014955" data-name="Trazado 1014955" d="M4859.586,1222.6a21.484,21.484,0,1,0,21.484-21.47,21.477,21.477,0,0,0-21.484,21.47" transform="translate(-4711.406 -1049.013)" fill="#34b7bf"/>
        <path id="Trazado_1014956" data-name="Trazado 1014956" d="M4901.924,1318.177h25.52s-3.89-13.063-12.916-13.063-12.6,13.063-12.6,13.063" transform="translate(-4745.021 -1131.566)" fill="#fff"/>
        <path id="Trazado_1014957" data-name="Trazado 1014957" d="M4931.125,1235.558a6.925,6.925,0,1,1,6.924,6.92,6.922,6.922,0,0,1-6.924-6.92" transform="translate(-4768.568 -1070.849)" fill="#fff"/>
        <path id="Trazado_1014958" data-name="Trazado 1014958" d="M4712.144,925.861l.821-.653c-3.922-4.931-1.664-14.666.328-23.254,1.219-5.25,2.27-9.784,1.871-12.814l-1.041.137c.375,2.841-.708,7.5-1.853,12.44-2.045,8.82-4.364,18.816-.127,24.144" transform="translate(-4493.232 -801.305)" fill="#313440"/>
        <path id="Trazado_1014959" data-name="Trazado 1014959" d="M4360.254,687.339c14.1,1.253,19.428,11.274,23.5,23.487s-1.253,36.953,11.281,38.205c13.99,1.4,7.05,20.825,7.05,20.825l-35.252,4.228-38.387-6.42s-4.387-8.142-3.447-15.344-2.664-36.326-2.037-45.095,5.327-12.056,5.327-12.056Z" transform="translate(-4102.076 -641.085)" fill="#313440"/>
        <path id="Trazado_1014960" data-name="Trazado 1014960" d="M4073.908,1149.369l14.624-11.416-14.615,11.427,14.615-11.427,14.615-11.427c6.833,8.727,25.885,34.726,30.721,58.658h-38.517c-4.049-9.993-12.329-24.138-21.442-35.815" transform="translate(-3780.832 -989.777)" fill="#f0b48f"/>
        <path id="Trazado_1014961" data-name="Trazado 1014961" d="M4159.368,1238.631l2.03,3.622s-14.208,6.954-28.995,6.375,6.523-12.025,6.523-12.025l9.569-1.883Z" transform="translate(-3819.338 -1075.676)" fill="#313440"/>
        <path id="Trazado_1014962" data-name="Trazado 1014962" d="M4725.174,1332.495l15.229-33.82a12.6,12.6,0,0,1,6.634,6.413c-1.984-6.239.149-32.222,4.564-55.6l-36.467-6.891c-.131.691-3.223,17.121-4.879,34.5-2.67,28.025-1.157,48.168,14.917,55.4" transform="translate(-4529.469 -1081.929)" fill="#f0b48f"/>
        <path id="Trazado_1014963" data-name="Trazado 1014963" d="M4786.674,1269.639l12.758,4.443s2.126,10.238-2.126,9.079-17.2-9.272-17.2-9.272Z" transform="translate(-4592.439 -1103.402)" fill="#313440"/>
        <path id="Trazado_1014964" data-name="Trazado 1014964" d="M4135.637,1713.351c-.573-10.5-.938-18.07-.938-20.34a102.714,102.714,0,0,1,2.9-22.022l109.6-6.664s0,12.749,8.118,27.817c1.683,3.122,5.386,10.882,10.194,21.209Z" transform="translate(-3924.999 -1416.762)" fill="#34b7bf"/>
        <path id="Trazado_1014965" data-name="Trazado 1014965" d="M4274.692,1712.887l4.64,9.562s-29.575-4.057-44.072-1.159-22.326,4.347-40.3,2.029,34.5-14.778,34.5-14.778l42.042-2.028Z" transform="translate(-3950.464 -1450.256)" fill="#313440"/>
        <path id="Trazado_1014966" data-name="Trazado 1014966" d="M4680.117,1733.514a.279.279,0,0,0,.085-.014c.219-.066,21.93-7.095,16.728-37.992a.289.289,0,0,0-.571.095c5.117,30.4-16.111,37.279-16.327,37.345a.289.289,0,0,0,.085.566" transform="translate(-4469.547 -1441.327)" fill="#313440"/>
        <path id="Trazado_1014967" data-name="Trazado 1014967" d="M4205.57,1704.117a25.324,25.324,0,0,0,4.309-.317.291.291,0,0,0,.229-.342.294.294,0,0,0-.34-.229,32.121,32.121,0,0,1-15.889-1.807c-7.8-2.954-18.15-10.533-23.208-29.854a.286.286,0,0,0-.354-.208.29.29,0,0,0-.208.353c5.124,19.579,15.657,27.262,23.591,30.261a33.856,33.856,0,0,0,11.87,2.142" transform="translate(-3876.897 -1422.34)" fill="#313440"/>
        <path id="Trazado_1014968" data-name="Trazado 1014968" d="M4495.091,1717.756l-11.263-47.272-7.814.539,11.474,44.145,6.214,2.588H4492.2l-5.064-2.108-.133-.054-11.635-44.763-.087-.337,8.756-.6.246-.016,11.408,47.883Z" transform="translate(-4225.354 -1421.167)" fill="#313440"/>
        <path id="Trazado_1014969" data-name="Trazado 1014969" d="M4103.553,1031.493c17.976-.289,22.325,9.852,34.5,25.5s18.846,20.863,18.846,20.863-8.988-1.739-15.656,2.608-26.386,10.141-26.386,10.141-16.527-31.294-16.527-32.453,5.219-26.658,5.219-26.658" transform="translate(-3808.898 -914.321)" fill="#fff"/>
        <path id="Trazado_1014970" data-name="Trazado 1014970" d="M4731.936,1053.079c-7.925.966-10.437,7.341-18.943,22.6s-15.657,20.283-15.657,20.283-1.16,3.863,13.144,7.727,16.624-.773,23.969,9.272l7.732-34.191.773-17Z" transform="translate(-4518.371 -931.464)" fill="#fff"/>
        <path id="Trazado_1014971" data-name="Trazado 1014971" d="M4207.108,1033.282l-18.364,1.932s-4.445,122.471-8.795,144.782c0,0,14.207,6.085,37.4,8.113s37.4-9.562,60.309-10.431,28.7,2.9,28.7,2.9-11.6-35.64-22.616-84.609-13.917-65.2-13.917-65.2l-23.1-.193-16.237,8.693Z" transform="translate(-3975.179 -913.599)" fill="#fcb033"/>
        <path id="Trazado_1014972" data-name="Trazado 1014972" d="M4473.145,1023.532c.2-.057,6.29-1.6,6.479-1.678,9.791,4.519,12.076,3.721,20.219-2.194a8.6,8.6,0,0,0,2.934,1.132l6.2,1.118a102.854,102.854,0,0,1-22.422,23.76c-12.758-11.59-17.2-21.056-17.2-21.056Z" transform="translate(-4237.426 -904.931)" fill="#fff"/>
        <path id="Trazado_1014973" data-name="Trazado 1014973" d="M4431.267,1331.01c1.15-.854,2.273-1.76,3.357-2.676,2.625-2.218,5.017-4.677,4.736-7.631a9.78,9.78,0,0,0-2.038-4.392,10.669,10.669,0,0,1-2.128-4.541c-.269-2.214.819-4.265,1.871-6.248,1.114-2.1,2.165-4.081,1.7-6.2a9.3,9.3,0,0,0-2.378-3.876,10.656,10.656,0,0,1-2.445-3.853c-.75-2.639.573-5.141,1.852-7.558,1.092-2.067,2.223-4.2,2.064-6.413-.134-1.865-1.131-3.461-2.186-5.15a14.209,14.209,0,0,1-2.208-4.743c-.635-3.364,1.173-6.433,2.922-9.406,1.613-2.737,3.28-5.566,2.995-8.586a15.265,15.265,0,0,0-2.048-5.444c-1.185-2.248-2.409-4.575-1.977-7.113a11.5,11.5,0,0,1,2.684-4.949,14.28,14.28,0,0,0,2.368-3.812,8.815,8.815,0,0,0-1.522-7.916,21.861,21.861,0,0,0-6.469-5.489l-.353-.217.325-.256a17.8,17.8,0,0,1,18.031-2.18,4.05,4.05,0,0,1,2.06,1.661,4.541,4.541,0,0,1-.181,3.549c-1.979,5.861-3.737,11.6-3.529,17.444.233,6.572,3.264,12.322,7.912,15.009.214.124.434.245.655.365a6.516,6.516,0,0,1,2.772,2.246c.83,1.446.479,3.21.086,4.751-.207.81-.423,1.621-.639,2.432a56.33,56.33,0,0,0-2.079,10.359c-.351,4.908.8,9.241,3.226,12.2.277.337.574.663.871.987a10.653,10.653,0,0,1,1.944,2.628c1.441,3.117-.277,6.664-1.934,9.406l-.487.8a28.5,28.5,0,0,0-3.6,7.452c-.667,2.581-.576,6.162,1.68,8.473a13.762,13.762,0,0,0,5.021,2.789c2.165.84,4.4,1.707,5.75,3.635a7.977,7.977,0,0,1,.864,6.459c-.211.061-.418.124-.628.185a7.618,7.618,0,0,0-.712-6.313c-1.248-1.781-3.3-2.581-5.484-3.425a14.184,14.184,0,0,1-5.226-2.927c-2.424-2.483-2.534-6.288-1.827-9.021a28.909,28.909,0,0,1,3.668-7.609l.486-.8c1.583-2.621,3.23-5.994,1.905-8.863a10.1,10.1,0,0,0-1.848-2.481c-.3-.333-.607-.666-.892-1.012-2.525-3.074-3.717-7.554-3.354-12.609a56.74,56.74,0,0,1,2.1-10.468c.215-.808.43-1.616.637-2.427.366-1.428.694-3.061-.027-4.317a6.1,6.1,0,0,0-2.547-2.026c-.225-.125-.448-.247-.667-.371-4.818-2.787-7.961-8.722-8.2-15.489-.212-5.94,1.563-11.74,3.559-17.653a4.1,4.1,0,0,0,.217-3.1,3.575,3.575,0,0,0-1.786-1.4,17.242,17.242,0,0,0-17.1,1.856,21.624,21.624,0,0,1,6.281,5.426,9.382,9.382,0,0,1,1.6,8.442,14.6,14.6,0,0,1-2.458,3.975,10.935,10.935,0,0,0-2.571,4.69c-.4,2.348.729,4.484,1.919,6.748a15.653,15.653,0,0,1,2.112,5.659c.3,3.206-1.414,6.119-3.072,8.935-1.773,3.011-3.447,5.854-2.852,9a13.761,13.761,0,0,0,2.128,4.544,12.138,12.138,0,0,1,2.271,5.417c.171,2.375-1,4.586-2.128,6.723-1.282,2.424-2.493,4.715-1.808,7.131a10.239,10.239,0,0,0,2.329,3.635,9.871,9.871,0,0,1,2.5,4.129c.508,2.325-.643,4.5-1.756,6.594-1.01,1.9-2.055,3.873-1.808,5.909a10.108,10.108,0,0,0,2.033,4.285,10.345,10.345,0,0,1,2.135,4.661c.3,3.217-2.194,5.809-4.94,8.129-.935.789-1.9,1.569-2.883,2.318-.285-.027-.565-.056-.848-.085" transform="translate(-4191.708 -1056.723)" fill="#313440"/>
        <path id="Trazado_1014974" data-name="Trazado 1014974" d="M4682.743,1184.6c.148-.3.3-.6.454-.9a19.929,19.929,0,0,0,2.011-5.043c.624-3.181-.341-6.271-1.361-9.542-.862-2.76-1.753-5.614-1.587-8.512.185-3.21,1.642-6.144,3.05-8.983a27.17,27.17,0,0,0,2.9-7.674c.634-4.07-.622-7.955-1.951-12.07a46.138,46.138,0,0,1-1.992-7.615c-.771-5.46.516-10.954,1.759-16.269.279-1.193.558-2.384.814-3.572.541-2.513,1.044-5.415.167-8.027a16.373,16.373,0,0,0-3.657-5.435,28.1,28.1,0,0,1-2.7-3.4,13.84,13.84,0,0,1-1.543-11.3,28.748,28.748,0,0,1,1.738-4.115c1.184-2.449,2.3-4.761,2.078-7.31a14.2,14.2,0,0,0-1.339-4.3c-.334-.777-.678-1.58-.943-2.4a13.948,13.948,0,0,1,.307-9.063l.642-.068a13.375,13.375,0,0,0-.4,8.954c.255.792.594,1.583.922,2.348a14.83,14.83,0,0,1,1.384,4.482c.241,2.707-.966,5.2-2.134,7.611a28.448,28.448,0,0,0-1.7,4.032,13.253,13.253,0,0,0,1.479,10.821,27.569,27.569,0,0,0,2.647,3.335,17.058,17.058,0,0,1,3.773,5.632c.921,2.755.4,5.745-.152,8.335-.256,1.191-.536,2.386-.815,3.581-1.233,5.263-2.507,10.705-1.751,16.057a45.8,45.8,0,0,0,1.97,7.52c1.292,4,2.628,8.129,1.973,12.337a27.581,27.581,0,0,1-2.948,7.842c-1.383,2.784-2.813,5.666-2.991,8.756-.161,2.793.714,5.6,1.56,8.308,1,3.2,2.031,6.5,1.377,9.827a20.269,20.269,0,0,1-2.062,5.193c-.152.3-.3.6-.452.9a53.8,53.8,0,0,0-4.668,14.036c-.187-.046-.381-.091-.564-.137a54.4,54.4,0,0,1,4.714-14.157" transform="translate(-4460.392 -928.217)" fill="#313440"/>
        <path id="Trazado_1014975" data-name="Trazado 1014975" d="M4345.642,1144.466a17.992,17.992,0,0,1-1.1,3.642c-.729,1.913-1.417,3.722-.981,5.578.41,1.745,1.777,3.163,3.1,4.534,1.606,1.666,3.268,3.389,3.209,5.718a8.513,8.513,0,0,1-1.381,3.835,9.759,9.759,0,0,0-1.281,3.1c-.406,2.6,1.343,4.7,3.194,6.916.1.121.2.245.3.366q-.356.022-.709.048c-.012-.014-.023-.029-.036-.043-1.853-2.218-3.767-4.514-3.321-7.378a10.161,10.161,0,0,1,1.347-3.285,7.979,7.979,0,0,0,1.308-3.57c.053-2.09-1.451-3.651-3.045-5.3-1.376-1.426-2.8-2.9-3.245-4.8-.477-2.028.275-4,1-5.915a17.5,17.5,0,0,0,1.069-3.522c.546-3.622-1.4-7.106-3.29-10.475-2.058-3.678-4.187-7.479-3.067-11.481a15.793,15.793,0,0,1,1.53-3.344,11.98,11.98,0,0,0,1.631-3.952c.408-2.694-1-5.082-2.488-7.611-1.22-2.071-2.481-4.213-2.708-6.583a15.731,15.731,0,0,1,.567-4.892,15.133,15.133,0,0,0,.553-4.747c-.243-2.429-1.677-4.643-3.065-6.784-1.708-2.637-3.474-5.363-2.967-8.475a13.223,13.223,0,0,1,2.173-4.736c1.146-1.825,2.229-3.547,2.072-5.537-.166-2.087-1.7-3.81-3.187-5.476-1.673-1.876-3.4-3.819-3.226-6.32.127-1.8,1.234-3.249,2.306-4.652a11.691,11.691,0,0,0,2.054-3.418c.705-2.253-.125-4.641-.927-6.948-.264-.759-.536-1.542-.752-2.314a8.936,8.936,0,0,1,.271-5.609l.634.005a8.189,8.189,0,0,0-.345,5.45c.209.751.479,1.528.74,2.277.833,2.4,1.695,4.874.932,7.31a12.105,12.105,0,0,1-2.146,3.6c-1.066,1.394-2.074,2.712-2.189,4.339-.161,2.26,1.414,4.025,3.081,5.893,1.55,1.739,3.151,3.536,3.332,5.818.172,2.182-1.013,4.068-2.158,5.89a12.771,12.771,0,0,0-2.092,4.523c-.472,2.891,1.157,5.4,2.881,8.066,1.425,2.2,2.9,4.473,3.156,7.04a15.618,15.618,0,0,1-.564,4.933,15.272,15.272,0,0,0-.556,4.711c.213,2.243,1.44,4.328,2.629,6.343,1.476,2.5,3,5.094,2.562,7.991a12.634,12.634,0,0,1-1.7,4.149,15.211,15.211,0,0,0-1.478,3.214c-1.057,3.774.921,7.305,3.014,11.045,1.933,3.452,3.933,7.024,3.357,10.843" transform="translate(-4050.345 -913.956)" fill="#313440"/>
        <path id="Trazado_1014976" data-name="Trazado 1014976" d="M4101.9,1286.514c14.552,17.646,28.315,24.759,38.853,29.893a29.084,29.084,0,0,0-1.3-4.2h38.517a47.034,47.034,0,0,1,.7,16.341c-11.555.606-19.18,13.414-19.133,25.052a32.343,32.343,0,0,1-13.053,2.687c-20.508,0-40.6-17.578-48.4-24.406a292.569,292.569,0,0,1-29.655-30.5Z" transform="translate(-3824.938 -1116.799)" fill="#f0b48f"/>
        <path id="Trazado_1014977" data-name="Trazado 1014977" d="M4089.638,1490.505c-.018.12-.029.242-.048.361a31.707,31.707,0,0,1-14.043,21.972,33.479,33.479,0,0,1-5.041,2.719c-.047-11.638,7.579-24.446,19.133-25.052" transform="translate(-3735.9 -1278.758)" fill="#f0b48f"/>
        <path id="Trazado_1014978" data-name="Trazado 1014978" d="M4662.774,1372.471c18.847,4.636,27.255-11.011,31.895-42.884l4.639-31.873-24.065-4.636-18.267,47.23.58,25.789Z" transform="translate(-4466.413 -1122.01)" fill="#f0b48f"/>
        <path id="Trazado_1014979" data-name="Trazado 1014979" d="M4772.526,1635.533c-4.733,4.943-10.815,6.6-18.754,4.65l-.393-.48-.263.584a22.95,22.95,0,0,1-10.871-9.974,75.426,75.426,0,0,1,30.281,5.219" transform="translate(-4557.201 -1389.722)" fill="#f0b48f"/>
        <path id="Trazado_1014980" data-name="Trazado 1014980" d="M4800.327,1367.646a.289.289,0,0,0,.287-.249c.608-4.254,5.683-18.9,9.762-30.667,2.336-6.739,4.352-12.557,4.922-14.694a.29.29,0,1,0-.561-.15c-.564,2.117-2.577,7.925-4.909,14.653-4.086,11.792-9.172,26.465-9.787,30.775a.29.29,0,0,0,.246.328.232.232,0,0,0,.04,0" transform="translate(-4611.891 -1144.712)" fill="#313440"/>
        <path id="Trazado_1014981" data-name="Trazado 1014981" d="M4462.47,1059.929l.127-.054c17.1-7.106,29.214-30.037,29.334-30.268a.29.29,0,0,0-.124-.392.3.3,0,0,0-.391.125c-.119.229-12.073,22.859-28.912,29.947-1.276-.747-12.572-7.751-21.213-26.458a.291.291,0,0,0-.384-.141.288.288,0,0,0-.142.385c9.211,19.943,21.458,26.723,21.581,26.791Z" transform="translate(-4214.514 -912.493)" fill="#313440"/>
        <path id="Trazado_1014982" data-name="Trazado 1014982" d="M4577.056,1151.441a.289.289,0,0,0,.285-.238l1.16-6.375a.29.29,0,1,0-.571-.1l-1.16,6.375a.291.291,0,0,0,.234.337.428.428,0,0,0,.052,0" transform="translate(-4329.084 -1004.036)" fill="#313440"/>
        <path id="Trazado_1014983" data-name="Trazado 1014983" d="M4236.364,1728.6c8.413,0,14.529-1.92,21.359-4.061a116.507,116.507,0,0,1,22.491-5.214c23.38-2.852,33.361,2.52,33.457,2.574a.29.29,0,0,0,.283-.507c-.1-.057-10.215-5.528-33.811-2.642a116.909,116.909,0,0,0-22.595,5.234c-8.845,2.777-16.481,5.177-29.523,3.459-21.747-2.859-34.893-7.473-35.023-7.52a.291.291,0,0,0-.195.548c.131.045,13.33,4.679,35.144,7.547a64.578,64.578,0,0,0,8.413.582" transform="translate(-3985.525 -1459.309)" fill="#313440"/>
        <path id="Trazado_1014984" data-name="Trazado 1014984" d="M4424.5,1260.639s-12.941-3.772-16.653-15.812c-2.175-7.056.076-19.22.076-19.22s26.968-9.632,31.2-4.646,10.7,30.966,10.7,30.966Z" transform="translate(-4165.394 -1063.616)" fill="#f0b48f"/>
        <path id="Trazado_1014985" data-name="Trazado 1014985" d="M4569.219,1284.109a4.433,4.433,0,0,1-4.769-.765c-8.114-7.338-18.48-15.833-21.079-16.763a4.427,4.427,0,1,1,2.987-8.335c5.442,1.95,19.773,14.679,24.035,18.534a4.428,4.428,0,0,1-1.175,7.329" transform="translate(-4314.942 -1094.15)" fill="#f0b48f"/>
        <path id="Trazado_1014986" data-name="Trazado 1014986" d="M4556.1,1182.586a4.433,4.433,0,0,1-6.993-1.1c-.083-.158-8.445-15.829-13.118-22.959l-4.839-7.383a4.428,4.428,0,0,1,7.411-4.849l4.839,7.383c4.891,7.464,13.175,22.989,13.526,23.646a4.427,4.427,0,0,1-.826,5.261" transform="translate(-4298.479 -1003.884)" fill="#f0b48f"/>
        <path id="Trazado_1014987" data-name="Trazado 1014987" d="M4501.736,1317.37a.392.392,0,0,1-.052.018.369.369,0,0,1-.454-.258c-3.89-14.051-16.888-11.9-17.439-11.8a.369.369,0,0,1-.132-.727c.142-.025,14.212-2.382,18.283,12.328a.368.368,0,0,1-.206.435" transform="translate(-4233.285 -1131.043)" fill="#313440"/>
        <path id="Trazado_1014988" data-name="Trazado 1014988" d="M4497.7,1224.2a.393.393,0,0,1-.1.046c-.169.049-16.937,4.875-22.813,7.19a.369.369,0,0,1-.27-.687c5.908-2.328,22.71-7.164,22.879-7.212a.369.369,0,0,1,.3.664" transform="translate(-4227.324 -1066.787)" fill="#313440"/>
        <path id="Trazado_1014989" data-name="Trazado 1014989" d="M4571.817,1220.745a.285.285,0,0,1-.11.069.292.292,0,0,1-.376-.178l-2.876-8.068a.294.294,0,0,1,.179-.375.29.29,0,0,1,.375.178l2.876,8.069a.293.293,0,0,1-.067.307" transform="translate(-4320.764 -1057.777)" fill="#313440"/>
        <path id="Trazado_1014990" data-name="Trazado 1014990" d="M4458.854,1183.948a17.132,17.132,0,0,1,13.042.036,4.6,4.6,0,0,0,3.263-4.59,4.127,4.127,0,0,0,6.932-4.051l-3.7-12.263a4.127,4.127,0,0,0-8.012.437,4.575,4.575,0,0,0-.436-.629,13.468,13.468,0,0,1-12.572.648,4.6,4.6,0,0,0-3.261,4.5c-.141-.241,4.786,17.925,4.748,15.909" transform="translate(-4207.571 -1016.464)" fill="#dda583"/>
        <path id="Trazado_1014991" data-name="Trazado 1014991" d="M4571.977,1213.705a.177.177,0,0,1-.348.049l-4.747-15.909a.177.177,0,1,1,.34-.1l4.747,15.909a.181.181,0,0,1,.008.053" transform="translate(-4320.517 -1046.22)" fill="#313440"/>
        <path id="Trazado_1014992" data-name="Trazado 1014992" d="M4529.6,1232.246a.178.178,0,0,1-.347.055l-3.3-9.636a.178.178,0,0,1,.338-.115l3.3,9.636a.157.157,0,0,1,.009.059" transform="translate(-4269.712 -1065.92)" fill="#313440"/>
        <path id="Trazado_1014993" data-name="Trazado 1014993" d="M4497.207,1191.859a.178.178,0,0,1-.346.057L4493,1181.034a.173.173,0,0,1,.108-.227.177.177,0,0,1,.227.108l3.857,10.883a.136.136,0,0,1,.011.061" transform="translate(-4230.523 -1032.865)" fill="#313440"/>
        <path id="Trazado_1014994" data-name="Trazado 1014994" d="M4488.711,1247.12a.176.176,0,0,1-.11.163.179.179,0,0,1-.233-.1l-.615-1.5a.178.178,0,0,1,.33-.135l.615,1.5a.177.177,0,0,1,.013.07" transform="translate(-4220.945 -1084.187)" fill="#313440"/>
        <path id="Trazado_1014995" data-name="Trazado 1014995" d="M4539.371,1251.262a.192.192,0,0,1,.025.048l1.253,3.533a.179.179,0,0,1-.017.158,5.061,5.061,0,0,1-3.387,2.153.191.191,0,0,1-.21-.155.185.185,0,0,1,.155-.21,4.788,4.788,0,0,0,3.08-1.91l-1.194-3.367c-2.463-.975-4.6.745-5.045,1.136l1,2.945a.182.182,0,0,1-.115.233.185.185,0,0,1-.233-.115l-1.034-3.058a.182.182,0,0,1,.044-.19c.026-.025,2.594-2.517,5.606-1.261a.188.188,0,0,1,.077.061" transform="translate(-4282.35 -1088.481)" fill="#313440"/>
        <path id="Trazado_1014996" data-name="Trazado 1014996" d="M4500.354,1237.844a.185.185,0,0,1,.025.048l1.253,3.532a.181.181,0,0,1-.016.158,5.067,5.067,0,0,1-3.388,2.154.189.189,0,0,1-.209-.155.183.183,0,0,1,.155-.21,4.784,4.784,0,0,0,3.079-1.91l-1.194-3.367c-2.462-.975-4.6.745-5.044,1.136l1,2.945a.182.182,0,0,1-.115.234.186.186,0,0,1-.233-.115l-1.034-3.058a.182.182,0,0,1,.044-.19c.026-.025,2.594-2.517,5.606-1.261a.184.184,0,0,1,.077.061" transform="translate(-4235.294 -1077.829)" fill="#313440"/>
        <path id="Trazado_1014997" data-name="Trazado 1014997" d="M4463.263,1221.273a.171.171,0,0,1,.023.045l1.188,3.346a.175.175,0,0,1-.016.15,4.8,4.8,0,0,1-3.209,2.039.179.179,0,0,1-.2-.147.173.173,0,0,1,.146-.2,4.53,4.53,0,0,0,2.916-1.809l-1.131-3.189a4.825,4.825,0,0,0-4.778,1.076l.942,2.789a.173.173,0,0,1-.109.221.175.175,0,0,1-.221-.109l-.979-2.9a.174.174,0,0,1,.042-.18c.024-.024,2.457-2.385,5.309-1.194a.176.176,0,0,1,.074.058" transform="translate(-4190.555 -1064.688)" fill="#313440"/>
        <path id="Trazado_1014998" data-name="Trazado 1014998" d="M4268.944,1087.982a42.9,42.9,0,0,1-11.6,1.545s-.773-11.2-2.32-19.317-12.178-35.544-1.256-40.373,14.014,32.067,14.014,32.067l8.312,13.329Z" transform="translate(-3959.116 -912.665)" fill="#fff"/>
        <path id="Trazado_1014999" data-name="Trazado 1014999" d="M4566.766,1117.614l24.5-10.82a2.151,2.151,0,0,1,2.7,1.079l26.621,51.887a1.869,1.869,0,0,1-.8,2.628l-24.5,10.82a2.151,2.151,0,0,1-2.7-1.079l-26.621-51.887a1.869,1.869,0,0,1,.8-2.628" transform="translate(-4369.139 -973.988)" fill="#7d86ba"/>
        <path id="Trazado_1015000" data-name="Trazado 1015000" d="M4703.3,1132.945a1.815,1.815,0,0,1,1.824-2.054,2.309,2.309,0,0,1,2.235,2.054,1.814,1.814,0,0,1-1.824,2.054,2.31,2.31,0,0,1-2.235-2.054" transform="translate(-4484.024 -993.243)" fill="#313440"/>
        <path id="Trazado_1015001" data-name="Trazado 1015001" d="M4704.444,1134.166a2.076,2.076,0,0,0,2.085-2.348,2.643,2.643,0,0,0-2.555-2.347,2.076,2.076,0,0,0-2.084,2.347,2.642,2.642,0,0,0,2.554,2.348m-.411-4.108a1.983,1.983,0,0,1,1.916,1.76,1.558,1.558,0,0,1-1.563,1.761,1.983,1.983,0,0,1-1.917-1.761,1.557,1.557,0,0,1,1.563-1.76" transform="translate(-4482.897 -992.115)" fill="#a6b7ea"/>
        <path id="Trazado_1015002" data-name="Trazado 1015002" d="M4727.272,1144.6a1.21,1.21,0,0,1,1.216-1.369,1.54,1.54,0,0,1,1.49,1.369,1.21,1.21,0,0,1-1.216,1.37,1.541,1.541,0,0,1-1.491-1.37" transform="translate(-4511.575 -1003.042)" fill="#313440"/>
        <path id="Trazado_1015003" data-name="Trazado 1015003" d="M4728.033,1145.418a1.383,1.383,0,0,0,1.389-1.565,1.761,1.761,0,0,0-1.7-1.565,1.384,1.384,0,0,0-1.39,1.565,1.761,1.761,0,0,0,1.7,1.565m-.274-2.739a1.322,1.322,0,0,1,1.277,1.174,1.038,1.038,0,0,1-1.042,1.174,1.322,1.322,0,0,1-1.277-1.174,1.039,1.039,0,0,1,1.042-1.174" transform="translate(-4510.824 -1002.291)" fill="#a6b7ea"/>
        <path id="Trazado_1015004" data-name="Trazado 1015004" d="M4681.823,1232.1c2.1-3.76,6.872-2.468,10.893,2.135s-1.609,8.94-6.464,6.538-5.547-6.671-4.429-8.672" transform="translate(-4466.217 -1071.852)" fill="#fff"/>
        <path id="Trazado_1015005" data-name="Trazado 1015005" d="M4693.224,1191.052l12.931-4.677c2.31-.833,4.989.588,5.993,3.176a4.813,4.813,0,0,1-1.312,5.6,5.281,5.281,0,0,1,4.508,8.1,5.252,5.252,0,0,1,3.842,3.319,4.8,4.8,0,0,1-1.373,5.646,4.7,4.7,0,0,1,3.489,2.984,4.153,4.153,0,0,1-2.116,5.554l-11.593,4.192a3.635,3.635,0,0,1-1.647.19,4.688,4.688,0,0,1-3.725-3.037,4.464,4.464,0,0,1,.588-4.445,4.159,4.159,0,0,1-.752,0,5.229,5.229,0,0,1-4.155-3.388,5.035,5.035,0,0,1,.473-4.725,5.239,5.239,0,0,1-3.852-3.307,4.814,4.814,0,0,1,1.309-5.593,4.159,4.159,0,0,1-.813,0,5.229,5.229,0,0,1-4.155-3.388c-1-2.587.053-5.36,2.359-6.2" transform="translate(-4495.652 -1037.105)" fill="#dda583"/>
        <path id="Trazado_1015006" data-name="Trazado 1015006" d="M4757.37,1229.287a.2.2,0,0,0-.186-.335l-15,5.489a.18.18,0,0,0-.091.239.188.188,0,0,0,.231.121l15-5.489a.154.154,0,0,0,.044-.025" transform="translate(-4542.07 -1071.09)" fill="#313440"/>
        <path id="Trazado_1015007" data-name="Trazado 1015007" d="M4729.845,1268.6a.188.188,0,0,0,.049-.206.191.191,0,0,0-.229-.132l-9.357,2.955a.175.175,0,0,0-.1.234.19.19,0,0,0,.228.132l9.357-2.955a.153.153,0,0,0,.05-.028" transform="translate(-4510.038 -1102.299)" fill="#313440"/>
        <path id="Trazado_1015008" data-name="Trazado 1015008" d="M4736.894,1319.1a.186.186,0,0,0,.049-.2.191.191,0,0,0-.227-.134l-10.653,3.22a.171.171,0,0,0-.1.232.19.19,0,0,0,.226.133l10.653-3.219a.141.141,0,0,0,.053-.028" transform="translate(-4518.271 -1142.394)" fill="#313440"/>
        <path id="Trazado_1015009" data-name="Trazado 1015009" d="M4710.025,1312.1a.184.184,0,0,0,.052-.2.2.2,0,0,0-.222-.145l-1.522.372a.173.173,0,0,0-.113.226.2.2,0,0,0,.222.145l1.522-.372a.147.147,0,0,0,.061-.031" transform="translate(-4487.748 -1136.842)" fill="#313440"/>
        <path id="Trazado_1015010" data-name="Trazado 1015010" d="M4747.346,1200.647a.168.168,0,0,0,.052,0l3.549-.747a.157.157,0,0,0,.116-.1,5.761,5.761,0,0,0-.24-4.278.2.2,0,0,0-.245-.109.188.188,0,0,0-.079.255,5.49,5.49,0,0,1,.256,3.863l-3.382.712a6.154,6.154,0,0,1-2.012-5.256l2.93-.668a.178.178,0,0,0,.12-.232.2.2,0,0,0-.228-.153l-3.042.693a.166.166,0,0,0-.127.143c0,.038-.51,3.743,2.238,5.841a.2.2,0,0,0,.094.038" transform="translate(-4536.6 -1043.29)" fill="#313440"/>
        <path id="Trazado_1015011" data-name="Trazado 1015011" d="M4726.623,1241.851a.167.167,0,0,0,.051-.008l3.458-1.044a.159.159,0,0,0,.108-.111,5.882,5.882,0,0,0-.541-4.278.179.179,0,1,0-.31.174,5.589,5.589,0,0,1,.527,3.86l-3.3,1c-2.305-1.568-2.376-4.488-2.364-5.114l2.851-.914a.181.181,0,0,0,.1-.242.2.2,0,0,0-.236-.135l-2.961.949a.169.169,0,0,0-.115.154c0,.038-.24,3.8,2.628,5.682a.19.19,0,0,0,.1.031" transform="translate(-4511.315 -1075.922)" fill="#313440"/>
        <path id="Trazado_1015012" data-name="Trazado 1015012" d="M4711.824,1284.213a.161.161,0,0,0,.052-.007l3.458-1.044a.16.16,0,0,0,.108-.111,5.882,5.882,0,0,0-.541-4.278.179.179,0,1,0-.31.174,5.6,5.6,0,0,1,.527,3.86l-3.3,1c-2.305-1.568-2.376-4.488-2.364-5.114l2.852-.914a.181.181,0,0,0,.1-.243.2.2,0,0,0-.236-.135l-2.961.949a.168.168,0,0,0-.115.154c0,.038-.24,3.8,2.628,5.682a.191.191,0,0,0,.1.031" transform="translate(-4493.469 -1109.555)" fill="#313440"/>
        <path id="Trazado_1015013" data-name="Trazado 1015013" d="M4701.507,1328.265a.168.168,0,0,0,.049-.007l3.276-.989a.152.152,0,0,0,.1-.1,5.568,5.568,0,0,0-.512-4.052.169.169,0,1,0-.293.165,5.3,5.3,0,0,1,.5,3.656l-3.123.943a5.863,5.863,0,0,1-2.24-4.844l2.7-.865a.172.172,0,0,0,.1-.23.188.188,0,0,0-.223-.128l-2.805.9a.161.161,0,0,0-.109.146c0,.036-.227,3.6,2.49,5.382a.179.179,0,0,0,.09.029" transform="translate(-4480.855 -1144.816)" fill="#313440"/>
        <path id="Trazado_1015014" data-name="Trazado 1015014" d="M4220.286,1175.559a.29.29,0,0,0,.023-.58c-4.739-.376-15.475-4.195-15.583-4.233a.291.291,0,0,0-.2.548c.443.156,10.917,3.88,15.732,4.265Z" transform="translate(-3894.414 -1024.872)" fill="#313440"/>
        <path id="Trazado_1015015" data-name="Trazado 1015015" d="M4213.357,1196.382a.29.29,0,0,0,.08-.568,53.981,53.981,0,0,1-9.6-4.414.292.292,0,0,0-.4.1.289.289,0,0,0,.1.4,54.182,54.182,0,0,0,9.731,4.473.32.32,0,0,0,.08.011" transform="translate(-3887.293 -1041.251)" fill="#313440"/>
        <path id="Trazado_1015016" data-name="Trazado 1015016" d="M4479.83,682.517s5.588-1.331,9.931.877,14.687,16.274,13.206,29.805-13.692,16.815-15.666,23.011l-34.964-17.049s-5.05-13.575-3.81-20.983,15.953-21.509,31.3-15.66" transform="translate(-4227.225 -636.157)" fill="#313440"/>
        <path id="Trazado_1015017" data-name="Trazado 1015017" d="M4681.071,852.76s-5.964-4.836-10.265-2.711-3.792,11.861,1.246,13.187,10.392-3.111,10.392-3.111Z" transform="translate(-4451.799 -769.84)" fill="#dda583"/>
        <path id="Trazado_1015018" data-name="Trazado 1015018" d="M4696.9,872.476a.2.2,0,0,1-.06-.008,4.733,4.733,0,0,1-1.317-7.8c1.018-.721,2.5-.8,5.123-.276a.2.2,0,0,1-.078.389c-2.469-.5-3.909-.432-4.815.21a3.841,3.841,0,0,0-1.334,2.8,3.77,3.77,0,0,0,2.537,4.3.2.2,0,0,1-.055.388" transform="translate(-4475.53 -781.383)" fill="#313440"/>
        <path id="Trazado_1015019" data-name="Trazado 1015019" d="M4537.2,942.11c-.119-3.979-.394-8.333-.394-8.333l18.475-8.3c-2.363,8.383-9.977,12.7-18.081,16.63" transform="translate(-4297.624 -830.157)" fill="#313440"/>
        <path id="Trazado_1015020" data-name="Trazado 1015020" d="M4512.923,943.872a42.46,42.46,0,0,0,.107-6.094c8.1-3.933,15.718-8.247,18.081-16.63l2.5-1.124s-.362,18.808,2.248,21.224-24.293,9.887-22.941,2.624" transform="translate(-4273.455 -825.825)" fill="#f0b48f"/>
        <path id="Trazado_1015021" data-name="Trazado 1015021" d="M4491.276,711.1c-.981,3.805,1.1,9.189.747,16.919s1,23.014,12.119,24.655a30.558,30.558,0,0,0,20-4.084c2.922-1.845,5.92-8.144,6.77-13.615l4.48-17.42a20.6,20.6,0,0,0-17.667-23.7q-.4-.048-.807-.083c-22.486-1.933-25.642,17.333-25.642,17.333" transform="translate(-4268.548 -646.082)" fill="#f0b48f"/>
        <path id="Trazado_1015022" data-name="Trazado 1015022" d="M4588.969,845.31c-.042-1.022-.414-1.836-.83-1.819s-.716.86-.673,1.882.414,1.836.829,1.819.716-.86.674-1.882" transform="translate(-4341.755 -765.062)" fill="#313440"/>
        <path id="Trazado_1015023" data-name="Trazado 1015023" d="M4669.792,852.97c-.042-1.022-.413-1.836-.828-1.819s-.717.86-.675,1.882.415,1.836.83,1.819.716-.86.673-1.882" transform="translate(-4439.232 -771.143)" fill="#313440"/>
        <path id="Trazado_1015024" data-name="Trazado 1015024" d="M4579.619,826.86a.793.793,0,0,1-.547-.154,5.738,5.738,0,0,0-4.775-.524.793.793,0,0,1-.421-1.529,7.284,7.284,0,0,1,6.149.785.793.793,0,0,1-.406,1.423" transform="translate(-4330.203 -749.852)" fill="#313440"/>
        <path id="Trazado_1015025" data-name="Trazado 1015025" d="M4667.026,829.512a.79.79,0,0,1-.566.034,5.738,5.738,0,0,0-4.682,1.073.793.793,0,0,1-.9-1.306,7.286,7.286,0,0,1,6.065-1.278.792.792,0,0,1,.084,1.477" transform="translate(-4435.331 -752.632)" fill="#313440"/>
        <path id="Trazado_1015026" data-name="Trazado 1015026" d="M4588.92,908.525c-1.018.339-2.065.515-3.092.8-1.1.306-1.85,1.113-1.427,2.267,1.706,4.649,8.337,3.28,11.658,1.474a5.253,5.253,0,0,0,2-1.732c.909-1.44.752-3.88-.877-4.761-1.392-.752-3.147-.087-4.5.43-1.161.443-2.284.981-3.45,1.412q-.153.057-.308.108" transform="translate(-4350.737 -814.879)" fill="#fff"/>
        <path id="Trazado_1015027" data-name="Trazado 1015027" d="M4515.158,726.1s-5.872-5.9-16.74-21.482c0,0-14.65,10.267-17.327,11.836s-3.543,6.6-3.543,6.6a35.6,35.6,0,0,1-2.21-14.218c.593-9.375,15.2-20.521,30.593-16.722s18.639,20.758,18.639,20.758l-2.9,12.812Z" transform="translate(-4254.236 -644.276)" fill="#313440"/>
        <path id="Trazado_1015028" data-name="Trazado 1015028" d="M4638.877,867.662a.188.188,0,0,0,.044-.357,3.952,3.952,0,0,1-2.031-2.829,3.028,3.028,0,0,1,.6-2.106,14.2,14.2,0,0,0,1.016-2.186.188.188,0,0,0-.355-.126,13.856,13.856,0,0,1-.991,2.131,3.353,3.353,0,0,0-.641,2.351,4.289,4.289,0,0,0,2.25,3.108.186.186,0,0,0,.108.013" transform="translate(-4401.915 -778.117)" fill="#313440"/>
        <path id="Trazado_1015029" data-name="Trazado 1015029" d="M4391.691,976.88c4.6,0,8.849-5.885,12.671-11.181,2.84-3.935,5.523-7.652,7.625-7.877l-.112-1.043c-2.566.275-5.252,4-8.363,8.306-4.328,6-9.233,12.791-14.1,10.128-4.842-2.65-3.494-9.362-2.066-16.469,1.045-5.2,2.125-10.574,1.073-15.131l-1.022.236c1,4.336-.057,9.6-1.078,14.689-1.506,7.5-2.928,14.575,2.591,17.6a5.728,5.728,0,0,0,2.782.747" transform="translate(-4123.043 -844.554)" fill="#313440"/>
        <path id="Trazado_1015030" data-name="Trazado 1015030" d="M4560.106,699.9a.313.313,0,0,0,.265-.146l8.215-12.941a.313.313,0,0,0-.529-.335l-8.215,12.942a.313.313,0,0,0,.265.481" transform="translate(-4315.715 -640.29)" fill="#fff"/>
        <path id="Trazado_1015031" data-name="Trazado 1015031" d="M4464.245,841.613s4.747-6.4,9.62-5.377,6.881,10.946,2.158,13.581-11.254-.444-11.254-.444Z" transform="translate(-4206.1 -759.214)" fill="#f0b48f"/>
        <path id="Trazado_1015032" data-name="Trazado 1015032" d="M4481.566,860.3a.211.211,0,0,0,.058-.024,4.914,4.914,0,0,0-.693-8.188c-1.21-.462-2.722-.159-5.223,1.045a.206.206,0,1,0,.179.371c2.355-1.136,3.819-1.444,4.9-1.032a3.988,3.988,0,0,1,2.064,2.469,3.913,3.913,0,0,1-1.438,4.982.206.206,0,0,0,.156.376" transform="translate(-4213.36 -771.726)" fill="#313440"/>
        <path id="Trazado_1015033" data-name="Trazado 1015033" d="M5523.361,1721.945a3.818,3.818,0,0,1,3.819-3.817h38.951a3.818,3.818,0,0,1,3.82,3.817v11.366a23.126,23.126,0,0,1-2.45,10.346c-14.243-4.536-29.478-6.275-44.14-11.481Z" transform="translate(-5515.577 -1459.478)" fill="#fcb033"/>
        <path id="Trazado_1015034" data-name="Trazado 1015034" d="M5579.391,1797.782a23.284,23.284,0,0,1-44.141-10.346V1786.3c14.663,5.207,29.9,6.946,44.141,11.481" transform="translate(-5527.465 -1513.604)" fill="#fcb033"/>
        <path id="Trazado_1015035" data-name="Trazado 1015035" d="M5540.448,1723.571c0-1.2,9.2-2.169,20.546-2.169s20.545.971,20.545,2.169-9.2,2.169-20.545,2.169-20.546-.971-20.546-2.169" transform="translate(-5530.686 -1462.078)" fill="#313440"/>
        <path id="Trazado_1015036" data-name="Trazado 1015036" d="M5530.227,1466.338c-.434-.578-6.8-18.653.869-20.244s10.852,4.916,12.009,13.448-1.881,19.376-.434,19.809,3.473-5.205,7.379-2.169.434,8.386-2.46,11.278-2.75,4.049-2.17,4.049,3.618-1.735,5.354.723,1.736,8.676-8.392,11.857c0,0-8.248,2.169-13.891-.145s1.736-38.607,1.736-38.607" transform="translate(-5498.038 -1243.307)" fill="#8fa159"/>
        <path id="Trazado_1015037" data-name="Trazado 1015037" d="M5605.714,1523.446c-1.158,0-8.875.771-12.154-.964s-11.961-14.267-9.26-17.351,5.209-2.507,5.209-2.507-10.418-11.182-5.017-12.724,7.138,1.157,7.138,1.157-7.524-23.135,4.051-22.557,5.209,22.364,5.209,22.364,1.929-8.869,8.1-7.326,5.016,12.917,1.736,21.4c0,0,4.051-3.47,6.367.771s-11.382,17.737-11.382,17.737" transform="translate(-5575.261 -1261.278)" fill="#b0c66b"/>
        <path id="Trazado_1015038" data-name="Trazado 1015038" d="M5665.391,1596.049a.31.31,0,0,0,.213-.082.321.321,0,0,0,.031-.458c-.051-.059-5.059-5.822-3.7-9.208a2.509,2.509,0,0,1,1.542-1.609c1.472-.456,3.312.733,3.329.746a.326.326,0,0,0,.5-.316c-.015-.1-1.405-10.241.986-15.732a.325.325,0,0,0-.6-.26c-2.136,4.905-1.393,13.067-1.118,15.434a4.729,4.729,0,0,0-3.3-.5,3.135,3.135,0,0,0-1.955,1.988c-1.5,3.757,3.6,9.633,3.821,9.879a.323.323,0,0,0,.245.112" transform="translate(-5642.317 -1341.026)" fill="#313440"/>
        <path id="Trazado_1015039" data-name="Trazado 1015039" d="M5581.558,1653.723a.326.326,0,0,0,.237-.1c.39-.407,9.544-10.05,7.378-13.975a4.1,4.1,0,0,0-2.513-2.105,6.177,6.177,0,0,0-4.251.68.327.327,0,0,0-.12.445.336.336,0,0,0,.445.12,5.594,5.594,0,0,1,3.755-.616,3.469,3.469,0,0,1,2.114,1.792c1.6,2.912-4.712,10.524-7.282,13.212a.326.326,0,0,0,.237.55" transform="translate(-5547.053 -1395.374)" fill="#313440"/>
        <path id="Trazado_1015040" data-name="Trazado 1015040" d="M5676.119,1529.413a.326.326,0,0,0,.257-.525c-.031-.043-3.217-4.2-2.682-6.351a1.368,1.368,0,0,1,.823-.96,2.033,2.033,0,0,1,1.77-.046c1.671.753,2.55,3.574,2.56,3.6a.315.315,0,0,0,.4.216.321.321,0,0,0,.216-.4c-.038-.13-.975-3.136-2.914-4.009a2.708,2.708,0,0,0-2.308.046,2.023,2.023,0,0,0-1.187,1.4c-.608,2.459,2.662,6.723,2.8,6.9a.322.322,0,0,0,.258.128" transform="translate(-5655.938 -1302.731)" fill="#313440"/>
        <path id="Trazado_1015041" data-name="Trazado 1015041" d="M5576.224,1624.132a.323.323,0,0,0,.306-.214c.028-.074.629-1.807-1.23-3.668a2.624,2.624,0,0,0-1.876-.83,2.972,2.972,0,0,0-1.934.993.326.326,0,0,0,.038.458.321.321,0,0,0,.459-.036,2.345,2.345,0,0,1,1.467-.764,1.984,1.984,0,0,1,1.386.639,3.006,3.006,0,0,1,1.078,2.986.327.327,0,0,0,.2.415.337.337,0,0,0,.109.02" transform="translate(-5532.171 -1381.11)" fill="#313440"/>
        <path id="Trazado_1015042" data-name="Trazado 1015042" d="M5755.692,1606.827c-1.963,2.07-8.97-6.941-5.788-7.953s8.393,5.206,5.788,7.953" transform="translate(-5748.535 -1364.709)" fill="#b0c66b"/>
        <path id="Trazado_1015043" data-name="Trazado 1015043" d="M5533.787,1536.414c2.728.837-2.235,11.115-4.557,8.716s.937-9.826,4.557-8.716" transform="translate(-5481.257 -1315.118)" fill="#8fa159"/>
        <path id="Trazado_1015044" data-name="Trazado 1015044" d="M5735.851,1522.208c-1.515.757-2.025-2.024-1.158-2.314s2.315,1.735,1.158,2.314" transform="translate(-5725.366 -1302.068)" fill="#b0c66b"/>
        <path id="Trazado_1015045" data-name="Trazado 1015045" d="M5526.6,1578.347c-1.516.757-2.026-2.024-1.158-2.314s2.315,1.735,1.158,2.314" transform="translate(-5472.993 -1346.64)" fill="#8fa159"/>
        <path id="Trazado_1015046" data-name="Trazado 1015046" d="M5652.409,1428c-2.77.277-1.881-6.941-.29-6.941s3.183,6.651.29,6.941" transform="translate(-5625.863 -1223.619)" fill="#8fa159"/>
        <path id="Trazado_1015047" data-name="Trazado 1015047" d="M5493.136,1642.754s.29-4.482,4.051-3.759,1.013,9.109-2.025,8.531-2.026-4.772-2.026-4.772" transform="translate(-5438.375 -1396.588)" fill="#8fa159"/>
        <path id="Trazado_1015048" data-name="Trazado 1015048" d="M5523.653,1776.87c.349-.044.7-.091,1.042-.119,2.533-.2,5.536.757,6.1,3.371a5.965,5.965,0,0,1-.234,2.8c-.055.212-.108.425-.154.637-.154.727-.072,1.369.2,1.561.344.251,1.175-.188,1.646-.854a11.578,11.578,0,0,0,.61-1.008,7.119,7.119,0,0,1,1.836-2.368,4.375,4.375,0,0,1,6.593,2.185,7.237,7.237,0,0,1,.209,1.1,5.149,5.149,0,0,0,.128.732,2.118,2.118,0,0,0,1.865,1.482,2.176,2.176,0,0,0,2-1.3,5.516,5.516,0,0,0,.248-1.435,7.689,7.689,0,0,1,.361-1.972,4.652,4.652,0,0,1,7.246-1.785,7.654,7.654,0,0,1,1.608,2.4c.156.316.311.633.488.933.394.667,1.1,1.3,1.626,1.17.6-.154.965-1.211,1.286-2.142l.083-.24a6.78,6.78,0,0,1,2.323-3.439,3.96,3.96,0,0,1,4.659-.09,5.344,5.344,0,0,1,1.024,1.152c.1.147.209.294.326.434a3.037,3.037,0,0,0,2.745.929,3.708,3.708,0,0,0,.727-.172v.848c0,.517-.042,1.024-.077,1.531-.124.023-.235.072-.362.088a5.321,5.321,0,0,1-4.813-1.744c-.151-.181-.29-.373-.426-.565a3.475,3.475,0,0,0-.573-.682,1.682,1.682,0,0,0-1.877.151,4.594,4.594,0,0,0-1.488,2.318l-.08.23c-.461,1.34-1.092,3.175-2.909,3.633-1.844.47-3.408-.915-4.187-2.237-.207-.35-.388-.716-.57-1.084a5.735,5.735,0,0,0-1.094-1.717,2.353,2.353,0,0,0-3.507.863,5.837,5.837,0,0,0-.231,1.394,7.408,7.408,0,0,1-.395,2.058,4.464,4.464,0,0,1-4.076,2.783c-.064,0-.127,0-.19,0a4.46,4.46,0,0,1-3.984-3.165,7.565,7.565,0,0,1-.194-1.053,5.167,5.167,0,0,0-.135-.752,2.078,2.078,0,0,0-2.982-.987,5.259,5.259,0,0,0-1.209,1.651,13.526,13.526,0,0,1-.736,1.209c-1.122,1.588-3.252,2.555-4.869,1.414a3.676,3.676,0,0,1-1.137-3.934c.052-.244.113-.486.175-.73a4.138,4.138,0,0,0,.215-1.737c-.255-1.182-2.077-1.683-3.648-1.554-.406.034-.819.088-1.231.141Z" transform="translate(-5515.929 -1506.002)" fill="#fff"/>
        <path id="Trazado_1015049" data-name="Trazado 1015049" d="M4118.42,499.554c9.551,0,17.322-7.459,17.322-16.629s-7.771-16.627-17.322-16.627-17.324,7.459-17.324,16.627,7.772,16.629,17.324,16.629m0-25.583a8.962,8.962,0,1,1-9.328,8.954,9.156,9.156,0,0,1,9.328-8.954" transform="translate(-3788.307 -465.59)" fill="#33bac1"/>
        <path id="Trazado_1015050" data-name="Trazado 1015050" d="M4149.667,499.689c-9.551,0-17.323-7.459-17.323-16.629,0-8.935,7.386-16.225,16.6-16.592v7.708a8.927,8.927,0,1,0,.72,17.839,9.517,9.517,0,0,0,5.361-1.65l5.523,5.614a17.68,17.68,0,0,1-10.884,3.71" transform="translate(-3819.556 -465.725)" fill="#f05923"/>
        <path id="Trazado_1015051" data-name="Trazado 1015051" d="M4204.183,466.468v7.708a9.12,9.12,0,0,0-8.52,8.012l-7-4.861a17.29,17.29,0,0,1,15.52-10.859" transform="translate(-3874.791 -465.725)" fill="#fcb036"/>
        <path id="Trazado_1015052" data-name="Trazado 1015052" d="M4103.541,661.179h31.487a.191.191,0,0,0,.19-.19v-2.723a.191.191,0,0,0-.19-.19h-31.487a.191.191,0,0,0-.19.19v2.723a.191.191,0,0,0,.19.19" transform="translate(-3788.247 -617.852)" fill="#7d89bd"/>
        <path id="Trazado_1015053" data-name="Trazado 1015053" d="M4103.541,698.832h31.487a.191.191,0,0,0,.19-.19v-2.723a.191.191,0,0,0-.19-.19h-31.487a.191.191,0,0,0-.19.19v2.723a.191.191,0,0,0,.19.19" transform="translate(-3788.247 -647.747)" fill="#7d89bd"/>
        <path id="Trazado_1015054" data-name="Trazado 1015054" d="M4118.42,780.618c9.551,0,17.322-7.459,17.322-16.629s-7.771-16.627-17.322-16.627-17.324,7.459-17.324,16.627,7.772,16.629,17.324,16.629m0-25.583a8.962,8.962,0,1,1-9.328,8.954,9.156,9.156,0,0,1,9.328-8.954" transform="translate(-3788.307 -688.74)" fill="#fcb036"/>
        <path id="Trazado_1015055" data-name="Trazado 1015055" d="M4149.667,780.753c-9.551,0-17.323-7.459-17.323-16.629,0-8.935,7.386-16.225,16.6-16.592v7.708a8.927,8.927,0,1,0,.72,17.839,9.517,9.517,0,0,0,5.361-1.65l5.523,5.614a17.681,17.681,0,0,1-10.884,3.709" transform="translate(-3819.556 -688.875)" fill="#33bac1"/>
        <path id="Trazado_1015056" data-name="Trazado 1015056" d="M4204.183,747.532v7.708a9.12,9.12,0,0,0-8.52,8.012l-7-4.861a17.29,17.29,0,0,1,15.52-10.859" transform="translate(-3874.791 -688.875)" fill="#f05923"/>
        <path id="Trazado_1015057" data-name="Trazado 1015057" d="M4103.541,942.243h31.487a.191.191,0,0,0,.19-.19V939.33a.191.191,0,0,0-.19-.19h-31.487a.191.191,0,0,0-.19.19v2.723a.191.191,0,0,0,.19.19" transform="translate(-3788.247 -841.002)" fill="#7d89bd"/>
        <path id="Trazado_1015058" data-name="Trazado 1015058" d="M4103.541,979.9h31.487a.191.191,0,0,0,.19-.19v-2.723a.191.191,0,0,0-.19-.19h-31.487a.191.191,0,0,0-.19.19v2.723a.191.191,0,0,0,.19.19" transform="translate(-3788.247 -870.897)" fill="#7d89bd"/>
        <path id="Trazado_1015059" data-name="Trazado 1015059" d="M4644.295,509.873l2.981-14.918a6.131,6.131,0,0,1,4.742-4.8l.07-.019,9.382-3.116-9.617-3.5a6.158,6.158,0,0,1-4.625-4.7l-3.222-15.139-3.528,15.3a6.1,6.1,0,0,1-4.527,4.581l-.045.013-10.254,3.29,10.225,3.446a6.157,6.157,0,0,1,4.762,4.562Zm7.413-20.993a7.442,7.442,0,0,0-5.719,5.817l-1.821,9.112-2.255-9.248a7.475,7.475,0,0,0-5.737-5.53l-6.326-2.135,6.435-2.065a7.41,7.41,0,0,0,5.473-5.556l2.2-9.528,1.99,9.348a7.474,7.474,0,0,0,5.573,5.7l5.96,2.172Z" transform="translate(-4422.121 -463.514)" fill="#34b7bf"/>
        <path id="Trazado_1015060" data-name="Trazado 1015060" d="M5672.751,835.46l-6.251-2.11,6.328-2.03a5.144,5.144,0,0,0,3.795-3.841l2.168-9.4,1.974,9.272a5.144,5.144,0,0,0,3.877,3.941l5.883,2.144-5.75,1.91a5.144,5.144,0,0,0-3.975,4.023l-1.818,9.1-2.24-9.182a5.142,5.142,0,0,0-3.991-3.825" transform="translate(-5665.646 -744.884)" fill="#fcb033"/>
        <path id="Trazado_1015061" data-name="Trazado 1015061" d="M4076.478,1051.738l-6.089-2.055,6.164-1.978a5.011,5.011,0,0,0,3.7-3.741l2.112-9.157,1.923,9.032a5.01,5.01,0,0,0,3.777,3.839l5.731,2.088-5.6,1.86a5.011,5.011,0,0,0-3.872,3.919l-1.771,8.864-2.181-8.944a5.012,5.012,0,0,0-3.889-3.726" transform="translate(-3740.03 -916.956)" fill="#e2e2ec"/>
        <path id="Trazado_1015062" data-name="Trazado 1015062" d="M4763.663,1902.351h47.225a.855.855,0,0,0,0-1.71h-47.225a.855.855,0,1,0,0,1.71" transform="translate(-4600.655 -1604.384)" fill="#545e7d"/>
        <path id="Trazado_1015063" data-name="Trazado 1015063" d="M4065.141,1902.387h0l136.506-.035a.855.855,0,0,0,0-1.71h0l-136.5.036a.855.855,0,1,0,0,1.71" transform="translate(-3847.481 -1604.384)" fill="#545e7d"/>
        <path id="Trazado_1015064" data-name="Trazado 1015064" d="M5090.172,1902.351h142.1a.855.855,0,1,0,0-1.71h-142.1a.855.855,0,1,0,0,1.71" transform="translate(-5089.316 -1604.384)" fill="#545e7d"/>
      </g>
    </g>
  </g>
</svg>
