<svg xmlns="http://www.w3.org/2000/svg" xmlns:xlink="http://www.w3.org/1999/xlink" width="98" height="98" viewBox="0 0 98 98">
  <defs>
    <filter id="Trazado_982548" x="0" y="0" width="98" height="98" filterUnits="userSpaceOnUse">
      <feOffset dy="3" input="SourceAlpha"/>
      <feGaussianBlur stdDeviation="3" result="blur"/>
      <feFlood flood-opacity="0.161"/>
      <feComposite operator="in" in2="blur"/>
      <feComposite in="SourceGraphic"/>
    </filter>
  </defs>
  <g id="Grupo_1162517" data-name="Grupo 1162517" transform="translate(-183 -2093)">
    <g id="Grupo_1162324" data-name="Grupo 1162324" transform="translate(0 1078)">
      <g id="Grupo_1155642" data-name="Grupo 1155642" transform="translate(0 166)">
        <g id="Grupo_1154380" data-name="Grupo 1154380" transform="translate(-9 -1247)">
          <g id="Grupo_1149886" data-name="Grupo 1149886" transform="translate(0 -2463)">
            <g id="Grupo_1149694" data-name="Grupo 1149694" transform="translate(-9 4104)">
              <g id="Grupo_1149263" data-name="Grupo 1149263" transform="translate(210 461)">
                <g transform="matrix(1, 0, 0, 1, -9, -6)" filter="url(#Trazado_982548)">
                  <g id="Trazado_982548-2" data-name="Trazado 982548" transform="translate(9 6)" fill="#f2f7f5">
                    <path d="M 40 78.5 C 34.80187606811523 78.5 29.76003265380859 77.48227691650391 25.01452255249023 75.47509765625 C 20.43014526367188 73.53606414794922 16.31264495849609 70.75986480712891 12.77638912200928 67.22360992431641 C 9.240133285522461 63.68735504150391 6.46393346786499 59.56985473632812 4.524899959564209 54.98547744750977 C 2.517722129821777 50.23996734619141 1.5 45.19812393188477 1.5 40 C 1.5 34.80187606811523 2.517722129821777 29.76003265380859 4.524899959564209 25.01452255249023 C 6.46393346786499 20.43014526367188 9.240133285522461 16.31264495849609 12.77638912200928 12.77638912200928 C 16.31264495849609 9.240133285522461 20.43014526367188 6.46393346786499 25.01452255249023 4.524899959564209 C 29.76003265380859 2.517722129821777 34.80187606811523 1.5 40 1.5 C 45.19812393188477 1.5 50.23996734619141 2.517722129821777 54.98547744750977 4.524899959564209 C 59.56985473632812 6.46393346786499 63.68735504150391 9.240133285522461 67.22360992431641 12.77638912200928 C 70.75986480712891 16.31264495849609 73.53606414794922 20.43014526367188 75.47509765625 25.01452255249023 C 77.48227691650391 29.76003265380859 78.5 34.80187606811523 78.5 40 C 78.5 45.19812393188477 77.48227691650391 50.23996734619141 75.47509765625 54.98547744750977 C 73.53606414794922 59.56985473632812 70.75986480712891 63.68735504150391 67.22360992431641 67.22360992431641 C 63.68735504150391 70.75986480712891 59.56985473632812 73.53606414794922 54.98547744750977 75.47509765625 C 50.23996734619141 77.48227691650391 45.19812393188477 78.5 40 78.5 Z" stroke="none"/>
                    <path d="M 40 3 C 35.00370788574219 3 30.15846633911133 3.977851867675781 25.59885406494141 5.906410217285156 C 21.19326782226562 7.769813537597656 17.23602676391602 10.43806457519531 13.83704376220703 13.83705139160156 C 10.43806457519531 17.23603820800781 7.769813537597656 21.19327926635742 5.906410217285156 25.59885406494141 C 3.977851867675781 30.15846633911133 3 35.00370788574219 3 40 C 3 44.99629211425781 3.977851867675781 49.84153366088867 5.906410217285156 54.40114593505859 C 7.769813537597656 58.80672073364258 10.43806457519531 62.76396179199219 13.83704376220703 66.16294860839844 C 17.23602676391602 69.56193542480469 21.19326782226562 72.23018646240234 25.59885406494141 74.09358978271484 C 30.15846633911133 76.02214813232422 35.00370788574219 77 40 77 C 44.99629211425781 77 49.84153366088867 76.02214813232422 54.40114593505859 74.09358978271484 C 58.80672073364258 72.23018646240234 62.76396179199219 69.56193542480469 66.16294860839844 66.16294860839844 C 69.56193542480469 62.76396179199219 72.23018646240234 58.80672073364258 74.09358978271484 54.40114593505859 C 76.02214813232422 49.84153366088867 77 44.99629211425781 77 40 C 77 35.00370788574219 76.02214813232422 30.15846633911133 74.09358978271484 25.59885406494141 C 72.23018646240234 21.19327926635742 69.56193542480469 17.23603820800781 66.16294860839844 13.83705139160156 C 62.76396179199219 10.43806457519531 58.80672073364258 7.769813537597656 54.40114593505859 5.906410217285156 C 49.84153366088867 3.977851867675781 44.99629211425781 3 40 3 M 40 0 C 62.09138488769531 0 80 17.90861511230469 80 40 C 80 62.09138488769531 62.09138488769531 80 40 80 C 17.90859985351562 80 0 62.09138488769531 0 40 C 0 17.90861511230469 17.90859985351562 0 40 0 Z" stroke="none" fill="#4a665c"/>
                  </g>
                </g>
              </g>
            </g>
          </g>
        </g>
      </g>
    </g>
    <g id="interrogation-mark_5084646" transform="translate(205 2111.999)">
      <g id="Grupo_1162512" data-name="Grupo 1162512" transform="translate(1.006 0.999)">
        <path id="Trazado_1014379" data-name="Trazado 1014379" d="M192.947,144.53a2.378,2.378,0,0,0,2.378-2.378c0-1.33.864-2.078,1.727-2.824,1.683-1.457,3.361-2.91,3.361-6.358a7.467,7.467,0,0,0-14.679-1.933,2.379,2.379,0,1,0,4.6,1.207,2.71,2.71,0,0,1,5.321.725c0,1.294-.853,2.032-1.708,2.772-1.688,1.461-3.38,2.926-3.38,6.41A2.378,2.378,0,0,0,192.947,144.53Z" transform="translate(-167.128 -113.299)" fill="#fff" fill-rule="evenodd"/>
        <path id="Trazado_1014380" data-name="Trazado 1014380" d="M237.271,342.663a2.378,2.378,0,1,0-2.378,2.378A2.378,2.378,0,0,0,237.271,342.663Z" transform="translate(-209.073 -305.487)" fill="#fff" fill-rule="evenodd"/>
        <path id="Trazado_1014381" data-name="Trazado 1014381" d="M71.395,80.092a2.378,2.378,0,1,1-2.378,2.378A2.378,2.378,0,0,1,71.395,80.092Zm4.1-8.77c-.862.746-1.727,1.495-1.727,2.824a2.378,2.378,0,1,1-4.757,0c0-3.484,1.692-4.949,3.38-6.41.855-.74,1.708-1.478,1.708-2.772a2.71,2.71,0,0,0-5.321-.725,2.379,2.379,0,1,1-4.6-1.207,7.467,7.467,0,0,1,14.679,1.933C78.861,68.412,77.182,69.865,75.5,71.322Zm-25.69-.149a21.67,21.67,0,0,0,21.67,21.67c28.714-1.062,28.707-42.283,0-43.341A21.67,21.67,0,0,0,49.81,71.173Z" transform="translate(-45.576 -45.294)" fill="#ff7d97" fill-rule="evenodd"/>
        <path id="Trazado_1014382" data-name="Trazado 1014382" d="M57.134,35.37a21.67,21.67,0,0,1-21.67,21.67c-28.714-1.062-28.707-42.283,0-43.341A21.67,21.67,0,0,1,57.134,35.37ZM21.954,57.445c16.84,10.572,39.6-2.034,39.388-22.075A25.878,25.878,0,0,0,35.463,9.491c-20.039-.2-32.648,22.546-22.076,39.387q-1.118,4.168-2.236,8.339a2.016,2.016,0,0,0,2.49,2.457l8.313-2.229Z" transform="translate(-9.559 -9.49)" fill="#f8e3ee" fill-rule="evenodd"/>
      </g>
      <g id="Grupo_1162513" data-name="Grupo 1162513" transform="translate(0 0.001)">
        <path id="Trazado_1014383" data-name="Trazado 1014383" d="M45.953,7.836C35.928-2.61,17.892-2.611,7.868,7.837A27.032,27.032,0,0,0,3.7,40.546Q2.642,44.5,1.582,48.456A3.076,3.076,0,0,0,5.367,52.2l7.874-2.112a27.032,27.032,0,0,0,32.712-4.164C56.4,35.9,56.4,17.86,45.953,7.836ZM26.91,51.705a24.773,24.773,0,0,1-12.96-3.648,1.052,1.052,0,0,0-.823-.119L13,47.971l-8.189,2.2-.013,0a.952.952,0,0,1-.935-.246A.938.938,0,0,1,3.614,49Q4.732,44.827,5.85,40.66a1.052,1.052,0,0,0-.119-.823C-4.447,23.695,7.8,1.808,26.911,2.053,59.8,3.3,59.793,50.462,26.91,51.705Z" transform="translate(0 -0.001)"/>
        <path id="Trazado_1014384" data-name="Trazado 1014384" d="M78.431,46.331a22.812,22.812,0,0,0-28.265-3.106A1.052,1.052,0,0,0,51.3,45c13.386-8.774,31.893,1.372,31.685,17.4A20.641,20.641,0,0,1,62.364,83.016c-16.026.206-26.175-18.3-17.4-31.684A1.052,1.052,0,1,0,43.19,50.2C33.565,65.151,44.57,85.233,62.364,85.12,82.532,85.1,92.679,60.6,78.431,46.331Z" transform="translate(-35.454 -35.52)"/>
        <path id="Trazado_1014385" data-name="Trazado 1014385" d="M188.793,131.174a8.56,8.56,0,1,0-13.023-9.358,3.431,3.431,0,1,0,6.634,1.753,1.659,1.659,0,0,1,3.253.452c0,.775-.486,1.233-1.344,1.976-1.755,1.519-3.744,3.241-3.744,7.206a3.43,3.43,0,1,0,6.861,0C187.43,132.393,187.922,131.927,188.793,131.174Zm-3.467,2.029a1.326,1.326,0,0,1-2.653,0c0-3,1.4-4.214,3.017-5.615a4.626,4.626,0,0,0,2.071-3.567,3.762,3.762,0,0,0-7.386-1.006l-.005.02a1.327,1.327,0,1,1-2.567-.675,6.415,6.415,0,0,1,12.611,1.661c0,2.967-1.389,4.17-3,5.563a4.674,4.674,0,0,0-2.09,3.62Z" transform="translate(-157.175 -103.352)"/>
        <path id="Trazado_1014386" data-name="Trazado 1014386" d="M225.815,330.285a3.43,3.43,0,1,0,3.43,3.43A3.434,3.434,0,0,0,225.815,330.285Zm0,4.757a1.326,1.326,0,1,1,1.326-1.326A1.328,1.328,0,0,1,225.815,335.042Z" transform="translate(-198.991 -295.54)"/>
        <path id="Trazado_1014387" data-name="Trazado 1014387" d="M101.193,101.944a1.052,1.052,0,1,0-.775-1.763h0a1.052,1.052,0,0,0,.775,1.762Z" transform="translate(-89.607 -89.337)"/>
      </g>
    </g>
  </g>
</svg>
