<svg xmlns="http://www.w3.org/2000/svg" xmlns:xlink="http://www.w3.org/1999/xlink" width="110" height="110" viewBox="0 0 110 110">
  <defs>
    <filter id="Trazado_982547" x="0" y="0" width="110" height="110" filterUnits="userSpaceOnUse">
      <feOffset dy="3" input="SourceAlpha"/>
      <feGaussianBlur stdDeviation="3" result="blur"/>
      <feFlood flood-opacity="0.161"/>
      <feComposite operator="in" in2="blur"/>
      <feComposite in="SourceGraphic"/>
    </filter>
  </defs>
  <g id="Grupo_1162574" data-name="Grupo 1162574" transform="translate(-4236.544 -2381.297)">
    <g id="Grupo_1162415" data-name="Grupo 1162415" transform="translate(3436.544 -3684.703)">
      <g id="Grupo_1158637" data-name="Grupo 1158637" transform="translate(-1 2772.334)">
        <g id="Grupo_1155724" data-name="Grupo 1155724" transform="translate(0 -1390)">
          <g id="Grupo_1154703" data-name="Grupo 1154703" transform="translate(0 1465.666)">
            <g id="Grupo_1150789" data-name="Grupo 1150789" transform="translate(3 2320)">
              <g id="Grupo_1154212" data-name="Grupo 1154212" transform="translate(-236 -5809)">
                <g id="Grupo_1152583" data-name="Grupo 1152583" transform="translate(1043 6713)">
                  <g id="Grupo_1146973" data-name="Grupo 1146973" transform="translate(0 0)">
                    <g id="Grupo_1146954" data-name="Grupo 1146954">
                      <g transform="matrix(1, 0, 0, 1, -9, -6)" filter="url(#Trazado_982547)">
                        <g id="Trazado_982547-2" data-name="Trazado 982547" transform="translate(9 6)" fill="#fcf3f0">
                          <path d="M 46 90.49987030029297 C 39.99187850952148 90.49987030029297 34.16426849365234 89.32350921630859 28.67905426025391 87.00345611572266 C 23.38019943237305 84.76224517822266 18.62104034423828 81.55341339111328 14.53374671936035 77.46613311767578 C 10.44646644592285 73.37885284423828 7.237639904022217 68.61969757080078 4.996413230895996 63.32085418701172 C 2.676359891891479 57.83565521240234 1.5 52.008056640625 1.5 45.99993515014648 C 1.5 39.99181365966797 2.676359891891479 34.16421508789062 4.996413230895996 28.67901420593262 C 7.237639904022217 23.38017463684082 10.44646644592285 18.62101554870605 14.53374671936035 14.53373527526855 C 18.62104034423828 10.44645500183105 23.38019943237305 7.23762845993042 28.67905426025391 4.996415138244629 C 34.16426849365234 2.676361799240112 39.99187850952148 1.500001788139343 46 1.500001788139343 C 52.00812149047852 1.500001788139343 57.83573150634766 2.676361799240112 63.32094573974609 4.996415138244629 C 68.61979675292969 7.23762845993042 73.37895965576172 10.44645500183105 77.46625518798828 14.53373527526855 C 81.55353546142578 18.62101554870605 84.76235961914062 23.38017463684082 87.00358581542969 28.67901420593262 C 89.32363891601562 34.16421508789062 90.5 39.99181365966797 90.5 45.99993515014648 C 90.5 52.008056640625 89.32363891601562 57.83565521240234 87.00358581542969 63.32085418701172 C 84.76235961914062 68.61969757080078 81.55353546142578 73.37885284423828 77.46625518798828 77.46613311767578 C 73.37895965576172 81.55341339111328 68.61979675292969 84.76224517822266 63.32094573974609 87.00345611572266 C 57.83573150634766 89.32350921630859 52.00812149047852 90.49987030029297 46 90.49987030029297 Z" stroke="none"/>
                          <path d="M 46 2.999992370605469 C 40.1937141418457 2.999992370605469 34.56269836425781 4.136489868164062 29.26337051391602 6.377906799316406 C 24.14332580566406 8.543502807617188 19.54441070556641 11.64437866210938 15.59439849853516 15.59437561035156 C 11.64440155029297 19.54439544677734 8.54351806640625 24.14329528808594 6.377914428710938 29.26333618164062 C 4.136497497558594 34.56264877319336 3 40.19366455078125 3 45.99993515014648 C 3 51.80620574951172 4.136497497558594 57.43720626831055 6.377914428710938 62.73651885986328 C 8.54351806640625 67.8565673828125 11.64440155029297 72.45545959472656 15.59439849853516 76.40547943115234 C 19.54441070556641 80.35547637939453 24.14332580566406 83.45635223388672 29.26337051391602 85.6219482421875 C 34.56269836425781 87.86336517333984 40.1937141418457 88.99986267089844 46 88.99986267089844 C 51.8062858581543 88.99986267089844 57.43730163574219 87.86336517333984 62.73661422729492 85.6219482421875 C 67.85667419433594 83.45635223388672 72.45557403564453 80.35547637939453 76.40558624267578 76.40547943115234 C 80.35559844970703 72.45545959472656 83.45647430419922 67.8565673828125 85.6220703125 62.73651885986328 C 87.86350250244141 57.43720626831055 89 51.80620574951172 89 45.99993515014648 C 89 40.19366455078125 87.86350250244141 34.56264877319336 85.6220703125 29.26333618164062 C 83.45647430419922 24.14329528808594 80.35559844970703 19.54439544677734 76.40558624267578 15.59437561035156 C 72.45557403564453 11.64437866210938 67.85667419433594 8.543502807617188 62.73661422729492 6.377906799316406 C 57.43730163574219 4.136489868164062 51.8062858581543 2.999992370605469 46 2.999992370605469 M 46 -7.62939453125e-06 C 71.40509033203125 -7.62939453125e-06 92 20.59486389160156 92 45.99993515014648 C 92 71.40499114990234 71.40509033203125 91.99986267089844 46 91.99986267089844 C 20.59490203857422 91.99986267089844 0 71.40499114990234 0 45.99993515014648 C 0 20.59486389160156 20.59490203857422 -7.62939453125e-06 46 -7.62939453125e-06 Z" stroke="none" fill="#e89076"/>
                        </g>
                      </g>
                    </g>
                  </g>
                </g>
              </g>
            </g>
          </g>
        </g>
      </g>
    </g>
    <g id="worker_2245238" transform="translate(4260 2401)">
      <g id="Grupo_1162572" data-name="Grupo 1162572">
        <g id="Grupo_1162571" data-name="Grupo 1162571">
          <path id="Trazado_1014516" data-name="Trazado 1014516" d="M21,62H15V53.06a9.668,9.668,0,0,1,.64-3.43,9.555,9.555,0,0,1,3.57-4.44,8.981,8.981,0,0,1,1.29-.71,9.3,9.3,0,0,1,2.62-.78l.64-.09,3.3,5.36L30,53.75,32,57v5Z" fill="#4fc1e9"/>
          <path id="Trazado_1014517" data-name="Trazado 1014517" d="M16.27,35.95a17.032,17.032,0,0,0,4.23,8.52v.01a8.981,8.981,0,0,0-1.29.71,9.555,9.555,0,0,0-3.57,4.44,20.478,20.478,0,0,1-5.58-12.64Z" fill="#4fc1e9"/>
          <path id="Trazado_1014518" data-name="Trazado 1014518" d="M47.73,35.95l6.21,1.04a20.478,20.478,0,0,1-5.58,12.64,9.637,9.637,0,0,0-.48-1.03,9.517,9.517,0,0,0-3.09-3.41,8.981,8.981,0,0,0-1.29-.71v-.01a17.032,17.032,0,0,0,4.23-8.52Z" fill="#4fc1e9"/>
          <path id="Trazado_1014519" data-name="Trazado 1014519" d="M43,62H32V57l2-3.25,2.94-4.78,3.3-5.36.64.09a9.3,9.3,0,0,1,2.62.78,8.981,8.981,0,0,1,1.29.71,9.517,9.517,0,0,1,3.09,3.41A9.235,9.235,0,0,1,49,53.06V62Z" fill="#4fc1e9"/>
        </g>
        <path id="Trazado_1014520" data-name="Trazado 1014520" d="M32,46l-2,7.75-2.94-4.78Z" fill="#ffeaa7"/>
        <path id="Trazado_1014521" data-name="Trazado 1014521" d="M36.94,48.97,34,53.75,32,46Z" fill="#ffeaa7"/>
        <path id="Trazado_1014522" data-name="Trazado 1014522" d="M32,46l2,7.75L32,57l-2-3.25Z" fill="#e6e9ed"/>
        <path id="Trazado_1014523" data-name="Trazado 1014523" d="M32,46l-4.94,2.97-3.3-5.36L28,43Z" fill="#ccd1d9"/>
        <path id="Trazado_1014524" data-name="Trazado 1014524" d="M40.24,43.61l-3.3,5.36L32,46l4-3Z" fill="#ccd1d9"/>
        <path id="Trazado_1014525" data-name="Trazado 1014525" d="M16.27,35.95l-6.21,1.04c-.04-.49-.06-.98-.06-1.48V33.85a1,1,0,0,0-.84-.99l-3.19-.53A2.362,2.362,0,0,1,4,30a2.006,2.006,0,0,1,2-2h5.07A4.917,4.917,0,0,1,16,32.93a16.875,16.875,0,0,0,.27,3.02Z" fill="#f0d0b4"/>
        <path id="Trazado_1014526" data-name="Trazado 1014526" d="M58,28a2.006,2.006,0,0,1,2,2,2.362,2.362,0,0,1-1.97,2.33l-3.19.53a1,1,0,0,0-.84.99v1.66c0,.5-.02.99-.06,1.48l-6.21-1.04A16.875,16.875,0,0,0,48,32.93,4.917,4.917,0,0,1,52.93,28Z" fill="#f0d0b4"/>
        <path id="Trazado_1014527" data-name="Trazado 1014527" d="M24,28a2.772,2.772,0,0,0-1,.18V26a8,8,0,0,1,8-8h2a8,8,0,0,1,8,8v2.18A2.772,2.772,0,0,0,40,28H39a5.607,5.607,0,0,1-4.66-2.5L34,25a6.746,6.746,0,0,1-5.61,3H24Z" fill="#b27946"/>
        <path id="Trazado_1014528" data-name="Trazado 1014528" d="M35.07,39.29,36,43l-4,3-4-3,.93-3.71a6.992,6.992,0,0,0,6.14,0Z" fill="#f0d0b4"/>
        <path id="Trazado_1014529" data-name="Trazado 1014529" d="M40,28a2.772,2.772,0,0,1,1,.18A3,3,0,0,1,40,34H38.92A5.546,5.546,0,0,0,39,33V28Z" fill="#f0d0b4"/>
        <path id="Trazado_1014530" data-name="Trazado 1014530" d="M28.39,28A6.746,6.746,0,0,0,34,25l.34.5A5.607,5.607,0,0,0,39,28v5a5.546,5.546,0,0,1-.08,1,6.939,6.939,0,0,1-3.85,5.29,6.992,6.992,0,0,1-6.14,0A6.965,6.965,0,0,1,25.08,34,5.547,5.547,0,0,1,25,33V28Z" fill="#f0d0b4"/>
        <path id="Trazado_1014531" data-name="Trazado 1014531" d="M25,33a5.547,5.547,0,0,0,.08,1H24a3,3,0,0,1-1-5.82A2.772,2.772,0,0,1,24,28h1Z" fill="#f0d0b4"/>
        <path id="Trazado_1014532" data-name="Trazado 1014532" d="M24,9V3a1,1,0,0,1,1-1H39a1,1,0,0,1,1,1V9a1,1,0,0,1-1,1H32l-1.66,3.32A1.236,1.236,0,0,1,28,12.76V10H25A1,1,0,0,1,24,9Z" fill="#e6e9ed"/>
        <path id="Trazado_1014533" data-name="Trazado 1014533" d="M10,20v2a2.015,2.015,0,0,1-2,2,2.006,2.006,0,0,1-2-2V20h4Z" fill="#aab2bd"/>
        <path id="Trazado_1014534" data-name="Trazado 1014534" d="M10.09,19.64,10,20H6a13.425,13.425,0,0,0-2.65-5.21A6,6,0,0,1,8.73,5.04a6,6,0,0,1,3.93,9.74,12.6,12.6,0,0,0-2.57,4.86Z" fill="#ffeaa7"/>
        <circle id="Elipse_11841" data-name="Elipse 11841" cx="2" cy="2" r="2" transform="translate(6 11)" fill="#fcd770"/>
        <path id="Trazado_1014535" data-name="Trazado 1014535" d="M62,15v2.01l-1.79.59a1,1,0,0,0-.63.61c-.02.06-.05.12-.07.17a1.056,1.056,0,0,0,0,.87l.85,1.7-1.41,1.41-1.7-.85a1.056,1.056,0,0,0-.87,0c-.05.02-.11.05-.17.07a1,1,0,0,0-.61.63L55.01,24H52.99l-.59-1.79a1,1,0,0,0-.61-.63c-.06-.02-.12-.05-.17-.07a1.056,1.056,0,0,0-.87,0l-1.7.85-1.41-1.41.85-1.7a1.056,1.056,0,0,0,0-.87c-.02-.05-.05-.11-.07-.17a1,1,0,0,0-.63-.61L46,17.01V14.99l1.79-.59a1,1,0,0,0,.63-.61c.02-.06.05-.12.07-.17a1.056,1.056,0,0,0,0-.87l-.85-1.7,1.41-1.41,1.7.84a1.019,1.019,0,0,0,.87.01c.05-.02.11-.05.17-.07a1,1,0,0,0,.61-.63L52.99,8h2.02l.59,1.79a1,1,0,0,0,.61.63c.06.02.12.05.17.07a1.019,1.019,0,0,0,.87-.01l1.7-.84,1.41,1.41-.85,1.7a1.056,1.056,0,0,0,0,.87c.02.05.05.11.07.17a1,1,0,0,0,.63.61Zm-6,1a2,2,0,1,0-2,2A2.006,2.006,0,0,0,56,16Z" fill="#fcd770"/>
      </g>
      <g id="Grupo_1162573" data-name="Grupo 1162573">
        <path id="Trazado_1014536" data-name="Trazado 1014536" d="M54,13a3,3,0,1,0,3,3A3,3,0,0,0,54,13Zm0,4a1,1,0,1,1,1-1A1,1,0,0,1,54,17Z"/>
        <path id="Trazado_1014537" data-name="Trazado 1014537" d="M63,17.729V15c0-.725,0-.726-2.467-1.541l-.123-.266,1.164-2.343L59.15,8.426,56.78,9.573l-.233-.092L55.729,7H52.27l-.809,2.465-.27.125L48.85,8.426,46.426,10.85l1.147,2.37-.092.233L45,14.271V17.73l2.465.809.125.27-1.164,2.343,2.424,2.424,2.37-1.147.233.092L52.278,25h3.451l.809-2.465.27-.125,2.343,1.164,2.424-2.424-1.147-2.37.092-.233Zm-3.106-1.083a2.047,2.047,0,0,0-1.254,1.225l-.049.117a2.034,2.034,0,0,0,.028,1.71l.523,1.054-.391.391L57.7,20.62a2.015,2.015,0,0,0-1.708-.028l-.142.059a2.03,2.03,0,0,0-1.2,1.244L54.282,23h-.564l-.364-1.106a2.047,2.047,0,0,0-1.225-1.254l-.117-.049a2.034,2.034,0,0,0-1.71.028l-1.054.523-.391-.391L49.38,19.7a2.022,2.022,0,0,0,.028-1.708l-.059-.142a2.03,2.03,0,0,0-1.244-1.2L47,16.282v-.564l1.106-.364a2.047,2.047,0,0,0,1.254-1.225l.049-.117a2.034,2.034,0,0,0-.028-1.71l-.523-1.054.391-.391,1.055.523a2.015,2.015,0,0,0,1.708.028l.142-.059a2.03,2.03,0,0,0,1.2-1.244L53.718,9h.564l.364,1.106a2.047,2.047,0,0,0,1.225,1.254l.117.049a2.034,2.034,0,0,0,1.71-.028l1.054-.523.391.391L58.62,12.3a2.022,2.022,0,0,0-.028,1.708l.059.142a2.029,2.029,0,0,0,1.243,1.2L61,15.721v.562Z"/>
        <path id="Trazado_1014538" data-name="Trazado 1014538" d="M27,5h2V7H27Z"/>
        <path id="Trazado_1014539" data-name="Trazado 1014539" d="M31,5h2V7H31Z"/>
        <path id="Trazado_1014540" data-name="Trazado 1014540" d="M35,5h2V7H35Z"/>
        <path id="Trazado_1014541" data-name="Trazado 1014541" d="M25,11h2v1.764a2.236,2.236,0,0,0,4.236,1L32.618,11H39a2,2,0,0,0,2-2V3a2,2,0,0,0-2-2H25a2,2,0,0,0-2,2V9A2,2,0,0,0,25,11Zm0-8H39l0,6h-7.62l-1.934,3.868a.245.245,0,0,1-.448-.1V9H25Z"/>
        <path id="Trazado_1014542" data-name="Trazado 1014542" d="M5,22a3,3,0,0,0,6,0V20.124l.062-.246a11.524,11.524,0,0,1,2.376-4.47A6.959,6.959,0,0,0,14.916,9.9a7,7,0,1,0-12.339,5.53A12.292,12.292,0,0,1,5,20.148Zm2-9a1,1,0,1,1,1,1A1,1,0,0,1,7,13ZM8,23a1,1,0,0,1-1-1V21H9v1A1,1,0,0,1,8,23ZM3,11a5,5,0,1,1,8.885,3.147A13.737,13.737,0,0,0,9.227,19H9V15.816a3,3,0,1,0-2,0V19H6.758a14.4,14.4,0,0,0-2.632-4.841A5,5,0,0,1,3,11Z"/>
        <circle id="Elipse_11842" data-name="Elipse 11842" cx="1" cy="1" r="1" transform="translate(28 30)"/>
        <circle id="Elipse_11843" data-name="Elipse 11843" cx="1" cy="1" r="1" transform="translate(34 30)"/>
        <path id="Trazado_1014543" data-name="Trazado 1014543" d="M35.789,34.658l.1-.211-1.789-.9-.1.212a2.236,2.236,0,0,1-4,0l-.1-.211-1.789.9.1.211a4.236,4.236,0,0,0,7.578,0Z"/>
        <path id="Trazado_1014544" data-name="Trazado 1014544" d="M58,27H52.93A5.936,5.936,0,0,0,47,32.93a16.016,16.016,0,0,1-3.792,10.342,10.474,10.474,0,0,0-2.191-.566l-4.209-.6-.582-2.325A8.018,8.018,0,0,0,39.737,35H40a3.987,3.987,0,0,0,2-7.444V26a9.01,9.01,0,0,0-9-9H31a9.01,9.01,0,0,0-9,9v1.556A3.987,3.987,0,0,0,24,35h.263a8.011,8.011,0,0,0,3.511,4.78L27.192,42.1l-4.209.6a10.458,10.458,0,0,0-2.191.566A16.018,16.018,0,0,1,17,32.93,5.936,5.936,0,0,0,11.07,27H6a3,3,0,0,0-3,3,3.351,3.351,0,0,0,2.809,3.315L9,33.847v1.668a21.381,21.381,0,0,0,5.52,14.348,10.433,10.433,0,0,0-.52,3.2V63H50V53.064a10.439,10.439,0,0,0-.52-3.2A21.379,21.379,0,0,0,55,35.515V33.847l3.192-.531A3.353,3.353,0,0,0,61,30a3,3,0,0,0-3-3ZM38.592,44.38,36.61,47.6l-2.821-1.692,2.479-1.859ZM32,55.092l-.925-1.5L32,50l.925,3.585ZM28.438,49.3l1.984-1.19-.8,3.109Zm5.943,1.92-.8-3.109,1.984,1.19ZM40,33V29a2,2,0,0,1,0,4ZM24,26a7.009,7.009,0,0,1,7-7h2a7.009,7.009,0,0,1,7,7v1H39a4.6,4.6,0,0,1-3.832-2.051L34,23.2l-.832,1.248A5.724,5.724,0,0,1,28.4,27H24Zm-2,5a2,2,0,0,1,2-2v4A2,2,0,0,1,22,31Zm4,2V29h2.4a7.721,7.721,0,0,0,5.554-2.349A6.588,6.588,0,0,0,38,28.924V33a6,6,0,0,1-12,0Zm6,8a7.99,7.99,0,0,0,2.379-.361l.489,1.96L32,44.75,29.131,42.6l.489-1.96A7.97,7.97,0,0,0,32,41Zm-4.268,3.048,2.479,1.859L27.39,47.6l-1.981-3.219ZM6.138,31.343A1.359,1.359,0,0,1,5,30a1,1,0,0,1,1-1h5.07A3.934,3.934,0,0,1,15,32.93a18.044,18.044,0,0,0,.15,2.2l-4.136.689c0-.1-.014-.2-.014-.3V33.847a2,2,0,0,0-1.672-1.973Zm5.013,6.479L15.5,37.1a17.975,17.975,0,0,0,3.449,7.089c-.1.06-.2.11-.294.173a10.437,10.437,0,0,0-3.247,3.481A19.347,19.347,0,0,1,11.151,37.822ZM16,53.064a8.46,8.46,0,0,1,7.251-8.375L31,57.283V61H22V52H20v9H16ZM48,61H44V52H42v9H33V57.283L40.75,44.69A8.459,8.459,0,0,1,48,53.064ZM45.341,44.358c-.094-.063-.2-.113-.294-.173A17.988,17.988,0,0,0,48.5,37.1l4.353.725a19.354,19.354,0,0,1-4.26,10.018,10.46,10.46,0,0,0-3.248-3.481ZM57.863,31.343l-3.193.531A2,2,0,0,0,53,33.847v1.668c0,.1-.013.2-.014.3l-4.136-.689a18.074,18.074,0,0,0,.15-2.2A3.934,3.934,0,0,1,52.93,29H58a1,1,0,0,1,1,1,1.359,1.359,0,0,1-1.137,1.343Z"/>
      </g>
    </g>
  </g>
</svg>
