<svg xmlns="http://www.w3.org/2000/svg" xmlns:xlink="http://www.w3.org/1999/xlink" width="110" height="110" viewBox="0 0 110 110">
  <defs>
    <filter id="Trazado_982547" x="0" y="0" width="110" height="110" filterUnits="userSpaceOnUse">
      <feOffset dy="3" input="SourceAlpha"/>
      <feGaussianBlur stdDeviation="3" result="blur"/>
      <feFlood flood-opacity="0.161"/>
      <feComposite operator="in" in2="blur"/>
      <feComposite in="SourceGraphic"/>
    </filter>
  </defs>
  <g id="Grupo_1162595" data-name="Grupo 1162595" transform="translate(-4236.544 -3093)">
    <g id="Grupo_1162419" data-name="Grupo 1162419" transform="translate(3436.544 -2973)">
      <g id="Grupo_1158637" data-name="Grupo 1158637" transform="translate(-1 2772.334)">
        <g id="Grupo_1155724" data-name="Grupo 1155724" transform="translate(0 -1390)">
          <g id="Grupo_1154703" data-name="Grupo 1154703" transform="translate(0 1465.666)">
            <g id="Grupo_1150789" data-name="Grupo 1150789" transform="translate(3 2320)">
              <g id="Grupo_1154212" data-name="Grupo 1154212" transform="translate(-236 -5809)">
                <g id="Grupo_1152583" data-name="Grupo 1152583" transform="translate(1043 6713)">
                  <g id="Grupo_1146973" data-name="Grupo 1146973" transform="translate(0 0)">
                    <g id="Grupo_1146954" data-name="Grupo 1146954">
                      <g transform="matrix(1, 0, 0, 1, -9, -6)" filter="url(#Trazado_982547)">
                        <g id="Trazado_982547-2" data-name="Trazado 982547" transform="translate(9 6)" fill="#fcf3f0">
                          <path d="M 46 90.49987030029297 C 39.99187850952148 90.49987030029297 34.16426849365234 89.32350921630859 28.67905426025391 87.00345611572266 C 23.38019943237305 84.76224517822266 18.62104034423828 81.55341339111328 14.53374671936035 77.46613311767578 C 10.44646644592285 73.37885284423828 7.237639904022217 68.61969757080078 4.996413230895996 63.32085418701172 C 2.676359891891479 57.83565521240234 1.5 52.008056640625 1.5 45.99993515014648 C 1.5 39.99181365966797 2.676359891891479 34.16421508789062 4.996413230895996 28.67901420593262 C 7.237639904022217 23.38017463684082 10.44646644592285 18.62101554870605 14.53374671936035 14.53373527526855 C 18.62104034423828 10.44645500183105 23.38019943237305 7.23762845993042 28.67905426025391 4.996415138244629 C 34.16426849365234 2.676361799240112 39.99187850952148 1.500001788139343 46 1.500001788139343 C 52.00812149047852 1.500001788139343 57.83573150634766 2.676361799240112 63.32094573974609 4.996415138244629 C 68.61979675292969 7.23762845993042 73.37895965576172 10.44645500183105 77.46625518798828 14.53373527526855 C 81.55353546142578 18.62101554870605 84.76235961914062 23.38017463684082 87.00358581542969 28.67901420593262 C 89.32363891601562 34.16421508789062 90.5 39.99181365966797 90.5 45.99993515014648 C 90.5 52.008056640625 89.32363891601562 57.83565521240234 87.00358581542969 63.32085418701172 C 84.76235961914062 68.61969757080078 81.55353546142578 73.37885284423828 77.46625518798828 77.46613311767578 C 73.37895965576172 81.55341339111328 68.61979675292969 84.76224517822266 63.32094573974609 87.00345611572266 C 57.83573150634766 89.32350921630859 52.00812149047852 90.49987030029297 46 90.49987030029297 Z" stroke="none"/>
                          <path d="M 46 2.999992370605469 C 40.1937141418457 2.999992370605469 34.56269836425781 4.136489868164062 29.26337051391602 6.377906799316406 C 24.14332580566406 8.543502807617188 19.54441070556641 11.64437866210938 15.59439849853516 15.59437561035156 C 11.64440155029297 19.54439544677734 8.54351806640625 24.14329528808594 6.377914428710938 29.26333618164062 C 4.136497497558594 34.56264877319336 3 40.19366455078125 3 45.99993515014648 C 3 51.80620574951172 4.136497497558594 57.43720626831055 6.377914428710938 62.73651885986328 C 8.54351806640625 67.8565673828125 11.64440155029297 72.45545959472656 15.59439849853516 76.40547943115234 C 19.54441070556641 80.35547637939453 24.14332580566406 83.45635223388672 29.26337051391602 85.6219482421875 C 34.56269836425781 87.86336517333984 40.1937141418457 88.99986267089844 46 88.99986267089844 C 51.8062858581543 88.99986267089844 57.43730163574219 87.86336517333984 62.73661422729492 85.6219482421875 C 67.85667419433594 83.45635223388672 72.45557403564453 80.35547637939453 76.40558624267578 76.40547943115234 C 80.35559844970703 72.45545959472656 83.45647430419922 67.8565673828125 85.6220703125 62.73651885986328 C 87.86350250244141 57.43720626831055 89 51.80620574951172 89 45.99993515014648 C 89 40.19366455078125 87.86350250244141 34.56264877319336 85.6220703125 29.26333618164062 C 83.45647430419922 24.14329528808594 80.35559844970703 19.54439544677734 76.40558624267578 15.59437561035156 C 72.45557403564453 11.64437866210938 67.85667419433594 8.543502807617188 62.73661422729492 6.377906799316406 C 57.43730163574219 4.136489868164062 51.8062858581543 2.999992370605469 46 2.999992370605469 M 46 -7.62939453125e-06 C 71.40509033203125 -7.62939453125e-06 92 20.59486389160156 92 45.99993515014648 C 92 71.40499114990234 71.40509033203125 91.99986267089844 46 91.99986267089844 C 20.59490203857422 91.99986267089844 0 71.40499114990234 0 45.99993515014648 C 0 20.59486389160156 20.59490203857422 -7.62939453125e-06 46 -7.62939453125e-06 Z" stroke="none" fill="#e89076"/>
                        </g>
                      </g>
                    </g>
                  </g>
                </g>
              </g>
            </g>
          </g>
        </g>
      </g>
    </g>
    <g id="brokerage_18253550" transform="translate(4257.148 3115)">
      <g id="Grupo_1162593" data-name="Grupo 1162593" transform="translate(5.002 0.953)">
        <path id="Trazado_1014609" data-name="Trazado 1014609" d="M181.4,18.277h17.776c0-4.027.682-7.014-4.066-7.4a.619.619,0,0,1-.515-.335.535.535,0,0,1,.06-.58l.79-1.046a.535.535,0,0,0,.043-.6A.615.615,0,0,0,194.933,8h-5.718c-4.04,0-7.815,2.407-7.815,6.456Z" transform="translate(-161.216 -8)" fill="#303542" fill-rule="evenodd"/>
        <path id="Trazado_1014610" data-name="Trazado 1014610" d="M182.846,82.02h14.871a1.459,1.459,0,0,1,1.453,1.456v1.856a1.459,1.459,0,0,1-1.453,1.456H182.846a1.459,1.459,0,0,1-1.456-1.456V83.475A1.46,1.46,0,0,1,182.846,82.02Z" transform="translate(-161.207 -73.198)" fill="#e2aa73" fill-rule="evenodd"/>
        <path id="Trazado_1014611" data-name="Trazado 1014611" d="M160.487,142.03h6.562v2.558a3.094,3.094,0,0,0,1.823,2.859c3.076,1.433,7.394,1.771,7.394,5.752v9.884a.582.582,0,0,1-.58.584H151.85a.584.584,0,0,1-.58-.584V153.2c0-3.981,4.322-4.319,7.394-5.752a3.094,3.094,0,0,0,1.823-2.859Z" transform="translate(-134.676 -126.056)" fill="#edf6ff" fill-rule="evenodd"/>
        <path id="Trazado_1014612" data-name="Trazado 1014612" d="M226.725,142.03h6.562v2.558a3.177,3.177,0,0,0,.256,1.269v3.138H226.47v-3.138a3.2,3.2,0,0,0,.256-1.269V142.03Z" transform="translate(-200.914 -126.056)" fill="#e2aa73" fill-rule="evenodd"/>
        <path id="Trazado_1014613" data-name="Trazado 1014613" d="M214.2,57.707l.807.538a2.4,2.4,0,0,0,1.384.42h.472a1.8,1.8,0,0,1,1.8,1.8v3.906a5.722,5.722,0,0,1-5.705,5.705h-.275a5.722,5.722,0,0,1-5.705-5.705v-3.9a1.8,1.8,0,0,1,1.8-1.8h.471a2.393,2.393,0,0,0,1.384-.42l.807-.538A2.435,2.435,0,0,1,214.2,57.707Z" transform="translate(-183.738 -51.403)" fill="#fbbd80" fill-rule="evenodd"/>
        <path id="Trazado_1014614" data-name="Trazado 1014614" d="M232.5,223.85l-1.489,2.024-1.711,7.985.229,1.875h5.939l.234-1.875-1.713-7.985Z" transform="translate(-203.407 -198.125)" fill="#2f5274" fill-rule="evenodd"/>
        <path id="Trazado_1014615" data-name="Trazado 1014615" d="M234.226,200.47l-1.938,4.81h-2.977l-1.941-4.81h6.856Z" transform="translate(-201.707 -177.531)" fill="#223c55" fill-rule="evenodd"/>
        <path id="Trazado_1014616" data-name="Trazado 1014616" d="M214.36,175.668a3.075,3.075,0,0,0,1.443-1.528l3.04,3.138-3.84,3.6Z" transform="translate(-190.247 -154.339)" fill="#2f5274" fill-rule="evenodd"/>
        <path id="Trazado_1014617" data-name="Trazado 1014617" d="M264.784,175.668a3.075,3.075,0,0,1-1.443-1.528l-3.04,3.138,3.84,3.6Z" transform="translate(-230.712 -154.339)" fill="#2f5274" fill-rule="evenodd"/>
        <path id="Trazado_1014618" data-name="Trazado 1014618" d="M398.44,284.591l-5.9,1.26a.6.6,0,0,0-.462.711l3.5,16.39a.6.6,0,0,0,.712.462l5.9-1.26a.6.6,0,0,0,.459-.712l-3.5-16.393A.6.6,0,0,0,398.44,284.591Z" transform="translate(-346.776 -251.615)" fill="#0593fc" fill-rule="evenodd"/>
        <path id="Trazado_1014619" data-name="Trazado 1014619" d="M20.5,63.081a8.461,8.461,0,1,0-8.461-8.461A8.474,8.474,0,0,0,20.5,63.081Z" transform="translate(-12.04 -41.612)" fill="#ffd400" fill-rule="evenodd"/>
        <path id="Trazado_1014620" data-name="Trazado 1014620" d="M378.442,114.18H362.63v7.6a.977.977,0,0,0,.994.955h13.825a.977.977,0,0,0,.994-.955v-7.6Z" transform="translate(-320.846 -101.525)" fill="#e2aa73" fill-rule="evenodd"/>
        <path id="Trazado_1014621" data-name="Trazado 1014621" d="M374.061,82.989l-7.5.931a.977.977,0,0,1-.236,0l-7.506-.931a.951.951,0,0,1-.837-.947V78.565a.958.958,0,0,1,.955-.955h15.012a.958.958,0,0,1,.955.955V82.04A.954.954,0,0,1,374.061,82.989Z" transform="translate(-316.751 -69.314)" fill="#986b54" fill-rule="evenodd"/>
        <path id="Trazado_1014622" data-name="Trazado 1014622" d="M13.962,54.621a8.464,8.464,0,0,1,7.5-8.408,9.175,9.175,0,0,0-.961-.052,8.461,8.461,0,1,0,0,16.921,8.3,8.3,0,0,0,.961-.056A8.457,8.457,0,0,1,13.962,54.621Z" transform="translate(-12.04 -41.612)" fill="#e6bf00" fill-rule="evenodd"/>
        <path id="Trazado_1014623" data-name="Trazado 1014623" d="M68.42,303.577l2.842.607c11.031,1.17,16.825,13.69,34.149,1.049l6.68-1.427-2.846-14.7-5.469,1.167c-10.451-6.037-18.813-2.391-26.459-.1l-2.925-.627-2.7-.577Z" transform="translate(-61.701 -253.724)" fill="#fbbd80" fill-rule="evenodd"/>
        <path id="Trazado_1014624" data-name="Trazado 1014624" d="M68.42,318.338l2.842.607a16.081,16.081,0,0,1,1.859.309L76.234,304.7l-1.843-.393-2.7-.577Z" transform="translate(-61.701 -268.485)" fill="#e2aa73" fill-rule="evenodd"/>
        <path id="Trazado_1014625" data-name="Trazado 1014625" d="M229.321,287.365a24.606,24.606,0,0,0-9.631.23A25.96,25.96,0,0,1,229.321,287.365Z" transform="translate(-194.942 -253.74)" fill="#e2aa73" fill-rule="evenodd"/>
        <path id="Trazado_1014626" data-name="Trazado 1014626" d="M192.246,289.336l-5.469,1.167c-4.623-2.8-10.191-4.125-17.377-2.689l-5.5,5.128c-4.132,3.817,2.949,4.273,7.564-.331,3.46,6.607,12.288,6.811,16.95,12.848l6.68-1.427Z" transform="translate(-144.701 -253.95)" fill="#c79169" fill-rule="evenodd"/>
        <path id="Trazado_1014627" data-name="Trazado 1014627" d="M382.2,304.91l-3.892.829,3.129,14.638,3.61-.77Z" transform="translate(-334.658 -269.524)" fill="#b3835f" fill-rule="evenodd"/>
        <path id="Trazado_1014628" data-name="Trazado 1014628" d="M126.39,413.167l2.758-2.43a2.095,2.095,0,1,0-2.771-3.142l-2.754,2.43a2.093,2.093,0,1,0,2.767,3.142Z" transform="translate(-109.701 -359.513)" fill="#c79169" fill-rule="evenodd"/>
        <path id="Trazado_1014629" data-name="Trazado 1014629" d="M160.78,429.707l2.758-2.43a2.095,2.095,0,1,0-2.771-3.142l-2.754,2.43a2.093,2.093,0,1,0,2.767,3.142Z" transform="translate(-139.992 -374.082)" fill="#c79169" fill-rule="evenodd"/>
        <path id="Trazado_1014630" data-name="Trazado 1014630" d="M200.423,441.587l2.754-2.43a2.093,2.093,0,1,0-2.767-3.142l-2.758,2.43a2.095,2.095,0,1,0,2.771,3.142Z" transform="translate(-174.908 -384.546)" fill="#c79169" fill-rule="evenodd"/>
        <path id="Trazado_1014631" data-name="Trazado 1014631" d="M238.819,461.468l1.7-1.5a2.1,2.1,0,0,0,.187-2.955h0a2.1,2.1,0,0,0-2.954-.187l-1.7,1.5a2.095,2.095,0,1,0,2.771,3.142Z" transform="translate(-208.728 -402.876)" fill="#c79169" fill-rule="evenodd"/>
        <path id="Trazado_1014632" data-name="Trazado 1014632" d="M398.44,284.591l-5.9,1.26a.6.6,0,0,0-.462.711l3.5,16.39a.6.6,0,0,0,.712.462l5.9-1.26a.6.6,0,0,0,.459-.712l-3.5-16.393A.6.6,0,0,0,398.44,284.591Z" transform="translate(-346.776 -251.615)" fill="#0593fc" fill-rule="evenodd"/>
        <path id="Trazado_1014633" data-name="Trazado 1014633" d="M35.508,284.591l5.9,1.26a.6.6,0,0,1,.459.711l-3.5,16.389a.6.6,0,0,1-.712.462l-5.9-1.26a.6.6,0,0,1-.462-.712l3.5-16.392A.6.6,0,0,1,35.508,284.591Z" transform="translate(-28.986 -251.615)" fill="#0593fc" fill-rule="evenodd"/>
        <path id="Trazado_1014634" data-name="Trazado 1014634" d="M363.912,128.74v-6.456l-1-.125a1.036,1.036,0,0,1-.282-.079v6.66a.977.977,0,0,0,.994.955h1.282A.977.977,0,0,1,363.912,128.74Z" transform="translate(-320.846 -108.484)" fill="#cb9968" fill-rule="evenodd"/>
        <path id="Trazado_1014635" data-name="Trazado 1014635" d="M358.817,82.989l1,.125v-.2a.957.957,0,0,1-.551-.869V78.565a.956.956,0,0,1,.955-.955h-1.286a.958.958,0,0,0-.955.955V82.04a.954.954,0,0,0,.554.869A.986.986,0,0,0,358.817,82.989Z" transform="translate(-316.751 -69.314)" fill="#89604c" fill-rule="evenodd"/>
      </g>
      <g id="Grupo_1162594" data-name="Grupo 1162594" transform="translate(4.05 0)">
        <path id="Trazado_1014636" data-name="Trazado 1014636" d="M58.311,34.188A1.561,1.561,0,0,0,56.473,33h0l-5.89,1.259a1.552,1.552,0,0,0-1.208,1.789l-1.82.391V28.1c0-3.746-3.212-4.876-5.792-5.784-.768-.271-1.492-.526-2.154-.833a2.158,2.158,0,0,1-1.274-2v-.331A6.673,6.673,0,0,0,40.684,15.5h.828a2.412,2.412,0,0,0,2.409-2.409V11.233c0-.027,0-.055,0-.082,0,0,0-.008,0-.013,0-.423.01-.837.018-1.237A10.256,10.256,0,0,0,43.4,5.324c-.641-1.337-1.856-2.1-3.79-2.369L40,2.44A1.5,1.5,0,0,0,40.113.814c0-.006-.006-.012-.01-.017A1.569,1.569,0,0,0,38.721,0H33a9.887,9.887,0,0,0-6,1.907,6.818,6.818,0,0,0-2.766,5.5v5.675A2.41,2.41,0,0,0,26.64,15.5h.832a6.669,6.669,0,0,0,2.391,3.684v.3a2.155,2.155,0,0,1-1.274,2c-.661.309-1.386.564-2.154.833-2.58.908-5.792,2.038-5.792,5.784v8.3l-.067.02-1.752-.375a1.552,1.552,0,0,0-1.2-1.787L11.724,33h0a1.555,1.555,0,0,0-1.839,1.2l-3.5,16.393a1.554,1.554,0,0,0,1.2,1.839l5.9,1.261a1.584,1.584,0,0,0,.315.032,1.565,1.565,0,0,0,1.523-1.229l0-.012a16.426,16.426,0,0,1,1.952.447,3.041,3.041,0,0,0,4.211,2.925,3.044,3.044,0,0,0,2.739,2.2c.066,0,.13.006.2.006a3.026,3.026,0,0,0,1.846-.626,3.045,3.045,0,0,0,2.685,2.036c.067,0,.132.006.2.006a3.019,3.019,0,0,0,1.686-.514,3.05,3.05,0,0,0,4.9,1.305h0L37.374,58.8c3.634-.584,7.48-2.372,11.742-5.456l3.78-.807a1.557,1.557,0,0,0,1.829,1.139l5.89-1.259a1.555,1.555,0,0,0,1.2-1.845ZM49.09,51.409c-2.267-2.683-5.282-4.2-8.2-5.669-3.379-1.7-6.57-3.306-8.278-6.567a.953.953,0,0,0-1.517-.232,10.938,10.938,0,0,1-4.648,2.778,3.982,3.982,0,0,1-2.528.133,2.966,2.966,0,0,1,.934-1.207l5.308-4.953q.611-.122,1.231-.22a.926.926,0,0,0,.23-.036,23.7,23.7,0,0,1,4.966-.249.98.98,0,0,0,.188.02c.02,0,.042,0,.062,0a20.859,20.859,0,0,1,4.733.9c.038.014.077.026.118.037a24.771,24.771,0,0,1,4.915,2.2.952.952,0,0,0,.677.106l2.485-.533,2.73,12.774Zm-18.4-29.148,1.549,1.6-1.766,1.657-.338-2.752A3.913,3.913,0,0,0,30.692,22.261Zm3.4,2.472,1.5,1.405-.651,1.613H33.249L32.6,26.136Zm3.96-1.968-.341,2.752-.319-.3-.013-.012L35.951,23.86l1.549-1.6a4.159,4.159,0,0,0,.557.5Zm-4.68,6.891h1.44l.771,3.6a25.6,25.6,0,0,0-3.013.148ZM45.643,28.1v7.575a25.739,25.739,0,0,0-2.784-1.152v-1.9a.952.952,0,0,0-1.9,0v1.329a22.7,22.7,0,0,0-3.4-.592l-.98-4.571.505-1.253.695.652a.953.953,0,0,0,1.6-.578l.49-3.956c.418.161.843.311,1.259.458,2.8.986,4.519,1.705,4.519,3.987Zm-3.628-15.01a.509.509,0,0,1-.5.5h-.639V10.73h.639a.509.509,0,0,1,.5.5ZM33,1.906h5.01l-.328.435a1.505,1.505,0,0,0-.159,1.574l.008.018a1.582,1.582,0,0,0,1.286.852c2.97.241,3.249,1.4,3.225,4.1a2.389,2.389,0,0,0-.534-.062H40.6a2.754,2.754,0,0,0-2.479-1.561h-.47A1.421,1.421,0,0,1,36.8,7l-.807-.536a3.388,3.388,0,0,0-3.823,0l-.813.541a1.418,1.418,0,0,1-.852.26h-.47a2.753,2.753,0,0,0-2.479,1.561H26.64a2.374,2.374,0,0,0-.5.054V7.412C26.14,3.8,29.592,1.906,33,1.906ZM26.14,13.088V11.233a.5.5,0,0,1,.5-.5h.642v2.862H26.64A.5.5,0,0,1,26.14,13.088Zm3.047.834V10.014a.846.846,0,0,1,.845-.845h.47a3.327,3.327,0,0,0,1.913-.582l.809-.539a1.494,1.494,0,0,1,1.708,0h0l.8.534a3.329,3.329,0,0,0,1.918.585h.47a.846.846,0,0,1,.845.845v3.909A4.753,4.753,0,0,1,36.9,17.841a.85.85,0,0,0-.1.064,4.728,4.728,0,0,1-2.59.771h-.274a4.718,4.718,0,0,1-2.552-.746.93.93,0,0,0-.122-.08,4.751,4.751,0,0,1-2.08-3.928Zm4.753,6.659h.274a6.61,6.61,0,0,0,2.27-.4c.018.108.041.215.067.319L34.1,23.035,31.642,20.5c.025-.1.048-.2.064-.307a6.621,6.621,0,0,0,2.235.387ZM22.549,28.1c0-2.281,1.717-3,4.518-3.987.416-.147.839-.3,1.257-.456l.487,3.954a.953.953,0,0,0,1.6.579l.7-.654.505,1.254-1.049,4.9q-.509.089-1.012.192l-.026,0-.038.008-.029.006c-.752.156-1.492.334-2.223.526v-1.8a.952.952,0,0,0-1.9,0v2.332c-.913.269-1.81.551-2.693.827l-.091.029V28.1ZM8.314,50.635l3.356-15.7,5.207,1.113-.1.49c0,.014-.008.027-.011.041s0,.029-.007.042L13.64,51.191c0,.017-.008.033-.011.051l-.108.505ZM18.429,37.908l1.988.425a.946.946,0,0,0,.472-.019c.321-.1.645-.194.969-.294l.041-.012c.44-.136.88-.273,1.311-.409,1.04-.325,2.086-.653,3.14-.958l-2.795,2.608c-1.218,1.125-1.723,2.162-1.5,3.081a1.962,1.962,0,0,0,1.515,1.417,4.454,4.454,0,0,0,1.2.149A11.408,11.408,0,0,0,31.544,41.1c2.068,3.107,5.327,4.746,8.489,6.337,2.608,1.312,5.293,2.666,7.29,4.847a27.4,27.4,0,0,1-8.871,4.355,3.041,3.041,0,0,0-2.85-3.207,3.083,3.083,0,0,0-.713.038,3.044,3.044,0,0,0-4.848-1.9,3.051,3.051,0,0,0-4.047-1.808,3.042,3.042,0,0,0-4.941-1.444L18.3,50.753a3.049,3.049,0,0,0-.364.381,18.716,18.716,0,0,0-2.218-.522Zm1.024,15.887a1.146,1.146,0,0,1,.1-1.611l2.757-2.432a1.146,1.146,0,0,1,1.61.1,1.146,1.146,0,0,1-.1,1.613l-.773.683-.654.577-.019.018L21.065,53.9a1.145,1.145,0,0,1-1.613-.1Zm4.882,2.351a1.141,1.141,0,0,1-.692-1.984l.723-.639,2.044-1.8a1.126,1.126,0,0,1,.751-.284l.074,0a1.134,1.134,0,0,1,.785.383,1.155,1.155,0,0,1-.1,1.608l-.567.5-.232.2-.006.006-1.95,1.72a1.135,1.135,0,0,1-.828.281Zm5.554,1.136a1.142,1.142,0,0,1-1.515-1.709l.381-.336,2.381-2.1a1.126,1.126,0,0,1,.751-.284l.074,0a1.132,1.132,0,0,1,.784.381,1.148,1.148,0,0,1-.086,1.6l-.967.852-.032.03Zm4.575,1.549a1.141,1.141,0,0,1-1.528-1.695l.971-.856.027-.025.721-.635a1.126,1.126,0,0,1,.751-.284l.074,0a1.14,1.14,0,0,1,.684,1.994Zm20.207-7.083-3.356-15.7,5.207-1.113,3.356,15.7ZM13.462,23.375A9.412,9.412,0,1,0,4.05,13.963,9.425,9.425,0,0,0,13.462,23.375Zm0-16.919a7.507,7.507,0,1,1-7.507,7.507A7.517,7.517,0,0,1,13.462,6.456ZM10.755,12.24a2.681,2.681,0,0,1,1.753-2.512V8.972a.952.952,0,0,1,1.9,0V9.63a2.692,2.692,0,0,1,1.571,1.024.953.953,0,0,1-1.533,1.132.778.778,0,0,0-.622-.316h-.4a.771.771,0,0,0-.77.77.78.78,0,0,0,.77.77h.2a.951.951,0,0,1,.2.023,2.676,2.676,0,0,1,.582,5.168v.753a.952.952,0,0,1-1.9,0V18.3a2.684,2.684,0,0,1-1.567-1.024.953.953,0,1,1,1.534-1.131.773.773,0,0,0,.619.316h.4a.77.77,0,0,0,0-1.54h-.2a.984.984,0,0,1-.206-.023,2.681,2.681,0,0,1-2.331-2.654Zm53.351-2.033A1.909,1.909,0,0,0,62.2,8.3h-2V5.76a.952.952,0,0,0-.952-.952H50.137a.952.952,0,0,0-.952.952V8.3h-2a1.907,1.907,0,0,0-1.906,1.906v3.477a1.9,1.9,0,0,0,.551,1.34v6.188a1.929,1.929,0,0,0,1.946,1.906H61.606a1.929,1.929,0,0,0,1.946-1.906V15.025a1.9,1.9,0,0,0,.554-1.341ZM51.09,6.713H58.3V8.3H51.09Zm-3.9,3.493H62.2l0,3.477H62.2l-6.551.814v-.5a.952.952,0,1,0-1.9,0v.5l-6.555-.815Zm14.419,11H47.779a.065.065,0,0,1-.041-.012V15.671l6,.746V17.1a.952.952,0,1,0,1.9,0v-.688l6-.745V21.2A.067.067,0,0,1,61.606,21.209Z" transform="translate(-4.05 0)"/>
      </g>
    </g>
  </g>
</svg>
