<svg xmlns="http://www.w3.org/2000/svg" xmlns:xlink="http://www.w3.org/1999/xlink" width="110" height="110" viewBox="0 0 110 110">
  <defs>
    <filter id="Trazado_982547" x="0" y="0" width="110" height="110" filterUnits="userSpaceOnUse">
      <feOffset dy="3" input="SourceAlpha"/>
      <feGaussianBlur stdDeviation="3" result="blur"/>
      <feFlood flood-opacity="0.161"/>
      <feComposite operator="in" in2="blur"/>
      <feComposite in="SourceGraphic"/>
    </filter>
  </defs>
  <g id="Grupo_1162597" data-name="Grupo 1162597" transform="translate(-4551 -3094)">
    <g id="Grupo_1162420" data-name="Grupo 1162420" transform="translate(3436.196 -2972.54)">
      <g id="Grupo_1158638" data-name="Grupo 1158638" transform="translate(-1.195 2772.54)">
        <g id="Grupo_1155734" data-name="Grupo 1155734" transform="translate(0 -1390)">
          <g id="Grupo_1154704" data-name="Grupo 1154704" transform="translate(0 1466)">
            <g id="Grupo_1150790" data-name="Grupo 1150790" transform="translate(3 2320)">
              <g id="Grupo_1154214" data-name="Grupo 1154214" transform="translate(79 -5809)">
                <g id="Grupo_1152583" data-name="Grupo 1152583" transform="translate(1043 6713)">
                  <g id="Grupo_1146973" data-name="Grupo 1146973" transform="translate(0 0)">
                    <g id="Grupo_1146954" data-name="Grupo 1146954">
                      <g transform="matrix(1, 0, 0, 1, -9, -6)" filter="url(#Trazado_982547)">
                        <g id="Trazado_982547-2" data-name="Trazado 982547" transform="translate(9 6)" fill="#fcf3f0">
                          <path d="M 46 90.49987030029297 C 39.99187850952148 90.49987030029297 34.16426849365234 89.32350921630859 28.67905426025391 87.00345611572266 C 23.38019943237305 84.76224517822266 18.62104034423828 81.55341339111328 14.53374671936035 77.46613311767578 C 10.44646644592285 73.37885284423828 7.237639904022217 68.61969757080078 4.996413230895996 63.32085418701172 C 2.676359891891479 57.83565521240234 1.5 52.008056640625 1.5 45.99993515014648 C 1.5 39.99181365966797 2.676359891891479 34.16421508789062 4.996413230895996 28.67901420593262 C 7.237639904022217 23.38017463684082 10.44646644592285 18.62101554870605 14.53374671936035 14.53373527526855 C 18.62104034423828 10.44645500183105 23.38019943237305 7.23762845993042 28.67905426025391 4.996415138244629 C 34.16426849365234 2.676361799240112 39.99187850952148 1.500001788139343 46 1.500001788139343 C 52.00812149047852 1.500001788139343 57.83573150634766 2.676361799240112 63.32094573974609 4.996415138244629 C 68.61979675292969 7.23762845993042 73.37895965576172 10.44645500183105 77.46625518798828 14.53373527526855 C 81.55353546142578 18.62101554870605 84.76235961914062 23.38017463684082 87.00358581542969 28.67901420593262 C 89.32363891601562 34.16421508789062 90.5 39.99181365966797 90.5 45.99993515014648 C 90.5 52.008056640625 89.32363891601562 57.83565521240234 87.00358581542969 63.32085418701172 C 84.76235961914062 68.61969757080078 81.55353546142578 73.37885284423828 77.46625518798828 77.46613311767578 C 73.37895965576172 81.55341339111328 68.61979675292969 84.76224517822266 63.32094573974609 87.00345611572266 C 57.83573150634766 89.32350921630859 52.00812149047852 90.49987030029297 46 90.49987030029297 Z" stroke="none"/>
                          <path d="M 46 2.999992370605469 C 40.1937141418457 2.999992370605469 34.56269836425781 4.136489868164062 29.26337051391602 6.377906799316406 C 24.14332580566406 8.543502807617188 19.54441070556641 11.64437866210938 15.59439849853516 15.59437561035156 C 11.64440155029297 19.54439544677734 8.54351806640625 24.14329528808594 6.377914428710938 29.26333618164062 C 4.136497497558594 34.56264877319336 3 40.19366455078125 3 45.99993515014648 C 3 51.80620574951172 4.136497497558594 57.43720626831055 6.377914428710938 62.73651885986328 C 8.54351806640625 67.8565673828125 11.64440155029297 72.45545959472656 15.59439849853516 76.40547943115234 C 19.54441070556641 80.35547637939453 24.14332580566406 83.45635223388672 29.26337051391602 85.6219482421875 C 34.56269836425781 87.86336517333984 40.1937141418457 88.99986267089844 46 88.99986267089844 C 51.8062858581543 88.99986267089844 57.43730163574219 87.86336517333984 62.73661422729492 85.6219482421875 C 67.85667419433594 83.45635223388672 72.45557403564453 80.35547637939453 76.40558624267578 76.40547943115234 C 80.35559844970703 72.45545959472656 83.45647430419922 67.8565673828125 85.6220703125 62.73651885986328 C 87.86350250244141 57.43720626831055 89 51.80620574951172 89 45.99993515014648 C 89 40.19366455078125 87.86350250244141 34.56264877319336 85.6220703125 29.26333618164062 C 83.45647430419922 24.14329528808594 80.35559844970703 19.54439544677734 76.40558624267578 15.59437561035156 C 72.45557403564453 11.64437866210938 67.85667419433594 8.543502807617188 62.73661422729492 6.377906799316406 C 57.43730163574219 4.136489868164062 51.8062858581543 2.999992370605469 46 2.999992370605469 M 46 -7.62939453125e-06 C 71.40509033203125 -7.62939453125e-06 92 20.59486389160156 92 45.99993515014648 C 92 71.40499114990234 71.40509033203125 91.99986267089844 46 91.99986267089844 C 20.59490203857422 91.99986267089844 0 71.40499114990234 0 45.99993515014648 C 0 20.59486389160156 20.59490203857422 -7.62939453125e-06 46 -7.62939453125e-06 Z" stroke="none" fill="#e89076"/>
                        </g>
                      </g>
                    </g>
                  </g>
                </g>
              </g>
            </g>
          </g>
        </g>
      </g>
    </g>
    <g id="Layer_x0020_1" transform="translate(4570.444 3093.392)">
      <path id="Trazado_1014637" data-name="Trazado 1014637" d="M51.382,73.3a4.889,4.889,0,0,1-1.434-.13l.391,7.3h4.3V76.3a1.127,1.127,0,0,1,1.956-.782l3,2.869,4.694-4.694-3-2.869a1.174,1.174,0,0,1,.782-1.956h4.173v-6.65H62.075a1.191,1.191,0,0,1-.782-1.956l3-3L59.6,52.563l-3,3a1.2,1.2,0,0,1-1.956-.913V50.607H48.514l.522,7.433A7.811,7.811,0,1,1,51.382,73.3ZM41.211,82.816H3.787a1.169,1.169,0,0,1-1.174-1.174V70.167c0-1.826-.13-4.173,0-6L3.657,43.044a1.3,1.3,0,0,1,1.434-1.174l12.127,2.738a1.288,1.288,0,0,1,.913.913l3.13,17.6h2.869l1.043-17.6a1.376,1.376,0,0,1,1.174-1.174h5.216a1.376,1.376,0,0,1,1.174,1.174l1.043,17.6h1.565L37.3,28.831a1.376,1.376,0,0,1,1.174-1.174h7.563a1.169,1.169,0,0,1,1.174,1.174L48.383,48.26h7.433a1.169,1.169,0,0,1,1.174,1.174v2.478l1.7-1.826a1.368,1.368,0,0,1,1.7,0l6.259,6.39a.978.978,0,0,1,0,1.565l-1.7,1.826h2.478A1.169,1.169,0,0,1,68.6,61.039v8.867a1.169,1.169,0,0,1-1.174,1.174H64.944l1.7,1.826a1.112,1.112,0,0,1,0,1.7L60.38,80.86a1.368,1.368,0,0,1-1.7,0l-1.7-1.826v2.608a1.169,1.169,0,0,1-1.174,1.174ZM4.961,63.126H18.913l-3-16.43L6,44.479Zm36.642,0a1.14,1.14,0,0,1,.782,1.174V80.469h5.607L44.993,30H39.647L37.56,63.126C38.343,63.126,41.081,63,41.6,63.126ZM4.961,80.469H9.655V71.341H4.961Zm7.042,0H16.7V71.341H12Zm7.042,0H40.168v-15H4.961v3.521H17.87a1.169,1.169,0,0,1,1.174,1.174Zm30.644-9.649a5.646,5.646,0,0,0,7.172-5.346,5.575,5.575,0,0,0-7.694-5.086ZM26.476,63.126h4.955L30.388,46.7H27.52Zm-3.651,5.216h-3.26a1.11,1.11,0,1,1,0-2.217h3.26A1.11,1.11,0,1,1,22.825,68.341Zm7.172,0h-3.26a1.11,1.11,0,1,1,0-2.217H30A1.11,1.11,0,1,1,30,68.341Zm7.172,0h-3.26a1.11,1.11,0,1,1,0-2.217h3.26A1.11,1.11,0,1,1,37.169,68.341ZM9.264,49.173c-1.043,0-2.738.261-2.738-1.174s1.7-1.174,2.738-1.174A1.178,1.178,0,0,1,9.264,49.173Zm5.216,0c-.913,0-2.608.261-2.608-1.174s1.7-1.174,2.608-1.174A1.174,1.174,0,0,1,14.48,49.173ZM9.264,54.78c-1.043,0-2.738.261-2.738-1.174s1.7-1.043,2.738-1.043A1.109,1.109,0,0,1,9.264,54.78Zm5.216,0c-.913,0-2.608.261-2.608-1.174s1.7-1.043,2.608-1.043A1.11,1.11,0,1,1,14.48,54.78ZM9.264,60.518c-1.043,0-2.738.261-2.738-1.174s1.7-1.174,2.738-1.174A1.178,1.178,0,0,1,9.264,60.518Zm5.216,0c-.913,0-2.608.261-2.608-1.174s1.7-1.174,2.608-1.174A1.174,1.174,0,1,1,14.48,60.518ZM28.954,42.392a1.169,1.169,0,0,1-1.174-1.174V37.046a1.127,1.127,0,0,1,.391-.782l2.086-2.086,1.043-4.3a1.223,1.223,0,0,1,2.347.652l-1.3,4.564a12.649,12.649,0,0,1-2.217,2.478v3.651A1.169,1.169,0,0,1,28.954,42.392Zm13.3-15.778a1.237,1.237,0,0,1-.782-2.086L44.08,21.92a1.33,1.33,0,0,1,1.174-.261l4.564,1.174,4.434-1.174a1.139,1.139,0,1,1,.522,2.217l-4.564,1.3h-.652l-4.3-1.174-2.086,2.217A1.184,1.184,0,0,1,42.255,26.614Z" fill-rule="evenodd"/>
      <path id="Trazado_1014638" data-name="Trazado 1014638" d="M281.432,136.464l-3-50.464h-5.346L271,119.121c.782,0,3.521-.13,4.042,0a1.14,1.14,0,0,1,.782,1.174v16.169Z" transform="translate(-233.44 -55.996)" fill="#a64b1c" fill-rule="evenodd"/>
      <path id="Trazado_1014639" data-name="Trazado 1014639" d="M355.522,251.433a7.811,7.811,0,1,1,2.347,15.257,4.889,4.889,0,0,1-1.434-.13l.391,7.3h4.3v-4.173a1.127,1.127,0,0,1,1.956-.782l3,2.869,4.694-4.694-3-2.869a1.174,1.174,0,0,1,.782-1.956h4.173v-6.65h-4.173a1.191,1.191,0,0,1-.782-1.956l3-3-4.694-4.694-3,3a1.2,1.2,0,0,1-1.956-.913V244H355Z" transform="translate(-306.486 -193.393)" fill="#999" fill-rule="evenodd"/>
      <path id="Trazado_1014640" data-name="Trazado 1014640" d="M367.694,321.1A5.575,5.575,0,0,0,360,316.014l.522,10.432A5.646,5.646,0,0,0,367.694,321.1Z" transform="translate(-310.834 -255.627)" fill="#f3f3f3" fill-rule="evenodd"/>
      <path id="Trazado_1014641" data-name="Trazado 1014641" d="M56.208,373V358H21v3.521H33.909a1.169,1.169,0,0,1,1.174,1.174V373ZM38.865,360.869H35.6a1.11,1.11,0,1,1,0-2.217h3.26A1.11,1.11,0,1,1,38.865,360.869Zm7.172,0h-3.26a1.11,1.11,0,1,1,0-2.217h3.26A1.11,1.11,0,1,1,46.036,360.869Zm7.172,0h-3.26a1.11,1.11,0,1,1,0-2.217h3.26A1.11,1.11,0,1,1,53.208,360.869Z" transform="translate(-16.039 -292.527)" fill="#f69e07" fill-rule="evenodd"/>
      <path id="Trazado_1014642" data-name="Trazado 1014642" d="M190.955,230.43,189.912,214h-2.869L186,230.43Z" transform="translate(-159.524 -167.305)" fill="#a64b1c" fill-rule="evenodd"/>
      <path id="Trazado_1014643" data-name="Trazado 1014643" d="M34.953,215.647l-3-16.43L22.043,197,21,215.647Zm-4.434-4.955a1.174,1.174,0,1,1,0,2.347c-.913,0-2.608.261-2.608-1.174S29.606,210.692,30.519,210.692Zm-5.216-9c-1.043,0-2.738.261-2.738-1.174s1.7-1.174,2.738-1.174A1.178,1.178,0,0,1,25.3,201.694Zm0,5.607c-1.043,0-2.738.261-2.738-1.174s1.7-1.043,2.738-1.043A1.109,1.109,0,0,1,25.3,207.3Zm5.216,0c-.913,0-2.608.261-2.608-1.174s1.7-1.043,2.608-1.043A1.11,1.11,0,1,1,30.519,207.3Zm0-5.607c-.913,0-2.608.261-2.608-1.174s1.7-1.174,2.608-1.174A1.174,1.174,0,1,1,30.519,201.694ZM25.3,213.039c-1.043,0-2.738.261-2.738-1.174s1.7-1.174,2.738-1.174A1.178,1.178,0,0,1,25.3,213.039Z" transform="translate(-16.039 -152.521)" fill="#999" fill-rule="evenodd"/>
      <g id="Grupo_1162596" data-name="Grupo 1162596" transform="translate(4.961 71.341)">
        <path id="Trazado_1014644" data-name="Trazado 1014644" d="M79.694,403H75v9.128h4.694Z" transform="translate(-67.958 -403)" fill="#a64b1c" fill-rule="evenodd"/>
        <path id="Trazado_1014645" data-name="Trazado 1014645" d="M25.694,412.128V403H21v9.128Z" transform="translate(-21 -403)" fill="#a64b1c" fill-rule="evenodd"/>
      </g>
    </g>
  </g>
</svg>
