<svg xmlns="http://www.w3.org/2000/svg" xmlns:xlink="http://www.w3.org/1999/xlink" width="108" height="108" viewBox="0 0 108 108">
  <defs>
    <filter id="Trazado_982547" x="0" y="0" width="108" height="108" filterUnits="userSpaceOnUse">
      <feOffset dy="3" input="SourceAlpha"/>
      <feGaussianBlur stdDeviation="3" result="blur"/>
      <feFlood flood-opacity="0.161"/>
      <feComposite operator="in" in2="blur"/>
      <feComposite in="SourceGraphic"/>
    </filter>
  </defs>
  <g id="Grupo_1162519" data-name="Grupo 1162519" transform="translate(-711 -5643)">
    <g id="Grupo_1162389" data-name="Grupo 1162389" transform="translate(561 -1306)">
      <g id="Grupo_1159290" data-name="Grupo 1159290" transform="translate(-16 5213)">
        <g id="Grupo_1154416" data-name="Grupo 1154416" transform="translate(175 1742)">
          <g id="Grupo_1153134" data-name="Grupo 1153134">
            <g id="Grupo_1149598" data-name="Grupo 1149598">
              <g id="Grupo_1148770" data-name="Grupo 1148770">
                <g id="Grupo_1146954" data-name="Grupo 1146954">
                  <g transform="matrix(1, 0, 0, 1, -9, -6)" filter="url(#Trazado_982547)">
                    <g id="Trazado_982547-2" data-name="Trazado 982547" transform="translate(9 6)" fill="#fcf3f0">
                      <path d="M 45 88.5 C 39.12687683105469 88.5 33.43022537231445 87.35007476806641 28.06830024719238 85.08217620849609 C 22.88852500915527 82.89131164550781 18.23629951477051 79.75458526611328 14.2408504486084 75.75914764404297 C 10.24541282653809 71.76370239257812 7.108687400817871 67.11147308349609 4.917825222015381 61.93170166015625 C 2.649924993515015 56.56977462768555 1.5 50.87312316894531 1.5 45 C 1.5 39.12687683105469 2.649924993515015 33.43022537231445 4.917825222015381 28.06830024719238 C 7.108687400817871 22.88852500915527 10.24541282653809 18.23629951477051 14.2408504486084 14.2408504486084 C 18.23629951477051 10.24541282653809 22.88852500915527 7.108687400817871 28.06830024719238 4.917825222015381 C 33.43022537231445 2.649924993515015 39.12687683105469 1.5 45 1.5 C 50.87312316894531 1.5 56.56977462768555 2.649924993515015 61.93170166015625 4.917825222015381 C 67.11147308349609 7.108687400817871 71.76370239257812 10.24541282653809 75.75914764404297 14.2408504486084 C 79.75458526611328 18.23629951477051 82.89131164550781 22.88852500915527 85.08217620849609 28.06830024719238 C 87.35007476806641 33.43022537231445 88.5 39.12687683105469 88.5 45 C 88.5 50.87312316894531 87.35007476806641 56.56977462768555 85.08217620849609 61.93170166015625 C 82.89131164550781 67.11147308349609 79.75458526611328 71.76370239257812 75.75914764404297 75.75914764404297 C 71.76370239257812 79.75458526611328 67.11147308349609 82.89131164550781 61.93170166015625 85.08217620849609 C 56.56977462768555 87.35007476806641 50.87312316894531 88.5 45 88.5 Z" stroke="none"/>
                      <path d="M 45 3 C 39.32871246337891 3 33.82865524291992 4.110054016113281 28.65262985229492 6.299339294433594 C 23.65165710449219 8.414573669433594 19.15968322753906 11.44334411621094 15.301513671875 15.301513671875 C 11.44334411621094 19.15968322753906 8.414573669433594 23.65165710449219 6.299339294433594 28.65262985229492 C 4.110054016113281 33.82865524291992 3 39.32871246337891 3 45 C 3 50.67128753662109 4.110054016113281 56.17134475708008 6.299339294433594 61.34737396240234 C 8.414573669433594 66.34834289550781 11.44334411621094 70.84031677246094 15.301513671875 74.698486328125 C 19.15968322753906 78.55665588378906 23.65165710449219 81.58542633056641 28.65262985229492 83.70066070556641 C 33.82865524291992 85.88994598388672 39.32871246337891 87 45 87 C 50.67128753662109 87 56.17134475708008 85.88994598388672 61.34737396240234 83.70066070556641 C 66.34834289550781 81.58542633056641 70.84031677246094 78.55665588378906 74.698486328125 74.698486328125 C 78.55665588378906 70.84031677246094 81.58542633056641 66.34834289550781 83.70066070556641 61.34737396240234 C 85.88994598388672 56.17134475708008 87 50.67128753662109 87 45 C 87 39.32871246337891 85.88994598388672 33.82865524291992 83.70066070556641 28.65262985229492 C 81.58542633056641 23.65165710449219 78.55665588378906 19.15968322753906 74.698486328125 15.301513671875 C 70.84031677246094 11.44334411621094 66.34834289550781 8.414573669433594 61.34737396240234 6.299339294433594 C 56.17134475708008 4.110054016113281 50.67128753662109 3 45 3 M 45 0 C 69.85281372070312 0 90 20.14718627929688 90 45 C 90 69.85281372070312 69.85281372070312 90 45 90 C 20.14718627929688 90 0 69.85281372070312 0 45 C 0 20.14718627929688 20.14718627929688 0 45 0 Z" stroke="none" fill="#e89076"/>
                    </g>
                  </g>
                </g>
              </g>
            </g>
          </g>
        </g>
      </g>
    </g>
    <g id="marketing-strategy_17627721" transform="translate(732 5615.661)">
      <path id="Trazado_1014388" data-name="Trazado 1014388" d="M139.808,79.883h44.743v34.761H139.808Z" transform="translate(-121.681 -24.843)" fill="#d5e3f2"/>
      <g id="Grupo_1162518" data-name="Grupo 1162518" transform="translate(0.908 52.247)">
        <path id="Trazado_1014389" data-name="Trazado 1014389" d="M101.058,383.477v4.164a2.639,2.639,0,0,0,5.278,0v-4.164a2.639,2.639,0,0,0-5.278,0Z" transform="translate(-88.864 -339.025)" fill="#3f5163" fill-rule="evenodd"/>
        <path id="Trazado_1014390" data-name="Trazado 1014390" d="M36.672,135.252a14.833,14.833,0,0,0-29.667,0c0,9.633,8.471,11.974,9.28,19.541a1.32,1.32,0,0,0,1.316,1.183h8.475a1.316,1.316,0,0,0,1.312-1.183c.812-7.567,9.283-9.908,9.283-19.541Z" transform="translate(-7.005 -112.37)" fill="#ffd23b" fill-rule="evenodd"/>
        <path id="Trazado_1014391" data-name="Trazado 1014391" d="M76.639,367.005H65.18a1.794,1.794,0,1,0,0,3.587H76.639a1.794,1.794,0,1,0,0-3.587Z" transform="translate(-56.076 -326.985)" fill="#3f5163" fill-rule="evenodd"/>
        <path id="Trazado_1014392" data-name="Trazado 1014392" d="M83.484,394.667H74.421a1.794,1.794,0,1,0,0,3.587h9.063a1.794,1.794,0,1,0,0-3.588Z" transform="translate(-64.119 -351.061)" fill="#3f5163" fill-rule="evenodd"/>
        <path id="Trazado_1014393" data-name="Trazado 1014393" d="M52.036,174.583A10.334,10.334,0,1,0,41.7,164.249a10.333,10.333,0,0,0,10.335,10.334Z" transform="translate(-37.202 -141.524)" fill="#fb4455" fill-rule="evenodd"/>
        <path id="Trazado_1014394" data-name="Trazado 1014394" d="M74.142,193.4a7.04,7.04,0,1,0-7.042-7.041,7.04,7.04,0,0,0,7.042,7.041Z" transform="translate(-59.308 -163.633)" fill="#d5e3f2" fill-rule="evenodd"/>
        <path id="Trazado_1014395" data-name="Trazado 1014395" d="M98.442,214.086a3.42,3.42,0,1,0-3.422-3.422A3.42,3.42,0,0,0,98.442,214.086Z" transform="translate(-83.608 -187.94)" fill="#fb4455" fill-rule="evenodd"/>
        <path id="Trazado_1014396" data-name="Trazado 1014396" d="M121.638,58.34h46.15a1.9,1.9,0,0,1,0,3.8h-46.15a1.9,1.9,0,0,1,0-3.8Z" transform="translate(-105.122 -58.34)" fill="#69a7ff" fill-rule="evenodd"/>
        <path id="Trazado_1014397" data-name="Trazado 1014397" d="M414.6,134.053a2.556,2.556,0,1,1,2.558,2.558A2.556,2.556,0,0,1,414.6,134.053Z" transform="translate(-361.753 -122.014)" fill="#45bf64" fill-rule="evenodd"/>
        <path id="Trazado_1014398" data-name="Trazado 1014398" d="M307.505,267.314a2.554,2.554,0,1,1,2.554,2.554A2.554,2.554,0,0,1,307.505,267.314Z" transform="translate(-268.544 -237.997)" fill="#45bf64" fill-rule="evenodd"/>
        <path id="Trazado_1014399" data-name="Trazado 1014399" d="M210.552,145.212l-2.911-1,.581-3.032,4.973-2.87-.581,3.032,2.911,1Z" transform="translate(-181.628 -127.938)" fill="#fb4455" fill-rule="evenodd"/>
        <path id="Trazado_1014400" data-name="Trazado 1014400" d="M8.931,135.252a14.835,14.835,0,0,1,13.871-14.8c-.32-.022-.64-.029-.963-.029A14.833,14.833,0,0,0,7,135.252c0,8.552,6.674,11.357,8.74,17.175a1.7,1.7,0,0,1,.364-.037H17.66c-2.08-5.792-8.729-8.6-8.729-17.138Z" transform="translate(-7.005 -112.37)" fill="#e8bd31" fill-rule="evenodd"/>
        <path id="Trazado_1014401" data-name="Trazado 1014401" d="M43.329,164.255a10.339,10.339,0,0,1,9.523-10.3c-.265-.018-.537-.029-.809-.029a10.333,10.333,0,1,0,0,20.666c.272,0,.544-.012.809-.03A10.339,10.339,0,0,1,43.329,164.255Z" transform="translate(-37.209 -141.531)" fill="#e82e41" fill-rule="evenodd"/>
        <path id="Trazado_1014402" data-name="Trazado 1014402" d="M124.705,212.743l-.786.452a7.042,7.042,0,0,1-6.193,9.28c.158.011.316.015.478.015a6.942,6.942,0,0,0,2.386-.415,7.043,7.043,0,0,0,4.116-9.332Z" transform="translate(-103.37 -192.724)" fill="#b7cfe8" fill-rule="evenodd"/>
        <path id="Trazado_1014403" data-name="Trazado 1014403" d="M123.118,182.48l.68-.393a7,7,0,0,0-5.594-2.764c-.162,0-.32,0-.478.015A7.025,7.025,0,0,1,123.118,182.48Z" transform="translate(-103.37 -163.637)" fill="#b7cfe8" fill-rule="evenodd"/>
        <path id="Trazado_1014404" data-name="Trazado 1014404" d="M96.194,210.662a3.421,3.421,0,0,1,2.841-3.37,3.339,3.339,0,0,0-.581-.048,3.42,3.42,0,1,0,0,6.84,3.351,3.351,0,0,0,.581-.048A3.422,3.422,0,0,1,96.194,210.662Z" transform="translate(-83.621 -187.938)" fill="#e82e41" fill-rule="evenodd"/>
        <path id="Trazado_1014405" data-name="Trazado 1014405" d="M65.367,372.952a1.8,1.8,0,0,1-1.455-1.761,1.638,1.638,0,0,1,.011-.191,1.779,1.779,0,0,0-.537,1.275,1.8,1.8,0,0,0,1.794,1.794H76.639a1.8,1.8,0,0,0,1.782-1.6,1.785,1.785,0,0,1-1.257.519H65.705a2.081,2.081,0,0,1-.338-.033Z" transform="translate(-56.076 -330.462)" fill="#2c3947" fill-rule="evenodd"/>
        <path id="Trazado_1014406" data-name="Trazado 1014406" d="M76.311,403.058H74.657a1.8,1.8,0,0,1-1.783-1.584,1.792,1.792,0,0,0,1.544,2.7h9.063a1.8,1.8,0,0,0,1.794-1.794,1.938,1.938,0,0,0-.011-.21,1.805,1.805,0,0,1-1.543.882H76.311Z" transform="translate(-64.117 -356.985)" fill="#2c3947" fill-rule="evenodd"/>
        <path id="Trazado_1014407" data-name="Trazado 1014407" d="M102.425,422.337h-1.367v1.422A2.646,2.646,0,0,0,103.7,426.4a2.619,2.619,0,0,0,.684-.088,2.654,2.654,0,0,1-1.955-2.551Z" transform="translate(-88.864 -375.143)" fill="#2c3947" fill-rule="evenodd"/>
        <path id="Trazado_1014408" data-name="Trazado 1014408" d="M141.436,92.471V87.679h-1.628v4.432A14.905,14.905,0,0,1,141.436,92.471Z" transform="translate(-122.589 -83.875)" fill="#b7cfe8" fill-rule="evenodd"/>
        <path id="Trazado_1014409" data-name="Trazado 1014409" d="M122.328,62.144h1.628v-3.8h-2.33a1.9,1.9,0,1,0,0,3.8Z" transform="translate(-105.109 -58.34)" fill="#5f96e6" fill-rule="evenodd"/>
        <path id="Trazado_1014410" data-name="Trazado 1014410" d="M208.9,141.779l4.079-2.352.213-1.121-4.973,2.87-.092.481-.261,1.375-.228,1.176.746.257.371-1.944v0Z" transform="translate(-181.628 -127.938)" fill="#e82e41" fill-rule="evenodd"/>
        <path id="Trazado_1014411" data-name="Trazado 1014411" d="M309.085,266.26a2.559,2.559,0,0,1,1.65-1.433,2.485,2.485,0,0,0-.687-.1,2.556,2.556,0,1,0,0,5.112,2.486,2.486,0,0,0,.687-.1,2.551,2.551,0,0,1-1.863-2.459,2.592,2.592,0,0,1,.213-1.029Z" transform="translate(-268.532 -237.971)" fill="#1ca63e" fill-rule="evenodd"/>
        <path id="Trazado_1014412" data-name="Trazado 1014412" d="M416.205,133.031a2.56,2.56,0,0,1,1.65-1.433,2.5,2.5,0,0,0-.687-.1,2.556,2.556,0,1,0,0,5.112,2.5,2.5,0,0,0,.687-.1,2.559,2.559,0,0,1-1.867-2.462A2.514,2.514,0,0,1,416.205,133.031Z" transform="translate(-361.764 -122.016)" fill="#1ca63e" fill-rule="evenodd"/>
      </g>
      <path id="Trazado_1014413" data-name="Trazado 1014413" d="M63.577,51.339H17.424a2.808,2.808,0,0,0-.2,5.608v2.508c-.489-.046-.982-.07-1.479-.07A15.76,15.76,0,0,0,0,75.129c0,5.6,2.749,8.944,5.175,11.895a22.135,22.135,0,0,1,3.308,4.814,2.695,2.695,0,0,0,.3,4.627,2.693,2.693,0,0,0,2.422,3.884H12.2v.516a3.545,3.545,0,0,0,7.09,0v-.516h.987a2.693,2.693,0,0,0,2.422-3.884,2.7,2.7,0,0,0,.3-4.629,11.959,11.959,0,0,1,.586-1.128H62.871a.906.906,0,0,0,.906-.906V56.947a2.808,2.808,0,0,0-.2-5.608Zm-57,34.534c-2.341-2.849-4.762-5.795-4.762-10.744A13.935,13.935,0,0,1,17.92,61.367a.9.9,0,0,0,.134.021,13.862,13.862,0,0,1,8.386,4.823l-.331,1.726-1.124.648a11.18,11.18,0,1,0,.909,1.567l1.119-.646,1.717.592a13.817,13.817,0,0,1,.937,5.03c0,4.951-2.422,7.9-4.765,10.746a35.076,35.076,0,0,0-2.541,3.36.912.912,0,0,0-.107.17,14.085,14.085,0,0,0-1.027,1.956H10.249a22.825,22.825,0,0,0-3.675-5.489Zm8.381-10.449a.905.905,0,0,0,1.238.332l2.03-1.172a2.494,2.494,0,0,1,.033.387,2.52,2.52,0,1,1-.941-1.956l-2.029,1.171A.906.906,0,0,0,14.956,75.424Zm.785-4.777a4.327,4.327,0,1,0,4.117,2.993l1.59-.918a6.153,6.153,0,1,1-.909-1.568l-1.589.918a4.319,4.319,0,0,0-3.209-1.426Zm0-3.62a7.951,7.951,0,1,0,7.289,4.782l1.289-.744a9.459,9.459,0,1,1-.909-1.567l-1.288.743a7.943,7.943,0,0,0-6.381-3.214Zm15.343-1.96-2.9,1.674.13-.678,2.9-1.673Zm.9,1.571.644.222-2.894,1.67-.644-.222ZM17.473,100.865a1.733,1.733,0,0,1-3.466,0v-.516h3.466Zm2.8-2.328H11.208a.888.888,0,1,1,0-1.775h9.064a.9.9,0,0,1,.888.888.889.889,0,0,1-.888.887Zm1.2-3.587H10.01a.888.888,0,1,1,0-1.775H21.471a.888.888,0,1,1,0,1.775Zm40.495-6.055H24.808c.472-.625.978-1.241,1.5-1.87,2.427-2.952,5.177-6.3,5.177-11.9a15.64,15.64,0,0,0-.825-5.038l4.6-2.657a.906.906,0,0,0-.158-1.641l-1.035-.357.34-.2A.906.906,0,1,0,33.5,63.67l-.342.2.207-1.084a.906.906,0,0,0-1.343-.955l-4.656,2.688a15.651,15.651,0,0,0-8.334-4.788V56.955H61.965Zm1.612-33.752H17.424a1,1,0,1,1,0-1.992H63.577a1,1,0,0,1,.994,1,1.007,1.007,0,0,1-.994.994Zm-5.5,17.381L57,73.6l1.076,1.076a.906.906,0,0,1-1.281,1.281l-1.076-1.076-1.076,1.076a.906.906,0,1,1-1.281-1.281L54.437,73.6l-1.076-1.076a.906.906,0,1,1,1.281-1.281l1.076,1.076,1.076-1.076a.906.906,0,1,1,1.281,1.281ZM38.964,81.565a3.46,3.46,0,1,0,4.323-3.355c.285-5.368,2.445-8.943,6.574-10.863l-.362.819a.906.906,0,1,0,1.657.733l1.239-2.8a.906.906,0,0,0-.431-1.18l-2.753-1.345a.906.906,0,0,0-.8,1.628l.861.421a12.447,12.447,0,0,0-5.527,4.628,16.034,16.034,0,0,0-2.277,7.988,3.469,3.469,0,0,0-2.508,3.329Zm3.461-1.652a1.722,1.722,0,1,1-.014,0Zm15.651.576L57,81.565l1.076,1.076a.906.906,0,0,1-1.281,1.281l-1.076-1.076-1.076,1.076a.906.906,0,1,1-1.281-1.281l1.076-1.076-1.076-1.076a.906.906,0,0,1,1.281-1.281l1.076,1.076,1.076-1.076a.906.906,0,0,1,1.281,1.281ZM38.348,65.361l1.077-1.075L38.348,63.21a.906.906,0,1,1,1.281-1.282L40.706,63l1.078-1.077a.906.906,0,0,1,1.281,1.282l-1.077,1.076,1.077,1.075a.906.906,0,0,1-1.281,1.282l-1.078-1.076-1.078,1.076a.906.906,0,1,1-1.281-1.282ZM56.314,67.75a3.462,3.462,0,1,0-3.464-3.463A3.462,3.462,0,0,0,56.314,67.75Zm0-5.113a1.65,1.65,0,1,1-1.652,1.649,1.65,1.65,0,0,1,1.652-1.649Z"/>
    </g>
  </g>
</svg>
