<svg xmlns="http://www.w3.org/2000/svg" xmlns:xlink="http://www.w3.org/1999/xlink" width="108" height="108" viewBox="0 0 108 108">
  <defs>
    <filter id="Trazado_982547" x="0" y="0" width="108" height="108" filterUnits="userSpaceOnUse">
      <feOffset dy="3" input="SourceAlpha"/>
      <feGaussianBlur stdDeviation="3" result="blur"/>
      <feFlood flood-opacity="0.161"/>
      <feComposite operator="in" in2="blur"/>
      <feComposite in="SourceGraphic"/>
    </filter>
  </defs>
  <g id="Grupo_1162511" data-name="Grupo 1162511" transform="translate(-611 -298)">
    <g id="Grupo_1162316" data-name="Grupo 1162316" transform="translate(419.181 -652)">
      <g id="Grupo_1158695" data-name="Grupo 1158695" transform="translate(-419.181 486)">
        <g id="Grupo_1155790" data-name="Grupo 1155790" transform="translate(-5 -3446)">
          <g id="Grupo_1153177" data-name="Grupo 1153177" transform="translate(362 3397)">
            <g id="Grupo_1149598" data-name="Grupo 1149598" transform="translate(80 315)">
              <g id="Grupo_1148770" data-name="Grupo 1148770" transform="translate(-27 -2583)">
                <g id="Grupo_1146954" data-name="Grupo 1146954" transform="translate(-415 -1202)">
                  <g transform="matrix(1, 0, 0, 1, 616, 3983)" filter="url(#Trazado_982547)">
                    <g id="Trazado_982547-2" data-name="Trazado 982547" transform="translate(9 6)" fill="#f1f0f2">
                      <path d="M 45 88.5 C 39.12687683105469 88.5 33.43022537231445 87.35007476806641 28.06830024719238 85.08217620849609 C 22.88852500915527 82.89131164550781 18.23629951477051 79.75458526611328 14.2408504486084 75.75914764404297 C 10.24541282653809 71.76370239257812 7.108687400817871 67.11147308349609 4.917825222015381 61.93170166015625 C 2.649924993515015 56.56977462768555 1.5 50.87312316894531 1.5 45 C 1.5 39.12687683105469 2.649924993515015 33.43022537231445 4.917825222015381 28.06830024719238 C 7.108687400817871 22.88852500915527 10.24541282653809 18.23629951477051 14.2408504486084 14.2408504486084 C 18.23629951477051 10.24541282653809 22.88852500915527 7.108687400817871 28.06830024719238 4.917825222015381 C 33.43022537231445 2.649924993515015 39.12687683105469 1.5 45 1.5 C 50.87312316894531 1.5 56.56977462768555 2.649924993515015 61.93170166015625 4.917825222015381 C 67.11147308349609 7.108687400817871 71.76370239257812 10.24541282653809 75.75914764404297 14.2408504486084 C 79.75458526611328 18.23629951477051 82.89131164550781 22.88852500915527 85.08217620849609 28.06830024719238 C 87.35007476806641 33.43022537231445 88.5 39.12687683105469 88.5 45 C 88.5 50.87312316894531 87.35007476806641 56.56977462768555 85.08217620849609 61.93170166015625 C 82.89131164550781 67.11147308349609 79.75458526611328 71.76370239257812 75.75914764404297 75.75914764404297 C 71.76370239257812 79.75458526611328 67.11147308349609 82.89131164550781 61.93170166015625 85.08217620849609 C 56.56977462768555 87.35007476806641 50.87312316894531 88.5 45 88.5 Z" stroke="none"/>
                      <path d="M 45 3 C 39.32871246337891 3 33.82865524291992 4.110054016113281 28.65262985229492 6.299339294433594 C 23.65165710449219 8.414573669433594 19.15968322753906 11.44334411621094 15.301513671875 15.301513671875 C 11.44334411621094 19.15968322753906 8.414573669433594 23.65165710449219 6.299339294433594 28.65262985229492 C 4.110054016113281 33.82865524291992 3 39.32871246337891 3 45 C 3 50.67128753662109 4.110054016113281 56.17134475708008 6.299339294433594 61.34737396240234 C 8.414573669433594 66.34834289550781 11.44334411621094 70.84031677246094 15.301513671875 74.698486328125 C 19.15968322753906 78.55665588378906 23.65165710449219 81.58542633056641 28.65262985229492 83.70066070556641 C 33.82865524291992 85.88994598388672 39.32871246337891 87 45 87 C 50.67128753662109 87 56.17134475708008 85.88994598388672 61.34737396240234 83.70066070556641 C 66.34834289550781 81.58542633056641 70.84031677246094 78.55665588378906 74.698486328125 74.698486328125 C 78.55665588378906 70.84031677246094 81.58542633056641 66.34834289550781 83.70066070556641 61.34737396240234 C 85.88994598388672 56.17134475708008 87 50.67128753662109 87 45 C 87 39.32871246337891 85.88994598388672 33.82865524291992 83.70066070556641 28.65262985229492 C 81.58542633056641 23.65165710449219 78.55665588378906 19.15968322753906 74.698486328125 15.301513671875 C 70.84031677246094 11.44334411621094 66.34834289550781 8.414573669433594 61.34737396240234 6.299339294433594 C 56.17134475708008 4.110054016113281 50.67128753662109 3 45 3 M 45 0 C 69.85281372070312 0 90 20.14718627929688 90 45 C 90 69.85281372070312 69.85281372070312 90 45 90 C 20.14718627929688 90 0 69.85281372070312 0 45 C 0 20.14718627929688 20.14718627929688 0 45 0 Z" stroke="none" fill="#817489"/>
                    </g>
                  </g>
                </g>
              </g>
            </g>
          </g>
        </g>
      </g>
    </g>
    <g id="documentation_12650062" transform="translate(626.309 298.632)">
      <path id="Trazado_1014360" data-name="Trazado 1014360" d="M405.429,98.719a.715.715,0,0,0,.71.714h4.911l-5.622-5.943Z" transform="translate(-348.936 -62.553)" fill="#e0c0c0"/>
      <path id="Trazado_1014361" data-name="Trazado 1014361" d="M280.613,103.7H266.163a.963.963,0,1,1,0-1.926h14.451a.963.963,0,0,1,0,1.926Zm-14.451-6.506h7.5a.963.963,0,0,1,0,1.926h-7.5a.963.963,0,1,1,0-1.926Zm14.451,11.086H267.73v.243l.362.751a3.13,3.13,0,0,0,.461.669c.034.027.154.068.55.068H285.18V99.115h-5.54a2.642,2.642,0,0,1-2.64-2.64V90.939H262.31a.713.713,0,0,0-.71.714v13.289h2.886a2.183,2.183,0,0,1,2.135,1.271l.065.137h13.928a.963.963,0,1,1,0,1.926Z" transform="translate(-222.437 -60.309)" fill="#ffe0e0"/>
      <path id="Trazado_1014362" data-name="Trazado 1014362" d="M395.2,432.255l2.408-1.035-2.408-1.032Z" transform="translate(-339.936 -358.684)" fill="#635463"/>
      <path id="Trazado_1014363" data-name="Trazado 1014363" d="M215.65,265.269h2.889v3.04H215.65Z" transform="translate(-182.023 -213.634)" fill="#faefe8"/>
      <path id="Trazado_1014364" data-name="Trazado 1014364" d="M214.3,45.4a2.642,2.642,0,0,1,2.64-2.64h15.776a2.49,2.49,0,0,1,2.223.885L237,45.831V39.267a.926.926,0,0,0-.936-.912H210.945a.926.926,0,0,0-.936.912V58.694H214.3Z" transform="translate(-177.062 -14.061)" fill="#a79ba7"/>
      <path id="Trazado_1014365" data-name="Trazado 1014365" d="M255.618,265.269h2.893v3.04h-2.893Z" transform="translate(-217.175 -213.634)" fill="#faefe8"/>
      <path id="Trazado_1014366" data-name="Trazado 1014366" d="M204.491,231.62a1.593,1.593,0,0,1-1.592,1.592h-8.378a1.591,1.591,0,0,1-1.591-1.592v-3.709a1.591,1.591,0,0,1,1.591-1.592H202.9a1.593,1.593,0,0,1,1.592,1.592Zm22.852-3.381H207.9c-1.53,0-2.019-.557-2.7-1.735a.389.389,0,0,1-.034-.065l-1.489-3.091c-.075-.157-.082-.174-.4-.174H192.418a.416.416,0,0,0-.41.41v10.181h35.746v-5.116a.416.416,0,0,0-.41-.41Z" transform="translate(-161.23 -176.611)" fill="#f7cb7f"/>
      <path id="Trazado_1014367" data-name="Trazado 1014367" d="M192.009,334.569h17.705a.881.881,0,0,1,.191.017.8.8,0,0,1,.188.061l5.806,2.49a.012.012,0,0,1,.007,0l5.816,2.5a.965.965,0,0,1,0,1.773l-1.9.813h7.521a.413.413,0,0,0,.41-.406V327.065H192.009Z" transform="translate(-161.23 -267.985)" fill="#ff7577"/>
      <path id="Trazado_1014368" data-name="Trazado 1014368" d="M107.055,179.762a6.456,6.456,0,0,0,6.452,6.448,6.536,6.536,0,0,0,1.858-.27v-6.209a2.335,2.335,0,0,1,2.169-2.329v-2.674a6.449,6.449,0,0,0-10.478,5.034Z" transform="translate(-86.512 -132.759)" fill="#fff"/>
      <path id="Trazado_1014369" data-name="Trazado 1014369" d="M42.917,115.479a8.375,8.375,0,1,1-1.858-16.541,8.358,8.358,0,0,1,4.027,1.031V95.652c-.249-.085-.5-.164-.751-.232a.965.965,0,0,1-.683-.717l-.71-3.118c-.024-.109-.16-.645-.454-.645H39.628c-.294,0-.43.536-.454.645l-.71,3.118a.965.965,0,0,1-.683.717,12.42,12.42,0,0,0-2.814,1.165.963.963,0,0,1-.99-.02l-2.708-1.708c-.1-.058-.57-.338-.779-.133l-2.022,2.022c-.2.208.075.683.133.779l1.708,2.708a.956.956,0,0,1,.02.99,12.4,12.4,0,0,0-1.165,2.811.969.969,0,0,1-.717.687l-3.118.707c-.109.027-.645.164-.645.454v2.862c0,.294.536.43.645.454l3.118.71a.971.971,0,0,1,.717.683,12.426,12.426,0,0,0,1.165,2.814.963.963,0,0,1-.02.99L28.6,117.1c-.058.092-.338.57-.133.775l2.022,2.022c.208.208.683-.075.779-.133l2.708-1.708a.971.971,0,0,1,.99-.02,12.284,12.284,0,0,0,2.814,1.168.96.96,0,0,1,.683.714l.71,3.122c.024.106.16.642.454.642h2.859c.239,0,.376-.359.43-.543v-7.664Z" transform="translate(-14.064 -60.309)" fill="#6ab0e1"/>
      <path id="Trazado_1014370" data-name="Trazado 1014370" d="M29.385,409.357a4.033,4.033,0,0,0,4.027,4.03h2.78V405.33h-2.78A4.032,4.032,0,0,0,29.385,409.357Z" transform="translate(-18.201 -336.82)" fill="#635463"/>
      <path id="Trazado_1014371" data-name="Trazado 1014371" d="M346.951,416.528l3.887-1.667v-3.723l-3.887-1.67Z" transform="translate(-297.504 -340.459)" fill="#ccc4cc"/>
      <path id="Trazado_1014372" data-name="Trazado 1014372" d="M140.929,405.329h22.893v3.064H140.929Z" transform="translate(-116.305 -336.819)" fill="#d6763e"/>
      <path id="Trazado_1014373" data-name="Trazado 1014373" d="M140.929,446.772h22.893v3.064H140.929Z" transform="translate(-116.305 -373.269)" fill="#d6763e"/>
      <path id="Trazado_1014374" data-name="Trazado 1014374" d="M101.867,405.329h2.777v8.057h-2.777Z" transform="translate(-81.949 -336.819)" fill="#ccc4cc"/>
      <g id="Grupo_1162510" data-name="Grupo 1162510" transform="translate(8.691 22.368)">
        <path id="Trazado_1014375" data-name="Trazado 1014375" d="M66.524,57.154H30.779V46.972a.416.416,0,0,1,.41-.41H42.049c.314,0,.321.017.4.174l1.489,3.091a.4.4,0,0,0,.034.065c.68,1.178,1.168,1.735,2.7,1.735H66.114a.416.416,0,0,1,.41.41v5.116Zm0,16.677a.413.413,0,0,1-.41.406H58.593l1.9-.813a.965.965,0,0,0,0-1.773l-5.816-2.5a.012.012,0,0,0-.007,0l-5.806-2.49a.805.805,0,0,0-.188-.061.881.881,0,0,0-.191-.017H30.779v-7.5H66.524Zm-11.264-.26V71.505l2.408,1.031Zm-1.926.83-3.887,1.667v-7.06l3.887,1.67Zm-5.816-2.828H24.624V68.51H47.517Zm0,4.993H24.624V73.5H47.517Zm-24.823,0H19.918V68.51h2.777Zm-4.7,0h-2.78a4.028,4.028,0,0,1,0-8.057h2.78Zm13.03-34.6v2.674a2.336,2.336,0,0,0-2.169,2.329v6.209a6.537,6.537,0,0,1-1.858.27,6.448,6.448,0,1,1,4.027-11.483Zm-2.6,21.408H25.563c-.294,0-.43-.536-.454-.642l-.71-3.122a.96.96,0,0,0-.683-.714A12.274,12.274,0,0,1,20.9,57.731a.971.971,0,0,0-.99.02L17.2,59.459c-.1.058-.57.341-.779.133L14.4,57.57c-.2-.2.075-.683.133-.775l1.708-2.708a.963.963,0,0,0,.02-.99A12.42,12.42,0,0,1,15.1,50.282a.97.97,0,0,0-.717-.683l-3.118-.71c-.109-.024-.645-.16-.645-.454V45.572c0-.29.536-.427.645-.454l3.118-.707a.969.969,0,0,0,.717-.687,12.4,12.4,0,0,1,1.165-2.811.956.956,0,0,0-.02-.99l-1.708-2.708c-.058-.1-.338-.57-.133-.779l2.022-2.022c.208-.2.683.075.779.133l2.708,1.708a.963.963,0,0,0,.99.02,12.42,12.42,0,0,1,2.814-1.165.965.965,0,0,0,.683-.717l.71-3.118c.024-.109.16-.645.454-.645h2.859c.294,0,.43.536.454.645l.71,3.118a.965.965,0,0,0,.683.717c.253.068.5.147.751.232V39.66a8.377,8.377,0,1,0-4.027,15.721,8.467,8.467,0,0,0,1.858-.212v7.664c-.055.184-.191.543-.43.543Zm4.525-28.713V25.206a.926.926,0,0,1,.936-.912H59a.926.926,0,0,1,.936.912v6.564l-2.063-2.183A2.49,2.49,0,0,0,55.65,28.7H39.874a2.642,2.642,0,0,0-2.64,2.64V44.633H32.947V34.664ZM62.115,36.88H57.2a.715.715,0,0,1-.71-.714V30.937Zm-3.938,9.16H44.249l-.065-.137a2.183,2.183,0,0,0-2.135-1.271H39.163V31.344a.713.713,0,0,1,.71-.714h14.69v5.536a2.642,2.642,0,0,0,2.64,2.64h5.54V49.7H46.667c-.4,0-.516-.041-.55-.068a3.128,3.128,0,0,1-.461-.669l-.362-.751v-.243H58.177a.963.963,0,1,0,0-1.926ZM66.114,49.7H64.669V37.83a2.611,2.611,0,0,0-.772-1.872L61.865,33.81v-8.6A2.857,2.857,0,0,0,59,22.368H33.883a2.854,2.854,0,0,0-2.862,2.838V32l-.263-1.154A2.459,2.459,0,0,0,28.422,28.7H25.563a2.456,2.456,0,0,0-2.336,2.145l-.584,2.572a14,14,0,0,0-2.183.905l-2.234-1.4a2.451,2.451,0,0,0-3.166.133l-2.022,2.022a2.455,2.455,0,0,0-.133,3.166l1.4,2.234a14.331,14.331,0,0,0-.905,2.183l-2.572.584a2.452,2.452,0,0,0-2.141,2.333v2.862a2.453,2.453,0,0,0,2.141,2.333l2.572.588a14.624,14.624,0,0,0,.905,2.182l-1.4,2.23a2.451,2.451,0,0,0,.133,3.166l2.022,2.025a2.46,2.46,0,0,0,3.166.133l2.234-1.407a14.122,14.122,0,0,0,2.183.905l.584,2.572a2.456,2.456,0,0,0,2.336,2.145h2.859a2.56,2.56,0,0,0,.43-.041v1.318H15.211a5.956,5.956,0,1,0,0,11.913H48.484a.937.937,0,0,0,.191-.02,1.2,1.2,0,0,0,.188-.058l5.243-2.251H66.114a2.34,2.34,0,0,0,2.34-2.336V52.038a2.341,2.341,0,0,0-2.34-2.34Z" transform="translate(-8.691 -22.368)" fill="#030403"/>
        <path id="Trazado_1014376" data-name="Trazado 1014376" d="M292.439,144.738h7.5a.963.963,0,1,0,0-1.926h-7.5a.963.963,0,0,0,0,1.926Z" transform="translate(-257.404 -128.3)" fill="#030403"/>
        <path id="Trazado_1014377" data-name="Trazado 1014377" d="M209.3,254.248H206.4v-3.04H209.3Zm-4.819,0h-2.889v-3.04h2.889Zm5.154-4.966h-8.378a1.591,1.591,0,0,0-1.592,1.592v3.709a1.591,1.591,0,0,0,1.592,1.592h8.378a1.593,1.593,0,0,0,1.592-1.592v-3.709a1.593,1.593,0,0,0-1.592-1.592Z" transform="translate(-176.653 -221.942)" fill="#030403"/>
        <path id="Trazado_1014378" data-name="Trazado 1014378" d="M306.89,180.825H292.439a.963.963,0,1,0,0,1.926H306.89a.963.963,0,1,0,0-1.926Z" transform="translate(-257.404 -161.733)" fill="#030403"/>
      </g>
    </g>
  </g>
</svg>
