<svg xmlns="http://www.w3.org/2000/svg" xmlns:xlink="http://www.w3.org/1999/xlink" width="432" height="325" viewBox="0 0 432 325">
  <defs>
    <clipPath id="clip-path">
      <rect id="Rectángulo_410030" data-name="Rectángulo 410030" width="432" height="325" transform="translate(915 635)" fill="#fff" stroke="#707070" stroke-width="1" opacity="0.71"/>
    </clipPath>
  </defs>
  <g id="Enmascarar_grupo_1098797" data-name="Enmascarar grupo 1098797" transform="translate(-915 -635)" clip-path="url(#clip-path)">
    <g id="Grupo_1162645" data-name="Grupo 1162645">
      <path id="Trazado_1015736" data-name="Trazado 1015736" d="M3140.823,362.457c-31.286-38.124-137.038-33.024-195.194,65.929s60.917,202.54,144,196.23,137.013-157.582,51.194-262.159" transform="translate(-1995.767 298.948)" fill="#cfe3dc"/>
      <path id="Trazado_1015737" data-name="Trazado 1015737" d="M3393.256,894.014c-19.743-24.058-86.477-20.839-123.176,41.6s38.441,127.81,90.87,123.829,86.461-99.44,32.305-165.433" transform="translate(-2108.861 -54.149)" fill="#cfe3dc"/>
      <g id="Grupo_1162607" data-name="Grupo 1162607" transform="translate(6573.57 -4662.888)">
        <path id="Trazado_1014844" data-name="Trazado 1014844" d="M3038.274,591.118c1.022-1.021-1.714-55.87-3.049-81.451a78.34,78.34,0,1,0,81.9,81.451Z" transform="translate(-8387.898 4802.656)" fill="#34b7bf"/>
        <path id="Trazado_1014845" data-name="Trazado 1014845" d="M3342.378,464.284c-1.2,0-2.394.037-3.583.09,1.335,25.581,4.071,80.43,3.05,81.451h78.847c.043-1.062.081-2.126.081-3.2a78.37,78.37,0,0,0-78.4-78.344" transform="translate(-8682.582 4838)" fill="#fcb033"/>
        <path id="Trazado_1014846" data-name="Trazado 1014846" d="M3391.247,877.881H3312.4l21.342,72.331a78.376,78.376,0,0,0,57.505-72.331" transform="translate(-8662.025 4515.893)" fill="#7d86ba"/>
        <path id="Trazado_1014847" data-name="Trazado 1014847" d="M3008.68,548.593l67.273,42.525c1.022-1.021-1.714-55.87-3.049-81.451a78.38,78.38,0,0,0-64.224,38.926" transform="translate(-8425.489 4802.656)" fill="#34b7bf"/>
        <path id="Trazado_1014848" data-name="Trazado 1014848" d="M3224.937,1052.314c-3.026-7.67-4.93-11.933-6.479-13.912s-5.969-16.322-8.82-22.1c-2.638-5.348.177-10.365,6.491-6.423,5.9,3.682,7.857,18.185,8.6,16.25,2.3-5.972,3.209-8.128,3.209-8.128l25.626,10.941,3.45,5.452-5.2,12.581Z" transform="translate(-8581.228 4414.191)" fill="#f0b48f"/>
        <path id="Trazado_1014849" data-name="Trazado 1014849" d="M3408.136,1033.532a4.319,4.319,0,0,1-.386,2.011l-10.865,23.962a4.366,4.366,0,1,1-7.955-3.6l10.864-23.962a4.367,4.367,0,0,1,8.341,1.593" transform="translate(-8721.319 4397.912)" fill="#f0b48f"/>
        <path id="Trazado_1014850" data-name="Trazado 1014850" d="M3307.907,922.96a5.869,5.869,0,0,1-.205.918l-7.9,25.281a5.829,5.829,0,0,1-7.3,3.825c-3.075-.961-9.106,5.1-3.827-7.292l7.9-25.281a5.826,5.826,0,0,1,11.33,2.549" transform="translate(-8641.927 4485.956)" fill="#f0b48f"/>
        <path id="Trazado_1014851" data-name="Trazado 1014851" d="M3279.9,1118.276s-3.983-13.288-2.181-17.109c5.115-10.844,8.857-14.619,8.857-14.619s27.887-2.145,27.428,3.939c-.431,5.725-9.95,34.735-9.95,34.735Z" transform="translate(-8634.651 4353.67)" fill="#f0b48f"/>
        <path id="Trazado_1014852" data-name="Trazado 1014852" d="M3310.255,1076.127a.235.235,0,0,1,.123.094.239.239,0,0,1-.063.332l-2.923,1.977a.24.24,0,0,1-.269-.4l2.923-1.977a.239.239,0,0,1,.21-.029" transform="translate(-8657.834 4361.509)" fill="#313440"/>
        <path id="Trazado_1014853" data-name="Trazado 1014853" d="M3312.31,1076.86a.24.24,0,0,0,.3-.306l-1.172-3.327a.24.24,0,0,0-.453.158l1.173,3.327a.24.24,0,0,0,.152.148" transform="translate(-8660.914 4363.883)" fill="#313440"/>
        <path id="Trazado_1014854" data-name="Trazado 1014854" d="M3351.206,929.258a.23.23,0,0,1-.129.177.236.236,0,0,1-.312-.108c-1.135-2.318-4.059-1.718-4.7-1.557l-1.552,5.326c1.076,1.44,4.865,1.824,4.905,1.827a.233.233,0,0,1,.211.254v.011a.232.232,0,0,1-.253.2c-.17-.016-4.208-.43-5.311-2.123a.248.248,0,0,1-.03-.193l1.619-5.558a.23.23,0,0,1,.16-.155c.036-.012,3.95-1.146,5.374,1.764a.218.218,0,0,1,.021.135" transform="translate(-8686.653 4477.537)" fill="#313440"/>
        <path id="Trazado_1014855" data-name="Trazado 1014855" d="M3339.62,1002.768c.062-.139.12-.281.174-.426l6.83-18.506a5.953,5.953,0,0,0-3.293-7.81,6.156,6.156,0,0,0-7.624,3.925l-6.83,18.506a5.954,5.954,0,0,0,3.293,7.81,6.086,6.086,0,0,0,7.45-3.5" transform="translate(-8674.534 4439.701)" fill="#f0b48f"/>
        <path id="Trazado_1014856" data-name="Trazado 1014856" d="M3376.755,1019.369c.062-.139.12-.281.174-.426l6.83-18.506a5.953,5.953,0,0,0-3.293-7.81,6.157,6.157,0,0,0-7.624,3.925l-6.83,18.507a5.954,5.954,0,0,0,3.293,7.81,6.086,6.086,0,0,0,7.45-3.5" transform="translate(-8703.454 4426.773)" fill="#f0b48f"/>
        <path id="Trazado_1014857" data-name="Trazado 1014857" d="M3347.962,994.379a.239.239,0,0,0,.22-.144c.162-.361,5.156-14.579,5.368-15.185a.238.238,0,0,0-.148-.3.235.235,0,0,0-.307.148c-1.793,5.107-5.221,14.843-5.352,15.148a.241.241,0,0,0,.122.317.226.226,0,0,0,.1.022" transform="translate(-8689.534 4437.354)" fill="#313440"/>
        <path id="Trazado_1014858" data-name="Trazado 1014858" d="M3394.481,1005.657a.245.245,0,0,0,.228-.16l3.8-10.722a.242.242,0,0,0-.456-.163l-3.8,10.722a.241.241,0,0,0,.148.308.237.237,0,0,0,.08.016" transform="translate(-8725.761 4425.109)" fill="#313440"/>
        <path id="Trazado_1014859" data-name="Trazado 1014859" d="M3430.823,1039.714a.239.239,0,0,0,.22-.145l3.355-7.5a.241.241,0,1,0-.44-.195l-3.355,7.5a.24.24,0,0,0,.121.317.225.225,0,0,0,.1.022" transform="translate(-8754.065 4396.073)" fill="#313440"/>
        <path id="Trazado_1014860" data-name="Trazado 1014860" d="M3348.112,1091.115a.24.24,0,0,1,.06.425l-2.923,1.977a.239.239,0,0,1-.269-.4l2.923-1.977a.24.24,0,0,1,.21-.029" transform="translate(-8687.316 4349.837)" fill="#313440"/>
        <path id="Trazado_1014861" data-name="Trazado 1014861" d="M3350.167,1091.846a.236.236,0,0,0,.155,0,.238.238,0,0,0,.146-.3l-1.172-3.327a.24.24,0,0,0-.452.158l1.172,3.327a.24.24,0,0,0,.151.148" transform="translate(-8690.397 4352.212)" fill="#313440"/>
        <path id="Trazado_1014862" data-name="Trazado 1014862" d="M3383.76,1103.823a.24.24,0,0,1,.06.425l-2.923,1.977a.24.24,0,0,1-.27-.4l2.923-1.977a.239.239,0,0,1,.21-.029" transform="translate(-8715.079 4339.94)" fill="#313440"/>
        <path id="Trazado_1014863" data-name="Trazado 1014863" d="M3385.815,1104.555a.24.24,0,0,0,.3-.306l-1.173-3.327a.24.24,0,0,0-.452.158l1.173,3.327a.241.241,0,0,0,.151.148" transform="translate(-8718.16 4342.315)" fill="#313440"/>
        <path id="Trazado_1014864" data-name="Trazado 1014864" d="M2327.576,1095.037c2.5.938,5.008,5,6.26,5.63s22.536,2.5,38.812,19.081,31.613,33.782,31.613,33.782,3.443-15.014,10.955-18.142,8.451-7.507,9.39-14.389-.938-14.076,5.008-14.389,41.316,8.446,42.881,11.886-6.573,9.384-5.947,13.763,4.069,86.645-38.186,89.147-52.584-10.635-54.149-12.2-10.955-9.071-10.955-9.071l1.252,67.564h-163.7s-2.191-36.6-1.878-40.664,8.451-13.45,4.695-19.081-5.947-6.881-3.756-15.64,18-57.242,40.064-77.886c13.7-12.814,41.942-18.768,47.889-21.9s5.008-5.631,10.016-3.754,29.735,6.256,29.735,6.256" transform="translate(-7794.839 4352.149)" fill="#fcb033"/>
        <path id="Trazado_1014865" data-name="Trazado 1014865" d="M2199.948,1657.607c-.574-10.581-1.192-23.2-1.016-25.491.313-4.067,8.451-13.45,4.695-19.081-1.3-1.95-2.406-3.373-3.214-4.766,47.936,8.041,158.834.452,162.905.17l.909,49.058c-67.184,8.454-145.561,1.9-164.279.11" transform="translate(-7794.839 3947.07)" fill="#34b7bf"/>
        <path id="Trazado_1014866" data-name="Trazado 1014866" d="M3023.562,1347.727c3.932,4.305,6.373,7.042,6.373,7.042a51.157,51.157,0,0,1,2.816-8.237c5.38,1.846,44.16,16.167,52.185,47.729-5.54,15.165-14.973,27.442-30.9,28.385-32.045,1.9-45.72-5.2-51.145-9.419,4.494-10.995,18.122-45.5,20.67-65.5" transform="translate(-8420.981 4150.91)" fill="#34b7bf"/>
        <path id="Trazado_1014867" data-name="Trazado 1014867" d="M2669.762,1023.469l-1.565,16.578s-23.631,3.441-31.926-3.753l5.008-17.83,10.329-.938Z" transform="translate(-8135.459 4407.138)" fill="#f0b48f"/>
        <path id="Trazado_1014868" data-name="Trazado 1014868" d="M2729.234,1045.756l.782-7.82-16.276-3.441s2.974,4.223,15.494,11.261" transform="translate(-8195.792 4393.923)" fill="#313440"/>
        <path id="Trazado_1014869" data-name="Trazado 1014869" d="M2634.731,744.108c2.32,4.238,2.346,11.592,5.11,20.7s14.711,29.247-5.008,36.754c-17.4,6.625-38.7-8.216-38.7-8.216l-12.02-28.211c-5.583-13.1,1.4-25.413,14.7-30.537q.46-.177.936-.343c26.211-9.1,34.984,9.858,34.984,9.858" transform="translate(-8093.332 4629.676)" fill="#f0b48f"/>
        <path id="Trazado_1014870" data-name="Trazado 1014870" d="M2831.45,866.929s8.921,6.412,9.39,8.6-4.225,6.881-4.225,6.881l-7.2-4.379Z" transform="translate(-8285.88 4524.422)" fill="#f0b48f"/>
        <path id="Trazado_1014871" data-name="Trazado 1014871" d="M2810.423,875.99c-.367-1.365-.215-2.592.339-2.74s1.3.836,1.668,2.2.216,2.591-.339,2.74-1.3-.837-1.668-2.2" transform="translate(-8270.932 4519.511)" fill="#313440"/>
        <path id="Trazado_1014872" data-name="Trazado 1014872" d="M2792.087,844.09c-1.192.892-3.2,1.359-4.095,1.966-.791.536-2.154,1.989-3.056.885a2.511,2.511,0,0,1,.41-2.578,7.355,7.355,0,0,1,1.605-1.412c1.315-.943,3.365-2.49,5.1-1.871a1.4,1.4,0,0,1,.907.919,1.888,1.888,0,0,1-.874,2.09" transform="translate(-8251.081 4544.664)" fill="#313440"/>
        <path id="Trazado_1014873" data-name="Trazado 1014873" d="M2814.689,895.123a4.468,4.468,0,0,0,2.458-1.4.222.222,0,0,0-.361-.26,4.157,4.157,0,0,1-2.212,1.234.223.223,0,1,0,.115.43" transform="translate(-8274.191 4503.833)" fill="#313440"/>
        <path id="Trazado_1014874" data-name="Trazado 1014874" d="M2571.591,762.082c2.347,2.581,3.991,3.988,6.573,3.284s-3.764-16.506-2.113-20.879c4.7-12.434,21.6-6.8,21.6-11.261s-6.338-4.223-10.8-5.4,4.46-.234,2.113-3.519-8.451,1.173-18.076-.7-39.673,5.4-37.795,18.768c0,0-4.461-6.1-5.869-3.988s5.634,5.63,5.634,5.63-8.921,1.173-6.573,3.988,6.338,0,6.338,0-11.738,15.718.235,27.917,19.015,14.076,19.25,16.656-1.878,6.1.47,6.8,4.93-3.284,6.338-2.581-.469,2.815,3.756,2.346,5.869-19.941,5.869-19.941l-6.338-14.78Z" transform="translate(-8049.496 4636.464)" fill="#313440"/>
        <path id="Trazado_1014875" data-name="Trazado 1014875" d="M2853.94,1284.864a.469.469,0,0,0,.461-.387c4.126-22.9,31.8-31.922,32.076-32.01a.469.469,0,1,0-.284-.894c-.284.09-28.489,9.272-32.716,32.739a.469.469,0,0,0,.379.544.436.436,0,0,0,.084.007" transform="translate(-8304.613 4224.881)" fill="#313440"/>
        <path id="Trazado_1014876" data-name="Trazado 1014876" d="M3259.264,1272.712a.467.467,0,0,0,.313-.816c-.205-.18-2.318-1.758-12.986-1.758-10.589,0-26.206-5.777-26.363-5.836a.47.47,0,0,0-.328.88c.157.058,15.932,5.894,26.691,5.894,10.287,0,12.358,1.519,12.377,1.536a.492.492,0,0,0,.295.1" transform="translate(-8589.75 4214.973)" fill="#313440"/>
        <path id="Trazado_1014877" data-name="Trazado 1014877" d="M3241.293,1203.854a.469.469,0,0,0,.466-.418c.748-6.913,2.329-17.666,3.621-18.957a.469.469,0,0,0-.664-.663c-1.94,1.937-3.7,17.725-3.891,19.517a.472.472,0,0,0,.416.519.482.482,0,0,0,.051,0" transform="translate(-8606.282 4277.739)" fill="#313440"/>
        <path id="Trazado_1014878" data-name="Trazado 1014878" d="M3273.129,1214.819a.47.47,0,0,0,.469-.469c0-3.895,3.011-18.291,3.042-18.436a.47.47,0,0,0-.363-.557.477.477,0,0,0-.555.363c-.125.6-3.062,14.638-3.062,18.63a.47.47,0,0,0,.47.469" transform="translate(-8631.075 4268.651)" fill="#313440"/>
        <path id="Trazado_1014879" data-name="Trazado 1014879" d="M3307.089,1226.01a.468.468,0,0,0,.462-.391l3.052-18.064a.47.47,0,0,0-.926-.157l-3.052,18.064a.468.468,0,0,0,.385.541.376.376,0,0,0,.079.007" transform="translate(-8657.522 4259.571)" fill="#313440"/>
        <path id="Trazado_1014880" data-name="Trazado 1014880" d="M3339.988,1246.3a.469.469,0,0,0,.459-.378l2.582-12.9a.469.469,0,0,0-.369-.552.475.475,0,0,0-.552.369l-2.582,12.9a.469.469,0,0,0,.368.552.533.533,0,0,0,.093.009" transform="translate(-8683.145 4239.747)" fill="#313440"/>
        <path id="Trazado_1014881" data-name="Trazado 1014881" d="M3141.815,1406.828a.467.467,0,0,0,.45-.6c-2.928-9.9-9.537-17.078-15.367-23.408l-.936-1.017a.469.469,0,1,0-.691.634l.936,1.017c5.76,6.257,12.292,13.346,15.157,23.042a.471.471,0,0,0,.451.335" transform="translate(-8516.194 4123.561)" fill="#313440"/>
        <path id="Trazado_1014882" data-name="Trazado 1014882" d="M3166.591,1418.724a.47.47,0,0,0,.3-.827c-.4-.339-9.8-8.323-13.685-8.323a.469.469,0,1,0,0,.938c2.939,0,10.436,5.847,13.076,8.1a.468.468,0,0,0,.3.112" transform="translate(-8537.683 4101.813)" fill="#313440"/>
        <path id="Trazado_1014883" data-name="Trazado 1014883" d="M2874.685,1508.762a.463.463,0,0,0,.338-.145.469.469,0,0,0-.013-.663,109.487,109.487,0,0,1-18.536-23.891.469.469,0,1,0-.827.444,110.479,110.479,0,0,0,18.711,24.125.476.476,0,0,0,.326.13" transform="translate(-8306.266 4043.994)" fill="#313440"/>
        <path id="Trazado_1014884" data-name="Trazado 1014884" d="M2560.922,1399.258a.444.444,0,0,0,.128-.018.469.469,0,0,0,.325-.577c-4.152-14.75-.958-39.213-.926-39.458a.47.47,0,0,0-.4-.528.48.48,0,0,0-.528.4c-.032.248-3.25,24.9.953,39.836a.471.471,0,0,0,.452.343" transform="translate(-8074.743 4141.454)" fill="#313440"/>
        <path id="Trazado_1014885" data-name="Trazado 1014885" d="M2628.775,1126.879a64.159,64.159,0,0,0,17.357-2.529.47.47,0,0,0-.288-.894c-.273.09-27.541,8.634-39.87-6.418a.469.469,0,1,0-.726.594c5.978,7.3,15.3,9.248,23.527,9.248" transform="translate(-8111.216 4329.773)" fill="#313440"/>
        <path id="Trazado_1014886" data-name="Trazado 1014886" d="M2343.472,1276.934c.021,0,.041,0,.063,0a.47.47,0,0,0,.4-.528l-2.113-15.953a.477.477,0,0,0-.527-.4.47.47,0,0,0-.4.528l2.113,15.953a.47.47,0,0,0,.465.407" transform="translate(-7905.417 4218.266)" fill="#313440"/>
        <path id="Trazado_1014887" data-name="Trazado 1014887" d="M2231.279,1625.019a.9.9,0,0,0,.8-.407c1.719-2.588-12.25-21.414-18.818-27.206a.47.47,0,0,0-.622.7c7.3,6.437,19.674,24.285,18.659,25.982a1.838,1.838,0,0,1-.773-.247c-6.138-2.953-11.023-10.771-11.072-10.85a.47.47,0,0,0-.8.495c.2.33,5.076,8.127,11.464,11.2a2.8,2.8,0,0,0,1.16.328" transform="translate(-7805.415 3955.622)" fill="#313440"/>
        <path id="Trazado_1014888" data-name="Trazado 1014888" d="M3056.672,1574.455a.469.469,0,0,0,.26-.859c-8.972-5.977-17.855-19.437-17.944-19.573a.469.469,0,1,0-.785.513c.09.137,9.078,13.757,18.208,19.84a.468.468,0,0,0,.26.079" transform="translate(-8448.423 3989.482)" fill="#313440"/>
        <path id="Trazado_1014889" data-name="Trazado 1014889" d="M2321.2,1522.2a.47.47,0,0,0,.469-.469V1472.47c0-21.755,6.964-57.729,7.034-58.09a.47.47,0,0,0-.922-.18c-.07.361-7.051,36.425-7.051,58.27v49.266a.47.47,0,0,0,.47.469" transform="translate(-7889.716 4098.505)" fill="#313440"/>
        <path id="Trazado_1014890" data-name="Trazado 1014890" d="M2808.386,963.739c.227-4.315-3.572-2.818-6.329-4.071s-5.65-3.13-8.084-.188c-3.885,4.7-.376,7.139,4.638,8.016s9.588-.188,9.776-3.758" transform="translate(-8256.984 4453.563)" fill="#fff"/>
        <path id="Trazado_1014891" data-name="Trazado 1014891" d="M2687.354,893.83s-7.486-7.885-13.914-5.691-7.506,15.957-.676,18.745,15.164-2.46,15.164-2.46Z" transform="translate(-8160.254 4508.204)" fill="#f0b48f"/>
        <path id="Trazado_1014892" data-name="Trazado 1014892" d="M2686.093,919.22a.278.278,0,0,1-.124-.025,5.989,5.989,0,0,1-3.081-7.169c.575-2.092,1.422-3.373,2.666-4.032,1.561-.826,3.66-.665,7.244.553a.281.281,0,1,1-.181.531c-3.375-1.148-5.408-1.324-6.8-.588-1.1.581-1.856,1.752-2.387,3.685a5.353,5.353,0,0,0,2.771,6.508.281.281,0,0,1-.107.536" transform="translate(-8171.553 4492.84)" fill="#313440"/>
        <path id="Trazado_1014893" data-name="Trazado 1014893" d="M3621.162,1712.57a4.316,4.316,0,0,0-4.317-4.314h-44.027a4.316,4.316,0,0,0-4.317,4.314v12.847a26.144,26.144,0,0,0,2.769,11.694c16.1-5.126,33.319-7.092,49.893-12.977Z" transform="translate(-8861.475 3869.201)" fill="#f15a28"/>
        <path id="Trazado_1014894" data-name="Trazado 1014894" d="M3581.018,1793.011a26.318,26.318,0,0,0,49.893-11.694v-1.283c-16.573,5.885-33.793,7.851-49.893,12.977" transform="translate(-8871.224 3813.301)" fill="#f15a28"/>
        <path id="Trazado_1014895" data-name="Trazado 1014895" d="M3632.938,1714.155c0-1.354-10.4-2.451-23.223-2.451s-23.223,1.1-23.223,2.451,10.4,2.452,23.223,2.452,23.223-1.1,23.223-2.452" transform="translate(-8875.485 3866.516)" fill="#313440"/>
        <path id="Trazado_1014896" data-name="Trazado 1014896" d="M3596.042,1444.736c.49-.654,7.687-21.083-.981-22.881s-12.266,5.557-13.574,15.2,2.126,21.9.49,22.391-3.925-5.884-8.341-2.452-.49,9.479,2.781,12.748,3.107,4.576,2.453,4.576-4.089-1.961-6.051.817-1.962,9.806,9.486,13.4c0,0,9.322,2.452,15.7-.164s-1.962-43.638-1.962-43.638" transform="translate(-8863.939 4092.461)" fill="#8fa159"/>
        <path id="Trazado_1014897" data-name="Trazado 1014897" d="M3644.394,1507.533c1.308,0,10.031.872,13.738-1.09s13.52-16.126,10.467-19.612-5.888-2.833-5.888-2.833,11.775-12.639,5.67-14.383-8.068,1.308-8.068,1.308,8.5-26.15-4.58-25.5-5.887,25.279-5.887,25.279-2.181-10.024-9.159-8.281-5.67,14.6-1.963,24.189c0,0-4.579-3.923-7.2.871s12.865,20.048,12.865,20.048" transform="translate(-8910.329 4073.9)" fill="#b0c66b"/>
        <path id="Trazado_1014898" data-name="Trazado 1014898" d="M3716.783,1581.821a.354.354,0,0,1-.242-.092.363.363,0,0,1-.035-.518c.058-.066,5.718-6.58,4.187-10.407a2.836,2.836,0,0,0-1.742-1.819c-1.664-.515-3.743.829-3.763.843a.369.369,0,0,1-.57-.357c.017-.115,1.589-11.576-1.114-17.782a.368.368,0,0,1,.674-.294c2.416,5.544,1.574,14.769,1.264,17.445a5.347,5.347,0,0,1,3.729-.561,3.546,3.546,0,0,1,2.208,2.247c1.7,4.247-4.071,10.888-4.319,11.167a.363.363,0,0,1-.276.126" transform="translate(-8974.379 3991.536)" fill="#313440"/>
        <path id="Trazado_1014899" data-name="Trazado 1014899" d="M3638.412,1641.711a.367.367,0,0,1-.268-.115c-.441-.46-10.788-11.36-8.341-15.8a4.637,4.637,0,0,1,2.842-2.38,6.981,6.981,0,0,1,4.805.768.37.37,0,0,1,.135.5.38.38,0,0,1-.5.135,6.322,6.322,0,0,0-4.244-.7,3.926,3.926,0,0,0-2.39,2.026c-1.814,3.292,5.327,11.895,8.231,14.933a.368.368,0,0,1-.268.622" transform="translate(-8908.927 3935.407)" fill="#313440"/>
        <path id="Trazado_1014900" data-name="Trazado 1014900" d="M3729.839,1510.235a.369.369,0,0,1-.291-.593c.035-.049,3.636-4.742,3.032-7.179a1.546,1.546,0,0,0-.93-1.085,2.3,2.3,0,0,0-2-.052c-1.889.852-2.882,4.04-2.893,4.072a.356.356,0,0,1-.458.245.364.364,0,0,1-.245-.458c.043-.147,1.1-3.545,3.294-4.532a3.059,3.059,0,0,1,2.608.052,2.285,2.285,0,0,1,1.342,1.583c.688,2.78-3.009,7.6-3.167,7.8a.364.364,0,0,1-.291.144" transform="translate(-8984.163 4031.089)" fill="#313440"/>
        <path id="Trazado_1014901" data-name="Trazado 1014901" d="M3619.57,1609.653a.365.365,0,0,1-.345-.242c-.031-.083-.711-2.043,1.391-4.146a2.967,2.967,0,0,1,2.122-.938,3.361,3.361,0,0,1,2.185,1.122.368.368,0,0,1-.043.518.361.361,0,0,1-.518-.04,2.654,2.654,0,0,0-1.658-.863,2.241,2.241,0,0,0-1.566.722c-1.753,1.755-1.241,3.309-1.218,3.375a.369.369,0,0,1-.224.469.394.394,0,0,1-.124.023" transform="translate(-8900.877 3950.14)" fill="#313440"/>
        <path id="Trazado_1014902" data-name="Trazado 1014902" d="M3806.962,1591.693c2.218,2.34,10.14-7.845,6.542-8.989s-9.486,5.884-6.542,8.989" transform="translate(-9046.566 3967.077)" fill="#b0c66b"/>
        <path id="Trazado_1014903" data-name="Trazado 1014903" d="M3574.759,1516.941c-3.084.946,2.526,12.564,5.151,9.851s-1.059-11.107-5.151-9.851" transform="translate(-8865.647 4018.295)" fill="#8fa159"/>
        <path id="Trazado_1014904" data-name="Trazado 1014904" d="M3791.053,1502.155c1.712.855,2.289-2.288,1.308-2.615s-2.617,1.961-1.308,2.615" transform="translate(-9034.419 4031.772)" fill="#b0c66b"/>
        <path id="Trazado_1014905" data-name="Trazado 1014905" d="M3570.729,1561.263c1.712.856,2.29-2.288,1.309-2.615s-2.617,1.961-1.309,2.615" transform="translate(-8862.832 3985.74)" fill="#8fa159"/>
        <path id="Trazado_1014906" data-name="Trazado 1014906" d="M3704.306,1403.319c3.13.313,2.126-7.845.327-7.845s-3.6,7.518-.327,7.845" transform="translate(-8965.825 4112.794)" fill="#8fa159"/>
        <path id="Trazado_1014907" data-name="Trazado 1014907" d="M3543.148,1629.193s-.327-5.067-4.579-4.249-1.145,10.3,2.289,9.643,2.29-5.393,2.29-5.393" transform="translate(-8836.559 3934.153)" fill="#8fa159"/>
        <path id="Trazado_1014908" data-name="Trazado 1014908" d="M3621.47,1770.116c-.394-.05-.789-.1-1.177-.134-2.863-.227-6.257.855-6.9,3.81a6.75,6.75,0,0,0,.265,3.161c.061.24.123.48.174.72.175.822.082,1.548-.229,1.765-.388.284-1.329-.212-1.86-.965a13.052,13.052,0,0,1-.69-1.139,8.052,8.052,0,0,0-2.075-2.676,4.945,4.945,0,0,0-7.453,2.469,8.142,8.142,0,0,0-.236,1.241,5.926,5.926,0,0,1-.146.828,2.394,2.394,0,0,1-2.108,1.675,2.46,2.46,0,0,1-2.256-1.471,6.272,6.272,0,0,1-.28-1.622,8.665,8.665,0,0,0-.407-2.229,5.258,5.258,0,0,0-8.19-2.017,8.66,8.66,0,0,0-1.818,2.715c-.176.358-.352.715-.552,1.054-.445.753-1.242,1.469-1.837,1.323-.679-.174-1.091-1.369-1.454-2.421l-.093-.271a7.665,7.665,0,0,0-2.626-3.887,4.476,4.476,0,0,0-5.265-.1,6.052,6.052,0,0,0-1.157,1.3c-.119.166-.237.332-.368.49a3.434,3.434,0,0,1-3.1,1.05,4.19,4.19,0,0,1-.821-.195v.959c0,.584.047,1.157.088,1.731.14.026.266.081.409.1a6.013,6.013,0,0,0,5.44-1.971c.17-.2.327-.421.482-.638a3.9,3.9,0,0,1,.648-.771,1.9,1.9,0,0,1,2.121.171,5.192,5.192,0,0,1,1.683,2.62l.089.26c.521,1.514,1.234,3.588,3.288,4.106,2.085.531,3.852-1.034,4.732-2.528.234-.4.439-.81.645-1.226a6.5,6.5,0,0,1,1.237-1.941,2.659,2.659,0,0,1,3.963.976,6.543,6.543,0,0,1,.262,1.576,8.4,8.4,0,0,0,.446,2.327,5.047,5.047,0,0,0,4.607,3.146c.072,0,.143,0,.215-.005a5.039,5.039,0,0,0,4.5-3.578,8.523,8.523,0,0,0,.219-1.19,5.812,5.812,0,0,1,.152-.851,2.349,2.349,0,0,1,3.371-1.116,5.97,5.97,0,0,1,1.367,1.867,15.248,15.248,0,0,0,.832,1.366c1.269,1.8,3.676,2.888,5.5,1.6,1.215-.851,1.7-2.513,1.285-4.446-.059-.276-.128-.549-.2-.825a4.661,4.661,0,0,1-.243-1.964c.289-1.336,2.348-1.9,4.123-1.757.46.038.926.1,1.392.16Z" transform="translate(-8861.715 3821.152)" fill="#fff"/>
        <path id="Trazado_1014909" data-name="Trazado 1014909" d="M2797.111,636.711a.962.962,0,0,1-.639-.243l-22.2-19.827h-57.491a.956.956,0,1,1,0-1.911h57.857a.961.961,0,0,1,.639.243l22.473,20.07a.957.957,0,0,1-.639,1.669" transform="translate(-8197.414 4720.833)" fill="#7d86ba"/>
        <path id="Trazado_1014910" data-name="Trazado 1014910" d="M2755.431,574.393h-55.467a1.434,1.434,0,1,1,0-2.867h55.467a1.434,1.434,0,1,1,0,2.867" transform="translate(-8183.947 4754.48)" fill="#7d86ba"/>
        <path id="Trazado_1014911" data-name="Trazado 1014911" d="M2739.46,520.388H2707.9a1.434,1.434,0,1,1,0-2.867h31.559a1.434,1.434,0,1,1,0,2.867" transform="translate(-8190.127 4796.54)" fill="#7d86ba"/>
        <path id="Trazado_1014912" data-name="Trazado 1014912" d="M2151.186,511.817c-12.8,0-23.207-9.992-23.207-22.278s10.41-22.276,23.207-22.276,23.208,9.993,23.208,22.276-10.412,22.278-23.208,22.278m0-34.273a12.007,12.007,0,1,0,12.5,12,12.267,12.267,0,0,0-12.5-12" transform="translate(-7739.604 4835.68)" fill="#33bac1"/>
        <path id="Trazado_1014913" data-name="Trazado 1014913" d="M2181.555,511.982c12.8,0,23.209-9.992,23.209-22.278,0-11.97-9.9-21.738-22.243-22.229V477.8a11.96,11.96,0,1,1-.965,23.9,12.75,12.75,0,0,1-7.182-2.21l-7.4,7.521a23.688,23.688,0,0,0,14.581,4.97" transform="translate(-7769.974 4835.515)" fill="#f05923"/>
        <path id="Trazado_1014914" data-name="Trazado 1014914" d="M2237.256,467.476V477.8a12.218,12.218,0,0,1,11.414,10.734l9.379-6.513a23.164,23.164,0,0,0-20.792-14.548" transform="translate(-7824.708 4835.514)" fill="#fcb036"/>
        <path id="Trazado_1014915" data-name="Trazado 1014915" d="M2173.229,710.749h-42.183a.256.256,0,0,1-.255-.255v-3.648a.256.256,0,0,1,.255-.255h42.183a.256.256,0,0,1,.255.255v3.648a.255.255,0,0,1-.255.255" transform="translate(-7741.795 4649.292)" fill="#7d89bd"/>
        <path id="Trazado_1014916" data-name="Trazado 1014916" d="M2173.229,757.738h-42.183a.256.256,0,0,1-.255-.255v-3.648a.256.256,0,0,1,.255-.255h42.183a.256.256,0,0,1,.255.255v3.648a.255.255,0,0,1-.255.255" transform="translate(-7741.795 4612.698)" fill="#7d89bd"/>
        <path id="Trazado_1014917" data-name="Trazado 1014917" d="M2151.186,862.569c-12.8,0-23.207-9.992-23.207-22.278s10.41-22.276,23.207-22.276,23.208,9.993,23.208,22.276-10.412,22.278-23.208,22.278m0-34.273a12.007,12.007,0,1,0,12.5,12,12.267,12.267,0,0,0-12.5-12" transform="translate(-7739.604 4562.516)" fill="#fcb036"/>
        <path id="Trazado_1014918" data-name="Trazado 1014918" d="M2181.555,862.735c12.8,0,23.209-9.992,23.209-22.278,0-11.97-9.9-21.738-22.243-22.229v10.327a11.96,11.96,0,1,1-.965,23.9,12.75,12.75,0,0,1-7.182-2.21l-7.4,7.521a23.688,23.688,0,0,0,14.581,4.97" transform="translate(-7769.974 4562.35)" fill="#33bac1"/>
        <path id="Trazado_1014919" data-name="Trazado 1014919" d="M2237.256,818.228v10.327a12.218,12.218,0,0,1,11.414,10.734l9.379-6.513a23.164,23.164,0,0,0-20.792-14.548" transform="translate(-7824.708 4562.35)" fill="#f05923"/>
        <path id="Trazado_1014920" data-name="Trazado 1014920" d="M2173.229,1061.5h-42.183a.255.255,0,0,1-.255-.255V1057.6a.256.256,0,0,1,.255-.255h42.183a.256.256,0,0,1,.255.255v3.648a.255.255,0,0,1-.255.255" transform="translate(-7741.795 4376.128)" fill="#7d89bd"/>
        <path id="Trazado_1014921" data-name="Trazado 1014921" d="M2173.229,1108.491h-42.183a.255.255,0,0,1-.255-.255v-3.648a.256.256,0,0,1,.255-.255h42.183a.256.256,0,0,1,.255.255v3.648a.255.255,0,0,1-.255.255" transform="translate(-7741.795 4339.533)" fill="#7d89bd"/>
        <path id="Trazado_1014922" data-name="Trazado 1014922" d="M3502.082,1138.423a.771.771,0,0,1,.515.2l17.883,15.97h46.308a.77.77,0,1,1,0,1.54h-46.6a.771.771,0,0,1-.514-.2l-18.1-16.166a.77.77,0,0,1,.514-1.344" transform="translate(-8809.148 4312.984)" fill="#7d86ba"/>
        <path id="Trazado_1014923" data-name="Trazado 1014923" d="M3603.454,1242.823h44.677a1.155,1.155,0,1,1,0,2.309h-44.677a1.155,1.155,0,1,1,0-2.309" transform="translate(-8887.797 4231.678)" fill="#7d86ba"/>
        <path id="Trazado_1014924" data-name="Trazado 1014924" d="M3684.117,1286.323h25.419a1.155,1.155,0,1,1,0,2.309h-25.419a1.155,1.155,0,1,1,0-2.309" transform="translate(-8950.616 4197.8)" fill="#7d86ba"/>
        <path id="Trazado_1014925" data-name="Trazado 1014925" d="M3327.684,1671.531l-3.748-18.756a7.708,7.708,0,0,0-5.961-6.033l-.089-.024-11.8-3.918,12.091-4.4a7.741,7.741,0,0,0,5.814-5.91l4.052-19.033,4.436,19.232a7.674,7.674,0,0,0,5.692,5.76l.057.016,12.892,4.137-12.855,4.332a7.741,7.741,0,0,0-5.986,5.736Zm-9.32-26.393a9.357,9.357,0,0,1,7.191,7.314l2.289,11.456,2.835-11.627a9.4,9.4,0,0,1,7.214-6.953l7.953-2.684-8.09-2.6a9.316,9.316,0,0,1-6.88-6.985l-2.763-11.979-2.5,11.752A9.4,9.4,0,0,1,3318.6,1640l-7.492,2.73Z" transform="translate(-8657.111 3943.029)" fill="#34b7bf"/>
        <path id="Trazado_1014926" data-name="Trazado 1014926" d="M2480.473,531.792l7.772-2.624-7.867-2.524a6.4,6.4,0,0,1-4.719-4.775l-2.7-11.687-2.454,11.528a6.394,6.394,0,0,1-4.82,4.9l-7.314,2.665,7.149,2.374a6.4,6.4,0,0,1,4.942,5l2.26,11.313,2.784-11.415a6.4,6.4,0,0,1,4.963-4.755" transform="translate(-7996.915 4802.255)" fill="#fcb033"/>
        <path id="Trazado_1014927" data-name="Trazado 1014927" d="M3717.121,500.977l8.608-2.906-8.714-2.8a7.084,7.084,0,0,1-5.227-5.289l-2.986-12.945-2.718,12.768a7.083,7.083,0,0,1-5.339,5.427l-8.1,2.952,7.918,2.63a7.083,7.083,0,0,1,5.474,5.539l2.5,12.531,3.084-12.644a7.083,7.083,0,0,1,5.5-5.267" transform="translate(-8958.158 4828.065)" fill="#d8d4db"/>
        <path id="Trazado_1014928" data-name="Trazado 1014928" d="M2873.481,1902.477h-50.7a.918.918,0,0,1,0-1.836h50.7a.918.918,0,0,1,0,1.836" transform="translate(-8279.999 3719.373)" fill="#545e7d"/>
        <path id="Trazado_1014929" data-name="Trazado 1014929" d="M2270.812,1902.516h0l-146.543-.038a.918.918,0,0,1,0-1.836h0l146.543.038a.918.918,0,0,1,0,1.836" transform="translate(-7736 3719.372)" fill="#545e7d"/>
        <path id="Trazado_1014930" data-name="Trazado 1014930" d="M3301.838,1902.477H3149.289a.918.918,0,0,1,0-1.836h152.549a.918.918,0,0,1,0,1.836" transform="translate(-8534.281 3719.373)" fill="#545e7d"/>
      </g>
    </g>
  </g>
</svg>
