<svg xmlns="http://www.w3.org/2000/svg" width="190" height="166.221" viewBox="0 0 190 166.221">
  <g id="Grupo_1162601" data-name="Grupo 1162601" transform="translate(-7225 -1397.187)">
    <g id="Grupo_1162464" data-name="Grupo 1162464" transform="translate(6624.744 999.968)">
      <rect id="Rectángulo_35929" data-name="Rectángulo 35929" width="190" height="158.441" transform="translate(600.256 404)" fill="#fdf6ea"/>
    </g>
    <g id="filled_outline" data-name="filled outline" transform="translate(7222.66 1377.187)">
      <path id="Trazado_1014646" data-name="Trazado 1014646" d="M109.259,349.57,117.57,272H48.311L40,349.57Z" transform="translate(-17.427 -164.734)" fill="#5f86fe"/>
      <path id="Trazado_1014647" data-name="Trazado 1014647" d="M299.523,326.022H266.279l-9.513-46.375A9.57,9.57,0,0,0,247.391,272h0a9.57,9.57,0,0,0-9.4,11.378l9.5,49.416a13.852,13.852,0,0,0,13.6,11.236h38.424Z" transform="translate(-146.744 -164.734)" fill="#5f86fe"/>
      <path id="Trazado_1014648" data-name="Trazado 1014648" d="M349.924,404.362H288l9.288-40.069h61.924Z" transform="translate(-179.547 -225.066)" fill="#fcc419"/>
      <rect id="Rectángulo_409986" data-name="Rectángulo 409986" width="36.015" height="5.464" transform="translate(75.209 179.372)" fill="#e67701"/>
      <circle id="Elipse_11847" data-name="Elipse 11847" cx="6.926" cy="6.926" r="6.926" transform="translate(136.157 151.592)" fill="#f5a000"/>
      <path id="Trazado_1014649" data-name="Trazado 1014649" d="M144,272h16.622l-8.311,30.474Z" transform="translate(-85.413 -164.734)" fill="#3a69ff"/>
      <path id="Trazado_1014650" data-name="Trazado 1014650" d="M325.881,74.749V59.132h-8.689a34.941,34.941,0,0,0-4.512-10.887l6.143-6.147-11.04-11.04L301.637,37.2a34.941,34.941,0,0,0-10.887-4.512V24H275.132v8.689A34.941,34.941,0,0,0,264.244,37.2L258.1,31.057,247.057,42.1l6.143,6.147a34.941,34.941,0,0,0-4.512,10.887H240V74.749h8.689A34.941,34.941,0,0,0,253.2,85.637l-6.143,6.147,11.04,11.04,6.147-6.143a34.941,34.941,0,0,0,10.887,4.512v8.689h15.618v-8.689a34.941,34.941,0,0,0,10.887-4.512l6.147,6.143,11.04-11.04-6.143-6.147a34.94,34.94,0,0,0,4.512-10.887Zm-42.94,10.2A18.007,18.007,0,1,1,300.948,66.94,18.007,18.007,0,0,1,282.94,84.948Z" transform="translate(-148.169 -2.615)" fill="#b4c6ff"/>
      <path id="Trazado_1014651" data-name="Trazado 1014651" d="M153.555,56.556V49h-4.2a16.858,16.858,0,0,0-2.185-5.271l2.975-2.971L144.8,35.414l-2.971,2.975a16.86,16.86,0,0,0-5.271-2.185V32H129v4.2a16.859,16.859,0,0,0-5.271,2.185l-2.971-2.975-5.343,5.343,2.975,2.971A16.86,16.86,0,0,0,116.2,49H112v7.556h4.2a16.859,16.859,0,0,0,2.185,5.271L115.414,64.8l5.343,5.343,2.971-2.975A16.859,16.859,0,0,0,129,69.351v4.2h7.556v-4.2a16.859,16.859,0,0,0,5.271-2.185l2.971,2.975,5.343-5.343-2.975-2.971a16.859,16.859,0,0,0,2.185-5.271Zm-20.778,5.918a9.7,9.7,0,1,1,9.7-9.7,9.7,9.7,0,0,1-9.7,9.7Z" transform="translate(-64.494 -7.844)" fill="#b4c6ff"/>
      <path id="Trazado_1014652" data-name="Trazado 1014652" d="M54.474,146.007v-5.541H51.392a12.452,12.452,0,0,0-1.6-3.865l2.182-2.182L48.054,130.5l-2.182,2.182a12.452,12.452,0,0,0-3.865-1.6V128H36.467v3.082a12.452,12.452,0,0,0-3.865,1.6L30.42,130.5,26.5,134.42l2.182,2.182a12.452,12.452,0,0,0-1.6,3.865H24v5.541h3.082a12.452,12.452,0,0,0,1.6,3.865L26.5,152.054l3.917,3.917,2.182-2.182a12.452,12.452,0,0,0,3.865,1.6v3.082h5.541v-3.082a12.452,12.452,0,0,0,3.865-1.6l2.182,2.182,3.917-3.917-2.182-2.182a12.452,12.452,0,0,0,1.6-3.865Zm-15.237,4.339a7.109,7.109,0,1,1,7.109-7.109,7.109,7.109,0,0,1-7.109,7.109Z" transform="translate(-6.968 -70.6)" fill="#b4c6ff"/>
      <path id="Trazado_1014653" data-name="Trazado 1014653" d="M164.311,240.622V224H156v16.622l4.156,11.081Z" transform="translate(-93.257 -133.356)" fill="#ffb3d0"/>
      <path id="Trazado_1014654" data-name="Trazado 1014654" d="M206.507,392.693V393.7a3.837,3.837,0,0,1-3.837,3.837H194.04v1.115A14.192,14.192,0,0,1,182.966,412.5l-6.916,1.555,2.753-18.447v0l13.848-3.276a12.219,12.219,0,0,1,2.815-.329h10.347a.7.7,0,0,1,.693.693Z" transform="translate(-106.364 -243.179)" fill="#ffb3d0"/>
      <path id="Trazado_1014655" data-name="Trazado 1014655" d="M75.054,317.04l-2.663,17.912-35.706,8.034a6.11,6.11,0,0,1-3.556.92,15.788,15.788,0,0,1-15.691-17.529l5.094-45.863a9.709,9.709,0,1,1,19.313,2.015L37.623,325.9Z" transform="translate(-2.615 -164.61)" fill="#5f86fe"/>
      <rect id="Rectángulo_409987" data-name="Rectángulo 409987" width="61.924" height="5.541" transform="translate(108.453 179.295)" fill="#f5a000"/>
      <path id="Trazado_1014656" data-name="Trazado 1014656" d="M171.237,192v15.237a6.926,6.926,0,0,1-6.926,6.926h0A8.311,8.311,0,0,1,156,205.852V192Z" transform="translate(-93.257 -112.437)" fill="#ffb3d0"/>
      <path id="Trazado_1014657" data-name="Trazado 1014657" d="M168.933,176v6a6.468,6.468,0,0,1-6.468,6.468h0a6.468,6.468,0,0,1-3.41-.972l-5.36-3.325v.141a9.7,9.7,0,0,1-9.7,9.7h0V182.666A6.666,6.666,0,0,1,150.666,176Z" transform="translate(-85.413 -101.978)" fill="#1b53a6"/>
      <circle id="Elipse_11848" data-name="Elipse 11848" cx="4.131" cy="4.131" r="4.131" transform="translate(58.587 87.923)" fill="#ffb3d0"/>
      <path id="Trazado_1014658" data-name="Trazado 1014658" d="M89.059,255.111h4.5l-1.929,18a1.385,1.385,0,0,0,1.229,1.524,1.369,1.369,0,0,0,.15.008,1.385,1.385,0,0,0,1.375-1.238l1.961-18.3a5.264,5.264,0,0,0,.623-.045l2.428,12.619a15.3,15.3,0,0,0,2.894,6.424,1.385,1.385,0,1,0,2.194-1.692,12.531,12.531,0,0,1-2.368-5.256l-2.54-13.2a5.213,5.213,0,0,0,1.954-4.07v-1.01A2.08,2.08,0,0,0,99.45,246.8H97.23l2.2-20.516a1.385,1.385,0,1,0-2.755-.3L94.444,246.8H89.1a13.629,13.629,0,0,0-3.136.366L36.574,258.857l2.387-24.518a1.385,1.385,0,1,0-2.757-.268l-2.575,26.444a1.385,1.385,0,0,0,1.7,1.482l35.44-8.389L68.456,269.1l-34.779,7.826A14.4,14.4,0,0,1,16.2,261.281l5.092-45.86a8.316,8.316,0,0,1,8.275-7.406H57.53l8.034,29.453a1.385,1.385,0,0,0,2.673,0l8.03-29.453h24.379a8.215,8.215,0,0,1,8.017,6.539l4.1,19.981a1.385,1.385,0,0,0,2.714-.557L111.377,214a11,11,0,0,0-10.729-8.753H72.439v-2.888a8.323,8.323,0,0,0,6.926-8.193v-7.272a7.868,7.868,0,0,0,5.541-7.506v-6A1.385,1.385,0,0,0,83.52,172H65.253a8.06,8.06,0,0,0-8.051,8.051v11.365a5.523,5.523,0,0,0,4.156,5.343v8.484H29.568a11.083,11.083,0,0,0-11.027,9.869l-5.094,45.862a17.161,17.161,0,0,0,8.427,16.733l-.678,6.344a1.385,1.385,0,0,0,1.23,1.524,1.436,1.436,0,0,0,.149.008,1.385,1.385,0,0,0,1.376-1.238l.576-5.387a17.118,17.118,0,0,0,9.758.666l42.622-9.588A15.488,15.488,0,0,0,89.059,255.111ZM66.9,231.84l-6.5-23.825h1.382L65.6,218.2a1.385,1.385,0,0,0,2.594,0l3.819-10.181H73.4Zm-6.926-51.788a5.287,5.287,0,0,1,5.281-5.281H82.135v4.613a5.08,5.08,0,0,1-7.761,4.319l-5.361-3.324a1.385,1.385,0,0,0-2.115,1.177v.142a8.264,8.264,0,0,1-1.568,4.86,5.5,5.5,0,0,0-5.358.081Zm0,11.349a2.747,2.747,0,0,1,4.643-1.971,1.385,1.385,0,0,0,1.951-.043,11.023,11.023,0,0,0,2.883-5.48l3.463,2.147a7.817,7.817,0,0,0,3.683,1.167v6.942a5.547,5.547,0,0,1-5.541,5.541,6.9,6.9,0,0,1-2.308-.394,1.385,1.385,0,1,0-.924,2.612,9.624,9.624,0,0,0,1.847.447v4.01l-2.77,7.388-2.77-7.388v-10.83a1.406,1.406,0,0,0-1.409-1.385,2.753,2.753,0,0,1-2.746-2.762Zm11.381,77.044,2.317-15.522,12.935-3.062a10.864,10.864,0,0,1,2.5-.292h9.653v.318A2.456,2.456,0,0,1,96.3,252.34H87.676a1.385,1.385,0,0,0-1.385,1.385v1.115A12.734,12.734,0,0,1,76.3,267.332Z" transform="translate(0 -99.363)"/>
      <path id="Trazado_1014659" data-name="Trazado 1014659" d="M294.926,360.812a1.385,1.385,0,0,0-1.084-.523H231.917a1.385,1.385,0,0,0-1.351,1.074l-9.056,39.073H189.385A1.385,1.385,0,0,0,188,401.821v5.464a1.385,1.385,0,0,0,1.385,1.385h95.169a1.385,1.385,0,0,0,1.385-1.385V401.9l9.252-39.913A1.385,1.385,0,0,0,294.926,360.812ZM190.77,403.206h30.474V405.9H190.77Zm92.4,2.693H224.015v-2.77h59.154Zm.284-5.541H224.372l8.646-37.3H292.1Z" transform="translate(-114.176 -222.449)"/>
      <path id="Trazado_1014660" data-name="Trazado 1014660" d="M372.311,412.622A8.311,8.311,0,1,0,364,404.311a8.311,8.311,0,0,0,8.311,8.311Zm0-13.852a5.541,5.541,0,1,1-5.541,5.541A5.541,5.541,0,0,1,372.311,398.77Z" transform="translate(-229.228 -245.793)"/>
      <path id="Trazado_1014661" data-name="Trazado 1014661" d="M119,300l11.081,16.622a1.385,1.385,0,1,0,2.3-1.537l-10.635-15.953,2.411-4.821a1.385,1.385,0,0,0-1.239-2h-3.619l2.163-6.488a1.385,1.385,0,0,0-2.628-.876l-2.77,8.311a1.385,1.385,0,0,0,1.314,1.823h3.3l-1.768,3.536A1.385,1.385,0,0,0,119,300Z" transform="translate(-67.109 -172.578)"/>
      <path id="Trazado_1014662" data-name="Trazado 1014662" d="M188.36,294.508a1.385,1.385,0,0,0,.19-1.247l-2.77-8.311a1.385,1.385,0,0,0-2.628.876l2.163,6.486H181.7a1.385,1.385,0,0,0-1.239,2l2.411,4.821-10.635,15.953a1.385,1.385,0,1,0,2.3,1.537l11.081-16.622a1.385,1.385,0,0,0,.087-1.388l-1.768-3.536h3.3a1.385,1.385,0,0,0,1.124-.575Z" transform="translate(-103.716 -172.58)"/>
      <path id="Trazado_1014663" data-name="Trazado 1014663" d="M236,72.133a1.385,1.385,0,0,0,1.385,1.385h7.6a36.22,36.22,0,0,0,3.852,9.3l-5.375,5.375a1.385,1.385,0,0,0,0,1.959L254.5,101.189a1.385,1.385,0,0,0,1.959,0l5.375-5.375a36.219,36.219,0,0,0,9.3,3.852v7.6a1.385,1.385,0,0,0,1.385,1.385h15.614a1.385,1.385,0,0,0,1.385-1.385v-7.6a36.219,36.219,0,0,0,9.3-3.852l5.375,5.375a1.385,1.385,0,0,0,1.959,0l11.041-11.041a1.385,1.385,0,0,0,0-1.959l-5.375-5.375a36.233,36.233,0,0,0,3.852-9.3h7.6a1.385,1.385,0,0,0,1.385-1.385V56.518a1.385,1.385,0,0,0-1.385-1.385h-7.6a36.219,36.219,0,0,0-3.852-9.3l5.375-5.375a1.385,1.385,0,0,0,0-1.959L306.148,27.462a1.385,1.385,0,0,0-1.959,0l-5.375,5.375a36.219,36.219,0,0,0-9.3-3.852v-7.6A1.385,1.385,0,0,0,288.133,20H272.518a1.385,1.385,0,0,0-1.385,1.385v7.6a36.232,36.232,0,0,0-9.3,3.852l-5.375-5.375a1.385,1.385,0,0,0-1.959,0L243.462,38.5a1.385,1.385,0,0,0,0,1.959l5.375,5.375a36.22,36.22,0,0,0-3.852,9.3h-7.6A1.385,1.385,0,0,0,236,56.518ZM238.77,57.9h7.3a1.385,1.385,0,0,0,1.35-1.078,33.478,33.478,0,0,1,4.334-10.458,1.385,1.385,0,0,0-.192-1.718L246.4,39.483l9.082-9.082,5.166,5.166a1.385,1.385,0,0,0,1.718.192,33.473,33.473,0,0,1,10.458-4.334,1.385,1.385,0,0,0,1.079-1.351v-7.3h12.844v7.3a1.385,1.385,0,0,0,1.078,1.35,33.478,33.478,0,0,1,10.458,4.334A1.385,1.385,0,0,0,300,35.566l5.165-5.166,9.083,9.082-5.165,5.166a1.385,1.385,0,0,0-.192,1.718,33.476,33.476,0,0,1,4.334,10.458,1.385,1.385,0,0,0,1.351,1.079h7.3V70.747h-7.3a1.385,1.385,0,0,0-1.351,1.078,33.473,33.473,0,0,1-4.334,10.458A1.385,1.385,0,0,0,309.085,84l5.166,5.166-9.083,9.082L300,93.084a1.385,1.385,0,0,0-1.718-.192,33.478,33.478,0,0,1-10.458,4.334,1.385,1.385,0,0,0-1.079,1.351v7.305H273.9v-7.3a1.385,1.385,0,0,0-1.078-1.35,33.478,33.478,0,0,1-10.458-4.334,1.385,1.385,0,0,0-1.718.192l-5.165,5.166L246.4,89.169,251.568,84a1.385,1.385,0,0,0,.192-1.718,33.478,33.478,0,0,1-4.334-10.458,1.385,1.385,0,0,0-1.351-1.079H238.77Z" transform="translate(-145.554)"/>
      <path id="Trazado_1014664" data-name="Trazado 1014664" d="M327.392,130.785A19.392,19.392,0,1,0,308,111.392a19.392,19.392,0,0,0,19.392,19.392Zm0-36.015a16.622,16.622,0,1,1-16.622,16.622A16.622,16.622,0,0,1,327.392,94.77Z" transform="translate(-192.621 -47.067)"/>
      <path id="Trazado_1014665" data-name="Trazado 1014665" d="M109.385,55.326h3.133a18.215,18.215,0,0,0,1.518,3.663L111.82,61.2a1.385,1.385,0,0,0,0,1.959l5.343,5.343a1.385,1.385,0,0,0,1.959,0l2.216-2.216A18.213,18.213,0,0,0,125,67.808V70.94a1.385,1.385,0,0,0,1.385,1.385h7.555a1.385,1.385,0,0,0,1.385-1.385V67.808a18.215,18.215,0,0,0,3.663-1.518l2.216,2.216a1.385,1.385,0,0,0,1.959,0l5.343-5.343a1.385,1.385,0,0,0,0-1.959l-2.216-2.216a18.215,18.215,0,0,0,1.518-3.663h3.132a1.385,1.385,0,0,0,1.385-1.385V46.385A1.385,1.385,0,0,0,150.94,45h-3.133a18.215,18.215,0,0,0-1.518-3.663l2.216-2.216a1.385,1.385,0,0,0,0-1.959l-5.343-5.342a1.385,1.385,0,0,0-1.959,0l-2.216,2.216a18.216,18.216,0,0,0-3.663-1.518V29.385A1.385,1.385,0,0,0,133.94,28h-7.555A1.385,1.385,0,0,0,125,29.385v3.133a18.215,18.215,0,0,0-3.663,1.518l-2.216-2.216a1.385,1.385,0,0,0-1.959,0l-5.342,5.343a1.385,1.385,0,0,0,0,1.959l2.216,2.216A18.215,18.215,0,0,0,112.518,45h-3.133A1.385,1.385,0,0,0,108,46.386v7.555A1.385,1.385,0,0,0,109.385,55.326Zm1.385-7.555h2.819a1.385,1.385,0,0,0,1.35-1.078,15.47,15.47,0,0,1,2-4.838,1.385,1.385,0,0,0-.193-1.718l-1.994-1.994,3.384-3.384,1.994,1.994a1.387,1.387,0,0,0,1.718.193,15.47,15.47,0,0,1,4.838-2,1.385,1.385,0,0,0,1.078-1.351V30.77h4.785V33.59a1.385,1.385,0,0,0,1.078,1.35,15.47,15.47,0,0,1,4.838,2,1.387,1.387,0,0,0,1.718-.193l1.994-1.994,3.384,3.384-1.994,1.994a1.385,1.385,0,0,0-.193,1.718,15.47,15.47,0,0,1,2,4.838,1.385,1.385,0,0,0,1.351,1.078h2.82v4.785h-2.819a1.385,1.385,0,0,0-1.35,1.078,15.47,15.47,0,0,1-2,4.838,1.385,1.385,0,0,0,.193,1.718l1.994,1.994-3.384,3.384-1.994-1.994a1.385,1.385,0,0,0-1.718-.193,15.47,15.47,0,0,1-4.838,2,1.385,1.385,0,0,0-1.078,1.351v2.82H127.77V66.736a1.385,1.385,0,0,0-1.078-1.35,15.47,15.47,0,0,1-4.838-2,1.385,1.385,0,0,0-1.718.193l-1.994,1.994-3.384-3.384,1.994-1.994a1.385,1.385,0,0,0,.193-1.718,15.47,15.47,0,0,1-2-4.838,1.385,1.385,0,0,0-1.351-1.078h-2.82Z" transform="translate(-61.879 -5.23)"/>
      <path id="Trazado_1014666" data-name="Trazado 1014666" d="M151.081,82.163A11.081,11.081,0,1,0,140,71.081a11.081,11.081,0,0,0,11.081,11.081Zm0-19.392a8.311,8.311,0,1,1-8.311,8.311A8.311,8.311,0,0,1,151.081,62.77Z" transform="translate(-82.798 -26.148)"/>
      <path id="Trazado_1014667" data-name="Trazado 1014667" d="M21.385,144.778h2.023a13.683,13.683,0,0,0,.932,2.251l-1.432,1.429a1.385,1.385,0,0,0,0,1.959l3.918,3.918a1.385,1.385,0,0,0,1.959,0l1.431-1.431a13.683,13.683,0,0,0,2.249.932v2.023a1.385,1.385,0,0,0,1.385,1.385h5.541a1.385,1.385,0,0,0,1.385-1.385v-2.023a13.681,13.681,0,0,0,2.251-.932l1.431,1.431a1.385,1.385,0,0,0,1.959,0l3.917-3.918a1.385,1.385,0,0,0,0-1.959L48.9,147.027a13.683,13.683,0,0,0,.932-2.251h2.023a1.385,1.385,0,0,0,1.385-1.385v-5.539a1.385,1.385,0,0,0-1.385-1.385H49.836a13.683,13.683,0,0,0-.932-2.251l1.431-1.431a1.385,1.385,0,0,0,0-1.959l-3.918-3.917a1.385,1.385,0,0,0-1.959,0l-1.429,1.432a13.683,13.683,0,0,0-2.251-.932v-2.023A1.385,1.385,0,0,0,39.392,124H33.852a1.385,1.385,0,0,0-1.385,1.385v2.023a13.683,13.683,0,0,0-2.249.932l-1.431-1.432a1.385,1.385,0,0,0-1.959,0l-3.918,3.918a1.385,1.385,0,0,0,0,1.959l1.431,1.431a13.683,13.683,0,0,0-.932,2.251H21.385A1.385,1.385,0,0,0,20,137.853v5.541A1.385,1.385,0,0,0,21.385,144.778Zm1.385-5.541h1.7a1.385,1.385,0,0,0,1.35-1.078,10.985,10.985,0,0,1,1.423-3.433,1.385,1.385,0,0,0-.193-1.718l-1.2-1.2,1.959-1.959,1.2,1.2a1.385,1.385,0,0,0,1.718.193,10.985,10.985,0,0,1,3.433-1.423,1.385,1.385,0,0,0,1.08-1.352v-1.7h2.77v1.7a1.385,1.385,0,0,0,1.078,1.351,10.985,10.985,0,0,1,3.433,1.423,1.385,1.385,0,0,0,1.718-.193l1.2-1.2,1.959,1.959-1.2,1.2A1.385,1.385,0,0,0,46,134.724a10.984,10.984,0,0,1,1.423,3.433,1.385,1.385,0,0,0,1.352,1.08h1.7v2.77h-1.7a1.385,1.385,0,0,0-1.351,1.078A10.985,10.985,0,0,1,46,146.518a1.385,1.385,0,0,0,.193,1.718l1.2,1.2L45.439,151.4l-1.2-1.2A1.385,1.385,0,0,0,42.52,150a10.985,10.985,0,0,1-3.433,1.423,1.385,1.385,0,0,0-1.08,1.352v1.7h-2.77v-1.7a1.385,1.385,0,0,0-1.078-1.351A10.985,10.985,0,0,1,30.726,150a1.385,1.385,0,0,0-1.718.193l-1.2,1.2-1.959-1.959,1.2-1.2a1.385,1.385,0,0,0,.193-1.718,10.984,10.984,0,0,1-1.423-3.433,1.385,1.385,0,0,0-1.352-1.08h-1.7Z" transform="translate(-4.353 -67.985)"/>
      <path id="Trazado_1014668" data-name="Trazado 1014668" d="M51.963,164.458a8.5,8.5,0,1,0-8.5-8.5,8.5,8.5,0,0,0,8.5,8.5Zm0-14.221a5.725,5.725,0,1,1-5.725,5.725,5.725,5.725,0,0,1,5.725-5.725Z" transform="translate(-19.694 -83.326)"/>
    </g>
  </g>
</svg>
