<svg xmlns="http://www.w3.org/2000/svg" xmlns:xlink="http://www.w3.org/1999/xlink" width="110" height="110" viewBox="0 0 110 110">
  <defs>
    <filter id="Trazado_982547" x="0" y="0" width="110" height="110" filterUnits="userSpaceOnUse">
      <feOffset dy="3" input="SourceAlpha"/>
      <feGaussianBlur stdDeviation="3" result="blur"/>
      <feFlood flood-opacity="0.161"/>
      <feComposite operator="in" in2="blur"/>
      <feComposite in="SourceGraphic"/>
    </filter>
  </defs>
  <g id="Grupo_1162529" data-name="Grupo 1162529" transform="translate(-799.637 -2012)">
    <g id="Grupo_1162411" data-name="Grupo 1162411" transform="translate(-0.363 -4054)">
      <g id="Grupo_1158637" data-name="Grupo 1158637" transform="translate(-1 2772.334)">
        <g id="Grupo_1155724" data-name="Grupo 1155724" transform="translate(0 -1390)">
          <g id="Grupo_1154703" data-name="Grupo 1154703" transform="translate(0 1465.666)">
            <g id="Grupo_1150789" data-name="Grupo 1150789" transform="translate(3 2320)">
              <g id="Grupo_1154212" data-name="Grupo 1154212" transform="translate(-236 -5809)">
                <g id="Grupo_1152583" data-name="Grupo 1152583" transform="translate(1043 6713)">
                  <g id="Grupo_1146973" data-name="Grupo 1146973" transform="translate(0 0)">
                    <g id="Grupo_1146954" data-name="Grupo 1146954">
                      <g transform="matrix(1, 0, 0, 1, -9, -6)" filter="url(#Trazado_982547)">
                        <g id="Trazado_982547-2" data-name="Trazado 982547" transform="translate(9 6)" fill="#fcf3f0">
                          <path d="M 46 90.49987030029297 C 39.99187850952148 90.49987030029297 34.16426849365234 89.32350921630859 28.67905426025391 87.00345611572266 C 23.38019943237305 84.76224517822266 18.62104034423828 81.55341339111328 14.53374671936035 77.46613311767578 C 10.44646644592285 73.37885284423828 7.237639904022217 68.61969757080078 4.996413230895996 63.32085418701172 C 2.676359891891479 57.83565521240234 1.5 52.008056640625 1.5 45.99993515014648 C 1.5 39.99181365966797 2.676359891891479 34.16421508789062 4.996413230895996 28.67901420593262 C 7.237639904022217 23.38017463684082 10.44646644592285 18.62101554870605 14.53374671936035 14.53373527526855 C 18.62104034423828 10.44645500183105 23.38019943237305 7.23762845993042 28.67905426025391 4.996415138244629 C 34.16426849365234 2.676361799240112 39.99187850952148 1.500001788139343 46 1.500001788139343 C 52.00812149047852 1.500001788139343 57.83573150634766 2.676361799240112 63.32094573974609 4.996415138244629 C 68.61979675292969 7.23762845993042 73.37895965576172 10.44645500183105 77.46625518798828 14.53373527526855 C 81.55353546142578 18.62101554870605 84.76235961914062 23.38017463684082 87.00358581542969 28.67901420593262 C 89.32363891601562 34.16421508789062 90.5 39.99181365966797 90.5 45.99993515014648 C 90.5 52.008056640625 89.32363891601562 57.83565521240234 87.00358581542969 63.32085418701172 C 84.76235961914062 68.61969757080078 81.55353546142578 73.37885284423828 77.46625518798828 77.46613311767578 C 73.37895965576172 81.55341339111328 68.61979675292969 84.76224517822266 63.32094573974609 87.00345611572266 C 57.83573150634766 89.32350921630859 52.00812149047852 90.49987030029297 46 90.49987030029297 Z" stroke="none"/>
                          <path d="M 46 2.999992370605469 C 40.1937141418457 2.999992370605469 34.56269836425781 4.136489868164062 29.26337051391602 6.377906799316406 C 24.14332580566406 8.543502807617188 19.54441070556641 11.64437866210938 15.59439849853516 15.59437561035156 C 11.64440155029297 19.54439544677734 8.54351806640625 24.14329528808594 6.377914428710938 29.26333618164062 C 4.136497497558594 34.56264877319336 3 40.19366455078125 3 45.99993515014648 C 3 51.80620574951172 4.136497497558594 57.43720626831055 6.377914428710938 62.73651885986328 C 8.54351806640625 67.8565673828125 11.64440155029297 72.45545959472656 15.59439849853516 76.40547943115234 C 19.54441070556641 80.35547637939453 24.14332580566406 83.45635223388672 29.26337051391602 85.6219482421875 C 34.56269836425781 87.86336517333984 40.1937141418457 88.99986267089844 46 88.99986267089844 C 51.8062858581543 88.99986267089844 57.43730163574219 87.86336517333984 62.73661422729492 85.6219482421875 C 67.85667419433594 83.45635223388672 72.45557403564453 80.35547637939453 76.40558624267578 76.40547943115234 C 80.35559844970703 72.45545959472656 83.45647430419922 67.8565673828125 85.6220703125 62.73651885986328 C 87.86350250244141 57.43720626831055 89 51.80620574951172 89 45.99993515014648 C 89 40.19366455078125 87.86350250244141 34.56264877319336 85.6220703125 29.26333618164062 C 83.45647430419922 24.14329528808594 80.35559844970703 19.54439544677734 76.40558624267578 15.59437561035156 C 72.45557403564453 11.64437866210938 67.85667419433594 8.543502807617188 62.73661422729492 6.377906799316406 C 57.43730163574219 4.136489868164062 51.8062858581543 2.999992370605469 46 2.999992370605469 M 46 -7.62939453125e-06 C 71.40509033203125 -7.62939453125e-06 92 20.59486389160156 92 45.99993515014648 C 92 71.40499114990234 71.40509033203125 91.99986267089844 46 91.99986267089844 C 20.59490203857422 91.99986267089844 0 71.40499114990234 0 45.99993515014648 C 0 20.59486389160156 20.59490203857422 -7.62939453125e-06 46 -7.62939453125e-06 Z" stroke="none" fill="#e89076"/>
                        </g>
                      </g>
                    </g>
                  </g>
                </g>
              </g>
            </g>
          </g>
        </g>
      </g>
    </g>
    <g id="failure_16934624" transform="translate(825.638 2035.001)">
      <g id="Grupo_1162528" data-name="Grupo 1162528" transform="translate(1.891 4.291)">
        <g id="Grupo_1162521" data-name="Grupo 1162521" transform="translate(23.001 0.709)">
          <circle id="Elipse_11836" data-name="Elipse 11836" cx="5.961" cy="5.961" r="5.961" transform="translate(0 11.66) rotate(-77.993)" fill="#fc685b"/>
          <path id="Trazado_1014435" data-name="Trazado 1014435" d="M240.8,46.717a5.961,5.961,0,0,1,3.62,10.7,5.961,5.961,0,0,0-8.356-8.356A5.951,5.951,0,0,1,240.8,46.717Z" transform="translate(-233.744 -45.619)" fill="#fb4737" fill-rule="evenodd"/>
        </g>
        <g id="Grupo_1162522" data-name="Grupo 1162522" transform="translate(8.689 5.175)">
          <path id="Trazado_1014436" data-name="Trazado 1014436" d="M120.431,79.843l-1.563-2.192,8.47-.733-1.29,8.41-1.392-1.757c-6.27,5.626-13.27,13.436-37.745,14.832,17.251-3.41,28-9.508,33.52-18.561Z" transform="translate(-86.911 -76.919)" fill="#ffd6bd" fill-rule="evenodd"/>
          <path id="Trazado_1014437" data-name="Trazado 1014437" d="M126.035,77.031l1.3-.113-1.29,8.41-1.078-1.36,1.064-6.937Zm-1.513,6.662c-6.236,5.616-13.31,13.324-37.61,14.71q4.788-.946,8.915-2.171c16.56-2.671,22.4-9.008,27.715-13.776l.98,1.237Z" transform="translate(-86.912 -76.918)" fill="#f9c6aa" fill-rule="evenodd"/>
        </g>
        <g id="Grupo_1162523" data-name="Grupo 1162523" transform="translate(44.29 21.357)">
          <rect id="Rectángulo_409982" data-name="Rectángulo 409982" width="6.615" height="31.339" rx="3" fill="#64b5f6"/>
          <path id="Trazado_1014438" data-name="Trazado 1014438" d="M411.619,222.006h.781a.335.335,0,0,1,.335.335v30.67a.335.335,0,0,1-.335.335h-5.946a.335.335,0,0,1-.335-.335v-.781h5.5Z" transform="translate(-406.119 -222.006)" fill="#42a5f5" fill-rule="evenodd"/>
        </g>
        <g id="Grupo_1162524" data-name="Grupo 1162524" transform="translate(31.382 26.41)">
          <rect id="Rectángulo_409983" data-name="Rectángulo 409983" width="6.615" height="26.286" rx="3" fill="#72d561"/>
          <path id="Trazado_1014439" data-name="Trazado 1014439" d="M295.878,267.314h.781a.335.335,0,0,1,.335.335v25.617a.335.335,0,0,1-.335.335h-5.946a.335.335,0,0,1-.335-.335v-.781h5.5Z" transform="translate(-290.378 -267.314)" fill="#42c345" fill-rule="evenodd"/>
        </g>
        <g id="Grupo_1162525" data-name="Grupo 1162525" transform="translate(18.473 32.207)">
          <rect id="Rectángulo_409984" data-name="Rectángulo 409984" width="6.615" height="20.489" rx="3" transform="translate(0 0)" fill="#ffda2d"/>
          <path id="Trazado_1014440" data-name="Trazado 1014440" d="M180.137,319.292h.781a.335.335,0,0,1,.335.335v19.82a.335.335,0,0,1-.335.335h-5.946a.335.335,0,0,1-.335-.335v-.781h5.5V319.292Z" transform="translate(-174.637 -319.292)" fill="#ffc700" fill-rule="evenodd"/>
        </g>
        <g id="Grupo_1162526" data-name="Grupo 1162526" transform="translate(5.565 37.52)">
          <rect id="Rectángulo_409985" data-name="Rectángulo 409985" width="6.615" height="15.176" rx="3" transform="translate(0)" fill="#fc685b"/>
          <path id="Trazado_1014441" data-name="Trazado 1014441" d="M64.4,366.931h.781a.335.335,0,0,1,.335.335v14.507a.335.335,0,0,1-.335.335H59.23a.335.335,0,0,1-.335-.335v-.781h5.5Z" transform="translate(-58.895 -366.931)" fill="#fb4737" fill-rule="evenodd"/>
        </g>
        <g id="Grupo_1162527" data-name="Grupo 1162527" transform="translate(0)">
          <path id="Trazado_1014442" data-name="Trazado 1014442" d="M9,30.518H28.945l-6.109,4.695,6.109,4.963L9,40.274Z" transform="translate(-9 -30.518)" fill="#72d561" fill-rule="evenodd"/>
          <path id="Trazado_1014443" data-name="Trazado 1014443" d="M26.379,30.518h2.567l-5.977,4.593L21.721,34.1Zm1.2,8.544,1.371,1.114L9,40.274V39.153l18.574-.091Z" transform="translate(-9 -30.518)" fill="#42c345" fill-rule="evenodd"/>
        </g>
      </g>
      <path id="Trazado_1014444" data-name="Trazado 1014444" d="M44.863,12.856a.894.894,0,0,0-.036-.983l-.656-.92,5.783-.5-.807,5.265-.122-.153a.891.891,0,0,0-1.295-.11q-.6.539-1.215,1.1c-4.667,4.259-10.227,9.335-23.264,11.957a56.752,56.752,0,0,0,8.921-3.948,33.225,33.225,0,0,0,12.69-11.71ZM10.408,30.076a.892.892,0,0,0,.173,1.768l.051,0c10.3-.587,18.457-2.347,24.932-5.379a45.665,45.665,0,0,0,12.154-8.587l.5-.455.8,1.009a.892.892,0,0,0,1.581-.418L51.889,9.6a.89.89,0,0,0-.958-1.024l-8.469.733a.891.891,0,0,0-.65,1.406l1.217,1.707C37.5,21.055,26.82,26.832,10.408,30.076ZM28.8,13.943a.893.893,0,0,0,1.263,1.262l1.885-1.885,1.885,1.885A.892.892,0,1,0,35.1,13.943l-1.885-1.885L35.1,10.175a.892.892,0,1,0-1.261-1.262L31.952,10.8,30.067,8.912A.893.893,0,1,0,28.8,10.175l1.885,1.884Zm3.148-6.953a5.068,5.068,0,1,0,5.068,5.068,5.074,5.074,0,0,0-5.068-5.068Zm0,11.921A6.853,6.853,0,1,0,25.1,12.058,6.86,6.86,0,0,0,31.952,18.912ZM8.349,42.7h4.83V56.095H8.349ZM21.258,37.39h4.83v18.7h-4.83Zm12.908-5.8H39v24.5h-4.83ZM47.074,26.54V56.095h4.831V26.54ZM19.212,5.184,15.185,8.279a.891.891,0,0,0-.019,1.4l4.173,3.39L2.784,13.15V5.184ZM56.987,56.095h-3.3V25.648a.893.893,0,0,0-.892-.892H46.182a.892.892,0,0,0-.892.892V56.095H40.781V30.7a.893.893,0,0,0-.892-.892H33.274a.893.893,0,0,0-.892.892V56.095H27.872V36.5a.892.892,0,0,0-.892-.892H20.365a.892.892,0,0,0-.892.892v19.6H14.964V41.811a.892.892,0,0,0-.892-.892H7.457a.892.892,0,0,0-.892.892V56.095H2.784V14.935l19.058-.094a.892.892,0,0,0,.558-1.585l-5.233-4.25L22.381,5a.892.892,0,0,0-.543-1.6H2.784V1.892A.892.892,0,1,0,1,1.892V57.879H56.987a.892.892,0,0,0,0-1.784Z" transform="translate(0 0)" fill-rule="evenodd"/>
    </g>
  </g>
</svg>
