<svg xmlns="http://www.w3.org/2000/svg" xmlns:xlink="http://www.w3.org/1999/xlink" width="110" height="110" viewBox="0 0 110 110">
  <defs>
    <filter id="Trazado_982547" x="0" y="0" width="110" height="110" filterUnits="userSpaceOnUse">
      <feOffset dy="3" input="SourceAlpha"/>
      <feGaussianBlur stdDeviation="3" result="blur"/>
      <feFlood flood-opacity="0.161"/>
      <feComposite operator="in" in2="blur"/>
      <feComposite in="SourceGraphic"/>
    </filter>
  </defs>
  <g id="Grupo_1162553" data-name="Grupo 1162553" transform="translate(-1114.637 -2013)">
    <g id="Grupo_1162412" data-name="Grupo 1162412" transform="translate(-0.168 -4053.54)">
      <g id="Grupo_1158638" data-name="Grupo 1158638" transform="translate(-1.195 2772.54)">
        <g id="Grupo_1155734" data-name="Grupo 1155734" transform="translate(0 -1390)">
          <g id="Grupo_1154704" data-name="Grupo 1154704" transform="translate(0 1466)">
            <g id="Grupo_1150790" data-name="Grupo 1150790" transform="translate(3 2320)">
              <g id="Grupo_1154214" data-name="Grupo 1154214" transform="translate(79 -5809)">
                <g id="Grupo_1152583" data-name="Grupo 1152583" transform="translate(1043 6713)">
                  <g id="Grupo_1146973" data-name="Grupo 1146973" transform="translate(0 0)">
                    <g id="Grupo_1146954" data-name="Grupo 1146954">
                      <g transform="matrix(1, 0, 0, 1, -9, -6)" filter="url(#Trazado_982547)">
                        <g id="Trazado_982547-2" data-name="Trazado 982547" transform="translate(9 6)" fill="#fcf3f0">
                          <path d="M 46 90.49987030029297 C 39.99187850952148 90.49987030029297 34.16426849365234 89.32350921630859 28.67905426025391 87.00345611572266 C 23.38019943237305 84.76224517822266 18.62104034423828 81.55341339111328 14.53374671936035 77.46613311767578 C 10.44646644592285 73.37885284423828 7.237639904022217 68.61969757080078 4.996413230895996 63.32085418701172 C 2.676359891891479 57.83565521240234 1.5 52.008056640625 1.5 45.99993515014648 C 1.5 39.99181365966797 2.676359891891479 34.16421508789062 4.996413230895996 28.67901420593262 C 7.237639904022217 23.38017463684082 10.44646644592285 18.62101554870605 14.53374671936035 14.53373527526855 C 18.62104034423828 10.44645500183105 23.38019943237305 7.23762845993042 28.67905426025391 4.996415138244629 C 34.16426849365234 2.676361799240112 39.99187850952148 1.500001788139343 46 1.500001788139343 C 52.00812149047852 1.500001788139343 57.83573150634766 2.676361799240112 63.32094573974609 4.996415138244629 C 68.61979675292969 7.23762845993042 73.37895965576172 10.44645500183105 77.46625518798828 14.53373527526855 C 81.55353546142578 18.62101554870605 84.76235961914062 23.38017463684082 87.00358581542969 28.67901420593262 C 89.32363891601562 34.16421508789062 90.5 39.99181365966797 90.5 45.99993515014648 C 90.5 52.008056640625 89.32363891601562 57.83565521240234 87.00358581542969 63.32085418701172 C 84.76235961914062 68.61969757080078 81.55353546142578 73.37885284423828 77.46625518798828 77.46613311767578 C 73.37895965576172 81.55341339111328 68.61979675292969 84.76224517822266 63.32094573974609 87.00345611572266 C 57.83573150634766 89.32350921630859 52.00812149047852 90.49987030029297 46 90.49987030029297 Z" stroke="none"/>
                          <path d="M 46 2.999992370605469 C 40.1937141418457 2.999992370605469 34.56269836425781 4.136489868164062 29.26337051391602 6.377906799316406 C 24.14332580566406 8.543502807617188 19.54441070556641 11.64437866210938 15.59439849853516 15.59437561035156 C 11.64440155029297 19.54439544677734 8.54351806640625 24.14329528808594 6.377914428710938 29.26333618164062 C 4.136497497558594 34.56264877319336 3 40.19366455078125 3 45.99993515014648 C 3 51.80620574951172 4.136497497558594 57.43720626831055 6.377914428710938 62.73651885986328 C 8.54351806640625 67.8565673828125 11.64440155029297 72.45545959472656 15.59439849853516 76.40547943115234 C 19.54441070556641 80.35547637939453 24.14332580566406 83.45635223388672 29.26337051391602 85.6219482421875 C 34.56269836425781 87.86336517333984 40.1937141418457 88.99986267089844 46 88.99986267089844 C 51.8062858581543 88.99986267089844 57.43730163574219 87.86336517333984 62.73661422729492 85.6219482421875 C 67.85667419433594 83.45635223388672 72.45557403564453 80.35547637939453 76.40558624267578 76.40547943115234 C 80.35559844970703 72.45545959472656 83.45647430419922 67.8565673828125 85.6220703125 62.73651885986328 C 87.86350250244141 57.43720626831055 89 51.80620574951172 89 45.99993515014648 C 89 40.19366455078125 87.86350250244141 34.56264877319336 85.6220703125 29.26333618164062 C 83.45647430419922 24.14329528808594 80.35559844970703 19.54439544677734 76.40558624267578 15.59437561035156 C 72.45557403564453 11.64437866210938 67.85667419433594 8.543502807617188 62.73661422729492 6.377906799316406 C 57.43730163574219 4.136489868164062 51.8062858581543 2.999992370605469 46 2.999992370605469 M 46 -7.62939453125e-06 C 71.40509033203125 -7.62939453125e-06 92 20.59486389160156 92 45.99993515014648 C 92 71.40499114990234 71.40509033203125 91.99986267089844 46 91.99986267089844 C 20.59490203857422 91.99986267089844 0 71.40499114990234 0 45.99993515014648 C 0 20.59486389160156 20.59490203857422 -7.62939453125e-06 46 -7.62939453125e-06 Z" stroke="none" fill="#e89076"/>
                        </g>
                      </g>
                    </g>
                  </g>
                </g>
              </g>
            </g>
          </g>
        </g>
      </g>
    </g>
    <g id="high-performance_4691520" transform="translate(1140.637 2036)">
      <g id="Grupo_1162551" data-name="Grupo 1162551" transform="translate(2.8 0.933)">
        <g id="Grupo_1162530" data-name="Grupo 1162530" transform="translate(31.739 0)">
          <path id="Trazado_1014445" data-name="Trazado 1014445" d="M42.6,15a.936.936,0,0,0-.933-.933h-2.8a11.3,11.3,0,0,0-.8-4.182,3.122,3.122,0,0,0,.9-4.285L41.6,2.96a3.125,3.125,0,0,0,1.671.495A3.137,3.137,0,0,0,46.335,1h3.734a3.137,3.137,0,0,0,3.062,2.455A3.125,3.125,0,0,0,54.8,2.96L57.444,5.6a3.119,3.119,0,0,0,1.96,4.733v3.734a3.119,3.119,0,0,0-1.96,4.733L54.8,21.444a3.119,3.119,0,0,0-4.733,1.96H46.335a3.119,3.119,0,0,0-4.733-1.96L40.557,20.4l-.915-1.5A3.757,3.757,0,0,0,37,17.8h4.667a.936.936,0,0,0,.933-.933Zm0-2.8a5.6,5.6,0,1,0,5.6-5.6A5.605,5.605,0,0,0,42.6,12.2Z" transform="translate(-37 -1)" fill="#ffc729"/>
        </g>
        <g id="Grupo_1162531" data-name="Grupo 1162531" transform="translate(37.34 5.601)">
          <path id="Trazado_1014446" data-name="Trazado 1014446" d="M48.6,7A5.6,5.6,0,1,1,43,12.6,5.605,5.605,0,0,1,48.6,7Zm1.867,5.6A1.867,1.867,0,1,0,48.6,14.468,1.872,1.872,0,0,0,50.468,12.6Z" transform="translate(-43 -7)" fill="#fcd770"/>
        </g>
        <g id="Grupo_1162532" data-name="Grupo 1162532" transform="translate(20.537 1.867)">
          <path id="Trazado_1014447" data-name="Trazado 1014447" d="M26.867,3a11.2,11.2,0,0,1,9.708,5.6H36.2a5.605,5.605,0,0,0-5.6,5.6H25V3Z" transform="translate(-25 -3)" fill="#ff826e"/>
        </g>
        <g id="Grupo_1162533" data-name="Grupo 1162533" transform="translate(5.228 1.867)">
          <path id="Trazado_1014448" data-name="Trazado 1014448" d="M8.6,8.6A11.2,11.2,0,0,1,18.308,3h1.867V14.2h-5.6a5.605,5.605,0,0,0-5.6-5.6H8.609Z" transform="translate(-8.6 -3)" fill="#ff826e"/>
        </g>
        <g id="Grupo_1162534" data-name="Grupo 1162534" transform="translate(26.138 7.468)">
          <path id="Trazado_1014449" data-name="Trazado 1014449" d="M38.468,14.6H31A5.605,5.605,0,0,1,36.6,9h.373a11.069,11.069,0,0,1,.691,1.419A11.3,11.3,0,0,1,38.468,14.6Z" transform="translate(-31 -9)" fill="#fc6e51"/>
        </g>
        <g id="Grupo_1162535" data-name="Grupo 1162535" transform="translate(16.803)">
          <path id="Trazado_1014450" data-name="Trazado 1014450" d="M24.734,2.867v11.2H21V1.933A.936.936,0,0,1,21.933,1H23.8a.936.936,0,0,1,.934.933Z" transform="translate(-21 -1)" fill="#fc6e51"/>
        </g>
        <g id="Grupo_1162536" data-name="Grupo 1162536" transform="translate(3.734 7.468)">
          <path id="Trazado_1014451" data-name="Trazado 1014451" d="M14.468,14.6H7A11.132,11.132,0,0,1,8.494,9h.373a5.605,5.605,0,0,1,5.6,5.6Z" transform="translate(-7 -9)" fill="#fc6e51"/>
        </g>
        <g id="Grupo_1162537" data-name="Grupo 1162537" transform="translate(0 13.069)">
          <path id="Trazado_1014452" data-name="Trazado 1014452" d="M40.34,15.933V17.8a.936.936,0,0,1-.933.933H3.933A.936.936,0,0,1,3,17.8V15.933A.936.936,0,0,1,3.933,15H39.406A.936.936,0,0,1,40.34,15.933Z" transform="translate(-3 -15)" fill="#fc6e51"/>
        </g>
        <g id="Grupo_1162538" data-name="Grupo 1162538" transform="translate(44.808 26.138)">
          <path id="Trazado_1014453" data-name="Trazado 1014453" d="M54.734,29l3.734,5.6H56.6V58.872H52.867V34.6H51Z" transform="translate(-51 -29)" fill="#ffeaa7"/>
        </g>
        <g id="Grupo_1162539" data-name="Grupo 1162539" transform="translate(35.473 33.606)">
          <path id="Trazado_1014454" data-name="Trazado 1014454" d="M44.734,37l3.734,5.6H46.6V59.4H42.867V42.6H41Z" transform="translate(-41 -37)" fill="#ffeaa7"/>
        </g>
        <g id="Grupo_1162540" data-name="Grupo 1162540" transform="translate(9.335 39.207)">
          <path id="Trazado_1014455" data-name="Trazado 1014455" d="M30.736,59.8h-16.8A.934.934,0,0,1,13,58.869V43.933A.934.934,0,0,1,13.933,43h16.8a.934.934,0,0,1,.933.934V58.869A.934.934,0,0,1,30.736,59.8Z" transform="translate(-13 -43)" fill="#d3a06c"/>
        </g>
        <g id="Grupo_1162541" data-name="Grupo 1162541" transform="translate(11.202 35.473)">
          <path id="Trazado_1014456" data-name="Trazado 1014456" d="M29.936,42.734H15A5.9,5.9,0,0,1,18.734,39H26.2A5.9,5.9,0,0,1,29.936,42.734Z" transform="translate(-15 -39)" fill="#b4dd7f"/>
        </g>
        <g id="Grupo_1162542" data-name="Grupo 1162542" transform="translate(14.936 39.207)">
          <path id="Trazado_1014457" data-name="Trazado 1014457" d="M22.734,48.6H19V43h7.468v5.6Z" transform="translate(-19 -43)" fill="#b27946"/>
        </g>
        <g id="Grupo_1162543" data-name="Grupo 1162543" transform="translate(5.601 39.207)">
          <path id="Trazado_1014458" data-name="Trazado 1014458" d="M12.734,43.933v5.6a.936.936,0,0,1-.933.933,2.8,2.8,0,0,1-2.8-2.8V45.8A2.8,2.8,0,0,1,11.8,43,.936.936,0,0,1,12.734,43.933Z" transform="translate(-9 -43)" fill="#f0d0b4"/>
        </g>
        <g id="Grupo_1162544" data-name="Grupo 1162544" transform="translate(28.005 39.207)">
          <path id="Trazado_1014459" data-name="Trazado 1014459" d="M36.734,45.8v1.867a2.8,2.8,0,0,1-2.8,2.8A.936.936,0,0,1,33,49.534v-5.6A.936.936,0,0,1,33.933,43,2.8,2.8,0,0,1,36.734,45.8Z" transform="translate(-33 -43)" fill="#f0d0b4"/>
        </g>
        <g id="Grupo_1162545" data-name="Grupo 1162545" transform="translate(29.872 16.803)">
          <path id="Trazado_1014460" data-name="Trazado 1014460" d="M39.509,20.092l.915,1.5.177,1.139a3.733,3.733,0,0,1-3.734,3.734H35V19h1.867A3.757,3.757,0,0,1,39.509,20.092Z" transform="translate(-35 -19)" fill="#f0d0b4"/>
        </g>
        <g id="Grupo_1162546" data-name="Grupo 1162546" transform="translate(7.468 16.803)">
          <path id="Trazado_1014461" data-name="Trazado 1014461" d="M33.4,26.468V30.2a7.466,7.466,0,0,1-7.468,7.468H18.468A7.466,7.466,0,0,1,11,30.2V19H33.4v7.468Z" transform="translate(-11 -19)" fill="#f0d0b4"/>
        </g>
        <g id="Grupo_1162547" data-name="Grupo 1162547" transform="translate(1.867 16.803)">
          <path id="Trazado_1014462" data-name="Trazado 1014462" d="M10.6,23.667v2.8H8.734a3.734,3.734,0,1,1,0-7.468H10.6Z" transform="translate(-5 -19)" fill="#f0d0b4"/>
        </g>
        <g id="Grupo_1162548" data-name="Grupo 1162548" transform="translate(14.936 28.005)">
          <path id="Trazado_1014463" data-name="Trazado 1014463" d="M19,31h7.468A3.734,3.734,0,0,1,19,31Z" transform="translate(-19 -31)" fill="#ff826e"/>
        </g>
        <g id="Grupo_1162549" data-name="Grupo 1162549" transform="translate(22.404 20.537)">
          <ellipse id="Elipse_11837" data-name="Elipse 11837" cx="2" cy="1.5" rx="2" ry="1.5" transform="translate(-0.204 0.406)" fill="#969faa"/>
        </g>
        <g id="Grupo_1162550" data-name="Grupo 1162550" transform="translate(11.202 20.537)">
          <ellipse id="Elipse_11838" data-name="Elipse 11838" cx="2" cy="1.5" rx="2" ry="1.5" transform="translate(-0.002 0.406)" fill="#969faa"/>
        </g>
      </g>
      <g id="Grupo_1162552" data-name="Grupo 1162552">
        <path id="Trazado_1014464" data-name="Trazado 1014464" d="M19.6,24.8a2.8,2.8,0,1,0-2.8,2.8A2.8,2.8,0,0,0,19.6,24.8Zm-2.8.933a.933.933,0,1,1,.934-.933A.935.935,0,0,1,16.8,25.734Z" transform="translate(-0.931 -1.463)"/>
        <path id="Trazado_1014465" data-name="Trazado 1014465" d="M28.8,22a2.8,2.8,0,1,0,2.8,2.8A2.8,2.8,0,0,0,28.8,22Zm0,3.734a.933.933,0,1,1,.933-.933A.935.935,0,0,1,28.8,25.734Z" transform="translate(-1.729 -1.463)"/>
        <path id="Trazado_1014466" data-name="Trazado 1014466" d="M28,56h1.867v1.867H28Z" transform="translate(-1.862 -3.724)"/>
        <path id="Trazado_1014467" data-name="Trazado 1014467" d="M24,56h1.867v1.867H24Z" transform="translate(-1.596 -3.724)"/>
        <path id="Trazado_1014468" data-name="Trazado 1014468" d="M18,30.933a4.667,4.667,0,0,0,9.335,0V30H18Zm7.308.933a2.8,2.8,0,0,1-5.282,0Z" transform="translate(-1.197 -1.995)"/>
        <path id="Trazado_1014469" data-name="Trazado 1014469" d="M48.8,15.6A2.8,2.8,0,1,0,46,12.8,2.8,2.8,0,0,0,48.8,15.6Zm0-3.734a.933.933,0,1,1-.934.933A.935.935,0,0,1,48.8,11.867Z" transform="translate(-3.059 -0.665)"/>
        <path id="Trazado_1014470" data-name="Trazado 1014470" d="M57.279,14.914l.731-.162V9.52l-.731-.162A2.2,2.2,0,0,1,55.9,6.035l.4-.632L52.6,1.7l-.632.4a2.172,2.172,0,0,1-2.018.176,2.172,2.172,0,0,1-1.3-1.552L48.49,0H43.259L43.1.731a2.172,2.172,0,0,1-1.3,1.552,2.173,2.173,0,0,1-2.018-.176l-.631-.4-3.7,3.7.4.632a2.2,2.2,0,0,1,.121,2.122,12.148,12.148,0,0,0-10.631-6.29H24.4A1.869,1.869,0,0,0,22.537,0H20.67A1.869,1.869,0,0,0,18.8,1.867h-.934a12.143,12.143,0,0,0-12.088,11.2H3.867A1.869,1.869,0,0,0,2,14.936V16.8A1.869,1.869,0,0,0,3.867,18.67h.958a4.619,4.619,0,0,0-.958,2.8,4.673,4.673,0,0,0,4.667,4.667h.933v2.8A8.412,8.412,0,0,0,15.211,36.9a6.871,6.871,0,0,0-1.706,2.3h-.3a1.846,1.846,0,0,0-.933.26,1.846,1.846,0,0,0-.933-.26A3.738,3.738,0,0,0,7.6,42.941v1.867a3.738,3.738,0,0,0,3.734,3.734V56.01A1.869,1.869,0,0,0,13.2,57.877H58.01V56.01H54.276v-22.4h2.678l-5.479-8.218L46,33.606h2.678v22.4H44.941V41.074h2.678L42.14,32.856l-5.479,8.218H39.34V56.01H31.872V48.542a3.738,3.738,0,0,0,3.734-3.734V42.941a3.738,3.738,0,0,0-3.734-3.734,1.846,1.846,0,0,0-.934.26,1.846,1.846,0,0,0-.933-.26h-.3A6.853,6.853,0,0,0,28,36.9a8.412,8.412,0,0,0,5.743-7.964v-2.8h.933a4.669,4.669,0,0,0,4.537-3.614l.566-.36A2.195,2.195,0,0,1,43.1,23.54l.162.731H48.49l.162-.731a2.2,2.2,0,0,1,3.322-1.376l.632.4,3.7-3.7-.4-.632a2.195,2.195,0,0,1,1.376-3.321ZM49.486,31.739l1.989-2.984,1.989,2.984H52.409V56.01H50.542V31.739Zm-9.335,7.468,1.989-2.984,1.989,2.984H43.074v16.8H41.207v-16.8ZM30.1,13.069a4.656,4.656,0,0,1,1.773-2.776v2.776Zm3.64-3.64a4.738,4.738,0,0,1,.743-.075,10.183,10.183,0,0,1,1.077,3.714h-1.82Zm-8.4-5.7A10.248,10.248,0,0,1,33.353,7.6a6.547,6.547,0,0,0-5.141,5.468H24.4V3.734Zm-2.8-1.867v11.2H20.67V1.867ZM17.869,3.734H18.8v9.335H14.994A6.547,6.547,0,0,0,9.854,7.6a10.248,10.248,0,0,1,8.016-3.867Zm-4.762,9.335H11.335V10.293A4.656,4.656,0,0,1,13.108,13.069ZM8.725,9.355a4.749,4.749,0,0,1,.743.075v3.64H7.649A10.182,10.182,0,0,1,8.725,9.355ZM3.867,14.936H39.34V16.8H3.867Zm4.667,9.335a2.8,2.8,0,1,1,0-5.6h.933v1.99l-1.349-.9L7.084,21.314,9.468,22.9v1.368Zm.933,20.537V42.941a1.869,1.869,0,0,1,1.867-1.867v5.6A1.869,1.869,0,0,1,9.468,44.808Zm24.271-1.867v1.867a1.87,1.87,0,0,1-1.867,1.868v-5.6A1.869,1.869,0,0,1,33.739,42.941Zm-3.733,3.734s0,0,0,0v9.33H13.2V41.074h3.734v5.6h9.335v-5.6H30ZM20.67,42.941v1.867H18.8V41.074h5.6v3.734H22.537V42.941Zm-5.028-3.734a4.99,4.99,0,0,1,2.4-1.867h7.118a4.994,4.994,0,0,1,2.4,1.867Zm9.7-3.734H17.869a6.542,6.542,0,0,1-6.534-6.534V18.67H31.872V28.938A6.542,6.542,0,0,1,25.337,35.473Zm9.335-11.2h-.933V22.9l2.385-1.59L35.089,19.76l-1.35.9V18.67h.933a2.8,2.8,0,1,1,0,5.6ZM54,15.5a4.07,4.07,0,0,0-.023,3.052L52.292,20.24A4.062,4.062,0,0,0,47.067,22.4H44.681a4.062,4.062,0,0,0-5.225-2.164l-.44-.44a4.633,4.633,0,0,0-.635-1.13h.958A1.869,1.869,0,0,0,41.207,16.8v-.1a6.666,6.666,0,1,0-1.791-3.624c-.025,0-.049-.007-.076-.007H37.425a12.021,12.021,0,0,0-.6-2.944,4.1,4.1,0,0,0,.943-4.407l1.688-1.687a4.059,4.059,0,0,0,3.051-.023,4.063,4.063,0,0,0,2.174-2.141h2.386a4.063,4.063,0,0,0,2.174,2.141,4.066,4.066,0,0,0,3.052.023L53.98,5.718a4.063,4.063,0,0,0,2.164,5.226v2.386A4.058,4.058,0,0,0,54,15.5Zm-12.8-3.366A4.667,4.667,0,1,1,45.874,16.8a4.673,4.673,0,0,1-4.667-4.667Z" transform="translate(-0.133)"/>
        <path id="Trazado_1014471" data-name="Trazado 1014471" d="M0,42H5.6v1.867H0Z" transform="translate(0 -2.793)"/>
        <path id="Trazado_1014472" data-name="Trazado 1014472" d="M0,46H5.6v1.867H0Z" transform="translate(0 -3.059)"/>
        <path id="Trazado_1014473" data-name="Trazado 1014473" d="M0,50H5.6v1.867H0Z" transform="translate(0 -3.325)"/>
        <path id="Trazado_1014474" data-name="Trazado 1014474" d="M0,54H1.867v1.867H0Z" transform="translate(0 -3.591)"/>
        <path id="Trazado_1014475" data-name="Trazado 1014475" d="M4,54H5.867v1.867H4Z" transform="translate(-0.266 -3.591)"/>
      </g>
    </g>
  </g>
</svg>
