<svg xmlns="http://www.w3.org/2000/svg" xmlns:xlink="http://www.w3.org/1999/xlink" width="418" height="417.963" viewBox="0 0 418 417.963">
  <defs>
    <filter id="Trazado_1014175" x="28.652" y="247.115" width="357.446" height="170.848" filterUnits="userSpaceOnUse">
      <feOffset dy="3" input="SourceAlpha"/>
      <feGaussianBlur stdDeviation="3" result="blur"/>
      <feFlood flood-opacity="0.161"/>
      <feComposite operator="in" in2="blur"/>
      <feComposite in="SourceGraphic"/>
    </filter>
    <filter id="Trazado_1014176" x="209.347" y="0.202" width="208.653" height="315.016" filterUnits="userSpaceOnUse">
      <feOffset dy="3" input="SourceAlpha"/>
      <feGaussianBlur stdDeviation="3" result="blur-2"/>
      <feFlood flood-opacity="0.161"/>
      <feComposite operator="in" in2="blur-2"/>
      <feComposite in="SourceGraphic"/>
    </filter>
    <filter id="Trazado_1014177" x="0" y="0" width="246.926" height="309.345" filterUnits="userSpaceOnUse">
      <feOffset dy="3" input="SourceAlpha"/>
      <feGaussianBlur stdDeviation="3" result="blur-3"/>
      <feFlood flood-opacity="0.161"/>
      <feComposite operator="in" in2="blur-3"/>
      <feComposite in="SourceGraphic"/>
    </filter>
    <clipPath id="clip-path">
      <circle id="Elipse_11824" data-name="Elipse 11824" cx="93.5" cy="93.5" r="93.5" transform="translate(-2005.811 2466.295)" fill="#fff" stroke="#707070" stroke-width="1" opacity="0.47"/>
    </clipPath>
    <filter id="Trazado_1014006" x="119.061" y="131.16" width="183.963" height="157.084" filterUnits="userSpaceOnUse">
      <feOffset dy="3" input="SourceAlpha"/>
      <feGaussianBlur stdDeviation="3" result="blur-4"/>
      <feFlood flood-opacity="0.161"/>
      <feComposite operator="in" in2="blur-4"/>
      <feComposite in="SourceGraphic"/>
    </filter>
  </defs>
  <g id="Grupo_1162724" data-name="Grupo 1162724" transform="translate(-238 -2429.019)">
    <g id="Grupo_1162333" data-name="Grupo 1162333" transform="translate(-344.282 56.216)">
      <g id="Layer_1" transform="translate(591.282 2378.803)">
        <g id="Grupo_1162332" data-name="Grupo 1162332" transform="translate(0 0)">
          <g transform="matrix(1, 0, 0, 1, -9, -6)" filter="url(#Trazado_1014175)">
            <path id="Trazado_1014175-2" data-name="Trazado 1014175" d="M376.234,478.373a88.657,88.657,0,0,1-146.515-4.565l-64.71-.457-31.821,56.038A200.046,200.046,0,0,0,472.633,534.6l-64.2.46Z" transform="translate(-95.53 -220.24)" fill="#edae3b"/>
          </g>
          <g transform="matrix(1, 0, 0, 1, -9, -6)" filter="url(#Trazado_1014176)">
            <path id="Trazado_1014176-2" data-name="Trazado 1014176" d="M580.085,385.673a200,200,0,0,0,24.944-96.794c0-106.983-84.426-194.616-190.156-199.762l32.487,55.351-32.984,56.207a88.683,88.683,0,0,1,69.3,129.2l31.957,56.263Z" transform="translate(-196.03 -82.92)" fill="#88bba9"/>
          </g>
          <g transform="matrix(1, 0, 0, 1, -9, -6)" filter="url(#Trazado_1014177)">
            <path id="Trazado_1014177-2" data-name="Trazado 1014177" d="M317.526,144.355,284.922,88.8C176.365,90.772,88.6,179.794,88.6,288.766a200.07,200.07,0,0,0,22.063,91.382l31.708-55.839,65.178.462a88.677,88.677,0,0,1,77.23-124.6Z" transform="translate(-79.6 -82.8)" fill="#e89076"/>
          </g>
        </g>
      </g>
      <path id="Cuerpo-Tarjeta" d="M9.7,2.523H3.926V5.172H8.981v2H3.926V12H1.535V.5H9.7Zm8.533,2.039a4.969,4.969,0,0,1,1.078,3.2,4.936,4.936,0,0,1-1.078,3.207A3.961,3.961,0,0,1,14.959,12.3a3.961,3.961,0,0,1-3.273-1.332,4.936,4.936,0,0,1-1.078-3.207,4.969,4.969,0,0,1,1.078-3.2,3.934,3.934,0,0,1,3.273-1.352A3.934,3.934,0,0,1,18.232,4.563Zm-3.281.531a1.779,1.779,0,0,0-1.5.691,3.2,3.2,0,0,0-.527,1.973,3.217,3.217,0,0,0,.527,1.977,1.775,1.775,0,0,0,1.5.7,1.765,1.765,0,0,0,1.5-.7,3.235,3.235,0,0,0,.523-1.977,3.217,3.217,0,0,0-.523-1.973A1.769,1.769,0,0,0,14.951,5.094Zm10.236.445a1.847,1.847,0,0,0-1.8.875,3.4,3.4,0,0,0-.258,1.516V12H20.882V3.484h2.125V4.969a4.707,4.707,0,0,1,.9-1.164,2.446,2.446,0,0,1,1.625-.523q.062,0,.105,0l.191.012V5.578q-.211-.023-.375-.031T25.187,5.539Zm6.728.289a1.091,1.091,0,0,0-1.1-.617,1.315,1.315,0,0,0-1.281.617,2.378,2.378,0,0,0-.18,1.047V12H27.095V3.5h2.164V4.742A3.583,3.583,0,0,1,30.04,3.8a3.091,3.091,0,0,1,3.258-.07,2.5,2.5,0,0,1,.734,1.023,2.831,2.831,0,0,1,1.086-1.1A3.314,3.314,0,0,1,36.649,3.3a2.964,2.964,0,0,1,1.109.219,2.475,2.475,0,0,1,.992.766,2.446,2.446,0,0,1,.484,1.094,7.56,7.56,0,0,1,.078,1.258L39.3,12H37.017V6.578a1.78,1.78,0,0,0-.156-.8,1.11,1.11,0,0,0-1.094-.594,1.28,1.28,0,0,0-1.273.766,2.4,2.4,0,0,0-.18.977V12H32.071V6.93A2.848,2.848,0,0,0,31.915,5.828ZM46.823,10.8q-.031.039-.156.234a1.568,1.568,0,0,1-.3.344,3.1,3.1,0,0,1-1.012.641,3.448,3.448,0,0,1-1.145.172,2.551,2.551,0,0,1-2.547-1.359A5.2,5.2,0,0,1,41.3,8.617V3.484h2.281V8.617a2.687,2.687,0,0,0,.172,1.094,1.19,1.19,0,0,0,1.2.648,1.563,1.563,0,0,0,1.563-.922,3.337,3.337,0,0,0,.219-1.32V3.484h2.258V12H46.823ZM51.184.484H53.41V12H51.184ZM55.9,4.406a3.636,3.636,0,0,1,3.031-1.125,5.385,5.385,0,0,1,2.484.555A2.13,2.13,0,0,1,62.506,5.93V9.836q0,.406.016.984a1.238,1.238,0,0,0,.133.594.8.8,0,0,0,.328.258V12H60.56a2.48,2.48,0,0,1-.141-.484q-.039-.227-.062-.516a4.575,4.575,0,0,1-1.062.852,3.2,3.2,0,0,1-1.625.414,2.794,2.794,0,0,1-1.91-.66,2.355,2.355,0,0,1-.754-1.871,2.429,2.429,0,0,1,1.211-2.273,5.377,5.377,0,0,1,1.953-.547l.758-.094a3.475,3.475,0,0,0,.883-.2.669.669,0,0,0,.477-.633.751.751,0,0,0-.363-.723,2.269,2.269,0,0,0-1.066-.2,1.389,1.389,0,0,0-1.117.391,1.624,1.624,0,0,0-.312.781H55.279A3.268,3.268,0,0,1,55.9,4.406Zm1.656,5.984a1.163,1.163,0,0,0,.766.258,2.268,2.268,0,0,0,1.324-.422,1.8,1.8,0,0,0,.629-1.539V7.859a2.42,2.42,0,0,1-.426.215,3.561,3.561,0,0,1-.59.152l-.5.094a3.229,3.229,0,0,0-1.008.3,1.021,1.021,0,0,0-.516.945A.978.978,0,0,0,57.56,10.391ZM71.851,6.539H69.57a1.976,1.976,0,0,0-.32-.859,1.343,1.343,0,0,0-1.164-.516,1.533,1.533,0,0,0-1.539,1.117,4.671,4.671,0,0,0-.219,1.578,4.3,4.3,0,0,0,.219,1.508,1.486,1.486,0,0,0,1.5,1.063,1.323,1.323,0,0,0,1.109-.422,2.1,2.1,0,0,0,.4-1.094h2.273a3.725,3.725,0,0,1-.734,1.922,3.57,3.57,0,0,1-3.1,1.461,3.628,3.628,0,0,1-3.023-1.219A4.932,4.932,0,0,1,64,7.914,5,5,0,0,1,65.07,4.5a3.726,3.726,0,0,1,2.953-1.219A4.447,4.447,0,0,1,70.644,4,3.343,3.343,0,0,1,71.851,6.539Zm3.822-3.055V12H73.415V3.484Zm0-3.07V2.469H73.415V.414Zm9.259,4.148a4.969,4.969,0,0,1,1.078,3.2,4.936,4.936,0,0,1-1.078,3.207,4.688,4.688,0,0,1-6.547,0,4.936,4.936,0,0,1-1.078-3.207,4.969,4.969,0,0,1,1.078-3.2,4.64,4.64,0,0,1,6.547,0Zm-3.281.531a1.779,1.779,0,0,0-1.5.691,3.2,3.2,0,0,0-.527,1.973,3.217,3.217,0,0,0,.527,1.977,1.97,1.97,0,0,0,3,0,3.235,3.235,0,0,0,.523-1.977,3.217,3.217,0,0,0-.523-1.973A1.769,1.769,0,0,0,81.651,5.094ZM80.339,2.336,81.839,0h2.484L81.948,2.336Zm11.275,2.8a1.55,1.55,0,0,0-1.555.961,3.3,3.3,0,0,0-.219,1.3V12H87.622V3.5H89.77V4.742a3.78,3.78,0,0,1,.813-.945,2.824,2.824,0,0,1,1.742-.516,3.287,3.287,0,0,1,2.16.691,2.811,2.811,0,0,1,.84,2.293V12H93.043V6.82a2.364,2.364,0,0,0-.18-1.031A1.264,1.264,0,0,0,91.614,5.133ZM109.578.5V12h-2.164V10.82a3.141,3.141,0,0,1-1.086,1.1,3.049,3.049,0,0,1-1.516.344,3.165,3.165,0,0,1-2.512-1.207,4.635,4.635,0,0,1-1.02-3.1,5.331,5.331,0,0,1,1-3.43,3.266,3.266,0,0,1,2.684-1.25,2.747,2.747,0,0,1,1.375.34,2.7,2.7,0,0,1,.977.941V.5Zm-6,7.3a3.348,3.348,0,0,0,.469,1.883,1.56,1.56,0,0,0,1.406.711,1.644,1.644,0,0,0,1.438-.7,3.106,3.106,0,0,0,.492-1.82,2.792,2.792,0,0,0-.789-2.234,1.7,1.7,0,0,0-1.125-.406,1.564,1.564,0,0,0-1.434.738A3.42,3.42,0,0,0,103.578,7.8Zm15.314,1.7a2.824,2.824,0,0,1-.789,1.539,3.866,3.866,0,0,1-3.062,1.242,4.318,4.318,0,0,1-2.867-1.047,4.222,4.222,0,0,1-1.242-3.406,4.734,4.734,0,0,1,1.121-3.391,3.833,3.833,0,0,1,2.91-1.18,4.463,4.463,0,0,1,1.914.4,3.353,3.353,0,0,1,1.406,1.258,4.292,4.292,0,0,1,.648,1.758A11.353,11.353,0,0,1,119,8.359h-5.828a2.116,2.116,0,0,0,.8,1.8,1.9,1.9,0,0,0,1.109.32,1.6,1.6,0,0,0,1.117-.391,1.855,1.855,0,0,0,.414-.586Zm-2.2-2.609a1.938,1.938,0,0,0-.535-1.34,1.662,1.662,0,0,0-1.191-.457,1.512,1.512,0,0,0-1.2.484,2.418,2.418,0,0,0-.535,1.313ZM14.274,24.484H16.5V36H14.274Zm4.72,3.922a3.636,3.636,0,0,1,3.031-1.125,5.386,5.386,0,0,1,2.484.555A2.13,2.13,0,0,1,25.6,29.93v3.906q0,.406.016.984a1.238,1.238,0,0,0,.133.594.8.8,0,0,0,.328.258V36H23.651a2.48,2.48,0,0,1-.141-.484q-.039-.227-.062-.516a4.575,4.575,0,0,1-1.062.852,3.2,3.2,0,0,1-1.625.414,2.794,2.794,0,0,1-1.91-.66,2.355,2.355,0,0,1-.754-1.871,2.429,2.429,0,0,1,1.211-2.273,5.377,5.377,0,0,1,1.953-.547l.758-.094a3.475,3.475,0,0,0,.883-.2.669.669,0,0,0,.477-.633.751.751,0,0,0-.363-.723,2.269,2.269,0,0,0-1.066-.2,1.389,1.389,0,0,0-1.117.391,1.624,1.624,0,0,0-.312.781H18.37A3.268,3.268,0,0,1,18.995,28.406Zm1.656,5.984a1.163,1.163,0,0,0,.766.258,2.268,2.268,0,0,0,1.324-.422,1.8,1.8,0,0,0,.629-1.539v-.828a2.42,2.42,0,0,1-.426.215,3.561,3.561,0,0,1-.59.152l-.5.094a3.229,3.229,0,0,0-1.008.3,1.021,1.021,0,0,0-.516.945A.978.978,0,0,0,20.651,34.391ZM39.31,33.5a2.824,2.824,0,0,1-.789,1.539,3.866,3.866,0,0,1-3.062,1.242,4.318,4.318,0,0,1-2.867-1.047,4.222,4.222,0,0,1-1.242-3.406,4.734,4.734,0,0,1,1.121-3.391,3.833,3.833,0,0,1,2.91-1.18,4.463,4.463,0,0,1,1.914.4A3.353,3.353,0,0,1,38.7,28.914a4.292,4.292,0,0,1,.648,1.758,11.352,11.352,0,0,1,.07,1.688H33.592a2.116,2.116,0,0,0,.8,1.8,1.9,1.9,0,0,0,1.109.32,1.6,1.6,0,0,0,1.117-.391,1.855,1.855,0,0,0,.414-.586Zm-2.2-2.609a1.938,1.938,0,0,0-.535-1.34,1.662,1.662,0,0,0-1.191-.457,1.512,1.512,0,0,0-1.2.484,2.418,2.418,0,0,0-.535,1.313Zm9.681-3.016a2.743,2.743,0,0,1,1.148,2.2H45.71a1.317,1.317,0,0,0-.242-.68,1.524,1.524,0,0,0-1.25-.453,1.8,1.8,0,0,0-1.035.227.652.652,0,0,0-.309.531.581.581,0,0,0,.328.555,14.2,14.2,0,0,0,2.32.617,4.262,4.262,0,0,1,1.992.945,2.146,2.146,0,0,1,.656,1.6,2.588,2.588,0,0,1-.941,2.066,4.423,4.423,0,0,1-2.91.8,4.381,4.381,0,0,1-2.965-.848,2.758,2.758,0,0,1-.957-2.16h2.258a1.487,1.487,0,0,0,.3.844,2.06,2.06,0,0,0,1.531.445,2.334,2.334,0,0,0,1.043-.2.655.655,0,0,0,.074-1.156,12.713,12.713,0,0,0-2.32-.672,4.832,4.832,0,0,1-2.039-.9,1.948,1.948,0,0,1-.594-1.531,2.656,2.656,0,0,1,.926-2.027,3.718,3.718,0,0,1,2.605-.848A4.824,4.824,0,0,1,46.789,27.875Zm6.931,6.539v1.664l-1.055.039a2.83,2.83,0,0,1-2.156-.547,1.628,1.628,0,0,1-.375-1.18V29.148H48.946V27.563h1.188V25.188h2.2v2.375H53.72v1.586H52.337v4.5a1.014,1.014,0,0,0,.133.652,1.462,1.462,0,0,0,.813.129q.1,0,.215,0T53.72,34.414Zm5.713-4.875a1.847,1.847,0,0,0-1.8.875,3.4,3.4,0,0,0-.258,1.516V36H55.128V27.484h2.125v1.484a4.708,4.708,0,0,1,.9-1.164,2.446,2.446,0,0,1,1.625-.523q.063,0,.105,0l.191.012v2.281q-.211-.023-.375-.031T59.432,29.539ZM61.7,28.406a3.636,3.636,0,0,1,3.031-1.125,5.386,5.386,0,0,1,2.484.555A2.13,2.13,0,0,1,68.3,29.93v3.906q0,.406.016.984a1.238,1.238,0,0,0,.133.594.8.8,0,0,0,.328.258V36H66.356a2.48,2.48,0,0,1-.141-.484q-.039-.227-.062-.516a4.575,4.575,0,0,1-1.062.852,3.2,3.2,0,0,1-1.625.414,2.794,2.794,0,0,1-1.91-.66,2.355,2.355,0,0,1-.754-1.871,2.429,2.429,0,0,1,1.211-2.273,5.377,5.377,0,0,1,1.953-.547l.758-.094a3.475,3.475,0,0,0,.883-.2.669.669,0,0,0,.477-.633.751.751,0,0,0-.363-.723,2.269,2.269,0,0,0-1.066-.2,1.389,1.389,0,0,0-1.117.391,1.624,1.624,0,0,0-.312.781H61.075A3.268,3.268,0,0,1,61.7,28.406Zm1.656,5.984a1.163,1.163,0,0,0,.766.258,2.268,2.268,0,0,0,1.324-.422,1.8,1.8,0,0,0,.629-1.539v-.828a2.42,2.42,0,0,1-.426.215,3.561,3.561,0,0,1-.59.152l-.5.094a3.229,3.229,0,0,0-1.008.3,1.021,1.021,0,0,0-.516.945A.978.978,0,0,0,63.356,34.391Zm10.822.023v1.664l-1.055.039a2.83,2.83,0,0,1-2.156-.547,1.628,1.628,0,0,1-.375-1.18V29.148H69.4V27.563h1.188V25.188h2.2v2.375h1.383v1.586H72.795v4.5a1.014,1.014,0,0,0,.133.652,1.462,1.462,0,0,0,.813.129q.1,0,.215,0T74.178,34.414ZM82.9,33.5a2.824,2.824,0,0,1-.789,1.539,3.866,3.866,0,0,1-3.062,1.242,4.318,4.318,0,0,1-2.867-1.047,4.222,4.222,0,0,1-1.242-3.406,4.734,4.734,0,0,1,1.121-3.391,3.833,3.833,0,0,1,2.91-1.18,4.463,4.463,0,0,1,1.914.4,3.353,3.353,0,0,1,1.406,1.258,4.292,4.292,0,0,1,.648,1.758,11.353,11.353,0,0,1,.07,1.688H77.179a2.116,2.116,0,0,0,.8,1.8,1.9,1.9,0,0,0,1.109.32,1.6,1.6,0,0,0,1.117-.391,1.855,1.855,0,0,0,.414-.586Zm-2.2-2.609a1.938,1.938,0,0,0-.535-1.34,1.662,1.662,0,0,0-1.191-.457,1.512,1.512,0,0,0-1.2.484,2.418,2.418,0,0,0-.535,1.313Zm6.22,6.6a1.882,1.882,0,0,0,1.211.3,1.627,1.627,0,0,0,1.609-.8A4.076,4.076,0,0,0,90,35.258v-.547a2.715,2.715,0,0,1-.687.82,2.765,2.765,0,0,1-1.727.508,3.267,3.267,0,0,1-2.621-1.152,4.659,4.659,0,0,1-.98-3.121,5.261,5.261,0,0,1,.945-3.191,3.123,3.123,0,0,1,2.68-1.293,2.933,2.933,0,0,1,1.117.2,2.675,2.675,0,0,1,1.313,1.234V27.484H92.2v8.078a4.524,4.524,0,0,1-.555,2.484q-.953,1.437-3.656,1.438a4.982,4.982,0,0,1-2.664-.641,2.364,2.364,0,0,1-1.141-1.914h2.422A1,1,0,0,0,86.915,37.492Zm-.375-4.4a1.629,1.629,0,0,0,1.625,1.078,1.72,1.72,0,0,0,1.32-.59,2.731,2.731,0,0,0,.539-1.879,2.875,2.875,0,0,0-.512-1.844,1.673,1.673,0,0,0-1.371-.633,1.616,1.616,0,0,0-1.617,1.1,3.906,3.906,0,0,0-.234,1.445A3.3,3.3,0,0,0,86.54,33.094Zm10.033-5.609V36H94.315V27.484Zm0-3.07v2.055H94.315V24.414Zm2.478,3.992a3.636,3.636,0,0,1,3.031-1.125,5.386,5.386,0,0,1,2.484.555,2.13,2.13,0,0,1,1.086,2.094v3.906q0,.406.016.984a1.238,1.238,0,0,0,.133.594.8.8,0,0,0,.328.258V36h-2.422a2.48,2.48,0,0,1-.141-.484q-.039-.227-.062-.516a4.575,4.575,0,0,1-1.062.852,3.2,3.2,0,0,1-1.625.414,2.794,2.794,0,0,1-1.91-.66,2.355,2.355,0,0,1-.754-1.871,2.429,2.429,0,0,1,1.211-2.273,5.377,5.377,0,0,1,1.953-.547l.758-.094a3.475,3.475,0,0,0,.883-.2.669.669,0,0,0,.477-.633.751.751,0,0,0-.363-.723,2.269,2.269,0,0,0-1.066-.2,1.389,1.389,0,0,0-1.117.391,1.624,1.624,0,0,0-.312.781H98.426A3.268,3.268,0,0,1,99.051,28.406Zm1.656,5.984a1.163,1.163,0,0,0,.766.258,2.268,2.268,0,0,0,1.324-.422,1.8,1.8,0,0,0,.629-1.539v-.828a2.42,2.42,0,0,1-.426.215,3.561,3.561,0,0,1-.59.152l-.5.094a3.229,3.229,0,0,0-1.008.3,1.021,1.021,0,0,0-.516.945A.978.978,0,0,0,100.708,34.391Z" transform="translate(630.299 2463.316)" fill="#212429"/>
      <path id="Cuerpo-Tarjeta-2" data-name="Cuerpo-Tarjeta" d="M11.04,10.336a4.237,4.237,0,0,0,1.383-.187,1.336,1.336,0,0,0,1.008-1.336.986.986,0,0,0-.5-.883,5.377,5.377,0,0,0-1.57-.539l-1.219-.273a7.7,7.7,0,0,1-2.484-.883A2.808,2.808,0,0,1,6.494,3.742a3.328,3.328,0,0,1,1.125-2.57,4.757,4.757,0,0,1,3.3-1.023,5.024,5.024,0,0,1,3.105.965,3.445,3.445,0,0,1,1.348,2.8H13.064a1.652,1.652,0,0,0-.906-1.477,3.039,3.039,0,0,0-1.4-.289,2.611,2.611,0,0,0-1.484.375A1.194,1.194,0,0,0,8.72,3.57a.991.991,0,0,0,.547.922,6.694,6.694,0,0,0,1.5.477l1.984.477a5.13,5.13,0,0,1,1.969.836,2.816,2.816,0,0,1,1.031,2.352,3.319,3.319,0,0,1-1.207,2.621,5.057,5.057,0,0,1-3.41,1.043A5.531,5.531,0,0,1,7.6,11.27,3.414,3.414,0,0,1,6.306,8.445H8.6a2.365,2.365,0,0,0,.43,1.18A2.472,2.472,0,0,0,11.04,10.336Zm13.6-.836a2.824,2.824,0,0,1-.789,1.539,3.866,3.866,0,0,1-3.062,1.242,4.318,4.318,0,0,1-2.867-1.047,4.222,4.222,0,0,1-1.242-3.406A4.734,4.734,0,0,1,17.8,4.438a3.833,3.833,0,0,1,2.91-1.18,4.463,4.463,0,0,1,1.914.4,3.353,3.353,0,0,1,1.406,1.258,4.292,4.292,0,0,1,.648,1.758,11.352,11.352,0,0,1,.07,1.688H18.925a2.116,2.116,0,0,0,.8,1.8,1.9,1.9,0,0,0,1.109.32,1.6,1.6,0,0,0,1.117-.391A1.855,1.855,0,0,0,22.37,9.5Zm-2.2-2.609a1.938,1.938,0,0,0-.535-1.34,1.662,1.662,0,0,0-1.191-.457,1.512,1.512,0,0,0-1.2.484,2.418,2.418,0,0,0-.535,1.313ZM26.3.484h2.227V12H26.3ZM37.991,9.5a2.824,2.824,0,0,1-.789,1.539,3.866,3.866,0,0,1-3.062,1.242,4.318,4.318,0,0,1-2.867-1.047A4.222,4.222,0,0,1,30.03,7.828a4.734,4.734,0,0,1,1.121-3.391,3.833,3.833,0,0,1,2.91-1.18,4.463,4.463,0,0,1,1.914.4,3.353,3.353,0,0,1,1.406,1.258,4.292,4.292,0,0,1,.648,1.758,11.352,11.352,0,0,1,.07,1.688H32.272a2.116,2.116,0,0,0,.8,1.8,1.9,1.9,0,0,0,1.109.32,1.6,1.6,0,0,0,1.117-.391,1.855,1.855,0,0,0,.414-.586Zm-2.2-2.609a1.938,1.938,0,0,0-.535-1.34,1.662,1.662,0,0,0-1.191-.457,1.512,1.512,0,0,0-1.2.484,2.418,2.418,0,0,0-.535,1.313Zm11.181-.352H44.688a1.976,1.976,0,0,0-.32-.859A1.343,1.343,0,0,0,43.2,5.164a1.533,1.533,0,0,0-1.539,1.117,4.671,4.671,0,0,0-.219,1.578,4.3,4.3,0,0,0,.219,1.508,1.486,1.486,0,0,0,1.5,1.063,1.323,1.323,0,0,0,1.109-.422,2.1,2.1,0,0,0,.4-1.094h2.273a3.725,3.725,0,0,1-.734,1.922,3.57,3.57,0,0,1-3.1,1.461,3.628,3.628,0,0,1-3.023-1.219,4.932,4.932,0,0,1-.969-3.164A5,5,0,0,1,40.188,4.5a3.726,3.726,0,0,1,2.953-1.219A4.447,4.447,0,0,1,45.762,4,3.343,3.343,0,0,1,46.969,6.539Zm8.9,0H53.588a1.976,1.976,0,0,0-.32-.859A1.343,1.343,0,0,0,52.1,5.164a1.533,1.533,0,0,0-1.539,1.117,4.671,4.671,0,0,0-.219,1.578,4.3,4.3,0,0,0,.219,1.508,1.486,1.486,0,0,0,1.5,1.063,1.323,1.323,0,0,0,1.109-.422,2.1,2.1,0,0,0,.4-1.094h2.273a3.725,3.725,0,0,1-.734,1.922,3.57,3.57,0,0,1-3.1,1.461,3.628,3.628,0,0,1-3.023-1.219,4.932,4.932,0,0,1-.969-3.164A5,5,0,0,1,49.088,4.5a3.726,3.726,0,0,1,2.953-1.219A4.447,4.447,0,0,1,54.662,4,3.343,3.343,0,0,1,55.869,6.539Zm3.822-3.055V12H57.433V3.484Zm0-3.07V2.469H57.433V.414ZM68.95,4.563a4.969,4.969,0,0,1,1.078,3.2,4.936,4.936,0,0,1-1.078,3.207,4.688,4.688,0,0,1-6.547,0,4.936,4.936,0,0,1-1.078-3.207,4.969,4.969,0,0,1,1.078-3.2,4.64,4.64,0,0,1,6.547,0Zm-3.281.531a1.779,1.779,0,0,0-1.5.691,3.2,3.2,0,0,0-.527,1.973,3.217,3.217,0,0,0,.527,1.977,1.97,1.97,0,0,0,3,0,3.235,3.235,0,0,0,.523-1.977,3.217,3.217,0,0,0-.523-1.973A1.769,1.769,0,0,0,65.669,5.094ZM64.356,2.336,65.856,0h2.484L65.966,2.336Zm11.275,2.8a1.55,1.55,0,0,0-1.555.961,3.3,3.3,0,0,0-.219,1.3V12H71.639V3.5h2.148V4.742A3.78,3.78,0,0,1,74.6,3.8a2.824,2.824,0,0,1,1.742-.516,3.287,3.287,0,0,1,2.16.691,2.811,2.811,0,0,1,.84,2.293V12H77.061V6.82a2.364,2.364,0,0,0-.18-1.031A1.264,1.264,0,0,0,75.631,5.133ZM33.555,24.5V36H31.391V34.82a3.141,3.141,0,0,1-1.086,1.1,3.049,3.049,0,0,1-1.516.344,3.165,3.165,0,0,1-2.512-1.207,4.635,4.635,0,0,1-1.02-3.1,5.331,5.331,0,0,1,1-3.43,3.266,3.266,0,0,1,2.684-1.25,2.747,2.747,0,0,1,1.375.34,2.7,2.7,0,0,1,.977.941V24.5Zm-6,7.3a3.348,3.348,0,0,0,.469,1.883,1.56,1.56,0,0,0,1.406.711,1.644,1.644,0,0,0,1.438-.7,3.106,3.106,0,0,0,.492-1.82,2.792,2.792,0,0,0-.789-2.234,1.7,1.7,0,0,0-1.125-.406,1.564,1.564,0,0,0-1.434.738A3.42,3.42,0,0,0,27.555,31.8Zm15.314,1.7a2.824,2.824,0,0,1-.789,1.539,3.866,3.866,0,0,1-3.062,1.242,4.318,4.318,0,0,1-2.867-1.047,4.222,4.222,0,0,1-1.242-3.406,4.734,4.734,0,0,1,1.121-3.391,3.833,3.833,0,0,1,2.91-1.18,4.463,4.463,0,0,1,1.914.4,3.353,3.353,0,0,1,1.406,1.258,4.292,4.292,0,0,1,.648,1.758,11.352,11.352,0,0,1,.07,1.688H37.151a2.116,2.116,0,0,0,.8,1.8,1.9,1.9,0,0,0,1.109.32,1.6,1.6,0,0,0,1.117-.391A1.855,1.855,0,0,0,40.6,33.5Zm-2.2-2.609a1.938,1.938,0,0,0-.535-1.34,1.662,1.662,0,0,0-1.191-.457,1.512,1.512,0,0,0-1.2.484,2.418,2.418,0,0,0-.535,1.313Zm8.308-6.406H51.2V36H48.974Zm4.72,3.922a3.636,3.636,0,0,1,3.031-1.125,5.385,5.385,0,0,1,2.484.555A2.13,2.13,0,0,1,60.3,29.93v3.906q0,.406.016.984a1.238,1.238,0,0,0,.133.594.8.8,0,0,0,.328.258V36H58.351a2.48,2.48,0,0,1-.141-.484q-.039-.227-.062-.516a4.575,4.575,0,0,1-1.062.852,3.2,3.2,0,0,1-1.625.414,2.794,2.794,0,0,1-1.91-.66,2.355,2.355,0,0,1-.754-1.871,2.429,2.429,0,0,1,1.211-2.273,5.377,5.377,0,0,1,1.953-.547l.758-.094a3.475,3.475,0,0,0,.883-.2.669.669,0,0,0,.477-.633.751.751,0,0,0-.363-.723,2.269,2.269,0,0,0-1.066-.2,1.389,1.389,0,0,0-1.117.391,1.624,1.624,0,0,0-.312.781H53.07A3.268,3.268,0,0,1,53.695,28.406Zm1.656,5.984a1.163,1.163,0,0,0,.766.258,2.268,2.268,0,0,0,1.324-.422,1.8,1.8,0,0,0,.629-1.539v-.828a2.42,2.42,0,0,1-.426.215,3.561,3.561,0,0,1-.59.152l-.5.094a3.229,3.229,0,0,0-1.008.3,1.021,1.021,0,0,0-.516.945A.978.978,0,0,0,55.351,34.391ZM13.524,57.5a2.824,2.824,0,0,1-.789,1.539,3.866,3.866,0,0,1-3.063,1.242,4.318,4.318,0,0,1-2.867-1.047,4.222,4.222,0,0,1-1.242-3.406,4.734,4.734,0,0,1,1.121-3.391,3.833,3.833,0,0,1,2.91-1.18,4.463,4.463,0,0,1,1.914.4,3.353,3.353,0,0,1,1.406,1.258,4.292,4.292,0,0,1,.648,1.758,11.352,11.352,0,0,1,.07,1.688H7.805a2.116,2.116,0,0,0,.8,1.8,1.9,1.9,0,0,0,1.109.32,1.6,1.6,0,0,0,1.117-.391,1.855,1.855,0,0,0,.414-.586Zm-2.2-2.609a1.938,1.938,0,0,0-.535-1.34,1.662,1.662,0,0,0-1.191-.457,1.512,1.512,0,0,0-1.2.484,2.418,2.418,0,0,0-.535,1.313ZM21,51.875a2.743,2.743,0,0,1,1.148,2.2H19.924a1.317,1.317,0,0,0-.242-.68,1.524,1.524,0,0,0-1.25-.453,1.8,1.8,0,0,0-1.035.227.652.652,0,0,0-.309.531.581.581,0,0,0,.328.555,14.2,14.2,0,0,0,2.32.617,4.262,4.262,0,0,1,1.992.945,2.146,2.146,0,0,1,.656,1.6,2.588,2.588,0,0,1-.941,2.066,4.423,4.423,0,0,1-2.91.8,4.381,4.381,0,0,1-2.965-.848,2.758,2.758,0,0,1-.957-2.16h2.258a1.487,1.487,0,0,0,.3.844,2.06,2.06,0,0,0,1.531.445,2.334,2.334,0,0,0,1.043-.2.655.655,0,0,0,.074-1.156,12.713,12.713,0,0,0-2.32-.672,4.833,4.833,0,0,1-2.039-.9,1.948,1.948,0,0,1-.594-1.531A2.656,2.656,0,0,1,15.8,52.09a3.718,3.718,0,0,1,2.605-.848A4.824,4.824,0,0,1,21,51.875Zm6.931,6.539v1.664l-1.055.039a2.83,2.83,0,0,1-2.156-.547,1.628,1.628,0,0,1-.375-1.18V53.148H23.16V51.563h1.188V49.188h2.2v2.375h1.383v1.586H26.551v4.5a1.014,1.014,0,0,0,.133.652,1.462,1.462,0,0,0,.813.129q.1,0,.215,0T27.934,58.414Zm5.713-4.875a1.847,1.847,0,0,0-1.8.875,3.4,3.4,0,0,0-.258,1.516V60H29.341V51.484h2.125v1.484a4.707,4.707,0,0,1,.9-1.164,2.446,2.446,0,0,1,1.625-.523q.063,0,.105,0l.191.012v2.281q-.211-.023-.375-.031T33.646,53.539Zm2.267-1.133a3.636,3.636,0,0,1,3.031-1.125,5.385,5.385,0,0,1,2.484.555,2.13,2.13,0,0,1,1.086,2.094v3.906q0,.406.016.984a1.238,1.238,0,0,0,.133.594.8.8,0,0,0,.328.258V60H40.57a2.48,2.48,0,0,1-.141-.484q-.039-.227-.062-.516a4.575,4.575,0,0,1-1.062.852,3.2,3.2,0,0,1-1.625.414,2.794,2.794,0,0,1-1.91-.66,2.355,2.355,0,0,1-.754-1.871,2.429,2.429,0,0,1,1.211-2.273,5.377,5.377,0,0,1,1.953-.547l.758-.094a3.475,3.475,0,0,0,.883-.2.669.669,0,0,0,.477-.633.751.751,0,0,0-.363-.723,2.269,2.269,0,0,0-1.066-.2,1.389,1.389,0,0,0-1.117.391,1.624,1.624,0,0,0-.312.781H35.288A3.268,3.268,0,0,1,35.913,52.406Zm1.656,5.984a1.163,1.163,0,0,0,.766.258,2.268,2.268,0,0,0,1.324-.422,1.8,1.8,0,0,0,.629-1.539v-.828a2.419,2.419,0,0,1-.426.215,3.561,3.561,0,0,1-.59.152l-.5.094a3.229,3.229,0,0,0-1.008.3,1.021,1.021,0,0,0-.516.945A.978.978,0,0,0,37.57,58.391Zm10.822.023v1.664l-1.055.039a2.83,2.83,0,0,1-2.156-.547,1.628,1.628,0,0,1-.375-1.18V53.148H43.618V51.563h1.188V49.188h2.2v2.375h1.383v1.586H47.009v4.5a1.014,1.014,0,0,0,.133.652,1.462,1.462,0,0,0,.813.129q.1,0,.215,0T48.391,58.414Zm8.72-.914a2.824,2.824,0,0,1-.789,1.539,3.866,3.866,0,0,1-3.062,1.242,4.318,4.318,0,0,1-2.867-1.047,4.222,4.222,0,0,1-1.242-3.406,4.734,4.734,0,0,1,1.121-3.391,3.833,3.833,0,0,1,2.91-1.18,4.463,4.463,0,0,1,1.914.4A3.353,3.353,0,0,1,56.5,52.914a4.292,4.292,0,0,1,.648,1.758,11.352,11.352,0,0,1,.07,1.688H51.393a2.116,2.116,0,0,0,.8,1.8,1.9,1.9,0,0,0,1.109.32,1.6,1.6,0,0,0,1.117-.391,1.855,1.855,0,0,0,.414-.586Zm-2.2-2.609a1.938,1.938,0,0,0-.535-1.34,1.662,1.662,0,0,0-1.191-.457,1.512,1.512,0,0,0-1.2.484,2.418,2.418,0,0,0-.535,1.313Zm6.22,6.6a1.882,1.882,0,0,0,1.211.3,1.627,1.627,0,0,0,1.609-.8,4.076,4.076,0,0,0,.266-1.734v-.547a2.715,2.715,0,0,1-.687.82,2.765,2.765,0,0,1-1.727.508,3.267,3.267,0,0,1-2.621-1.152,4.659,4.659,0,0,1-.98-3.121,5.261,5.261,0,0,1,.945-3.191,3.123,3.123,0,0,1,2.68-1.293,2.933,2.933,0,0,1,1.117.2,2.675,2.675,0,0,1,1.312,1.234V51.484h2.164v8.078a4.524,4.524,0,0,1-.555,2.484q-.953,1.437-3.656,1.438a4.982,4.982,0,0,1-2.664-.641A2.364,2.364,0,0,1,58.4,60.93h2.422A1,1,0,0,0,61.129,61.492Zm-.375-4.4a1.629,1.629,0,0,0,1.625,1.078,1.72,1.72,0,0,0,1.32-.59,2.731,2.731,0,0,0,.539-1.879,2.875,2.875,0,0,0-.512-1.844,1.673,1.673,0,0,0-1.371-.633,1.616,1.616,0,0,0-1.617,1.1,3.906,3.906,0,0,0-.234,1.445A3.3,3.3,0,0,0,60.754,57.094Zm10.033-5.609V60H68.529V51.484Zm0-3.07v2.055H68.529V48.414Zm2.478,3.992A3.636,3.636,0,0,1,76.3,51.281a5.385,5.385,0,0,1,2.484.555,2.13,2.13,0,0,1,1.086,2.094v3.906q0,.406.016.984a1.238,1.238,0,0,0,.133.594.8.8,0,0,0,.328.258V60H77.921a2.48,2.48,0,0,1-.141-.484q-.039-.227-.062-.516a4.575,4.575,0,0,1-1.062.852,3.2,3.2,0,0,1-1.625.414,2.794,2.794,0,0,1-1.91-.66,2.355,2.355,0,0,1-.754-1.871,2.429,2.429,0,0,1,1.211-2.273,5.377,5.377,0,0,1,1.953-.547l.758-.094a3.475,3.475,0,0,0,.883-.2.669.669,0,0,0,.477-.633.751.751,0,0,0-.363-.723,2.269,2.269,0,0,0-1.066-.2,1.389,1.389,0,0,0-1.117.391,1.624,1.624,0,0,0-.312.781H72.64A3.268,3.268,0,0,1,73.265,52.406Zm1.656,5.984a1.163,1.163,0,0,0,.766.258,2.268,2.268,0,0,0,1.324-.422,1.8,1.8,0,0,0,.629-1.539v-.828a2.42,2.42,0,0,1-.426.215,3.561,3.561,0,0,1-.59.152l-.5.094a3.229,3.229,0,0,0-1.008.3,1.021,1.021,0,0,0-.516.945A.978.978,0,0,0,74.921,58.391Z" transform="translate(888.021 2518.1)" fill="#212429"/>
      <path id="Cuerpo-Tarjeta-3" data-name="Cuerpo-Tarjeta" d="M4.8.484H7.193V12H4.8Zm9.236,5.344a1.091,1.091,0,0,0-1.1-.617,1.315,1.315,0,0,0-1.281.617,2.378,2.378,0,0,0-.18,1.047V12H9.218V3.5h2.164V4.742a3.583,3.583,0,0,1,.781-.945,2.673,2.673,0,0,1,1.68-.5,2.657,2.657,0,0,1,1.578.43,2.5,2.5,0,0,1,.734,1.023,2.831,2.831,0,0,1,1.086-1.1A3.314,3.314,0,0,1,18.772,3.3a2.964,2.964,0,0,1,1.109.219,2.475,2.475,0,0,1,.992.766,2.446,2.446,0,0,1,.484,1.094,7.56,7.56,0,0,1,.078,1.258L21.421,12H19.14V6.578a1.78,1.78,0,0,0-.156-.8,1.11,1.11,0,0,0-1.094-.594,1.28,1.28,0,0,0-1.273.766,2.4,2.4,0,0,0-.18.977V12H14.194V6.93A2.848,2.848,0,0,0,14.038,5.828ZM30.618,4.4a4.569,4.569,0,0,1,1.031,3.234,5.13,5.13,0,0,1-1.012,3.43,3.275,3.275,0,0,1-2.605,1.18,2.719,2.719,0,0,1-1.687-.508,3.274,3.274,0,0,1-.719-.82v4.438h-2.2V3.484h2.133V4.742a3.575,3.575,0,0,1,.766-.875,2.813,2.813,0,0,1,1.766-.57A3.348,3.348,0,0,1,30.618,4.4ZM29.352,7.742A3.351,3.351,0,0,0,28.9,6a1.564,1.564,0,0,0-1.457-.758,1.658,1.658,0,0,0-1.664,1.148,4.356,4.356,0,0,0-.234,1.547,2.467,2.467,0,0,0,.789,2.086,1.8,1.8,0,0,0,1.109.352,1.608,1.608,0,0,0,1.418-.719A3.352,3.352,0,0,0,29.352,7.742ZM33.307.484h2.227V12H33.307Zm4.72,3.922a3.636,3.636,0,0,1,3.031-1.125,5.385,5.385,0,0,1,2.484.555A2.13,2.13,0,0,1,44.629,5.93V9.836q0,.406.016.984a1.238,1.238,0,0,0,.133.594.8.8,0,0,0,.328.258V12H42.684a2.48,2.48,0,0,1-.141-.484Q42.5,11.289,42.48,11a4.575,4.575,0,0,1-1.062.852,3.2,3.2,0,0,1-1.625.414,2.794,2.794,0,0,1-1.91-.66,2.355,2.355,0,0,1-.754-1.871A2.429,2.429,0,0,1,38.34,7.461a5.377,5.377,0,0,1,1.953-.547l.758-.094a3.475,3.475,0,0,0,.883-.2.669.669,0,0,0,.477-.633.751.751,0,0,0-.363-.723,2.269,2.269,0,0,0-1.066-.2,1.389,1.389,0,0,0-1.117.391,1.624,1.624,0,0,0-.312.781H37.4A3.268,3.268,0,0,1,38.027,4.406Zm1.656,5.984a1.163,1.163,0,0,0,.766.258,2.268,2.268,0,0,0,1.324-.422A1.8,1.8,0,0,0,42.4,8.688V7.859a2.42,2.42,0,0,1-.426.215,3.561,3.561,0,0,1-.59.152l-.5.094a3.229,3.229,0,0,0-1.008.3,1.021,1.021,0,0,0-.516.945A.978.978,0,0,0,39.684,10.391ZM50.615,5.133a1.55,1.55,0,0,0-1.555.961,3.3,3.3,0,0,0-.219,1.3V12H46.623V3.5h2.148V4.742a3.78,3.78,0,0,1,.813-.945,2.824,2.824,0,0,1,1.742-.516,3.287,3.287,0,0,1,2.16.691,2.811,2.811,0,0,1,.84,2.293V12H52.044V6.82a2.363,2.363,0,0,0-.18-1.031A1.264,1.264,0,0,0,50.615,5.133Zm9.666,5.281v1.664l-1.055.039a2.83,2.83,0,0,1-2.156-.547,1.628,1.628,0,0,1-.375-1.18V5.148H55.507V3.563h1.188V1.188h2.2V3.563H60.28V5.148H58.9v4.5a1.014,1.014,0,0,0,.133.652,1.462,1.462,0,0,0,.813.129q.1,0,.215,0T60.28,10.414Zm1.752-6.008a3.636,3.636,0,0,1,3.031-1.125,5.386,5.386,0,0,1,2.484.555A2.13,2.13,0,0,1,68.634,5.93V9.836q0,.406.016.984a1.238,1.238,0,0,0,.133.594.8.8,0,0,0,.328.258V12H66.688a2.48,2.48,0,0,1-.141-.484q-.039-.227-.062-.516a4.575,4.575,0,0,1-1.062.852,3.2,3.2,0,0,1-1.625.414,2.794,2.794,0,0,1-1.91-.66,2.355,2.355,0,0,1-.754-1.871,2.429,2.429,0,0,1,1.211-2.273A5.377,5.377,0,0,1,64.3,6.914l.758-.094a3.475,3.475,0,0,0,.883-.2.669.669,0,0,0,.477-.633.751.751,0,0,0-.363-.723,2.269,2.269,0,0,0-1.066-.2,1.389,1.389,0,0,0-1.117.391,1.624,1.624,0,0,0-.312.781H61.407A3.268,3.268,0,0,1,62.032,4.406Zm1.656,5.984a1.163,1.163,0,0,0,.766.258,2.268,2.268,0,0,0,1.324-.422,1.8,1.8,0,0,0,.629-1.539V7.859a2.42,2.42,0,0,1-.426.215,3.561,3.561,0,0,1-.59.152l-.5.094a3.229,3.229,0,0,0-1.008.3,1.021,1.021,0,0,0-.516.945A.978.978,0,0,0,63.688,10.391ZM77.979,6.539H75.7a1.976,1.976,0,0,0-.32-.859,1.343,1.343,0,0,0-1.164-.516,1.533,1.533,0,0,0-1.539,1.117,4.671,4.671,0,0,0-.219,1.578,4.3,4.3,0,0,0,.219,1.508,1.486,1.486,0,0,0,1.5,1.063,1.323,1.323,0,0,0,1.109-.422,2.1,2.1,0,0,0,.4-1.094h2.273a3.725,3.725,0,0,1-.734,1.922,3.57,3.57,0,0,1-3.1,1.461A3.628,3.628,0,0,1,71.1,11.078a4.932,4.932,0,0,1-.969-3.164A5,5,0,0,1,71.2,4.5a3.726,3.726,0,0,1,2.953-1.219A4.447,4.447,0,0,1,76.772,4,3.343,3.343,0,0,1,77.979,6.539ZM81.8,3.484V12H79.543V3.484Zm0-3.07V2.469H79.543V.414ZM91.06,4.563a4.969,4.969,0,0,1,1.078,3.2,4.936,4.936,0,0,1-1.078,3.207,4.688,4.688,0,0,1-6.547,0,4.936,4.936,0,0,1-1.078-3.207,4.969,4.969,0,0,1,1.078-3.2,4.64,4.64,0,0,1,6.547,0Zm-3.281.531a1.779,1.779,0,0,0-1.5.691,3.2,3.2,0,0,0-.527,1.973,3.217,3.217,0,0,0,.527,1.977,1.97,1.97,0,0,0,3,0A3.235,3.235,0,0,0,89.8,7.758a3.217,3.217,0,0,0-.523-1.973A1.769,1.769,0,0,0,87.779,5.094ZM86.467,2.336,87.967,0h2.484L88.076,2.336Zm11.275,2.8a1.55,1.55,0,0,0-1.555.961,3.3,3.3,0,0,0-.219,1.3V12H93.749V3.5H95.9V4.742A3.78,3.78,0,0,1,96.71,3.8a2.824,2.824,0,0,1,1.742-.516,3.287,3.287,0,0,1,2.16.691,2.811,2.811,0,0,1,.84,2.293V12H99.171V6.82a2.364,2.364,0,0,0-.18-1.031A1.264,1.264,0,0,0,97.742,5.133ZM115.706.5V12h-2.164V10.82a3.141,3.141,0,0,1-1.086,1.1,3.049,3.049,0,0,1-1.516.344,3.165,3.165,0,0,1-2.512-1.207,4.635,4.635,0,0,1-1.02-3.1,5.331,5.331,0,0,1,1-3.43,3.266,3.266,0,0,1,2.684-1.25,2.747,2.747,0,0,1,1.375.34,2.7,2.7,0,0,1,.977.941V.5Zm-6,7.3a3.348,3.348,0,0,0,.469,1.883,1.56,1.56,0,0,0,1.406.711,1.644,1.644,0,0,0,1.438-.7,3.106,3.106,0,0,0,.492-1.82,2.792,2.792,0,0,0-.789-2.234,1.7,1.7,0,0,0-1.125-.406,1.564,1.564,0,0,0-1.434.738A3.42,3.42,0,0,0,109.706,7.8ZM125.02,9.5a2.824,2.824,0,0,1-.789,1.539,3.866,3.866,0,0,1-3.062,1.242,4.318,4.318,0,0,1-2.867-1.047,4.222,4.222,0,0,1-1.242-3.406,4.734,4.734,0,0,1,1.121-3.391,3.833,3.833,0,0,1,2.91-1.18,4.463,4.463,0,0,1,1.914.4,3.353,3.353,0,0,1,1.406,1.258,4.292,4.292,0,0,1,.648,1.758,11.353,11.353,0,0,1,.07,1.688H119.3a2.116,2.116,0,0,0,.8,1.8,1.9,1.9,0,0,0,1.109.32,1.6,1.6,0,0,0,1.117-.391,1.855,1.855,0,0,0,.414-.586Zm-2.2-2.609a1.938,1.938,0,0,0-.535-1.34,1.662,1.662,0,0,0-1.191-.457,1.512,1.512,0,0,0-1.2.484,2.418,2.418,0,0,0-.535,1.313ZM19.065,24.484h2.227V36H19.065Zm4.72,3.922a3.636,3.636,0,0,1,3.031-1.125,5.386,5.386,0,0,1,2.484.555,2.13,2.13,0,0,1,1.086,2.094v3.906q0,.406.016.984a1.238,1.238,0,0,0,.133.594.8.8,0,0,0,.328.258V36H28.442a2.48,2.48,0,0,1-.141-.484q-.039-.227-.062-.516a4.575,4.575,0,0,1-1.062.852,3.2,3.2,0,0,1-1.625.414,2.794,2.794,0,0,1-1.91-.66,2.355,2.355,0,0,1-.754-1.871A2.429,2.429,0,0,1,24.1,31.461a5.377,5.377,0,0,1,1.953-.547l.758-.094a3.475,3.475,0,0,0,.883-.2.669.669,0,0,0,.477-.633.751.751,0,0,0-.363-.723,2.269,2.269,0,0,0-1.066-.2,1.389,1.389,0,0,0-1.117.391,1.624,1.624,0,0,0-.312.781H23.161A3.268,3.268,0,0,1,23.786,28.406Zm1.656,5.984a1.163,1.163,0,0,0,.766.258,2.268,2.268,0,0,0,1.324-.422,1.8,1.8,0,0,0,.629-1.539v-.828a2.42,2.42,0,0,1-.426.215,3.561,3.561,0,0,1-.59.152l-.5.094a3.229,3.229,0,0,0-1.008.3,1.021,1.021,0,0,0-.516.945A.978.978,0,0,0,25.442,34.391ZM44.1,33.5a2.824,2.824,0,0,1-.789,1.539,3.866,3.866,0,0,1-3.062,1.242,4.318,4.318,0,0,1-2.867-1.047,4.222,4.222,0,0,1-1.242-3.406,4.734,4.734,0,0,1,1.121-3.391,3.833,3.833,0,0,1,2.91-1.18,4.463,4.463,0,0,1,1.914.4,3.353,3.353,0,0,1,1.406,1.258,4.292,4.292,0,0,1,.648,1.758,11.352,11.352,0,0,1,.07,1.688H38.383a2.116,2.116,0,0,0,.8,1.8,1.9,1.9,0,0,0,1.109.32,1.6,1.6,0,0,0,1.117-.391,1.855,1.855,0,0,0,.414-.586Zm-2.2-2.609a1.938,1.938,0,0,0-.535-1.34,1.662,1.662,0,0,0-1.191-.457,1.512,1.512,0,0,0-1.2.484,2.418,2.418,0,0,0-.535,1.313Zm9.681-3.016a2.743,2.743,0,0,1,1.148,2.2H50.5a1.317,1.317,0,0,0-.242-.68,1.524,1.524,0,0,0-1.25-.453,1.8,1.8,0,0,0-1.035.227.652.652,0,0,0-.309.531.581.581,0,0,0,.328.555,14.2,14.2,0,0,0,2.32.617,4.262,4.262,0,0,1,1.992.945,2.146,2.146,0,0,1,.656,1.6,2.588,2.588,0,0,1-.941,2.066,4.423,4.423,0,0,1-2.91.8,4.381,4.381,0,0,1-2.965-.848,2.758,2.758,0,0,1-.957-2.16h2.258a1.487,1.487,0,0,0,.3.844,2.06,2.06,0,0,0,1.531.445,2.334,2.334,0,0,0,1.043-.2.655.655,0,0,0,.074-1.156,12.713,12.713,0,0,0-2.32-.672,4.832,4.832,0,0,1-2.039-.9,1.948,1.948,0,0,1-.594-1.531,2.656,2.656,0,0,1,.926-2.027,3.718,3.718,0,0,1,2.605-.848A4.824,4.824,0,0,1,51.58,27.875Zm6.931,6.539v1.664l-1.055.039A2.83,2.83,0,0,1,55.3,35.57a1.628,1.628,0,0,1-.375-1.18V29.148H53.738V27.563h1.188V25.188h2.2v2.375h1.383v1.586H57.128v4.5a1.014,1.014,0,0,0,.133.652,1.462,1.462,0,0,0,.813.129q.1,0,.215,0T58.511,34.414Zm5.713-4.875a1.847,1.847,0,0,0-1.8.875,3.4,3.4,0,0,0-.258,1.516V36H59.919V27.484h2.125v1.484a4.708,4.708,0,0,1,.9-1.164,2.446,2.446,0,0,1,1.625-.523q.062,0,.105,0l.191.012v2.281q-.211-.023-.375-.031T64.223,29.539Zm2.267-1.133a3.636,3.636,0,0,1,3.031-1.125,5.386,5.386,0,0,1,2.484.555,2.13,2.13,0,0,1,1.086,2.094v3.906q0,.406.016.984a1.238,1.238,0,0,0,.133.594.8.8,0,0,0,.328.258V36H71.147a2.48,2.48,0,0,1-.141-.484q-.039-.227-.062-.516a4.575,4.575,0,0,1-1.062.852,3.2,3.2,0,0,1-1.625.414,2.794,2.794,0,0,1-1.91-.66,2.355,2.355,0,0,1-.754-1.871A2.429,2.429,0,0,1,66.8,31.461a5.377,5.377,0,0,1,1.953-.547l.758-.094a3.475,3.475,0,0,0,.883-.2.669.669,0,0,0,.477-.633.751.751,0,0,0-.363-.723,2.269,2.269,0,0,0-1.066-.2,1.389,1.389,0,0,0-1.117.391,1.624,1.624,0,0,0-.312.781H65.866A3.268,3.268,0,0,1,66.491,28.406Zm1.656,5.984a1.163,1.163,0,0,0,.766.258,2.268,2.268,0,0,0,1.324-.422,1.8,1.8,0,0,0,.629-1.539v-.828a2.42,2.42,0,0,1-.426.215,3.561,3.561,0,0,1-.59.152l-.5.094a3.229,3.229,0,0,0-1.008.3,1.021,1.021,0,0,0-.516.945A.978.978,0,0,0,68.147,34.391Zm10.822.023v1.664l-1.055.039a2.83,2.83,0,0,1-2.156-.547,1.628,1.628,0,0,1-.375-1.18V29.148H74.2V27.563h1.188V25.188h2.2v2.375h1.383v1.586H77.586v4.5a1.014,1.014,0,0,0,.133.652,1.462,1.462,0,0,0,.813.129q.1,0,.215,0T78.969,34.414Zm8.72-.914a2.824,2.824,0,0,1-.789,1.539,3.866,3.866,0,0,1-3.062,1.242,4.318,4.318,0,0,1-2.867-1.047,4.222,4.222,0,0,1-1.242-3.406,4.734,4.734,0,0,1,1.121-3.391,3.833,3.833,0,0,1,2.91-1.18,4.463,4.463,0,0,1,1.914.4,3.353,3.353,0,0,1,1.406,1.258,4.292,4.292,0,0,1,.648,1.758,11.353,11.353,0,0,1,.07,1.688H81.97a2.116,2.116,0,0,0,.8,1.8,1.9,1.9,0,0,0,1.109.32A1.6,1.6,0,0,0,85,34.086a1.855,1.855,0,0,0,.414-.586Zm-2.2-2.609a1.938,1.938,0,0,0-.535-1.34,1.662,1.662,0,0,0-1.191-.457,1.512,1.512,0,0,0-1.2.484,2.418,2.418,0,0,0-.535,1.313Zm6.22,6.6a1.882,1.882,0,0,0,1.211.3,1.627,1.627,0,0,0,1.609-.8,4.076,4.076,0,0,0,.266-1.734v-.547a2.715,2.715,0,0,1-.687.82,2.765,2.765,0,0,1-1.727.508,3.267,3.267,0,0,1-2.621-1.152,4.659,4.659,0,0,1-.98-3.121,5.261,5.261,0,0,1,.945-3.191,3.123,3.123,0,0,1,2.68-1.293,2.933,2.933,0,0,1,1.117.2,2.675,2.675,0,0,1,1.313,1.234V27.484H97v8.078a4.524,4.524,0,0,1-.555,2.484q-.953,1.437-3.656,1.438a4.982,4.982,0,0,1-2.664-.641A2.364,2.364,0,0,1,88.98,36.93H91.4A1,1,0,0,0,91.706,37.492Zm-.375-4.4a1.629,1.629,0,0,0,1.625,1.078,1.72,1.72,0,0,0,1.32-.59,2.731,2.731,0,0,0,.539-1.879,2.875,2.875,0,0,0-.512-1.844,1.673,1.673,0,0,0-1.371-.633,1.616,1.616,0,0,0-1.617,1.1,3.906,3.906,0,0,0-.234,1.445A3.3,3.3,0,0,0,91.331,33.094Zm10.033-5.609V36H99.106V27.484Zm0-3.07v2.055H99.106V24.414Zm2.478,3.992a3.636,3.636,0,0,1,3.031-1.125,5.386,5.386,0,0,1,2.484.555,2.13,2.13,0,0,1,1.086,2.094v3.906q0,.406.016.984a1.238,1.238,0,0,0,.133.594.8.8,0,0,0,.328.258V36H108.5a2.48,2.48,0,0,1-.141-.484q-.039-.227-.062-.516a4.575,4.575,0,0,1-1.062.852,3.2,3.2,0,0,1-1.625.414,2.794,2.794,0,0,1-1.91-.66,2.355,2.355,0,0,1-.754-1.871,2.429,2.429,0,0,1,1.211-2.273,5.377,5.377,0,0,1,1.953-.547l.758-.094a3.475,3.475,0,0,0,.883-.2.669.669,0,0,0,.477-.633.751.751,0,0,0-.363-.723,2.269,2.269,0,0,0-1.066-.2,1.389,1.389,0,0,0-1.117.391,1.624,1.624,0,0,0-.312.781h-2.148A3.268,3.268,0,0,1,103.842,28.406Zm1.656,5.984a1.163,1.163,0,0,0,.766.258,2.268,2.268,0,0,0,1.324-.422,1.8,1.8,0,0,0,.629-1.539v-.828a2.42,2.42,0,0,1-.426.215,3.561,3.561,0,0,1-.59.152l-.5.094a3.229,3.229,0,0,0-1.008.3,1.021,1.021,0,0,0-.516.945A.978.978,0,0,0,105.5,34.391Z" transform="translate(720.373 2692.333)" fill="#212429"/>
    </g>
    <g id="Enmascarar_grupo_1098790" data-name="Enmascarar grupo 1098790" transform="translate(2359.311 70.232)" clip-path="url(#clip-path)">
      <g id="Grupo_1161097" data-name="Grupo 1161097" transform="translate(-2036.575 2443.425)">
        <g transform="matrix(1, 0, 0, 1, -84.74, -84.64)" filter="url(#Trazado_1014006)">
          <path id="Trazado_1014006-2" data-name="Trazado 1014006" d="M211.15,184.729c-19.382-4.976-39.836-10.562-53.653-25.036-8.187-8.578-13.369-19.748-15.865-31.34-5-23.211,1.474-49.469,19.358-65.085,10.082-8.8,23.056-13.82,36.256-16.032s26.7-1.769,40.043-.7c14.173,1.141,28.745,3.137,40.99,10.367,18.549,10.954,28.976,33.37,27.554,54.865s-13.772,41.531-31.065,54.376S235.674,185,211.15,184.729Z" transform="translate(-11.94 91.51)" fill="#f7ddd5"/>
        </g>
        <g id="Grupo_1161086" data-name="Grupo 1161086" transform="translate(65.179 24.747)">
          <g id="Grupo_1161096" data-name="Grupo 1161096" transform="translate(0 0)">
            <g id="Grupo_1161071" data-name="Grupo 1161071" transform="translate(0 68.219)">
              <path id="Trazado_1014074" data-name="Trazado 1014074" d="M251.956,238.145a7.116,7.116,0,0,1-5.093-5.22,8.61,8.61,0,0,1,1.7-7.22c2.249-2.855,5.9-4.175,9.4-5.13a105.691,105.691,0,0,1,27.669-3.4,34.822,34.822,0,0,1,8.16.718,13.971,13.971,0,0,1,7.095,3.891,8.816,8.816,0,0,1,2.336,7.554,6.488,6.488,0,0,1-5.614,5.185Z" transform="translate(-214.936 -217.18)" fill="#208da8"/>
              <g id="Grupo_1161055" data-name="Grupo 1161055" transform="translate(89.774 18.649)">
                <path id="Trazado_1014075" data-name="Trazado 1014075" d="M385.733,376.381c3.266-1.762,5.261-5.232,6.473-8.739a32.517,32.517,0,0,0-.722-22.916l-17.912,7.125Z" transform="translate(-367.883 -299.313)" fill="#9e4950"/>
                <path id="Trazado_1014076" data-name="Trazado 1014076" d="M377.029,344.9a93.858,93.858,0,0,0,16.916-8.529,26.542,26.542,0,0,0-2.763-7.824l-16.423,6.89Z" transform="translate(-368.474 -291.26)" fill="#d24d84"/>
                <path id="Trazado_1014077" data-name="Trazado 1014077" d="M362.246,254.309A51,51,0,0,1,368,258.428c9.825,8.126,16.573,19.557,20.2,32.4a121.769,121.769,0,0,1-18.33,10.835Z" transform="translate(-362.246 -254.309)" fill="#208da8"/>
              </g>
              <g id="Grupo_1161056" data-name="Grupo 1161056" transform="translate(38.835 11.479)">
                <path id="Trazado_1014078" data-name="Trazado 1014078" d="M294.129,241.093s-2.848,3.632-11.006,3.93-10.741-2.067-10.741-2.067a71.821,71.821,0,0,0-11.552,4.425l.313,115.876h42.243V243.586A46.434,46.434,0,0,0,294.129,241.093Z" transform="translate(-260.829 -240.561)" fill="#d24d84"/>
                <path id="Trazado_1014079" data-name="Trazado 1014079" d="M293.445,240.412a67.376,67.376,0,0,0-9.617,2.016,13.752,13.752,0,0,0,11.552,5.024,13.064,13.064,0,0,0,10.2-6.886A40.963,40.963,0,0,0,293.445,240.412Z" transform="translate(-272.276 -240.034)" fill="#9e4950"/>
                <path id="Trazado_1014080" data-name="Trazado 1014080" d="M303.386,243.729a46.575,46.575,0,0,0-8.426-2.349c-.373,3.651-1.283,13.042-2.145,25.641l-6.08-5.421s-7.667-.149-13.739.009c-.755-8.625-1.462-14.992-1.833-18.147a72.048,72.048,0,0,0-10.335,4.062l.313,115.876H274.38c2.037-24.99,1.682-51.038.613-72.634l1.331-1.845h5.783l9.146,9.2c-.658,21.332-.47,45.143,1.988,65.276h10.144Z" transform="translate(-260.829 -240.704)" fill="#2e2854" opacity="0.15"/>
              </g>
              <g id="Grupo_1161057" data-name="Grupo 1161057" transform="translate(0 27.041)">
                <path id="Trazado_1014081" data-name="Trazado 1014081" d="M190.3,377.969a21.161,21.161,0,0,1-1.615-4.451c-1.2-4.98-.789-10.211.021-15.27l23.618,1.993Z" transform="translate(-185.711 -314.434)" fill="#9e4950"/>
                <path id="Trazado_1014082" data-name="Trazado 1014082" d="M207.283,352.852a76.689,76.689,0,0,1-22.124-1.776c.487-2.789,1.061-5.8,1.634-8.811l21.566,1.7Z" transform="translate(-184.33 -306.479)" fill="#d24d84"/>
                <path id="Trazado_1014083" data-name="Trazado 1014083" d="M208.431,271.017q-1.121.887-2.209,1.818a72.512,72.512,0,0,0-22.713,34.945,140.844,140.844,0,0,0,23.219,3.281Z" transform="translate(-183.509 -271.017)" fill="#208da8"/>
              </g>
              <g id="Grupo_1161058" data-name="Grupo 1161058" transform="translate(20.432 10.037)">
                <path id="Trazado_1014084" data-name="Trazado 1014084" d="M226.376,275.7q-2.427,41.766-2.157,83.632c-1.118.187,29.165-.536,29.165-.536a660.409,660.409,0,0,0-.25-79.18c-.47-12.192-.8-23.674-1.135-35.156-.058-2.014-.224-4.268-1.73-5.605-2.438-2.163-6.446-.407-9.443-1.688l1.766,8.262a75.516,75.516,0,0,0-13.913,8.742Z" transform="translate(-224.189 -237.163)" fill="#208da8"/>
                <path id="Trazado_1014085" data-name="Trazado 1014085" d="M253.558,330.527c-8.232,9.027-20.756,22.775-28.719,31.575q-.213,7.844-.329,15.689c3.476.126,9.585-1.256,16.782-9.893,7.041-8.449,10.922-18.64,12.842-25.09Q253.9,336.665,253.558,330.527Z" transform="translate(-224.348 -283.633)" fill="#2e2854" opacity="0.15"/>
                <path id="Trazado_1014086" data-name="Trazado 1014086" d="M226.376,275.7q-2.427,41.766-2.157,83.632c-1.118.187,29.165-.536,29.165-.536a660.409,660.409,0,0,0-.25-79.18c-.47-12.192-.8-23.674-1.135-35.156-.058-2.014-.224-4.268-1.73-5.605-2.438-2.163-6.446-.407-9.443-1.688" transform="translate(-224.189 -237.163)" fill="none" stroke="#2e2854" stroke-linecap="round" stroke-linejoin="round" stroke-miterlimit="10" stroke-width="1.5"/>
              </g>
              <g id="Grupo_1161059" data-name="Grupo 1161059" transform="translate(72.086 8.08)">
                <path id="Trazado_1014087" data-name="Trazado 1014087" d="M352.415,271.911a539.6,539.6,0,0,1,1.971,85.706c-.394.345-25.844.244-25.844.244a391.622,391.622,0,0,1-1.245-47.313c.963-22.364,1.413-43.674,1.466-65,.008-2.87.771-9.346,1.671-10.606,1.251-1.754,4.219-2.156,6.874-1.064l-.97,5.818a50.1,50.1,0,0,1,8.381,4.145Z" transform="translate(-327.031 -233.267)" fill="#208da8"/>
                <path id="Trazado_1014088" data-name="Trazado 1014088" d="M328.4,352.664c5.084,9.125,17.672,29.543,27.524,27.553q0-8.553-.26-17.1L328.827,339.4Q328.643,345.983,328.4,352.664Z" transform="translate(-327.711 -286.092)" fill="#2e2854" opacity="0.15"/>
                <path id="Trazado_1014089" data-name="Trazado 1014089" d="M352.415,271.911a539.6,539.6,0,0,1,1.971,85.706c-.394.345-25.844.244-25.844.244a391.622,391.622,0,0,1-1.245-47.313c.963-22.364,1.413-43.674,1.466-65,.008-2.87.771-9.346,1.671-10.606,1.251-1.754,4.219-2.156,6.874-1.064" transform="translate(-327.031 -233.267)" fill="none" stroke="#2e2854" stroke-linecap="round" stroke-linejoin="round" stroke-miterlimit="10" stroke-width="1.5"/>
              </g>
              <g id="Grupo_1161060" data-name="Grupo 1161060" transform="translate(4.59 46.176)">
                <path id="Trazado_1014090" data-name="Trazado 1014090" d="M192.647,353.514a16.217,16.217,0,0,0,7.225,7.517c4.979,2.427,11.118,1.572,15.918-1.193s8.42-7.21,11.3-11.939c6.312-10.356,9.569-22.4,16.33-32.466,0,0-6.876-6.6-8.09-6.308-3.248,8-10.35,13.71-17.35,18.771s-14.418,10.083-18.851,17.5Z" transform="translate(-192.647 -309.116)" fill="#9e4950"/>
                <path id="Trazado_1014091" data-name="Trazado 1014091" d="M241.76,309.134c-3.248,8-10.35,13.71-17.35,18.771s-14.418,10.083-18.851,17.5" transform="translate(-199.074 -309.125)" fill="none" stroke="#2e2854" stroke-linecap="round" stroke-linejoin="round" stroke-miterlimit="10" stroke-width="1.5"/>
              </g>
              <path id="Trazado_1014121" data-name="Trazado 1014121" d="M325.314,301.415q-.954-1.5-1.792-3.072c-1.675-3.145-3.746-6.258-6.6-8.1l-1.174,11.173h9.564Z" transform="translate(-249.33 -253.545)" fill="#9e4950"/>
              <g id="Grupo_1161069" data-name="Grupo 1161069" transform="translate(45.778 18.65)">
                <path id="Trazado_1014122" data-name="Trazado 1014122" d="M295.307,258.464q1.7,14.5,2.261,29.095a4.706,4.706,0,0,1-4.082,4.848,102.077,102.077,0,0,1-12.191.873,4.706,4.706,0,0,1-4.729-4.149c-1.122-9.539-1.654-19.149-1.911-28.746a4.7,4.7,0,0,1,4.05-4.785c3.637-.5,7.389-.907,11.511-1.272A4.706,4.706,0,0,1,295.307,258.464Z" transform="translate(-274.653 -254.311)" fill="#5767bf"/>
                <path id="Trazado_1014123" data-name="Trazado 1014123" d="M296.4,285.944a4.055,4.055,0,1,0,1.286,4.773A4.089,4.089,0,0,0,296.4,285.944Z" transform="translate(-282.237 -269.653)" fill="#2e2854"/>
              </g>
              <g id="Grupo_1161070" data-name="Grupo 1161070" transform="translate(55.158 35.922)">
                <path id="Trazado_1014124" data-name="Trazado 1014124" d="M345.793,348.5c-3.945,2.129-8.964,1.27-12.814-1.028s-6.777-5.828-9.625-9.291c-6.884-8.368-12.8-17.629-20.5-25-2.143-2.051-4.758-3.542-7.138-5.314a3.9,3.9,0,0,1-1.2-1.206,1.335,1.335,0,0,1,.159-1.585c.544-.487,1.4-.227,2.059.087a28.2,28.2,0,0,1,4.487,2.715,53.694,53.694,0,0,1-6.985-6.46,3.956,3.956,0,0,1-.817-1.283,1.485,1.485,0,0,1,.223-1.445,1.469,1.469,0,0,1,1.248-.406,3.772,3.772,0,0,1,1.279.447,45.189,45.189,0,0,1,7.679,5.488c-2.449-2.267-4.9-4.534-7.244-6.908a5.1,5.1,0,0,1-1.292-1.768,1.793,1.793,0,0,1,.446-2.013,1.765,1.765,0,0,1,1.509-.219,4.945,4.945,0,0,1,1.4.71,59.465,59.465,0,0,1,8.132,6.352l-7.216-8.278c-.606-.7-1.253-1.6-.919-2.457a1.724,1.724,0,0,1,1.868-.913,4.536,4.536,0,0,1,1.986,1,59.665,59.665,0,0,1,7.456,7.057l4.179,3.875a58.53,58.53,0,0,0,10.686,12.316c3.577,3.166,7.7,5.675,11.242,8.879s6.581,7.357,7.007,12.115Z" transform="translate(-293.328 -288.701)" fill="#9e4950"/>
                <path id="Trazado_1014125" data-name="Trazado 1014125" d="M302.855,313.178c-2.143-2.051-4.758-3.543-7.138-5.314a3.9,3.9,0,0,1-1.2-1.206,1.335,1.335,0,0,1,.159-1.585c.544-.487,1.4-.227,2.059.087a28.2,28.2,0,0,1,4.487,2.715,53.7,53.7,0,0,1-6.985-6.46,3.957,3.957,0,0,1-.817-1.283,1.485,1.485,0,0,1,.223-1.445,1.47,1.47,0,0,1,1.248-.406,3.772,3.772,0,0,1,1.279.447,45.189,45.189,0,0,1,7.679,5.488c-2.449-2.267-4.9-4.534-7.244-6.908a5.106,5.106,0,0,1-1.292-1.768,1.793,1.793,0,0,1,.446-2.013,1.765,1.765,0,0,1,1.509-.219,4.945,4.945,0,0,1,1.4.71,59.455,59.455,0,0,1,8.132,6.352l-7.216-8.278c-.606-.7-1.253-1.6-.919-2.457a1.724,1.724,0,0,1,1.868-.913,4.537,4.537,0,0,1,1.986.995,59.671,59.671,0,0,1,7.456,7.057" transform="translate(-293.328 -288.701)" fill="none" stroke="#2e2854" stroke-linecap="round" stroke-linejoin="round" stroke-miterlimit="10" stroke-width="1.5"/>
                <path id="Trazado_1014126" data-name="Trazado 1014126" d="M334.791,312.487A58.532,58.532,0,0,0,345.477,324.8c3.577,3.166,7.7,5.675,11.242,8.879s6.581,7.357,7.007,12.115" transform="translate(-313.965 -300.54)" fill="none" stroke="#2e2854" stroke-linecap="round" stroke-linejoin="round" stroke-miterlimit="10" stroke-width="1.5"/>
              </g>
            </g>
            <g id="Grupo_1161084" data-name="Grupo 1161084" transform="translate(24.923)">
              <g id="Grupo_1161072" data-name="Grupo 1161072" transform="translate(30.593 70.031)">
                <path id="Trazado_1014127" data-name="Trazado 1014127" d="M294.069,222.061q-.015,5.211-.029,10.422s11.429-.481,10.885-.195q-.49-5.751-.982-11.5Z" transform="translate(-294.04 -220.786)" fill="#9e4950"/>
                <path id="Trazado_1014128" data-name="Trazado 1014128" d="M304.416,226.114q-.227-2.663-.455-5.327l-9.875,1.274q-.006,2.079-.012,4.157A40.346,40.346,0,0,0,304.416,226.114Z" transform="translate(-294.057 -220.786)" fill="#2e2854" opacity="0.15"/>
              </g>
              <g id="Grupo_1161074" data-name="Grupo 1161074" transform="translate(7.266)">
                <g id="Grupo_1161073" data-name="Grupo 1161073" transform="translate(20.983)">
                  <path id="Trazado_1014129" data-name="Trazado 1014129" d="M291.338,100.27a11.65,11.65,0,0,1-1.3-10.4,12.774,12.774,0,0,1,10.827-8.486A11.73,11.73,0,0,1,312.4,88.591a10.853,10.853,0,0,1-4.223,12.752Z" transform="translate(-289.373 -81.357)" fill="#654687"/>
                  <path id="Trazado_1014130" data-name="Trazado 1014130" d="M289.988,109.825a10.49,10.49,0,0,0,1.655,3.715l16.836,1.074a9.641,9.641,0,0,0,2.719-2.521A21.5,21.5,0,0,0,289.988,109.825Z" transform="translate(-289.679 -94.627)" fill="#2e2854" opacity="0.15"/>
                </g>
                <path id="Trazado_1014131" data-name="Trazado 1014131" d="M297.014,147.9a25.405,25.405,0,0,0,.894-20.141,23.682,23.682,0,0,0-14.592-13.78,22.189,22.189,0,0,0-19.708,3.248,15.132,15.132,0,0,0-11.485,4.307,17.492,17.492,0,0,0-4.47,10.953c-.277,4.015.5,8.035,1.719,12.925C265.6,148.58,282.353,151.744,297.014,147.9Z" transform="translate(-247.596 -97.093)" fill="#654687"/>
              </g>
              <g id="Grupo_1161083" data-name="Grupo 1161083" transform="translate(0 33.051)">
                <g id="Grupo_1161076" data-name="Grupo 1161076" transform="translate(0 10.487)">
                  <path id="Trazado_1014132" data-name="Trazado 1014132" d="M246.263,170.869a7.277,7.277,0,0,0-13.085,5.29,8.874,8.874,0,0,0,5.253,7.165c3,1.268,6.968.594,8.923-1.82Z" transform="translate(-233.131 -168.041)" fill="#9e4950"/>
                  <g id="Grupo_1161075" data-name="Grupo 1161075" transform="translate(3.806 5.041)">
                    <path id="Trazado_1014133" data-name="Trazado 1014133" d="M240.708,180.25a7.859,7.859,0,0,1,5.972-2.151" transform="translate(-240.708 -178.077)" fill="none" stroke="#2e2854" stroke-linecap="round" stroke-linejoin="round" stroke-miterlimit="10" stroke-width="1.5"/>
                    <path id="Trazado_1014134" data-name="Trazado 1014134" d="M247.688,183.339a8.644,8.644,0,0,1-1.589-4.285" transform="translate(-243.391 -178.563)" fill="none" stroke="#2e2854" stroke-linecap="round" stroke-linejoin="round" stroke-miterlimit="10" stroke-width="1.5"/>
                  </g>
                  <path id="Trazado_1014135" data-name="Trazado 1014135" d="M249.032,197.389a1.334,1.334,0,1,0,.631,1.9A1.344,1.344,0,0,0,249.032,197.389Z" transform="translate(-240.129 -182.601)" fill="#f7a145"/>
                </g>
                <g id="Grupo_1161078" data-name="Grupo 1161078" transform="translate(52.98 11.178)">
                  <path id="Trazado_1014136" data-name="Trazado 1014136" d="M339.982,172.09a7.277,7.277,0,0,1,12.942,5.63,8.874,8.874,0,0,1-5.438,7.025c-3.029,1.189-6.981.412-8.873-2.053Z" transform="translate(-338.613 -169.415)" fill="#9e4950"/>
                  <g id="Grupo_1161077" data-name="Grupo 1161077" transform="translate(4.663 4.988)">
                    <path id="Trazado_1014137" data-name="Trazado 1014137" d="M353.812,181.661a7.86,7.86,0,0,0-5.915-2.306" transform="translate(-347.897 -179.346)" fill="none" stroke="#2e2854" stroke-linecap="round" stroke-linejoin="round" stroke-miterlimit="10" stroke-width="1.5"/>
                    <path id="Trazado_1014138" data-name="Trazado 1014138" d="M350.987,184.71a8.64,8.64,0,0,0,1.7-4.242" transform="translate(-349.435 -179.904)" fill="none" stroke="#2e2854" stroke-linecap="round" stroke-linejoin="round" stroke-miterlimit="10" stroke-width="1.5"/>
                  </g>
                  <path id="Trazado_1014139" data-name="Trazado 1014139" d="M348.3,198.684a1.333,1.333,0,1,1-.681,1.885A1.343,1.343,0,0,1,348.3,198.684Z" transform="translate(-343.018 -183.942)" fill="#f7a145"/>
                </g>
                <g id="Grupo_1161082" data-name="Grupo 1161082" transform="translate(11.763)">
                  <path id="Trazado_1014140" data-name="Trazado 1014140" d="M299.846,157.177c-.038,5.072-.162,10.207-1.509,15.1s-4.057,9.581-8.3,12.355c-4.6,3.005-10.589,3.426-15.875,1.921a24.585,24.585,0,0,1-13.714-10.1,24.064,24.064,0,0,1-3.614-16.75,20.132,20.132,0,0,1,2.295-6.8c1.289-2.032,3.538-3.633,5.938-3.456,2.647.2,4.722,2.4,7.294,3.057,2.653.676,5.432-.388,7.835-1.7s4.726-2.919,7.412-3.454a10.062,10.062,0,0,1,8.335,2.149A10.6,10.6,0,0,1,299.846,157.177Z" transform="translate(-256.55 -147.161)" fill="#9e4950"/>
                  <g id="Grupo_1161079" data-name="Grupo 1161079" transform="translate(5.285 27.675)">
                    <path id="Trazado_1014141" data-name="Trazado 1014141" d="M274.307,211.9a5.146,5.146,0,0,0,2.264-2.386,5.119,5.119,0,0,0-7.256-6.508,5.188,5.188,0,0,0-2.243,2.814A24.724,24.724,0,0,0,274.307,211.9Z" transform="translate(-267.072 -202.3)" fill="#b35b62"/>
                    <path id="Trazado_1014142" data-name="Trazado 1014142" d="M324.968,205.719A5.164,5.164,0,0,0,322.849,203a5.11,5.11,0,1,0-4.042,9.264c.114-.07.231-.135.343-.208A18.477,18.477,0,0,0,324.968,205.719Z" transform="translate(-290.954 -202.261)" fill="#b35b62"/>
                  </g>
                  <path id="Trazado_1014143" data-name="Trazado 1014143" d="M295.8,178.077a31.316,31.316,0,0,0-.463,3.356,11.923,11.923,0,0,0,2.684-.169" transform="translate(-275.858 -162.549)" fill="none" stroke="#2e2854" stroke-linecap="round" stroke-linejoin="round" stroke-miterlimit="10" stroke-width="1.5"/>
                  <path id="Trazado_1014144" data-name="Trazado 1014144" d="M285.635,193.759a28.883,28.883,0,0,0,13.447-2.308" transform="translate(-271.027 -169.205)" fill="none" stroke="#2e2854" stroke-linecap="round" stroke-linejoin="round" stroke-miterlimit="10" stroke-width="1.5"/>
                  <g id="Grupo_1161081" data-name="Grupo 1161081" transform="translate(1.564 5.639)">
                    <path id="Trazado_1014145" data-name="Trazado 1014145" d="M270.591,175.177a4.082,4.082,0,0,1,6.573-.049" transform="translate(-265.103 -165.905)" fill="none" stroke="#2e2854" stroke-linecap="round" stroke-linejoin="round" stroke-miterlimit="10" stroke-width="1.5"/>
                    <path id="Trazado_1014146" data-name="Trazado 1014146" d="M325.247,174.266a4.082,4.082,0,0,0-6.57-.22" transform="translate(-289.037 -165.408)" fill="none" stroke="#2e2854" stroke-linecap="round" stroke-linejoin="round" stroke-miterlimit="10" stroke-width="1.5"/>
                    <g id="Grupo_1161080" data-name="Grupo 1161080">
                      <path id="Trazado_1014147" data-name="Trazado 1014147" d="M293.727,174.527a4.67,4.67,0,0,1,3.013-1.151,4.608,4.608,0,0,1,3.37,1.493" transform="translate(-276.619 -165.848)" fill="none" stroke="#f7a145" stroke-linecap="round" stroke-linejoin="round" stroke-miterlimit="10" stroke-width="3"/>
                      <path id="Trazado_1014148" data-name="Trazado 1014148" d="M273.319,160.954c-7.411-5.687-18.2,4.521-11.606,12.147C269.469,182.079,283.238,168.565,273.319,160.954Z" transform="translate(-259.665 -158.842)" fill="none" stroke="#f7a145" stroke-linecap="round" stroke-linejoin="round" stroke-miterlimit="10" stroke-width="3"/>
                      <path id="Trazado_1014149" data-name="Trazado 1014149" d="M309.9,159.918c7.557-5.491,18.072,4.995,11.284,12.446C313.2,181.135,299.788,167.267,309.9,159.918Z" transform="translate(-282.864 -158.387)" fill="none" stroke="#f7a145" stroke-linecap="round" stroke-linejoin="round" stroke-miterlimit="10" stroke-width="3"/>
                    </g>
                  </g>
                </g>
              </g>
            </g>
          </g>
        </g>
        <g id="Grupo_1161095" data-name="Grupo 1161095" transform="translate(0)">
          <path id="Trazado_1014151" data-name="Trazado 1014151" d="M533.39,463.646a2.726,2.726,0,0,0-3.554.533,2.687,2.687,0,0,0,.336,3.566,2.607,2.607,0,1,0,3.218-4.1Z" transform="translate(-290.447 -246.672)" fill="#f2d3e8"/>
          <path id="Trazado_1014152" data-name="Trazado 1014152" d="M44.2,421.633a2.726,2.726,0,0,0-3.554.533,2.687,2.687,0,0,0,.336,3.566,2.607,2.607,0,1,0,3.218-4.1Z" transform="translate(23.306 -300.522)" fill="#f2d3e8"/>
          <path id="Trazado_1014153" data-name="Trazado 1014153" d="M510.745,36.357a2.726,2.726,0,0,0-3.554.533,2.687,2.687,0,0,0,.335,3.566,2.607,2.607,0,1,0,3.218-4.1Z" transform="translate(-317.854 48.494)" fill="#f2d3e8"/>
          <path id="Trazado_1014154" data-name="Trazado 1014154" d="M69.307,33.287a4.5,4.5,0,1,0,1.206,4.608A4.571,4.571,0,0,0,69.307,33.287Z" transform="translate(-57.714 -32.086)" fill="#f2d3e8"/>
          <path id="Trazado_1014155" data-name="Trazado 1014155" d="M559.861,419.354a4.5,4.5,0,1,0,1.206,4.608A4.571,4.571,0,0,0,559.861,419.354Z" transform="translate(-301.879 -224.245)" fill="#f2d3e8"/>
          <path id="Trazado_1014156" data-name="Trazado 1014156" d="M85.733,270.662a4.5,4.5,0,1,0,1.206,4.608A4.569,4.569,0,0,0,85.733,270.662Z" transform="translate(-25.278 -145.749)" fill="#fff"/>
          <g id="Grupo_1161087" data-name="Grupo 1161087" transform="translate(96.395 137.571)">
            <path id="Trazado_1014157" data-name="Trazado 1014157" d="M249.932,305.987q-.041,2.083-.08,4.167" transform="translate(-247.746 -305.987)" fill="none" stroke="#2e2854" stroke-linecap="round" stroke-linejoin="round" stroke-miterlimit="10" stroke-width="1.5"/>
            <line id="Lnea_984" data-name="Lnea 984" y1="0.096" x2="4.15" transform="translate(0 1.926)" fill="none" stroke="#2e2854" stroke-linecap="round" stroke-linejoin="round" stroke-miterlimit="10" stroke-width="1.5"/>
          </g>
          <g id="Grupo_1161088" data-name="Grupo 1161088" transform="translate(141.058 16.863)">
            <path id="Trazado_1014158" data-name="Trazado 1014158" d="M338.856,65.659q-.041,2.083-.08,4.167" transform="translate(-336.67 -65.659)" fill="none" stroke="#2e2854" stroke-linecap="round" stroke-linejoin="round" stroke-miterlimit="10" stroke-width="1.5"/>
            <line id="Lnea_985" data-name="Lnea 985" y1="0.096" x2="4.15" transform="translate(0 1.926)" fill="none" stroke="#2e2854" stroke-linecap="round" stroke-linejoin="round" stroke-miterlimit="10" stroke-width="1.5"/>
          </g>
          <path id="Trazado_1014159" data-name="Trazado 1014159" d="M541.036,62.572a1.561,1.561,0,1,0,1.247,2.116A1.545,1.545,0,0,0,541.036,62.572Z" transform="translate(-371.274 32.217)" fill="#f2d3e8"/>
          <path id="Trazado_1014160" data-name="Trazado 1014160" d="M120.891,37.932a1.561,1.561,0,1,0,1.247,2.116A1.545,1.545,0,0,0,120.891,37.932Z" transform="translate(-86.285 -34.99)" fill="#f2d3e8"/>
          <path id="Trazado_1014161" data-name="Trazado 1014161" d="M55.5,66.721a1.561,1.561,0,1,0,1.247,2.116A1.545,1.545,0,0,0,55.5,66.721Z" transform="translate(-53.74 -49.319)" fill="#f2d3e8"/>
          <path id="Trazado_1014162" data-name="Trazado 1014162" d="M72.429,462.122a1.561,1.561,0,1,0,1.247,2.116A1.545,1.545,0,0,0,72.429,462.122Z" transform="translate(4.232 -382.414)" fill="#f2d3e8"/>
          <path id="Trazado_1014163" data-name="Trazado 1014163" d="M176.233,430.669a1.561,1.561,0,1,0,1.247,2.116A1.545,1.545,0,0,0,176.233,430.669Z" transform="translate(-118.662 -288.918)" fill="#fff"/>
          <path id="Trazado_1014164" data-name="Trazado 1014164" d="M537.491,304.121a1.561,1.561,0,1,0,1.247,2.116A1.545,1.545,0,0,0,537.491,304.121Z" transform="translate(-293.641 -167.481)" fill="#fff"/>
          <path id="Trazado_1014165" data-name="Trazado 1014165" d="M505.332,382.112a1.561,1.561,0,1,0,1.247,2.116A1.545,1.545,0,0,0,505.332,382.112Z" transform="translate(-316.312 -236.597)" fill="#fff"/>
          <path id="Trazado_1014166" data-name="Trazado 1014166" d="M505.169,113.531a1.561,1.561,0,1,0,1.247,2.116A1.545,1.545,0,0,0,505.169,113.531Z" transform="translate(-330.22 -9.709)" fill="#fff"/>
          <g id="Grupo_1161089" data-name="Grupo 1161089" transform="translate(152.19 121.629)">
            <path id="Trazado_1014167" data-name="Trazado 1014167" d="M361.019,274.246q-.041,2.083-.08,4.167" transform="translate(-358.833 -274.246)" fill="none" stroke="#fff" stroke-linecap="round" stroke-linejoin="round" stroke-miterlimit="10" stroke-width="1.5"/>
            <line id="Lnea_986" data-name="Lnea 986" y1="0.096" x2="4.15" transform="translate(0 1.926)" fill="none" stroke="#fff" stroke-linecap="round" stroke-linejoin="round" stroke-miterlimit="10" stroke-width="1.5"/>
          </g>
          <g id="Grupo_1161090" data-name="Grupo 1161090" transform="translate(134.716 48.786)">
            <path id="Trazado_1014168" data-name="Trazado 1014168" d="M326.227,129.217q-.041,2.083-.08,4.167" transform="translate(-324.041 -129.217)" fill="none" stroke="#fff" stroke-linecap="round" stroke-linejoin="round" stroke-miterlimit="10" stroke-width="1.5"/>
            <line id="Lnea_987" data-name="Lnea 987" y1="0.096" x2="4.149" transform="translate(0 1.926)" fill="none" stroke="#fff" stroke-linecap="round" stroke-linejoin="round" stroke-miterlimit="10" stroke-width="1.5"/>
          </g>
          <g id="Grupo_1161091" data-name="Grupo 1161091" transform="translate(90.201 40.633)">
            <path id="Trazado_1014169" data-name="Trazado 1014169" d="M237.6,112.985q-.041,2.084-.081,4.167" transform="translate(-235.414 -112.985)" fill="none" stroke="#fff" stroke-linecap="round" stroke-linejoin="round" stroke-miterlimit="10" stroke-width="1.5"/>
            <line id="Lnea_988" data-name="Lnea 988" y1="0.096" x2="4.15" transform="translate(0 1.926)" fill="none" stroke="#fff" stroke-linecap="round" stroke-linejoin="round" stroke-miterlimit="10" stroke-width="1.5"/>
          </g>
          <g id="Grupo_1161092" data-name="Grupo 1161092" transform="translate(214.682 138.912)">
            <path id="Trazado_1014170" data-name="Trazado 1014170" d="M485.437,308.657q-.041,2.083-.081,4.167" transform="translate(-483.251 -308.657)" fill="none" stroke="#2e2854" stroke-linecap="round" stroke-linejoin="round" stroke-miterlimit="10" stroke-width="1.5"/>
            <line id="Lnea_989" data-name="Lnea 989" y1="0.096" x2="4.149" transform="translate(0 1.926)" fill="none" stroke="#2e2854" stroke-linecap="round" stroke-linejoin="round" stroke-miterlimit="10" stroke-width="1.5"/>
          </g>
          <g id="Grupo_1161093" data-name="Grupo 1161093" transform="translate(66.449 95.807)">
            <path id="Trazado_1014171" data-name="Trazado 1014171" d="M190.31,222.835q-.041,2.083-.081,4.167" transform="translate(-188.124 -222.835)" fill="none" stroke="#2e2854" stroke-linecap="round" stroke-linejoin="round" stroke-miterlimit="10" stroke-width="1.5"/>
            <line id="Lnea_990" data-name="Lnea 990" y1="0.096" x2="4.15" transform="translate(0 1.926)" fill="none" stroke="#2e2854" stroke-linecap="round" stroke-linejoin="round" stroke-miterlimit="10" stroke-width="1.5"/>
          </g>
          <g id="Grupo_1161094" data-name="Grupo 1161094" transform="translate(171.111 82.809)">
            <path id="Trazado_1014172" data-name="Trazado 1014172" d="M430.775,116.1q-.041,2.083-.08,4.167" transform="translate(-428.589 -116.101)" fill="none" stroke="#2e2854" stroke-linecap="round" stroke-linejoin="round" stroke-miterlimit="10" stroke-width="1.5"/>
            <line id="Lnea_991" data-name="Lnea 991" y1="0.096" x2="4.149" transform="translate(0 1.926)" fill="none" stroke="#2e2854" stroke-linecap="round" stroke-linejoin="round" stroke-miterlimit="10" stroke-width="1.5"/>
          </g>
          <path id="Trazado_1014173" data-name="Trazado 1014173" d="M420.721,433a1.363,1.363,0,1,0-1.363,1.363A1.363,1.363,0,0,0,420.721,433Z" transform="translate(-235.042 -230.953)" fill="none" stroke="#2e2854" stroke-linecap="round" stroke-linejoin="round" stroke-miterlimit="10" stroke-width="1.5"/>
          <circle id="Elipse_11820" data-name="Elipse 11820" cx="1.363" cy="1.363" r="1.363" transform="translate(51.509 105.367)" fill="none" stroke="#2e2854" stroke-linecap="round" stroke-linejoin="round" stroke-miterlimit="10" stroke-width="1.5"/>
          <circle id="Elipse_11821" data-name="Elipse 11821" cx="1.363" cy="1.363" r="1.363" transform="translate(253.527 210.146)" fill="none" stroke="#2e2854" stroke-linecap="round" stroke-linejoin="round" stroke-miterlimit="10" stroke-width="1.5"/>
          <circle id="Elipse_11822" data-name="Elipse 11822" cx="1.363" cy="1.363" r="1.363" transform="translate(66.079 12.478)" fill="none" stroke="#2e2854" stroke-linecap="round" stroke-linejoin="round" stroke-miterlimit="10" stroke-width="1.5"/>
          <circle id="Elipse_11823" data-name="Elipse 11823" cx="1.363" cy="1.363" r="1.363" transform="translate(196.788 104.004)" fill="none" stroke="#2e2854" stroke-linecap="round" stroke-linejoin="round" stroke-miterlimit="10" stroke-width="1.5"/>
        </g>
      </g>
    </g>
  </g>
</svg>
