<svg xmlns="http://www.w3.org/2000/svg" xmlns:xlink="http://www.w3.org/1999/xlink" width="1039" height="558.064" viewBox="0 0 1039 558.064">
  <defs>
    <filter id="Rectángulo_409638" x="630" y="156.592" width="363.427" height="112.032" filterUnits="userSpaceOnUse">
      <feOffset dy="3" input="SourceAlpha"/>
      <feGaussianBlur stdDeviation="3" result="blur"/>
      <feFlood flood-opacity="0.161"/>
      <feComposite operator="in" in2="blur"/>
      <feComposite in="SourceGraphic"/>
    </filter>
    <filter id="Rectángulo_409638-2" x="630" y="299.453" width="363.427" height="112.032" filterUnits="userSpaceOnUse">
      <feOffset dy="3" input="SourceAlpha"/>
      <feGaussianBlur stdDeviation="3" result="blur-2"/>
      <feFlood flood-opacity="0.161"/>
      <feComposite operator="in" in2="blur-2"/>
      <feComposite in="SourceGraphic"/>
    </filter>
    <filter id="Rectángulo_409638-3" x="630" y="442.313" width="363.427" height="112.032" filterUnits="userSpaceOnUse">
      <feOffset dy="3" input="SourceAlpha"/>
      <feGaussianBlur stdDeviation="3" result="blur-3"/>
      <feFlood flood-opacity="0.161"/>
      <feComposite operator="in" in2="blur-3"/>
      <feComposite in="SourceGraphic"/>
    </filter>
    <filter id="Rectángulo_409638-4" x="630" y="13.731" width="363.427" height="112.032" filterUnits="userSpaceOnUse">
      <feOffset dy="3" input="SourceAlpha"/>
      <feGaussianBlur stdDeviation="3" result="blur-4"/>
      <feFlood flood-opacity="0.161"/>
      <feComposite operator="in" in2="blur-4"/>
      <feComposite in="SourceGraphic"/>
    </filter>
    <filter id="Trazado_1015924" x="0" y="14.162" width="628" height="111.169" filterUnits="userSpaceOnUse">
      <feOffset dy="3" input="SourceAlpha"/>
      <feGaussianBlur stdDeviation="3" result="blur-5"/>
      <feFlood flood-opacity="0.161"/>
      <feComposite operator="in" in2="blur-5"/>
      <feComposite in="SourceGraphic"/>
    </filter>
    <filter id="Trazado_1015926" x="0" y="156.034" width="628" height="111.169" filterUnits="userSpaceOnUse">
      <feOffset dy="3" input="SourceAlpha"/>
      <feGaussianBlur stdDeviation="3" result="blur-6"/>
      <feFlood flood-opacity="0.161"/>
      <feComposite operator="in" in2="blur-6"/>
      <feComposite in="SourceGraphic"/>
    </filter>
    <filter id="Trazado_1015928" x="0" y="297.906" width="628" height="111.169" filterUnits="userSpaceOnUse">
      <feOffset dy="3" input="SourceAlpha"/>
      <feGaussianBlur stdDeviation="3" result="blur-7"/>
      <feFlood flood-opacity="0.161"/>
      <feComposite operator="in" in2="blur-7"/>
      <feComposite in="SourceGraphic"/>
    </filter>
    <filter id="Trazado_1015930" x="0" y="440.739" width="628" height="111.169" filterUnits="userSpaceOnUse">
      <feOffset dy="3" input="SourceAlpha"/>
      <feGaussianBlur stdDeviation="3" result="blur-8"/>
      <feFlood flood-opacity="0.161"/>
      <feComposite operator="in" in2="blur-8"/>
      <feComposite in="SourceGraphic"/>
    </filter>
  </defs>
  <g id="Grupo_1162723" data-name="Grupo 1162723" transform="translate(-276 -3035)">
    <path id="Trazado_991830" data-name="Trazado 991830" d="M17.31,0V354.088" transform="translate(1039.088 3084.437) rotate(90)" fill="none" stroke="#707070" stroke-linecap="round" stroke-width="3" stroke-dasharray="1 10"/>
    <path id="Trazado_1014178" data-name="Trazado 1014178" d="M159.182,0V354.088" transform="translate(1039.088 3084.437) rotate(90)" fill="none" stroke="#707070" stroke-linecap="round" stroke-width="3" stroke-dasharray="1 10"/>
    <path id="Trazado_1014179" data-name="Trazado 1014179" d="M301.026,0V354.088" transform="translate(1039.088 3084.437) rotate(90)" fill="none" stroke="#707070" stroke-linecap="round" stroke-width="3" stroke-dasharray="1 10"/>
    <path id="Trazado_1014180" data-name="Trazado 1014180" d="M444.9,0V354.088" transform="translate(1039.088 3084.437) rotate(90)" fill="none" stroke="#707070" stroke-linecap="round" stroke-width="3" stroke-dasharray="1 10"/>
    <g id="Grupo_1162335" data-name="Grupo 1162335" transform="translate(1077.441 3138.6)">
      <g transform="matrix(1, 0, 0, 1, -801.44, -103.6)" filter="url(#Rectángulo_409638)">
        <rect id="Rectángulo_409638-5" data-name="Rectángulo 409638" width="345.427" height="94.032" rx="15" transform="translate(639 162.59)" fill="#f9e6c3"/>
      </g>
      <path id="Trazado_991350" data-name="Trazado 991350" d="M260.4,227.706H180.473L247.9,292.448l-67.426,64.739H260.4l67.43-64.739Z" transform="translate(-90.27 -188.445)" fill="#f9e6c3"/>
    </g>
    <path id="Contenido" d="M69.7,13.033A5.281,5.281,0,0,1,65.99,14.36,5.588,5.588,0,0,1,61.6,12.567,7.177,7.177,0,0,1,60,7.628,7.115,7.115,0,0,1,61.815,2.4a6.151,6.151,0,0,1,8.807.545,4.643,4.643,0,0,1,.9,2.417H68.811a3.656,3.656,0,0,0-.677-1.406,2.753,2.753,0,0,0-2.188-.844A2.713,2.713,0,0,0,63.617,4.3a5.725,5.725,0,0,0-.853,3.371,5.025,5.025,0,0,0,.9,3.265,2.847,2.847,0,0,0,2.29,1.085,2.619,2.619,0,0,0,2.171-.932,4.047,4.047,0,0,0,.686-1.5h2.681A5.826,5.826,0,0,1,69.7,13.033Zm8.473-6.3a2.078,2.078,0,0,0-2.03.984,3.829,3.829,0,0,0-.29,1.705V14H73.329V4.42h2.391V6.09A5.3,5.3,0,0,1,76.73,4.78a2.752,2.752,0,0,1,1.828-.589q.07,0,.119,0l.215.013V6.775q-.237-.026-.422-.035T78.171,6.731ZM88.56,11.188a3.178,3.178,0,0,1-.888,1.731,4.349,4.349,0,0,1-3.445,1.4A4.858,4.858,0,0,1,81,13.139a4.75,4.75,0,0,1-1.4-3.832,5.326,5.326,0,0,1,1.261-3.814,4.312,4.312,0,0,1,3.274-1.327,5.021,5.021,0,0,1,2.153.448,3.772,3.772,0,0,1,1.582,1.415A4.828,4.828,0,0,1,88.6,8.006a12.771,12.771,0,0,1,.079,1.9H82.127a2.381,2.381,0,0,0,.905,2.021,2.132,2.132,0,0,0,1.248.36,1.8,1.8,0,0,0,1.257-.439A2.087,2.087,0,0,0,86,11.188ZM86.082,8.252a2.181,2.181,0,0,0-.6-1.507,1.87,1.87,0,0,0-1.34-.514,1.7,1.7,0,0,0-1.349.545,2.72,2.72,0,0,0-.6,1.477Zm4.649-2.795a4.09,4.09,0,0,1,3.41-1.266,6.059,6.059,0,0,1,2.795.624,2.4,2.4,0,0,1,1.222,2.355v4.395q0,.457.018,1.107a1.392,1.392,0,0,0,.149.668.9.9,0,0,0,.369.29V14H95.969a2.79,2.79,0,0,1-.158-.545q-.044-.255-.07-.58a5.146,5.146,0,0,1-1.2.958,3.6,3.6,0,0,1-1.828.466,3.143,3.143,0,0,1-2.149-.743,2.649,2.649,0,0,1-.848-2.1,2.732,2.732,0,0,1,1.362-2.558,6.049,6.049,0,0,1,2.2-.615l.853-.105a3.91,3.91,0,0,0,.993-.22.753.753,0,0,0,.536-.712.845.845,0,0,0-.409-.813,2.553,2.553,0,0,0-1.2-.224,1.563,1.563,0,0,0-1.257.439,1.827,1.827,0,0,0-.352.879H90.028A3.676,3.676,0,0,1,90.731,5.457Zm1.863,6.732a1.309,1.309,0,0,0,.861.29A2.551,2.551,0,0,0,94.945,12a2.024,2.024,0,0,0,.708-1.731V9.342a2.722,2.722,0,0,1-.479.242,4.006,4.006,0,0,1-.664.171l-.562.105a3.632,3.632,0,0,0-1.134.343,1.149,1.149,0,0,0-.58,1.063A1.1,1.1,0,0,0,92.594,12.189Zm12.173.026v1.872l-1.187.044a3.184,3.184,0,0,1-2.426-.615,1.832,1.832,0,0,1-.422-1.327v-5.9H99.4V4.508h1.336V1.836h2.479V4.508h1.556V6.292h-1.556v5.063a1.14,1.14,0,0,0,.149.734,1.645,1.645,0,0,0,.914.145q.114,0,.242,0T104.767,12.216Zm4.184-7.8V14h-2.54V4.42Zm0-3.454V3.277h-2.54V.966Zm1.485,3.454h2.813l2,7.066,2.039-7.066h2.689L116.518,14h-2.646Zm13.526,0V14h-2.54V4.42Zm0-3.454V3.277h-2.54V.966Zm11.145.1V14h-2.435V12.673a3.533,3.533,0,0,1-1.222,1.239,3.43,3.43,0,0,1-1.705.387,3.56,3.56,0,0,1-2.826-1.358,5.215,5.215,0,0,1-1.147-3.485A6,6,0,0,1,126.9,5.6a3.674,3.674,0,0,1,3.019-1.406,3.09,3.09,0,0,1,1.547.382,3.043,3.043,0,0,1,1.1,1.059V1.063Zm-6.75,8.209a3.767,3.767,0,0,0,.527,2.118,1.756,1.756,0,0,0,1.582.8,1.849,1.849,0,0,0,1.617-.791,3.5,3.5,0,0,0,.554-2.048,3.141,3.141,0,0,0-.888-2.514,1.91,1.91,0,0,0-1.266-.457,1.759,1.759,0,0,0-1.613.831A3.848,3.848,0,0,0,128.357,9.271Zm9.387-3.814a4.09,4.09,0,0,1,3.41-1.266,6.059,6.059,0,0,1,2.795.624,2.4,2.4,0,0,1,1.222,2.355v4.395q0,.457.018,1.107a1.392,1.392,0,0,0,.149.668.9.9,0,0,0,.369.29V14h-2.725a2.79,2.79,0,0,1-.158-.545q-.044-.255-.07-.58a5.146,5.146,0,0,1-1.2.958,3.6,3.6,0,0,1-1.828.466,3.143,3.143,0,0,1-2.149-.743,2.649,2.649,0,0,1-.848-2.1A2.732,2.732,0,0,1,138.1,8.894a6.049,6.049,0,0,1,2.2-.615l.853-.105a3.91,3.91,0,0,0,.993-.22.753.753,0,0,0,.536-.712.845.845,0,0,0-.409-.813,2.553,2.553,0,0,0-1.2-.224,1.563,1.563,0,0,0-1.257.439,1.827,1.827,0,0,0-.352.879h-2.417A3.676,3.676,0,0,1,137.744,5.457Zm1.863,6.732a1.309,1.309,0,0,0,.861.29,2.551,2.551,0,0,0,1.49-.475,2.024,2.024,0,0,0,.708-1.731V9.342a2.722,2.722,0,0,1-.479.242,4.006,4.006,0,0,1-.664.171l-.562.105a3.632,3.632,0,0,0-1.134.343,1.149,1.149,0,0,0-.58,1.063A1.1,1.1,0,0,0,139.607,12.189ZM156.113,1.063V14h-2.435V12.673a3.533,3.533,0,0,1-1.222,1.239,3.43,3.43,0,0,1-1.705.387,3.56,3.56,0,0,1-2.826-1.358,5.215,5.215,0,0,1-1.147-3.485A6,6,0,0,1,147.908,5.6a3.674,3.674,0,0,1,3.019-1.406,3.09,3.09,0,0,1,1.547.382,3.043,3.043,0,0,1,1.1,1.059V1.063Zm-6.75,8.209a3.767,3.767,0,0,0,.527,2.118,1.756,1.756,0,0,0,1.582.8,1.849,1.849,0,0,0,1.617-.791,3.5,3.5,0,0,0,.554-2.048,3.141,3.141,0,0,0-.888-2.514,1.91,1.91,0,0,0-1.266-.457,1.759,1.759,0,0,0-1.613.831A3.848,3.848,0,0,0,149.363,9.271Z" transform="translate(973.093 3232.119)" fill="#212429"/>
    <g id="Grupo_1162336" data-name="Grupo 1162336" transform="translate(1077.441 3281.461)">
      <g transform="matrix(1, 0, 0, 1, -801.44, -246.46)" filter="url(#Rectángulo_409638-2)">
        <rect id="Rectángulo_409638-6" data-name="Rectángulo 409638" width="345.427" height="94.032" rx="15" transform="translate(639 305.45)" fill="#f7ddd5"/>
      </g>
      <path id="Trazado_991350-2" data-name="Trazado 991350" d="M260.4,227.706H180.473L247.9,292.448l-67.426,64.739H260.4l67.43-64.739Z" transform="translate(-90.27 -188.445)" fill="#f7ddd5"/>
    </g>
    <path id="Contenido-2" data-name="Contenido" d="M60.273,12.128a4.767,4.767,0,0,0,1.556-.211,1.5,1.5,0,0,0,1.134-1.5,1.109,1.109,0,0,0-.562-.993,6.049,6.049,0,0,0-1.767-.606l-1.371-.308a8.664,8.664,0,0,1-2.795-.993,3.159,3.159,0,0,1-1.31-2.8,3.744,3.744,0,0,1,1.266-2.892A5.351,5.351,0,0,1,60.141.667a5.653,5.653,0,0,1,3.494,1.085A3.876,3.876,0,0,1,65.15,4.9h-2.6a1.858,1.858,0,0,0-1.02-1.661,3.419,3.419,0,0,0-1.573-.325,2.937,2.937,0,0,0-1.67.422,1.343,1.343,0,0,0-.624,1.178,1.115,1.115,0,0,0,.615,1.037,7.531,7.531,0,0,0,1.688.536l2.232.536a5.772,5.772,0,0,1,2.215.94,3.168,3.168,0,0,1,1.16,2.646,3.734,3.734,0,0,1-1.358,2.949,5.689,5.689,0,0,1-3.836,1.173A6.223,6.223,0,0,1,56.4,13.178,3.841,3.841,0,0,1,54.946,10H57.53a2.66,2.66,0,0,0,.483,1.327A2.781,2.781,0,0,0,60.273,12.128Zm15.3-.94a3.178,3.178,0,0,1-.888,1.731,4.349,4.349,0,0,1-3.445,1.4,4.858,4.858,0,0,1-3.226-1.178,4.75,4.75,0,0,1-1.4-3.832,5.326,5.326,0,0,1,1.261-3.814,4.312,4.312,0,0,1,3.274-1.327,5.021,5.021,0,0,1,2.153.448,3.772,3.772,0,0,1,1.582,1.415,4.828,4.828,0,0,1,.729,1.978A12.771,12.771,0,0,1,75.7,9.9H69.141a2.381,2.381,0,0,0,.905,2.021,2.132,2.132,0,0,0,1.248.36,1.8,1.8,0,0,0,1.257-.439,2.087,2.087,0,0,0,.466-.659ZM73.1,8.252a2.181,2.181,0,0,0-.6-1.507,1.87,1.87,0,0,0-1.34-.514,1.7,1.7,0,0,0-1.349.545,2.72,2.72,0,0,0-.6,1.477Zm7,7.427a2.117,2.117,0,0,0,1.362.343,1.83,1.83,0,0,0,1.811-.905,4.585,4.585,0,0,0,.3-1.951V12.55a3.055,3.055,0,0,1-.773.923,3.11,3.11,0,0,1-1.942.571,3.676,3.676,0,0,1-2.949-1.3,5.241,5.241,0,0,1-1.1-3.511,5.919,5.919,0,0,1,1.063-3.59,3.514,3.514,0,0,1,3.015-1.455,3.3,3.3,0,0,1,1.257.22A3.01,3.01,0,0,1,83.607,5.8V4.42h2.435v9.088a5.09,5.09,0,0,1-.624,2.795Q84.346,17.92,81.3,17.92a5.6,5.6,0,0,1-3-.721,2.659,2.659,0,0,1-1.283-2.153h2.725A1.128,1.128,0,0,0,80.092,15.679ZM79.67,10.73A1.833,1.833,0,0,0,81.5,11.943a1.935,1.935,0,0,0,1.485-.664,3.072,3.072,0,0,0,.606-2.114,3.235,3.235,0,0,0-.576-2.074,1.882,1.882,0,0,0-1.542-.712,1.818,1.818,0,0,0-1.819,1.239,4.395,4.395,0,0,0-.264,1.626A3.71,3.71,0,0,0,79.67,10.73Zm14.854,1.916q-.035.044-.176.264a1.764,1.764,0,0,1-.334.387,3.488,3.488,0,0,1-1.138.721,3.879,3.879,0,0,1-1.288.193,2.87,2.87,0,0,1-2.865-1.529,5.852,5.852,0,0,1-.413-2.487V4.42h2.566v5.774a3.023,3.023,0,0,0,.193,1.23,1.338,1.338,0,0,0,1.345.729,1.758,1.758,0,0,0,1.758-1.037,3.754,3.754,0,0,0,.246-1.485V4.42h2.54V14H94.523ZM101.95,4.42V14H99.41V4.42Zm0-3.454V3.277H99.41V.966Zm7.8,6.091a1.227,1.227,0,0,0-1.239-.694,1.479,1.479,0,0,0-1.441.694,2.675,2.675,0,0,0-.2,1.178V14h-2.54V4.438h2.435v1.4a4.031,4.031,0,0,1,.879-1.063,3.478,3.478,0,0,1,3.665-.079,2.812,2.812,0,0,1,.826,1.151A3.185,3.185,0,0,1,113.358,4.6a3.728,3.728,0,0,1,1.723-.4,3.335,3.335,0,0,1,1.248.246,2.784,2.784,0,0,1,1.116.861,2.752,2.752,0,0,1,.545,1.23,8.5,8.5,0,0,1,.088,1.415L118.061,14h-2.566V7.9a2,2,0,0,0-.176-.9,1.249,1.249,0,0,0-1.23-.668,1.44,1.44,0,0,0-1.433.861,2.7,2.7,0,0,0-.2,1.1V14h-2.522V8.3A3.2,3.2,0,0,0,109.755,7.057Zm13.2-2.637V14h-2.54V4.42Zm0-3.454V3.277h-2.54V.966Zm10.626,10.222a3.178,3.178,0,0,1-.888,1.731,4.349,4.349,0,0,1-3.445,1.4,4.858,4.858,0,0,1-3.226-1.178,4.75,4.75,0,0,1-1.4-3.832,5.326,5.326,0,0,1,1.261-3.814,4.312,4.312,0,0,1,3.274-1.327,5.021,5.021,0,0,1,2.153.448A3.772,3.772,0,0,1,132.9,6.028a4.828,4.828,0,0,1,.729,1.978,12.771,12.771,0,0,1,.079,1.9h-6.557a2.381,2.381,0,0,0,.905,2.021,2.132,2.132,0,0,0,1.248.36,1.8,1.8,0,0,0,1.257-.439,2.087,2.087,0,0,0,.466-.659ZM131.1,8.252a2.181,2.181,0,0,0-.6-1.507,1.87,1.87,0,0,0-1.34-.514,1.7,1.7,0,0,0-1.349.545,2.72,2.72,0,0,0-.6,1.477Zm8.8-1.978a1.744,1.744,0,0,0-1.749,1.081,3.713,3.713,0,0,0-.246,1.459V14h-2.5V4.438h2.417v1.4a4.252,4.252,0,0,1,.914-1.063,3.177,3.177,0,0,1,1.96-.58,3.7,3.7,0,0,1,2.43.778,3.163,3.163,0,0,1,.945,2.58V14H141.51V8.173a2.659,2.659,0,0,0-.2-1.16A1.422,1.422,0,0,0,139.9,6.274Zm10.872,5.941v1.872l-1.187.044a3.184,3.184,0,0,1-2.426-.615,1.832,1.832,0,0,1-.422-1.327v-5.9H145.4V4.508h1.336V1.836h2.479V4.508h1.556V6.292h-1.556v5.063a1.14,1.14,0,0,0,.149.734,1.645,1.645,0,0,0,.914.145q.114,0,.242,0T150.773,12.216Zm9.6-6.583a5.59,5.59,0,0,1,1.213,3.595,5.553,5.553,0,0,1-1.213,3.608,5.274,5.274,0,0,1-7.365,0,5.553,5.553,0,0,1-1.213-3.608,5.59,5.59,0,0,1,1.213-3.595,5.22,5.22,0,0,1,7.365,0Zm-3.691.6a2,2,0,0,0-1.692.778,3.6,3.6,0,0,0-.593,2.219,3.619,3.619,0,0,0,.593,2.224,2.216,2.216,0,0,0,3.379,0,3.639,3.639,0,0,0,.589-2.224,3.619,3.619,0,0,0-.589-2.219A1.99,1.99,0,0,0,156.68,6.23Z" transform="translate(973.093 3374.979)" fill="#212429"/>
    <g id="Grupo_1162337" data-name="Grupo 1162337" transform="translate(1077.441 3424.322)">
      <g transform="matrix(1, 0, 0, 1, -801.44, -389.32)" filter="url(#Rectángulo_409638-3)">
        <rect id="Rectángulo_409638-7" data-name="Rectángulo 409638" width="345.427" height="94.032" rx="15" transform="translate(639 448.31)" fill="#d8d4db"/>
      </g>
      <path id="Trazado_991350-3" data-name="Trazado 991350" d="M260.4,227.706H180.473L247.9,292.448l-67.426,64.739H260.4l67.43-64.739Z" transform="translate(-90.27 -188.445)" fill="#d8d4db"/>
    </g>
    <path id="Contenido-3" data-name="Contenido" d="M43.046,14H40.523V1.045h3.938l2.355,10.187L49.154,1.045h3.894V14H50.525V5.237q0-.378.009-1.059t.009-1.05L48.091,14H45.463L43.028,3.128q0,.369.009,1.05t.009,1.059ZM63.56,11.188a3.178,3.178,0,0,1-.888,1.731,4.349,4.349,0,0,1-3.445,1.4A4.858,4.858,0,0,1,56,13.139a4.75,4.75,0,0,1-1.4-3.832,5.326,5.326,0,0,1,1.261-3.814,4.312,4.312,0,0,1,3.274-1.327,5.021,5.021,0,0,1,2.153.448,3.772,3.772,0,0,1,1.582,1.415A4.828,4.828,0,0,1,63.6,8.006a12.771,12.771,0,0,1,.079,1.9H57.126a2.381,2.381,0,0,0,.905,2.021,2.132,2.132,0,0,0,1.248.36,1.8,1.8,0,0,0,1.257-.439A2.087,2.087,0,0,0,61,11.188ZM61.081,8.252a2.181,2.181,0,0,0-.6-1.507,1.87,1.87,0,0,0-1.34-.514,1.7,1.7,0,0,0-1.349.545,2.72,2.72,0,0,0-.6,1.477Zm4.4-3.788h2.5V15.028a3.338,3.338,0,0,1-.571,2.145,2.826,2.826,0,0,1-2.241.694q-.114,0-.338-.009t-.558-.018v-2q.211.018.3.022t.158,0a.78.78,0,0,0,.558-.18.968.968,0,0,0,.189-.7Zm0-3.5h2.5V3.277h-2.5ZM78.36,5.633a5.59,5.59,0,0,1,1.213,3.595,5.553,5.553,0,0,1-1.213,3.608,5.274,5.274,0,0,1-7.365,0,5.553,5.553,0,0,1-1.213-3.608A5.59,5.59,0,0,1,71,5.633a5.22,5.22,0,0,1,7.365,0Zm-3.691.6a2,2,0,0,0-1.692.778,3.6,3.6,0,0,0-.593,2.219,3.619,3.619,0,0,0,.593,2.224,2.216,2.216,0,0,0,3.379,0,3.639,3.639,0,0,0,.589-2.224,3.619,3.619,0,0,0-.589-2.219A1.99,1.99,0,0,0,74.669,6.23Zm11.514.5a2.078,2.078,0,0,0-2.03.984,3.829,3.829,0,0,0-.29,1.705V14H81.34V4.42h2.391V6.09a5.3,5.3,0,0,1,1.011-1.31,2.752,2.752,0,0,1,1.828-.589q.07,0,.119,0l.215.013V6.775q-.237-.026-.422-.035T86.183,6.731Zm2.549-1.274a4.09,4.09,0,0,1,3.41-1.266,6.059,6.059,0,0,1,2.795.624,2.4,2.4,0,0,1,1.222,2.355v4.395q0,.457.018,1.107a1.392,1.392,0,0,0,.149.668.9.9,0,0,0,.369.29V14H93.97a2.79,2.79,0,0,1-.158-.545q-.044-.255-.07-.58a5.146,5.146,0,0,1-1.2.958,3.6,3.6,0,0,1-1.828.466,3.143,3.143,0,0,1-2.149-.743,2.649,2.649,0,0,1-.848-2.1,2.732,2.732,0,0,1,1.362-2.558,6.049,6.049,0,0,1,2.2-.615l.853-.105a3.91,3.91,0,0,0,.993-.22.753.753,0,0,0,.536-.712.845.845,0,0,0-.409-.813,2.553,2.553,0,0,0-1.2-.224,1.563,1.563,0,0,0-1.257.439,1.827,1.827,0,0,0-.352.879H88.028A3.676,3.676,0,0,1,88.732,5.457Zm1.863,6.732a1.309,1.309,0,0,0,.861.29A2.551,2.551,0,0,0,92.946,12a2.024,2.024,0,0,0,.708-1.731V9.342a2.722,2.722,0,0,1-.479.242,4.006,4.006,0,0,1-.664.171l-.562.105a3.632,3.632,0,0,0-1.134.343,1.149,1.149,0,0,0-.58,1.063A1.1,1.1,0,0,0,90.595,12.189Zm21.076-4.333H109.1a2.223,2.223,0,0,0-.36-.967,1.511,1.511,0,0,0-1.31-.58A1.725,1.725,0,0,0,105.7,7.566a5.255,5.255,0,0,0-.246,1.775,4.832,4.832,0,0,0,.246,1.7,1.671,1.671,0,0,0,1.688,1.2,1.488,1.488,0,0,0,1.248-.475,2.362,2.362,0,0,0,.448-1.23h2.558a4.191,4.191,0,0,1-.826,2.162,4.016,4.016,0,0,1-3.489,1.644,4.082,4.082,0,0,1-3.4-1.371,5.548,5.548,0,0,1-1.09-3.56,5.63,5.63,0,0,1,1.2-3.841,4.191,4.191,0,0,1,3.322-1.371A5,5,0,0,1,110.313,5,3.761,3.761,0,0,1,111.671,7.856Zm9.712-2.224A5.59,5.59,0,0,1,122.6,9.228a5.553,5.553,0,0,1-1.213,3.608,5.274,5.274,0,0,1-7.365,0A5.553,5.553,0,0,1,112.8,9.228a5.59,5.59,0,0,1,1.213-3.595,5.22,5.22,0,0,1,7.365,0Zm-3.691.6A2,2,0,0,0,116,7.008a3.6,3.6,0,0,0-.593,2.219A3.619,3.619,0,0,0,116,11.451a2.216,2.216,0,0,0,3.379,0,3.639,3.639,0,0,0,.589-2.224,3.619,3.619,0,0,0-.589-2.219A1.99,1.99,0,0,0,117.691,6.23Zm11.206.044a1.744,1.744,0,0,0-1.749,1.081,3.713,3.713,0,0,0-.246,1.459V14h-2.5V4.438h2.417v1.4a4.252,4.252,0,0,1,.914-1.063,3.177,3.177,0,0,1,1.96-.58,3.7,3.7,0,0,1,2.43.778,3.163,3.163,0,0,1,.945,2.58V14h-2.566V8.173a2.659,2.659,0,0,0-.2-1.16A1.422,1.422,0,0,0,128.9,6.274Zm10.872,5.941v1.872l-1.187.044a3.184,3.184,0,0,1-2.426-.615,1.832,1.832,0,0,1-.422-1.327v-5.9H134.4V4.508h1.336V1.836h2.479V4.508h1.556V6.292h-1.556v5.063a1.14,1.14,0,0,0,.149.734,1.645,1.645,0,0,0,.914.145q.114,0,.242,0T139.77,12.216Zm4.184-7.8V14h-2.54V4.42Zm0-3.454V3.277h-2.54V.966Zm6.935,5.309a1.744,1.744,0,0,0-1.749,1.081,3.713,3.713,0,0,0-.246,1.459V14h-2.5V4.438h2.417v1.4a4.252,4.252,0,0,1,.914-1.063,3.177,3.177,0,0,1,1.96-.58,3.7,3.7,0,0,1,2.43.778,3.163,3.163,0,0,1,.945,2.58V14H152.5V8.173a2.659,2.659,0,0,0-.2-1.16A1.422,1.422,0,0,0,150.888,6.274Zm12.63,6.372q-.035.044-.176.264a1.764,1.764,0,0,1-.334.387,3.488,3.488,0,0,1-1.138.721,3.879,3.879,0,0,1-1.288.193,2.87,2.87,0,0,1-2.865-1.529,5.852,5.852,0,0,1-.413-2.487V4.42h2.566v5.774a3.023,3.023,0,0,0,.193,1.23,1.338,1.338,0,0,0,1.345.729,1.758,1.758,0,0,0,1.758-1.037,3.754,3.754,0,0,0,.246-1.485V4.42h2.54V14h-2.435Zm5.212-7.189a4.09,4.09,0,0,1,3.41-1.266,6.059,6.059,0,0,1,2.795.624,2.4,2.4,0,0,1,1.222,2.355v4.395q0,.457.018,1.107a1.392,1.392,0,0,0,.149.668.9.9,0,0,0,.369.29V14h-2.725a2.79,2.79,0,0,1-.158-.545q-.044-.255-.07-.58a5.146,5.146,0,0,1-1.2.958,3.6,3.6,0,0,1-1.828.466,3.143,3.143,0,0,1-2.149-.743,2.649,2.649,0,0,1-.848-2.1,2.732,2.732,0,0,1,1.362-2.558,6.049,6.049,0,0,1,2.2-.615l.853-.105a3.91,3.91,0,0,0,.993-.22.753.753,0,0,0,.536-.712.845.845,0,0,0-.409-.813,2.553,2.553,0,0,0-1.2-.224,1.563,1.563,0,0,0-1.257.439,1.827,1.827,0,0,0-.352.879h-2.417A3.676,3.676,0,0,1,168.73,5.457Zm1.863,6.732a1.309,1.309,0,0,0,.861.29,2.551,2.551,0,0,0,1.49-.475,2.024,2.024,0,0,0,.708-1.731V9.342a2.722,2.722,0,0,1-.479.242,4.006,4.006,0,0,1-.664.171l-.562.105a3.632,3.632,0,0,0-1.134.343,1.149,1.149,0,0,0-.58,1.063A1.1,1.1,0,0,0,170.593,12.189Z" transform="translate(973.093 3517.84)" fill="#212429"/>
    <g id="Grupo_1154845" data-name="Grupo 1154845" transform="translate(1077.441 2995.739)">
      <g transform="matrix(1, 0, 0, 1, -801.44, 39.26)" filter="url(#Rectángulo_409638-4)">
        <rect id="Rectángulo_409638-8" data-name="Rectángulo 409638" width="345.427" height="94.032" rx="15" transform="translate(639 19.73)" fill="#cfe3dc"/>
      </g>
      <path id="Trazado_991350-4" data-name="Trazado 991350" d="M260.4,227.706H180.473L247.9,292.448l-67.426,64.739H260.4l67.43-64.739Z" transform="translate(-90.27 -188.445)" fill="#cfe3dc"/>
    </g>
    <path id="Contenido-4" data-name="Contenido" d="M66.148,11.337H61.376L60.479,14h-2.83L62.272,1.045h3.059L69.919,14H66.983ZM65.392,9.1l-1.617-5.1-1.67,5.1ZM79.384,5.448a5.14,5.14,0,0,1,1.16,3.639,5.771,5.771,0,0,1-1.138,3.858,3.685,3.685,0,0,1-2.931,1.327,3.059,3.059,0,0,1-1.9-.571,3.683,3.683,0,0,1-.809-.923v4.992H71.29V4.42h2.4V5.835a4.021,4.021,0,0,1,.861-.984,3.165,3.165,0,0,1,1.986-.642A3.767,3.767,0,0,1,79.384,5.448ZM77.961,9.21a3.77,3.77,0,0,0-.505-1.96A1.759,1.759,0,0,0,75.816,6.4a1.865,1.865,0,0,0-1.872,1.292,4.9,4.9,0,0,0-.264,1.74,2.776,2.776,0,0,0,.888,2.347,2.021,2.021,0,0,0,1.248.4,1.809,1.809,0,0,0,1.6-.809A3.771,3.771,0,0,0,77.961,9.21Zm9.211-2.479a2.078,2.078,0,0,0-2.03.984,3.829,3.829,0,0,0-.29,1.705V14H82.329V4.42h2.391V6.09A5.3,5.3,0,0,1,85.73,4.78a2.752,2.752,0,0,1,1.828-.589q.07,0,.119,0l.215.013V6.775q-.237-.026-.422-.035T87.171,6.731ZM97.56,11.188a3.178,3.178,0,0,1-.888,1.731,4.349,4.349,0,0,1-3.445,1.4A4.858,4.858,0,0,1,90,13.139a4.75,4.75,0,0,1-1.4-3.832,5.326,5.326,0,0,1,1.261-3.814,4.312,4.312,0,0,1,3.274-1.327,5.021,5.021,0,0,1,2.153.448,3.772,3.772,0,0,1,1.582,1.415A4.828,4.828,0,0,1,97.6,8.006a12.771,12.771,0,0,1,.079,1.9H91.127a2.381,2.381,0,0,0,.905,2.021,2.132,2.132,0,0,0,1.248.36,1.8,1.8,0,0,0,1.257-.439A2.087,2.087,0,0,0,95,11.188ZM95.082,8.252a2.181,2.181,0,0,0-.6-1.507,1.87,1.87,0,0,0-1.34-.514,1.7,1.7,0,0,0-1.349.545,2.72,2.72,0,0,0-.6,1.477Zm8.8-1.978a1.744,1.744,0,0,0-1.749,1.081,3.713,3.713,0,0,0-.246,1.459V14h-2.5V4.438h2.417v1.4a4.252,4.252,0,0,1,.914-1.063,3.177,3.177,0,0,1,1.96-.58,3.7,3.7,0,0,1,2.43.778,3.163,3.163,0,0,1,.945,2.58V14h-2.566V8.173a2.659,2.659,0,0,0-.2-1.16A1.422,1.422,0,0,0,103.879,6.274Zm15.205-5.212V14H116.65V12.673a3.533,3.533,0,0,1-1.222,1.239,3.43,3.43,0,0,1-1.705.387,3.56,3.56,0,0,1-2.826-1.358,5.215,5.215,0,0,1-1.147-3.485A6,6,0,0,1,110.88,5.6,3.674,3.674,0,0,1,113.9,4.191a3.09,3.09,0,0,1,1.547.382,3.043,3.043,0,0,1,1.1,1.059V1.063Zm-6.75,8.209a3.767,3.767,0,0,0,.527,2.118,1.756,1.756,0,0,0,1.582.8,1.849,1.849,0,0,0,1.617-.791,3.5,3.5,0,0,0,.554-2.048,3.141,3.141,0,0,0-.888-2.514,1.91,1.91,0,0,0-1.266-.457,1.759,1.759,0,0,0-1.613.831A3.848,3.848,0,0,0,112.335,9.271Zm11.6-4.852V14H121.4V4.42Zm0-3.454V3.277H121.4V.966ZM133.753,14h-8.271V12.049l4.913-5.59h-4.579V4.42h7.77V6.5l-4.86,5.44h5.027Zm1.969-8.543a4.09,4.09,0,0,1,3.41-1.266,6.059,6.059,0,0,1,2.795.624,2.4,2.4,0,0,1,1.222,2.355v4.395q0,.457.018,1.107a1.392,1.392,0,0,0,.149.668.9.9,0,0,0,.369.29V14h-2.725a2.79,2.79,0,0,1-.158-.545q-.044-.255-.07-.58a5.146,5.146,0,0,1-1.2.958,3.6,3.6,0,0,1-1.828.466,3.143,3.143,0,0,1-2.149-.743,2.649,2.649,0,0,1-.848-2.1,2.732,2.732,0,0,1,1.362-2.558,6.049,6.049,0,0,1,2.2-.615l.853-.105a3.91,3.91,0,0,0,.993-.22.753.753,0,0,0,.536-.712.845.845,0,0,0-.409-.813,2.553,2.553,0,0,0-1.2-.224,1.563,1.563,0,0,0-1.257.439,1.827,1.827,0,0,0-.352.879h-2.417A3.676,3.676,0,0,1,135.722,5.457Zm1.863,6.732a1.309,1.309,0,0,0,.861.29,2.551,2.551,0,0,0,1.49-.475,2.024,2.024,0,0,0,.708-1.731V9.342a2.722,2.722,0,0,1-.479.242,4.006,4.006,0,0,1-.664.171l-.562.105a3.632,3.632,0,0,0-1.134.343,1.149,1.149,0,0,0-.58,1.063A1.1,1.1,0,0,0,137.586,12.189Zm7.9-7.726h2.5V15.028a3.338,3.338,0,0,1-.571,2.145,2.826,2.826,0,0,1-2.241.694q-.114,0-.338-.009t-.558-.018v-2q.211.018.3.022t.158,0a.78.78,0,0,0,.558-.18.968.968,0,0,0,.189-.7Zm0-3.5h2.5V3.277h-2.5Zm13.087,10.222a3.178,3.178,0,0,1-.888,1.731,4.349,4.349,0,0,1-3.445,1.4,4.858,4.858,0,0,1-3.226-1.178,4.75,4.75,0,0,1-1.4-3.832,5.326,5.326,0,0,1,1.261-3.814,4.312,4.312,0,0,1,3.274-1.327,5.021,5.021,0,0,1,2.153.448,3.772,3.772,0,0,1,1.582,1.415,4.828,4.828,0,0,1,.729,1.978,12.771,12.771,0,0,1,.079,1.9H152.14a2.381,2.381,0,0,0,.905,2.021,2.132,2.132,0,0,0,1.248.36,1.8,1.8,0,0,0,1.257-.439,2.087,2.087,0,0,0,.466-.659ZM156.1,8.252a2.181,2.181,0,0,0-.6-1.507,1.87,1.87,0,0,0-1.34-.514,1.7,1.7,0,0,0-1.349.545,2.72,2.72,0,0,0-.6,1.477Z" transform="translate(973.093 3089.258)" fill="#212429"/>
    <g transform="matrix(1, 0, 0, 1, 276, 3035)" filter="url(#Trazado_1015924)">
      <path id="Trazado_1015924-2" data-name="Trazado 1015924" d="M15,0H595a15,15,0,0,1,15,15V78.169a15,15,0,0,1-15,15H15a15,15,0,0,1-15-15V15A15,15,0,0,1,15,0Z" transform="translate(9 20.16)" fill="#88bba9"/>
    </g>
    <path id="Trazado_1015925" data-name="Trazado 1015925" d="M16.564,11.337H11.792L10.9,14H8.065L12.688,1.045h3.059L20.335,14H17.4ZM15.808,9.1l-1.617-5.1-1.67,5.1Zm10.478-2.83a1.744,1.744,0,0,0-1.749,1.081,3.713,3.713,0,0,0-.246,1.459V14H21.8V4.438h2.417v1.4a4.252,4.252,0,0,1,.914-1.063,3.177,3.177,0,0,1,1.96-.58,3.7,3.7,0,0,1,2.43.778,3.163,3.163,0,0,1,.945,2.58V14H27.9V8.173a2.659,2.659,0,0,0-.2-1.16A1.422,1.422,0,0,0,26.287,6.274Zm6.848-.817a4.09,4.09,0,0,1,3.41-1.266,6.059,6.059,0,0,1,2.795.624,2.4,2.4,0,0,1,1.222,2.355v4.395q0,.457.018,1.107a1.392,1.392,0,0,0,.149.668.9.9,0,0,0,.369.29V14H38.373a2.79,2.79,0,0,1-.158-.545q-.044-.255-.07-.58a5.146,5.146,0,0,1-1.2.958,3.6,3.6,0,0,1-1.828.466,3.143,3.143,0,0,1-2.149-.743,2.649,2.649,0,0,1-.848-2.1,2.732,2.732,0,0,1,1.362-2.558,6.049,6.049,0,0,1,2.2-.615l.853-.105a3.91,3.91,0,0,0,.993-.22.753.753,0,0,0,.536-.712.845.845,0,0,0-.409-.813,2.553,2.553,0,0,0-1.2-.224,1.563,1.563,0,0,0-1.257.439,1.827,1.827,0,0,0-.352.879H32.432A3.676,3.676,0,0,1,33.135,5.457ZM35,12.189a1.309,1.309,0,0,0,.861.29A2.551,2.551,0,0,0,37.349,12a2.024,2.024,0,0,0,.708-1.731V9.342a2.722,2.722,0,0,1-.479.242,4.006,4.006,0,0,1-.664.171l-.562.105a3.632,3.632,0,0,0-1.134.343,1.149,1.149,0,0,0-.58,1.063A1.1,1.1,0,0,0,35,12.189Zm.185-9.062L36.87.5h2.795L36.994,3.128ZM42.84,1.045h2.5V14h-2.5ZM50.365,4.42V14h-2.54V4.42Zm0-3.454V3.277h-2.54V.966Zm9.028,3.894a3.086,3.086,0,0,1,1.292,2.479h-2.5a1.482,1.482,0,0,0-.272-.765,1.714,1.714,0,0,0-1.406-.51,2.021,2.021,0,0,0-1.165.255.734.734,0,0,0-.347.6.654.654,0,0,0,.369.624,15.98,15.98,0,0,0,2.61.694A4.8,4.8,0,0,1,60.211,9.3a2.415,2.415,0,0,1,.738,1.8,2.911,2.911,0,0,1-1.059,2.325,4.976,4.976,0,0,1-3.274.9,4.929,4.929,0,0,1-3.335-.954,3.1,3.1,0,0,1-1.077-2.43h2.54a1.673,1.673,0,0,0,.343.949,2.317,2.317,0,0,0,1.723.5,2.626,2.626,0,0,0,1.173-.22.737.737,0,0,0,.083-1.3,14.3,14.3,0,0,0-2.61-.756A5.437,5.437,0,0,1,53.162,9.1a2.191,2.191,0,0,1-.668-1.723A2.988,2.988,0,0,1,53.536,5.1a4.183,4.183,0,0,1,2.931-.954A5.427,5.427,0,0,1,59.393,4.859Zm5.987-.439V14h-2.54V4.42Zm0-3.454V3.277h-2.54V.966Zm9.028,3.894A3.086,3.086,0,0,1,75.7,7.338H73.2a1.482,1.482,0,0,0-.272-.765,1.714,1.714,0,0,0-1.406-.51,2.021,2.021,0,0,0-1.165.255.734.734,0,0,0-.347.6.654.654,0,0,0,.369.624,15.98,15.98,0,0,0,2.61.694A4.8,4.8,0,0,1,75.226,9.3a2.415,2.415,0,0,1,.738,1.8,2.911,2.911,0,0,1-1.059,2.325,4.976,4.976,0,0,1-3.274.9,4.929,4.929,0,0,1-3.335-.954,3.1,3.1,0,0,1-1.077-2.43h2.54a1.673,1.673,0,0,0,.343.949,2.317,2.317,0,0,0,1.723.5A2.626,2.626,0,0,0,73,12.172a.737.737,0,0,0,.083-1.3,14.3,14.3,0,0,0-2.61-.756A5.437,5.437,0,0,1,68.177,9.1a2.191,2.191,0,0,1-.668-1.723A2.988,2.988,0,0,1,68.551,5.1a4.183,4.183,0,0,1,2.931-.954A5.427,5.427,0,0,1,74.409,4.859Zm12.308,6.627L88.695,4.42h2.663l-3.287,9.422a13.23,13.23,0,0,1-1.5,3.379,2.856,2.856,0,0,1-2.215.655q-.334,0-.536,0t-.606-.031v-2l.316.018a3.948,3.948,0,0,0,.7-.026,1.262,1.262,0,0,0,.563-.2A1.352,1.352,0,0,0,85.2,15a1.319,1.319,0,0,0,.154-.58l-3.516-10h2.786ZM106.558,1.063V14h-2.435V12.673a3.533,3.533,0,0,1-1.222,1.239,3.43,3.43,0,0,1-1.705.387,3.56,3.56,0,0,1-2.826-1.358,5.215,5.215,0,0,1-1.147-3.485A6,6,0,0,1,98.353,5.6a3.674,3.674,0,0,1,3.019-1.406,3.09,3.09,0,0,1,1.547.382,3.043,3.043,0,0,1,1.1,1.059V1.063Zm-6.75,8.209a3.767,3.767,0,0,0,.527,2.118,1.756,1.756,0,0,0,1.582.8,1.849,1.849,0,0,0,1.617-.791,3.5,3.5,0,0,0,.554-2.048,3.141,3.141,0,0,0-.888-2.514,1.91,1.91,0,0,0-1.266-.457,1.759,1.759,0,0,0-1.613.831A3.848,3.848,0,0,0,99.808,9.271Zm11.6-4.852V14h-2.54V4.42Zm0-3.454V3.277h-2.54V.966ZM114.2,5.457a4.09,4.09,0,0,1,3.41-1.266,6.059,6.059,0,0,1,2.795.624,2.4,2.4,0,0,1,1.222,2.355v4.395q0,.457.018,1.107a1.392,1.392,0,0,0,.149.668.9.9,0,0,0,.369.29V14h-2.725a2.79,2.79,0,0,1-.158-.545q-.044-.255-.07-.58a5.146,5.146,0,0,1-1.2.958,3.6,3.6,0,0,1-1.828.466,3.143,3.143,0,0,1-2.149-.743,2.649,2.649,0,0,1-.848-2.1,2.732,2.732,0,0,1,1.362-2.558,6.049,6.049,0,0,1,2.2-.615l.853-.105a3.91,3.91,0,0,0,.993-.22.753.753,0,0,0,.536-.712.845.845,0,0,0-.409-.813,2.553,2.553,0,0,0-1.2-.224,1.563,1.563,0,0,0-1.257.439,1.827,1.827,0,0,0-.352.879H113.5A3.676,3.676,0,0,1,114.2,5.457Zm1.863,6.732a1.309,1.309,0,0,0,.861.29,2.551,2.551,0,0,0,1.49-.475,2.024,2.024,0,0,0,.708-1.731V9.342a2.722,2.722,0,0,1-.479.242,4.006,4.006,0,0,1-.664.171l-.562.105a3.632,3.632,0,0,0-1.134.343,1.149,1.149,0,0,0-.58,1.063A1.1,1.1,0,0,0,116.062,12.189Zm10.5,3.489a2.117,2.117,0,0,0,1.362.343,1.83,1.83,0,0,0,1.811-.905,4.585,4.585,0,0,0,.3-1.951V12.55a3.055,3.055,0,0,1-.773.923,3.11,3.11,0,0,1-1.942.571,3.676,3.676,0,0,1-2.949-1.3,5.241,5.241,0,0,1-1.1-3.511,5.919,5.919,0,0,1,1.063-3.59,3.514,3.514,0,0,1,3.015-1.455,3.3,3.3,0,0,1,1.257.22A3.01,3.01,0,0,1,130.074,5.8V4.42h2.435v9.088a5.09,5.09,0,0,1-.624,2.795q-1.072,1.617-4.113,1.617a5.6,5.6,0,0,1-3-.721,2.659,2.659,0,0,1-1.283-2.153h2.725A1.128,1.128,0,0,0,126.558,15.679Zm-.422-4.948a1.833,1.833,0,0,0,1.828,1.213,1.935,1.935,0,0,0,1.485-.664,3.072,3.072,0,0,0,.606-2.114,3.235,3.235,0,0,0-.576-2.074,1.882,1.882,0,0,0-1.542-.712,1.818,1.818,0,0,0-1.819,1.239,4.395,4.395,0,0,0-.264,1.626A3.71,3.71,0,0,0,126.136,10.73Zm13.221-4.456a1.744,1.744,0,0,0-1.749,1.081,3.713,3.713,0,0,0-.246,1.459V14h-2.5V4.438h2.417v1.4a4.252,4.252,0,0,1,.914-1.063,3.177,3.177,0,0,1,1.96-.58,3.7,3.7,0,0,1,2.43.778,3.163,3.163,0,0,1,.945,2.58V14h-2.566V8.173a2.659,2.659,0,0,0-.2-1.16A1.422,1.422,0,0,0,139.357,6.274Zm14.477-.642a5.59,5.59,0,0,1,1.213,3.595,5.553,5.553,0,0,1-1.213,3.608,5.274,5.274,0,0,1-7.365,0,5.553,5.553,0,0,1-1.213-3.608,5.59,5.59,0,0,1,1.213-3.595,5.22,5.22,0,0,1,7.365,0Zm-3.691.6a2,2,0,0,0-1.692.778,3.6,3.6,0,0,0-.593,2.219,3.619,3.619,0,0,0,.593,2.224,2.216,2.216,0,0,0,3.379,0,3.639,3.639,0,0,0,.589-2.224,3.619,3.619,0,0,0-.589-2.219A1.99,1.99,0,0,0,150.143,6.23Zm-1.477-3.1L150.354.5h2.795l-2.672,2.628Zm14.776,1.731a3.086,3.086,0,0,1,1.292,2.479h-2.5a1.482,1.482,0,0,0-.272-.765,1.714,1.714,0,0,0-1.406-.51,2.021,2.021,0,0,0-1.165.255.734.734,0,0,0-.347.6.654.654,0,0,0,.369.624,15.98,15.98,0,0,0,2.61.694A4.8,4.8,0,0,1,164.26,9.3,2.415,2.415,0,0,1,165,11.1a2.911,2.911,0,0,1-1.059,2.325,6.354,6.354,0,0,1-6.609-.053,3.1,3.1,0,0,1-1.077-2.43h2.54a1.673,1.673,0,0,0,.343.949,2.317,2.317,0,0,0,1.723.5,2.626,2.626,0,0,0,1.173-.22.737.737,0,0,0,.083-1.3,14.3,14.3,0,0,0-2.61-.756A5.437,5.437,0,0,1,157.211,9.1a2.191,2.191,0,0,1-.668-1.723A2.988,2.988,0,0,1,157.584,5.1a4.183,4.183,0,0,1,2.931-.954A5.427,5.427,0,0,1,163.442,4.859Zm7.8,7.356v1.872l-1.187.044a3.184,3.184,0,0,1-2.426-.615,1.832,1.832,0,0,1-.422-1.327v-5.9H165.87V4.508h1.336V1.836h2.479V4.508h1.556V6.292h-1.556v5.063a1.14,1.14,0,0,0,.149.734,1.645,1.645,0,0,0,.914.145q.114,0,.242,0T171.24,12.216Zm4.185-7.8V14h-2.54V4.42Zm0-3.454V3.277h-2.54V.966Zm10.716,6.891h-2.566a2.223,2.223,0,0,0-.36-.967,1.511,1.511,0,0,0-1.31-.58,1.725,1.725,0,0,0-1.731,1.257,5.255,5.255,0,0,0-.246,1.775,4.832,4.832,0,0,0,.246,1.7,1.671,1.671,0,0,0,1.688,1.2,1.488,1.488,0,0,0,1.248-.475,2.362,2.362,0,0,0,.448-1.23h2.558a4.191,4.191,0,0,1-.826,2.162,4.016,4.016,0,0,1-3.489,1.644,4.082,4.082,0,0,1-3.4-1.371,5.548,5.548,0,0,1-1.09-3.56,5.63,5.63,0,0,1,1.2-3.841,4.191,4.191,0,0,1,3.322-1.371A5,5,0,0,1,184.783,5,3.761,3.761,0,0,1,186.141,7.856Zm9.714-2.224a5.59,5.59,0,0,1,1.213,3.595,5.553,5.553,0,0,1-1.213,3.608,5.274,5.274,0,0,1-7.365,0,5.553,5.553,0,0,1-1.213-3.608,5.59,5.59,0,0,1,1.213-3.595,5.22,5.22,0,0,1,7.365,0Zm-3.691.6a2,2,0,0,0-1.692.778,3.6,3.6,0,0,0-.593,2.219,3.619,3.619,0,0,0,.593,2.224,2.216,2.216,0,0,0,3.379,0,3.639,3.639,0,0,0,.589-2.224,3.619,3.619,0,0,0-.589-2.219A1.99,1.99,0,0,0,192.163,6.23Zm19.9,4.957a3.178,3.178,0,0,1-.888,1.731,4.349,4.349,0,0,1-3.445,1.4,4.858,4.858,0,0,1-3.226-1.178,4.75,4.75,0,0,1-1.4-3.832,5.326,5.326,0,0,1,1.261-3.814,4.312,4.312,0,0,1,3.274-1.327,5.021,5.021,0,0,1,2.153.448,3.772,3.772,0,0,1,1.582,1.415,4.828,4.828,0,0,1,.729,1.978,12.771,12.771,0,0,1,.079,1.9h-6.557a2.381,2.381,0,0,0,.905,2.021,2.132,2.132,0,0,0,1.248.36,1.8,1.8,0,0,0,1.257-.439,2.087,2.087,0,0,0,.466-.659Zm-2.479-2.936a2.181,2.181,0,0,0-.6-1.507,1.87,1.87,0,0,0-1.34-.514,1.7,1.7,0,0,0-1.349.545,2.72,2.72,0,0,0-.6,1.477Zm10.891-3.393a3.086,3.086,0,0,1,1.292,2.479h-2.5a1.482,1.482,0,0,0-.272-.765,1.714,1.714,0,0,0-1.406-.51,2.021,2.021,0,0,0-1.165.255.734.734,0,0,0-.347.6.654.654,0,0,0,.369.624,15.98,15.98,0,0,0,2.61.694A4.8,4.8,0,0,1,221.3,9.3a2.415,2.415,0,0,1,.738,1.8,2.911,2.911,0,0,1-1.059,2.325,6.354,6.354,0,0,1-6.609-.053,3.1,3.1,0,0,1-1.077-2.43h2.54a1.673,1.673,0,0,0,.343.949,2.317,2.317,0,0,0,1.723.5,2.626,2.626,0,0,0,1.173-.22.737.737,0,0,0,.083-1.3,14.3,14.3,0,0,0-2.61-.756A5.437,5.437,0,0,1,214.247,9.1a2.191,2.191,0,0,1-.668-1.723A2.988,2.988,0,0,1,214.621,5.1a4.183,4.183,0,0,1,2.931-.954A5.427,5.427,0,0,1,220.478,4.859Zm7.8,7.356v1.872l-1.187.044a3.184,3.184,0,0,1-2.426-.615,1.832,1.832,0,0,1-.422-1.327v-5.9h-1.336V4.508h1.336V1.836h2.479V4.508h1.556V6.292H226.72v5.063a1.14,1.14,0,0,0,.149.734,1.645,1.645,0,0,0,.914.145q.114,0,.242,0T228.276,12.216ZM234.7,6.731a2.078,2.078,0,0,0-2.03.984,3.829,3.829,0,0,0-.29,1.705V14H229.86V4.42h2.391V6.09a5.3,5.3,0,0,1,1.011-1.31,2.752,2.752,0,0,1,1.828-.589q.07,0,.119,0l.215.013V6.775q-.237-.026-.422-.035T234.7,6.731Zm2.551-1.274a4.09,4.09,0,0,1,3.41-1.266,6.059,6.059,0,0,1,2.795.624,2.4,2.4,0,0,1,1.222,2.355v4.395q0,.457.018,1.107a1.392,1.392,0,0,0,.149.668.9.9,0,0,0,.369.29V14h-2.725a2.79,2.79,0,0,1-.158-.545q-.044-.255-.07-.58a5.146,5.146,0,0,1-1.2.958,3.6,3.6,0,0,1-1.828.466,3.143,3.143,0,0,1-2.149-.743,2.649,2.649,0,0,1-.848-2.1A2.732,2.732,0,0,1,237.6,8.894a6.049,6.049,0,0,1,2.2-.615l.853-.105a3.91,3.91,0,0,0,.993-.22.753.753,0,0,0,.536-.712.845.845,0,0,0-.409-.813,2.553,2.553,0,0,0-1.2-.224,1.563,1.563,0,0,0-1.257.439,1.827,1.827,0,0,0-.352.879H236.55A3.676,3.676,0,0,1,237.253,5.457Zm1.863,6.732a1.309,1.309,0,0,0,.861.29,2.551,2.551,0,0,0,1.49-.475,2.024,2.024,0,0,0,.708-1.731V9.342a2.722,2.722,0,0,1-.479.242,4.006,4.006,0,0,1-.664.171l-.562.105a3.632,3.632,0,0,0-1.134.343,1.149,1.149,0,0,0-.58,1.063A1.1,1.1,0,0,0,239.117,12.189Zm12.175.026v1.872l-1.187.044a3.184,3.184,0,0,1-2.426-.615,1.832,1.832,0,0,1-.422-1.327v-5.9h-1.336V4.508h1.336V1.836h2.479V4.508h1.556V6.292h-1.556v5.063a1.14,1.14,0,0,0,.149.734,1.645,1.645,0,0,0,.914.145q.114,0,.242,0T251.291,12.216Zm9.81-1.028a3.178,3.178,0,0,1-.888,1.731,4.349,4.349,0,0,1-3.445,1.4,4.858,4.858,0,0,1-3.226-1.178,4.75,4.75,0,0,1-1.4-3.832,5.326,5.326,0,0,1,1.261-3.814,4.312,4.312,0,0,1,3.274-1.327,5.021,5.021,0,0,1,2.153.448,3.772,3.772,0,0,1,1.582,1.415,4.828,4.828,0,0,1,.729,1.978,12.771,12.771,0,0,1,.079,1.9h-6.557a2.381,2.381,0,0,0,.905,2.021,2.132,2.132,0,0,0,1.248.36,1.8,1.8,0,0,0,1.257-.439,2.087,2.087,0,0,0,.466-.659Zm-2.479-2.936a2.181,2.181,0,0,0-.6-1.507,1.87,1.87,0,0,0-1.34-.514,1.7,1.7,0,0,0-1.349.545,2.72,2.72,0,0,0-.6,1.477Zm-3.252-5.124L257.059.5h2.795l-2.672,2.628Zm10.25,12.551a2.117,2.117,0,0,0,1.362.343,1.83,1.83,0,0,0,1.811-.905,4.585,4.585,0,0,0,.3-1.951V12.55a3.055,3.055,0,0,1-.773.923,3.11,3.11,0,0,1-1.942.571,3.676,3.676,0,0,1-2.949-1.3,5.241,5.241,0,0,1-1.1-3.511,5.919,5.919,0,0,1,1.063-3.59A3.514,3.514,0,0,1,266.4,4.191a3.3,3.3,0,0,1,1.257.22A3.01,3.01,0,0,1,269.137,5.8V4.42h2.435v9.088a5.09,5.09,0,0,1-.624,2.795q-1.072,1.617-4.113,1.617a5.6,5.6,0,0,1-3-.721,2.659,2.659,0,0,1-1.283-2.153h2.725A1.128,1.128,0,0,0,265.621,15.679ZM265.2,10.73a1.833,1.833,0,0,0,1.828,1.213,1.935,1.935,0,0,0,1.485-.664,3.072,3.072,0,0,0,.606-2.114,3.235,3.235,0,0,0-.576-2.074A1.882,1.882,0,0,0,267,6.38a1.818,1.818,0,0,0-1.819,1.239,4.395,4.395,0,0,0-.264,1.626A3.71,3.71,0,0,0,265.2,10.73ZM276.486,4.42V14h-2.54V4.42Zm0-3.454V3.277h-2.54V.966ZM287.2,7.856h-2.566a2.223,2.223,0,0,0-.36-.967,1.511,1.511,0,0,0-1.31-.58,1.725,1.725,0,0,0-1.731,1.257,5.255,5.255,0,0,0-.246,1.775,4.832,4.832,0,0,0,.246,1.7,1.671,1.671,0,0,0,1.688,1.2,1.488,1.488,0,0,0,1.248-.475,2.362,2.362,0,0,0,.448-1.23h2.558a4.191,4.191,0,0,1-.826,2.162,4.016,4.016,0,0,1-3.489,1.644,4.082,4.082,0,0,1-3.4-1.371,5.548,5.548,0,0,1-1.09-3.56,5.63,5.63,0,0,1,1.2-3.841A4.191,4.191,0,0,1,282.9,4.191,5,5,0,0,1,285.844,5,3.761,3.761,0,0,1,287.2,7.856Zm9.714-2.224a5.59,5.59,0,0,1,1.213,3.595,5.553,5.553,0,0,1-1.213,3.608,5.274,5.274,0,0,1-7.365,0,5.553,5.553,0,0,1-1.213-3.608,5.59,5.59,0,0,1,1.213-3.595,5.22,5.22,0,0,1,7.365,0Zm-3.691.6a2,2,0,0,0-1.692.778,3.6,3.6,0,0,0-.593,2.219,3.619,3.619,0,0,0,.593,2.224,2.216,2.216,0,0,0,3.379,0,3.639,3.639,0,0,0,.589-2.224,3.619,3.619,0,0,0-.589-2.219A1.99,1.99,0,0,0,293.224,6.23Zm6.655,5.15h2.663V14h-2.663Z" transform="translate(434.318 3090.247)" fill="#0b0a0a"/>
    <path id="Contenido-5" data-name="Contenido" d="M8.262,23.527q-4.058,0-5.691-2.842t-1.633-8.1q0-5.259,1.633-8.115T8.262,1.613q4.058,0,5.7,2.856t1.626,8.115q0,5.259-1.633,8.1T8.262,23.527Zm2.446-5.347a20.9,20.9,0,0,0,.571-5.6A20.5,20.5,0,0,0,10.7,6.9,2.364,2.364,0,0,0,8.262,5.056,2.4,2.4,0,0,0,5.8,6.9a19.784,19.784,0,0,0-.6,5.684,20.007,20.007,0,0,0,.6,5.6,2.418,2.418,0,0,0,2.461,1.941A2.4,2.4,0,0,0,10.708,18.181ZM28.037,23H23.76V8.352h-5V5.51a18.5,18.5,0,0,0,2.769-.264,3.9,3.9,0,0,0,2.051-1.113,3.665,3.665,0,0,0,.82-1.523,3.5,3.5,0,0,0,.161-.85h3.472Z" transform="translate(312 3065.616)" fill="#fff"/>
    <g transform="matrix(1, 0, 0, 1, 276, 3035)" filter="url(#Trazado_1015926)">
      <path id="Trazado_1015926-2" data-name="Trazado 1015926" d="M15,0H595a15,15,0,0,1,15,15V78.169a15,15,0,0,1-15,15H15a15,15,0,0,1-15-15V15A15,15,0,0,1,15,0Z" transform="translate(9 162.03)" fill="#edae3b"/>
    </g>
    <path id="Trazado_1015927" data-name="Trazado 1015927" d="M57.675,3.339h-6.5V6.318h5.687v2.25H51.18V14H48.49V1.063h9.185Zm9.6,2.294a5.59,5.59,0,0,1,1.213,3.595,5.553,5.553,0,0,1-1.213,3.608,4.456,4.456,0,0,1-3.683,1.5,4.456,4.456,0,0,1-3.683-1.5A5.553,5.553,0,0,1,58.7,9.228a5.59,5.59,0,0,1,1.213-3.595,4.426,4.426,0,0,1,3.683-1.521A4.426,4.426,0,0,1,67.274,5.633Zm-3.691.6a2,2,0,0,0-1.692.778A3.6,3.6,0,0,0,61.3,9.228a3.619,3.619,0,0,0,.593,2.224,2.216,2.216,0,0,0,3.379,0,3.639,3.639,0,0,0,.589-2.224,3.619,3.619,0,0,0-.589-2.219A1.99,1.99,0,0,0,63.583,6.23Zm11.515.5a2.078,2.078,0,0,0-2.03.984,3.829,3.829,0,0,0-.29,1.705V14H70.256V4.42h2.391V6.09a5.3,5.3,0,0,1,1.011-1.31,2.752,2.752,0,0,1,1.828-.589q.07,0,.119,0l.215.013V6.775q-.237-.026-.422-.035T75.1,6.731Zm7.569.325a1.227,1.227,0,0,0-1.239-.694,1.479,1.479,0,0,0-1.441.694,2.675,2.675,0,0,0-.2,1.178V14h-2.54V4.438h2.435v1.4a4.031,4.031,0,0,1,.879-1.063,3.478,3.478,0,0,1,3.665-.079,2.812,2.812,0,0,1,.826,1.151A3.185,3.185,0,0,1,86.271,4.6a3.728,3.728,0,0,1,1.723-.4,3.335,3.335,0,0,1,1.248.246,2.784,2.784,0,0,1,1.116.861,2.752,2.752,0,0,1,.545,1.23,8.5,8.5,0,0,1,.088,1.415L90.973,14H88.407V7.9a2,2,0,0,0-.176-.9A1.249,1.249,0,0,0,87,6.336a1.44,1.44,0,0,0-1.433.861,2.7,2.7,0,0,0-.2,1.1V14H82.843V8.3A3.2,3.2,0,0,0,82.668,7.057Zm16.771,5.59q-.035.044-.176.264a1.764,1.764,0,0,1-.334.387,3.488,3.488,0,0,1-1.138.721,3.879,3.879,0,0,1-1.288.193,2.87,2.87,0,0,1-2.865-1.529,5.852,5.852,0,0,1-.413-2.487V4.42h2.566v5.774a3.023,3.023,0,0,0,.193,1.23,1.338,1.338,0,0,0,1.345.729,1.758,1.758,0,0,0,1.758-1.037,3.754,3.754,0,0,0,.246-1.485V4.42h2.54V14H99.439Zm4.906-11.6h2.5V14h-2.5Zm5.31,4.412a4.09,4.09,0,0,1,3.41-1.266,6.059,6.059,0,0,1,2.795.624,2.4,2.4,0,0,1,1.222,2.355v4.395q0,.457.018,1.107a1.392,1.392,0,0,0,.149.668.9.9,0,0,0,.369.29V14h-2.725a2.79,2.79,0,0,1-.158-.545q-.044-.255-.07-.58a5.146,5.146,0,0,1-1.2.958,3.6,3.6,0,0,1-1.828.466,3.143,3.143,0,0,1-2.149-.743,2.649,2.649,0,0,1-.848-2.1,2.732,2.732,0,0,1,1.362-2.558,6.049,6.049,0,0,1,2.2-.615l.853-.105a3.91,3.91,0,0,0,.993-.22.753.753,0,0,0,.536-.712.845.845,0,0,0-.409-.813,2.553,2.553,0,0,0-1.2-.224,1.563,1.563,0,0,0-1.257.439,1.827,1.827,0,0,0-.352.879h-2.417A3.676,3.676,0,0,1,109.655,5.457Zm1.863,6.732a1.309,1.309,0,0,0,.861.29A2.551,2.551,0,0,0,113.87,12a2.024,2.024,0,0,0,.708-1.731V9.342a2.722,2.722,0,0,1-.479.242,4.006,4.006,0,0,1-.664.171l-.562.105a3.632,3.632,0,0,0-1.134.343,1.149,1.149,0,0,0-.58,1.063A1.1,1.1,0,0,0,111.519,12.189ZM127.6,7.856h-2.566a2.223,2.223,0,0,0-.36-.967,1.511,1.511,0,0,0-1.31-.58,1.725,1.725,0,0,0-1.731,1.257,5.255,5.255,0,0,0-.246,1.775,4.832,4.832,0,0,0,.246,1.7,1.671,1.671,0,0,0,1.688,1.2,1.488,1.488,0,0,0,1.248-.475,2.362,2.362,0,0,0,.448-1.23h2.558a4.191,4.191,0,0,1-.826,2.162,4.016,4.016,0,0,1-3.489,1.644,4.082,4.082,0,0,1-3.4-1.371,5.548,5.548,0,0,1-1.09-3.56,5.63,5.63,0,0,1,1.2-3.841,4.191,4.191,0,0,1,3.322-1.371A5,5,0,0,1,126.238,5,3.761,3.761,0,0,1,127.6,7.856Zm4.3-3.437V14h-2.54V4.42Zm0-3.454V3.277h-2.54V.966Zm10.417,4.667a5.59,5.59,0,0,1,1.213,3.595,5.553,5.553,0,0,1-1.213,3.608,5.274,5.274,0,0,1-7.365,0,5.553,5.553,0,0,1-1.213-3.608,5.59,5.59,0,0,1,1.213-3.595,5.22,5.22,0,0,1,7.365,0Zm-3.691.6a2,2,0,0,0-1.692.778,3.6,3.6,0,0,0-.593,2.219,3.619,3.619,0,0,0,.593,2.224,2.216,2.216,0,0,0,3.379,0,3.639,3.639,0,0,0,.589-2.224,3.619,3.619,0,0,0-.589-2.219A1.99,1.99,0,0,0,138.621,6.23Zm-1.477-3.1L138.832.5h2.795l-2.672,2.628Zm12.684,3.146a1.744,1.744,0,0,0-1.749,1.081,3.713,3.713,0,0,0-.246,1.459V14h-2.5V4.438h2.417v1.4a4.252,4.252,0,0,1,.914-1.063,3.177,3.177,0,0,1,1.96-.58,3.7,3.7,0,0,1,2.43.778A3.163,3.163,0,0,1,154,7.549V14h-2.566V8.173a2.659,2.659,0,0,0-.2-1.16A1.422,1.422,0,0,0,149.829,6.274Zm15.384,5.212,1.978-7.066h2.663l-3.287,9.422a13.23,13.23,0,0,1-1.5,3.379,2.856,2.856,0,0,1-2.215.655q-.334,0-.536,0t-.606-.031v-2l.316.018a3.948,3.948,0,0,0,.7-.026,1.262,1.262,0,0,0,.563-.2A1.352,1.352,0,0,0,163.7,15a1.319,1.319,0,0,0,.154-.58l-3.516-10h2.786Zm19.322-.3a3.178,3.178,0,0,1-.888,1.731,4.349,4.349,0,0,1-3.445,1.4,4.858,4.858,0,0,1-3.226-1.178,4.75,4.75,0,0,1-1.4-3.832,5.326,5.326,0,0,1,1.261-3.814,4.312,4.312,0,0,1,3.274-1.327,5.021,5.021,0,0,1,2.153.448,3.772,3.772,0,0,1,1.582,1.415,4.828,4.828,0,0,1,.729,1.978,12.771,12.771,0,0,1,.079,1.9H178.1a2.381,2.381,0,0,0,.905,2.021,2.132,2.132,0,0,0,1.248.36,1.8,1.8,0,0,0,1.257-.439,2.087,2.087,0,0,0,.466-.659Zm-2.479-2.936a2.181,2.181,0,0,0-.6-1.507,1.87,1.87,0,0,0-1.34-.514,1.7,1.7,0,0,0-1.349.545,2.72,2.72,0,0,0-.6,1.477ZM186.4,1.045h2.5V14h-2.5Zm13.15,10.143a3.178,3.178,0,0,1-.888,1.731,4.349,4.349,0,0,1-3.445,1.4,4.858,4.858,0,0,1-3.226-1.178,4.75,4.75,0,0,1-1.4-3.832,5.326,5.326,0,0,1,1.261-3.814,4.312,4.312,0,0,1,3.274-1.327,5.021,5.021,0,0,1,2.153.448,3.772,3.772,0,0,1,1.582,1.415,4.828,4.828,0,0,1,.729,1.978,12.771,12.771,0,0,1,.079,1.9h-6.557a2.381,2.381,0,0,0,.905,2.021,2.132,2.132,0,0,0,1.248.36,1.8,1.8,0,0,0,1.257-.439,2.087,2.087,0,0,0,.466-.659Zm-2.479-2.936a2.181,2.181,0,0,0-.6-1.507,1.87,1.87,0,0,0-1.34-.514,1.7,1.7,0,0,0-1.349.545,2.72,2.72,0,0,0-.6,1.477Zm12.579-.4h-2.566a2.223,2.223,0,0,0-.36-.967,1.511,1.511,0,0,0-1.31-.58,1.725,1.725,0,0,0-1.731,1.257,5.255,5.255,0,0,0-.246,1.775,4.832,4.832,0,0,0,.246,1.7,1.671,1.671,0,0,0,1.688,1.2,1.488,1.488,0,0,0,1.248-.475,2.362,2.362,0,0,0,.448-1.23h2.558a4.191,4.191,0,0,1-.826,2.162,4.016,4.016,0,0,1-3.489,1.644,4.082,4.082,0,0,1-3.4-1.371,5.548,5.548,0,0,1-1.09-3.56,5.63,5.63,0,0,1,1.2-3.841,4.191,4.191,0,0,1,3.322-1.371A5,5,0,0,1,208.293,5,3.761,3.761,0,0,1,209.651,7.856Zm10.013,0H217.1a2.223,2.223,0,0,0-.36-.967,1.511,1.511,0,0,0-1.31-.58A1.725,1.725,0,0,0,213.7,7.566a5.255,5.255,0,0,0-.246,1.775,4.832,4.832,0,0,0,.246,1.7,1.671,1.671,0,0,0,1.688,1.2,1.488,1.488,0,0,0,1.248-.475,2.362,2.362,0,0,0,.448-1.23h2.558a4.191,4.191,0,0,1-.826,2.162,4.016,4.016,0,0,1-3.489,1.644,4.082,4.082,0,0,1-3.4-1.371,5.548,5.548,0,0,1-1.09-3.56,5.63,5.63,0,0,1,1.2-3.841,4.191,4.191,0,0,1,3.322-1.371A5,5,0,0,1,218.305,5,3.761,3.761,0,0,1,219.663,7.856Zm4.3-3.437V14h-2.54V4.42Zm0-3.454V3.277h-2.54V.966ZM234.38,5.633a5.59,5.59,0,0,1,1.213,3.595,5.553,5.553,0,0,1-1.213,3.608,5.274,5.274,0,0,1-7.365,0A5.553,5.553,0,0,1,225.8,9.228a5.59,5.59,0,0,1,1.213-3.595,5.22,5.22,0,0,1,7.365,0Zm-3.691.6A2,2,0,0,0,229,7.008a3.6,3.6,0,0,0-.593,2.219A3.619,3.619,0,0,0,229,11.451a2.216,2.216,0,0,0,3.379,0,3.639,3.639,0,0,0,.589-2.224,3.619,3.619,0,0,0-.589-2.219A1.99,1.99,0,0,0,230.688,6.23Zm-1.477-3.1L230.9.5h2.795l-2.672,2.628ZM241.9,6.274a1.744,1.744,0,0,0-1.749,1.081,3.713,3.713,0,0,0-.246,1.459V14h-2.5V4.438h2.417v1.4a4.252,4.252,0,0,1,.914-1.063,3.177,3.177,0,0,1,1.96-.58,3.7,3.7,0,0,1,2.43.778,3.163,3.163,0,0,1,.945,2.58V14H243.5V8.173a2.659,2.659,0,0,0-.2-1.16A1.422,1.422,0,0,0,241.9,6.274Zm20.21-5.212V14h-2.435V12.673a3.533,3.533,0,0,1-1.222,1.239,3.43,3.43,0,0,1-1.705.387,3.56,3.56,0,0,1-2.826-1.358,5.215,5.215,0,0,1-1.147-3.485A6,6,0,0,1,253.9,5.6a3.674,3.674,0,0,1,3.019-1.406,3.09,3.09,0,0,1,1.547.382,3.043,3.043,0,0,1,1.1,1.059V1.063Zm-6.75,8.209a3.767,3.767,0,0,0,.527,2.118,1.756,1.756,0,0,0,1.582.8,1.849,1.849,0,0,0,1.617-.791,3.5,3.5,0,0,0,.554-2.048,3.141,3.141,0,0,0-.888-2.514,1.91,1.91,0,0,0-1.266-.457,1.759,1.759,0,0,0-1.613.831A3.848,3.848,0,0,0,255.356,9.271Zm17.228,1.916a3.178,3.178,0,0,1-.888,1.731,4.349,4.349,0,0,1-3.445,1.4,4.858,4.858,0,0,1-3.226-1.178,4.75,4.75,0,0,1-1.4-3.832,5.326,5.326,0,0,1,1.261-3.814,4.312,4.312,0,0,1,3.274-1.327,5.021,5.021,0,0,1,2.153.448A3.772,3.772,0,0,1,271.9,6.028a4.828,4.828,0,0,1,.729,1.978,12.771,12.771,0,0,1,.079,1.9h-6.557a2.381,2.381,0,0,0,.905,2.021,2.132,2.132,0,0,0,1.248.36,1.8,1.8,0,0,0,1.257-.439,2.087,2.087,0,0,0,.466-.659Zm-2.479-2.936a2.181,2.181,0,0,0-.6-1.507,1.87,1.87,0,0,0-1.34-.514,1.7,1.7,0,0,0-1.349.545,2.72,2.72,0,0,0-.6,1.477Zm9.346-7.207h2.5V14h-2.5Zm5.31,4.412a4.09,4.09,0,0,1,3.41-1.266,6.059,6.059,0,0,1,2.795.624,2.4,2.4,0,0,1,1.222,2.355v4.395q0,.457.018,1.107a1.392,1.392,0,0,0,.149.668.9.9,0,0,0,.369.29V14H290a2.79,2.79,0,0,1-.158-.545q-.044-.255-.07-.58a5.146,5.146,0,0,1-1.2.958,3.6,3.6,0,0,1-1.828.466,3.143,3.143,0,0,1-2.149-.743,2.649,2.649,0,0,1-.848-2.1,2.732,2.732,0,0,1,1.362-2.558,6.049,6.049,0,0,1,2.2-.615l.853-.105a3.91,3.91,0,0,0,.993-.22.753.753,0,0,0,.536-.712.845.845,0,0,0-.409-.813,2.553,2.553,0,0,0-1.2-.224,1.563,1.563,0,0,0-1.257.439,1.827,1.827,0,0,0-.352.879h-2.417A3.676,3.676,0,0,1,284.763,5.457Zm1.863,6.732a1.309,1.309,0,0,0,.861.29,2.551,2.551,0,0,0,1.49-.475,2.024,2.024,0,0,0,.708-1.731V9.342a2.722,2.722,0,0,1-.479.242,4.006,4.006,0,0,1-.664.171l-.562.105a3.632,3.632,0,0,0-1.134.343,1.149,1.149,0,0,0-.58,1.063A1.1,1.1,0,0,0,286.626,12.189Zm-152.106,26a3.178,3.178,0,0,1-.888,1.731,4.349,4.349,0,0,1-3.445,1.4,4.858,4.858,0,0,1-3.226-1.178,4.75,4.75,0,0,1-1.4-3.832,5.326,5.326,0,0,1,1.261-3.814,4.312,4.312,0,0,1,3.274-1.327,5.021,5.021,0,0,1,2.153.448,3.772,3.772,0,0,1,1.582,1.415,4.828,4.828,0,0,1,.729,1.978,12.771,12.771,0,0,1,.079,1.9h-6.557a2.381,2.381,0,0,0,.905,2.021,2.132,2.132,0,0,0,1.248.36,1.8,1.8,0,0,0,1.257-.439,2.087,2.087,0,0,0,.466-.659Zm-2.479-2.936a2.181,2.181,0,0,0-.6-1.507,1.87,1.87,0,0,0-1.34-.514,1.7,1.7,0,0,0-1.349.545,2.72,2.72,0,0,0-.6,1.477Zm10.891-3.393a3.086,3.086,0,0,1,1.292,2.479h-2.5a1.482,1.482,0,0,0-.272-.765,1.714,1.714,0,0,0-1.406-.51,2.021,2.021,0,0,0-1.165.255.734.734,0,0,0-.347.6.654.654,0,0,0,.369.624,15.98,15.98,0,0,0,2.61.694A4.8,4.8,0,0,1,143.75,36.3a2.415,2.415,0,0,1,.738,1.8,2.911,2.911,0,0,1-1.059,2.325,6.354,6.354,0,0,1-6.609-.053,3.1,3.1,0,0,1-1.077-2.43h2.54a1.673,1.673,0,0,0,.343.949,2.317,2.317,0,0,0,1.723.5,2.626,2.626,0,0,0,1.173-.22.737.737,0,0,0,.083-1.3,14.3,14.3,0,0,0-2.61-.756A5.437,5.437,0,0,1,136.7,36.1a2.191,2.191,0,0,1-.668-1.723,2.988,2.988,0,0,1,1.042-2.281,4.183,4.183,0,0,1,2.931-.954A5.427,5.427,0,0,1,142.933,31.859Zm7.8,7.356v1.872l-1.187.044a3.184,3.184,0,0,1-2.426-.615,1.832,1.832,0,0,1-.422-1.327v-5.9H145.36V31.508H146.7V28.836h2.479v2.672h1.556v1.784h-1.556v5.063a1.14,1.14,0,0,0,.149.734,1.645,1.645,0,0,0,.914.145q.114,0,.242,0T150.73,39.216Zm6.427-5.484a2.078,2.078,0,0,0-2.03.984,3.829,3.829,0,0,0-.29,1.705V41h-2.522V31.42H154.7v1.67a5.3,5.3,0,0,1,1.011-1.31,2.752,2.752,0,0,1,1.828-.589q.07,0,.119,0l.215.013v2.566q-.237-.026-.422-.035T157.157,33.731Zm2.551-1.274a4.09,4.09,0,0,1,3.41-1.266,6.059,6.059,0,0,1,2.795.624,2.4,2.4,0,0,1,1.222,2.355v4.395q0,.457.018,1.107a1.392,1.392,0,0,0,.149.668.9.9,0,0,0,.369.29V41h-2.725a2.79,2.79,0,0,1-.158-.545q-.044-.255-.07-.58a5.146,5.146,0,0,1-1.2.958,3.6,3.6,0,0,1-1.828.466,3.143,3.143,0,0,1-2.149-.743,2.649,2.649,0,0,1-.848-2.1,2.732,2.732,0,0,1,1.362-2.558,6.049,6.049,0,0,1,2.2-.615l.853-.105a3.91,3.91,0,0,0,.993-.22.753.753,0,0,0,.536-.712.845.845,0,0,0-.409-.813,2.553,2.553,0,0,0-1.2-.224,1.563,1.563,0,0,0-1.257.439,1.827,1.827,0,0,0-.352.879H159A3.676,3.676,0,0,1,159.708,32.457Zm1.863,6.732a1.309,1.309,0,0,0,.861.29,2.551,2.551,0,0,0,1.49-.475,2.024,2.024,0,0,0,.708-1.731v-.932a2.722,2.722,0,0,1-.479.242,4.006,4.006,0,0,1-.664.171l-.562.105a3.632,3.632,0,0,0-1.134.343,1.149,1.149,0,0,0-.58,1.063A1.1,1.1,0,0,0,161.571,39.189Zm12.175.026v1.872l-1.187.044a3.184,3.184,0,0,1-2.426-.615,1.832,1.832,0,0,1-.422-1.327v-5.9h-1.336V31.508h1.336V28.836h2.479v2.672h1.556v1.784H172.19v5.063a1.14,1.14,0,0,0,.149.734,1.645,1.645,0,0,0,.914.145q.114,0,.242,0T173.746,39.216Zm9.81-1.028a3.178,3.178,0,0,1-.888,1.731,4.349,4.349,0,0,1-3.445,1.4A4.858,4.858,0,0,1,176,40.139a4.75,4.75,0,0,1-1.4-3.832,5.326,5.326,0,0,1,1.261-3.814,4.312,4.312,0,0,1,3.274-1.327,5.021,5.021,0,0,1,2.153.448,3.772,3.772,0,0,1,1.582,1.415,4.828,4.828,0,0,1,.729,1.978,12.771,12.771,0,0,1,.079,1.9h-6.557a2.381,2.381,0,0,0,.905,2.021,2.132,2.132,0,0,0,1.248.36,1.8,1.8,0,0,0,1.257-.439,2.087,2.087,0,0,0,.466-.659Zm-2.479-2.936a2.181,2.181,0,0,0-.6-1.507,1.87,1.87,0,0,0-1.34-.514,1.7,1.7,0,0,0-1.349.545,2.72,2.72,0,0,0-.6,1.477Zm7,7.427a2.117,2.117,0,0,0,1.362.343,1.83,1.83,0,0,0,1.811-.905,4.585,4.585,0,0,0,.3-1.951V39.55a3.055,3.055,0,0,1-.773.923,3.11,3.11,0,0,1-1.942.571,3.676,3.676,0,0,1-2.949-1.3,5.241,5.241,0,0,1-1.1-3.511,5.919,5.919,0,0,1,1.063-3.59,3.514,3.514,0,0,1,3.015-1.455,3.3,3.3,0,0,1,1.257.22,3.01,3.01,0,0,1,1.477,1.389V31.42h2.435v9.088A5.09,5.09,0,0,1,193.4,43.3q-1.072,1.617-4.113,1.617a5.6,5.6,0,0,1-3-.721,2.659,2.659,0,0,1-1.283-2.153h2.725A1.128,1.128,0,0,0,188.075,42.679Zm-.422-4.948a1.833,1.833,0,0,0,1.828,1.213,1.935,1.935,0,0,0,1.485-.664,3.072,3.072,0,0,0,.606-2.114A3.235,3.235,0,0,0,191,34.092a1.882,1.882,0,0,0-1.542-.712,1.818,1.818,0,0,0-1.819,1.239,4.395,4.395,0,0,0-.264,1.626A3.71,3.71,0,0,0,187.654,37.73ZM198.94,31.42V41H196.4V31.42Zm0-3.454v2.312H196.4V27.966Zm2.788,4.491a4.09,4.09,0,0,1,3.41-1.266,6.059,6.059,0,0,1,2.795.624,2.4,2.4,0,0,1,1.222,2.355v4.395q0,.457.018,1.107a1.392,1.392,0,0,0,.149.668.9.9,0,0,0,.369.29V41h-2.725a2.79,2.79,0,0,1-.158-.545q-.044-.255-.07-.58a5.146,5.146,0,0,1-1.2.958,3.6,3.6,0,0,1-1.828.466,3.143,3.143,0,0,1-2.149-.743,2.649,2.649,0,0,1-.848-2.1,2.732,2.732,0,0,1,1.362-2.558,6.049,6.049,0,0,1,2.2-.615l.853-.105a3.91,3.91,0,0,0,.993-.22.753.753,0,0,0,.536-.712.845.845,0,0,0-.409-.813,2.553,2.553,0,0,0-1.2-.224,1.563,1.563,0,0,0-1.257.439,1.827,1.827,0,0,0-.352.879h-2.417A3.676,3.676,0,0,1,201.728,32.457Zm1.863,6.732a1.309,1.309,0,0,0,.861.29,2.551,2.551,0,0,0,1.49-.475,2.024,2.024,0,0,0,.708-1.731v-.932a2.722,2.722,0,0,1-.479.242,4.006,4.006,0,0,1-.664.171l-.562.105a3.632,3.632,0,0,0-1.134.343,1.149,1.149,0,0,0-.58,1.063A1.1,1.1,0,0,0,203.592,39.189Zm7.745-.809H214V41h-2.663Z" transform="translate(419.818 3233.988)" fill="#0b0a0a"/>
    <path id="Contenido-6" data-name="Contenido" d="M8.262,23.527q-4.058,0-5.691-2.842t-1.633-8.1q0-5.259,1.633-8.115T8.262,1.613q4.058,0,5.7,2.856t1.626,8.115q0,5.259-1.633,8.1T8.262,23.527Zm2.446-5.347a20.9,20.9,0,0,0,.571-5.6A20.5,20.5,0,0,0,10.7,6.9,2.364,2.364,0,0,0,8.262,5.056,2.4,2.4,0,0,0,5.8,6.9a19.784,19.784,0,0,0-.6,5.684,20.007,20.007,0,0,0,.6,5.6,2.418,2.418,0,0,0,2.461,1.941A2.4,2.4,0,0,0,10.708,18.181Zm16.406-12.1a2.631,2.631,0,0,0-2.139-.894,2.608,2.608,0,0,0-2.593,1.421,7.047,7.047,0,0,0-.469,2.607H17.856a10.261,10.261,0,0,1,.981-4.38q1.67-3.179,5.933-3.179a7.523,7.523,0,0,1,5.361,1.868,6.458,6.458,0,0,1,1.992,4.944,6.693,6.693,0,0,1-1.406,4.189,14.01,14.01,0,0,1-3.032,2.71l-1.67,1.187q-1.567,1.113-2.146,1.611a4.722,4.722,0,0,0-.974,1.157h9.272V23H17.622a9.981,9.981,0,0,1,.981-4.175q.894-2.124,4.219-4.5a30.938,30.938,0,0,0,3.735-2.959,4.373,4.373,0,0,0,1.3-3.047A3.375,3.375,0,0,0,27.114,6.081Z" transform="translate(312 3207.488)" fill="#fff"/>
    <g transform="matrix(1, 0, 0, 1, 276, 3035)" filter="url(#Trazado_1015928)">
      <path id="Trazado_1015928-2" data-name="Trazado 1015928" d="M15,0H595a15,15,0,0,1,15,15V78.169a15,15,0,0,1-15,15H15a15,15,0,0,1-15-15V15A15,15,0,0,1,15,0Z" transform="translate(9 303.91)" fill="#e89076"/>
    </g>
    <path id="Trazado_1015929" data-name="Trazado 1015929" d="M61.776,1.045h2.689V14H61.776Zm10.39,6.012a1.227,1.227,0,0,0-1.239-.694,1.479,1.479,0,0,0-1.441.694,2.675,2.675,0,0,0-.2,1.178V14h-2.54V4.438h2.435v1.4a4.031,4.031,0,0,1,.879-1.063,3.478,3.478,0,0,1,3.665-.079,2.812,2.812,0,0,1,.826,1.151A3.185,3.185,0,0,1,75.77,4.6a3.728,3.728,0,0,1,1.723-.4,3.335,3.335,0,0,1,1.248.246,2.784,2.784,0,0,1,1.116.861,2.752,2.752,0,0,1,.545,1.23,8.5,8.5,0,0,1,.088,1.415L80.472,14H77.906V7.9A2,2,0,0,0,77.73,7a1.249,1.249,0,0,0-1.23-.668,1.44,1.44,0,0,0-1.433.861,2.7,2.7,0,0,0-.2,1.1V14H72.342V8.3A3.2,3.2,0,0,0,72.167,7.057ZM90.819,5.448a5.14,5.14,0,0,1,1.16,3.639,5.771,5.771,0,0,1-1.138,3.858,3.685,3.685,0,0,1-2.931,1.327,3.059,3.059,0,0,1-1.9-.571,3.683,3.683,0,0,1-.809-.923v4.992H82.724V4.42h2.4V5.835a4.021,4.021,0,0,1,.861-.984,3.165,3.165,0,0,1,1.986-.642A3.767,3.767,0,0,1,90.819,5.448ZM89.395,9.21a3.77,3.77,0,0,0-.505-1.96A1.759,1.759,0,0,0,87.25,6.4a1.865,1.865,0,0,0-1.872,1.292,4.9,4.9,0,0,0-.264,1.74A2.776,2.776,0,0,0,86,11.776a2.021,2.021,0,0,0,1.248.4,1.809,1.809,0,0,0,1.6-.809A3.771,3.771,0,0,0,89.395,9.21Zm4.449-8.165h2.5V14h-2.5Zm5.31,4.412a4.09,4.09,0,0,1,3.41-1.266,6.059,6.059,0,0,1,2.795.624,2.4,2.4,0,0,1,1.222,2.355v4.395q0,.457.018,1.107a1.392,1.392,0,0,0,.149.668.9.9,0,0,0,.369.29V14h-2.725a2.79,2.79,0,0,1-.158-.545q-.044-.255-.07-.58a5.146,5.146,0,0,1-1.2.958,3.6,3.6,0,0,1-1.828.466,3.143,3.143,0,0,1-2.149-.743,2.649,2.649,0,0,1-.848-2.1,2.732,2.732,0,0,1,1.362-2.558,6.049,6.049,0,0,1,2.2-.615l.853-.105a3.91,3.91,0,0,0,.993-.22.753.753,0,0,0,.536-.712.845.845,0,0,0-.409-.813,2.553,2.553,0,0,0-1.2-.224,1.563,1.563,0,0,0-1.257.439,1.827,1.827,0,0,0-.352.879H98.451A3.676,3.676,0,0,1,99.154,5.457Zm1.863,6.732a1.309,1.309,0,0,0,.861.29,2.551,2.551,0,0,0,1.49-.475,2.024,2.024,0,0,0,.708-1.731V9.342a2.722,2.722,0,0,1-.479.242,4.006,4.006,0,0,1-.664.171l-.562.105a3.632,3.632,0,0,0-1.134.343,1.149,1.149,0,0,0-.58,1.063A1.1,1.1,0,0,0,101.018,12.189Zm12.3-5.915a1.744,1.744,0,0,0-1.749,1.081,3.713,3.713,0,0,0-.246,1.459V14h-2.5V4.438h2.417v1.4a4.252,4.252,0,0,1,.914-1.063,3.177,3.177,0,0,1,1.96-.58,3.7,3.7,0,0,1,2.43.778,3.163,3.163,0,0,1,.945,2.58V14h-2.566V8.173a2.659,2.659,0,0,0-.2-1.16A1.422,1.422,0,0,0,113.315,6.274Zm10.874,5.941v1.872L123,14.132a3.184,3.184,0,0,1-2.426-.615,1.832,1.832,0,0,1-.422-1.327v-5.9h-1.336V4.508h1.336V1.836h2.479V4.508h1.556V6.292h-1.556v5.063a1.14,1.14,0,0,0,.149.734,1.645,1.645,0,0,0,.914.145q.114,0,.242,0T124.189,12.216Zm1.971-6.759a4.09,4.09,0,0,1,3.41-1.266,6.059,6.059,0,0,1,2.795.624,2.4,2.4,0,0,1,1.222,2.355v4.395q0,.457.018,1.107a1.392,1.392,0,0,0,.149.668.9.9,0,0,0,.369.29V14H131.4a2.79,2.79,0,0,1-.158-.545q-.044-.255-.07-.58a5.146,5.146,0,0,1-1.2.958,3.6,3.6,0,0,1-1.828.466A3.143,3.143,0,0,1,126,13.556a2.649,2.649,0,0,1-.848-2.1,2.732,2.732,0,0,1,1.362-2.558,6.049,6.049,0,0,1,2.2-.615l.853-.105a3.91,3.91,0,0,0,.993-.22.753.753,0,0,0,.536-.712.845.845,0,0,0-.409-.813,2.553,2.553,0,0,0-1.2-.224,1.563,1.563,0,0,0-1.257.439,1.827,1.827,0,0,0-.352.879h-2.417A3.676,3.676,0,0,1,126.16,5.457Zm1.863,6.732a1.309,1.309,0,0,0,.861.29,2.551,2.551,0,0,0,1.49-.475,2.024,2.024,0,0,0,.708-1.731V9.342a2.722,2.722,0,0,1-.479.242,4.006,4.006,0,0,1-.664.171l-.562.105a3.632,3.632,0,0,0-1.134.343,1.149,1.149,0,0,0-.58,1.063A1.1,1.1,0,0,0,128.023,12.189ZM144.1,7.856h-2.566a2.223,2.223,0,0,0-.36-.967,1.511,1.511,0,0,0-1.31-.58,1.725,1.725,0,0,0-1.731,1.257,5.255,5.255,0,0,0-.246,1.775,4.832,4.832,0,0,0,.246,1.7,1.671,1.671,0,0,0,1.688,1.2,1.488,1.488,0,0,0,1.248-.475,2.362,2.362,0,0,0,.448-1.23h2.558a4.191,4.191,0,0,1-.826,2.162,4.016,4.016,0,0,1-3.489,1.644,4.082,4.082,0,0,1-3.4-1.371,5.548,5.548,0,0,1-1.09-3.56,5.63,5.63,0,0,1,1.2-3.841,4.191,4.191,0,0,1,3.322-1.371A5,5,0,0,1,142.742,5,3.761,3.761,0,0,1,144.1,7.856Zm4.3-3.437V14h-2.54V4.42Zm0-3.454V3.277h-2.54V.966Zm10.417,4.667a5.59,5.59,0,0,1,1.213,3.595,5.553,5.553,0,0,1-1.213,3.608,5.274,5.274,0,0,1-7.365,0,5.553,5.553,0,0,1-1.213-3.608,5.59,5.59,0,0,1,1.213-3.595,5.22,5.22,0,0,1,7.365,0Zm-3.691.6a2,2,0,0,0-1.692.778,3.6,3.6,0,0,0-.593,2.219,3.619,3.619,0,0,0,.593,2.224,2.216,2.216,0,0,0,3.379,0,3.639,3.639,0,0,0,.589-2.224,3.619,3.619,0,0,0-.589-2.219A1.99,1.99,0,0,0,155.125,6.23Zm-1.477-3.1L155.336.5h2.795l-2.672,2.628Zm12.684,3.146a1.744,1.744,0,0,0-1.749,1.081,3.713,3.713,0,0,0-.246,1.459V14h-2.5V4.438h2.417v1.4a4.252,4.252,0,0,1,.914-1.063,3.177,3.177,0,0,1,1.96-.58,3.7,3.7,0,0,1,2.43.778,3.163,3.163,0,0,1,.945,2.58V14h-2.566V8.173a2.659,2.659,0,0,0-.2-1.16A1.422,1.422,0,0,0,166.333,6.274Zm20.21-5.212V14h-2.435V12.673a3.533,3.533,0,0,1-1.222,1.239,3.43,3.43,0,0,1-1.705.387,3.56,3.56,0,0,1-2.826-1.358,5.215,5.215,0,0,1-1.147-3.485A6,6,0,0,1,178.338,5.6a3.674,3.674,0,0,1,3.019-1.406,3.09,3.09,0,0,1,1.547.382A3.043,3.043,0,0,1,184,5.633V1.063Zm-6.75,8.209a3.767,3.767,0,0,0,.527,2.118,1.756,1.756,0,0,0,1.582.8,1.849,1.849,0,0,0,1.617-.791,3.5,3.5,0,0,0,.554-2.048,3.141,3.141,0,0,0-.888-2.514,1.91,1.91,0,0,0-1.266-.457,1.759,1.759,0,0,0-1.613.831A3.848,3.848,0,0,0,179.793,9.271Zm17.228,1.916a3.178,3.178,0,0,1-.888,1.731,4.349,4.349,0,0,1-3.445,1.4,4.858,4.858,0,0,1-3.226-1.178,4.75,4.75,0,0,1-1.4-3.832,5.326,5.326,0,0,1,1.261-3.814A4.312,4.312,0,0,1,192.6,4.165a5.021,5.021,0,0,1,2.153.448,3.772,3.772,0,0,1,1.582,1.415,4.828,4.828,0,0,1,.729,1.978,12.771,12.771,0,0,1,.079,1.9h-6.557a2.381,2.381,0,0,0,.905,2.021,2.132,2.132,0,0,0,1.248.36A1.8,1.8,0,0,0,194,11.847a2.087,2.087,0,0,0,.466-.659Zm-2.479-2.936a2.181,2.181,0,0,0-.6-1.507,1.87,1.87,0,0,0-1.34-.514,1.7,1.7,0,0,0-1.349.545,2.72,2.72,0,0,0-.6,1.477Zm9.346-7.207h2.5V14h-2.5Zm5.31,4.412a4.09,4.09,0,0,1,3.41-1.266,6.059,6.059,0,0,1,2.795.624,2.4,2.4,0,0,1,1.222,2.355v4.395q0,.457.018,1.107a1.392,1.392,0,0,0,.149.668.9.9,0,0,0,.369.29V14h-2.725a2.79,2.79,0,0,1-.158-.545q-.044-.255-.07-.58a5.146,5.146,0,0,1-1.2.958,3.6,3.6,0,0,1-1.828.466,3.143,3.143,0,0,1-2.149-.743,2.649,2.649,0,0,1-.848-2.1,2.732,2.732,0,0,1,1.362-2.558,6.049,6.049,0,0,1,2.2-.615l.853-.105a3.91,3.91,0,0,0,.993-.22.753.753,0,0,0,.536-.712.845.845,0,0,0-.409-.813,2.553,2.553,0,0,0-1.2-.224,1.563,1.563,0,0,0-1.257.439,1.827,1.827,0,0,0-.352.879H208.5A3.676,3.676,0,0,1,209.2,5.457Zm1.863,6.732a1.309,1.309,0,0,0,.861.29,2.551,2.551,0,0,0,1.49-.475,2.024,2.024,0,0,0,.708-1.731V9.342a2.722,2.722,0,0,1-.479.242,4.006,4.006,0,0,1-.664.171l-.562.105a3.632,3.632,0,0,0-1.134.343,1.149,1.149,0,0,0-.58,1.063A1.1,1.1,0,0,0,211.063,12.189Zm20.992-1a3.178,3.178,0,0,1-.888,1.731,4.349,4.349,0,0,1-3.445,1.4,4.858,4.858,0,0,1-3.226-1.178,4.75,4.75,0,0,1-1.4-3.832,5.326,5.326,0,0,1,1.261-3.814,4.312,4.312,0,0,1,3.274-1.327,5.021,5.021,0,0,1,2.153.448,3.772,3.772,0,0,1,1.582,1.415,4.828,4.828,0,0,1,.729,1.978,12.771,12.771,0,0,1,.079,1.9h-6.557a2.381,2.381,0,0,0,.905,2.021,2.132,2.132,0,0,0,1.248.36,1.8,1.8,0,0,0,1.257-.439,2.087,2.087,0,0,0,.466-.659Zm-2.479-2.936a2.181,2.181,0,0,0-.6-1.507,1.87,1.87,0,0,0-1.34-.514,1.7,1.7,0,0,0-1.349.545,2.72,2.72,0,0,0-.6,1.477Zm10.891-3.393a3.086,3.086,0,0,1,1.292,2.479h-2.5a1.482,1.482,0,0,0-.272-.765,1.714,1.714,0,0,0-1.406-.51,2.021,2.021,0,0,0-1.165.255.734.734,0,0,0-.347.6.654.654,0,0,0,.369.624,15.98,15.98,0,0,0,2.61.694A4.8,4.8,0,0,1,241.285,9.3a2.415,2.415,0,0,1,.738,1.8,2.911,2.911,0,0,1-1.059,2.325,6.354,6.354,0,0,1-6.609-.053,3.1,3.1,0,0,1-1.077-2.43h2.54a1.673,1.673,0,0,0,.343.949,2.317,2.317,0,0,0,1.723.5,2.626,2.626,0,0,0,1.173-.22.737.737,0,0,0,.083-1.3,14.3,14.3,0,0,0-2.61-.756A5.437,5.437,0,0,1,234.236,9.1a2.191,2.191,0,0,1-.668-1.723A2.988,2.988,0,0,1,234.609,5.1a4.183,4.183,0,0,1,2.931-.954A5.427,5.427,0,0,1,240.467,4.859Zm7.8,7.356v1.872l-1.187.044a3.184,3.184,0,0,1-2.426-.615,1.832,1.832,0,0,1-.422-1.327v-5.9h-1.336V4.508h1.336V1.836h2.479V4.508h1.556V6.292h-1.556v5.063a1.14,1.14,0,0,0,.149.734,1.645,1.645,0,0,0,.914.145q.114,0,.242,0T248.265,12.216Zm6.427-5.484a2.078,2.078,0,0,0-2.03.984,3.829,3.829,0,0,0-.29,1.705V14h-2.522V4.42h2.391V6.09a5.3,5.3,0,0,1,1.011-1.31,2.752,2.752,0,0,1,1.828-.589q.07,0,.119,0l.215.013V6.775q-.237-.026-.422-.035T254.692,6.731Zm2.551-1.274a4.09,4.09,0,0,1,3.41-1.266,6.059,6.059,0,0,1,2.795.624,2.4,2.4,0,0,1,1.222,2.355v4.395q0,.457.018,1.107a1.392,1.392,0,0,0,.149.668.9.9,0,0,0,.369.29V14h-2.725a2.79,2.79,0,0,1-.158-.545q-.044-.255-.07-.58a5.146,5.146,0,0,1-1.2.958,3.6,3.6,0,0,1-1.828.466,3.143,3.143,0,0,1-2.149-.743,2.649,2.649,0,0,1-.848-2.1,2.732,2.732,0,0,1,1.362-2.558,6.049,6.049,0,0,1,2.2-.615l.853-.105a3.91,3.91,0,0,0,.993-.22.753.753,0,0,0,.536-.712.845.845,0,0,0-.409-.813,2.553,2.553,0,0,0-1.2-.224,1.563,1.563,0,0,0-1.257.439,1.827,1.827,0,0,0-.352.879h-2.417A3.676,3.676,0,0,1,257.242,5.457Zm1.863,6.732a1.309,1.309,0,0,0,.861.29,2.551,2.551,0,0,0,1.49-.475,2.024,2.024,0,0,0,.708-1.731V9.342a2.722,2.722,0,0,1-.479.242,4.006,4.006,0,0,1-.664.171l-.562.105a3.632,3.632,0,0,0-1.134.343,1.149,1.149,0,0,0-.58,1.063A1.1,1.1,0,0,0,259.106,12.189Zm12.175.026v1.872l-1.187.044a3.184,3.184,0,0,1-2.426-.615,1.832,1.832,0,0,1-.422-1.327v-5.9H265.91V4.508h1.336V1.836h2.479V4.508h1.556V6.292h-1.556v5.063a1.14,1.14,0,0,0,.149.734,1.645,1.645,0,0,0,.914.145q.114,0,.242,0T271.28,12.216Zm9.81-1.028a3.178,3.178,0,0,1-.888,1.731,4.349,4.349,0,0,1-3.445,1.4,4.858,4.858,0,0,1-3.226-1.178,4.75,4.75,0,0,1-1.4-3.832A5.326,5.326,0,0,1,273.4,5.492a4.312,4.312,0,0,1,3.274-1.327,5.021,5.021,0,0,1,2.153.448,3.772,3.772,0,0,1,1.582,1.415,4.828,4.828,0,0,1,.729,1.978,12.771,12.771,0,0,1,.079,1.9h-6.557a2.381,2.381,0,0,0,.905,2.021,2.132,2.132,0,0,0,1.248.36,1.8,1.8,0,0,0,1.257-.439,2.087,2.087,0,0,0,.466-.659Zm-2.479-2.936a2.181,2.181,0,0,0-.6-1.507,1.87,1.87,0,0,0-1.34-.514,1.7,1.7,0,0,0-1.349.545,2.72,2.72,0,0,0-.6,1.477Zm7,7.427a2.117,2.117,0,0,0,1.362.343,1.83,1.83,0,0,0,1.811-.905,4.585,4.585,0,0,0,.3-1.951V12.55a3.055,3.055,0,0,1-.773.923,3.11,3.11,0,0,1-1.942.571,3.676,3.676,0,0,1-2.949-1.3,5.241,5.241,0,0,1-1.1-3.511,5.919,5.919,0,0,1,1.063-3.59,3.514,3.514,0,0,1,3.015-1.455,3.3,3.3,0,0,1,1.257.22A3.01,3.01,0,0,1,289.126,5.8V4.42h2.435v9.088a5.09,5.09,0,0,1-.624,2.795q-1.072,1.617-4.113,1.617a5.6,5.6,0,0,1-3-.721,2.659,2.659,0,0,1-1.283-2.153h2.725A1.128,1.128,0,0,0,285.61,15.679Zm-.422-4.948a1.833,1.833,0,0,0,1.828,1.213,1.935,1.935,0,0,0,1.485-.664,3.072,3.072,0,0,0,.606-2.114,3.235,3.235,0,0,0-.576-2.074,1.882,1.882,0,0,0-1.542-.712,1.818,1.818,0,0,0-1.819,1.239,4.395,4.395,0,0,0-.264,1.626A3.71,3.71,0,0,0,285.188,10.73ZM296.475,4.42V14h-2.54V4.42Zm0-3.454V3.277h-2.54V.966Zm2.788,4.491a4.09,4.09,0,0,1,3.41-1.266,6.059,6.059,0,0,1,2.795.624,2.4,2.4,0,0,1,1.222,2.355v4.395q0,.457.018,1.107a1.392,1.392,0,0,0,.149.668.9.9,0,0,0,.369.29V14H304.5a2.79,2.79,0,0,1-.158-.545q-.044-.255-.07-.58a5.146,5.146,0,0,1-1.2.958,3.6,3.6,0,0,1-1.828.466,3.143,3.143,0,0,1-2.149-.743,2.649,2.649,0,0,1-.848-2.1,2.732,2.732,0,0,1,1.362-2.558,6.049,6.049,0,0,1,2.2-.615l.853-.105a3.91,3.91,0,0,0,.993-.22.753.753,0,0,0,.536-.712.845.845,0,0,0-.409-.813,2.553,2.553,0,0,0-1.2-.224,1.563,1.563,0,0,0-1.257.439,1.827,1.827,0,0,0-.352.879H298.56A3.676,3.676,0,0,1,299.263,5.457Zm1.863,6.732a1.309,1.309,0,0,0,.861.29,2.551,2.551,0,0,0,1.49-.475,2.024,2.024,0,0,0,.708-1.731V9.342a2.722,2.722,0,0,1-.479.242,4.006,4.006,0,0,1-.664.171l-.562.105a3.632,3.632,0,0,0-1.134.343,1.149,1.149,0,0,0-.58,1.063A1.1,1.1,0,0,0,301.126,12.189Zm7.745-.809h2.663V14h-2.663Z" transform="translate(403.318 3373.991)" fill="#0b0a0a"/>
    <path id="Contenido-7" data-name="Contenido" d="M8.262,23.527q-4.058,0-5.691-2.842t-1.633-8.1q0-5.259,1.633-8.115T8.262,1.613q4.058,0,5.7,2.856t1.626,8.115q0,5.259-1.633,8.1T8.262,23.527Zm2.446-5.347a20.9,20.9,0,0,0,.571-5.6A20.5,20.5,0,0,0,10.7,6.9,2.364,2.364,0,0,0,8.262,5.056,2.4,2.4,0,0,0,5.8,6.9a19.784,19.784,0,0,0-.6,5.684,20.007,20.007,0,0,0,.6,5.6,2.418,2.418,0,0,0,2.461,1.941A2.4,2.4,0,0,0,10.708,18.181ZM22.427,5.993a3.948,3.948,0,0,0-.674,2.5h-3.9a10.477,10.477,0,0,1,.542-3A6.759,6.759,0,0,1,20.01,3.2a5.614,5.614,0,0,1,1.948-1.143,8.431,8.431,0,0,1,2.769-.4,7.368,7.368,0,0,1,4.915,1.575,5.245,5.245,0,0,1,1.868,4.226A4.672,4.672,0,0,1,30.4,10.622a3.8,3.8,0,0,1-1.465,1.1,3.013,3.013,0,0,1,1.641.981,5.241,5.241,0,0,1,1.6,4.043A6.81,6.81,0,0,1,30.3,21.484a7.119,7.119,0,0,1-5.53,2.043q-4.512,0-6.27-2.944a8.739,8.739,0,0,1-1.025-4.1h4.1a4.775,4.775,0,0,0,.41,2.109,2.81,2.81,0,0,0,2.769,1.538,3.068,3.068,0,0,0,2.146-.842,3.13,3.13,0,0,0,.916-2.424,2.731,2.731,0,0,0-1.7-2.8,8.626,8.626,0,0,0-3.047-.4V10.681a7.905,7.905,0,0,0,2.842-.4A2.443,2.443,0,0,0,27.3,7.795a2.783,2.783,0,0,0-.71-1.978,2.6,2.6,0,0,0-2-.762A2.51,2.51,0,0,0,22.427,5.993Z" transform="translate(312 3349.36)" fill="#fff"/>
    <g transform="matrix(1, 0, 0, 1, 276, 3035)" filter="url(#Trazado_1015930)">
      <path id="Trazado_1015930-2" data-name="Trazado 1015930" d="M15,0H595a15,15,0,0,1,15,15V78.169a15,15,0,0,1-15,15H15a15,15,0,0,1-15-15V15A15,15,0,0,1,15,0Z" transform="translate(9 446.74)" fill="#817489"/>
    </g>
    <path id="Trazado_1015931" data-name="Trazado 1015931" d="M70.68,12.128a4.767,4.767,0,0,0,1.556-.211,1.5,1.5,0,0,0,1.134-1.5,1.109,1.109,0,0,0-.562-.993,6.049,6.049,0,0,0-1.767-.606l-1.371-.308a8.664,8.664,0,0,1-2.795-.993,3.159,3.159,0,0,1-1.31-2.8A3.744,3.744,0,0,1,66.83,1.818,5.351,5.351,0,0,1,70.548.667a5.653,5.653,0,0,1,3.494,1.085A3.876,3.876,0,0,1,75.558,4.9h-2.6a1.858,1.858,0,0,0-1.02-1.661,3.419,3.419,0,0,0-1.573-.325,2.937,2.937,0,0,0-1.67.422,1.343,1.343,0,0,0-.624,1.178,1.115,1.115,0,0,0,.615,1.037,7.531,7.531,0,0,0,1.688.536l2.232.536a5.772,5.772,0,0,1,2.215.94,3.168,3.168,0,0,1,1.16,2.646,3.734,3.734,0,0,1-1.358,2.949,5.689,5.689,0,0,1-3.836,1.173A6.223,6.223,0,0,1,66.8,13.178,3.841,3.841,0,0,1,65.354,10h2.584a2.66,2.66,0,0,0,.483,1.327A2.781,2.781,0,0,0,70.68,12.128Zm15.3-.94a3.178,3.178,0,0,1-.888,1.731,4.349,4.349,0,0,1-3.445,1.4,4.858,4.858,0,0,1-3.226-1.178,4.75,4.75,0,0,1-1.4-3.832,5.326,5.326,0,0,1,1.261-3.814,4.312,4.312,0,0,1,3.274-1.327,5.021,5.021,0,0,1,2.153.448A3.772,3.772,0,0,1,85.3,6.028a4.828,4.828,0,0,1,.729,1.978,12.771,12.771,0,0,1,.079,1.9H79.55a2.381,2.381,0,0,0,.905,2.021,2.132,2.132,0,0,0,1.248.36,1.8,1.8,0,0,0,1.257-.439,2.087,2.087,0,0,0,.466-.659ZM83.5,8.252a2.181,2.181,0,0,0-.6-1.507,1.87,1.87,0,0,0-1.34-.514,1.7,1.7,0,0,0-1.349.545,2.72,2.72,0,0,0-.6,1.477Zm7,7.427a2.117,2.117,0,0,0,1.362.343,1.83,1.83,0,0,0,1.811-.905,4.585,4.585,0,0,0,.3-1.951V12.55a3.055,3.055,0,0,1-.773.923,3.11,3.11,0,0,1-1.942.571,3.676,3.676,0,0,1-2.949-1.3,5.241,5.241,0,0,1-1.1-3.511,5.919,5.919,0,0,1,1.063-3.59,3.514,3.514,0,0,1,3.015-1.455,3.3,3.3,0,0,1,1.257.22A3.01,3.01,0,0,1,94.018,5.8V4.42h2.435v9.088a5.09,5.09,0,0,1-.624,2.795q-1.072,1.617-4.113,1.617a5.6,5.6,0,0,1-3-.721,2.659,2.659,0,0,1-1.283-2.153H90.16A1.128,1.128,0,0,0,90.5,15.679Zm-.422-4.948a1.833,1.833,0,0,0,1.828,1.213,1.935,1.935,0,0,0,1.485-.664A3.072,3.072,0,0,0,94,9.166a3.235,3.235,0,0,0-.576-2.074,1.882,1.882,0,0,0-1.542-.712,1.818,1.818,0,0,0-1.819,1.239A4.395,4.395,0,0,0,89.8,9.245,3.71,3.71,0,0,0,90.081,10.73Zm14.855,1.916q-.035.044-.176.264a1.764,1.764,0,0,1-.334.387,3.488,3.488,0,0,1-1.138.721,3.879,3.879,0,0,1-1.288.193,2.87,2.87,0,0,1-2.865-1.529,5.852,5.852,0,0,1-.413-2.487V4.42h2.566v5.774a3.023,3.023,0,0,0,.193,1.23,1.338,1.338,0,0,0,1.345.729,1.758,1.758,0,0,0,1.758-1.037,3.754,3.754,0,0,0,.246-1.485V4.42h2.54V14h-2.435Zm7.429-8.227V14h-2.54V4.42Zm0-3.454V3.277h-2.54V.966Zm7.806,6.091a1.227,1.227,0,0,0-1.239-.694,1.479,1.479,0,0,0-1.441.694,2.675,2.675,0,0,0-.2,1.178V14h-2.54V4.438h2.435v1.4a4.031,4.031,0,0,1,.879-1.063,3.478,3.478,0,0,1,3.665-.079,2.812,2.812,0,0,1,.826,1.151A3.185,3.185,0,0,1,123.775,4.6a3.728,3.728,0,0,1,1.723-.4,3.335,3.335,0,0,1,1.248.246,2.784,2.784,0,0,1,1.116.861,2.752,2.752,0,0,1,.545,1.23,8.5,8.5,0,0,1,.088,1.415L128.477,14H125.91V7.9a2,2,0,0,0-.176-.9,1.249,1.249,0,0,0-1.23-.668,1.44,1.44,0,0,0-1.433.861,2.7,2.7,0,0,0-.2,1.1V14h-2.522V8.3A3.2,3.2,0,0,0,120.171,7.057Zm13.2-2.637V14h-2.54V4.42Zm0-3.454V3.277h-2.54V.966ZM144,11.188a3.178,3.178,0,0,1-.888,1.731,4.349,4.349,0,0,1-3.445,1.4,4.858,4.858,0,0,1-3.226-1.178,4.75,4.75,0,0,1-1.4-3.832,5.326,5.326,0,0,1,1.261-3.814,4.312,4.312,0,0,1,3.274-1.327,5.021,5.021,0,0,1,2.153.448,3.772,3.772,0,0,1,1.582,1.415,4.828,4.828,0,0,1,.729,1.978,12.771,12.771,0,0,1,.079,1.9h-6.557a2.381,2.381,0,0,0,.905,2.021,2.132,2.132,0,0,0,1.248.36,1.8,1.8,0,0,0,1.257-.439,2.087,2.087,0,0,0,.466-.659Zm-2.479-2.936a2.181,2.181,0,0,0-.6-1.507,1.87,1.87,0,0,0-1.34-.514,1.7,1.7,0,0,0-1.349.545,2.72,2.72,0,0,0-.6,1.477Zm8.8-1.978a1.744,1.744,0,0,0-1.749,1.081,3.713,3.713,0,0,0-.246,1.459V14h-2.5V4.438h2.417v1.4a4.252,4.252,0,0,1,.914-1.063,3.177,3.177,0,0,1,1.96-.58,3.7,3.7,0,0,1,2.43.778,3.163,3.163,0,0,1,.945,2.58V14h-2.566V8.173a2.659,2.659,0,0,0-.2-1.16A1.422,1.422,0,0,0,150.323,6.274ZM161.2,12.216v1.872l-1.187.044a3.184,3.184,0,0,1-2.426-.615,1.832,1.832,0,0,1-.422-1.327v-5.9h-1.336V4.508h1.336V1.836h2.479V4.508H161.2V6.292h-1.556v5.063a1.14,1.14,0,0,0,.149.734,1.645,1.645,0,0,0,.914.145q.114,0,.242,0T161.2,12.216Zm9.6-6.583a5.59,5.59,0,0,1,1.213,3.595,5.553,5.553,0,0,1-1.213,3.608,5.274,5.274,0,0,1-7.365,0,5.553,5.553,0,0,1-1.213-3.608,5.59,5.59,0,0,1,1.213-3.595,5.22,5.22,0,0,1,7.365,0Zm-3.691.6a2,2,0,0,0-1.692.778,3.6,3.6,0,0,0-.593,2.219,3.619,3.619,0,0,0,.593,2.224,2.216,2.216,0,0,0,3.379,0,3.639,3.639,0,0,0,.589-2.224,3.619,3.619,0,0,0-.589-2.219A1.99,1.99,0,0,0,167.1,6.23Zm15.6,5.256,1.978-7.066h2.663l-3.287,9.422a13.23,13.23,0,0,1-1.5,3.379,2.856,2.856,0,0,1-2.215.655q-.334,0-.536,0t-.606-.031v-2l.316.018a3.948,3.948,0,0,0,.7-.026,1.262,1.262,0,0,0,.563-.2,1.352,1.352,0,0,0,.409-.624,1.319,1.319,0,0,0,.154-.58l-3.516-10h2.786Zm19.41-3.63h-2.566a2.223,2.223,0,0,0-.36-.967,1.511,1.511,0,0,0-1.31-.58,1.725,1.725,0,0,0-1.731,1.257,5.255,5.255,0,0,0-.246,1.775,4.832,4.832,0,0,0,.246,1.7,1.671,1.671,0,0,0,1.688,1.2,1.488,1.488,0,0,0,1.248-.475,2.362,2.362,0,0,0,.448-1.23h2.558a4.191,4.191,0,0,1-.826,2.162,4.016,4.016,0,0,1-3.489,1.644,4.082,4.082,0,0,1-3.4-1.371,5.548,5.548,0,0,1-1.09-3.56,5.63,5.63,0,0,1,1.2-3.841A4.191,4.191,0,0,1,197.8,4.191,5,5,0,0,1,200.752,5,3.761,3.761,0,0,1,202.11,7.856Zm9.714-2.224a5.59,5.59,0,0,1,1.213,3.595,5.553,5.553,0,0,1-1.213,3.608,5.274,5.274,0,0,1-7.365,0,5.553,5.553,0,0,1-1.213-3.608,5.59,5.59,0,0,1,1.213-3.595,5.22,5.22,0,0,1,7.365,0Zm-3.691.6a2,2,0,0,0-1.692.778,3.6,3.6,0,0,0-.593,2.219,3.619,3.619,0,0,0,.593,2.224,2.216,2.216,0,0,0,3.379,0,3.639,3.639,0,0,0,.589-2.224,3.619,3.619,0,0,0-.589-2.219A1.99,1.99,0,0,0,208.132,6.23Zm11.208.044a1.744,1.744,0,0,0-1.749,1.081,3.713,3.713,0,0,0-.246,1.459V14h-2.5V4.438h2.417v1.4a4.252,4.252,0,0,1,.914-1.063,3.177,3.177,0,0,1,1.96-.58,3.7,3.7,0,0,1,2.43.778,3.163,3.163,0,0,1,.945,2.58V14h-2.566V8.173a2.659,2.659,0,0,0-.2-1.16A1.422,1.422,0,0,0,219.34,6.274Zm10.874,5.941v1.872l-1.187.044a3.184,3.184,0,0,1-2.426-.615,1.832,1.832,0,0,1-.422-1.327v-5.9h-1.336V4.508h1.336V1.836h2.479V4.508h1.556V6.292h-1.556v5.063a1.14,1.14,0,0,0,.149.734,1.645,1.645,0,0,0,.914.145q.114,0,.242,0T230.214,12.216Zm6.427-5.484a2.078,2.078,0,0,0-2.03.984,3.829,3.829,0,0,0-.29,1.705V14H231.8V4.42h2.391V6.09A5.3,5.3,0,0,1,235.2,4.78a2.752,2.752,0,0,1,1.828-.589q.07,0,.119,0l.215.013V6.775q-.237-.026-.422-.035T236.641,6.731Zm10.18-1.1a5.59,5.59,0,0,1,1.213,3.595,5.553,5.553,0,0,1-1.213,3.608,5.274,5.274,0,0,1-7.365,0,5.553,5.553,0,0,1-1.213-3.608,5.59,5.59,0,0,1,1.213-3.595,5.22,5.22,0,0,1,7.365,0Zm-3.691.6a2,2,0,0,0-1.692.778,3.6,3.6,0,0,0-.593,2.219,3.619,3.619,0,0,0,.593,2.224,2.216,2.216,0,0,0,3.379,0,3.639,3.639,0,0,0,.589-2.224,3.619,3.619,0,0,0-.589-2.219A1.99,1.99,0,0,0,243.129,6.23Zm6.752-5.186h2.5V14h-2.5Zm18.672.018V14h-2.435V12.673a3.533,3.533,0,0,1-1.222,1.239,3.43,3.43,0,0,1-1.705.387,3.56,3.56,0,0,1-2.826-1.358,5.215,5.215,0,0,1-1.147-3.485A6,6,0,0,1,260.348,5.6a3.674,3.674,0,0,1,3.019-1.406,3.09,3.09,0,0,1,1.547.382,3.043,3.043,0,0,1,1.1,1.059V1.063ZM261.8,9.271a3.767,3.767,0,0,0,.527,2.118,1.756,1.756,0,0,0,1.582.8,1.849,1.849,0,0,0,1.617-.791,3.5,3.5,0,0,0,.554-2.048,3.141,3.141,0,0,0-.888-2.514,1.91,1.91,0,0,0-1.266-.457,1.759,1.759,0,0,0-1.613.831A3.848,3.848,0,0,0,261.8,9.271Zm17.228,1.916a3.178,3.178,0,0,1-.888,1.731,4.349,4.349,0,0,1-3.445,1.4,4.858,4.858,0,0,1-3.226-1.178,4.75,4.75,0,0,1-1.4-3.832,5.326,5.326,0,0,1,1.261-3.814,4.312,4.312,0,0,1,3.274-1.327,5.021,5.021,0,0,1,2.153.448,3.772,3.772,0,0,1,1.582,1.415,4.828,4.828,0,0,1,.729,1.978,12.771,12.771,0,0,1,.079,1.9H272.6a2.381,2.381,0,0,0,.905,2.021,2.132,2.132,0,0,0,1.248.36,1.8,1.8,0,0,0,1.257-.439,2.087,2.087,0,0,0,.466-.659Zm-2.479-2.936a2.181,2.181,0,0,0-.6-1.507,1.87,1.87,0,0,0-1.34-.514,1.7,1.7,0,0,0-1.349.545,2.72,2.72,0,0,0-.6,1.477ZM285.9,1.045h2.5V14h-2.5Zm5.31,4.412a4.09,4.09,0,0,1,3.41-1.266,6.059,6.059,0,0,1,2.795.624,2.4,2.4,0,0,1,1.222,2.355v4.395q0,.457.018,1.107a1.392,1.392,0,0,0,.149.668.9.9,0,0,0,.369.29V14h-2.725a2.79,2.79,0,0,1-.158-.545q-.044-.255-.07-.58a5.146,5.146,0,0,1-1.2.958,3.6,3.6,0,0,1-1.828.466,3.143,3.143,0,0,1-2.149-.743,2.649,2.649,0,0,1-.848-2.1,2.732,2.732,0,0,1,1.362-2.558,6.049,6.049,0,0,1,2.2-.615l.853-.105a3.91,3.91,0,0,0,.993-.22.753.753,0,0,0,.536-.712.845.845,0,0,0-.409-.813,2.553,2.553,0,0,0-1.2-.224,1.563,1.563,0,0,0-1.257.439,1.827,1.827,0,0,0-.352.879h-2.417A3.676,3.676,0,0,1,291.209,5.457Zm1.863,6.732a1.309,1.309,0,0,0,.861.29,2.551,2.551,0,0,0,1.49-.475,2.024,2.024,0,0,0,.708-1.731V9.342a2.722,2.722,0,0,1-.479.242,4.006,4.006,0,0,1-.664.171l-.562.105a3.632,3.632,0,0,0-1.134.343,1.149,1.149,0,0,0-.58,1.063A1.1,1.1,0,0,0,293.072,12.189Zm20.992-1a3.178,3.178,0,0,1-.888,1.731,4.349,4.349,0,0,1-3.445,1.4,4.858,4.858,0,0,1-3.226-1.178,4.75,4.75,0,0,1-1.4-3.832,5.326,5.326,0,0,1,1.261-3.814,4.312,4.312,0,0,1,3.274-1.327,5.021,5.021,0,0,1,2.153.448,3.772,3.772,0,0,1,1.582,1.415,4.828,4.828,0,0,1,.729,1.978,12.771,12.771,0,0,1,.079,1.9H307.63a2.381,2.381,0,0,0,.905,2.021,2.132,2.132,0,0,0,1.248.36,1.8,1.8,0,0,0,1.257-.439,2.087,2.087,0,0,0,.466-.659Zm-2.479-2.936a2.181,2.181,0,0,0-.6-1.507,1.87,1.87,0,0,0-1.34-.514,1.7,1.7,0,0,0-1.349.545,2.72,2.72,0,0,0-.6,1.477Zm10.891-3.393a3.086,3.086,0,0,1,1.292,2.479h-2.5a1.482,1.482,0,0,0-.272-.765,1.714,1.714,0,0,0-1.406-.51,2.021,2.021,0,0,0-1.165.255.734.734,0,0,0-.347.6.654.654,0,0,0,.369.624,15.98,15.98,0,0,0,2.61.694A4.8,4.8,0,0,1,323.294,9.3a2.415,2.415,0,0,1,.738,1.8,2.911,2.911,0,0,1-1.059,2.325,6.354,6.354,0,0,1-6.609-.053,3.1,3.1,0,0,1-1.077-2.43h2.54a1.673,1.673,0,0,0,.343.949,2.317,2.317,0,0,0,1.723.5,2.626,2.626,0,0,0,1.173-.22.737.737,0,0,0,.083-1.3,14.3,14.3,0,0,0-2.61-.756A5.437,5.437,0,0,1,316.246,9.1a2.191,2.191,0,0,1-.668-1.723A2.988,2.988,0,0,1,316.619,5.1a4.183,4.183,0,0,1,2.931-.954A5.427,5.427,0,0,1,322.477,4.859Zm7.8,7.356v1.872l-1.187.044a3.184,3.184,0,0,1-2.426-.615,1.832,1.832,0,0,1-.422-1.327v-5.9H324.9V4.508h1.336V1.836h2.479V4.508h1.556V6.292h-1.556v5.063a1.14,1.14,0,0,0,.149.734,1.645,1.645,0,0,0,.914.145q.114,0,.242,0T330.275,12.216ZM336.7,6.731a2.078,2.078,0,0,0-2.03.984,3.829,3.829,0,0,0-.29,1.705V14h-2.522V4.42h2.391V6.09a5.3,5.3,0,0,1,1.011-1.31,2.752,2.752,0,0,1,1.828-.589q.07,0,.119,0l.215.013V6.775q-.237-.026-.422-.035T336.7,6.731Zm2.551-1.274a4.09,4.09,0,0,1,3.41-1.266,6.059,6.059,0,0,1,2.795.624,2.4,2.4,0,0,1,1.222,2.355v4.395q0,.457.018,1.107a1.392,1.392,0,0,0,.149.668.9.9,0,0,0,.369.29V14H344.49a2.79,2.79,0,0,1-.158-.545q-.044-.255-.07-.58a5.146,5.146,0,0,1-1.2.958,3.6,3.6,0,0,1-1.828.466,3.143,3.143,0,0,1-2.149-.743,2.649,2.649,0,0,1-.848-2.1A2.732,2.732,0,0,1,339.6,8.894a6.049,6.049,0,0,1,2.2-.615l.853-.105a3.91,3.91,0,0,0,.993-.22.753.753,0,0,0,.536-.712.845.845,0,0,0-.409-.813,2.553,2.553,0,0,0-1.2-.224,1.563,1.563,0,0,0-1.257.439,1.827,1.827,0,0,0-.352.879h-2.417A3.676,3.676,0,0,1,339.252,5.457Zm1.863,6.732a1.309,1.309,0,0,0,.861.29,2.551,2.551,0,0,0,1.49-.475,2.024,2.024,0,0,0,.708-1.731V9.342a2.722,2.722,0,0,1-.479.242,4.006,4.006,0,0,1-.664.171l-.562.105a3.632,3.632,0,0,0-1.134.343,1.149,1.149,0,0,0-.58,1.063A1.1,1.1,0,0,0,341.115,12.189Zm12.175.026v1.872l-1.187.044a3.184,3.184,0,0,1-2.426-.615,1.832,1.832,0,0,1-.422-1.327v-5.9H347.92V4.508h1.336V1.836h2.479V4.508h1.556V6.292h-1.556v5.063a1.14,1.14,0,0,0,.149.734,1.645,1.645,0,0,0,.914.145q.114,0,.242,0T353.29,12.216Zm9.81-1.028a3.178,3.178,0,0,1-.888,1.731,4.349,4.349,0,0,1-3.445,1.4,4.858,4.858,0,0,1-3.226-1.178,4.75,4.75,0,0,1-1.4-3.832,5.326,5.326,0,0,1,1.261-3.814,4.312,4.312,0,0,1,3.274-1.327,5.021,5.021,0,0,1,2.153.448,3.772,3.772,0,0,1,1.582,1.415,4.828,4.828,0,0,1,.729,1.978,12.771,12.771,0,0,1,.079,1.9h-6.557a2.381,2.381,0,0,0,.905,2.021,2.132,2.132,0,0,0,1.248.36,1.8,1.8,0,0,0,1.257-.439,2.087,2.087,0,0,0,.466-.659Zm-2.479-2.936a2.181,2.181,0,0,0-.6-1.507,1.87,1.87,0,0,0-1.34-.514,1.7,1.7,0,0,0-1.349.545,2.72,2.72,0,0,0-.6,1.477Zm7,7.427a2.117,2.117,0,0,0,1.362.343,1.83,1.83,0,0,0,1.811-.905,4.585,4.585,0,0,0,.3-1.951V12.55a3.055,3.055,0,0,1-.773.923,3.11,3.11,0,0,1-1.942.571,3.676,3.676,0,0,1-2.949-1.3,5.241,5.241,0,0,1-1.1-3.511,5.919,5.919,0,0,1,1.063-3.59A3.514,3.514,0,0,1,368.4,4.191a3.3,3.3,0,0,1,1.257.22A3.01,3.01,0,0,1,371.135,5.8V4.42h2.435v9.088a5.09,5.09,0,0,1-.624,2.795q-1.072,1.617-4.113,1.617a5.6,5.6,0,0,1-3-.721,2.659,2.659,0,0,1-1.283-2.153h2.725A1.128,1.128,0,0,0,367.62,15.679ZM367.2,10.73a1.833,1.833,0,0,0,1.828,1.213,1.935,1.935,0,0,0,1.485-.664,3.072,3.072,0,0,0,.606-2.114,3.235,3.235,0,0,0-.576-2.074A1.882,1.882,0,0,0,369,6.38a1.818,1.818,0,0,0-1.819,1.239,4.395,4.395,0,0,0-.264,1.626A3.71,3.71,0,0,0,367.2,10.73ZM378.485,4.42V14h-2.54V4.42Zm0-3.454V3.277h-2.54V.966Zm2.788,4.491a4.09,4.09,0,0,1,3.41-1.266,6.059,6.059,0,0,1,2.795.624A2.4,2.4,0,0,1,388.7,7.171v4.395q0,.457.018,1.107a1.392,1.392,0,0,0,.149.668.9.9,0,0,0,.369.29V14h-2.725a2.79,2.79,0,0,1-.158-.545q-.044-.255-.07-.58a5.146,5.146,0,0,1-1.2.958,3.6,3.6,0,0,1-1.828.466,3.143,3.143,0,0,1-2.149-.743,2.649,2.649,0,0,1-.848-2.1,2.732,2.732,0,0,1,1.362-2.558,6.049,6.049,0,0,1,2.2-.615l.853-.105a3.91,3.91,0,0,0,.993-.22.753.753,0,0,0,.536-.712.845.845,0,0,0-.409-.813,2.553,2.553,0,0,0-1.2-.224,1.563,1.563,0,0,0-1.257.439,1.827,1.827,0,0,0-.352.879H380.57A3.676,3.676,0,0,1,381.273,5.457Zm1.863,6.732a1.309,1.309,0,0,0,.861.29,2.551,2.551,0,0,0,1.49-.475,2.024,2.024,0,0,0,.708-1.731V9.342a2.722,2.722,0,0,1-.479.242,4.006,4.006,0,0,1-.664.171l-.562.105a3.632,3.632,0,0,0-1.134.343,1.149,1.149,0,0,0-.58,1.063A1.1,1.1,0,0,0,383.136,12.189Zm7.745-.809h2.663V14h-2.663Z" transform="translate(360.5 3518.693)" fill="#fff"/>
    <path id="Contenido-8" data-name="Contenido" d="M8.262,23.527q-4.058,0-5.691-2.842t-1.633-8.1q0-5.259,1.633-8.115T8.262,1.613q4.058,0,5.7,2.856t1.626,8.115q0,5.259-1.633,8.1T8.262,23.527Zm2.446-5.347a20.9,20.9,0,0,0,.571-5.6A20.5,20.5,0,0,0,10.7,6.9,2.364,2.364,0,0,0,8.262,5.056,2.4,2.4,0,0,0,5.8,6.9a19.784,19.784,0,0,0-.6,5.684,20.007,20.007,0,0,0,.6,5.6,2.418,2.418,0,0,0,2.461,1.941A2.4,2.4,0,0,0,10.708,18.181Zm21.665-3.018V18.43h-2.4V23H25.884V18.43H17.476V14.782L25.283,1.892h4.688V15.163Zm-11.807,0h5.317V5.993Z" transform="translate(312 3492.193)" fill="#fff"/>
  </g>
</svg>
