<svg xmlns="http://www.w3.org/2000/svg" xmlns:xlink="http://www.w3.org/1999/xlink" width="1328" height="427.37" viewBox="0 0 1328 427.37">
  <defs>
    <clipPath id="clip-path">
      <rect id="Rectángulo_409721" data-name="Rectángulo 409721" width="62" height="49" transform="translate(0 0.017)" fill="#edae3b" stroke="#707070" stroke-width="1" opacity="0.6"/>
    </clipPath>
    <clipPath id="clip-path-2">
      <rect id="Rectángulo_409720" data-name="Rectángulo 409720" width="143.726" height="140.991" fill="#edae3b"/>
    </clipPath>
    <clipPath id="clip-path-3">
      <rect id="Rectángulo_409723" data-name="Rectángulo 409723" width="62" height="49" fill="#edae3b" stroke="#707070" stroke-width="1" opacity="0.6"/>
    </clipPath>
  </defs>
  <g id="Grupo_1160591" data-name="Grupo 1160591" transform="translate(-136 -1183)">
    <rect id="Rectángulo_409799" data-name="Rectángulo 409799" width="1328" height="427" transform="translate(136 1183.37)" fill="#f7ead7"/>
    <path id="Trazado_993834" data-name="Trazado 993834" d="M-73.518,887.8l1.129-4.318a.209.209,0,0,1,.217-.156,16.844,16.844,0,0,0,6.973-.96.209.209,0,0,1,.251.091l2.254,3.851a1.31,1.31,0,0,0,.8.609,1.309,1.309,0,0,0,1-.138l2.827-1.655a1.32,1.32,0,0,0,.471-1.8l-2.254-3.851a.207.207,0,0,1,.044-.263,16.852,16.852,0,0,0,4.25-5.611.209.209,0,0,1,.242-.113l4.318,1.129a1.319,1.319,0,0,0,1.608-.941l.829-3.168a1.317,1.317,0,0,0-.941-1.608l-4.317-1.13a.212.212,0,0,1-.156-.217,16.772,16.772,0,0,0-.959-6.973.208.208,0,0,1,.091-.251l3.851-2.254a1.319,1.319,0,0,0,.471-1.8l-1.655-2.826a1.307,1.307,0,0,0-.8-.609,1.311,1.311,0,0,0-1,.138l-3.851,2.254a.209.209,0,0,1-.263-.044,16.846,16.846,0,0,0-5.61-4.25.21.21,0,0,1-.113-.242l1.129-4.318a1.308,1.308,0,0,0-.138-1,1.307,1.307,0,0,0-.8-.608l-3.169-.829a1.319,1.319,0,0,0-1.608.941l-1.129,4.318a.209.209,0,0,1-.217.156,16.834,16.834,0,0,0-6.973.959.209.209,0,0,1-.251-.091l-2.254-3.851a1.319,1.319,0,0,0-1.8-.471l-2.827,1.655a1.309,1.309,0,0,0-.609.8,1.309,1.309,0,0,0,.138,1l2.254,3.851a.207.207,0,0,1,.029.114.207.207,0,0,1-.072.149,16.844,16.844,0,0,0-4.25,5.61.209.209,0,0,1-.242.113l-4.318-1.129a1.308,1.308,0,0,0-1,.138,1.307,1.307,0,0,0-.609.8l-.829,3.168a1.317,1.317,0,0,0,.138,1,1.31,1.31,0,0,0,.8.609l4.318,1.129a.211.211,0,0,1,.156.217,16.76,16.76,0,0,0,.959,6.973.208.208,0,0,1-.091.251l-3.851,2.254a1.319,1.319,0,0,0-.471,1.8l1.655,2.826a1.309,1.309,0,0,0,.8.609,1.31,1.31,0,0,0,1-.138l3.851-2.254a.209.209,0,0,1,.263.044,16.835,16.835,0,0,0,5.61,4.25.209.209,0,0,1,.113.242l-1.129,4.318a1.319,1.319,0,0,0,.941,1.608l3.168.829a1.308,1.308,0,0,0,1-.138A1.307,1.307,0,0,0-73.518,887.8Zm.655-12.595a9.082,9.082,0,0,1-7.157-9.227,9.092,9.092,0,0,1,.2-1.542,9.078,9.078,0,0,1,10.768-6.961,9.081,9.081,0,0,1,6.961,10.769,9.007,9.007,0,0,1-3.943,5.711A9.011,9.011,0,0,1-72.862,875.2Z" transform="translate(798.403 678.479)" fill="#edae3b" opacity="0.4"/>
    <path id="Trazado_994444" data-name="Trazado 994444" d="M-64.563,907.566l1.638-6.262a.3.3,0,0,1,.315-.226A24.426,24.426,0,0,0-52.5,899.686a.3.3,0,0,1,.364.132l3.269,5.585a1.9,1.9,0,0,0,1.166.883,1.9,1.9,0,0,0,1.448-.2l4.1-2.4a1.914,1.914,0,0,0,.683-2.614l-3.269-5.585a.3.3,0,0,1,.063-.382,24.441,24.441,0,0,0,6.164-8.137.3.3,0,0,1,.351-.164l6.263,1.638a1.912,1.912,0,0,0,2.332-1.365l1.2-4.6a1.91,1.91,0,0,0-1.365-2.332l-6.261-1.638a.308.308,0,0,1-.226-.315,24.324,24.324,0,0,0-1.391-10.113.3.3,0,0,1,.132-.364l5.585-3.269a1.913,1.913,0,0,0,.684-2.614l-2.4-4.1a1.9,1.9,0,0,0-1.165-.883,1.9,1.9,0,0,0-1.449.2l-5.585,3.269a.3.3,0,0,1-.382-.063,24.432,24.432,0,0,0-8.136-6.164.3.3,0,0,1-.164-.351l1.637-6.262a1.9,1.9,0,0,0-.2-1.449,1.9,1.9,0,0,0-1.164-.882l-4.6-1.2a1.913,1.913,0,0,0-2.332,1.365l-1.638,6.262a.3.3,0,0,1-.315.226A24.413,24.413,0,0,0-69.206,853.2a.3.3,0,0,1-.364-.132l-3.269-5.585a1.913,1.913,0,0,0-2.614-.684l-4.1,2.4a1.9,1.9,0,0,0-.883,1.165,1.9,1.9,0,0,0,.2,1.449l3.269,5.585a.3.3,0,0,1,.041.165.3.3,0,0,1-.1.217,24.428,24.428,0,0,0-6.164,8.136.3.3,0,0,1-.351.164l-6.262-1.638a1.9,1.9,0,0,0-1.449.2,1.9,1.9,0,0,0-.883,1.165l-1.2,4.595a1.91,1.91,0,0,0,.2,1.449,1.9,1.9,0,0,0,1.165.883l6.263,1.638a.305.305,0,0,1,.226.314A24.307,24.307,0,0,0-84.1,884.8a.3.3,0,0,1-.132.364l-5.585,3.269a1.914,1.914,0,0,0-.684,2.614l2.4,4.1a1.9,1.9,0,0,0,1.165.883,1.9,1.9,0,0,0,1.449-.2l5.585-3.269a.3.3,0,0,1,.382.063,24.416,24.416,0,0,0,8.136,6.164.3.3,0,0,1,.164.351l-1.638,6.262a1.914,1.914,0,0,0,1.365,2.332l4.595,1.2a1.9,1.9,0,0,0,1.449-.2A1.9,1.9,0,0,0-64.563,907.566Zm.95-18.266a13.171,13.171,0,0,1-10.379-13.381,13.187,13.187,0,0,1,.283-2.236,13.166,13.166,0,0,1,15.617-10.1A13.17,13.17,0,0,1-48,879.2a13.063,13.063,0,0,1-5.718,8.282A13.069,13.069,0,0,1-63.613,889.3Z" transform="translate(733.3 367.427)" fill="#edae3b" opacity="0.4"/>
    <path id="Trazado_994445" data-name="Trazado 994445" d="M-69.041,897.679l1.384-5.29a.256.256,0,0,1,.266-.191,20.635,20.635,0,0,0,8.542-1.176.256.256,0,0,1,.308.111l2.762,4.718a1.605,1.605,0,0,0,.985.746,1.6,1.6,0,0,0,1.223-.169l3.463-2.027a1.617,1.617,0,0,0,.577-2.208l-2.761-4.718a.253.253,0,0,1,.054-.322,20.646,20.646,0,0,0,5.207-6.874.256.256,0,0,1,.3-.139l5.29,1.384a1.616,1.616,0,0,0,1.97-1.153l1.015-3.882a1.614,1.614,0,0,0-1.153-1.97l-5.289-1.384a.26.26,0,0,1-.191-.266,20.548,20.548,0,0,0-1.175-8.542.254.254,0,0,1,.111-.308l4.718-2.761a1.616,1.616,0,0,0,.577-2.208l-2.027-3.463a1.6,1.6,0,0,0-.984-.746,1.606,1.606,0,0,0-1.224.169l-4.718,2.762a.256.256,0,0,1-.323-.054,20.638,20.638,0,0,0-6.873-5.207.257.257,0,0,1-.139-.3l1.383-5.29a1.6,1.6,0,0,0-.169-1.224,1.6,1.6,0,0,0-.984-.745l-3.882-1.016a1.616,1.616,0,0,0-1.97,1.153l-1.384,5.29a.256.256,0,0,1-.266.191,20.622,20.622,0,0,0-8.542,1.175.256.256,0,0,1-.308-.111l-2.762-4.718a1.616,1.616,0,0,0-2.208-.577l-3.463,2.027a1.6,1.6,0,0,0-.746.984,1.6,1.6,0,0,0,.169,1.224l2.762,4.718a.254.254,0,0,1,.035.14.254.254,0,0,1-.088.183,20.636,20.636,0,0,0-5.207,6.873.256.256,0,0,1-.3.139l-5.29-1.384a1.6,1.6,0,0,0-1.224.169,1.6,1.6,0,0,0-.746.984l-1.016,3.882a1.613,1.613,0,0,0,.169,1.224,1.6,1.6,0,0,0,.984.746l5.29,1.384a.258.258,0,0,1,.191.266,20.533,20.533,0,0,0,1.175,8.543.254.254,0,0,1-.111.308l-4.718,2.762a1.617,1.617,0,0,0-.577,2.208l2.027,3.463a1.6,1.6,0,0,0,.984.746,1.6,1.6,0,0,0,1.224-.169L-82,885a.256.256,0,0,1,.323.053,20.625,20.625,0,0,0,6.873,5.207.256.256,0,0,1,.139.3l-1.384,5.29a1.616,1.616,0,0,0,1.153,1.97l3.881,1.015a1.6,1.6,0,0,0,1.224-.169A1.6,1.6,0,0,0-69.041,897.679Zm.8-15.43a11.126,11.126,0,0,1-8.768-11.3,11.139,11.139,0,0,1,.239-1.889,11.122,11.122,0,0,1,13.193-8.528,11.125,11.125,0,0,1,8.529,13.193,11.035,11.035,0,0,1-4.83,7A11.04,11.04,0,0,1-68.238,882.249Z" transform="translate(1471.408 701.834)" fill="#edae3b" opacity="0.4"/>
    <g id="Enmascarar_grupo_1098759" data-name="Enmascarar grupo 1098759" transform="translate(136 1560.983)" opacity="0.4" clip-path="url(#clip-path)">
      <g id="POST_4" transform="translate(0.142 -91.979)">
        <g id="Grupo_1158620" data-name="Grupo 1158620" transform="translate(0)">
          <g id="Grupo_1158619" data-name="Grupo 1158619" opacity="0.67" clip-path="url(#clip-path-2)">
            <path id="Trazado_993836" data-name="Trazado 993836" d="M39.068,1.981l2.219,8.686a.412.412,0,0,0,.426.313,32.377,32.377,0,0,1,13.7,1.931.406.406,0,0,0,.493-.183l4.429-7.747a2.583,2.583,0,0,1,1.579-1.225,2.52,2.52,0,0,1,1.962.277l5.553,3.329a2.69,2.69,0,0,1,.925,3.626l-4.428,7.746a.423.423,0,0,0,.086.53,33.835,33.835,0,0,1,8.35,11.287.407.407,0,0,0,.475.227L83.32,28.5A2.586,2.586,0,0,1,86.478,30.4l1.628,6.374a2.656,2.656,0,0,1-1.85,3.234l-8.482,2.272a.426.426,0,0,0-.306.436,34.487,34.487,0,0,1-1.885,14.027.423.423,0,0,0,.179.505l7.565,4.534a2.689,2.689,0,0,1,.926,3.626L81,71.092a2.576,2.576,0,0,1-1.578,1.225,2.523,2.523,0,0,1-1.962-.277L69.9,67.505a.4.4,0,0,0-.517.088,33.186,33.186,0,0,1-11.022,8.551.426.426,0,0,0-.222.486l2.218,8.686a2.686,2.686,0,0,1-.27,2.01,2.574,2.574,0,0,1-1.577,1.224l-6.225,1.668a2.587,2.587,0,0,1-3.159-1.894L46.9,79.638a.412.412,0,0,0-.426-.313,32.358,32.358,0,0,1-13.7-1.93.405.405,0,0,0-.493.183l-4.429,7.748a2.557,2.557,0,0,1-3.541.948l-5.553-3.329a2.628,2.628,0,0,1-1.2-1.616,2.689,2.689,0,0,1,.27-2.009l4.429-7.747a.425.425,0,0,0,.056-.229.42.42,0,0,0-.142-.3,33.817,33.817,0,0,1-8.35-11.286.407.407,0,0,0-.475-.227L4.872,61.8a2.518,2.518,0,0,1-1.962-.277,2.623,2.623,0,0,1-1.2-1.616L.084,53.535a2.705,2.705,0,0,1,.27-2.009A2.581,2.581,0,0,1,1.933,50.3l8.484-2.272a.423.423,0,0,0,.306-.437,34.461,34.461,0,0,1,1.885-14.027.422.422,0,0,0-.179-.5L4.862,28.525A2.69,2.69,0,0,1,3.936,24.9l3.251-5.686a2.581,2.581,0,0,1,1.578-1.225,2.522,2.522,0,0,1,1.962.277L18.293,22.8a.4.4,0,0,0,.517-.088,33.169,33.169,0,0,1,11.022-8.55.423.423,0,0,0,.222-.486L27.835,4.989a2.66,2.66,0,0,1,1.849-3.234L35.909.087a2.518,2.518,0,0,1,1.962.277A2.631,2.631,0,0,1,39.068,1.981ZM40.355,27.32a18.2,18.2,0,0,0-14.06,18.561,18.7,18.7,0,0,0,.384,3.1,17.841,17.841,0,0,0,21.156,14,18.4,18.4,0,0,0,5.931-33.151A17.359,17.359,0,0,0,40.355,27.32Z" transform="translate(-27.809 92.619)" fill="#edae3b"/>
          </g>
        </g>
      </g>
    </g>
    <g id="Enmascarar_grupo_1098760" data-name="Enmascarar grupo 1098760" transform="translate(1402 1183)" opacity="0.4" clip-path="url(#clip-path-3)">
      <g id="POST_4-2" data-name="POST_4" transform="translate(-81.868 0.005)">
        <g id="Grupo_1160501" data-name="Grupo 1160501">
          <g id="Grupo_1160500" data-name="Grupo 1160500" opacity="0.67" clip-path="url(#clip-path-2)">
            <path id="Trazado_994446" data-name="Trazado 994446" d="M49.124,88.323l-2.219-8.686a.412.412,0,0,0-.426-.313,32.377,32.377,0,0,1-13.7-1.931.406.406,0,0,0-.493.183l-4.429,7.747a2.583,2.583,0,0,1-1.579,1.225,2.52,2.52,0,0,1-1.962-.277l-5.553-3.329a2.69,2.69,0,0,1-.925-3.626l4.428-7.746a.423.423,0,0,0-.086-.53,33.835,33.835,0,0,1-8.35-11.287.407.407,0,0,0-.475-.227L4.872,61.8a2.586,2.586,0,0,1-3.159-1.893L.086,53.533A2.656,2.656,0,0,1,1.935,50.3l8.482-2.272a.426.426,0,0,0,.306-.436,34.487,34.487,0,0,1,1.885-14.027.423.423,0,0,0-.179-.505L4.863,28.524A2.689,2.689,0,0,1,3.937,24.9l3.251-5.686a2.576,2.576,0,0,1,1.578-1.225,2.523,2.523,0,0,1,1.962.277L18.294,22.8a.4.4,0,0,0,.517-.088A33.186,33.186,0,0,1,29.833,14.16a.426.426,0,0,0,.222-.486L27.837,4.988a2.686,2.686,0,0,1,.27-2.01,2.574,2.574,0,0,1,1.577-1.224L35.91.086A2.587,2.587,0,0,1,39.069,1.98l2.219,8.686a.412.412,0,0,0,.426.313,32.358,32.358,0,0,1,13.7,1.93.405.405,0,0,0,.493-.183l4.429-7.748a2.557,2.557,0,0,1,3.541-.948l5.553,3.329a2.628,2.628,0,0,1,1.2,1.616,2.689,2.689,0,0,1-.27,2.009l-4.429,7.747a.425.425,0,0,0-.056.229.42.42,0,0,0,.142.3,33.817,33.817,0,0,1,8.35,11.286.407.407,0,0,0,.475.227L83.32,28.5a2.518,2.518,0,0,1,1.962.277,2.623,2.623,0,0,1,1.2,1.616l1.629,6.374a2.705,2.705,0,0,1-.27,2.009A2.581,2.581,0,0,1,86.259,40l-8.484,2.272a.423.423,0,0,0-.306.437A34.461,34.461,0,0,1,75.585,56.74a.422.422,0,0,0,.179.5l7.566,4.535a2.69,2.69,0,0,1,.926,3.626L81.005,71.09a2.581,2.581,0,0,1-1.578,1.225,2.522,2.522,0,0,1-1.962-.277L69.9,67.5a.4.4,0,0,0-.517.088,33.168,33.168,0,0,1-11.022,8.55.423.423,0,0,0-.222.486l2.219,8.687a2.66,2.66,0,0,1-1.849,3.234l-6.224,1.667a2.518,2.518,0,0,1-1.962-.277A2.631,2.631,0,0,1,49.124,88.323ZM47.837,62.984A18.2,18.2,0,0,0,61.9,44.423a18.7,18.7,0,0,0-.384-3.1,17.841,17.841,0,0,0-21.156-14,18.4,18.4,0,0,0-5.931,33.151A17.359,17.359,0,0,0,47.837,62.984Z" transform="translate(83.343 -41.932)" fill="#edae3b"/>
          </g>
        </g>
      </g>
    </g>
  </g>
</svg>
